<svg width="16" height="16" viewBox="0 0 16 16" fill="none" xmlns="http://www.w3.org/2000/svg">
<path fill-rule="evenodd" clip-rule="evenodd" d="M2.56588 4.75202C2.70288 4.51226 3.00831 4.42896 3.24807 4.56596L6.49614 6.422C6.80771 6.60005 7 6.93139 7 7.29025V8.00009H8.03858L8.03858 5.10008C8.03858 4.76871 8.30721 4.50009 8.63858 4.50009H10.9348C11.1728 4.50009 11.3883 4.64076 11.4841 4.85865L12.865 8.00009H13.4C13.7314 8.00009 14 8.26871 14 8.60009V10.4001C14 10.7315 13.7314 11.0001 13.4 11.0001H12.5C12.5 11.8285 11.8284 12.5001 11 12.5001C10.1716 12.5001 9.5 11.8285 9.5 11.0001H6.5C6.5 11.8285 5.82843 12.5001 5 12.5001C4.17157 12.5001 3.5 11.8285 3.5 11.0001H2.6C2.26863 11.0001 2 10.7315 2 10.4001V8.60009C2 8.26871 2.26863 8.00009 2.6 8.00009H6V7.29025L2.75193 5.43421C2.51217 5.2972 2.42887 4.99177 2.56588 4.75202ZM12.5277 9.00009C12.5351 9.00025 12.5426 9.00025 12.55 9.00009H13V10.0001H12.1181C11.8434 9.69321 11.4443 9.50009 11 9.50009C10.5557 9.50009 10.1566 9.69321 9.88195 10.0001H6.11805C5.84339 9.69321 5.44425 9.50009 5 9.50009C4.55575 9.50009 4.15661 9.69321 3.88195 10.0001H3V9.00009H6.5H8.53857H12.5277ZM11.7726 8.00009L10.6737 5.50009H9.03858L9.03858 8.00009H11.7726ZM4.5 11.0001C4.5 10.7239 4.72386 10.5001 5 10.5001C5.27614 10.5001 5.5 10.7239 5.5 11.0001C5.5 11.2762 5.27614 11.5001 5 11.5001C4.72386 11.5001 4.5 11.2762 4.5 11.0001ZM11 10.5001C10.7239 10.5001 10.5 10.7239 10.5 11.0001C10.5 11.2762 10.7239 11.5001 11 11.5001C11.2761 11.5001 11.5 11.2762 11.5 11.0001C11.5 10.7239 11.2761 10.5001 11 10.5001Z" fill="black"/>
</svg>
