<svg width="16" height="16" viewBox="0 0 16 16" fill="none" xmlns="http://www.w3.org/2000/svg">
<path fill-rule="evenodd" clip-rule="evenodd" d="M10.277 3.0752C10.4422 3.0752 10.6347 3.10533 10.8068 3.1914L13.8689 4.72246C14.0242 4.80011 14.2722 4.9884 14.2722 5.32278C14.2722 5.65716 14.0242 5.84544 13.8689 5.9231L11 7.35756V8.44795L13.5482 7.17387C13.7951 7.05037 14.0955 7.15049 14.219 7.39747C14.3425 7.64446 14.2424 7.9448 13.9954 8.0683L11 9.56598V10.6706L13.5482 9.39652C13.7951 9.27303 14.0955 9.37314 14.219 9.62013C14.3425 9.86712 14.2424 10.1675 13.9954 10.291L7.6769 13.4502C7.50208 13.5376 7.30611 13.5684 7.13737 13.5684C6.96864 13.5684 6.77267 13.5376 6.59784 13.4502L3.43861 11.8706C3.19162 11.7471 3.09151 11.4467 3.21501 11.1997C3.3385 10.9528 3.63884 10.8526 3.88583 10.9761L7.04433 12.5554C7.04435 12.5554 7.05197 12.5586 7.06861 12.562C7.08742 12.5658 7.11117 12.5684 7.13737 12.5684C7.16358 12.5684 7.18733 12.5658 7.20614 12.562C7.22278 12.5586 7.2304 12.5554 7.23041 12.5554L10 11.1706V10.066L7.6769 11.2275C7.50208 11.3149 7.30611 11.3457 7.13737 11.3457C6.96864 11.3457 6.77267 11.3149 6.59784 11.2275L3.43861 9.64791C3.19162 9.52442 3.09151 9.22408 3.21501 8.97709C3.3385 8.7301 3.63884 8.62999 3.88583 8.75348L7.04433 10.3327C7.04583 10.3333 7.05377 10.3363 7.06861 10.3394C7.08742 10.3432 7.11117 10.3457 7.13737 10.3457C7.16358 10.3457 7.18733 10.3432 7.20614 10.3394C7.22278 10.336 7.2304 10.3327 7.23041 10.3327L10 8.94795V7.85756L7.74471 8.98521C7.57257 9.07128 7.38011 9.10141 7.21489 9.10141C7.04967 9.10141 6.85721 9.07128 6.68507 8.98521L3.62296 7.45415C3.46765 7.3765 3.21973 7.18821 3.21973 6.85383C3.21973 6.51945 3.46765 6.33117 3.62296 6.25351L9.74718 3.1914C9.91933 3.10533 10.1118 3.0752 10.277 3.0752ZM10.193 4.08653L8.09611 5.13497L10.6526 6.41322L12.8335 5.32278L10.3611 4.08656C10.3597 4.08606 10.353 4.08359 10.3406 4.08108C10.3234 4.0776 10.3014 4.0752 10.277 4.0752C10.2526 4.0752 10.2306 4.0776 10.2134 4.08108C10.201 4.08359 10.1944 4.08603 10.193 4.08653ZM4.65839 6.85383L6.97808 5.69399L9.53458 6.97224L7.29889 8.09008C7.29753 8.09058 7.29087 8.09302 7.27849 8.09553C7.26133 8.09901 7.23933 8.10141 7.21489 8.10141C7.19045 8.10141 7.16845 8.09901 7.15129 8.09553C7.13818 8.09287 7.1317 8.09037 7.13088 8.09008L4.65839 6.85383Z" fill="black"/>
</svg>
