<svg width="16" height="16" viewBox="0 0 16 16" fill="none" xmlns="http://www.w3.org/2000/svg">
<path fill-rule="evenodd" clip-rule="evenodd" d="M3 3H6.31522L6.31522 6.31522L3 6.31522V3ZM2 3C2 2.44772 2.44772 2 3 2H6.31522C6.8675 2 7.31522 2.44772 7.31522 3V6.31522C7.31522 6.8675 6.8675 7.31522 6.31522 7.31522H3C2.44772 7.31522 2 6.8675 2 6.31522V3ZM3 9.68475H6.31522L6.31522 13L3 13V9.68475ZM2 9.68475C2 9.13247 2.44772 8.68475 3 8.68475H6.31522C6.8675 8.68475 7.31522 9.13247 7.31522 9.68475V13C7.31522 13.5523 6.8675 14 6.31522 14H3C2.44772 14 2 13.5523 2 13V9.68475ZM13.0141 9.68475H9.69886V13L13.0141 13L13.0141 9.68475ZM9.69886 8.68475C9.14658 8.68475 8.69886 9.13247 8.69886 9.68475V13C8.69886 13.5523 9.14658 14 9.69886 14H13.0141C13.5664 14 14.0141 13.5523 14.0141 13V9.68475C14.0141 9.13247 13.5664 8.68475 13.0141 8.68475H9.69886ZM9.69886 3H13.0141L13.0141 6.31522L9.69886 6.31522V3ZM8.69886 3C8.69886 2.44772 9.14658 2 9.69886 2H13.0141C13.5664 2 14.0141 2.44772 14.0141 3V6.31522C14.0141 6.8675 13.5664 7.31522 13.0141 7.31522H9.69886C9.14658 7.31522 8.69886 6.8675 8.69886 6.31522V3Z" fill="black"/>
</svg>
