<svg width="16" height="16" viewBox="0 0 16 16" fill="none" xmlns="http://www.w3.org/2000/svg">
<path fill-rule="evenodd" clip-rule="evenodd" d="M8.16993 7.28608L5.5125 9.94351C5.31724 10.1388 5.00066 10.1388 4.80539 9.94351L2.90264 8.04075C1.83128 6.9694 1.83128 5.23239 2.90264 4.16103C3.97399 3.08968 5.711 3.08968 6.78236 4.16103L8.16989 5.54856L9.55864 4.15981C10.6298 3.08866 12.3665 3.08866 13.4376 4.15981C14.5088 5.23096 14.5088 6.96764 13.4376 8.03879L11.5337 9.94273C11.3384 10.138 11.0218 10.138 10.8266 9.94273L8.16993 7.28608ZM11.1801 8.88207L8.71537 6.4173L10.2658 4.86692C10.9464 4.18629 12.0499 4.18629 12.7305 4.86692C13.4111 5.54754 13.4111 6.65106 12.7305 7.33169L11.1801 8.88207ZM3.60974 7.33365C2.92891 6.65282 2.92891 5.54897 3.60974 4.86814C4.29057 4.18731 5.39442 4.18731 6.07525 4.86814L7.62445 6.41734L5.15895 8.88285L3.60974 7.33365ZM8.62147 10.0227C8.62147 10.256 8.43231 10.4452 8.19897 10.4452C7.96563 10.4452 7.77647 10.256 7.77647 10.0227C7.77647 9.78932 7.96563 9.60016 8.19897 9.60016C8.43231 9.60016 8.62147 9.78932 8.62147 10.0227ZM6.64706 11.7384C6.8804 11.7384 7.06956 11.5493 7.06956 11.3159C7.06956 11.0826 6.8804 10.8934 6.64706 10.8934C6.41372 10.8934 6.22456 11.0826 6.22456 11.3159C6.22456 11.5493 6.41372 11.7384 6.64706 11.7384ZM8.62147 12.6092C8.62147 12.8425 8.43231 13.0317 8.19897 13.0317C7.96563 13.0317 7.77647 12.8425 7.77647 12.6092C7.77647 12.3759 7.96563 12.1867 8.19897 12.1867C8.43231 12.1867 8.62147 12.3759 8.62147 12.6092ZM9.70779 11.7384C9.94113 11.7384 10.1303 11.5493 10.1303 11.3159C10.1303 11.0826 9.94113 10.8934 9.70779 10.8934C9.47445 10.8934 9.28529 11.0826 9.28529 11.3159C9.28529 11.5493 9.47445 11.7384 9.70779 11.7384Z" fill="black"/>
</svg>
