<svg width="16" height="16" viewBox="0 0 16 16" fill="none" xmlns="http://www.w3.org/2000/svg">
<path fill-rule="evenodd" clip-rule="evenodd" d="M8.19864 1.5777C8.03235 1.47229 7.81968 1.47428 7.65539 1.58279L2.2245 5.16974C1.99408 5.32193 1.93065 5.63209 2.08284 5.86251C2.23503 6.09294 2.54519 6.15636 2.77561 6.00417L7.93653 2.59553L13.3218 6.00926C13.5551 6.1571 13.864 6.08788 14.0118 5.85465C14.1597 5.62142 14.0905 5.3125 13.8572 5.16465L12.7189 4.4431C12.7296 4.40245 12.7353 4.35979 12.7353 4.31579V2.47826C12.7353 2.20212 12.5114 1.97826 12.2353 1.97826C11.9592 1.97826 11.7353 2.20212 11.7353 2.47826V3.81957L8.19864 1.5777ZM4.07374 6.90947C4.07374 6.63333 3.84988 6.40947 3.57374 6.40947C3.2976 6.40947 3.07374 6.63333 3.07374 6.90947V11C3.07374 12.3807 4.19303 13.5 5.57374 13.5H10.2353C11.616 13.5 12.7353 12.3807 12.7353 11V6.90947C12.7353 6.63333 12.5114 6.40947 12.2353 6.40947C11.9592 6.40947 11.7353 6.63333 11.7353 6.90947V11C11.7353 11.8284 11.0637 12.5 10.2353 12.5H5.57374C4.74531 12.5 4.07374 11.8284 4.07374 11V6.90947ZM5.50251 7.35113C5.48676 7.60932 5.54864 7.85176 5.63639 8.08913C5.81696 8.57907 6.0954 9.01725 6.43572 9.41438C6.88966 9.95606 7.43642 10.3841 8.07093 10.6935C8.35444 10.833 8.65369 10.941 8.97376 10.9567C9.19539 10.9669 9.38608 10.9106 9.54077 10.7402C9.61463 10.6555 9.69593 10.5762 9.77773 10.4965C9.81057 10.4645 9.84348 10.4324 9.87603 10.3999C10.0414 10.2345 10.0414 10.0286 9.87603 9.86325C9.74532 9.72879 9.61211 9.59684 9.47974 9.46572C9.41386 9.40047 9.34819 9.33542 9.28314 9.27038C9.12339 9.11007 8.91695 9.11007 8.75663 9.27038C8.73609 9.29101 8.71552 9.31165 8.69495 9.33228C8.59214 9.4354 8.48934 9.53851 8.39044 9.64163C8.35444 9.67763 8.32913 9.68269 8.2875 9.66188C8.26409 9.65025 8.24069 9.63904 8.21741 9.62788C8.15845 9.59962 8.10031 9.57176 8.04506 9.53869C7.68899 9.31144 7.38467 9.02288 7.12198 8.69775C6.98754 8.53294 6.87448 8.36251 6.79179 8.16619C6.77604 8.12513 6.78166 8.09926 6.8126 8.06832L6.83057 8.05108C6.94832 7.93818 7.06585 7.82549 7.17879 7.70719C7.34867 7.53732 7.34867 7.33595 7.17879 7.16551C7.12137 7.10531 7.0618 7.04682 7.00154 6.98767C6.96439 6.95121 6.92699 6.91449 6.88966 6.87695C6.85724 6.84453 6.82426 6.81149 6.79108 6.77824C6.72408 6.71112 6.65624 6.64315 6.59041 6.5777C6.43066 6.41795 6.22421 6.41795 6.06446 6.5777C6.00259 6.63704 5.94071 6.69892 5.87883 6.76079C5.81696 6.82267 5.75508 6.88454 5.69321 6.94388C5.57452 7.05751 5.51264 7.19138 5.50251 7.35113Z" fill="black"/>
</svg>
