<svg width="16" height="16" viewBox="0 0 16 16" fill="none" xmlns="http://www.w3.org/2000/svg">
<path fill-rule="evenodd" clip-rule="evenodd" d="M12 4C11.4477 4 11 4.44772 11 5C11 5.55228 11.4477 6 12 6C12.5523 6 13 5.55228 13 5C13 4.44772 12.5523 4 12 4ZM10.063 4.5C10.285 3.63739 11.0681 3 12 3C13.1046 3 14 3.89543 14 5C14 6.10457 13.1046 7 12 7C11.0681 7 10.285 6.36261 10.063 5.5H8.5V10.5H10.063C10.285 9.63739 11.0681 9 12 9C13.1046 9 14 9.89543 14 11C14 12.1046 13.1046 13 12 13C11.0681 13 10.285 12.3626 10.063 11.5H8.1C7.76863 11.5 7.5 11.2314 7.5 10.9V8.5H5.93699C5.71497 9.36261 4.93192 10 4 10C2.89543 10 2 9.10457 2 8C2 6.89543 2.89543 6 4 6C4.93192 6 5.71497 6.63739 5.93699 7.5H7.5V5.1C7.5 4.76863 7.76863 4.5 8.1 4.5H10.063ZM4 7C3.44772 7 3 7.44772 3 8C3 8.55228 3.44772 9 4 9C4.55228 9 5 8.55228 5 8C5 7.44772 4.55228 7 4 7ZM11 11C11 10.4477 11.4477 10 12 10C12.5523 10 13 10.4477 13 11C13 11.5523 12.5523 12 12 12C11.4477 12 11 11.5523 11 11Z" fill="black"/>
</svg>
