<svg width="16" height="16" viewBox="0 0 16 16" fill="none" xmlns="http://www.w3.org/2000/svg">
<path fill-rule="evenodd" clip-rule="evenodd" d="M4 8.65594C4 8.87938 4.02041 9.10235 4.06097 9.32208L4.10972 9.58614C4.29589 10.5945 4.89795 11.4778 5.76814 12.0196L8 13.3385L10.2319 12.0196C11.102 11.4778 11.7041 10.5945 11.8903 9.58614L11.939 9.32208C11.9796 9.10235 12 8.87938 12 8.65594V3L4 3V8.65594ZM4 2H12C12.5523 2 13 2.44772 13 3V8.65594C13 8.94027 12.974 9.22402 12.9224 9.50363L12.8737 9.76769C12.6357 11.0566 11.8645 12.1851 10.75 12.875L8.50873 14.1994C8.19492 14.3848 7.80508 14.3848 7.49127 14.1994L5.25 12.875C4.13555 12.1851 3.3643 11.0566 3.12634 9.76769L3.07759 9.50363C3.02597 9.22402 3 8.94027 3 8.65594V3C3 2.44772 3.44772 2 4 2ZM7.5 5.5V6.975H8.7625C9.16981 6.975 9.5 6.64481 9.5 6.2375C9.5 5.83019 9.16981 5.5 8.7625 5.5H7.5ZM10.5 6.2375C10.5 7.19709 9.7221 7.975 8.7625 7.975H7.5V8.47498H8.5C8.77614 8.47498 9 8.69883 9 8.97498C9 9.25112 8.77614 9.47498 8.5 9.47498H7.5V10C7.5 10.2761 7.27614 10.5 7 10.5C6.72386 10.5 6.5 10.2761 6.5 10V9.47498H6C5.72386 9.47498 5.5 9.25112 5.5 8.97498C5.5 8.69883 5.72386 8.47498 6 8.47498H6.5V7.975H6C5.72386 7.975 5.5 7.75114 5.5 7.475C5.5 7.19886 5.72386 6.975 6 6.975H6.5V5.05882C6.5 4.75019 6.75019 4.5 7.05882 4.5H8.7625C9.7221 4.5 10.5 5.27791 10.5 6.2375Z" fill="black"/>
</svg>
