<svg width="16" height="16" viewBox="0 0 16 16" fill="none" xmlns="http://www.w3.org/2000/svg">
<path fill-rule="evenodd" clip-rule="evenodd" d="M10 4.5C10 4.80959 9.92966 5.10275 9.80409 5.36437C11.1353 6.03083 12 7.41631 12 8.99991V9.06301C12.8626 9.28503 13.5 10.0681 13.5 11V12C13.5 13.1046 12.6046 14 11.5 14H4.5C3.39543 14 2.5 13.1046 2.5 12V11C2.5 10.0681 3.13739 9.28503 4 9.06301V8.99991C4 7.41631 4.86467 6.03083 6.19591 5.36436C6.07034 5.10275 6 4.80959 6 4.5C6 3.39543 6.89543 2.5 8 2.5C9.10457 2.5 10 3.39543 10 4.5ZM5 9H11V8.99991C11 7.69488 10.2401 6.59695 9.12376 6.15467C8.80347 6.37262 8.41661 6.5 8 6.5C7.58339 6.5 7.19653 6.37262 6.87624 6.15467C5.75992 6.59695 5 7.69488 5 8.99991V9ZM8 5.5C8.55228 5.5 9 5.05228 9 4.5C9 3.94772 8.55228 3.5 8 3.5C7.44772 3.5 7 3.94772 7 4.5C7 5.05228 7.44772 5.5 8 5.5ZM3.5 11C3.5 10.4477 3.94772 10 4.5 10H11.5C12.0523 10 12.5 10.4477 12.5 11V12C12.5 12.5523 12.0523 13 11.5 13H4.5C3.94772 13 3.5 12.5523 3.5 12V11Z" fill="black"/>
</svg>
