<svg width="16" height="16" viewBox="0 0 16 16" fill="none" xmlns="http://www.w3.org/2000/svg">
<path fill-rule="evenodd" clip-rule="evenodd" d="M9.10072 1.13474C8.75557 1.04845 8.36092 0.984084 7.94992 1.03086C6.04835 1.24728 4.56663 2.60317 4.50211 4.38162C4.48964 4.72537 4.76647 5.00036 5.09997 4.99989C5.21159 4.99974 5.34737 4.99911 5.5 4.99637V5.5C5.5 6.88071 6.61929 8 8 8C9.38071 8 10.5 6.88071 10.5 5.5V4.93059C10.7943 4.80199 11 4.50832 11 4.16661V3.56726C11 2.4167 10.2169 1.41379 9.10072 1.13474ZM9.5 4.99994H9.04493C8.828 4.99994 8.62967 4.87738 8.53265 4.68333L8.41807 4.45417C8.24226 4.56429 8.04649 4.64376 7.85878 4.70362C7.54965 4.80219 7.20254 4.86584 6.86543 4.90817C6.74368 4.92346 6.62124 4.9362 6.5 4.94681V5.5C6.5 6.32843 7.17157 7 8 7C8.82843 7 9.5 6.32843 9.5 5.5V4.99994ZM8.063 2.02445C8.3043 1.99698 8.56644 2.03195 8.85819 2.10489C9.52922 2.27264 9.99997 2.87557 9.99997 3.56726V3.99994H9.30899L9.13663 3.65522C9.04614 3.47424 8.89076 3.39169 8.78999 3.3565C8.68618 3.32025 8.58519 3.31305 8.50565 3.31601C8.42357 3.31907 8.33797 3.33392 8.25643 3.36189C8.18192 3.38745 8.07143 3.4374 7.97735 3.53655C7.92282 3.59402 7.79419 3.6746 7.55497 3.75088C7.32636 3.82378 7.04555 3.8777 6.74083 3.91596C6.33343 3.96712 5.91069 3.98715 5.55861 3.99497C5.79484 2.99602 6.72916 2.17625 8.063 2.02445Z" fill="black"/>
<path fill-rule="evenodd" clip-rule="evenodd" d="M7.46335 9.45533C7.68446 9.0131 8.31555 9.0131 8.53666 9.45533L9.87486 12.1317C10.0743 12.5307 9.78423 13.0001 9.3382 13.0001H6.66181C6.21578 13.0001 5.92568 12.5307 6.12515 12.1317L7.46335 9.45533ZM8.00001 10.6181L7.30902 12.0001H8.69099L8.00001 10.6181Z" fill="black"/>
<path d="M3.75142 11.931C3.4627 10.9686 4.18337 10 5.18816 10H6.0001C6.27624 10 6.5001 9.77614 6.5001 9.5C6.5001 9.22386 6.27624 9 6.0001 9H5.18816C3.51351 9 2.31239 10.6143 2.7936 12.2184L3.30739 13.931C3.49774 14.5655 4.08172 15 4.74413 15H11.2561C11.9185 15 12.5025 14.5655 12.6928 13.931L13.2066 12.2184C13.6878 10.6143 12.4867 9 10.812 9H10.0001C9.72396 9 9.5001 9.22386 9.5001 9.5C9.5001 9.77614 9.72396 10 10.0001 10H10.812C11.8168 10 12.5375 10.9686 12.2488 11.931L11.735 13.6437C11.6715 13.8552 11.4769 14 11.2561 14H4.74413C4.52333 14 4.32867 13.8552 4.26522 13.6437L3.75142 11.931Z" fill="black"/>
</svg>
