<svg width="16" height="16" viewBox="0 0 16 16" fill="none" xmlns="http://www.w3.org/2000/svg">
<path fill-rule="evenodd" clip-rule="evenodd" d="M7.4659 2.15982C7.7877 1.93891 8.2123 1.93891 8.5341 2.15982L10.4585 3.48083C11.809 4.4079 12.8804 5.68651 13.5568 7.1784C13.8489 7.82261 14 8.52177 14 9.22909V12.9997C14 13.5519 13.5523 13.9997 13 13.9997H3C2.44772 13.9997 2 13.5519 2 12.9997V9.22909C2 8.52177 2.1511 7.82261 2.44318 7.1784C3.11961 5.68651 4.191 4.4079 5.54151 3.48083L7.4659 2.15982ZM8 3.00612L6.10745 4.30527C4.90724 5.12917 3.95509 6.26548 3.35394 7.59134C3.17886 7.97748 3.06721 8.38835 3.0224 8.80814H11.3611C11.6372 8.80814 11.8611 9.03199 11.8611 9.30814C11.8611 9.58428 11.6372 9.80814 11.3611 9.80814H3V12.9997H13V9.22909C13 8.6642 12.8793 8.10582 12.6461 7.59134C12.0449 6.26548 11.0928 5.12917 9.89254 4.30527L8 3.00612ZM4.55164 10.8217C4.27549 10.8217 4.05164 11.0455 4.05164 11.3217C4.05164 11.5978 4.27549 11.8217 4.55164 11.8217H5.07545C5.35159 11.8217 5.57545 11.5978 5.57545 11.3217C5.57545 11.0455 5.35159 10.8217 5.07545 10.8217H4.55164ZM7.19446 11.3217C7.19446 11.0455 7.41832 10.8217 7.69446 10.8217H8.21827C8.49441 10.8217 8.71827 11.0455 8.71827 11.3217C8.71827 11.5978 8.49441 11.8217 8.21827 11.8217H7.69446C7.41832 11.8217 7.19446 11.5978 7.19446 11.3217ZM10.8373 10.8217C10.5611 10.8217 10.3373 11.0455 10.3373 11.3217C10.3373 11.5978 10.5611 11.8217 10.8373 11.8217H11.3611C11.6372 11.8217 11.8611 11.5978 11.8611 11.3217C11.8611 11.0455 11.6372 10.8217 11.3611 10.8217H10.8373Z" fill="black"/>
</svg>
