<svg width="16" height="16" viewBox="0 0 16 16" fill="none" xmlns="http://www.w3.org/2000/svg">
<path fill-rule="evenodd" clip-rule="evenodd" d="M4.67997 3.11584C4.76982 3.04102 4.8831 3 5.00004 3H11C11.117 3 11.2303 3.04102 11.3201 3.11584L14.108 5.43909C14.5391 5.79834 14.285 6.5 13.7239 6.5H13.5V13C13.5 13.2761 13.2762 13.5 13 13.5C12.7239 13.5 12.5 13.2761 12.5 13V10H5.00004C4.90263 10 4.81156 9.97205 4.73466 9.92371C4.59379 9.83533 4.50004 9.67859 4.50004 9.5C4.50004 9.22388 4.72392 9 5.00004 9H12.5V6.5H11V7.5C11 7.77612 10.7762 8 10.5 8C10.2239 8 10 7.77612 10 7.5V6.5H9.50004V7.5C9.50004 7.62244 9.45585 7.73474 9.38285 7.82166C9.29106 7.93066 9.15361 8 9.00004 8C8.72392 8 8.50004 7.77612 8.50004 7.5V6.5H7.50004V7.5C7.50004 7.55042 7.49247 7.59912 7.47856 7.64502C7.46 7.70667 7.42973 7.76343 7.39042 7.8125C7.29862 7.92676 7.158 8 7.00004 8C6.72392 8 6.50004 7.77612 6.50004 7.5V6.5H6.00004V7.5C6.00004 7.77612 5.77616 8 5.50004 8C5.30863 8 5.14262 7.89246 5.05863 7.73462C5.02128 7.66467 5.00004 7.58484 5.00004 7.5V6.5H3.50004V13C3.50004 13.2761 3.27616 13.5 3.00004 13.5C2.72392 13.5 2.50004 13.2761 2.50004 13V6.5H2.27641C1.71513 6.5 1.46098 5.79834 1.89213 5.43909L4.67997 3.11584ZM10.8191 4L12.6189 5.5H3.38114L5.18119 4H10.8191Z" fill="black"/>
<path d="M6.00004 11C5.44779 11 5.00004 11.4478 5.00004 12V13C5.00004 13.2761 5.22392 13.5 5.50004 13.5H6.50004C6.77616 13.5 7.00004 13.2761 7.00004 13V12C7.00004 11.4478 6.55229 11 6.00004 11Z" fill="black"/>
<path d="M10 11C9.44779 11 9.00004 11.4478 9.00004 12V13C9.00004 13.2761 9.22392 13.5 9.50004 13.5H10.5C10.7762 13.5 11 13.2761 11 13V12C11 11.4478 10.5523 11 10 11Z" fill="black"/>
</svg>
