<svg width="16" height="16" viewBox="0 0 16 16" fill="none" xmlns="http://www.w3.org/2000/svg">
<path fill-rule="evenodd" clip-rule="evenodd" d="M8.5 5V6H7.5H5H4H3C2.72386 6 2.5 6.22386 2.5 6.5C2.5 6.77614 2.72386 7 3 7H4.03095C4.277 8.97316 5.96019 10.5 8 10.5H9.13636C11.2702 10.5 13 8.77019 13 6.63636V6.5V6.26316C13 3.90868 11.0913 2 8.73684 2C8.60604 2 8.5 2.10604 8.5 2.23684V5ZM11.9895 6C11.8761 4.57838 10.8515 3.41356 9.5 3.08973V6H11.9895ZM9.5 7H11.9771C11.7985 8.40985 10.5947 9.5 9.13636 9.5H8C6.5135 9.5 5.27952 8.41886 5.04148 7H8.5H9.5ZM5.5 12.5C5.5 12.2239 5.72386 12 6 12C6.27614 12 6.5 12.2239 6.5 12.5C6.5 12.7761 6.27614 13 6 13C5.72386 13 5.5 12.7761 5.5 12.5ZM6 11C5.17157 11 4.5 11.6716 4.5 12.5C4.5 13.3284 5.17157 14 6 14C6.82843 14 7.5 13.3284 7.5 12.5C7.5 11.6716 6.82843 11 6 11ZM10.5 12.5C10.5 12.2239 10.7239 12 11 12C11.2761 12 11.5 12.2239 11.5 12.5C11.5 12.7761 11.2761 13 11 13C10.7239 13 10.5 12.7761 10.5 12.5ZM11 11C10.1716 11 9.5 11.6716 9.5 12.5C9.5 13.3284 10.1716 14 11 14C11.8284 14 12.5 13.3284 12.5 12.5C12.5 11.6716 11.8284 11 11 11Z" fill="black"/>
</svg>
