<svg width="16" height="16" viewBox="0 0 16 16" fill="none" xmlns="http://www.w3.org/2000/svg">
<path fill-rule="evenodd" clip-rule="evenodd" d="M4.78077 5H11.2192L12.7192 11H3.28077L4.78077 5ZM3.81063 4.75746C3.92192 4.3123 4.3219 4 4.78077 4H11.2192C11.6781 4 12.0781 4.3123 12.1894 4.75746L13.8447 11.3787C13.9236 11.6943 13.6849 12 13.3596 12H2.64038C2.3151 12 2.07642 11.6943 2.15531 11.3787L3.81063 4.75746ZM6.0782 6C5.80288 6 5.56289 6.18738 5.49611 6.45448L5.14005 7.87873C5.07307 8.14663 5.23595 8.4181 5.50385 8.48507C5.77175 8.55205 6.04322 8.38917 6.11019 8.12127L6.39051 7H7.50012C7.77626 7 8.00012 6.77614 8.00012 6.5C8.00012 6.22386 7.77626 6 7.50012 6H6.0782Z" fill="black"/>
</svg>
