<svg width="16" height="16" viewBox="0 0 16 16" fill="none" xmlns="http://www.w3.org/2000/svg">
<path fill-rule="evenodd" clip-rule="evenodd" d="M2 4C2 2.89543 2.89543 2 4 2H12C13.1046 2 14 2.89543 14 4V12C14 13.1046 13.1046 14 12 14H4C2.89543 14 2 13.1046 2 12V4ZM4 3C3.44772 3 3 3.44772 3 4V12C3 12.5523 3.44772 13 4 13H12C12.5523 13 13 12.5523 13 12V4C13 3.44772 12.5523 3 12 3H4ZM7 6V8H8.5C9.05228 8 9.5 7.55228 9.5 7C9.5 6.44772 9.05228 6 8.5 6H7ZM10.5 7C10.5 8.10457 9.60457 9 8.5 9H7V9.5H8C8.27614 9.5 8.5 9.72386 8.5 10C8.5 10.2761 8.27614 10.5 8 10.5H7V11C7 11.2761 6.77614 11.5 6.5 11.5C6.22386 11.5 6 11.2761 6 11V10.5H5.5C5.22386 10.5 5 10.2761 5 10C5 9.72386 5.22386 9.5 5.5 9.5H6V9H5.5C5.22386 9 5 8.77614 5 8.5C5 8.22386 5.22386 8 5.5 8H6V5.6C6 5.26863 6.26863 5 6.6 5H8.5C9.60457 5 10.5 5.89543 10.5 7Z" fill="black"/>
</svg>
