<svg width="16" height="16" viewBox="0 0 16 16" fill="none" xmlns="http://www.w3.org/2000/svg">
<path fill-rule="evenodd" clip-rule="evenodd" d="M3 3C3 2.72386 2.77614 2.5 2.5 2.5C2.22386 2.5 2 2.72386 2 3V13.4C2 13.7314 2.26863 14 2.6 14H13C13.2761 14 13.5 13.7761 13.5 13.5C13.5 13.2239 13.2761 13 13 13H3V3ZM12.9371 4.24282C13.0712 4.00143 12.9842 3.69703 12.7428 3.56292C12.5014 3.42881 12.197 3.51579 12.0629 3.75718L9.96116 7.54035L9.50578 6.85728C9.25836 6.48616 8.70689 6.50515 8.4856 6.89242L6.96726 9.54951L6.50368 8.85413C6.25935 8.48764 5.71657 8.50056 5.48995 8.87825L4.07125 11.2428C3.92918 11.4795 4.00596 11.7867 4.24275 11.9287C4.47954 12.0708 4.78667 11.994 4.92875 11.7572L6.02224 9.93475L6.49422 10.6427C6.74163 11.0138 7.29311 10.9948 7.5144 10.6076L9.03274 7.95049L9.493 8.64089C9.74217 9.01464 10.2986 8.99212 10.5167 8.59946L12.9371 4.24282Z" fill="black"/>
</svg>
