<svg width="16" height="16" viewBox="0 0 16 16" fill="none" xmlns="http://www.w3.org/2000/svg">
<path fill-rule="evenodd" clip-rule="evenodd" d="M3 2C2.44772 2 2 2.44772 2 3V13C2 13.5523 2.44772 14 3 14H13C13.5523 14 14 13.5523 14 13V5.54142C14 5.53422 13.9999 5.52703 13.9996 5.51986C13.9999 5.51327 14 5.50665 14 5.5C14 5.35481 13.9381 5.22407 13.8393 5.13272C13.8344 5.12745 13.8294 5.12226 13.8243 5.11716L10.8828 2.17574C10.8777 2.17063 10.8725 2.16562 10.8673 2.16072C10.7759 2.06188 10.6452 2 10.5 2C10.4933 2 10.4867 2.00013 10.4801 2.00039C10.473 2.00013 10.4658 2 10.4586 2H3ZM10 3L3 3V13H13V6H10.6C10.2686 6 10 5.73137 10 5.4V3ZM12.2929 5L11 3.70711V5H12.2929ZM9.50012 8.33398H8.24414V7.52832H11.7323V8.33398H10.4763V11.4999H9.50012V8.33398ZM4.81551 7.52837C4.72282 7.53215 4.61765 7.53593 4.5 7.53972V11.5H5.37701V10.4844C5.44831 10.492 5.51248 10.4976 5.56952 10.5014H5.76203C6.36453 10.5014 6.80481 10.3766 7.08289 10.127C7.36096 9.87352 7.5 9.48014 7.5 8.94681C7.5 8.68581 7.4697 8.46454 7.40909 8.28298C7.34848 8.09764 7.24866 7.94823 7.10963 7.83475C6.97415 7.71749 6.7959 7.63239 6.57487 7.57943C6.3574 7.52648 6.09002 7.5 5.77273 7.5C5.63369 7.5 5.51069 7.50189 5.40374 7.50567C5.30036 7.50567 5.20053 7.50756 5.10428 7.51135C5.00802 7.51513 4.91176 7.5208 4.81551 7.52837ZM5.56952 9.72979C5.51604 9.72601 5.45187 9.72033 5.37701 9.71277V8.28865C5.44831 8.28109 5.51248 8.2773 5.56952 8.2773C5.62656 8.27352 5.69073 8.27163 5.76203 8.27163C5.92603 8.27163 6.0615 8.28676 6.16845 8.31702C6.2754 8.34728 6.36096 8.39267 6.42513 8.45319C6.48931 8.50993 6.53387 8.58369 6.55882 8.67447C6.58378 8.76525 6.59626 8.87116 6.59626 8.9922C6.59626 9.11702 6.582 9.22482 6.55348 9.3156C6.52496 9.40638 6.47861 9.48392 6.41444 9.54823C6.35027 9.60875 6.26471 9.65414 6.15775 9.6844C6.0508 9.71466 5.9189 9.72979 5.76203 9.72979H5.56952Z" fill="black"/>
</svg>
