<svg width="16" height="16" viewBox="0 0 16 16" fill="none" xmlns="http://www.w3.org/2000/svg">
<path fill-rule="evenodd" clip-rule="evenodd" d="M6.85373 2.30029C5.5325 2.30029 4.46143 3.37136 4.46143 4.6926V5.23326C4.46143 6.5545 5.5325 7.62557 6.85373 7.62557C8.17497 7.62557 9.24604 6.5545 9.24604 5.23326V4.6926C9.24604 3.37137 8.17497 2.30029 6.85373 2.30029ZM5.46143 4.6926C5.46143 3.92365 6.08478 3.30029 6.85373 3.30029C7.62268 3.30029 8.24604 3.92365 8.24604 4.6926V5.23326C8.24604 6.00221 7.62268 6.62557 6.85373 6.62557C6.08478 6.62557 5.46143 6.00221 5.46143 5.23326V4.6926ZM13.4614 3.23096C13.4614 2.95481 13.2376 2.73096 12.9614 2.73096C12.6853 2.73096 12.4614 2.95481 12.4614 3.23096V4.26953H11.4229C11.1467 4.26953 10.9229 4.49339 10.9229 4.76953C10.9229 5.04567 11.1467 5.26953 11.4229 5.26953H12.4614V6.30788C12.4614 6.58402 12.6853 6.80788 12.9614 6.80788C13.2376 6.80788 13.4614 6.58402 13.4614 6.30788V5.26953H14.4998C14.7759 5.26953 14.9998 5.04567 14.9998 4.76953C14.9998 4.49339 14.7759 4.26953 14.4998 4.26953H13.4614V3.23096ZM2 12.072C2 10.2098 3.5096 8.7002 5.3718 8.7002H8.85897C10.7212 8.7002 12.2308 10.2098 12.2308 12.072C12.2308 13.1412 11.364 14.0079 10.2949 14.0079H3.9359C2.86673 14.0079 2 13.1412 2 12.072ZM5.3718 9.7002C4.06189 9.7002 3 10.7621 3 12.072C3 12.5889 3.41902 13.0079 3.9359 13.0079H10.2949C10.8118 13.0079 11.2308 12.5889 11.2308 12.072C11.2308 10.7621 10.1689 9.7002 8.85897 9.7002H5.3718Z" fill="black"/>
</svg>
