<svg width="16" height="16" viewBox="0 0 16 16" fill="none" xmlns="http://www.w3.org/2000/svg">
<path fill-rule="evenodd" clip-rule="evenodd" d="M2 2.6C2 2.26863 2.26863 2 2.6 2H4.5C4.77614 2 5 2.22386 5 2.5C5 2.77614 4.77614 3 4.5 3H3V4.5C3 4.77614 2.77614 5 2.5 5C2.22386 5 2 4.77614 2 4.5V2.6ZM2 13.4C2 13.7314 2.26863 14 2.6 14H4.5C4.77614 14 5 13.7761 5 13.5C5 13.2239 4.77614 13 4.5 13H3V11.5C3 11.2239 2.77614 11 2.5 11C2.22386 11 2 11.2239 2 11.5V13.4ZM13.4 2C13.7314 2 14 2.26863 14 2.6V4.5C14 4.77614 13.7761 5 13.5 5C13.2239 5 13 4.77614 13 4.5V3H11.5C11.2239 3 11 2.77614 11 2.5C11 2.22386 11.2239 2 11.5 2H13.4ZM14 13.4C14 13.7314 13.7314 14 13.4 14H11.5C11.2239 14 11 13.7761 11 13.5C11 13.2239 11.2239 13 11.5 13H13V11.5C13 11.2239 13.2239 11 13.5 11C13.7761 11 14 11.2239 14 11.5V13.4ZM6.29691 4.47107C6.72682 4.02055 7.6655 3.30214 9.07148 3.50522C10.0768 3.65043 11.0221 4.45081 11.5015 5.46308C11.9951 6.50526 12.026 7.83266 11.1189 9.03603C11.0823 9.08456 11.0422 9.12414 11 9.15604V9.5C11 11.1569 9.65685 12.5 8 12.5C6.34315 12.5 5 11.1569 5 9.5V9.26758C4.55113 8.908 4 8.14168 4 7.00016C4 6.31948 4.22709 5.64676 4.65802 5.16085C5.05708 4.71089 5.62635 4.43103 6.29691 4.47107ZM8.92852 4.49495C7.83983 4.3377 7.16045 4.98136 6.92495 5.26886C6.78406 5.44085 6.56617 5.51598 6.35943 5.48283C5.95997 5.41876 5.64184 5.55864 5.40618 5.82436C5.15929 6.10276 5 6.52904 5 7.00016C5 7.34797 5.07222 7.63703 5.17324 7.86846C5.43765 7.06359 5.95507 6.55359 6.37187 6.27357C6.85211 5.95093 7.36357 6.20655 7.60948 6.45916C7.96741 6.82683 8.45973 7 9 7C9.64871 7 10.1424 7.19956 10.4843 7.532C10.5634 7.60892 10.6317 7.6904 10.6905 7.77445C10.9437 7.11247 10.8636 6.45257 10.5977 5.89112C10.2289 5.11247 9.53281 4.58224 8.92852 4.49495ZM9.78708 8.24888C9.90364 8.36225 9.95541 8.50532 10 8.64892V9.5C10 10.6046 9.10457 11.5 8 11.5C6.89543 11.5 6 10.6046 6 9.5V8.90189C6.00144 8.88883 6.00247 8.87566 6.00306 8.86241C6.0451 7.92772 6.51561 7.40123 6.87575 7.14111C6.88136 7.14558 6.88718 7.15078 6.89294 7.1567C7.47531 7.75493 8.24657 8 9 8C9.43474 8 9.66275 8.12797 9.78708 8.24888Z" fill="black"/>
</svg>
