<svg width="16" height="16" viewBox="0 0 16 16" fill="none" xmlns="http://www.w3.org/2000/svg">
<path fill-rule="evenodd" clip-rule="evenodd" d="M6.36622 2.3315C6.81327 2.11299 7.39276 2 8 2C8.60724 2 9.18673 2.11299 9.63378 2.3315C10.0596 2.53963 10.5 2.92057 10.5 3.5V8.01855C10.5 9.39927 9.38071 10.5186 8 10.5186C6.61929 10.5186 5.5 9.39927 5.5 8.01855V3.5C5.5 2.92057 5.94041 2.53963 6.36622 2.3315ZM6.5 8V8.01855C6.5 8.84698 7.17157 9.51855 8 9.51855C8.82843 9.51855 9.5 8.84698 9.5 8.01855V8.00046L6.5 8ZM9.5 7H6.5V3.5C6.5 3.49466 6.50731 3.3756 6.80535 3.22992C7.08216 3.09462 7.50267 3 8 3C8.49733 3 8.91784 3.09462 9.19465 3.22992C9.49269 3.3756 9.5 3.49466 9.5 3.5V7Z" fill="black"/>
<path d="M2.02148 6.92294C2.02148 7.78748 2.30953 8.60558 2.80876 9.28137C2.97284 9.50348 2.9258 9.81654 2.70369 9.98062C2.48158 10.1447 2.16852 10.0977 2.00444 9.87555C1.38515 9.03725 1.02148 8.01292 1.02148 6.92294C1.02148 5.83294 1.38516 4.80875 2.00444 3.97046C2.16852 3.74835 2.48158 3.70131 2.70369 3.86539C2.9258 4.02947 2.97284 4.34254 2.80876 4.56465C2.30952 5.24045 2.02148 6.05841 2.02148 6.92294Z" fill="black"/>
<path d="M3.99951 7C3.99951 7.36879 4.12151 7.7215 4.34772 8.0354C4.50916 8.25943 4.45842 8.57192 4.23439 8.73337C4.01036 8.89481 3.69787 8.84407 3.53642 8.62004C3.1997 8.15278 2.99951 7.59855 2.99951 7C2.99951 6.40144 3.1997 5.84721 3.53642 5.37995C3.69787 5.15592 4.01036 5.10518 4.23439 5.26662C4.45842 5.42807 4.50916 5.74056 4.34772 5.96459C4.12151 6.27849 3.99951 6.6312 3.99951 7Z" fill="black"/>
<path d="M13.2067 9.27932C13.7113 8.60351 14.002 7.78613 14.002 6.92294C14.002 6.05977 13.7113 5.24252 13.2067 4.5667C13.0415 4.34543 13.0869 4.03212 13.3082 3.86691C13.5295 3.7017 13.8428 3.74714 14.008 3.96841C14.6339 4.80669 15.002 5.83158 15.002 6.92294C15.002 8.01428 14.6339 9.03931 14.008 9.8776C13.8428 10.0989 13.5295 10.1443 13.3082 9.9791C13.0869 9.81389 13.0415 9.50059 13.2067 9.27932Z" fill="black"/>
<path d="M12 7C12 7.36743 11.8772 7.71944 11.6485 8.03335C11.486 8.25656 11.5351 8.56931 11.7583 8.73188C11.9815 8.89446 12.2943 8.84531 12.4569 8.6221C12.7972 8.15485 13 7.59991 13 7C13 6.40009 12.7972 5.84515 12.4569 5.3779C12.2943 5.15469 11.9815 5.10553 11.7583 5.26811C11.5351 5.43069 11.486 5.74343 11.6485 5.96664C11.8772 6.28056 12 6.63256 12 7Z" fill="black"/>
<path d="M8.5 11.5C8.5 11.2239 8.27614 11 8 11C7.72386 11 7.5 11.2239 7.5 11.5V13.0312H6C5.72386 13.0312 5.5 13.2551 5.5 13.5312C5.5 13.8074 5.72386 14.0312 6 14.0312H10C10.2761 14.0312 10.5 13.8074 10.5 13.5312C10.5 13.2551 10.2761 13.0312 10 13.0312H8.5V11.5Z" fill="black"/>
</svg>
