<svg width="16" height="16" viewBox="0 0 16 16" fill="none" xmlns="http://www.w3.org/2000/svg">
<path d="M13.0742 9.86691C13.0742 10.1431 13.2981 10.3669 13.5742 10.3669C13.8504 10.3669 14.0742 10.1431 14.0742 9.86691V1.1001C14.0742 0.823955 13.8504 0.600098 13.5742 0.600098C13.2981 0.600098 13.0742 0.823955 13.0742 1.1001V9.86691Z" fill="black"/>
<path fill-rule="evenodd" clip-rule="evenodd" d="M5.56669 14.5612C5.85453 14.632 6.1171 14.5545 6.31198 14.4407C6.5045 14.3283 6.65895 14.1665 6.76713 14.002L7.31254 13.1725C7.88767 12.2978 8.44653 11.4899 9.19218 10.9021C9.65592 10.5365 10.2497 10.1857 11.1941 9.82553C11.5784 9.67896 11.8481 9.30989 11.8481 8.88297V2.20085C11.8481 1.53811 11.3109 1.00085 10.6481 1.00085H4.63704C3.93321 1.00085 3.32404 1.4902 3.17231 2.17747L2.11448 6.96881C1.83889 8.21712 2.78909 9.39999 4.06745 9.39999H5.36024L5.34751 9.42946C5.02295 10.1812 4.56271 11.2472 4.4001 12.1853C4.31864 12.6553 4.29877 13.1594 4.45899 13.5977C4.63326 14.0745 5.00295 14.4226 5.56669 14.5612ZM5.80778 13.5771C5.79998 13.5817 5.7941 13.5845 5.78998 13.5862C5.55414 13.5244 5.45454 13.4085 5.3982 13.2544C5.32659 13.0585 5.31543 12.7598 5.38541 12.3561C5.52476 11.5522 5.934 10.5939 6.27107 9.81317L6.57977 9.09818C6.64648 8.94365 6.63098 8.76593 6.53852 8.6253C6.44605 8.48466 6.28904 8.39999 6.12073 8.39999H4.06745C3.42827 8.39999 2.95317 7.80855 3.09097 7.1844L4.14879 2.39306C4.19937 2.16397 4.40243 2.00085 4.63704 2.00085H10.6481C10.7586 2.00085 10.8481 2.09039 10.8481 2.20085V8.88263L10.8472 8.88419C10.8455 8.8866 10.8424 8.88939 10.8378 8.89118C9.81611 9.28081 9.12974 9.67798 8.57312 10.1168C7.68365 10.8179 7.04574 11.7581 6.47699 12.6231L5.93157 13.4526C5.89327 13.5108 5.84554 13.555 5.80778 13.5771Z" fill="black"/>
</svg>
