<svg width="16" height="16" viewBox="0 0 16 16" fill="none" xmlns="http://www.w3.org/2000/svg">
<path fill-rule="evenodd" clip-rule="evenodd" d="M11 2C11.2761 2 11.5 2.22386 11.5 2.5V2.77842C11.5 3.72727 10.8256 4.5422 9.89356 4.71974L9.02912 4.8844C8.72994 4.94138 8.51138 5.19774 8.50043 5.5H11C12.933 5.5 14.5 7.067 14.5 9V9.28817C14.5 11.062 13.062 12.5 11.2882 12.5C10.0033 12.5 8.84215 11.7343 8.33603 10.5534L8.31316 10.5H7.68684L7.66397 10.5534C7.15785 11.7343 5.99665 12.5 4.71183 12.5C2.93799 12.5 1.5 11.062 1.5 9.28817V9C1.5 7.067 3.067 5.5 5 5.5H7.50017C7.51132 4.71755 8.07116 4.04889 8.842 3.90206L9.70644 3.7374C10.1669 3.6497 10.5 3.24714 10.5 2.77842V2.5C10.5 2.22386 10.7239 2 11 2ZM2.5 9C2.5 7.61929 3.61929 6.5 5 6.5H11C12.3807 6.5 13.5 7.61929 13.5 9V9.28817C13.5 10.5097 12.5097 11.5 11.2882 11.5C10.4034 11.5 9.60372 10.9727 9.25518 10.1595L9.15285 9.92069C9.04347 9.66547 8.79253 9.5 8.51486 9.5H7.48514C7.20748 9.5 6.95653 9.66547 6.84715 9.92069L6.74482 10.1595C6.39629 10.9727 5.59662 11.5 4.71183 11.5C3.49027 11.5 2.5 10.5097 2.5 9.28817V9ZM5.28125 8C5.28125 7.72386 5.05739 7.5 4.78125 7.5C4.50511 7.5 4.28125 7.72386 4.28125 8V8.5H3.78125C3.50511 8.5 3.28125 8.72386 3.28125 9C3.28125 9.27614 3.50511 9.5 3.78125 9.5H4.28125V10C4.28125 10.2761 4.50511 10.5 4.78125 10.5C5.05739 10.5 5.28125 10.2761 5.28125 10V9.5H5.78125C6.05739 9.5 6.28125 9.27614 6.28125 9C6.28125 8.72386 6.05739 8.5 5.78125 8.5H5.28125V8ZM11.3125 10.1562C11.8648 10.1562 12.3125 9.70853 12.3125 9.15625C12.3125 8.60397 11.8648 8.15625 11.3125 8.15625C10.7602 8.15625 10.3125 8.60397 10.3125 9.15625C10.3125 9.70853 10.7602 10.1562 11.3125 10.1562Z" fill="black"/>
</svg>
