<svg width="16" height="16" viewBox="0 0 16 16" fill="none" xmlns="http://www.w3.org/2000/svg">
<path fill-rule="evenodd" clip-rule="evenodd" d="M7.5 12.9753V12.0195C7.5 10.1053 5.808 8.54545 3.875 8.54545H3.02941C3.28337 10.8863 5.15296 12.7423 7.5 12.9753ZM3.02941 7.45455C3.30117 4.94971 5.42289 3 8 3C10.5771 3 12.6988 4.94971 12.9706 7.45455H11.375C10.858 7.45455 10.2946 7.35991 9.92904 6.99789L9.57284 6.64515C9.35983 6.43422 9.10578 6.26833 8.82609 6.15754C8.29579 5.94749 7.70421 5.94749 7.17391 6.15754C6.89422 6.26833 6.64017 6.43422 6.42716 6.64515L6.07096 6.99788C5.70538 7.35991 5.14201 7.45455 4.625 7.45455H3.02941ZM12.9706 8.54545H12.125C10.192 8.54545 8.5 10.1053 8.5 12.0195V12.9753C10.847 12.7423 12.7166 10.8863 12.9706 8.54545ZM14 8C14 11.3137 11.3137 14 8 14C4.68629 14 2 11.3137 2 8C2 4.68629 4.68629 2 8 2C11.3137 2 14 4.68629 14 8ZM9 7.98815C9 8.53506 8.55228 8.97836 8 8.97836C7.44772 8.97836 7 8.53506 7 7.98815C7 7.44124 7.44772 6.99788 8 6.99788C8.55228 6.99788 9 7.44124 9 7.98815Z" fill="black"/>
</svg>
