<svg width="16" height="16" viewBox="0 0 16 16" fill="none" xmlns="http://www.w3.org/2000/svg">
<path fill-rule="evenodd" clip-rule="evenodd" d="M4.75 13C5.71655 13 6.5 12.2166 6.5 11.25V10.0312H9.5V11.25C9.5 12.2166 10.2834 13 11.25 13C12.2166 13 13 12.2166 13 11.25V10.0312H13.3999C14.0076 10.0312 14.5 9.53882 14.5 8.93127V8.09998C14.5 7.49243 14.0076 7 13.3999 7H13V5.75C13 4.78345 12.2166 4 11.25 4C10.2834 4 9.5 4.78345 9.5 5.75V7H6.5V5.75C6.5 4.78345 5.71655 4 4.75 4C3.78345 4 3 4.78345 3 5.75V7H2.6001C1.99243 7 1.5 7.49243 1.5 8.09998V8.93127C1.5 9.53882 1.99243 10.0312 2.6001 10.0312H3V11.25C3 12.2166 3.78345 13 4.75 13ZM4 5.75V11.25C4 11.6642 4.33569 12 4.75 12C5.16431 12 5.5 11.6642 5.5 11.25V5.75C5.5 5.33582 5.16431 5 4.75 5C4.33569 5 4 5.33582 4 5.75ZM9.5 8H6.5V9.03125H9.5V8ZM13 8V9.03125H13.3999C13.4553 9.03125 13.5 8.98645 13.5 8.93127V8.09998C13.5 8.0448 13.4553 8 13.3999 8H13ZM2.6001 8H3V9.03125H2.6001C2.57739 9.03125 2.5564 9.02368 2.53955 9.01099C2.5293 9.00317 2.52075 8.99341 2.51416 8.9823C2.50513 8.96729 2.5 8.94983 2.5 8.93127V8.09998C2.5 8.0448 2.54468 8 2.6001 8ZM10.5 11.25V5.75C10.5 5.33582 10.8357 5 11.25 5C11.6643 5 12 5.33582 12 5.75V11.25C12 11.6642 11.6643 12 11.25 12C10.8357 12 10.5 11.6642 10.5 11.25Z" fill="black"/>
</svg>
