<svg width="16" height="16" viewBox="0 0 16 16" fill="none" xmlns="http://www.w3.org/2000/svg">
<path fill-rule="evenodd" clip-rule="evenodd" d="M6.77075 7.5C6.03735 7.5 5.41162 8.03015 5.29102 8.75342L5.09692 9.91785C5.04614 10.2225 5.28125 10.5 5.59033 10.5H10.4097C10.7188 10.5 10.9539 10.2225 10.9028 9.91785L10.709 8.75342C10.5884 8.03015 9.96265 7.5 9.22925 7.5H6.77075ZM9.55444 8.62012C9.46631 8.5448 9.35229 8.5 9.22925 8.5H6.77075C6.52637 8.5 6.31763 8.67676 6.27759 8.91785L6.18042 9.5H9.81958L9.72241 8.91785C9.70264 8.79822 9.64111 8.69434 9.55444 8.62012Z" fill="black"/>
<path fill-rule="evenodd" clip-rule="evenodd" d="M6.5 5.5C6.5 4.67163 7.17163 4 8 4C8.82837 4 9.5 4.67163 9.5 5.5C9.5 6.32837 8.82837 7 8 7C7.17163 7 6.5 6.32837 6.5 5.5ZM8 6C7.72388 6 7.5 5.77612 7.5 5.5C7.5 5.22388 7.72388 5 8 5C8.13501 5 8.25732 5.05347 8.34717 5.14026C8.44141 5.2312 8.5 5.35876 8.5 5.5C8.5 5.77612 8.27612 6 8 6Z" fill="black"/>
<path fill-rule="evenodd" clip-rule="evenodd" d="M4 2H12C12.5522 2 13 2.44775 13 3V8.65588C13 8.94031 12.9741 9.224 12.9224 9.50366L12.8738 9.7677C12.6357 11.0566 11.8645 12.1851 10.75 12.875L8.50879 14.1993C8.19482 14.3848 7.80518 14.3848 7.49121 14.1993L5.25 12.875C4.1355 12.1851 3.36426 11.0566 3.12622 9.7677L3.07764 9.50366C3.052 9.36499 3.03271 9.22534 3.01978 9.08521C3.00659 8.94263 3 8.79932 3 8.65588V3C3 2.44775 3.44775 2 4 2ZM4 8.65588C4 8.87939 4.02051 9.10229 4.06104 9.32202L4.10962 9.58618C4.2959 10.5945 4.89795 11.4778 5.76807 12.0197L8 13.3385L10.2319 12.0197C11.1021 11.4778 11.7041 10.5945 11.8904 9.58618L11.939 9.32202C11.9795 9.10229 12 8.87939 12 8.65588V3H4V8.65588Z" fill="black"/>
</svg>
