<svg width="16" height="16" viewBox="0 0 16 16" fill="none" xmlns="http://www.w3.org/2000/svg">
<path fill-rule="evenodd" clip-rule="evenodd" d="M12.6464 6.10348C12.8417 5.90822 12.8417 5.59163 12.6464 5.39637L10.6036 3.35348C10.4083 3.15822 10.0917 3.15822 9.89645 3.35348L3.14645 10.1035C3.05268 10.1972 3 10.3244 3 10.457V12.4999C3 12.7761 3.22386 12.9999 3.5 12.9999H5.54289C5.6755 12.9999 5.80268 12.9472 5.89645 12.8535L12.6464 6.10348ZM4 11.9999H5.33579L9.81439 7.52132L8.47861 6.18553L4 10.6641V11.9999ZM9.18571 5.47842L10.5215 6.81421L11.5858 5.74992L10.25 4.41414L9.18571 5.47842ZM9 12C8.72386 12 8.5 12.2239 8.5 12.5C8.5 12.7761 8.72386 13 9 13H13C13.2761 13 13.5 12.7761 13.5 12.5C13.5 12.2239 13.2761 12 13 12H9Z" fill="black"/>
</svg>
