<svg width="16" height="16" viewBox="0 0 16 16" fill="none" xmlns="http://www.w3.org/2000/svg">
<path fill-rule="evenodd" clip-rule="evenodd" d="M2.5 6C2.5 4.34315 3.84315 3 5.5 3C5.84308 3 6.19502 3.14116 6.5591 3.3883C6.92319 3.63546 7.25998 3.96109 7.5724 4.2782C7.80756 4.51688 8.19244 4.51689 8.4276 4.2782C8.74002 3.96109 9.07681 3.63546 9.4409 3.3883C9.80498 3.14116 10.1569 3 10.5 3C12.1569 3 13.5 4.34315 13.5 6C13.5 6.86513 13.1889 7.66075 12.65 8.18874L8.00163 12.7945L3.35357 8.14643L3.34995 8.14288C2.80932 7.6131 2.5 6.85571 2.5 6ZM5.5 2C3.29086 2 1.5 3.79086 1.5 6C1.5 7.09739 1.89892 8.12002 2.64817 8.85528L7.57606 13.7832C7.80961 14.0167 8.188 14.0176 8.42263 13.7851L13.3499 8.90299L13.351 8.902C14.108 8.15952 14.5 7.09308 14.5 6C14.5 3.79086 12.7091 2 10.5 2C9.88007 2 9.33172 2.25378 8.87925 2.56093C8.55404 2.7817 8.25798 3.04426 8 3.29342C7.74202 3.04426 7.44596 2.7817 7.12075 2.56093C6.66828 2.25378 6.11993 2 5.5 2ZM11.8536 7.85355C12.0488 7.65829 12.0488 7.34171 11.8536 7.14645C11.6583 6.95118 11.3417 6.95118 11.1464 7.14645L9.14645 9.14645C8.95118 9.34171 8.95118 9.65829 9.14645 9.85355C9.34171 10.0488 9.65829 10.0488 9.85355 9.85355L11.8536 7.85355Z" fill="black"/>
</svg>
