<svg width="16" height="16" viewBox="0 0 16 16" fill="none" xmlns="http://www.w3.org/2000/svg">
<path fill-rule="evenodd" clip-rule="evenodd" d="M2 5C2 4.17157 2.67157 3.5 3.5 3.5H12.5C13.3284 3.5 14 4.17157 14 5V11C14 11.8284 13.3284 12.5 12.5 12.5H3.5C2.67157 12.5 2 11.8284 2 11V5ZM3.5 4.5C3.22386 4.5 3 4.72386 3 5V11C3 11.2761 3.22386 11.5 3.5 11.5H12.5C12.7761 11.5 13 11.2761 13 11V5C13 4.72386 12.7761 4.5 12.5 4.5H3.5ZM4 6C4 5.72386 4.22386 5.5 4.5 5.5H11.5C11.7761 5.5 12 5.72386 12 6C12 6.27614 11.7761 6.5 11.5 6.5H4.5C4.22386 6.5 4 6.27614 4 6ZM4.5 7.5C4.22386 7.5 4 7.72386 4 8C4 8.27614 4.22386 8.5 4.5 8.5H6.23374C7.11798 9.65702 8.88202 9.65702 9.76626 8.5H11.5C11.7761 8.5 12 8.27614 12 8C12 7.72386 11.7761 7.5 11.5 7.5H9.53264C9.33676 7.5 9.15524 7.60277 9.05446 7.77074C8.57684 8.56678 7.42316 8.56678 6.94554 7.77074C6.84476 7.60278 6.66324 7.5 6.46736 7.5H4.5Z" fill="black"/>
</svg>
