<svg width="16" height="16" viewBox="0 0 16 16" fill="none" xmlns="http://www.w3.org/2000/svg">
<path fill-rule="evenodd" clip-rule="evenodd" d="M3.5001 3C3.22396 3 3.0001 3.22386 3.0001 3.5C3.0001 3.77614 3.22396 4 3.5001 4H5.06335C5.50852 4 5.93069 4.19773 6.21568 4.53972L6.81022 5.25318L6.293 5.94281C6.058 6.25614 6.02755 6.67782 6.2151 7.02166L7.78136 9.89313C8.56504 11.3299 10.3407 11.8588 11.769 11.134C11.904 11.4223 12.0001 11.7188 12.0001 12C12.0001 12.1145 12.0008 12.2985 12.0018 12.5126L12.0018 12.5162L12.0018 12.5173L12.0024 12.6549C12.0035 12.9297 12.0047 13.2379 12.0047 13.5124C12.0047 13.7885 12.2285 14.0124 12.5047 14.0124C12.7808 14.0124 13.0047 13.7885 13.0047 13.5124C13.0047 13.2356 13.0035 12.9255 13.0024 12.6508L13.0018 12.5124C13.0008 12.2962 13.0001 12.113 13.0001 12C13.0001 11.482 12.8171 10.9934 12.6252 10.6066L12.8262 10.4789C13.2734 10.1947 13.4213 9.61088 13.1633 9.148L10.5798 4.51313C10.4033 4.19635 10.069 4 9.70638 4H8.2501C7.93535 4 7.63896 4.14819 7.4501 4.4L7.42682 4.43104L6.9839 3.89954C6.50892 3.32956 5.8053 3 5.06335 3H3.5001ZM9.70638 5H8.2501L7.093 6.54281L7.56016 7.39928C8.56164 6.96035 9.7662 7.33283 10.3287 8.3172L11.4023 10.196C11.431 10.1796 11.4595 10.1625 11.4877 10.1446L12.2898 9.63487L9.70638 5ZM10.3996 10.4569L9.46046 8.81334C9.17091 8.30663 8.56738 8.09914 8.0425 8.28355L8.65925 9.41427C9.02107 10.0776 9.70005 10.4507 10.3996 10.4569Z" fill="black"/>
<path d="M1.89063 6.89058C1.89063 6.69812 1.93917 6.51634 2.02538 6.35858L2.56714 5.41866C2.75959 5.08533 3.24071 5.08533 3.43316 5.41866L3.97532 6.35771L3.9743 6.35943C4.06049 6.51718 4.10947 6.69816 4.10947 6.89058C4.10947 7.50329 3.61277 8 3.00005 8C2.38733 8 1.89062 7.50329 1.89063 6.89058Z" fill="black"/>
</svg>
