<svg width="16" height="16" viewBox="0 0 16 16" fill="none" xmlns="http://www.w3.org/2000/svg">
<path fill-rule="evenodd" clip-rule="evenodd" d="M6 3.5C5.72386 3.5 5.5 3.72386 5.5 4V6C5.5 6.27614 5.72386 6.5 6 6.5V8.01751C6.39957 8.04701 6.71896 8.11179 7 8.19611V6.5H11V8.68446L11.4837 8.49099C11.6534 8.4231 11.8263 8.37416 12 8.34325V6.5C12.2761 6.5 12.5 6.27614 12.5 6V4C12.5 3.72386 12.2761 3.5 12 3.5H6ZM6.5 5.5H11.5V4.5H6.5V5.5Z" fill="black"/>
<path fill-rule="evenodd" clip-rule="evenodd" d="M2.5 8.5C2.22386 8.5 2 8.72386 2 9C2 9.27614 2.22386 9.5 2.5 9.5H3V13.5H2.5C2.22386 13.5 2 13.7239 2 14C2 14.2761 2.22386 14.5 2.5 14.5H3.4C3.73137 14.5 4 14.2314 4 13.9V13.5143C4.77011 13.5584 5.53174 13.7043 6.26491 13.9487L6.71995 14.1004C7.55791 14.3797 8.46862 14.3464 9.28396 14.0067L13.0819 12.4242C13.9498 12.0626 14.3297 11.0414 13.9093 10.2005C13.5318 9.44557 12.6387 9.10601 11.8551 9.41947L10.3143 10.0358C10.3043 10.0398 10.2945 10.0441 10.2848 10.0486C10.06 9.71753 9.6804 9.5 9.25 9.5H8.03491C7.74321 9.5 7.46034 9.44568 7.20128 9.33556C6.76437 9.14985 6.33854 9 5.5 9C4.95861 9 4.44242 9.1997 4 9.4701V9.1C4 8.76863 3.73137 8.5 3.4 8.5H2.5ZM6.58114 13C5.74597 12.7216 4.87766 12.5579 4 12.5128V10.7146C4.44735 10.3119 5.00535 10 5.5 10C6.17414 10 6.46595 10.1096 6.81008 10.2559C7.20208 10.4225 7.61918 10.5 8.03491 10.5H9.25C9.38807 10.5 9.5 10.6119 9.5 10.75C9.5 10.8881 9.38807 11 9.25 11H8.5C8.22386 11 8 11.2239 8 11.5C8 11.7761 8.22386 12 8.5 12H9.25C9.85491 12 10.3595 11.5703 10.4751 10.9995C10.5449 11.003 10.6166 10.9919 10.6857 10.9642L12.2264 10.3479C12.5272 10.2276 12.87 10.358 13.0148 10.6477C13.1762 10.9704 13.0304 11.3623 12.6973 11.5011L8.89934 13.0836C8.30687 13.3305 7.64509 13.3547 7.03618 13.1517L6.58114 13Z" fill="black"/>
</svg>
