<svg width="16" height="16" viewBox="0 0 16 16" fill="none" xmlns="http://www.w3.org/2000/svg">
<path fill-rule="evenodd" clip-rule="evenodd" d="M4.96973 1.5C5.24587 1.5 5.46973 1.72386 5.46973 2V3H10.5303V2C10.5303 1.72386 10.7541 1.5 11.0303 1.5C11.3064 1.5 11.5303 1.72386 11.5303 2V3H13C13.8284 3 14.5 3.67157 14.5 4.5V6.30298V11.6667C14.5 12.4951 13.8284 13.1667 13 13.1667H3C2.17157 13.1667 1.5 12.4951 1.5 11.6667V6.30298V4.5C1.5 3.67157 2.17157 3 3 3H4.46973V2C4.46973 1.72386 4.69358 1.5 4.96973 1.5ZM13.5 4.5V5.80298H2.5V4.5C2.5 4.22386 2.72386 4 3 4H4.46973V4.2C4.46973 4.47614 4.69358 4.7 4.96973 4.7C5.24587 4.7 5.46973 4.47614 5.46973 4.2V4H10.5303V4.2C10.5303 4.47614 10.7541 4.7 11.0303 4.7C11.3064 4.7 11.5303 4.47614 11.5303 4.2V4H13C13.2761 4 13.5 4.22386 13.5 4.5ZM13.5 6.80298H2.5V11.6667C2.5 11.9428 2.72386 12.1667 3 12.1667H13C13.2761 12.1667 13.5 11.9428 13.5 11.6667V6.80298ZM11.1711 8.45291C11.3675 8.25886 11.3695 7.94229 11.1755 7.74582C10.9814 7.54935 10.6648 7.54738 10.4684 7.74143L8.15675 10.0245L6.81961 8.92399C6.58219 8.72858 6.23548 8.74429 6.0167 8.96036L4.61838 10.3414C4.4219 10.5355 4.41994 10.852 4.61398 11.0485C4.80803 11.245 5.12461 11.247 5.32108 11.0529L6.4627 9.92538L7.79984 11.0259C8.03726 11.2213 8.38398 11.2056 8.60275 10.9895L11.1711 8.45291Z" fill="black"/>
</svg>
