<svg width="16" height="16" viewBox="0 0 16 16" fill="none" xmlns="http://www.w3.org/2000/svg">
<path fill-rule="evenodd" clip-rule="evenodd" d="M13.2076 2.5144C13.0311 2.1969 12.6966 2 12.3333 2H3.66655C3.30352 2 2.9688 2.1969 2.79253 2.5144L1.12578 5.5144C0.953663 5.8241 0.958546 6.20178 1.13823 6.50708C1.31792 6.8125 1.6458 7 2.00005 7V13.5C2.00005 13.7761 2.22393 14 2.50005 14C2.5501 14 2.59844 13.9926 2.64409 13.9788C2.72612 13.9542 2.79912 13.9093 2.85747 13.8497C2.94561 13.7595 3.00005 13.6361 3.00005 13.5V7H13V13.5C13 13.6357 13.0542 13.7589 13.1419 13.849C13.1927 13.9011 13.2549 13.9421 13.3243 13.9683C13.379 13.9888 13.4383 14 13.5 14C13.7762 14 14 13.7761 14 13.5V7C14.3543 7 14.6822 6.8125 14.8619 6.50708C15.0416 6.20178 15.0462 5.8241 14.8741 5.5144L13.2076 2.5144ZM11 6H14L12.3333 3H3.66655L2.00005 6H5.00005V4.5C5.00005 4.41272 5.02251 4.33069 5.06157 4.25928C5.10894 4.17322 5.18096 4.10266 5.26812 4.05701C5.28203 4.04968 5.29619 4.04309 5.31084 4.03711C5.32622 4.03076 5.34185 4.02527 5.35796 4.02051C5.37822 4.01453 5.39922 4.00977 5.42046 4.00635C5.43535 4.00403 5.45024 4.00232 5.46538 4.00122C5.47686 4.00037 5.48833 4 5.50005 4H6.50005C6.77617 4 7.00005 4.22388 7.00005 4.5V6H9.00005V4.5C9.00005 4.22388 9.22393 4 9.50005 4H10.5C10.5438 4 10.586 4.00562 10.6265 4.01611C10.6558 4.02368 10.6839 4.03394 10.7107 4.04639C10.8816 4.12598 11 4.29919 11 4.5V6Z" fill="black"/>
<path d="M9.50005 8C9.22393 8 9.00005 8.22388 9.00005 8.5V9.5C9.00005 9.60083 9.02983 9.6947 9.0811 9.77319C9.17046 9.90979 9.32476 10 9.50005 10H10.5C10.7762 10 11 9.77612 11 9.5V8.5C11 8.22388 10.7762 8 10.5 8H9.50005Z" fill="black"/>
<path d="M5.50005 8C5.22393 8 5.00005 8.22388 5.00005 8.5V9.5C5.00005 9.77612 5.22393 10 5.50005 10H6.50005C6.58745 10 6.66973 9.97754 6.74126 9.93799C6.8062 9.90222 6.86211 9.85254 6.90532 9.79297C6.96489 9.71057 7.00005 9.60938 7.00005 9.5V8.5C7.00005 8.22388 6.77617 8 6.50005 8H5.50005Z" fill="black"/>
<path d="M5.00005 12.5C5.00005 12.2239 5.22393 12 5.50005 12H6.50005C6.77617 12 7.00005 12.2239 7.00005 12.5V13.5C7.00005 13.6348 6.94658 13.7571 6.85991 13.847C6.76909 13.9413 6.64141 14 6.50005 14H5.50005C5.22393 14 5.00005 13.7761 5.00005 13.5V12.5Z" fill="black"/>
<path d="M9.50005 12C9.22393 12 9.00005 12.2239 9.00005 12.5V13.5C9.00005 13.7761 9.22393 14 9.50005 14H10.5C10.7762 14 11 13.7761 11 13.5V12.5C11 12.2239 10.7762 12 10.5 12H9.50005Z" fill="black"/>
</svg>
