<svg width="16" height="16" viewBox="0 0 16 16" fill="none" xmlns="http://www.w3.org/2000/svg">
<path fill-rule="evenodd" clip-rule="evenodd" d="M3.5 7.5C3.5 4.9545 5.28875 3 8 3C10.7112 3 12.5 4.9545 12.5 7.5V8.5H10.5C10.2239 8.5 10 8.72386 10 9V13C10 13.2761 10.2239 13.5 10.5 13.5H11.5C12.6046 13.5 13.5 12.6046 13.5 11.5V9V8.5V7.5C13.5 4.42778 11.2888 2 8 2C4.71125 2 2.5 4.42778 2.5 7.5V8.5V9V11.5C2.5 12.6046 3.39543 13.5 4.5 13.5H5.5C5.77614 13.5 6 13.2761 6 13V9C6 8.72386 5.77614 8.5 5.5 8.5H3.5V7.5ZM5 9.5H3.5V11.5C3.5 12.0523 3.94772 12.5 4.5 12.5H5V9.5ZM11 9.5H12.5V11.5C12.5 12.0523 12.0523 12.5 11.5 12.5H11V9.5Z" fill="black"/>
</svg>
