<svg width="16" height="16" viewBox="0 0 16 16" fill="none" xmlns="http://www.w3.org/2000/svg">
<path fill-rule="evenodd" clip-rule="evenodd" d="M4 3H12V13H4V3ZM3 3C3 2.44772 3.44772 2 4 2H12C12.5523 2 13 2.44772 13 3V13C13 13.5523 12.5523 14 12 14H4C3.44772 14 3 13.5523 3 13V3ZM5.5 8V9H10.5V8H5.5ZM8.5 11H5.5V10H8.5V11ZM6.5 7C6.5 6.17157 7.17157 5.5 8 5.5C8.21425 5.5 8.41677 5.54462 8.59981 5.62459L9.00019 4.70824C8.69326 4.57414 8.35463 4.5 8 4.5C6.61929 4.5 5.5 5.61929 5.5 7H6.5ZM9.04998 5.92876C9.32828 6.20158 9.5 6.58029 9.5 7H10.5C10.5 6.30076 10.2123 5.66781 9.75002 5.21466L9.04998 5.92876Z" fill="black"/>
</svg>
