<svg width="16" height="16" viewBox="0 0 16 16" fill="none" xmlns="http://www.w3.org/2000/svg">
<path fill-rule="evenodd" clip-rule="evenodd" d="M3 2C2.44772 2 2 2.44772 2 3V13C2 13.5523 2.44772 14 3 14H13C13.5523 14 14 13.5523 14 13V5.54142C14 5.53422 13.9999 5.52703 13.9996 5.51986C13.9999 5.51327 14 5.50665 14 5.5C14 5.35481 13.9381 5.22407 13.8393 5.13272C13.8344 5.12745 13.8294 5.12226 13.8243 5.11716L10.8828 2.17574C10.8777 2.17063 10.8725 2.16562 10.8673 2.16072C10.7759 2.06188 10.6452 2 10.5 2C10.4933 2 10.4867 2.00013 10.4801 2.00039C10.473 2.00013 10.4658 2 10.4586 2H3ZM10 3L3 3V10.8773L7.095 7.19181C7.3322 6.97833 7.69499 6.98787 7.92064 7.21352L9.5 8.79288L10.5757 7.71714C10.8101 7.48283 11.19 7.48283 11.4243 7.71714L13 9.29288V6H10.6C10.2686 6 10 5.73137 10 5.4V3ZM13 10.7071L11 8.70709L9.92427 9.78283C9.68995 10.0171 9.31005 10.0171 9.07574 9.78283L7.48188 8.18897L3 12.2227V13H13V10.7071ZM12.2929 5L11 3.70711V5H12.2929ZM6.5 5.5C6.5 6.05228 6.05228 6.5 5.5 6.5C4.94772 6.5 4.5 6.05228 4.5 5.5C4.5 4.94772 4.94772 4.5 5.5 4.5C6.05228 4.5 6.5 4.94772 6.5 5.5Z" fill="black"/>
</svg>
