<svg width="16" height="16" viewBox="0 0 16 16" fill="none" xmlns="http://www.w3.org/2000/svg">
<path d="M3.3335 2.19995C3.3335 1.81335 3.03467 1.5 2.6665 1.5C2.29834 1.5 2 1.81335 2 2.19995C2 2.33826 2.00439 2.47559 2.0127 2.61169C2.03662 2.99756 2.35352 3.29004 2.7207 3.26514C3.08838 3.24023 3.3667 2.90723 3.34326 2.52148C3.33643 2.41528 3.3335 2.30811 3.3335 2.19995Z" fill="black"/>
<path d="M14 2.19995C14 1.81335 13.7017 1.5 13.3335 1.5C12.9653 1.5 12.6665 1.81335 12.6665 2.19995C12.6665 2.30811 12.6636 2.41528 12.6567 2.52148C12.6333 2.90723 12.9116 3.24023 13.2793 3.26514C13.6465 3.29004 13.9639 2.99756 13.9873 2.61169C13.9956 2.47559 14 2.33826 14 2.19995Z" fill="black"/>
<path d="M13.3823 4.98743C13.5454 4.64087 13.4097 4.22107 13.0796 4.0498C12.7495 3.87854 12.3496 4.02063 12.1865 4.36731C12.0962 4.55957 11.9941 4.74487 11.8809 4.922C11.6763 5.24329 11.7583 5.6781 12.064 5.89307C12.3701 6.10815 12.7842 6.02209 12.9888 5.70093C13.1343 5.47314 13.2656 5.23499 13.3823 4.98743Z" fill="black"/>
<path d="M3.81348 4.36731C3.65039 4.02063 3.25049 3.87854 2.92041 4.0498C2.59033 4.22107 2.45459 4.64087 2.61768 4.98743C2.73438 5.23499 2.86572 5.47314 3.01123 5.70093C3.21582 6.02209 3.62988 6.10815 3.93604 5.89307C4.09668 5.78027 4.19531 5.60681 4.22363 5.42102C4.24902 5.25293 4.21631 5.07471 4.11914 4.922C4.00586 4.74487 3.90381 4.55957 3.81348 4.36731Z" fill="black"/>
<path d="M11.334 7.43848C11.6401 7.22339 11.7222 6.78857 11.5171 6.46729C11.3125 6.14612 10.8984 6.06006 10.5923 6.27515C10.4238 6.39368 10.2471 6.50098 10.064 6.59607C9.73389 6.76733 9.59863 7.18713 9.76172 7.53369C9.9248 7.88025 10.3247 8.02246 10.6548 7.8512C10.8906 7.72888 11.1172 7.59082 11.334 7.43848Z" fill="black"/>
<path d="M5.40771 6.27515C5.10156 6.06006 4.6875 6.14612 4.48291 6.46729C4.27783 6.78857 4.35986 7.22339 4.66602 7.43848C4.88281 7.59082 5.10938 7.72888 5.34521 7.8512C5.51758 7.94067 5.70898 7.94458 5.87598 7.87854C6.02881 7.81812 6.16064 7.69922 6.23828 7.53369C6.40137 7.18713 6.26611 6.76733 5.93604 6.59607C5.75293 6.50098 5.57617 6.39368 5.40771 6.27515Z" fill="black"/>
<path d="M7.69385 7.0896C7.32666 7.0647 7.00928 7.3573 6.98535 7.74304C6.96191 8.12878 7.24023 8.46179 7.60791 8.48669C7.68652 8.49207 7.76562 8.49573 7.84521 8.49792C7.89648 8.49927 7.94824 8.5 8 8.5C8.13184 8.5 8.26221 8.49548 8.39209 8.48669C8.75977 8.46179 9.03809 8.12878 9.01465 7.74304C8.99072 7.3573 8.67334 7.0647 8.30615 7.0896L8.20996 7.09509C8.14062 7.09839 8.07031 7.09998 8 7.09998C7.95068 7.09998 7.90137 7.09924 7.85254 7.09766C7.79932 7.09595 7.74658 7.09326 7.69385 7.0896Z" fill="black"/>
<path fill-rule="evenodd" clip-rule="evenodd" d="M5.3125 11.0837L6.32031 9.73999C6.43359 9.58887 6.61133 9.5 6.80029 9.5H9.2002C9.38916 9.5 9.56689 9.58887 9.68018 9.73999L10.688 11.0837C10.8672 11.3225 10.8433 11.6569 10.6323 11.8679L8.42432 14.0757C8.31006 14.1899 8.16113 14.2485 8.01123 14.2513C7.854 14.2544 7.6958 14.1958 7.57568 14.0757L5.36816 11.8679C5.15723 11.6569 5.1333 11.3225 5.3125 11.0837ZM8 13.0858L6.32031 11.4061L7 10.5H9L9.67969 11.4061L8 13.0858Z" fill="black"/>
</svg>
