<svg width="16" height="16" viewBox="0 0 16 16" fill="none" xmlns="http://www.w3.org/2000/svg">
<path fill-rule="evenodd" clip-rule="evenodd" d="M8 3C5.62769 3 3.5 4.9604 3.5 7.5C3.5 8.4163 3.77425 9.44536 4.38469 10.1806C4.56109 10.3931 4.53185 10.7083 4.31939 10.8847C4.10693 11.0611 3.7917 11.0319 3.61531 10.8194C2.81855 9.85973 2.5 8.5837 2.5 7.5C2.5 4.38335 5.1005 2 8 2C10.8974 2 13.5 4.35007 13.5 7.5C13.5 8.5837 13.1815 9.85973 12.3847 10.8194C12.2083 11.0319 11.8931 11.0611 11.6806 10.8847C11.4681 10.7083 11.4389 10.3931 11.6153 10.1806C12.2257 9.44536 12.5 8.4163 12.5 7.5C12.5 4.93118 10.3744 3 8 3ZM8 4.5C8 4.22386 8.22386 4 8.5 4C9.14511 4 9.88296 4.31133 10.4543 4.81121C11.035 5.31937 11.5 6.07264 11.5 7C11.5 7.27614 11.2761 7.5 11 7.5C10.7239 7.5 10.5 7.27614 10.5 7C10.5 6.42736 10.215 5.93063 9.79575 5.56379C9.36704 5.18867 8.85489 5 8.5 5C8.22386 5 8 4.77614 8 4.5ZM2 12C1.72386 12 1.5 12.2239 1.5 12.5C1.5 12.7761 1.72386 13 2 13H14C14.2761 13 14.5 12.7761 14.5 12.5C14.5 12.2239 14.2761 12 14 12H2Z" fill="black"/>
</svg>
