<svg width="16" height="16" viewBox="0 0 16 16" fill="none" xmlns="http://www.w3.org/2000/svg">
<path fill-rule="evenodd" clip-rule="evenodd" d="M13 5H3L3 12H13V5ZM3 4C2.44772 4 2 4.44772 2 5V12C2 12.5523 2.44772 13 3 13H13C13.5523 13 14 12.5523 14 12V5C14 4.44772 13.5523 4 13 4H3ZM4 8.25C4 7.2835 4.7835 6.5 5.75 6.5C6.7165 6.5 7.5 7.2835 7.5 8.25V8.75C7.5 9.7165 6.7165 10.5 5.75 10.5C4.7835 10.5 4 9.7165 4 8.75V8.25ZM5.75 7.5C5.33579 7.5 5 7.83579 5 8.25V8.75C5 9.16421 5.33579 9.5 5.75 9.5C6.16421 9.5 6.5 9.16421 6.5 8.75V8.25C6.5 7.83579 6.16421 7.5 5.75 7.5ZM8.5 8.5H12V7.5H8.5V8.5ZM8.5 10.5H11V9.5H8.5V10.5Z" fill="black"/>
</svg>
