<svg width="16" height="16" viewBox="0 0 16 16" fill="none" xmlns="http://www.w3.org/2000/svg">
<path fill-rule="evenodd" clip-rule="evenodd" d="M3 1.5C3.27614 1.5 3.5 1.72386 3.5 2V5.55354C3.5 5.73827 3.60186 5.90796 3.76491 5.99482L4.23267 6.24402V2C4.23267 1.72386 4.45653 1.5 4.73267 1.5C5.00882 1.5 5.23267 1.72386 5.23267 2V6.24402L5.70044 5.99482C5.86348 5.90796 5.96535 5.73827 5.96535 5.55354V2C5.96535 1.72386 6.1892 1.5 6.46535 1.5C6.74149 1.5 6.96535 1.72386 6.96535 2V5.55354C6.96535 6.10775 6.65976 6.6168 6.17062 6.87739L5.23267 7.37708V7.73082H5.62698C5.94834 7.73082 6.21265 7.98402 6.22643 8.3051L6.41679 12.7421C6.45791 13.7006 5.692 14.5 4.73268 14.5C3.77336 14.5 3.00745 13.7006 3.04857 12.7421L3.23893 8.3051C3.25271 7.98403 3.51701 7.73082 3.83838 7.73082H4.23267V7.37708L3.29472 6.87739C2.80559 6.6168 2.5 6.10775 2.5 5.55354V2C2.5 1.72386 2.72386 1.5 3 1.5ZM11.6216 1.74162C12.0353 1.39684 12.599 1.7277 12.599 2.2025V10.6692L12.599 10.6723V12.9999C12.599 13.8284 11.9275 14.4999 11.099 14.4999C10.2706 14.4999 9.59903 13.8284 9.59903 12.9999V11.2692H9.19904C8.85777 11.2692 8.59796 10.9886 8.59925 10.6656C8.6216 5.06395 10.4587 2.71094 11.6216 1.74162ZM11.599 11.2692H10.599V12.9999C10.599 13.2761 10.8229 13.4999 11.099 13.4999C11.3752 13.4999 11.599 13.2761 11.599 12.9999V11.2692ZM11.599 3.18331V10.2692H9.60413C9.68554 6.31241 10.7286 4.24588 11.599 3.18331ZM4.04765 12.785L4.22159 8.73082H5.24377L5.41771 12.785C5.43444 13.1748 5.12289 13.5 4.73268 13.5C4.34247 13.5 4.03092 13.1748 4.04765 12.785Z" fill="black"/>
</svg>
