<svg width="16" height="16" viewBox="0 0 16 16" fill="none" xmlns="http://www.w3.org/2000/svg">
<path fill-rule="evenodd" clip-rule="evenodd" d="M8 2.5C6.63992 2.5 5.5 3.47637 5.5 5V7C5.5 8.52363 6.63992 9.5 8 9.5C9.36008 9.5 10.5 8.52363 10.5 7V5C10.5 3.47637 9.36008 2.5 8 2.5ZM6.5 5C6.5 4.06903 7.15094 3.5 8 3.5C8.84906 3.5 9.5 4.06903 9.5 5V7C9.5 7.93097 8.84906 8.5 8 8.5C7.15094 8.5 6.5 7.93097 6.5 7V5ZM4.2765 8.55277C4.52349 8.42928 4.82383 8.52939 4.94732 8.77638C5.37144 9.62461 6.30519 10.5 8.00011 10.5C9.69503 10.5 10.6288 9.62461 11.0529 8.77638C11.1764 8.52939 11.4767 8.42928 11.7237 8.55277C11.9707 8.67627 12.0708 8.9766 11.9473 9.22359C11.4184 10.2814 10.3127 11.3163 8.5 11.4781V13C8.5 13.2761 8.27614 13.5 8 13.5C7.72386 13.5 7.5 13.2761 7.5 13V11.4781C5.68746 11.3162 4.58178 10.2814 4.0529 9.22359C3.9294 8.9766 4.02951 8.67627 4.2765 8.55277Z" fill="black"/>
</svg>
