<svg width="16" height="16" viewBox="0 0 16 16" fill="none" xmlns="http://www.w3.org/2000/svg">
<path fill-rule="evenodd" clip-rule="evenodd" d="M2.65025 3.90182C3.69659 3.15651 5.46846 2.5 8 2.5C10.5315 2.5 12.3034 3.15651 13.3498 3.90182C14.3851 4.63926 14.5 5.94209 14.5 6.92749C14.5 7.72258 13.8554 8.36713 13.0604 8.36713L12.6235 8.36713C13.3359 9.44777 13.7175 10.7155 13.7175 12.0141C13.7175 13.136 12.808 14.0455 11.6861 14.0455H4.31412C3.1922 14.0455 2.28271 13.136 2.28271 12.0141C2.28271 10.7155 2.66426 9.44777 3.37675 8.36713L2.93964 8.36713C2.14455 8.36713 1.5 7.72258 1.5 6.92749C1.5 5.94209 1.61494 4.63926 2.65025 3.90182ZM10.1087 6.86713C10.1087 7.61949 10.6626 8.24247 11.3849 8.35054L11.6495 8.71631C12.3438 9.67576 12.7175 10.8298 12.7175 12.0141C12.7175 12.5837 12.2557 13.0455 11.6861 13.0455H4.31412C3.74449 13.0455 3.28271 12.5837 3.28271 12.0141C3.28271 10.8298 3.65645 9.67576 4.35069 8.71631L4.61538 8.3505C5.33752 8.24234 5.8913 7.6194 5.8913 6.86713V6.44024C5.8913 6.21125 6.03463 6.05321 6.20019 6.02139C7.09528 5.84933 8.45143 5.73636 9.79535 6.01129C9.96317 6.04562 10.1087 6.20949 10.1087 6.44024V6.86713ZM8 3.5C5.63545 3.5 4.07678 4.11345 3.23041 4.71632C2.64784 5.13128 2.5 5.92655 2.5 6.92749C2.5 7.1703 2.69683 7.36713 2.93964 7.36713L4.39131 7.36713C4.66745 7.36713 4.8913 7.14327 4.8913 6.86713V6.44024C4.8913 5.79342 5.31693 5.17286 6.01143 5.03937C6.99085 4.8511 8.4857 4.72266 9.99578 5.03158C10.686 5.17278 11.1087 5.79517 11.1087 6.44024V6.86713C11.1087 7.14327 11.3326 7.36713 11.6087 7.36713L13.0604 7.36713C13.3032 7.36713 13.5 7.1703 13.5 6.92749C13.5 5.92655 13.3522 5.13128 12.7696 4.71632C11.9232 4.11345 10.3646 3.5 8 3.5ZM9.05854 9.7712C9.05854 10.4002 8.56194 10.8803 7.98581 10.8803C7.40969 10.8803 6.91309 10.4002 6.91309 9.7712C6.91309 9.1422 7.40969 8.66211 7.98581 8.66211C8.56194 8.66211 9.05854 9.1422 9.05854 9.7712ZM10.0585 9.7712C10.0585 10.936 9.13055 11.8803 7.98581 11.8803C6.84108 11.8803 5.91309 10.936 5.91309 9.7712C5.91309 8.60638 6.84108 7.66211 7.98581 7.66211C9.13055 7.66211 10.0585 8.60638 10.0585 9.7712Z" fill="black"/>
</svg>
