<svg width="16" height="16" viewBox="0 0 16 16" fill="none" xmlns="http://www.w3.org/2000/svg">
<path d="M6.96428 6.00021L7 6L7.03572 6.00021C7.36706 6.00409 7.63253 6.27585 7.62865 6.6072C7.62477 6.93854 7.35301 7.20401 7.02166 7.20013L7 7.2L6.97834 7.20013C6.64699 7.20401 6.37523 6.93854 6.37135 6.6072C6.36747 6.27585 6.63294 6.00409 6.96428 6.00021Z" fill="black"/>
<path d="M8.24749 6.86365C8.47902 6.62658 8.85889 6.62209 9.09596 6.85362C9.11297 6.87022 9.12978 6.88703 9.14638 6.90404C9.37791 7.14111 9.37342 7.52098 9.13635 7.75251C8.89928 7.98404 8.51941 7.97954 8.28788 7.74248C8.27788 7.73224 8.26776 7.72212 8.25752 7.71212C8.02045 7.48059 8.01596 7.10072 8.24749 6.86365Z" fill="black"/>
<path d="M5.75251 6.86365C5.98404 7.10072 5.97954 7.48059 5.74248 7.71212C5.73224 7.72212 5.72212 7.73224 5.71212 7.74248C5.48059 7.97955 5.10072 7.98404 4.86365 7.75251C4.62658 7.52098 4.62209 7.14111 4.85362 6.90404C4.87022 6.88704 4.88703 6.87022 4.90404 6.85362C5.14111 6.62209 5.52098 6.62658 5.75251 6.86365Z" fill="black"/>
<path d="M9.3928 8.37135C9.72415 8.36747 9.99591 8.63294 9.99979 8.96428L10 9L9.99979 9.03572C9.99591 9.36706 9.72415 9.63253 9.39281 9.62865C9.06146 9.62477 8.79599 9.35301 8.79987 9.02166L8.8 9L8.79987 8.97834C8.79599 8.64699 9.06146 8.37523 9.3928 8.37135Z" fill="black"/>
<path d="M4.6072 8.37135C4.93854 8.37523 5.20401 8.64699 5.20013 8.97834L5.2 9L5.20013 9.02166C5.20401 9.35301 4.93854 9.62477 4.6072 9.62865C4.27585 9.63253 4.00409 9.36706 4.00021 9.03572L4 9L4.00021 8.96428C4.00409 8.63294 4.27585 8.36747 4.6072 8.37135Z" fill="black"/>
<path d="M9.13635 10.2475C9.37342 10.479 9.37791 10.8589 9.14639 11.096C9.12978 11.113 9.11297 11.1298 9.09596 11.1464C8.85889 11.3779 8.47902 11.3734 8.24749 11.1364C8.01596 10.8993 8.02046 10.5194 8.25752 10.2879C8.26776 10.2779 8.27788 10.2678 8.28788 10.2575C8.51941 10.0205 8.89928 10.016 9.13635 10.2475Z" fill="black"/>
<path d="M4.86365 10.2475C5.10072 10.016 5.48059 10.0205 5.71212 10.2575C5.72212 10.2678 5.73224 10.2779 5.74248 10.2879C5.97955 10.5194 5.98404 10.8993 5.75251 11.1364C5.52098 11.3734 5.14111 11.3779 4.90404 11.1464C4.88704 11.1298 4.87023 11.113 4.85362 11.096C4.62209 10.8589 4.62658 10.479 4.86365 10.2475Z" fill="black"/>
<path d="M6.37135 11.3928C6.37523 11.0615 6.64699 10.796 6.97834 10.7999L7 10.8L7.02166 10.7999C7.35301 10.796 7.62477 11.0615 7.62865 11.3928C7.63253 11.7242 7.36706 11.9959 7.03572 11.9998L7 12L6.96428 11.9998C6.63294 11.9959 6.36747 11.7242 6.37135 11.3928Z" fill="black"/>
<path fill-rule="evenodd" clip-rule="evenodd" d="M2 3C2 2.44772 2.44772 2 3 2H10.4586C10.4658 2 10.473 2.00013 10.4801 2.00039C10.4867 2.00013 10.4933 2 10.5 2C10.6452 2 10.7759 2.06188 10.8673 2.16072C10.8725 2.16562 10.8777 2.17063 10.8828 2.17574L13.8243 5.11716C13.8294 5.12226 13.8344 5.12745 13.8393 5.13272C13.9381 5.22407 14 5.35481 14 5.5C14 5.50665 13.9999 5.51327 13.9996 5.51986C13.9999 5.52703 14 5.53422 14 5.54142V13C14 13.5523 13.5523 14 13 14H3C2.44772 14 2 13.5523 2 13V3ZM12.2929 5L11 3.70711V5H12.2929ZM10 3V5.4C10 5.73137 10.2686 6 10.6 6H13V13H3V3L10 3Z" fill="black"/>
</svg>
