<svg width="16" height="16" viewBox="0 0 16 16" fill="none" xmlns="http://www.w3.org/2000/svg">
<path fill-rule="evenodd" clip-rule="evenodd" d="M2 3C2 2.44772 2.44772 2 3 2H10.4586C10.4658 2 10.473 2.00013 10.4801 2.00039C10.4867 2.00013 10.4933 2 10.5 2C10.6452 2 10.7759 2.06188 10.8673 2.16072C10.8725 2.16562 10.8777 2.17063 10.8828 2.17574L13.8243 5.11716C13.8294 5.12226 13.8344 5.12745 13.8393 5.13272C13.9381 5.22407 14 5.35481 14 5.5C14 5.50665 13.9999 5.51327 13.9996 5.51986C13.9999 5.52703 14 5.53422 14 5.54142V13C14 13.5523 13.5523 14 13 14H3C2.44772 14 2 13.5523 2 13V3ZM12.2929 5L11 3.70711V5H12.2929ZM10 3V5.4C10 5.73137 10.2686 6 10.6 6H13V13H3V3L10 3ZM11.3536 7.64645C11.5488 7.84171 11.5488 8.15829 11.3536 8.35355L8.91488 10.7922C8.70375 11.0034 8.36949 11.0271 8.13062 10.848L6.54692 9.66019L5.35355 10.8536C5.15829 11.0488 4.84171 11.0488 4.64645 10.8536C4.45118 10.6583 4.45118 10.3417 4.64645 10.1464L6.08512 8.70777C6.29626 8.49664 6.63051 8.47288 6.86938 8.65204L8.45308 9.83981L10.6464 7.64645C10.8417 7.45118 11.1583 7.45118 11.3536 7.64645Z" fill="black"/>
</svg>
