<svg width="16" height="16" viewBox="0 0 16 16" fill="none" xmlns="http://www.w3.org/2000/svg">
<path fill-rule="evenodd" clip-rule="evenodd" d="M7.35355 2.85355C7.48856 2.71854 7.72424 2.625 8 2.625C8.27576 2.625 8.51144 2.71854 8.64645 2.85355C8.84171 3.04881 9.15829 3.04881 9.35356 2.85355C9.54882 2.65828 9.54881 2.3417 9.35355 2.14644C8.98856 1.78146 8.47424 1.625 8 1.625C7.52576 1.625 7.01144 1.78146 6.64645 2.14644C6.45119 2.3417 6.45118 2.65828 6.64644 2.85355C6.84171 3.04881 7.15829 3.04881 7.35355 2.85355ZM3.12654 7.33435C3.11703 7.41993 3.11489 7.50448 3.11958 7.5874L2.619 12.343C2.52577 13.2286 3.22021 14 4.11076 14H11.8892C12.7797 14 13.4742 13.2286 13.3809 12.343L12.8805 7.58902C12.8853 7.50558 12.8832 7.42049 12.8737 7.33435L12.6947 5.72392C12.554 4.45784 11.4839 3.5 10.21 3.5H10.1994H5.80049H5.79019C4.51631 3.5 3.44615 4.45784 3.30548 5.72392L3.12654 7.33435ZM3.6135 12.4477L3.99078 8.8635C4.18083 8.95099 4.39284 9 4.61737 9H6C6 9.55228 6.44772 10 7 10H9C9.55228 10 10 9.55228 10 9H11.3828C11.6073 9 11.8192 8.95103 12.0092 8.86362L12.3864 12.4477C12.4175 12.7429 12.186 13 11.8892 13H4.11076C3.81391 13 3.58243 12.7429 3.6135 12.4477ZM10 8H11.3828C11.631 8 11.8333 7.82033 11.875 7.58917L11.6912 5.84297C11.6108 5.07955 10.9671 4.5 10.1994 4.5H5.80049C5.03285 4.5 4.38909 5.07955 4.30873 5.84297L4.12502 7.58824C4.16634 7.81985 4.36884 8 4.61737 8H6C6 7.44772 6.44772 7 7 7H9C9.55228 7 10 7.44772 10 8ZM7 9V8H9V9H7ZM5.5 11.5C5.5 11.2239 5.72386 11 6 11H10C10.2761 11 10.5 11.2239 10.5 11.5C10.5 11.7761 10.2761 12 10 12H6C5.72386 12 5.5 11.7761 5.5 11.5Z" fill="black"/>
</svg>
