<svg width="16" height="16" viewBox="0 0 16 16" fill="none" xmlns="http://www.w3.org/2000/svg">
<path fill-rule="evenodd" clip-rule="evenodd" d="M4.00008 5.70479C4.0001 5.85949 4.00052 6.01496 4.00095 6.17093C4.00567 7.90671 4.01055 9.7043 3.46918 11.1729C3.33762 11.5298 3.29299 11.8078 3.32972 12.0212C3.36115 12.2038 3.46035 12.3919 3.75858 12.572C4.11847 12.7894 4.59947 13.016 5.09272 13.1919C5.41336 13.3063 5.72442 13.394 6.00003 13.446V11.795C5.82116 11.6895 5.61148 11.544 5.43402 11.3327C5.16408 11.0113 5.00005 10.5814 5.00003 10V6.63458C5.00003 6.22339 5.38261 5.97135 5.7308 6.04287C6.12283 6.12341 6.89698 6.08157 7.52995 5.29132C7.76686 4.99554 8.21641 4.98721 8.46347 5.27665C9.12499 6.05164 9.89677 6.11495 10.2738 6.04126C10.6177 5.97406 11 6.22236 11 6.63458V10C11 10.5814 10.836 11.0113 10.566 11.3327C10.3886 11.544 10.1789 11.6895 10 11.795V13.446C10.2757 13.394 10.5867 13.3063 10.9074 13.1919C11.4006 13.016 11.8816 12.7894 12.2415 12.572C12.5436 12.3896 12.6356 12.2102 12.6648 12.0374C12.7005 11.8271 12.6557 11.5481 12.5257 11.1581C11.9999 9.58082 12 7.61802 12.0001 5.74654L12.0001 5.70481C11.9191 4.32411 11.2735 3.55187 10.4963 3.10156C9.68615 2.63217 8.7036 2.5 8.00003 2.5C7.29646 2.5 6.31393 2.63217 5.50382 3.10156C4.72665 3.55186 4.08099 4.3241 4.00008 5.70479ZM5.00248 2.23631C6.02361 1.64465 7.2036 1.5 8.00003 1.5C8.79646 1.5 9.97647 1.64465 10.9976 2.23631C12.0492 2.84558 12.9018 3.91503 12.9993 5.6627L13.0001 5.67661V5.69054C13.0001 7.62976 13.0054 9.43492 13.4744 10.8419C13.6161 11.267 13.7292 11.7417 13.6508 12.2044C13.5661 12.7046 13.2723 13.1177 12.7586 13.428C12.334 13.6845 11.791 13.9385 11.2433 14.1338C10.701 14.3273 10.1185 14.476 9.62122 14.4973C9.26642 14.5126 9.00003 14.2242 9.00003 13.9V11.5595C9.00003 11.3399 9.12013 11.1367 9.3152 11.0316C9.5327 10.9144 9.68566 10.8261 9.80027 10.6896C9.89952 10.5714 10 10.3782 10 10V7.06408C9.41472 7.05992 8.67598 6.85749 8.01083 6.24607C7.34571 6.88828 6.59023 7.07634 6.00003 7.07077V10C6.00004 10.3782 6.10055 10.5714 6.1998 10.6896C6.31442 10.8261 6.46737 10.9144 6.68487 11.0316C6.87993 11.1367 7.00003 11.3399 7.00003 11.5595V13.9C7.00003 14.2242 6.73365 14.5126 6.37884 14.4973C5.88154 14.476 5.29908 14.3273 4.75676 14.1338C4.20908 13.9385 3.66612 13.6845 3.24153 13.428C2.72405 13.1154 2.43033 12.6912 2.34421 12.1908C2.2634 11.7213 2.37662 11.2456 2.5309 10.8271C3.00652 9.5368 3.00371 7.92246 3.00059 6.13154C3.00033 5.98568 3.00008 5.83866 3.00008 5.69054V5.67661L3.00085 5.6627C3.0983 3.91503 3.95094 2.84558 5.00248 2.23631Z" fill="black"/>
</svg>
