<svg width="16" height="16" viewBox="0 0 16 16" fill="none" xmlns="http://www.w3.org/2000/svg">
<path fill-rule="evenodd" clip-rule="evenodd" d="M3.5 4.20147C3.5 2.48973 4.85719 1.08105 6.55701 1.08105C7.93899 1.08105 9.09592 2.01416 9.47863 3.28074C9.5585 3.54508 9.40896 3.82412 9.14462 3.90399C8.88028 3.98386 8.60124 3.83433 8.52137 3.56999C8.25849 2.69997 7.47208 2.08105 6.55701 2.08105C5.43243 2.08105 4.5 3.01878 4.5 4.20147V5.00007C4.5 6.05439 5.24325 6.91693 6.20098 7.08893C6.47278 7.13774 6.65354 7.39764 6.60473 7.66943C6.55592 7.94123 6.29602 8.12199 6.02422 8.07318C4.58124 7.81404 3.5 6.52952 3.5 5.00007V4.20147ZM12.7467 5.12443C13.0374 4.87741 13.4203 4.89043 13.7055 5.09127C14.5522 5.68749 15 6.50886 15 7.57914C15 8.86883 14.0628 9.90139 13 10.4502V13.4157C13 13.6918 12.7761 13.9157 12.5 13.9157H10.5C10.2239 13.9157 10 13.6918 10 13.4157V10.4502C8.93723 9.90139 8 8.86883 8 7.57914C8 6.46656 8.58194 5.67431 9.41265 5.09091C9.56614 4.98311 9.76079 4.93461 9.96031 4.98279C10.1445 5.02727 10.2765 5.14015 10.3612 5.24551C10.5277 5.45261 10.6 5.73251 10.6 6.00008V7.37064C10.6 7.38335 10.6046 7.39866 10.6211 7.41451C10.6381 7.43073 10.6649 7.44393 10.7 7.44393H12.3C12.3351 7.44393 12.3619 7.43073 12.3789 7.41451C12.3954 7.39866 12.4 7.38335 12.4 7.37064V6.00008C12.4 5.67711 12.4924 5.34052 12.7467 5.12443ZM13.4 6.1268V7.37064C13.4 7.98462 12.8858 8.44393 12.3 8.44393H10.7C10.1142 8.44393 9.6 7.98462 9.6 7.37064V6.22469C9.20362 6.60579 9 7.03967 9 7.57914C9 8.43277 9.71357 9.25872 10.6941 9.67187L11 9.80074V12.9157H12V9.80074L12.3059 9.67187C13.2864 9.25872 14 8.43277 14 7.57914C14 6.96653 13.8045 6.50356 13.4 6.1268ZM4.7 9.00006C2.65655 9.00006 1 10.6566 1 12.7001C1 13.418 1.58203 14.0001 2.3 14.0001H8.5C8.77614 14.0001 9 13.7762 9 13.5001C9 13.2239 8.77614 13.0001 8.5 13.0001H2.3C2.13431 13.0001 2 12.8657 2 12.7001C2 11.2089 3.20883 10.0001 4.7 10.0001H6.83333C7.10948 10.0001 7.33333 9.7762 7.33333 9.50006C7.33333 9.22392 7.10948 9.00006 6.83333 9.00006H4.7Z" fill="black"/>
</svg>
