<svg width="16" height="16" viewBox="0 0 16 16" fill="none" xmlns="http://www.w3.org/2000/svg">
<path fill-rule="evenodd" clip-rule="evenodd" d="M9 1.5C8.72386 1.5 8.5 1.72386 8.5 2C8.5 2.27614 8.72386 2.5 9 2.5H10C10.2761 2.5 10.5 2.27614 10.5 2C10.5 1.72386 10.2761 1.5 10 1.5H9ZM7.68572 3.96425C7.94211 3.86169 8.06682 3.57071 7.96427 3.31432C7.86171 3.05792 7.57072 2.93322 7.31433 3.03577L6.24143 3.46493C5.19813 3.88225 4.70329 5.07692 5.14592 6.10973L5.74175 7.5H4.5C3.94772 7.5 3.5 7.94771 3.5 8.5V13.5C3.5 14.0523 3.94772 14.5 4.5 14.5H11.5C12.0523 14.5 12.5 14.0523 12.5 13.5V8.5C12.5 7.94772 12.0523 7.5 11.5 7.5H10.3091L10.855 6.40804C11.3061 5.50588 11.0148 4.40901 10.1756 3.84951L9.77736 3.58403C9.5476 3.43085 9.23716 3.49294 9.08399 3.7227C8.93081 3.95247 8.9929 4.2629 9.22266 4.41608L9.62088 4.68156C10.0405 4.96131 10.1861 5.50974 9.96061 5.96082L9.19102 7.5H8.50056H8.49997H6.82972L6.06507 5.71581C5.84375 5.1994 6.09117 4.60207 6.61282 4.39341L7.68572 3.96425ZM9.51235 8.5C9.50388 8.50022 9.4954 8.50022 9.4869 8.5H8.7499L7.8517 9.6976L8.98348 9.98054C9.38601 10.0812 9.56735 10.5502 9.33719 10.8954L8.4159 12.2774C8.26273 12.5071 7.95229 12.5692 7.72253 12.4161C7.49277 12.2629 7.43068 11.9524 7.58385 11.7227L8.19029 10.813L7.02472 10.5216C6.60843 10.4176 6.43278 9.92283 6.69024 9.57954L7.4999 8.5H6.51202C6.50417 8.50019 6.49633 8.50019 6.4885 8.5H4.5V13.5H11.5V8.5H9.51235Z" fill="black"/>
</svg>
