<svg width="16" height="16" viewBox="0 0 16 16" fill="none" xmlns="http://www.w3.org/2000/svg">
<path fill-rule="evenodd" clip-rule="evenodd" d="M4.41797 3.35127L9.00001 2.58925V3.99987L6.49999 3.99998C6.22385 3.99999 6 4.22386 6.00001 4.5C6.00003 4.77614 6.22389 4.99999 6.50004 4.99998L12 4.99973V13.4971H4L4 3.84449C4 3.60001 4.1768 3.39137 4.41797 3.35127ZM10 2.11724L10 3.99982L12.4 3.99971C12.7314 3.9997 13 4.26833 13 4.59971V13.8971C13 14.2285 12.7314 14.4971 12.4 14.4971H3.6C3.26863 14.4971 3 14.2285 3 13.8971L3 3.84449C3 3.11103 3.5304 2.48514 4.25392 2.36481L9.30158 1.52537C9.66724 1.46456 10 1.74656 10 2.11724ZM8.57289 8.13414C8.99345 7.71362 9.69722 7.80027 10.0032 8.31024C10.2191 8.66996 10.1624 9.13042 9.86577 9.42706L8.00008 11.2928L6.13445 9.42722C5.8378 9.13057 5.78111 8.67009 5.99696 8.31035C6.30297 7.80034 7.00679 7.71367 7.42738 8.13422L8.00009 8.70687L8.57289 8.13414ZM8.00009 7.3046C8.88955 6.56653 10.2515 6.78053 10.8607 7.79572C11.3126 8.54891 11.194 9.51303 10.5729 10.1341L8.70721 11.9999C8.31669 12.3905 7.68351 12.3905 7.29298 12L5.42734 10.1343C4.80623 9.51321 4.68754 8.54907 5.13946 7.79585C5.7486 6.78063 7.11058 6.56659 8.00009 7.3046Z" fill="black"/>
</svg>
