<svg width="16" height="16" viewBox="0 0 16 16" fill="none" xmlns="http://www.w3.org/2000/svg">
<path d="M3.4795 3.52885C3.73978 3.62108 3.87602 3.90685 3.78379 4.16714C3.74865 4.26629 3.71419 4.35154 3.68208 4.43099C3.57899 4.68601 3.5 4.88143 3.5 5.28585C3.5 5.98601 3.74605 6.45283 4.20353 6.95673C4.25548 7.01395 4.31445 7.06136 4.37484 7.10968C4.52114 7.22671 4.67034 7.33407 4.80275 7.40974C4.91939 7.47639 4.98144 7.494 4.99751 7.49856C5.25555 7.57179 5.5 7.66918 5.5 8.00011C5.5 8.27626 5.27614 8.50011 5 8.50011C4.74981 8.50011 4.50883 8.3909 4.33333 8.29307V8.8294C4.33333 9.43635 4.37929 9.73422 4.53485 9.99802C4.70048 10.2789 5.02787 10.5837 5.76726 11.0774C7.1427 11.8977 8.85731 11.8977 10.2327 11.0774C10.9721 10.5837 11.2995 10.2789 11.4651 9.99802C11.6207 9.73422 11.6667 9.43635 11.6667 8.8294V8.29307C11.4912 8.3909 11.2502 8.50011 11 8.50011C10.7239 8.50011 10.5 8.27626 10.5 8.00011C10.5 7.55015 10.9104 7.57367 11.1972 7.40974C11.3297 7.33407 11.4789 7.22671 11.6252 7.10968C11.6855 7.06136 11.7445 7.01395 11.7965 6.95673C12.2539 6.45283 12.5 5.98601 12.5 5.28585C12.5 4.88143 12.421 4.68604 12.3179 4.43102C12.2858 4.35156 12.2514 4.2663 12.2162 4.16714C12.124 3.90685 12.2602 3.62108 12.5205 3.52885C12.7808 3.43662 13.0666 3.57285 13.1588 3.83314C13.1772 3.88505 13.2004 3.9416 13.2261 4.00407C13.3394 4.27958 13.5 4.67016 13.5 5.28585C13.5 6.13242 13.2292 6.75694 12.8067 7.30732C12.8067 7.30732 12.7266 7.40974 12.6751 7.52376L12.6667 7.53152V8.8294C12.6667 9.4551 12.6293 9.99259 12.3265 10.506C12.0346 11.0011 11.5308 11.4138 10.7773 11.9162L10.7675 11.9228L10.7572 11.9289C9.06011 12.9472 6.93989 12.9472 5.24275 11.9289L5.23255 11.9228L5.22265 11.9162C4.46916 11.4138 3.96544 11.0011 3.67348 10.506C3.37071 9.99259 3.33333 9.4551 3.33333 8.8294V7.53152C3.3305 7.52891 3.3277 7.52633 3.32492 7.52376C3.32214 7.5212 3.27189 7.40974 3.19327 7.30732C2.77084 6.75694 2.5 6.13242 2.5 5.28585C2.5 4.67016 2.6606 4.27958 2.77388 4.00407C2.79956 3.9416 2.82282 3.88505 2.84121 3.83314C2.93345 3.57285 3.21922 3.43662 3.4795 3.52885Z" fill="black"/>
<path d="M6.3753 5.51595C6.64269 5.44701 6.91535 5.6079 6.98429 5.8753L7.12099 6.40552C7.19775 6.46646 7.29329 6.50012 7.39234 6.50012H8.60671C8.71026 6.50012 8.81037 6.46601 8.89194 6.4039L9.01331 5.88603C9.07633 5.61717 9.34536 5.4503 9.61422 5.51331C9.88307 5.57633 10.0499 5.84536 9.98693 6.11422L9.85017 6.69772C9.8156 6.84524 9.73939 6.97972 9.63062 7.0852C9.3562 7.3513 8.98897 7.50012 8.60671 7.50012H7.39234C7.00745 7.50012 6.63866 7.34566 6.36865 7.07136C6.27218 6.97337 6.2033 6.85164 6.16897 6.71848L6.01595 6.12495C5.94701 5.85755 6.1079 5.58489 6.3753 5.51595Z" fill="black"/>
<path d="M7 8.50012C6.72386 8.50012 6.5 8.72398 6.5 9.00012C6.5 9.27626 6.72386 9.50012 7 9.50012H9C9.27614 9.50012 9.5 9.27626 9.5 9.00012C9.5 8.72398 9.27614 8.50012 9 8.50012H7Z" fill="black"/>
</svg>
