<svg width="16" height="16" viewBox="0 0 16 16" fill="none" xmlns="http://www.w3.org/2000/svg">
<path fill-rule="evenodd" clip-rule="evenodd" d="M2.33689 7.59396C1.94324 7.20398 1.94176 6.56826 2.33357 6.17644L6.39486 2.11516C6.78538 1.72464 7.41854 1.72463 7.80907 2.11516L13.7101 8.01616C14.0979 8.404 14.101 9.03185 13.7169 9.42345L11.1686 12.022H13.4995C13.7757 12.022 13.9995 12.2458 13.9995 12.522C13.9995 12.7981 13.7757 13.022 13.4995 13.022H2.49951C2.22337 13.022 1.99951 12.7981 1.99951 12.522C1.99951 12.2458 2.22337 12.022 2.49951 12.022H6.80652L2.33689 7.59396ZM13.003 8.72327L9.76794 12.022H8.22739L3.04068 6.88355L7.10196 2.82227L13.003 8.72327ZM9.78459 7.11965C9.78459 6.84351 9.56073 6.61965 9.28459 6.61965C9.00845 6.61965 8.78459 6.84351 8.78459 7.11965V8.95738H8.11572C7.83958 8.95738 7.61572 9.18124 7.61572 9.45738C7.61572 9.73352 7.83958 9.95738 8.11572 9.95738H9.18459C9.51596 9.95738 9.78459 9.68875 9.78459 9.35738V7.11965Z" fill="black"/>
</svg>
