<svg width="16" height="16" viewBox="0 0 16 16" fill="none" xmlns="http://www.w3.org/2000/svg">
<path fill-rule="evenodd" clip-rule="evenodd" d="M13.9234 6.92875C13.9648 7.50762 13.5063 8 12.926 8H12.4993C12.4998 8.0087 12.5 8.01746 12.5 8.02628V11C12.5 11.2761 12.2761 11.5 12 11.5C11.7239 11.5 11.5 11.2761 11.5 11L11.5 8.02628C11.5 8.01747 11.5002 8.0087 11.5007 8H11.0739C10.4936 8 10.0351 7.50762 10.0765 6.92875L10.4336 1.92875C10.471 1.40545 10.9064 1 11.4311 1H12.5688C13.0935 1 13.5289 1.40545 13.5663 1.92875L13.9234 6.92875ZM12.926 7H11.0739L11.4311 2L12.5688 2L12.926 7Z" fill="black"/>
<path d="M12.8137 12.6576C13.1275 13.2714 12.6817 14 11.9923 14C11.3066 14 10.8605 13.2785 11.1671 12.6651L11.2804 12.4383C11.415 12.1691 11.6901 11.999 11.991 11.999C12.2893 11.999 12.5625 12.1662 12.6983 12.4318L12.8137 12.6576Z" fill="black"/>
<path fill-rule="evenodd" clip-rule="evenodd" d="M3.49756 6.50098C3.49702 5.94831 3.94489 5.5 4.49756 5.5H6.49414C7.04642 5.5 7.49414 5.94772 7.49414 6.5V8.5C7.49414 8.49983 7.49414 8.50017 7.49414 8.5C8.38035 8.52304 9.05726 9.30987 8.94144 10.1947L8.60973 12.7289C8.51198 13.4757 7.87559 14.0342 7.12242 14.0342H3.89584C3.13104 14.0342 2.48871 13.4588 2.40488 12.6986L2.12542 10.1644C2.0318 9.3154 2.66315 8.5686 3.49952 8.50446C3.49952 8.5033 3.49951 8.50214 3.49951 8.50098L3.49756 6.50098ZM4.49951 8.5H6.49414V6.5H4.49756L4.49951 8.5ZM3.61639 9.5C3.31855 9.5 3.08675 9.75876 3.1194 10.0548L3.39885 12.589C3.42679 12.8424 3.64091 13.0342 3.89584 13.0342H7.12242C7.37347 13.0342 7.5856 12.848 7.61819 12.5991L7.9499 10.0649C7.98909 9.76554 7.75605 9.5 7.45413 9.5H3.61639Z" fill="black"/>
</svg>
