<svg width="16" height="16" viewBox="0 0 16 16" fill="none" xmlns="http://www.w3.org/2000/svg">
<path fill-rule="evenodd" clip-rule="evenodd" d="M3 4H13C13.5523 4 14 4.44772 14 5V11C14 11.5523 13.5523 12 13 12H3C2.44772 12 2 11.5523 2 11V5C2 4.44772 2.44772 4 3 4ZM1 5C1 3.89543 1.89543 3 3 3H13C14.1046 3 15 3.89543 15 5V11C15 12.1046 14.1046 13 13 13H3C1.89543 13 1 12.1046 1 11V5ZM8.00004 10.5L5.73684 7.85958C5.32108 7.37453 5.34886 6.65115 5.8006 6.19942C6.39068 5.60934 7.38544 5.77077 7.75863 6.51716L8.00004 6.99998L8.24145 6.51716C8.61464 5.77077 9.6094 5.60934 10.1995 6.19942C10.6512 6.65115 10.679 7.37453 10.2632 7.85958L8.00004 10.5Z" fill="black"/>
</svg>
