<svg width="16" height="16" viewBox="0 0 16 16" fill="none" xmlns="http://www.w3.org/2000/svg">
<path fill-rule="evenodd" clip-rule="evenodd" d="M8.30877 2.60211C8.11876 2.4881 7.88139 2.4881 7.69138 2.60211L2.74283 5.57124C2.50604 5.71331 2.42926 6.02044 2.57133 6.25723C2.7134 6.49402 3.02053 6.5708 3.25732 6.42873L8.00008 3.58308L12.7428 6.42873C12.9796 6.5708 13.2867 6.49402 13.4288 6.25723C13.5709 6.02044 13.4941 5.71331 13.2573 5.57124L12.4879 5.10961C12.4958 5.07434 12.5 5.03765 12.5 5V3.5C12.5 3.22386 12.2761 3 12 3C11.7239 3 11.5 3.22386 11.5 3.5V4.51684L8.30877 2.60211ZM4 7C4.27614 7 4.5 7.22386 4.5 7.5V12.5C4.5 12.7761 4.72386 13 5 13H11C11.2761 13 11.5 12.7761 11.5 12.5V7.5C11.5 7.22386 11.7239 7 12 7C12.2761 7 12.5 7.22386 12.5 7.5V12.5C12.5 13.3284 11.8284 14 11 14H5C4.17157 14 3.5 13.3284 3.5 12.5V7.5C3.5 7.22386 3.72386 7 4 7ZM9.85355 8.35355C10.0488 8.15829 10.0488 7.84171 9.85355 7.64645C9.65829 7.45118 9.34171 7.45118 9.14645 7.64645L6.14645 10.6464C5.95118 10.8417 5.95118 11.1583 6.14645 11.3536C6.34171 11.5488 6.65829 11.5488 6.85355 11.3536L9.85355 8.35355ZM6 8.25C6 7.83579 6.33579 7.5 6.75 7.5C7.16421 7.5 7.5 7.83579 7.5 8.25C7.5 8.66421 7.16421 9 6.75 9C6.33579 9 6 8.66421 6 8.25ZM9.25 10C8.83579 10 8.5 10.3358 8.5 10.75C8.5 11.1642 8.83579 11.5 9.25 11.5C9.66421 11.5 10 11.1642 10 10.75C10 10.3358 9.66421 10 9.25 10Z" fill="black"/>
</svg>
