<svg width="16" height="16" viewBox="0 0 16 16" fill="none" xmlns="http://www.w3.org/2000/svg">
<path fill-rule="evenodd" clip-rule="evenodd" d="M5 2C3.89543 2 3 2.89543 3 4V8.5C3 9.32843 3.67157 10 4.5 10H5.5V12C5.5 13.1046 6.39543 14 7.5 14C8.60457 14 9.5 13.1046 9.5 12V10H10.5C11.3284 10 12 9.32843 12 8.5V5.48227C12.848 5.36092 13.4999 4.63154 13.4999 3.75003C13.4999 2.7836 12.7164 2 11.7499 2H5ZM4 4C4 3.44772 4.44772 3 5 3H11.7499C12.1641 3 12.4999 3.33582 12.4999 3.75003C12.4999 4.16421 12.1641 4.5 11.7499 4.5C11.3358 4.5 11 4.83576 11 5.24993V6H8V5.5C8 5.22386 7.77614 5 7.5 5C7.22386 5 7 5.22386 7 5.5V6H6V4.5C6 4.22386 5.77614 4 5.5 4C5.22386 4 5 4.22386 5 4.5V6H4V4ZM4 7V8.5C4 8.77614 4.22386 9 4.5 9H6.5V12C6.5 12.5523 6.94772 13 7.5 13C8.05228 13 8.5 12.5523 8.5 12V9H10.5C10.7761 9 11 8.77614 11 8.5V7H4Z" fill="black"/>
</svg>
