<svg width="16" height="16" viewBox="0 0 16 16" fill="none" xmlns="http://www.w3.org/2000/svg">
<path fill-rule="evenodd" clip-rule="evenodd" d="M7.99998 11.5C4.4804 11.5 2.91785 8.6823 2.52758 7.07029C3.24653 5.7565 5.20258 3.5 7.99998 3.5C10.7974 3.5 12.7534 5.7565 13.4724 7.07029C13.0821 8.6823 11.5196 11.5 7.99998 11.5ZM7.99998 2.5C4.64336 2.5 2.41836 5.1746 1.63952 6.61009C1.52785 6.81592 1.49599 7.05496 1.55026 7.28309C1.98212 9.09857 3.79281 12.5 7.99998 12.5C12.2072 12.5 14.0178 9.09857 14.4497 7.28309C14.504 7.05496 14.4721 6.81592 14.3604 6.61009C13.5816 5.1746 11.3566 2.5 7.99998 2.5ZM3.96999 7.00512C4.1465 6.79275 4.46174 6.76369 4.67411 6.9402C5.36984 7.51848 6.38945 7.99999 8.00022 7.99999C9.61099 7.99999 10.6306 7.51848 11.3263 6.9402C11.5387 6.76369 11.8539 6.79275 12.0305 7.00512C12.207 7.21748 12.1779 7.53273 11.9655 7.70924C11.6927 7.93605 11.3847 8.1461 11.0351 8.32804L11.3536 8.64645C11.5488 8.84171 11.5488 9.15829 11.3536 9.35355C11.1583 9.54882 10.8417 9.54882 10.6464 9.35355L10.1464 8.85355C10.1072 8.81434 10.0759 8.77023 10.0524 8.72319C9.59294 8.85959 9.07824 8.95187 8.5 8.98567V9.5C8.5 9.77614 8.27614 10 8 10C7.72386 10 7.5 9.77614 7.5 9.5V8.98564C6.92178 8.95181 6.4071 8.8595 5.94763 8.72308C5.92416 8.77016 5.8928 8.81431 5.85355 8.85355L5.35355 9.35355C5.15829 9.54882 4.84171 9.54882 4.64645 9.35355C4.45118 9.15829 4.45118 8.84171 4.64645 8.64645L4.96501 8.32788C4.61555 8.14598 4.3077 7.93598 4.0349 7.70924C3.82254 7.53273 3.79348 7.21748 3.96999 7.00512Z" fill="black"/>
</svg>
