<svg width="16" height="16" viewBox="0 0 16 16" fill="none" xmlns="http://www.w3.org/2000/svg">
<path fill-rule="evenodd" clip-rule="evenodd" d="M11 2.5C9.61929 2.5 8.5 3.61929 8.5 5V7.5H6C5.72386 7.5 5.5 7.72386 5.5 8C5.5 8.27614 5.72386 8.5 6 8.5H8.5V11C8.5 11.2761 8.72386 11.5 9 11.5C9.27614 11.5 9.5 11.2761 9.5 11V5C9.5 4.17157 10.1716 3.5 11 3.5C11.8284 3.5 12.5 4.17157 12.5 5V6C12.5 6.27614 12.7239 6.5 13 6.5C13.2761 6.5 13.5 6.27614 13.5 6V5C13.5 3.61929 12.3807 2.5 11 2.5ZM2.5 7.5C2.22386 7.5 2 7.72386 2 8C2 8.27614 2.22386 8.5 2.5 8.5H4V11C4 11.2761 4.22386 11.5 4.5 11.5C4.77614 11.5 5 11.2761 5 11V5C5 4.17157 5.67157 3.5 6.5 3.5C6.88076 3.5 7.22732 3.64122 7.49205 3.87487C7.69908 4.0576 8.01505 4.0379 8.19778 3.83087C8.38051 3.62383 8.36081 3.30786 8.15378 3.12513C7.71337 2.73642 7.13369 2.5 6.5 2.5C5.11929 2.5 4 3.61929 4 5V7.5H2.5ZM3.91773 12.6485C4.25569 12.8181 4.65866 12.7933 4.97329 12.5836C5.58605 12.1751 6.37069 12.1263 7.02937 12.4556L7.29803 12.59C7.74 12.8109 8.26022 12.8109 8.70219 12.59L8.84965 12.5162C9.57388 12.1541 10.4263 12.1541 11.1506 12.5162C11.6542 12.7681 12.2541 12.7313 12.7233 12.42L13.2305 12.0834C13.4606 11.9307 13.7709 11.9935 13.9236 12.2235C14.0762 12.4536 14.0135 12.7639 13.7834 12.9166L13.2763 13.2532C12.5087 13.7626 11.5273 13.8226 10.7034 13.4107C10.2607 13.1893 9.73957 13.1893 9.29686 13.4107L9.14941 13.4844C8.42591 13.8461 7.57431 13.8461 6.85081 13.4844L6.58215 13.3501C6.24443 13.1812 5.84212 13.2062 5.52793 13.4156C4.9143 13.8247 4.12839 13.873 3.46925 13.5423L2.28271 12.9469C2.03589 12.8231 1.9362 12.5226 2.06005 12.2758C2.18389 12.029 2.48437 11.9293 2.73118 12.0531L3.91773 12.6485ZM10 8C10 7.72386 10.2239 7.5 10.5 7.5H13.5C13.7761 7.5 14 7.72386 14 8C14 8.27614 13.7761 8.5 13.5 8.5H10.5C10.2239 8.5 10 8.27614 10 8Z" fill="black"/>
</svg>
