<svg width="16" height="16" viewBox="0 0 16 16" fill="none" xmlns="http://www.w3.org/2000/svg">
<path fill-rule="evenodd" clip-rule="evenodd" d="M12 3C12.5523 3 13 3.44771 13 4V8.29344C13 8.55867 12.8946 8.81304 12.7071 9.00058L7.92425 13.7829C7.68994 14.0172 7.31008 14.0172 7.07577 13.7829L2.21726 8.92484C1.98294 8.69054 1.98292 8.31064 2.21721 8.07631L6.99999 3.29294C7.18753 3.10537 7.4419 3 7.70714 3H12ZM12 4L7.70714 4L3.20719 8.50052L7.50001 12.7929L12 8.29344V4ZM7.64633 10.3536L5.64633 8.35355L6.35344 7.64645L8.35344 9.64645L7.64633 10.3536ZM9.99991 7C10.5522 7 10.9999 6.55229 10.9999 6C10.9999 5.44772 10.5522 5 9.99991 5C9.44762 5 8.99991 5.44772 8.99991 6C8.99991 6.55229 9.44762 7 9.99991 7Z" fill="black"/>
</svg>
