<svg width="16" height="16" viewBox="0 0 16 16" fill="none" xmlns="http://www.w3.org/2000/svg">
<path fill-rule="evenodd" clip-rule="evenodd" d="M6.62939 5.52702V4.5H12.0001V5.52702H6.62939ZM6.62939 6.52702V10.9498C6.62939 11.0267 6.61205 11.0995 6.58107 11.1645C6.43756 12.0168 5.69614 12.666 4.80309 12.666C3.80727 12.666 3 11.8588 3 10.8629C3 9.86713 3.80727 9.05985 4.80309 9.05985C5.10091 9.05985 5.38186 9.13206 5.62939 9.25991V4.1C5.62939 3.76863 5.89802 3.5 6.22939 3.5H12.4001C12.7314 3.5 13.0001 3.76863 13.0001 4.1V10.9498C13.0001 11.0401 12.9761 11.1248 12.9343 11.1979C12.7772 12.0337 12.0436 12.666 11.1622 12.666C10.1664 12.666 9.35913 11.8588 9.35913 10.8629C9.35913 9.86713 10.1664 9.05985 11.1622 9.05985C11.4647 9.05985 11.7497 9.13432 12.0001 9.26592V6.52702H6.62939ZM4 10.8629C4 10.4194 4.35956 10.0599 4.80309 10.0599C5.24663 10.0599 5.60618 10.4194 5.60618 10.8629C5.60618 11.3065 5.24663 11.666 4.80309 11.666C4.35956 11.666 4 11.3065 4 10.8629ZM11.1622 10.0599C10.7187 10.0599 10.3591 10.4194 10.3591 10.8629C10.3591 11.3065 10.7187 11.666 11.1622 11.666C11.6058 11.666 11.9653 11.3065 11.9653 10.8629C11.9653 10.4194 11.6058 10.0599 11.1622 10.0599Z" fill="black"/>
</svg>
