<svg width="16" height="16" viewBox="0 0 16 16" fill="none" xmlns="http://www.w3.org/2000/svg">
<path fill-rule="evenodd" clip-rule="evenodd" d="M4 3C3.44772 3 3 3.44772 3 4V6.66667C3 9.65593 3.1571 10.8127 3.61731 11.7464C3.83293 12.1839 4.14378 12.531 4.5643 12.7488C4.96487 12.9563 5.37673 13 5.71429 13H8.28571C8.62327 13 9.03513 12.9563 9.4357 12.7488C9.85622 12.531 10.1671 12.1839 10.3827 11.7464C10.5027 11.5029 10.6021 11.2442 10.6835 10.9418C12.567 10.6175 14 8.97614 14 7C14 5.89545 13.1046 5 12 5H11V4C11 3.44772 10.5523 3 10 3H4ZM10 4H4V6.66667C4 9.68116 4.17143 10.6087 4.51429 11.3043C4.78857 11.8609 5.2 12 5.71429 12H8.28571C8.8 12 9.21143 11.8609 9.48571 11.3043C9.53277 11.2089 9.5766 11.109 9.6172 11C9.66516 10.8712 9.70864 10.7295 9.74762 10.5672C9.91587 9.86601 10 8.77842 10 6.66667V4ZM10.8767 9.86986C10.9642 9.10299 11 8.09362 11 6.66667V6H12C12.5522 6 13 6.44769 13 7C13 8.35185 12.1059 9.49485 10.8767 9.86986Z" fill="black"/>
</svg>
