<svg width="16" height="16" viewBox="0 0 16 16" fill="none" xmlns="http://www.w3.org/2000/svg">
<path fill-rule="evenodd" clip-rule="evenodd" d="M2.53807 2.06152C3.12225 1.70452 3.89749 1.5 4.72727 1.5C5.55706 1.5 6.3323 1.70452 6.91647 2.06152C7.49206 2.41327 7.95455 2.96633 7.95455 3.66667V5.33334C7.95455 6.03367 7.49206 6.58674 6.91647 6.93849C6.3323 7.29548 5.55706 7.50001 4.72727 7.50001C3.89749 7.50001 3.12224 7.29548 2.53807 6.93849C1.96249 6.58674 1.5 6.03367 1.5 5.33334V3.66667C1.5 2.96633 1.96248 2.41327 2.53807 2.06152ZM3.05953 2.9148C2.64804 3.16626 2.5 3.44653 2.5 3.66667C2.5 3.88681 2.64804 4.16708 3.05953 4.41854C3.46243 4.66476 4.05083 4.83334 4.72727 4.83334C5.40372 4.83334 5.99211 4.66476 6.39502 4.41854C6.80651 4.16708 6.95455 3.88681 6.95455 3.66667C6.95455 3.44653 6.80651 3.16626 6.39502 2.9148C5.99211 2.66858 5.40372 2.5 4.72727 2.5C4.05083 2.5 3.46243 2.66858 3.05953 2.9148ZM6.95455 5.24816C6.94191 5.25614 6.92922 5.26403 6.91647 5.27182C6.3323 5.62882 5.55706 5.83334 4.72727 5.83334C3.89749 5.83334 3.12225 5.62882 2.53807 5.27182C2.52533 5.26403 2.51263 5.25614 2.5 5.24816V5.33334C2.5 5.55347 2.64804 5.83374 3.05953 6.08521C3.46244 6.33143 4.05083 6.50001 4.72727 6.50001C5.40372 6.50001 5.99211 6.33143 6.39502 6.08521C6.80651 5.83374 6.95455 5.55347 6.95455 5.33334V5.24816Z" fill="black"/>
<path fill-rule="evenodd" clip-rule="evenodd" d="M7.95455 10.6667C7.95455 9.96633 7.49206 9.41327 6.91647 9.06152C6.3323 8.70452 5.55706 8.5 4.72727 8.5C3.89749 8.5 3.12225 8.70452 2.53807 9.06152C1.96248 9.41327 1.5 9.96633 1.5 10.6667V12.3333C1.5 13.0337 1.96249 13.5867 2.53807 13.9385C3.12224 14.2955 3.89749 14.5 4.72727 14.5C5.55706 14.5 6.3323 14.2955 6.91647 13.9385C7.49206 13.5867 7.95455 13.0337 7.95455 12.3333V10.6667ZM2.5 10.6667C2.5 10.4465 2.64804 10.1663 3.05953 9.9148C3.46243 9.66858 4.05083 9.5 4.72727 9.5C5.40372 9.5 5.99211 9.66858 6.39502 9.9148C6.80651 10.1663 6.95455 10.4465 6.95455 10.6667C6.95455 10.8868 6.80651 11.1671 6.39502 11.4185C5.99211 11.6648 5.40372 11.8333 4.72727 11.8333C4.05083 11.8333 3.46243 11.6648 3.05953 11.4185C2.64804 11.1671 2.5 10.8868 2.5 10.6667ZM2.5 12.2482C2.51263 12.2561 2.52533 12.264 2.53807 12.2718C3.12225 12.6288 3.89749 12.8333 4.72727 12.8333C5.55706 12.8333 6.3323 12.6288 6.91647 12.2718C6.92922 12.264 6.94191 12.2561 6.95455 12.2482V12.3333C6.95455 12.5535 6.80651 12.8337 6.39502 13.0852C5.99211 13.3314 5.40372 13.5 4.72727 13.5C4.05083 13.5 3.46244 13.3314 3.05953 13.0852C2.64804 12.8337 2.5 12.5535 2.5 12.3333V12.2482Z" fill="black"/>
<path fill-rule="evenodd" clip-rule="evenodd" d="M13.6294 5.57229C13.0889 5.31228 12.4275 5.16663 11.7273 5.16663C10.8975 5.16663 10.1222 5.37115 9.53807 5.72814C8.96248 6.07989 8.5 6.63296 8.5 7.3333C8.5 7.3426 8.50008 7.35188 8.50024 7.36113V9.00009C8.50024 9.70042 8.96273 10.2535 9.53832 10.6052C10.1225 10.9622 10.8977 11.1668 11.7275 11.1668C12.5573 11.1668 13.3325 10.9622 13.9167 10.6052C14.4923 10.2535 14.9548 9.70042 14.9548 9.00009V7.33342C14.9548 6.63308 14.4923 6.08001 13.9167 5.72826C13.8641 5.69609 13.8099 5.66516 13.7542 5.63551C13.7134 5.61374 13.6718 5.59266 13.6294 5.57229ZM10.0598 6.58154C9.64828 6.83301 9.50024 7.11328 9.50024 7.33342V7.34883C9.50706 7.56652 9.65766 7.83958 10.0595 8.08517C10.4624 8.33139 11.0508 8.49996 11.7273 8.49996C12.4037 8.49996 12.9921 8.33139 13.395 8.08517C13.8065 7.8337 13.9545 7.55344 13.9545 7.3333C13.9545 7.11315 13.8065 6.83289 13.395 6.58142C13.3573 6.55838 13.318 6.53602 13.2771 6.51442C13.2436 6.49669 13.209 6.47948 13.1735 6.46281C12.7891 6.28273 12.2886 6.16675 11.7275 6.16675C11.0511 6.16675 10.4627 6.33532 10.0598 6.58154ZM13.9548 8.91463C13.9421 8.92267 13.9293 8.93061 13.9165 8.93845C13.3323 9.29544 12.5571 9.49996 11.7273 9.49996C10.8975 9.49996 10.1222 9.29544 9.53807 8.93845C9.52541 8.93071 9.5128 8.92287 9.50024 8.91494V9.00009C9.50024 9.22022 9.64828 9.50049 10.0598 9.75196C10.4627 9.99818 11.0511 10.1668 11.7275 10.1668C12.404 10.1668 12.9924 9.99818 13.3953 9.75196C13.8068 9.50049 13.9548 9.22022 13.9548 9.00009V8.91463Z" fill="black"/>
</svg>
