<svg width="16" height="16" viewBox="0 0 16 16" fill="none" xmlns="http://www.w3.org/2000/svg">
<path d="M8.02 2.6001C5.23416 2.6001 3 4.79216 3 7.46676C3 8.76851 3.52672 9.95214 4.38949 10.8278C4.42627 10.8651 4.46367 10.9019 4.50169 10.9381C4.70162 11.1286 4.70929 11.4451 4.51881 11.645C4.32834 11.8449 4.01185 11.8526 3.81191 11.6621C3.76631 11.6187 3.72139 11.5745 3.67717 11.5296C2.64039 10.4774 2 9.04552 2 7.46676C2 4.21351 4.70862 1.6001 8.02 1.6001C11.3314 1.6001 14.04 4.21351 14.04 7.46676C14.04 9.04552 13.3996 10.4774 12.3628 11.5296C12.169 11.7263 11.8524 11.7287 11.6557 11.5349C11.459 11.341 11.4567 11.0245 11.6505 10.8278C12.5133 9.95214 13.04 8.76851 13.04 7.46676C13.04 4.79216 10.8058 2.6001 8.02 2.6001Z" fill="black"/>
<path fill-rule="evenodd" clip-rule="evenodd" d="M4.83085 7.84363C4.83085 6.71882 5.77922 5.84622 6.89957 5.84622C7.33394 5.84622 7.71618 6.01271 8.02008 6.22294C8.32398 6.01271 8.70622 5.84622 9.14059 5.84622C10.2609 5.84622 11.2093 6.71882 11.2093 7.84363C11.2093 8.39037 11.0019 8.90387 10.6046 9.2765L9.19389 10.6231C8.53697 11.2502 7.50319 11.2502 6.84627 10.6231L5.45606 9.29612C5.44736 9.28796 5.43873 9.27971 5.43017 9.27137C5.05711 8.90797 4.83085 8.38764 4.83085 7.84363ZM6.89957 6.84622C6.28716 6.84622 5.83085 7.31444 5.83085 7.84363C5.83085 8.11562 5.94649 8.3783 6.12794 8.55505L6.14117 8.56768L6.14487 8.57114L7.53675 9.89978C7.80724 10.158 8.23291 10.158 8.50341 9.89978L9.91953 8.54804C10.1021 8.37725 10.2093 8.13397 10.2093 7.84363C10.2093 7.31444 9.753 6.84622 9.14059 6.84622C8.88535 6.84622 8.60721 6.9952 8.36896 7.22728L8.02008 7.56713L7.67119 7.22728C7.43294 6.9952 7.15481 6.84622 6.89957 6.84622Z" fill="black"/>
<path d="M2.5 12.6001C2.22386 12.6001 2 12.8239 2 13.1001C2 13.3762 2.22386 13.6001 2.5 13.6001H13.5C13.7761 13.6001 14 13.3762 14 13.1001C14 12.8239 13.7761 12.6001 13.5 12.6001H2.5Z" fill="black"/>
</svg>
