<svg width="16" height="16" viewBox="0 0 16 16" fill="none" xmlns="http://www.w3.org/2000/svg">
<path fill-rule="evenodd" clip-rule="evenodd" d="M11.3102 3.89474C11.3102 3.12444 11.9346 2.5 12.7049 2.5C13.4752 2.5 14.0996 3.12444 14.0996 3.89474C14.0996 4.66503 13.4752 5.28947 12.7049 5.28947C11.9346 5.28947 11.3102 4.66503 11.3102 3.89474ZM10.3137 3.76318C10.3113 3.80674 10.3102 3.8506 10.3102 3.89474C10.3102 5.21731 11.3823 6.28947 12.7049 6.28947C12.749 6.28947 12.7929 6.28828 12.8365 6.28592V12C12.8365 12.8285 12.1649 13.5 11.3365 13.5H4.59961C3.77118 13.5 3.09961 12.8285 3.09961 12V5.26318C3.09961 4.43476 3.77118 3.76318 4.59961 3.76318H10.3137ZM10.5938 2.76318H4.59961C3.2189 2.76318 2.09961 3.88247 2.09961 5.26318V12C2.09961 13.3807 3.2189 14.5 4.59961 14.5H11.3365C12.7172 14.5 13.8365 13.3807 13.8365 12V6.0058C14.5884 5.60191 15.0996 4.80803 15.0996 3.89474C15.0996 2.57216 14.0275 1.5 12.7049 1.5C11.7916 1.5 10.9977 2.01126 10.5938 2.76318Z" fill="black"/>
</svg>
