<svg width="16" height="16" viewBox="0 0 16 16" fill="none" xmlns="http://www.w3.org/2000/svg">
<path fill-rule="evenodd" clip-rule="evenodd" d="M1.5 3.1C1.5 2.76863 1.76863 2.5 2.1 2.5H13.9C14.2314 2.5 14.5 2.76863 14.5 3.1V4.5C14.5 4.77614 14.2761 5 14 5C13.7239 5 13.5 4.77614 13.5 4.5V3.5H2.5V6.5H3.13378C3.30669 6.2011 3.62986 6 4 6C4.55228 6 5 6.44772 5 7C5 7.55228 4.55228 8 4 8C3.62986 8 3.30669 7.7989 3.13378 7.5H2.1C1.76863 7.5 1.5 7.23137 1.5 6.9V3.1ZM12.8662 6.5C12.6933 6.2011 12.3701 6 12 6C11.4477 6 11 6.44772 11 7C11 7.55228 11.4477 8 12 8C12.3701 8 12.6933 7.7989 12.8662 7.5H13.5V10.5H2.5V9.5C2.5 9.22386 2.27614 9 2 9C1.72386 9 1.5 9.22386 1.5 9.5V10.9C1.5 11.2314 1.76863 11.5 2.1 11.5H13.9C14.2314 11.5 14.5 11.2314 14.5 10.9V7.1C14.5 6.76863 14.2314 6.5 13.9 6.5H12.8662ZM8 6C7.44772 6 7 6.44772 7 7C7 7.55228 7.44772 8 8 8C8.55228 8 9 7.55228 9 7C9 6.44772 8.55228 6 8 6ZM6 7C6 5.89543 6.89543 5 8 5C9.10457 5 10 5.89543 10 7C10 8.10457 9.10457 9 8 9C6.89543 9 6 8.10457 6 7ZM2 12.5C1.72386 12.5 1.5 12.7239 1.5 13C1.5 13.2761 1.72386 13.5 2 13.5H14C14.2761 13.5 14.5 13.2761 14.5 13C14.5 12.7239 14.2761 12.5 14 12.5H2Z" fill="black"/>
</svg>
