<svg width="16" height="16" viewBox="0 0 16 16" fill="none" xmlns="http://www.w3.org/2000/svg">
<path fill-rule="evenodd" clip-rule="evenodd" d="M2 5.5C2 4.67157 2.67157 4 3.5 4H10.5C11.3284 4 12 4.67157 12 5.5V10C12 10.8284 11.3284 11.5 10.5 11.5H3.5C2.67157 11.5 2 10.8284 2 10V5.5ZM3.5 5C3.22386 5 3 5.22386 3 5.5V10C3 10.2761 3.22386 10.5 3.5 10.5H10.5C10.7761 10.5 11 10.2761 11 10V5.5C11 5.22386 10.7761 5 10.5 5H3.5ZM13.6236 11.8679C13.8784 11.9743 13.9987 12.2671 13.8924 12.522C13.7395 12.8881 13.4382 13.1986 13.0815 13.366C12.8315 13.4832 12.5337 13.3756 12.4165 13.1256C12.2992 12.8756 12.4068 12.5779 12.6568 12.4606C12.7924 12.397 12.914 12.2699 12.9695 12.1367C13.0759 11.8819 13.3687 11.7616 13.6236 11.8679ZM14 9.5C14 9.22386 13.7761 9 13.5 9C13.2239 9 13 9.22386 13 9.5V10.5C13 10.7761 13.2239 11 13.5 11C13.7761 11 14 10.7761 14 10.5V9.5ZM13.5 6.5C13.7761 6.5 14 6.72386 14 7V7.5C14 7.77614 13.7761 8 13.5 8C13.2239 8 13 7.77614 13 7.5V7C13 6.72386 13.2239 6.5 13.5 6.5ZM10 12.5C9.72386 12.5 9.5 12.7239 9.5 13C9.5 13.2761 9.72386 13.5 10 13.5H11C11.2761 13.5 11.5 13.2761 11.5 13C11.5 12.7239 11.2761 12.5 11 12.5H10ZM7 13C7 12.7239 7.22386 12.5 7.5 12.5H8C8.27614 12.5 8.5 12.7239 8.5 13C8.5 13.2761 8.27614 13.5 8 13.5H7.5C7.22386 13.5 7 13.2761 7 13ZM5 12.5C4.72386 12.5 4.5 12.7239 4.5 13C4.5 13.2761 4.72386 13.5 5 13.5H5.5C5.77614 13.5 6 13.2761 6 13C6 12.7239 5.77614 12.5 5.5 12.5H5Z" fill="black"/>
</svg>
