<svg width="16" height="16" viewBox="0 0 16 16" fill="none" xmlns="http://www.w3.org/2000/svg">
<path fill-rule="evenodd" clip-rule="evenodd" d="M7.97843 1C7.59264 1 6.80822 1.04475 6.10271 1.34153C5.74573 1.49171 5.38458 1.71649 5.11089 2.05618C4.83085 2.40375 4.66309 2.84663 4.66309 3.38647C4.66309 4.32304 4.48513 4.95698 4.13068 5.87824C4.04679 6.08699 3.9764 6.38694 4.00792 6.69742C4.0412 7.02531 4.1954 7.39321 4.58521 7.61875C4.75565 7.71735 4.96718 7.78071 5.16296 7.82512C5.36705 7.87142 5.59215 7.90527 5.81141 7.93019C6.25005 7.98004 6.69551 7.99749 6.96418 7.99998C7.26974 8.00281 7.50481 7.75228 7.50481 7.45937V6.28901C7.50481 6.088 7.39354 5.89908 7.20901 5.80596C7.07525 5.73846 7.01378 5.70513 6.96557 5.64963C6.93298 5.61211 6.87334 5.52512 6.87334 5.29561L6.8733 4.59604C6.97496 4.6037 7.08341 4.60544 7.19523 4.59739C7.44563 4.57935 7.72815 4.51044 7.98726 4.33913C8.24293 4.49997 8.51786 4.5674 8.7624 4.58734C8.87396 4.59644 8.98206 4.59601 9.08347 4.58964L9.0835 5.29566C9.0835 5.52515 9.02385 5.61211 8.99126 5.64963C8.94305 5.70513 8.88159 5.73846 8.74782 5.80596C8.5633 5.89908 8.45203 6.088 8.45203 6.28901V7.45937C8.45203 7.75228 8.6871 8.00281 8.99266 7.99998C9.26132 7.99748 9.70678 7.98004 10.1454 7.93019C10.3647 7.90527 10.5897 7.87142 10.7938 7.82512C10.9896 7.78071 11.2011 7.71735 11.3716 7.61875C11.7684 7.38916 11.9278 6.9873 11.9784 6.66152C12.0287 6.3381 11.9891 5.99635 11.89 5.75161L11.8685 5.69852C11.4998 4.78889 11.2936 4.2801 11.2936 3.38647C11.2936 2.84664 11.1258 2.40377 10.8458 2.05619C10.5722 1.7165 10.211 1.49172 9.85406 1.34154C9.1486 1.04475 8.36422 1 7.97843 1ZM5.6103 3.38647C5.6103 3.05979 5.70695 2.83076 5.84623 2.6579C5.99187 2.47714 6.20495 2.33294 6.46759 2.22245C7.00135 1.99791 7.6378 1.95459 7.97843 1.95459C8.31906 1.95459 8.95545 1.99791 9.48916 2.22245C9.75178 2.33293 9.96484 2.47713 10.1105 2.65788C10.2497 2.83075 10.3464 3.05977 10.3464 3.38647C10.3464 4.46912 10.6147 5.13039 10.9764 6.022L11.0131 6.11245C11.0406 6.18031 11.069 6.3443 11.0426 6.5138C11.0167 6.68093 10.9548 6.75916 10.9 6.79087C10.854 6.81751 10.753 6.85591 10.5858 6.89384C10.4269 6.92989 10.2385 6.95896 10.0392 6.98161C9.81995 7.00654 9.5966 7.02267 9.39924 7.03252V6.53558C9.49693 6.47394 9.60647 6.39064 9.70397 6.27839C9.91058 6.04054 10.0307 5.71889 10.0307 5.29561L10.0307 4.10725C10.0306 3.74633 9.69283 3.49715 9.36012 3.58213C9.22355 3.61701 9.03084 3.65153 8.83882 3.63587C8.65184 3.62062 8.49367 3.5611 8.37312 3.43404C8.15414 3.20323 7.78618 3.21013 7.57545 3.44688C7.46247 3.57381 7.31218 3.63194 7.12769 3.64523C6.93655 3.659 6.74209 3.62092 6.60015 3.58345C6.2642 3.49476 5.92604 3.74725 5.92606 4.10731L5.92612 5.29566C5.92613 5.71893 6.04626 6.04054 6.25287 6.27839C6.35037 6.39064 6.4599 6.47394 6.5576 6.53558V7.03252C6.36023 7.02267 6.13687 7.00654 5.91756 6.98161C5.71827 6.95896 5.52987 6.92988 5.37097 6.89384C5.20379 6.85591 5.10285 6.81752 5.0568 6.79088C4.99497 6.75511 4.96076 6.70411 4.95022 6.60028C4.93813 6.48115 4.96738 6.33855 5.00939 6.23486L5.01241 6.22703C5.38936 5.24774 5.6103 4.48895 5.6103 3.38647Z" fill="black"/>
<path fill-rule="evenodd" clip-rule="evenodd" d="M6.11757 9.20545C6.04497 9.07841 5.90986 9 5.76354 9C4.71047 9 3.77555 9.67385 3.44254 10.6729L3.04565 11.8636C2.71134 12.8665 2.97237 13.9722 3.71989 14.7197C3.89935 14.8992 4.14275 15 4.39654 15H11.6038C11.8576 15 12.101 14.8992 12.2804 14.7197C13.028 13.9722 13.289 12.8665 12.9547 11.8636L12.5578 10.6729C12.2248 9.67385 11.2899 9 10.2368 9C10.0905 9 9.95537 9.07841 9.88277 9.20545L9.21787 10.369L8.98923 9.45448C8.92246 9.18738 8.68247 9 8.40715 9H7.5633C7.28798 9 7.04799 9.18738 6.98122 9.45448L6.76168 10.3326L6.11757 9.20545ZM11.5858 14C12.0559 13.5205 12.2187 12.8178 12.006 12.1798L11.6091 10.9891C11.4471 10.5031 11.0442 10.1473 10.5597 10.0364L8.95524 12.8442C8.53296 13.5832 7.46739 13.5832 7.0451 12.8442L5.44065 10.0364C4.95613 10.1473 4.55322 10.5031 4.39123 10.9891L3.99433 12.1798C3.78168 12.8178 3.94441 13.5205 4.41451 14H11.5858ZM8.50015 11.6213L8.50081 11.6239L8.08699 12.3481C8.0486 12.4152 7.95173 12.4152 7.91334 12.3481L7.47874 11.5875L7.87561 10H8.09484L8.50015 11.6213Z" fill="black"/>
</svg>
