<svg width="16" height="16" viewBox="0 0 16 16" fill="none" xmlns="http://www.w3.org/2000/svg">
<path fill-rule="evenodd" clip-rule="evenodd" d="M6 10.5V10.0091C6.00011 10.003 6.00011 9.99691 6 9.99084V7.51093C6.00015 7.50386 6.00015 7.4968 6 7.48973V5H10V10.5C10 10.7761 9.77614 11 9.5 11H6.5C6.22386 11 6 10.7761 6 10.5ZM5 7.74989V8.79276L3.20719 6.99995L3.547 6.66014L5 7.74989ZM5 4.5V6.49989L3.86947 5.65199C3.63059 5.47283 3.29634 5.49659 3.0852 5.70772L2.21724 6.57569C1.98293 6.81 1.98292 7.1899 2.21724 7.42421L5 10.207V10.5C5 11.3284 5.67157 12 6.5 12H9.5C10.3284 12 11 11.3284 11 10.5V9.95852C12.4189 9.72048 13.5 8.4865 13.5 7C13.5 5.34315 12.1569 4 10.5 4H5.5C5.22386 4 5 4.22386 5 4.5ZM11 8.93699C11.8626 8.71497 12.5 7.93192 12.5 7C12.5 6.06808 11.8626 5.28503 11 5.06301V8.93699ZM8 6.5H7.5V7C7.5 7.27614 7.27614 7.5 7 7.5C6.72386 7.5 6.5 7.27614 6.5 7V6.1C6.5 5.76863 6.76863 5.5 7.1 5.5H8C8.27614 5.5 8.5 5.72386 8.5 6C8.5 6.27614 8.27614 6.5 8 6.5Z" fill="black"/>
</svg>
