<svg width="16" height="16" viewBox="0 0 16 16" fill="none" xmlns="http://www.w3.org/2000/svg">
<path fill-rule="evenodd" clip-rule="evenodd" d="M7.62926 2.64426C7.89632 2.52027 8.20444 2.52027 8.47149 2.64426L14.7156 5.5433C15.1787 5.75832 15.1787 6.4167 14.7156 6.63171L12.1129 7.84012V10.1561L12.109 10.187C11.9879 11.156 10.8183 12.525 8.05035 12.525C5.28244 12.525 4.11283 11.156 3.99171 10.187L3.98785 10.1561V7.8401L1.38518 6.63171C0.922064 6.4167 0.922064 5.75832 1.38517 5.5433L7.62926 2.64426ZM8.47149 9.53075L11.1129 8.3044V10.0871C11.0494 10.4187 10.4454 11.525 8.05035 11.525C5.65528 11.525 5.05128 10.4187 4.98785 10.0871V8.30439L7.62926 9.53075C7.89631 9.65474 8.20443 9.65474 8.47149 9.53075ZM2.58771 6.08751L8.05037 8.62374L13.513 6.08751L8.05037 3.55127L2.58771 6.08751ZM14.0129 8.5C14.0129 8.22386 13.789 8 13.5129 8C13.2367 8 13.0129 8.22386 13.0129 8.5V10.4C13.0129 10.6761 13.2367 10.9 13.5129 10.9C13.789 10.9 14.0129 10.6761 14.0129 10.4V8.5Z" fill="black"/>
</svg>
