<svg width="16" height="16" viewBox="0 0 16 16" fill="none" xmlns="http://www.w3.org/2000/svg">
<path fill-rule="evenodd" clip-rule="evenodd" d="M5.5 3.5C5.5 2.39543 6.39543 1.5 7.5 1.5C8.579 1.5 9.45843 2.35445 9.49857 3.42363H9.88108C10.1572 3.42363 10.3811 3.64749 10.3811 3.92363C10.3811 4.19978 10.1572 4.42363 9.88108 4.42363H9.5V4.92363H9.88108C10.1572 4.92363 10.3811 5.14749 10.3811 5.42363C10.3811 5.69978 10.1572 5.92363 9.88108 5.92363H9.5V6.42363H9.88108C10.1572 6.42363 10.3811 6.64749 10.3811 6.92363C10.3811 7.19978 10.1572 7.42363 9.88108 7.42363H9.5V8.12741C10.4059 8.75921 11 9.81001 11 11C11 12.933 9.433 14.5 7.5 14.5C5.567 14.5 4 12.933 4 11C4 9.81001 4.59414 8.75921 5.5 8.12741V3.5ZM8.5 5.47993V6.86733C8.49793 6.88581 8.49687 6.9046 8.49687 6.92363C8.49687 6.94267 8.49793 6.96145 8.5 6.97993V8.34367C8.5 8.55983 8.61535 8.75244 8.79102 8.85862C9.51669 9.29725 10 10.0924 10 11C10 12.3807 8.88071 13.5 7.5 13.5C6.11929 13.5 5 12.3807 5 11C5 10.0924 5.48331 9.29725 6.20898 8.85862C6.38465 8.75244 6.5 8.55983 6.5 8.34367V3.5C6.5 2.94771 6.94771 2.5 7.5 2.5C8.05228 2.5 8.5 2.94772 8.5 3.5V3.86733C8.49793 3.88581 8.49687 3.9046 8.49687 3.92363C8.49687 3.94267 8.49793 3.96145 8.5 3.97993V5.36733C8.49793 5.38581 8.49687 5.4046 8.49687 5.42363C8.49687 5.44267 8.49793 5.46145 8.5 5.47993ZM7 11C7 10.7239 6.77614 10.5 6.5 10.5C6.22386 10.5 6 10.7239 6 11C6 11.2372 6.09988 11.5876 6.31188 11.8844C6.54052 12.2045 6.92982 12.5 7.5 12.5C7.77614 12.5 8 12.2761 8 12C8 11.7239 7.77614 11.5 7.5 11.5C7.32018 11.5 7.20948 11.4205 7.12562 11.3031C7.08056 11.24 7.04691 11.169 7.02512 11.1036C7.0059 11.0459 7.00132 11.0094 7.00029 11.0012C7.00005 10.9993 7 10.9989 7 11Z" fill="black"/>
</svg>
