<svg width="16" height="16" viewBox="0 0 16 16" fill="none" xmlns="http://www.w3.org/2000/svg">
<path d="M10.0322 9.99994C10.5032 9.52911 10.5032 8.7658 10.0322 8.29498C9.56152 7.82415 8.7981 7.82415 8.32739 8.29498C7.85645 8.7658 7.85645 9.52911 8.32739 9.99994C8.7981 10.4708 9.56152 10.4708 10.0322 9.99994Z" fill="black"/>
<path fill-rule="evenodd" clip-rule="evenodd" d="M1.10547 2.17047C0.742189 2.53375 0.713136 3.11319 1.03858 3.51083L1.97046 4.64978C2.20484 4.93621 2.52173 5.1123 2.8562 5.1745L5.47315 7.79162C5.35034 8.04297 5.25635 8.29632 5.19409 8.54553C5.01733 9.25323 5.07959 10.0227 5.60571 10.5488C5.83423 10.7772 6.14209 10.9478 6.46973 11.0665C6.66748 11.1381 6.82642 11.3285 6.86401 11.5489C6.96411 12.1359 7.22681 12.6866 7.66528 13.125C9.0061 14.4659 11.2781 14.1423 12.7253 12.6951C14.1724 11.2479 14.4959 8.97607 13.155 7.63519C12.7156 7.19574 12.1633 6.93286 11.5745 6.83325C11.438 6.81018 11.313 6.74041 11.2205 6.64361C11.1636 6.58416 11.1189 6.51452 11.0916 6.43933C10.9729 6.11328 10.803 5.80676 10.5752 5.57922C10.0493 5.0531 9.27979 4.99075 8.57202 5.16772C8.31128 5.23285 8.04614 5.33258 7.78345 5.4638L5.17407 2.85421C5.11157 2.52066 4.93555 2.20434 4.64966 1.97043L3.51074 1.03854C3.11304 0.713223 2.53369 0.742123 2.17041 1.1054L1.10547 2.17047ZM6.45825 6.4317C6.60767 6.28241 6.7627 6.14386 6.92236 6.0169L4.20825 3.30249L4.19946 3.10873C4.19312 2.97128 4.13159 2.83865 4.01636 2.74438L2.87744 1.8125L1.8125 2.87759L2.74439 4.01654C2.83887 4.13198 2.97168 4.19342 3.10962 4.19943L3.30371 4.20791L6.02075 6.9248C6.15381 6.75512 6.30005 6.58996 6.45825 6.4317ZM6.16431 8.78808C6.03272 9.31451 6.13257 9.66156 6.31275 9.84167C6.40601 9.93493 6.57129 10.0396 6.81055 10.1263C7.35889 10.3249 7.75415 10.819 7.84985 11.3807C7.91846 11.7823 8.09326 12.1389 8.37232 12.4179C9.19824 13.2436 10.824 13.1822 12.0181 11.988C13.2124 10.7938 13.2737 9.16803 12.448 8.34228C12.1682 8.06256 11.8105 7.88739 11.4077 7.81927C10.8457 7.72418 10.3511 7.32928 10.1519 6.78112C10.1025 6.64575 10.0476 6.53424 9.99219 6.44616C9.9502 6.37951 9.9082 6.32629 9.86817 6.28631C9.68799 6.10614 9.34107 6.00622 8.81445 6.13781C8.29932 6.26666 7.70068 6.60333 7.16528 7.13879C6.62988 7.67425 6.29321 8.27288 6.16431 8.78808Z" fill="black"/>
</svg>
