<svg width="16" height="16" viewBox="0 0 16 16" fill="none" xmlns="http://www.w3.org/2000/svg">
<path d="M2.98688 4.94538C4.60182 2.84338 6.93372 2.5 7.99997 2.5C9.06619 2.5 11.3981 2.84338 13.013 4.94538C14.3539 6.69065 14.3634 8.39884 14.0531 9.42937C14.402 10.0115 14.5573 10.7299 14.5501 11.3919C14.5422 12.1078 14.3412 12.8742 13.8505 13.3566C13.6536 13.5502 13.337 13.5474 13.1434 13.3505C12.9499 13.1536 12.9526 12.837 13.1495 12.6434C13.3746 12.4221 13.5438 11.9648 13.5501 11.381C13.5564 10.8101 13.4037 10.2316 13.1233 9.83232C13.0105 9.67182 12.9808 9.46408 13.0508 9.27499C13.309 8.57735 13.4265 7.12496 12.22 5.55462C10.8716 3.79957 8.90929 3.5 7.99997 3.5C7.09062 3.5 5.12825 3.79957 3.77986 5.55462C2.57341 7.12493 2.69097 8.57732 2.94922 9.27499C3.01922 9.46408 2.98947 9.67182 2.87674 9.83232C2.59633 10.2316 2.44365 10.8101 2.44989 11.381C2.45626 11.9648 2.62537 12.4221 2.85051 12.6434C3.04744 12.837 3.05015 13.1536 2.85656 13.3505C2.66298 13.5474 2.34641 13.5501 2.14948 13.3566C1.65877 12.8742 1.45777 12.1078 1.44995 11.3919C1.44272 10.7299 1.59804 10.0115 1.94691 9.42937C1.63657 8.39886 1.646 6.69067 2.98688 4.94538Z" fill="black"/>
<path d="M5.86681 8.93247C5.59902 8.89423 5.25261 8.95453 4.85355 9.35359C4.65829 9.54885 4.34171 9.54885 4.14645 9.35359C3.95118 9.15833 3.95118 8.84175 4.14645 8.64648C4.74739 8.04553 5.40098 7.85579 6.00819 7.94252C6.58543 8.02496 7.05421 8.34707 7.35357 8.64646C7.54882 8.84173 7.54881 9.15831 7.35354 9.35357C7.15827 9.54882 6.84168 9.5488 6.64643 9.35353C6.44579 9.15287 6.16457 8.975 5.86681 8.93247Z" fill="black"/>
<path d="M9.35353 9.35347C9.55418 9.15285 9.83541 8.97499 10.1332 8.93247C10.401 8.89423 10.7474 8.95453 11.1465 9.35356C11.3417 9.54882 11.6583 9.54881 11.8536 9.35354C12.0488 9.15827 12.0488 8.84169 11.8535 8.64643C11.2526 8.04552 10.599 7.85581 9.99182 7.94251C9.41459 8.02494 8.94582 8.34701 8.64647 8.64632C8.4512 8.84157 8.45117 9.15815 8.64642 9.35342C8.84167 9.5487 9.15825 9.54872 9.35353 9.35347Z" fill="black"/>
</svg>
