<svg width="16" height="16" viewBox="0 0 16 16" fill="none" xmlns="http://www.w3.org/2000/svg">
<path fill-rule="evenodd" clip-rule="evenodd" d="M9.89656 3.10367C9.67761 2.88472 9.32262 2.88472 9.10367 3.10367L8.40205 3.80528C8.18007 4.02727 7.82016 4.02727 7.59817 3.80528L6.89656 3.10367C6.67761 2.88472 6.32262 2.88472 6.10367 3.10367C5.88472 3.32262 5.88472 3.67761 6.10367 3.89656L6.70711 4.5H8H9.29312L9.89656 3.89656C10.1155 3.67761 10.1155 3.32262 9.89656 3.10367ZM7.5 5.5H4C3.72386 5.5 3.5 5.72386 3.5 6V6.5C3.5 6.77614 3.72386 7 4 7H4.5H6C6.27614 7 6.5 7.22386 6.5 7.5C6.5 7.77614 6.27614 8 6 8H4.5V12.5C4.5 12.7761 4.72386 13 5 13H7.5V5.5ZM8.5 13V8H11.5V12.5C11.5 12.7761 11.2761 13 11 13H8.5ZM8.5 7V5.5H12C12.2761 5.5 12.5 5.72386 12.5 6V6.5C12.5 6.77614 12.2761 7 12 7H11.5H8.5ZM8 14H5C4.17157 14 3.5 13.3284 3.5 12.5V7.91465C2.9174 7.70873 2.5 7.15311 2.5 6.5V6C2.5 5.17157 3.17157 4.5 4 4.5H5.3017C4.78892 3.88685 4.82054 2.97258 5.39656 2.39656C6.00604 1.78708 6.99419 1.78708 7.60367 2.39656L8.00011 2.79301L8.39656 2.39656C9.00604 1.78708 9.99419 1.78708 10.6037 2.39656C11.1797 2.97258 11.2113 3.88685 10.6985 4.5H12C12.8284 4.5 13.5 5.17157 13.5 6V6.5C13.5 7.15311 13.0826 7.70873 12.5 7.91465V12.5C12.5 13.3284 11.8284 14 11 14H8Z" fill="black"/>
</svg>
