<svg width="16" height="16" viewBox="0 0 16 16" fill="none" xmlns="http://www.w3.org/2000/svg">
<path d="M5.5 3.5C5.5 3.22386 5.72386 3 6 3H10C10.2761 3 10.5 3.22386 10.5 3.5V4.5C10.5 4.77614 10.7239 5 11 5C11.2761 5 11.5 4.77614 11.5 4.5V3.5C11.5 2.67157 10.8284 2 10 2H6C5.17157 2 4.5 2.67157 4.5 3.5V4.5C4.5 4.77614 4.72386 5 5 5C5.27614 5 5.5 4.77614 5.5 4.5V3.5Z" fill="black"/>
<path d="M3.5 6C2.94772 6 2.5 6.44772 2.5 7V10.5C2.5 10.7761 2.72386 11 3 11C3.27614 11 3.5 10.7761 3.5 10.5V7H12.5V10.5C12.5 10.7761 12.7239 11 13 11C13.2761 11 13.5 10.7761 13.5 10.5V7C13.5 6.44772 13.0523 6 12.5 6H3.5Z" fill="black"/>
<path d="M9.5 8.5C9.5 8.22386 9.72386 8 10 8H11C11.2761 8 11.5 8.22386 11.5 8.5C11.5 8.77614 11.2761 9 11 9H10C9.72386 9 9.5 8.77614 9.5 8.5Z" fill="black"/>
<path fill-rule="evenodd" clip-rule="evenodd" d="M5.1 10C4.76863 10 4.5 10.2686 4.5 10.6V12C4.5 12.8284 5.17157 13.5 6 13.5H10C10.8284 13.5 11.5 12.8284 11.5 12V10.6C11.5 10.2686 11.2314 10 10.9 10H5.1ZM5.5 12V11H10.5V12C10.5 12.2761 10.2761 12.5 10 12.5H6C5.72386 12.5 5.5 12.2761 5.5 12Z" fill="black"/>
</svg>
