<svg width="16" height="16" viewBox="0 0 16 16" fill="none" xmlns="http://www.w3.org/2000/svg">
<path fill-rule="evenodd" clip-rule="evenodd" d="M7.43975 3.97297C8.2926 3.03484 9.50163 2.5 10.7695 2.5H12.9C13.2314 2.5 13.5 2.76863 13.5 3.1V5.23052C13.5 6.49837 12.9652 7.7074 12.027 8.56025L11.0073 9.48723L11.4753 11.827C11.5284 12.0924 11.3973 12.3604 11.1553 12.4814L9.24472 13.4367C9.16141 13.4783 9.06954 13.5 8.97639 13.5H6.50049H6.5C6.492 13.5 6.484 13.4998 6.47601 13.4994C6.41893 13.4967 6.36223 13.4842 6.30861 13.4621C6.24964 13.4377 6.19439 13.4015 6.14645 13.3536C6.09851 13.3056 6.06234 13.2504 6.03794 13.1914C6.01349 13.1324 6 13.0678 6 13C6 12.992 6.00019 12.984 6.00057 12.976C6.0033 12.9189 6.01575 12.8622 6.03794 12.8086C6.06234 12.7496 6.09851 12.6944 6.14645 12.6464L6.79289 12L4 9.20711L3.35355 9.85355C3.30562 9.90149 3.25036 9.93766 3.19139 9.96206C3.13512 9.9854 3.07366 9.99875 3.00923 9.99992L3 10L2.99077 9.99992C2.92634 9.99875 2.86488 9.9854 2.80861 9.96206C2.74964 9.93766 2.69438 9.90149 2.64645 9.85355C2.59851 9.80561 2.56234 9.75036 2.53794 9.69139C2.51349 9.63244 2.5 9.56779 2.5 9.5V9.49991V7.02361C2.5 6.93046 2.52169 6.83859 2.56334 6.75528L3.51863 4.84471C3.63963 4.6027 3.90764 4.47162 4.17295 4.52469L6.51277 4.99265L7.43975 3.97297ZM7.84514 12.362L10.1444 10.2717L10.4348 11.7236L8.88197 12.5H7.70711L7.84514 12.362ZM3.63803 8.15486L3.5 8.29289V7.11803L4.27642 5.56519L5.7283 5.85556L3.63803 8.15486ZM4.69067 8.48356L7.51644 11.3093L11.3544 7.82031C12.084 7.15698 12.5 6.21663 12.5 5.23052V3.5H10.7695C9.78337 3.5 8.84302 3.91599 8.17969 4.64565L4.69067 8.48356ZM11 6C11 6.55228 10.5523 7 10 7C9.44772 7 9 6.55228 9 6C9 5.44772 9.44772 5 10 5C10.5523 5 11 5.44772 11 6ZM3.35355 11.1464C3.54882 11.3417 3.54882 11.6583 3.35355 11.8536L2.35355 12.8536C2.15829 13.0488 1.84171 13.0488 1.64645 12.8536C1.45118 12.6583 1.45118 12.3417 1.64645 12.1464L2.64645 11.1464C2.84171 10.9512 3.15829 10.9512 3.35355 11.1464ZM4.85355 12.1464C5.04882 12.3417 5.04882 12.6583 4.85355 12.8536L4.35355 13.3536C4.15829 13.5488 3.84171 13.5488 3.64645 13.3536C3.45118 13.1583 3.45118 12.8417 3.64645 12.6464L4.14645 12.1464C4.34171 11.9512 4.65829 11.9512 4.85355 12.1464Z" fill="black"/>
</svg>
