<svg width="16" height="16" viewBox="0 0 16 16" fill="none" xmlns="http://www.w3.org/2000/svg">
<path fill-rule="evenodd" clip-rule="evenodd" d="M3.5 3.5C3.5 2.67157 4.17157 2 5 2H11C11.8284 2 12.5 2.67157 12.5 3.5V4C12.5 4.27614 12.2761 4.5 12 4.5C11.7239 4.5 11.5 4.27614 11.5 4V3.5C11.5 3.22386 11.2761 3 11 3H5C4.72386 3 4.5 3.22386 4.5 3.5V12.5C4.5 12.7761 4.72386 13 5 13H11C11.2761 13 11.5 12.7761 11.5 12.5V12C11.5 11.7239 11.7239 11.5 12 11.5C12.2761 11.5 12.5 11.7239 12.5 12V12.5C12.5 13.3284 11.8284 14 11 14H5C4.17157 14 3.5 13.3284 3.5 12.5V3.5ZM7.25 11C7.25 10.5858 7.58579 10.25 8 10.25C8.41421 10.25 8.75 10.5858 8.75 11C8.75 11.4142 8.41421 11.75 8 11.75C7.58579 11.75 7.25 11.4142 7.25 11ZM9 4C9.27614 4 9.5 4.22386 9.5 4.5C9.5 4.77614 9.27614 5 9 5H7C6.72386 5 6.5 4.77614 6.5 4.5C6.5 4.22386 6.72386 4 7 4H9ZM11.3536 6.64645C11.6133 6.90618 11.8199 7.35133 11.8719 7.81978C11.9262 8.30839 11.8183 8.88879 11.3536 9.35355C11.1583 9.54882 10.8417 9.54882 10.6464 9.35355C10.4512 9.15829 10.4512 8.84171 10.6464 8.64645C10.8483 8.44454 10.9071 8.19161 10.8781 7.93022C10.8468 7.64867 10.72 7.42715 10.6464 7.35355C10.4512 7.15829 10.4512 6.84171 10.6464 6.64645C10.8417 6.45118 11.1583 6.45118 11.3536 6.64645ZM13.7469 7.69478C13.6532 6.85133 13.28 6.07285 12.8536 5.64645C12.6583 5.45118 12.3417 5.45118 12.1464 5.64645C11.9512 5.84171 11.9512 6.15829 12.1464 6.35355C12.3867 6.59382 12.6801 7.14867 12.7531 7.80522C12.8238 8.44161 12.6817 9.11121 12.1464 9.64645C11.9512 9.84171 11.9512 10.1583 12.1464 10.3536C12.3417 10.5488 12.6583 10.5488 12.8536 10.3536C13.6517 9.55546 13.8429 8.55839 13.7469 7.69478Z" fill="black"/>
</svg>
