<svg width="16" height="16" viewBox="0 0 16 16" fill="none" xmlns="http://www.w3.org/2000/svg">
<path fill-rule="evenodd" clip-rule="evenodd" d="M2.5498 2.5C2.27366 2.5 2.0498 2.72386 2.0498 3C2.0498 3.27614 2.27366 3.5 2.5498 3.5H3.50061V12C3.50061 12.5523 3.94833 13 4.50061 13H11.4999C12.0522 13 12.4999 12.5523 12.4999 12V3.5H13.5498C13.8259 3.5 14.0498 3.27614 14.0498 3C14.0498 2.72386 13.8259 2.5 13.5498 2.5H12.4999H3.50061H2.5498ZM11.4999 3.5H4.50061V12H11.4999V3.5ZM8.03202 5.75945C7.4872 5.75945 7.04553 6.20112 7.04553 6.74594C7.04553 7.29076 7.4872 7.73243 8.03202 7.73243C8.57684 7.73243 9.01851 7.29076 9.01851 6.74594C9.01851 6.20112 8.57684 5.75945 8.03202 5.75945ZM6.04553 6.74594C6.04553 5.64883 6.93491 4.75945 8.03202 4.75945C9.12912 4.75945 10.0185 5.64883 10.0185 6.74594C10.0185 7.84305 9.12912 8.73243 8.03202 8.73243C6.93491 8.73243 6.04553 7.84305 6.04553 6.74594ZM7.43738 9.51621C7.16124 9.51621 6.93738 9.74007 6.93738 10.0162C6.93738 10.2924 7.16124 10.5162 7.43738 10.5162H8.62657C8.90271 10.5162 9.12657 10.2924 9.12657 10.0162C9.12657 9.74007 8.90271 9.51621 8.62657 9.51621H7.43738Z" fill="black"/>
</svg>
