<svg width="16" height="16" viewBox="0 0 16 16" fill="none" xmlns="http://www.w3.org/2000/svg">
<path fill-rule="evenodd" clip-rule="evenodd" d="M3.61026 5.52472C2.91219 6.09927 2.5 6.77324 2.5 7.31572C2.5 7.85713 2.91101 8.52535 3.60853 9.09424C4.2964 9.65526 5.11995 9.99993 5.72789 9.99993C6.11221 9.99993 6.36314 9.94531 6.54212 9.87969C6.72335 9.81325 6.85392 9.72814 7.01429 9.6216C7.01868 9.61869 7.0231 9.61575 7.02753 9.6128C7.27589 9.44771 7.59626 9.23475 8.12245 9.23475C8.64864 9.23475 8.96901 9.44771 9.21737 9.6128C9.2218 9.61575 9.22622 9.61869 9.23061 9.6216C9.39098 9.72814 9.52155 9.81325 9.70278 9.87969C9.88176 9.94531 10.1327 9.99993 10.517 9.99993C11.076 9.99993 11.5529 9.90536 11.9821 9.62119C12.2123 9.46874 12.5226 9.5318 12.675 9.76204C12.8275 9.99229 12.7644 10.3025 12.5342 10.455C11.8847 10.885 11.1913 10.9999 10.517 10.9999C10.0335 10.9999 9.66374 10.9305 9.35856 10.8186C9.06086 10.7094 8.84609 10.5667 8.68569 10.4602L8.67728 10.4546C8.44119 10.2977 8.33658 10.2348 8.12245 10.2348C7.90832 10.2348 7.80371 10.2977 7.56762 10.4546L7.55921 10.4602C7.3988 10.5667 7.18404 10.7094 6.88634 10.8186C6.58115 10.9305 6.21138 10.9999 5.72789 10.9999C4.81202 10.9999 3.77163 10.5177 2.9765 9.86918C2.19103 9.22857 1.5 8.30467 1.5 7.31572C1.5 6.32784 2.18985 5.39864 2.97477 4.75261C3.76905 4.09887 4.81006 3.60938 5.72789 3.60938C6.21138 3.60938 6.58115 3.67884 6.88634 3.79072C7.18404 3.89987 7.3988 4.04257 7.55921 4.14915L7.56762 4.15474C7.80371 4.31157 7.90832 4.37456 8.12245 4.37456C8.33658 4.37456 8.44119 4.31157 8.67728 4.15474L8.68569 4.14915C8.84609 4.04257 9.06086 3.89987 9.35856 3.79072C9.66374 3.67884 10.0335 3.60938 10.517 3.60938C12.492 3.60938 14.5 5.18306 14.5 7.5V13C14.5 13.2761 14.2761 13.5 14 13.5C13.7239 13.5 13.5 13.2761 13.5 13V7.5C13.5 5.81694 12.025 4.60938 10.517 4.60938C10.1327 4.60938 9.88176 4.664 9.70278 4.72962C9.52155 4.79606 9.39098 4.88117 9.23061 4.9877C9.22621 4.99062 9.2218 4.99356 9.21736 4.9965C8.96901 5.1616 8.64864 5.37456 8.12245 5.37456C7.59626 5.37456 7.27589 5.1616 7.02753 4.9965C7.0231 4.99356 7.01868 4.99062 7.01429 4.9877C6.85392 4.88117 6.72335 4.79606 6.54212 4.72962C6.36314 4.664 6.11221 4.60938 5.72789 4.60938C5.12191 4.60938 4.29898 4.95787 3.61026 5.52472ZM4.52654 7.31572L4.52863 7.31272C4.58837 7.22709 4.68348 7.11811 4.80842 7.01156C5.06333 6.79415 5.38778 6.63151 5.72789 6.63151C6.068 6.63151 6.39245 6.79415 6.64736 7.01156C6.7723 7.11811 6.86741 7.22709 6.92715 7.31272L6.92924 7.31572L6.92715 7.31873C6.86741 7.40435 6.7723 7.51334 6.64736 7.61989C6.39245 7.83729 6.068 7.99993 5.72789 7.99993C5.38778 7.99993 5.06333 7.83729 4.80842 7.61989C4.68348 7.51334 4.58837 7.40435 4.52863 7.31873L4.52654 7.31572ZM4.15951 6.25069C4.52656 5.93765 5.07286 5.63151 5.72789 5.63151C6.38293 5.63151 6.92922 5.93765 7.29627 6.25069C7.48232 6.40936 7.63599 6.58101 7.74729 6.74055C7.80274 6.82003 7.85266 6.90362 7.89067 6.98736C7.92336 7.05939 7.96939 7.17855 7.96939 7.31572C7.96939 7.45289 7.92336 7.57205 7.89067 7.64409C7.85266 7.72782 7.80274 7.81142 7.74729 7.8909C7.63599 8.05043 7.48232 8.22209 7.29627 8.38076C6.92922 8.69379 6.38293 8.99993 5.72789 8.99993C5.07286 8.99993 4.52656 8.69379 4.15951 8.38076C3.97347 8.22209 3.81979 8.05043 3.70849 7.8909C3.65305 7.81142 3.60313 7.72782 3.56512 7.64409C3.53242 7.57205 3.48639 7.45289 3.48639 7.31572C3.48639 7.17855 3.53242 7.05939 3.56512 6.98736C3.60313 6.90363 3.65305 6.82003 3.70849 6.74055C3.81979 6.58101 3.97347 6.40936 4.15951 6.25069ZM8.94849 6.25064C9.31562 5.93763 9.86199 5.63151 10.517 5.63151C11.1721 5.63151 11.7183 5.93767 12.0853 6.25074C12.2713 6.40942 12.4249 6.58109 12.5361 6.74063C12.5916 6.82011 12.6415 6.90371 12.6794 6.98744C12.7121 7.05948 12.7581 7.17861 12.7581 7.31572C12.7581 7.45284 12.7121 7.57197 12.6794 7.64401C12.6415 7.72773 12.5916 7.81133 12.5361 7.89082C12.4249 8.05036 12.2713 8.22202 12.0853 8.38071C11.7183 8.69378 11.1721 8.99993 10.517 8.99993C9.86199 8.99993 9.31562 8.69381 8.94849 8.38081C8.76241 8.22215 8.60868 8.0505 8.49734 7.89098C8.44187 7.8115 8.39193 7.7279 8.3539 7.64417C8.32119 7.57214 8.27513 7.45294 8.27513 7.31572C8.27513 7.1785 8.32119 7.05931 8.3539 6.98728C8.39193 6.90354 8.44187 6.81994 8.49734 6.74047C8.60868 6.58094 8.76241 6.40929 8.94849 6.25064ZM9.31533 7.31572L9.31736 7.3128C9.37713 7.22716 9.47229 7.11817 9.59728 7.01161C9.85232 6.79417 10.1769 6.63151 10.517 6.63151C10.8571 6.63151 11.1814 6.79413 11.4362 7.01151C11.5611 7.11805 11.6562 7.22702 11.7159 7.31264L11.718 7.31572L11.7159 7.31881C11.6562 7.40443 11.5611 7.5134 11.4362 7.61994C11.1814 7.83731 10.8571 7.99993 10.517 7.99993C10.1769 7.99993 9.85232 7.83728 9.59728 7.61984C9.47229 7.51327 9.37713 7.40428 9.31736 7.31864L9.31533 7.31572Z" fill="black"/>
</svg>
