<svg width="16" height="16" viewBox="0 0 16 16" fill="none" xmlns="http://www.w3.org/2000/svg">
<path d="M3.5007 5.72446C3.50027 5.74905 3.50009 5.77371 3.50009 5.79843H3.5098C3.55551 6.02744 3.75766 6.20001 4.00012 6.20001C4.24258 6.20001 4.44473 6.02744 4.49045 5.79843H4.50009C4.50009 3.97675 5.97687 2.5 7.79852 2.5H8.25009C10.3212 2.5 12.0001 4.17892 12.0001 6.25V6.69067C10.951 6.51245 10.0092 6.66925 9.44089 6.8316C9.17535 6.90747 9.02161 7.1842 9.09747 7.44971C9.17331 7.71527 9.45007 7.86902 9.71558 7.79315C10.2776 7.63257 11.2826 7.48199 12.3319 7.79199C12.5967 7.87024 12.8748 7.71899 12.9531 7.45416C12.9723 7.38898 12.9777 7.323 12.9709 7.2594H13.0001V6.25C13.0001 3.62665 10.8734 1.5 8.25009 1.5H7.79852C5.47427 1.5 3.58093 3.3447 3.50262 5.64987C3.50098 5.66641 3.50012 5.68304 3.50012 5.70001C3.50012 5.70825 3.50031 5.71631 3.5007 5.72446Z" fill="black"/>
<path d="M3.50281 7.2594C3.52383 7.06287 3.66101 6.88928 3.86273 6.83163L3.87881 6.82706C4.49734 6.65027 5.84219 6.26584 7.30179 6.82028C7.53726 6.90973 7.68759 7.13495 7.68759 7.38013V10.081C8.08807 10.1302 8.66263 10.147 9.19131 10.0148C9.45923 9.94781 9.73068 10.1107 9.79767 10.3786C9.86465 10.6465 9.70175 10.918 9.43387 10.9849C8.53879 11.2087 7.59894 11.1012 7.15826 11.0062C6.87344 10.9449 6.68759 10.6932 6.68759 10.4218V7.66852C5.84882 7.42554 5.06616 7.55212 4.50009 7.6944V9.4375C4.50009 11.5085 6.17905 13.1875 8.25009 13.1875C10.3212 13.1875 12.0001 11.5085 12.0001 9.4375V9.01251C12.0001 8.73633 12.224 8.51251 12.5001 8.51251C12.7762 8.51251 13.0001 8.73633 13.0001 9.01251V9.4375C13.0001 12.0609 10.8734 14.1875 8.25009 14.1875C5.62674 14.1875 3.50009 12.0609 3.50009 9.4375V7.32269L3.5 7.31628L3.50009 7.30164V7.2594H3.50281Z" fill="black"/>
</svg>
