<svg width="16" height="16" viewBox="0 0 16 16" fill="none" xmlns="http://www.w3.org/2000/svg">
<path fill-rule="evenodd" clip-rule="evenodd" d="M11.4002 2C11.4002 1.72386 11.6241 1.5 11.9002 1.5C13.4423 1.5 15.0332 2.82297 15.0332 4.63299C15.0332 4.90913 14.8094 5.13299 14.5332 5.13299C14.2571 5.13299 14.0332 4.90913 14.0332 4.63299C14.0332 3.42704 12.9433 2.5 11.9002 2.5C11.6241 2.5 11.4002 2.27614 11.4002 2ZM3.59495 4.96684C3.59495 4.87106 3.64979 4.74219 3.79496 4.62016C3.94116 4.49727 4.11833 4.43527 4.24688 4.43527L10.1382 4.43531C10.4144 4.43531 10.6382 4.21145 10.6382 3.93531C10.6382 3.65917 10.4144 3.43531 10.1382 3.43531L4.24688 3.43527C3.84831 3.43527 3.44951 3.6042 3.15152 3.85466C2.85251 4.10599 2.59495 4.4929 2.59495 4.96684V10.1247C2.59495 10.5986 2.85251 10.9856 3.15152 11.2369C3.44951 11.4874 3.84831 11.6563 4.24688 11.6563H11.7838C12.1801 11.6563 12.5845 11.4892 12.8888 11.2426C13.1928 10.9961 13.4687 10.6085 13.4687 10.1247V6.51424C13.4687 6.2381 13.2448 6.01424 12.9687 6.01424C12.6926 6.01424 12.4687 6.2381 12.4687 6.51424V10.1247C12.4687 10.2106 12.4157 10.3388 12.2591 10.4657C12.1028 10.5924 11.9148 10.6563 11.7838 10.6563H4.24688C4.11833 10.6563 3.94116 10.5943 3.79496 10.4714C3.64979 10.3494 3.59495 10.2205 3.59495 10.1247V4.96684ZM2.5 12.5C2.22386 12.5 2 12.7238 2 13C2 13.2761 2.22386 13.5 2.5 13.5H13.5C13.7761 13.5 14 13.2761 14 13C14 12.7238 13.7761 12.5 13.5 12.5H2.5ZM11.9 3.34311C11.6239 3.34311 11.4 3.56697 11.4 3.84311C11.4 4.11925 11.6239 4.34311 11.9 4.34311C12.012 4.34311 12.0811 4.37797 12.117 4.41123C12.1467 4.43872 12.1899 4.49726 12.1899 4.63301C12.1899 4.90915 12.4138 5.13301 12.6899 5.13301C12.9661 5.13301 13.1899 4.90915 13.1899 4.63301C13.1899 4.25173 13.0536 3.91532 12.7961 3.67713C12.5448 3.44469 12.2189 3.34311 11.9 3.34311Z" fill="black"/>
</svg>
