<svg width="16" height="16" viewBox="0 0 16 16" fill="none" xmlns="http://www.w3.org/2000/svg">
<path fill-rule="evenodd" clip-rule="evenodd" d="M13.3536 2.6466C12.6061 1.89905 11.3941 1.89905 10.6465 2.6466L8.85771 4.43542L4.67344 3.18014C4.17904 3.03182 3.64311 3.14812 3.25466 3.48802L2.43101 4.20871C2.14273 4.46095 2.16143 4.91507 2.46948 5.14276L5.73599 7.55714L4.29298 9.00015H3.04151C2.88238 9.00015 2.72976 9.06336 2.61724 9.17589L1.74936 10.0438C1.45183 10.3413 1.545 10.8447 1.92931 11.016L3.90624 11.8974L5.11523 14.1139C5.31492 14.48 5.81796 14.5358 6.09299 14.2223L6.8511 13.3582C6.94713 13.2488 7.00009 13.1081 7.00009 12.9625V11.7161L8.58031 10.129L10.5113 13.1634C10.7174 13.4873 11.1704 13.537 11.4418 13.2656L12.2709 12.4364C12.6561 12.0512 12.8022 11.4875 12.6525 10.9637L11.5617 7.14567L11.8536 6.8538C11.8541 6.85324 11.8547 6.85269 11.8552 6.85214L13.3536 5.35371C14.1012 4.60616 14.1012 3.39415 13.3536 2.6466ZM11.1464 6.14669L12.6465 4.6466C13.0036 4.28958 13.0036 3.71073 12.6465 3.3537C12.2895 2.99668 11.7107 2.99668 11.3536 3.3537L9.56481 5.14253C9.30468 5.40266 8.92273 5.49896 8.57036 5.39325L4.38609 4.13797C4.22129 4.08853 4.04265 4.12729 3.91316 4.24059L3.46355 4.634L6.7039 7.02904C6.99889 7.24708 7.03091 7.67643 6.77153 7.93581L5.00009 9.70726C4.81255 9.89479 4.55819 10.0002 4.29298 10.0002H3.20719L2.86778 10.3396L4.31344 10.9841C4.51373 11.0734 4.67912 11.226 4.78413 11.4186L5.71893 13.1324L6.00009 12.8119V11.7161C6.00009 11.4516 6.10485 11.1979 6.29144 11.0105L7.61501 9.68116C7.62486 9.66931 7.63533 9.6578 7.64645 9.64669L10.8522 6.4409C10.853 6.44012 10.8538 6.43934 10.8546 6.43857L11.1464 6.14669ZM10.7528 7.95458L9.30392 9.40343L11.0873 12.2059L11.5638 11.7293C11.6922 11.6009 11.7409 11.413 11.691 11.2384L10.7528 7.95458Z" fill="black"/>
</svg>
