<svg width="16" height="16" viewBox="0 0 16 16" fill="none" xmlns="http://www.w3.org/2000/svg">
<path fill-rule="evenodd" clip-rule="evenodd" d="M2 2.6C2 2.26863 2.26863 2 2.6 2H4.5C4.77614 2 5 2.22386 5 2.5C5 2.77614 4.77614 3 4.5 3H3V4.5C3 4.77614 2.77614 5 2.5 5C2.22386 5 2 4.77614 2 4.5V2.6ZM2 13.4C2 13.7314 2.26863 14 2.6 14H4.5C4.77614 14 5 13.7761 5 13.5C5 13.2239 4.77614 13 4.5 13H3V11.5C3 11.2239 2.77614 11 2.5 11C2.22386 11 2 11.2239 2 11.5V13.4ZM13.4 2C13.7314 2 14 2.26863 14 2.6V4.5C14 4.77614 13.7761 5 13.5 5C13.2239 5 13 4.77614 13 4.5V3H11.5C11.2239 3 11 2.77614 11 2.5C11 2.22386 11.2239 2 11.5 2H13.4ZM14 13.4C14 13.7314 13.7314 14 13.4 14H11.5C11.2239 14 11 13.7761 11 13.5C11 13.2239 11.2239 13 11.5 13H13V11.5C13 11.2239 13.2239 11 13.5 11C13.7761 11 14 11.2239 14 11.5V13.4ZM5.7 5C5.3134 5 5 5.3134 5 5.7V6.7C5 6.86569 5.13431 7 5.3 7H7V9H5.3C5.13431 9 5 9.13432 5 9.3L5.00001 10.3C5.00001 10.6866 5.31341 11 5.70001 11H6.69999C6.86567 11 6.99998 10.8657 6.99999 10.7L7 9H9V10.7C9 10.8657 9.13432 11 9.3 11H10.3C10.6866 11 11 10.6866 11 10.3L11 9.3C11 9.13432 10.8657 9 10.7 9H9V7H10.7C10.8657 7 11 6.86569 11 6.7V5.7C11 5.3134 10.6866 5 10.3 5H9.3C9.13431 5 9 5.13431 9 5.3V7H7L7 5.3C7 5.13431 6.86568 5 6.7 5H5.7Z" fill="black"/>
</svg>
