<svg width="16" height="16" viewBox="0 0 16 16" fill="none" xmlns="http://www.w3.org/2000/svg">
<path fill-rule="evenodd" clip-rule="evenodd" d="M1.5 4.5C1.77614 4.5 2 4.72386 2 5V5.8823C2.42348 5.03534 3.28931 4.5 4.23624 4.5H6.46904C6.90411 4.5 7.33164 4.61354 7.70939 4.82939L10.3141 6.31781C10.5231 6.4372 10.7595 6.5 11.0002 6.5H12.3086C12.4929 6.5 12.6758 6.53185 12.8493 6.59415L13.9931 7.00493C14.5972 7.22188 15.0001 7.79468 15.0001 8.43656L15 9.03262C15.0016 9.11362 14.9836 9.19617 14.9435 9.2731C14.5512 10.027 13.7719 10.5 12.922 10.5H12.6181C12.3435 10.8069 11.9443 11 11.5001 11C11.0558 11 10.6567 10.8069 10.382 10.5H5.11811C4.84345 10.8069 4.44431 11 4.00006 11C3.55581 11 3.15666 10.8069 2.882 10.5H2.2501C2.12615 10.5 2.00663 10.454 1.9147 10.3708L1.16466 9.69245C1.05986 9.59766 1.00006 9.46294 1.00006 9.32163V7C1.00006 6.9903 1.00033 6.98066 1.00088 6.97109C1.0003 6.96119 1 6.95122 1 6.94118L1 5C1 4.72386 1.22386 4.5 1.5 4.5ZM3.50006 9.5C3.50006 9.77614 3.72392 10 4.00006 10C4.2762 10 4.50006 9.77614 4.50006 9.5C4.50006 9.22386 4.2762 9 4.00006 9C3.72392 9 3.50006 9.22386 3.50006 9.5ZM5.50006 9.5H10.0001C10.0001 8.67157 10.6716 8 11.5001 8C12.3277 8 12.9988 8.67029 13 9.49763C13.4088 9.47273 13.7805 9.25328 14 8.90921L14.0001 8.43656C14 8.21667 13.862 8.0204 13.6551 7.94607L12.5113 7.53529C12.4462 7.51194 12.3777 7.5 12.3086 7.5H2.01023L2.00006 7.50011V9.09968L2.44267 9.5H2.50006C2.50006 8.67157 3.17163 8 4.00006 8C4.82849 8 5.50006 8.67157 5.50006 9.5ZM12.0001 9.5C12.0001 9.22386 11.7762 9 11.5001 9C11.2239 9 11.0001 9.22386 11.0001 9.5C11.0001 9.77614 11.2239 10 11.5001 10C11.7762 10 12.0001 9.77614 12.0001 9.5ZM8.61739 6.5L7.21325 5.69764C6.9866 5.56813 6.73008 5.5 6.46904 5.5H5.00003L5.00046 6.5H8.61739ZM4.00004 5.51867C3.52724 5.59399 3.11295 5.89247 2.89459 6.32918L2.80918 6.5H4.00046L4.00004 5.51867Z" fill="black"/>
</svg>
