<svg width="16" height="16" viewBox="0 0 16 16" fill="none" xmlns="http://www.w3.org/2000/svg">
<path fill-rule="evenodd" clip-rule="evenodd" d="M6.38383 4.85335C7.11311 3.85771 8.47704 3.53473 9.58486 4.12973L11.049 4.91613C11.3721 5.08968 11.5982 5.40149 11.6626 5.76258L12.4346 10.0909C12.491 10.4071 12.4422 10.733 12.2957 11.0188L12.2805 11.0485C11.9455 11.7017 11.1922 11.9784 10.5372 11.7561C9.82894 12.3347 8.83219 12.4229 8.03119 11.9874C7.09874 12.6362 5.81838 12.5763 4.94777 11.7928L3.29961 10.3095C2.98038 10.0222 2.83904 9.58614 2.92899 9.16618L3.62334 5.92443C3.73485 5.40382 4.17605 5.01894 4.70698 4.97912L6.38383 4.85335ZM6.31344 10.3537L7.24853 11.2888C6.7202 11.5387 6.07397 11.461 5.61673 11.0495L3.96858 9.56617C3.91537 9.51828 3.89182 9.44561 3.90681 9.37562L4.60116 6.13387C4.61974 6.0471 4.69328 5.98295 4.78177 5.97632L5.60547 5.91454L5.55165 5.98629C5.04381 6.66342 5.19273 7.62582 5.88148 8.11779C6.49532 8.55624 7.33872 8.47356 7.85573 7.92425L8.67701 7.05163L11.3126 9.6872C11.3257 9.70027 11.3393 9.71247 11.3534 9.7238L11.4502 10.2665C11.4682 10.3674 11.4526 10.4714 11.4058 10.5625L11.3906 10.5922C11.2858 10.7966 11.0469 10.8804 10.8435 10.8032L9.35355 9.31332C9.15829 9.11805 8.84171 9.11805 8.64645 9.31332C8.45118 9.50858 8.45118 9.82516 8.64645 10.0204L9.72763 11.1016C9.33552 11.3212 8.84165 11.3176 8.44639 11.0724L7.02055 9.64657C6.82528 9.45131 6.5087 9.45131 6.31344 9.64657C6.11818 9.84183 6.11818 10.1584 6.31344 10.3537ZM7.10232 5.5782C7.10595 5.5726 7.10949 5.56693 7.11294 5.56118C7.52547 4.87362 8.40531 4.63131 9.11169 5.01071L10.5759 5.7971C10.6297 5.82603 10.6674 5.878 10.6781 5.93818L11.0472 8.00765L9.32114 6.28155C8.95669 5.9171 8.36309 5.92609 8.00985 6.30141L7.12753 7.23888C6.95343 7.42386 6.66942 7.4517 6.46272 7.30406C6.23079 7.13839 6.18064 6.81431 6.35165 6.58629L7.06614 5.63365C7.07957 5.61573 7.09163 5.5972 7.10232 5.5782Z" fill="black"/>
<path d="M2.99328 5.08228C3.03867 4.80989 2.85466 4.55228 2.58228 4.50688C2.30989 4.46148 2.05228 4.64549 2.00688 4.91788L1.50688 7.91788C1.46148 8.19026 1.64549 8.44788 1.91788 8.49328C2.19026 8.53867 2.44788 8.35466 2.49327 8.08228L2.99328 5.08228Z" fill="black"/>
<path d="M12.5118 5.60857C12.4519 5.339 12.6219 5.07191 12.8914 5.01201C13.161 4.95211 13.4281 5.12208 13.488 5.39165L14.488 9.89181C14.5479 10.1614 14.3779 10.4285 14.1084 10.4884C13.8388 10.5483 13.5717 10.3783 13.5118 10.1087L12.5118 5.60857Z" fill="black"/>
</svg>
