<svg width="16" height="16" viewBox="0 0 16 16" fill="none" xmlns="http://www.w3.org/2000/svg">
<path fill-rule="evenodd" clip-rule="evenodd" d="M3.04771 1.50225C3.03201 1.50076 3.01609 1.5 3 1.5C2.72386 1.5 2.5 1.72386 2.5 2V2.1V9.75714V14.1429C2.5 14.419 2.72386 14.6429 3 14.6429C3.27614 14.6429 3.5 14.419 3.5 14.1429V10.3571H6.05162C6.50576 10.3571 6.94638 10.5117 7.30101 10.7954L7.71715 11.1283C8.24909 11.5539 8.91002 11.7857 9.59124 11.7857H12.9C13.2314 11.7857 13.5 11.5171 13.5 11.1857V3.52857C13.5 3.1972 13.2314 2.92857 12.9 2.92857H9.59124C9.1371 2.92857 8.69647 2.77401 8.34185 2.49031L7.9257 2.15739C7.39376 1.73184 6.73283 1.5 6.05162 1.5H3.1C3.08238 1.5 3.06494 1.50076 3.04771 1.50225ZM3.5 2.5V9.35714H6.05162C6.73283 9.35714 7.39376 9.58899 7.9257 10.0145L8.34185 10.3475C8.69647 10.6312 9.1371 10.7857 9.59124 10.7857H12.5V3.92857H9.59124C8.91002 3.92857 8.24909 3.69673 7.71715 3.27118L7.30101 2.93826C6.94638 2.65456 6.50576 2.5 6.05162 2.5H3.5Z" fill="black"/>
</svg>
