<svg width="16" height="16" viewBox="0 0 16 16" fill="none" xmlns="http://www.w3.org/2000/svg">
<path fill-rule="evenodd" clip-rule="evenodd" d="M6 1.5C5.72386 1.5 5.5 1.72386 5.5 2C5.5 2.27614 5.72386 2.5 6 2.5H10C10.2761 2.5 10.5 2.27614 10.5 2C10.5 1.72386 10.2761 1.5 10 1.5H6ZM4.1 3.5H11.9C12.5075 3.5 13 3.99249 13 4.6V13.4C13 14.0075 12.5075 14.5 11.9 14.5H4.1C3.49249 14.5 3 14.0075 3 13.4V4.6C3 3.99249 3.49248 3.5 4.1 3.5ZM4.1 4.5C4.04477 4.5 4 4.54477 4 4.6V13.4C4 13.4552 4.04477 13.5 4.1 13.5H11.9C11.9552 13.5 12 13.4552 12 13.4V4.6C12 4.54477 11.9552 4.5 11.9 4.5H4.1ZM5.49017 5.5001C5.76626 5.49467 5.99448 5.71408 5.99991 5.99017C6.01894 6.95826 6.82307 8 8 8C9.17694 8 9.98106 6.95826 10.0001 5.99017C10.0055 5.71408 10.2337 5.49467 10.5098 5.5001C10.7859 5.50553 11.0053 5.73374 10.9999 6.00983C10.9723 7.41498 9.82307 9 8 9C6.17694 9 5.02773 7.41498 5.0001 6.00983C4.99467 5.73374 5.21408 5.50553 5.49017 5.5001Z" fill="black"/>
</svg>
