<svg width="16" height="16" viewBox="0 0 16 16" fill="none" xmlns="http://www.w3.org/2000/svg">
<path fill-rule="evenodd" clip-rule="evenodd" d="M2.47423 7.65811C2.69884 6.9843 3.27946 5.93109 4.21686 5.05227C5.1465 4.18073 6.40452 3.5 7.99989 3.5C9.59526 3.5 10.8533 4.18073 11.7829 5.05227C12.7203 5.93109 13.3009 6.9843 13.5255 7.65811C13.6129 7.92009 13.896 8.06167 14.158 7.97434C14.42 7.88702 14.5616 7.60386 14.4742 7.34189C14.1988 6.5157 13.5295 5.31891 12.4669 4.32273C11.3965 3.31927 9.90452 2.5 7.99989 2.5C6.09526 2.5 4.60328 3.31927 3.53292 4.32273C2.47033 5.31891 1.80094 6.5157 1.52555 7.34189C1.43823 7.60386 1.57981 7.88702 1.84178 7.97434C2.10375 8.06167 2.38691 7.92009 2.47423 7.65811ZM5.5 8C5.5 6.61929 6.61929 5.5 8 5.5C9.38071 5.5 10.5 6.61929 10.5 8C10.5 9.38071 9.38071 10.5 8 10.5C6.61929 10.5 5.5 9.38071 5.5 8ZM8 4.5C6.067 4.5 4.5 6.067 4.5 8C4.5 9.933 6.067 11.5 8 11.5C9.933 11.5 11.5 9.933 11.5 8C11.5 6.067 9.933 4.5 8 4.5ZM3.6714 10.6232C3.87953 10.4417 4.19538 10.4633 4.37686 10.6714C4.86181 11.2275 6.04178 12.5 8.00001 12.5C9.95823 12.5 11.1382 11.2275 11.6232 10.6714C11.8046 10.4633 12.1205 10.4417 12.3286 10.6232C12.5367 10.8046 12.5583 11.1205 12.3769 11.3286C11.8653 11.9153 10.4266 13.5 8.00001 13.5C5.57345 13.5 4.13475 11.9153 3.62315 11.3286C3.44167 11.1205 3.46327 10.8046 3.6714 10.6232ZM9.5 8C9.5 8.82843 8.82843 9.5 8 9.5C7.17157 9.5 6.5 8.82843 6.5 8C6.5 7.17157 7.17157 6.5 8 6.5C8.20995 6.5 8.40983 6.54313 8.59126 6.62103C8.38579 6.75481 8.24994 6.98654 8.24994 7.25C8.24994 7.66421 8.58573 8 8.99994 8C9.18686 8 9.3578 7.93162 9.48913 7.81851C9.49631 7.87801 9.5 7.93857 9.5 8Z" fill="black"/>
</svg>
