<svg width="16" height="16" viewBox="0 0 16 16" fill="none" xmlns="http://www.w3.org/2000/svg">
<path fill-rule="evenodd" clip-rule="evenodd" d="M8.49187 2.40307C8.3548 1.90275 7.6452 1.90275 7.50813 2.40307L6.25493 6.9772H1.5C1.22386 6.9772 1 7.20106 1 7.4772C1 7.75335 1.22386 7.9772 1.5 7.9772H6.56008C6.83039 7.9772 7.06732 7.79645 7.13875 7.53575L8 4.39222L8.86125 7.53575C8.93268 7.79645 9.16961 7.9772 9.43992 7.9772H14.5C14.7761 7.9772 15 7.75335 15 7.4772C15 7.20106 14.7761 6.9772 14.5 6.9772H9.74508L8.49187 2.40307ZM3.66663 8.99999C3.39048 8.99999 3.16663 9.22384 3.16663 9.49999C3.16663 9.77613 3.39048 9.99999 3.66663 9.99999H5.32564L4.18337 13.22C3.9846 13.7803 4.63423 14.2574 5.10942 13.9001L8.01992 11.7117L11.3826 13.9118C11.8978 14.2488 12.5258 13.684 12.2451 13.1361L10.6386 9.99999H12.3333C12.6094 9.99999 12.8333 9.77613 12.8333 9.49999C12.8333 9.22384 12.6094 8.99999 12.3333 8.99999H9.98424C9.53564 8.99999 9.2457 9.47429 9.45023 9.87354L10.6668 12.2485L8.33244 10.7212C8.12093 10.5828 7.84539 10.5918 7.64337 10.7437L5.56976 12.3029L6.45743 9.80059C6.59597 9.41005 6.30634 8.99999 5.89196 8.99999H3.66663Z" fill="black"/>
</svg>
