<svg width="16" height="16" viewBox="0 0 16 16" fill="none" xmlns="http://www.w3.org/2000/svg">
<path fill-rule="evenodd" clip-rule="evenodd" d="M4.5 2C4.77614 2 5 2.22386 5 2.5L5 4H6.74679C7.42809 4 8.06253 4.34683 8.43033 4.92033L10.4054 8H12.8181C13.6855 8 14.2117 8.95727 13.7467 9.68962L12.5286 11.608C11.9782 12.4749 11.0228 13 9.99599 13H8.80578C8.80547 13 8.80609 13 8.80578 13H3C2.44772 13 2 12.5523 2 12V9.99609C2 9.73088 2.10536 9.47652 2.29289 9.28899C2.48043 9.10145 2.73478 8.99609 3 8.99609V5C3 4.44772 3.44772 4 4 4L4 2.5C4 2.22386 4.22386 2 4.5 2ZM3 9.99609V12L9.99599 12C10.3893 12 10.7669 11.8844 11.0866 11.6765C11.3233 11.5225 11.5283 11.3179 11.6844 11.072L12.9025 9.1536C12.9447 9.08703 12.8969 9 12.8181 9H7.05741C6.49403 9.62775 5.6848 9.99609 4.82476 9.99609H3ZM9.21738 8H7.05741C6.77343 8 6.50284 8.12074 6.31317 8.33208C5.93756 8.75061 5.39798 8.99609 4.82476 8.99609H4V5H6.74679C7.08744 5 7.40466 5.17341 7.58856 5.46016L7.93476 6H5.5C5.22386 6 5 6.22386 5 6.5C5 6.77614 5.22386 7 5.5 7H8.5C8.52469 7 8.54897 6.99821 8.5727 6.99475L9.21738 8Z" fill="black"/>
</svg>
