<svg width="16" height="16" viewBox="0 0 16 16" fill="none" xmlns="http://www.w3.org/2000/svg">
<path fill-rule="evenodd" clip-rule="evenodd" d="M5 2C4.17157 2 3.5 2.67157 3.5 3.5V12.5C3.5 13.3284 4.17157 14 5 14H11C11.8284 14 12.5 13.3284 12.5 12.5V11.5C12.5 11.2239 12.2761 11 12 11C11.7239 11 11.5 11.2239 11.5 11.5V12.5C11.5 12.7761 11.2761 13 11 13H5C4.72386 13 4.5 12.7761 4.5 12.5V3.5C4.5 3.22386 4.72386 3 5 3H11C11.2761 3 11.5 3.22386 11.5 3.5V4.5C11.5 4.77614 11.7239 5 12 5C12.2761 5 12.5 4.77614 12.5 4.5V3.5C12.5 2.67157 11.8284 2 11 2H5ZM8 10.25C7.58579 10.25 7.25 10.5858 7.25 11C7.25 11.4142 7.58579 11.75 8 11.75C8.41421 11.75 8.75 11.4142 8.75 11C8.75 10.5858 8.41421 10.25 8 10.25ZM9.5 4.5C9.5 4.22386 9.27614 4 9 4H7C6.72386 4 6.5 4.22386 6.5 4.5C6.5 4.77614 6.72386 5 7 5H9C9.27614 5 9.5 4.77614 9.5 4.5ZM12.5 6.5C12.5 6.22386 12.2761 6 12 6C11.7239 6 11.5 6.22386 11.5 6.5V7.5H10.5C10.2239 7.5 10 7.72386 10 8C10 8.27614 10.2239 8.5 10.5 8.5H11.5V9.5C11.5 9.77614 11.7239 10 12 10C12.2761 10 12.5 9.77614 12.5 9.5V8.5H13.5C13.7761 8.5 14 8.27614 14 8C14 7.72386 13.7761 7.5 13.5 7.5H12.5V6.5Z" fill="black"/>
</svg>
