<svg width="16" height="16" viewBox="0 0 16 16" fill="none" xmlns="http://www.w3.org/2000/svg">
<path fill-rule="evenodd" clip-rule="evenodd" d="M7.5 2.5C6.54436 2.5 5.98085 2.75604 5.58797 2.9805C5.54019 3.0078 5.5 3.06818 5.5 3.14633V3.96776C6.10248 3.66835 6.78158 3.5 7.5 3.5C8.21842 3.5 8.89752 3.66835 9.5 3.96776V3.14633C9.5 3.06818 9.45981 3.0078 9.41203 2.9805C9.01915 2.75604 8.45564 2.5 7.5 2.5ZM4.5 4.5C4.5 4.54515 4.50599 4.58891 4.51721 4.63052C3.5866 5.45494 3 6.65897 3 8C3 9.34103 3.5866 10.5451 4.51721 11.3695C4.50599 11.4111 4.5 11.4548 4.5 11.5V12.9669C4.5 13.3142 4.67997 13.6441 4.98661 13.8264C5.48924 14.1251 6.24134 14.5 7.5 14.5C8.66834 14.5 9.40174 14.1771 9.90811 13.8878C10.2873 13.6711 10.5 13.2673 10.5 12.8537V11.5C10.5 11.4548 10.494 11.4111 10.4828 11.3695C11.4134 10.5451 12 9.34103 12 8C12 6.65897 11.4134 5.45494 10.4828 4.63052C10.494 4.58891 10.5 4.54515 10.5 4.5V3.14633C10.5 2.73272 10.2873 2.32889 9.90811 2.11223C9.40174 1.82291 8.66834 1.5 7.5 1.5C6.33166 1.5 5.59826 1.82291 5.09189 2.11223C4.71268 2.32889 4.5 2.73272 4.5 3.14633V4.5ZM9.5 12.0322C8.89752 12.3316 8.21842 12.5 7.5 12.5C6.78158 12.5 6.10248 12.3316 5.5 12.0322V12.9669L5.50014 12.9683C5.90255 13.2072 6.47766 13.5 7.5 13.5C8.45564 13.5 9.01915 13.244 9.41203 13.0195C9.45981 12.9922 9.5 12.9318 9.5 12.8537V12.0322ZM7.5 4.5C5.567 4.5 4 6.067 4 8C4 9.933 5.567 11.5 7.5 11.5C9.433 11.5 11 9.933 11 8C11 6.067 9.433 4.5 7.5 4.5ZM13 7C13.2761 7 13.5 7.22386 13.5 7.5V8.5C13.5 8.77614 13.2761 9 13 9C12.7239 9 12.5 8.77614 12.5 8.5V7.5C12.5 7.22386 12.7239 7 13 7ZM8.5 6.5C8.5 6.22386 8.27614 6 8 6C7.72386 6 7.5 6.22386 7.5 6.5V8H7C6.72386 8 6.5 8.22386 6.5 8.5C6.5 8.77614 6.72386 9 7 9H7.9C8.23137 9 8.5 8.73137 8.5 8.4V6.5Z" fill="black"/>
</svg>
