<svg width="16" height="16" viewBox="0 0 16 16" fill="none" xmlns="http://www.w3.org/2000/svg">
<path fill-rule="evenodd" clip-rule="evenodd" d="M6.14645 2.14645C6.34171 1.95118 6.65829 1.95118 6.85355 2.14645L8 3.29289L9.14645 2.14645C9.34171 1.95118 9.65829 1.95118 9.85355 2.14645C10.0488 2.34171 10.0488 2.65829 9.85355 2.85355L8.70711 4L9.85355 5.14645C10.0488 5.34171 10.0488 5.65829 9.85355 5.85355C9.65829 6.04882 9.34171 6.04882 9.14645 5.85355L8 4.70711L6.85355 5.85355C6.65829 6.04882 6.34171 6.04882 6.14645 5.85355C5.95118 5.65829 5.95118 5.34171 6.14645 5.14645L7.29289 4L6.14645 2.85355C5.95118 2.65829 5.95118 2.34171 6.14645 2.14645ZM2.14645 10.8536C1.95118 10.6583 1.95118 10.3417 2.14645 10.1464C3.71662 8.57627 5.83738 7.5 8 7.5C10.1626 7.5 12.2834 8.57627 13.8536 10.1464C14.0488 10.3417 14.0488 10.6583 13.8536 10.8536C13.6583 11.0488 13.3417 11.0488 13.1464 10.8536C11.7166 9.42373 9.83738 8.5 8 8.5C6.16262 8.5 4.28338 9.42373 2.85355 10.8536C2.65829 11.0488 2.34171 11.0488 2.14645 10.8536ZM4.14645 12.3536C3.95118 12.1583 3.95118 11.8417 4.14645 11.6464C5.23283 10.5601 6.49793 10 8 10C9.50207 10 10.7672 10.5601 11.8536 11.6464C12.0488 11.8417 12.0488 12.1583 11.8536 12.3536C11.6583 12.5488 11.3417 12.5488 11.1464 12.3536C10.2328 11.4399 9.21668 11 8 11C6.78332 11 5.76717 11.4399 4.85355 12.3536C4.65829 12.5488 4.34171 12.5488 4.14645 12.3536ZM6.17563 13.1184C5.97201 13.3137 5.93742 13.6445 6.14645 13.8536C6.3416 14.0487 6.65764 14.0491 6.85293 13.8542L6.85215 13.855L6.85879 13.8487C6.86583 13.8421 6.87797 13.8309 6.89485 13.8163C6.92872 13.787 6.98089 13.7442 7.04843 13.6959C7.18548 13.598 7.3752 13.4853 7.59561 13.4118C7.81395 13.3391 8.05237 13.3079 8.30038 13.3575C8.5447 13.4063 8.83331 13.5404 9.14645 13.8536C9.34171 14.0488 9.65829 14.0488 9.85355 13.8536C10.0488 13.6583 10.0488 13.3417 9.85355 13.1464C9.41669 12.7096 8.9553 12.4687 8.4965 12.3769C8.04138 12.2859 7.62355 12.3484 7.27939 12.4632C6.9373 12.5772 6.65827 12.7457 6.46719 12.8822C6.3223 12.9857 6.22254 13.0745 6.17563 13.1184Z" fill="black"/>
</svg>
