<svg width="16" height="16" viewBox="0 0 16 16" fill="none" xmlns="http://www.w3.org/2000/svg">
<path fill-rule="evenodd" clip-rule="evenodd" d="M2.58535 7C2.79127 6.4174 3.34689 6 4 6H6C6.65311 6 7.20873 6.4174 7.41465 7H8.58535C8.79127 6.4174 9.34689 6 10 6H12C12.6531 6 13.2087 6.4174 13.4146 7H14C14.2761 7 14.5 7.22386 14.5 7.5C14.5 7.77614 14.2761 8 14 8H13.5V8.6C13.5 9.64934 12.6493 10.5 11.6 10.5H10.4C9.35066 10.5 8.5 9.64934 8.5 8.6V8H7.5V8.6C7.5 9.64934 6.64934 10.5 5.6 10.5H4.4C3.35066 10.5 2.5 9.64934 2.5 8.6V8H2C1.72386 8 1.5 7.77614 1.5 7.5C1.5 7.22386 1.72386 7 2 7H2.58535ZM4 7C3.72386 7 3.5 7.22386 3.5 7.5V8.6C3.5 9.09706 3.90294 9.5 4.4 9.5H5.6C6.09706 9.5 6.5 9.09706 6.5 8.6V7.5C6.5 7.22386 6.27614 7 6 7H4ZM10 7C9.72386 7 9.5 7.22386 9.5 7.5V8.6C9.5 9.09706 9.90294 9.5 10.4 9.5H11.6C12.0971 9.5 12.5 9.09706 12.5 8.6V7.5C12.5 7.22386 12.2761 7 12 7H10Z" fill="black"/>
</svg>
