<svg width="16" height="16" viewBox="0 0 16 16" fill="none" xmlns="http://www.w3.org/2000/svg">
<path fill-rule="evenodd" clip-rule="evenodd" d="M1.5 6.65799C1.5 4.41688 3.31678 2.6001 5.55789 2.6001H5.68882C7.85762 2.6001 9.61579 4.35826 9.61579 6.52706V7.0446C9.61579 7.576 9.51439 8.10251 9.31704 8.5959C9.11511 9.10072 8.8613 9.58321 8.55971 10.0356L8.34165 10.3627C8.10172 10.7226 7.97368 11.1455 7.97368 11.578C7.97368 12.9157 6.88928 14.0001 5.55159 14.0001H5.45179C4.16676 14.0001 3.08723 13.0339 2.94532 11.7567L2.87148 11.0922C2.84098 10.8177 3.03875 10.5705 3.31321 10.54C3.58766 10.5095 3.83487 10.7073 3.86536 10.9817L3.9392 11.6463C4.02484 12.417 4.67631 13.0001 5.45179 13.0001H5.55159C6.33699 13.0001 6.97368 12.3634 6.97368 11.578C6.97368 10.948 7.16016 10.3322 7.5096 9.80799L7.72766 9.48091C7.99085 9.08611 8.21234 8.66506 8.38856 8.22451C8.53867 7.84924 8.61579 7.44878 8.61579 7.0446V6.52706C8.61579 4.91055 7.30534 3.6001 5.68882 3.6001H5.55789C3.86907 3.6001 2.5 4.96916 2.5 6.65799V6.8051C2.5 7.08124 2.27614 7.3051 2 7.3051C1.72386 7.3051 1.5 7.08124 1.5 6.8051V6.65799ZM5.55787 5.78956C5.09289 5.78956 4.68945 6.22646 4.68945 6.65798C4.68945 6.92226 4.74455 7.11362 4.82056 7.25846C4.8993 7.40851 4.99116 7.55895 5.09314 7.72378L5.11693 7.7622L5.11694 7.76222C5.20959 7.91183 5.31024 8.07437 5.40136 8.24044C5.59948 8.60153 5.78419 9.03343 5.78419 9.53616V9.94219C5.78419 10.2183 5.56033 10.4422 5.28419 10.4422C5.00805 10.4422 4.78419 10.2183 4.78419 9.94219V9.53616C4.78419 9.28134 4.69172 9.02595 4.52465 8.72145C4.44679 8.57955 4.35962 8.43873 4.26407 8.28437L4.24274 8.24992C4.14177 8.08672 4.03234 7.90849 3.93507 7.72313C3.77712 7.42213 3.68945 7.06902 3.68945 6.65798C3.68945 5.70389 4.51135 4.78956 5.55787 4.78956C6.6044 4.78956 7.4263 5.70389 7.4263 6.65798C7.4263 6.93413 7.20244 7.15798 6.9263 7.15798C6.65015 7.15798 6.4263 6.93413 6.4263 6.65798C6.4263 6.22646 6.02286 5.78956 5.55787 5.78956ZM11.1115 4.04654C10.9162 3.85128 10.5996 3.85128 10.4044 4.04654C10.2091 4.24181 10.2091 4.55839 10.4044 4.75365L11.6929 6.0422L10.4044 7.33075C10.2091 7.52602 10.2091 7.8426 10.4044 8.03786C10.5996 8.23312 10.9162 8.23312 11.1115 8.03786L12.4 6.74931L13.6886 8.03786C13.8839 8.23312 14.2004 8.23312 14.3957 8.03786C14.591 7.8426 14.591 7.52602 14.3957 7.33075L13.1071 6.0422L14.3957 4.75365C14.591 4.55839 14.591 4.24181 14.3957 4.04654C14.2004 3.85128 13.8839 3.85128 13.6886 4.04654L12.4 5.3351L11.1115 4.04654Z" fill="black"/>
</svg>
