<svg width="16" height="16" viewBox="0 0 16 16" fill="none" xmlns="http://www.w3.org/2000/svg">
<path d="M10.8536 5.64645C11.0488 5.84171 11.0488 6.15829 10.8536 6.35355L7.92426 9.28284C7.68995 9.51716 7.31005 9.51716 7.07574 9.28284L5.64645 7.85355C5.45118 7.65829 5.45118 7.34171 5.64645 7.14645C5.84171 6.95118 6.15829 6.95118 6.35355 7.14645L7.5 8.29289L10.1464 5.64645C10.3417 5.45118 10.6583 5.45118 10.8536 5.64645Z" fill="black"/>
<path fill-rule="evenodd" clip-rule="evenodd" d="M4 2C3.44772 2 3 2.44772 3 3V8.65594C3 8.94027 3.02597 9.22402 3.07759 9.50363L3.12634 9.76769C3.3643 11.0566 4.13555 12.1851 5.25 12.875L7.49127 14.1994C7.80508 14.3848 8.19492 14.3848 8.50873 14.1994L10.75 12.875C11.8645 12.1851 12.6357 11.0566 12.8737 9.76769L12.9224 9.50363C12.974 9.22402 13 8.94027 13 8.65594V3C13 2.44772 12.5523 2 12 2H4ZM4 8.65594C4 8.87938 4.02041 9.10235 4.06097 9.32208L4.10972 9.58614C4.29589 10.5945 4.89795 11.4778 5.76814 12.0196L8 13.3385L10.2319 12.0196C11.102 11.4778 11.7041 10.5945 11.8903 9.58614L11.939 9.32208C11.9796 9.10235 12 8.87938 12 8.65594V3L4 3V8.65594Z" fill="black"/>
</svg>
