<svg width="16" height="16" viewBox="0 0 16 16" fill="none" xmlns="http://www.w3.org/2000/svg">
<path fill-rule="evenodd" clip-rule="evenodd" d="M14.9067 1.22945C15.102 1.42471 15.102 1.7413 14.9067 1.93656L10.7499 6.09346C10.5546 6.28872 10.238 6.28873 10.0428 6.09346C9.84749 5.8982 9.84749 5.58162 10.0427 5.38636L14.1996 1.22946C14.3949 1.03419 14.7115 1.03419 14.9067 1.22945ZM5.75 6.90168C3.95507 6.90168 2.5 8.35675 2.5 10.1517C2.5 11.9466 3.95507 13.4017 5.75 13.4017C7.54493 13.4017 9 11.9466 9 10.1517C9 8.35675 7.54493 6.90168 5.75 6.90168ZM1.5 10.1517C1.5 7.80447 3.40279 5.90168 5.75 5.90168C8.09721 5.90168 10 7.80447 10 10.1517C10 12.4989 8.09721 14.4017 5.75 14.4017C3.40279 14.4017 1.5 12.4989 1.5 10.1517ZM11.2453 2.43212C11.4405 2.23685 11.4405 1.92027 11.2453 1.72501C11.05 1.52975 10.7334 1.52975 10.5381 1.72502L8.16283 4.10039C7.96757 4.29566 7.96757 4.61224 8.16284 4.8075C8.3581 5.00276 8.67468 5.00276 8.86994 4.80749L11.2453 2.43212ZM14.4112 5.59811C14.6065 5.40284 14.6065 5.08626 14.4112 4.891C14.216 4.69574 13.8994 4.69574 13.7041 4.89101L11.3288 7.26638C11.1336 7.46165 11.1336 7.77823 11.3288 7.97349C11.5241 8.16875 11.8407 8.16875 12.0359 7.97348L14.4112 5.59811Z" fill="black"/>
</svg>
