<svg width="16" height="16" viewBox="0 0 16 16" fill="none" xmlns="http://www.w3.org/2000/svg">
<path fill-rule="evenodd" clip-rule="evenodd" d="M8.70669 2.64853C5.58529 2.72838 4.16162 4.48423 3.5321 5.53353C3.10359 6.24777 3.00827 7.03019 3.00026 7.61699C2.99649 7.89311 3.21727 8.12 3.49338 8.12377C3.7695 8.12754 3.99639 7.90676 4.00016 7.63064C4.00706 7.12572 4.09069 6.54624 4.38961 6.04799C4.91412 5.17374 6.07123 3.71627 8.73226 3.64821C10.214 3.6103 11.652 3.97776 12.6977 4.36777C12.996 4.47903 13.2589 4.5908 13.4781 4.69329C12.994 5.03925 12.5652 5.5346 12.1808 6.05504C11.7213 6.67709 11.2696 7.4169 10.8287 8.13888C10.6729 8.3941 10.5184 8.64713 10.3654 8.89191C9.44818 10.3594 8.50874 10.8411 7.69488 10.9141C6.84787 10.9901 6.0084 10.637 5.28748 10.1778L5.19653 10.1202C5.11544 10.0689 5.0163 10.0063 4.91706 9.94181C4.86237 9.90628 4.81317 9.87371 4.77096 9.84516C5.521 8.73198 6.70434 7.62667 8.4548 6.96768C8.71323 6.87038 8.84386 6.58201 8.74657 6.32357C8.64928 6.06514 8.3609 5.93451 8.10247 6.0318C5.93948 6.8461 4.53365 8.27505 3.70216 9.66301C3.28721 10.3557 3.01292 11.0417 2.85797 11.6428C2.70637 12.2308 2.65806 12.7804 2.73915 13.1858C2.79331 13.4566 3.05672 13.6322 3.3275 13.578C3.59828 13.5239 3.77388 13.2605 3.71973 12.9897C3.68059 12.794 3.69239 12.4119 3.82631 11.8924C3.91836 11.5353 4.06313 11.1332 4.26895 10.7126C4.30431 10.7361 4.33926 10.7589 4.37229 10.7804C4.47701 10.8484 4.58652 10.9176 4.66887 10.9697L4.75028 11.0213C5.54405 11.5268 6.61305 12.0152 7.78424 11.9101C8.98857 11.8021 10.177 11.0801 11.2134 9.42191C11.3803 9.15489 11.5433 8.88789 11.7041 8.62459C12.1373 7.91534 12.554 7.23287 12.9852 6.64916C13.5889 5.83174 14.1224 5.3526 14.6136 5.23827C14.6987 5.21845 14.9202 5.13795 14.994 4.87861C15.0545 4.66619 14.9593 4.50291 14.9366 4.46524C14.877 4.36645 14.7922 4.29852 14.7585 4.2718C14.6642 4.19693 14.5308 4.11363 14.3794 4.02948C14.0682 3.85656 13.6087 3.64026 13.0471 3.43081C11.9269 3.013 10.3571 2.60632 8.70669 2.64853Z" fill="black"/>
</svg>
