<svg width="16" height="16" viewBox="0 0 16 16" fill="none" xmlns="http://www.w3.org/2000/svg">
<path fill-rule="evenodd" clip-rule="evenodd" d="M1.5 13.0789C1.22386 13.0789 1 12.8551 1 12.5789V3C1 2.72386 1.22386 2.5 1.5 2.5H14.5C14.7761 2.5 15 2.72386 15 3V12.5789C15 12.8551 14.7761 13.0789 14.5 13.0789H1.5ZM2 12.0789H14V3.5H2V12.0789ZM6.85712 6.76029L9.3074 10.1907C9.4679 10.4154 9.78018 10.4674 10.0049 10.3069C10.2296 10.1464 10.2816 9.83414 10.1211 9.60943L7.34536 5.72336C7.10607 5.38835 6.60818 5.38834 6.36888 5.72336L3.59311 9.60943C3.43261 9.83414 3.48465 10.1464 3.70936 10.3069C3.93406 10.4674 4.24634 10.4154 4.40684 10.1907L6.85712 6.76029ZM9.42018 6.35283C9.6435 6.19041 9.95621 6.23978 10.1186 6.46311L12.4043 9.60597C12.5668 9.82929 12.5174 10.142 12.2941 10.3044C12.0707 10.4668 11.758 10.4175 11.5956 10.1941L9.3099 7.05128C9.14748 6.82796 9.19685 6.51525 9.42018 6.35283ZM11.4895 5.63512C11.4895 5.35408 11.7173 5.12624 11.9984 5.12624C12.2794 5.12624 12.5073 5.35408 12.5073 5.63512C12.5073 5.91617 12.2794 6.14401 11.9984 6.14401C11.7173 6.14401 11.4895 5.91617 11.4895 5.63512Z" fill="black"/>
</svg>
