<svg width="16" height="16" viewBox="0 0 16 16" fill="none" xmlns="http://www.w3.org/2000/svg">
<path fill-rule="evenodd" clip-rule="evenodd" d="M7.16259 2.5676C7.46133 1.80559 8.53967 1.8056 8.83841 2.5676L10.0052 5.54377L13.6979 5.93624C14.4937 6.02081 14.7916 7.02411 14.1709 7.52924L11.5869 9.63224L12.3866 12.8717C12.5765 13.6407 11.7519 14.2623 11.0648 13.868L8.0005 12.1093L4.93615 13.868C4.24911 14.2623 3.42454 13.6407 3.6144 12.8717L4.41413 9.63224L1.83008 7.52924C1.2094 7.02411 1.50729 6.02081 2.30306 5.93624L5.99579 5.54377L7.16259 2.5676ZM8.0005 3.17007L6.9268 5.90877C6.79064 6.2561 6.47245 6.49875 6.10148 6.53817L2.64759 6.90525L5.04534 8.85663C5.34544 9.10085 5.47771 9.49628 5.38498 9.87191L4.64134 12.8842L7.50274 11.242C7.811 11.0651 8.19 11.0651 8.49826 11.242L11.3597 12.8842L10.616 9.87191C10.5233 9.49628 10.6556 9.10085 10.9557 8.85663L13.3534 6.90525L9.89952 6.53817C9.52855 6.49875 9.21036 6.2561 9.0742 5.90877L8.0005 3.17007Z" fill="black"/>
</svg>
