<svg width="16" height="16" viewBox="0 0 16 16" fill="none" xmlns="http://www.w3.org/2000/svg">
<path fill-rule="evenodd" clip-rule="evenodd" d="M9.23485 2.94023V7.01587L11.7968 4.98988L9.23485 2.94023ZM8.23485 6.91279V2.10796C8.23485 1.60485 8.81682 1.32515 9.20967 1.63945L12.8142 4.52318C13.1155 4.76425 13.1142 5.22296 12.8115 5.46232L9.6061 7.99717L12.8116 10.5321C13.1141 10.7713 13.1156 11.2297 12.8147 11.4709L9.21007 14.3598C8.8173 14.6746 8.23485 14.3949 8.23485 13.8916V9.08156L5.31016 11.3944C5.09356 11.5657 4.77912 11.5289 4.60783 11.3123C4.43654 11.0957 4.47328 10.7813 4.68988 10.61L7.99394 7.99717L4.68988 5.38434C4.47328 5.21305 4.43654 4.89861 4.60783 4.68201C4.77912 4.46541 5.09356 4.42867 5.31016 4.59996L8.23485 6.91279ZM9.23485 8.97848V13.0584L11.7972 11.0048L9.23485 8.97848Z" fill="black"/>
</svg>
