<svg width="16" height="16" viewBox="0 0 16 16" fill="none" xmlns="http://www.w3.org/2000/svg">
<path d="M6 8.5C5.72386 8.5 5.5 8.72386 5.5 9C5.5 9.27614 5.72386 9.5 6 9.5H6.47619C6.75233 9.5 6.97619 9.27614 6.97619 9C6.97619 8.72386 6.75233 8.5 6.47619 8.5H6Z" fill="black"/>
<path d="M9.52381 8.5C9.24767 8.5 9.02381 8.72386 9.02381 9C9.02381 9.27614 9.24767 9.5 9.52381 9.5H10C10.2761 9.5 10.5 9.27614 10.5 9C10.5 8.72386 10.2761 8.5 10 8.5H9.52381Z" fill="black"/>
<path fill-rule="evenodd" clip-rule="evenodd" d="M12 12.9V10.5H13.4C13.7314 10.5 14 10.2314 14 9.9V6C14 4.067 12.433 2.5 10.5 2.5H10.0481C9.86579 2.5 9.6934 2.58285 9.57954 2.72518L8 4.69961L6.42046 2.72518C6.3066 2.58285 6.13421 2.5 5.95194 2.5H5.5C3.567 2.5 2 4.067 2 6V9.9C2 10.2314 2.26863 10.5 2.6 10.5H4V12.9C4 13.2314 4.26863 13.5 4.6 13.5H11.4C11.7314 13.5 12 13.2314 12 12.9ZM3 6C3 4.61929 4.11929 3.5 5.5 3.5H5.75969L7.5 5.67539V12.5H5V6.5C5 6.22386 4.77614 6 4.5 6C4.22386 6 4 6.22386 4 6.5V9.5H3V6ZM8.5 12.5V5.67539L10.2403 3.5H10.5C11.8807 3.5 13 4.61929 13 6V9.5H12V6.5C12 6.22386 11.7761 6 11.5 6C11.2239 6 11 6.22386 11 6.5V12.5H8.5Z" fill="black"/>
</svg>
