<svg width="16" height="16" viewBox="0 0 16 16" fill="none" xmlns="http://www.w3.org/2000/svg">
<path fill-rule="evenodd" clip-rule="evenodd" d="M2 8C2 4.68629 4.68629 2 8 2C11.3137 2 14 4.68629 14 8C14 8.05142 13.9979 8.10271 13.9936 8.15394C12.9978 8.19584 11.258 8.58491 9.92145 9.92145C8.54803 11.2949 8.3056 13.0077 8.20172 13.9895C8.13465 13.9965 8.06742 14 8 14C4.68629 14 2 11.3137 2 8ZM10.6286 10.6286C11.5759 9.68119 12.7886 9.30135 13.6329 9.18891C13.5661 9.30188 13.4906 9.41636 13.4066 9.53294C13.016 10.075 12.4788 10.6141 11.8714 11.2214C11.6732 11.4197 11.4793 11.6227 11.2857 11.8253L11.2856 11.8253L11.2856 11.8253C10.8591 12.2717 10.4345 12.7161 9.97023 13.1033C9.73058 13.3032 9.49386 13.4753 9.25815 13.6139C9.3894 12.7083 9.68069 11.5764 10.6286 10.6286ZM8 1C4.13401 1 1 4.13401 1 8C1 11.866 4.13401 15 8 15C9.01249 15 9.88222 14.4788 10.6107 13.8713C11.1199 13.4467 11.6115 12.9325 12.0555 12.468L12.0556 12.468C12.2387 12.2765 12.4137 12.0934 12.5786 11.9286L12.5967 11.9104C13.1829 11.3243 13.7755 10.7317 14.218 10.1175C14.6691 9.49128 15 8.79549 15 8C15 4.13401 11.866 1 8 1ZM9.39437 5.05491C9.21084 4.81021 8.86369 4.76062 8.61898 4.94415C8.37428 5.12767 8.32469 5.47483 8.50821 5.71953C8.98633 6.35702 9.22821 7.1633 9.22821 8.15645C9.22821 8.34694 9.45595 8.47087 9.61702 8.36918C9.79171 8.25889 9.97373 8.15916 10.1622 8.07087C10.265 8.02269 10.3329 7.9196 10.3271 7.80617C10.2724 6.7345 9.96291 5.81298 9.39437 5.05491ZM6.42869 6.03409C6.6832 5.86441 7.02706 5.93319 7.19673 6.1877C7.62395 6.82852 7.8436 7.48746 7.8436 8.15645C7.8436 8.82544 7.62395 9.48439 7.19673 10.1252C7.02706 10.3797 6.6832 10.4485 6.42869 10.2788C6.17418 10.1091 6.10541 9.76528 6.27508 9.51077C6.58632 9.04391 6.73591 8.59516 6.73591 8.15645C6.73591 7.71775 6.58632 7.269 6.27508 6.80213C6.10541 6.54762 6.17418 6.20376 6.42869 6.03409ZM4.65898 9.12568C5.04133 9.12568 5.35129 8.69174 5.35129 8.15645C5.35129 7.62116 5.04133 7.18722 4.65898 7.18722C4.27663 7.18722 3.96667 7.62116 3.96667 8.15645C3.96667 8.69174 4.27663 9.12568 4.65898 9.12568Z" fill="black"/>
</svg>
