<svg width="16" height="16" viewBox="0 0 16 16" fill="none" xmlns="http://www.w3.org/2000/svg">
<path fill-rule="evenodd" clip-rule="evenodd" d="M3.5 4.5H12.5C12.7761 4.5 13 4.72386 13 5V5.22563L8.00006 8.40741L3 5.22555V5C3 4.72386 3.22386 4.5 3.5 4.5ZM2 5.49963C2 5.4996 2 5.49958 2 5.49955V5C2 4.17157 2.67157 3.5 3.5 3.5H12.5C13.3284 3.5 14 4.17157 14 5V5.48836C14.0002 5.49585 14.0002 5.50334 14 5.51082V11C14 11.8284 13.3284 12.5 12.5 12.5H3.5C2.67157 12.5 2 11.8284 2 11V5.49963ZM13 6.41094V11C13 11.2761 12.7761 11.5 12.5 11.5H3.5C3.22386 11.5 3 11.2761 3 11V6.41086L7.67794 9.38773C7.87448 9.5128 8.12565 9.5128 8.32219 9.38773L13 6.41094Z" fill="black"/>
</svg>
