<svg width="16" height="16" viewBox="0 0 16 16" fill="none" xmlns="http://www.w3.org/2000/svg">
<path d="M11.3895 4.81505C11.0624 4.49129 10.5348 4.49401 10.211 4.82112C10.0847 4.94871 10.0087 5.10545 9.98139 5.26921C9.92107 5.63122 9.5113 5.9205 9.10846 5.71652L6.98666 4.64209C6.59929 4.44594 6.12961 4.52218 5.82416 4.83078L3.46645 7.21289C3.2722 7.40915 2.95562 7.41078 2.75935 7.21653C2.56309 7.02227 2.56146 6.70569 2.75572 6.50943L5.11343 4.12732C5.72431 3.51012 6.66368 3.35765 7.43841 3.74995L9.14907 4.61618C9.2352 4.43609 9.35232 4.26716 9.50029 4.11766C10.2126 3.39802 11.3733 3.39205 12.093 4.10432C12.8126 4.81658 12.8186 5.97737 12.1063 6.69701C11.9584 6.8465 11.7906 6.96537 11.6114 7.05334L12.4952 8.75499C12.8955 9.52565 12.7527 10.4665 12.1418 11.0837L9.78411 13.4658C9.58986 13.6621 9.27328 13.6637 9.07701 13.4695C8.88075 13.2752 8.87912 12.9587 9.07338 12.7624L11.4311 10.3803C11.7365 10.0717 11.8079 9.60123 11.6078 9.21591L10.5116 7.10527C10.3035 6.70456 10.5885 6.29183 10.9499 6.22779C11.1134 6.19881 11.2693 6.12114 11.3956 5.99355C11.7193 5.66644 11.7166 5.13881 11.3895 4.81505Z" fill="black"/>
<path d="M6.28962 6.1773C6.48589 6.37155 6.48752 6.68813 6.29326 6.8844L4.73002 8.46381C4.53577 8.66008 4.21919 8.6617 4.02292 8.46745C3.82666 8.2732 3.82503 7.95662 4.01928 7.76035L5.58252 6.18094C5.77678 5.98467 6.09336 5.98304 6.28962 6.1773Z" fill="black"/>
<path d="M10.0838 10.6359C10.278 10.4396 10.2764 10.123 10.0801 9.92876C9.88388 9.73451 9.56731 9.73614 9.37305 9.9324L7.80981 11.5118C7.61556 11.7081 7.61719 12.0247 7.81345 12.2189C8.00972 12.4132 8.32629 12.4115 8.52055 12.2153L10.0838 10.6359Z" fill="black"/>
<path d="M8.81648 8.67852C9.01274 8.87277 9.01437 9.18935 8.82012 9.38562L7.25688 10.965C7.06262 11.1613 6.74604 11.1629 6.54978 10.9687C6.35352 10.7744 6.35189 10.4578 6.54614 10.2616L8.10938 8.68216C8.30363 8.48589 8.62021 8.48426 8.81648 8.67852Z" fill="black"/>
<path d="M7.55644 8.13488C7.7507 7.93862 7.74907 7.62204 7.55281 7.42779C7.35654 7.23353 7.03996 7.23516 6.84571 7.43143L5.28247 9.01084C5.08821 9.20711 5.08984 9.52368 5.28611 9.71794C5.48237 9.91219 5.79895 9.91056 5.99321 9.7143L7.55644 8.13488Z" fill="black"/>
</svg>
