<svg width="16" height="16" viewBox="0 0 16 16" fill="none" xmlns="http://www.w3.org/2000/svg">
<path fill-rule="evenodd" clip-rule="evenodd" d="M2 2.6C2 2.26863 2.26863 2 2.6 2H4.5C4.77614 2 5 2.22386 5 2.5C5 2.77614 4.77614 3 4.5 3H3V4.5C3 4.77614 2.77614 5 2.5 5C2.22386 5 2 4.77614 2 4.5V2.6ZM2 13.4C2 13.7314 2.26863 14 2.6 14H4.5C4.77614 14 5 13.7761 5 13.5C5 13.2239 4.77614 13 4.5 13H3V11.5C3 11.2239 2.77614 11 2.5 11C2.22386 11 2 11.2239 2 11.5V13.4ZM13.4 2C13.7314 2 14 2.26863 14 2.6V4.5C14 4.77614 13.7761 5 13.5 5C13.2239 5 13 4.77614 13 4.5V3H11.5C11.2239 3 11 2.77614 11 2.5C11 2.22386 11.2239 2 11.5 2H13.4ZM14 13.4C14 13.7314 13.7314 14 13.4 14H11.5C11.2239 14 11 13.7761 11 13.5C11 13.2239 11.2239 13 11.5 13H13V11.5C13 11.2239 13.2239 11 13.5 11C13.7761 11 14 11.2239 14 11.5V13.4ZM6 6C6 5.72386 5.77614 5.5 5.5 5.5C5.22386 5.5 5 5.72386 5 6V7C5 7.27614 5.22386 7.5 5.5 7.5C5.77614 7.5 6 7.27614 6 7V6ZM10.5 5.5C10.7761 5.5 11 5.72386 11 6V7C11 7.27614 10.7761 7.5 10.5 7.5C10.2239 7.5 10 7.27614 10 7V6C10 5.72386 10.2239 5.5 10.5 5.5ZM6.4472 9.77638C6.32371 9.52939 6.02337 9.42928 5.77638 9.55277C5.52939 9.67627 5.42928 9.9766 5.55277 10.2236C6.00692 11.1319 7.0744 11.5 7.99999 11.5C8.92557 11.5 9.99306 11.1319 10.4472 10.2236C10.5707 9.9766 10.4706 9.67627 10.2236 9.55277C9.97661 9.42928 9.67627 9.52939 9.55277 9.77638C9.34025 10.2014 8.74107 10.5 7.99999 10.5C7.25891 10.5 6.65973 10.2014 6.4472 9.77638Z" fill="black"/>
</svg>
