<svg width="16" height="16" viewBox="0 0 16 16" fill="none" xmlns="http://www.w3.org/2000/svg">
<path fill-rule="evenodd" clip-rule="evenodd" d="M3.5 3C3.77614 3 4 3.22386 4 3.5V9.00012C4 9.69741 4.54915 10.3563 5.46246 11.0596C5.72038 11.2582 6.00797 11.4286 6.31671 11.5853C7.37471 12.1221 8.62529 12.1221 9.68329 11.5853C9.99203 11.4286 10.2796 11.2582 10.5375 11.0596C11.4508 10.3563 12 9.69731 12 9V3.5C12 3.22386 12.2239 3 12.5 3C12.7761 3 13 3.22386 13 3.5V9C13 10.2245 12.0579 11.1509 11.1477 11.8519C10.8254 12.1001 10.4801 12.3023 10.1358 12.477C8.79337 13.1581 7.20663 13.1581 5.86424 12.477C5.51991 12.3023 5.17461 12.1001 4.85232 11.8519C3.94207 11.1509 3 10.2246 3 9.00012V3.5C3 3.22386 3.22386 3 3.5 3ZM6.31482 5.03552C6.57135 4.93331 6.86217 5.05841 6.96438 5.31494L7.20495 5.91872C7.25209 5.97016 7.319 6.00001 7.38975 6.00001H8.59329C8.68901 6.00001 8.78098 5.96627 8.85356 5.9058L9.0216 5.35428C9.10208 5.09013 9.38147 4.94124 9.64562 5.02172C9.90977 5.1022 10.0587 5.38159 9.97818 5.64574L9.78665 6.27436C9.75795 6.36855 9.70918 6.4554 9.64369 6.52892C9.37679 6.8286 8.9946 7.00001 8.59329 7.00001H7.38975C6.98255 7.00001 6.60085 6.80178 6.36663 6.46868C6.33748 6.42721 6.31327 6.38247 6.2945 6.33538L6.0354 5.68508C5.93319 5.42855 6.05829 5.13773 6.31482 5.03552ZM6.5 8.5C6.22386 8.5 6 8.72386 6 9C6 9.27614 6.22386 9.5 6.5 9.5H9.5C9.77614 9.5 10 9.27614 10 9C10 8.72386 9.77614 8.5 9.5 8.5H6.5Z" fill="black"/>
</svg>
