<svg width="16" height="16" viewBox="0 0 16 16" fill="none" xmlns="http://www.w3.org/2000/svg">
<path fill-rule="evenodd" clip-rule="evenodd" d="M11.6282 3.07887C11.8684 2.83865 12.2487 2.81162 12.5205 3.01545C12.8698 3.27748 12.8867 3.79565 12.5551 4.07987L7.82486 8.13439C7.40016 8.49842 6.81707 8.59036 6.31106 8.39598L11.6282 3.07887ZM10.9211 2.37176C11.5132 1.77965 12.4506 1.71303 13.1205 2.21545C13.9816 2.86133 14.0232 4.13857 13.2059 4.83912L8.47565 8.89365C8.10251 9.21348 7.65601 9.40729 7.19364 9.47161C7.2053 9.6299 7.19514 9.79206 7.16598 9.9502C7.0778 10.4285 6.81037 10.9325 6.33892 11.3675C5.50803 12.1341 4.353 12.4238 2.74357 12.4865C1.99921 12.5155 1.66396 11.6288 2.15845 11.1343L5.14632 8.14648L5.15002 8.14281L10.9211 2.37176ZM5.56575 9.14126L3.25258 11.4544C4.45383 11.3543 5.16837 11.0869 5.66081 10.6326C5.98777 10.3309 6.13701 10.0159 6.18256 9.76888C6.21562 9.58954 6.19281 9.46891 6.16645 9.40084C5.95884 9.34198 5.75678 9.25557 5.56575 9.14126ZM7.99988 12C7.99988 11.7239 8.22374 11.5 8.49988 11.5H9.99988C10.276 11.5 10.4999 11.7239 10.4999 12C10.4999 12.2762 10.276 12.5 9.99988 12.5H8.49988C8.22374 12.5 7.99988 12.2762 7.99988 12ZM11.9999 11.5C11.7237 11.5 11.4999 11.7239 11.4999 12C11.4999 12.2762 11.7237 12.5 11.9999 12.5H13.4999C13.776 12.5 13.9999 12.2762 13.9999 12C13.9999 11.7239 13.776 11.5 13.4999 11.5H11.9999Z" fill="black"/>
</svg>
