<svg width="16" height="16" viewBox="0 0 16 16" fill="none" xmlns="http://www.w3.org/2000/svg">
<path d="M7.19846 11.6085C6.97746 11.6085 6.74346 11.5695 6.56796 11.498V10.4645C6.65896 10.5425 6.83446 10.614 7.00346 10.614C7.16596 10.614 7.33496 10.5815 7.43246 10.3605L5.65796 7.00003H6.91246L8.01746 9.29453L8.88846 7.00003H9.99996L8.53096 10.5165C8.17996 11.3615 7.86146 11.6085 7.19846 11.6085Z" fill="black"/>
<path fill-rule="evenodd" clip-rule="evenodd" d="M14.4408 11.2558L9.30013 2.2597C8.72576 1.25455 7.27754 1.25134 6.69872 2.25392L1.50495 11.25C0.927614 12.25 1.6493 13.5 2.804 13.5H13.1384C14.2901 13.5 15.0122 12.2558 14.4408 11.2558ZM7.56475 2.75391C7.75769 2.41972 8.24043 2.42079 8.43189 2.75584L13.5725 11.752C13.763 12.0853 13.5223 12.5 13.1384 12.5H2.804C2.4191 12.5 2.17854 12.0834 2.37098 11.75L7.56475 2.75391Z" fill="black"/>
</svg>
