<svg width="16" height="16" viewBox="0 0 16 16" fill="none" xmlns="http://www.w3.org/2000/svg">
<path fill-rule="evenodd" clip-rule="evenodd" d="M8.5 3.5C8.5 3.22386 8.27614 3 8 3C7.72386 3 7.5 3.22386 7.5 3.5V4C7.5 4.0074 7.50016 4.01476 7.50048 4.02209C4.96612 4.24717 2.84614 6.17384 2.50384 8.93856C2.46991 9.21261 2.66457 9.46228 2.93862 9.49621C3.21267 9.53014 3.46233 9.33549 3.49626 9.06144C3.79836 6.62143 5.75059 5 8.00005 5C10.2495 5 12.2017 6.62143 12.5038 9.06144C12.5378 9.33549 12.7874 9.53014 13.0615 9.49621C13.3355 9.46228 13.5302 9.21261 13.4963 8.93856C13.154 6.1738 11.0339 4.24711 8.49952 4.02208C8.49984 4.01476 8.5 4.0074 8.5 4V3.5ZM1.5 10.5C1.5 10.2239 1.72386 10 2 10H14C14.2761 10 14.5 10.2239 14.5 10.5C14.5 10.7761 14.2761 11 14 11H2C1.72386 11 1.5 10.7761 1.5 10.5ZM12.4127 11.7177C12.5686 11.9456 12.5102 12.2568 12.2823 12.4127L11.6792 12.8254C11.5129 12.9392 11.3161 13 11.1145 13H4.70711C4.44189 13 4.18754 12.8947 4 12.7072L3.64645 12.3536C3.45118 12.1583 3.45118 11.8418 3.64645 11.6465C3.84171 11.4512 4.15829 11.4512 4.35355 11.6465L4.70711 12H11.1145L11.7177 11.5874C11.9456 11.4315 12.2567 11.4898 12.4127 11.7177ZM5.47649 8.15117C5.5673 7.86487 5.78658 7.57088 6.08481 7.34641C6.38369 7.12144 6.7167 7 6.99989 7C7.27604 7 7.49989 6.77614 7.49989 6.5C7.49989 6.22386 7.27604 6 6.99989 6C6.45134 6 5.91253 6.22446 5.48343 6.54744C5.05367 6.87092 4.68882 7.32693 4.52329 7.84883C4.4398 8.11205 4.5855 8.39311 4.84872 8.4766C5.11194 8.56009 5.393 8.41439 5.47649 8.15117Z" fill="black"/>
</svg>
