<svg width="16" height="16" viewBox="0 0 16 16" fill="none" xmlns="http://www.w3.org/2000/svg">
<path fill-rule="evenodd" clip-rule="evenodd" d="M2.5 3.5C1.94771 3.5 1.5 3.94772 1.5 4.5V11.5C1.5 12.0523 1.94772 12.5 2.5 12.5H5.76565C6.42338 12.5 7.05418 12.7613 7.51927 13.2264C7.65817 13.3653 7.83492 13.4131 8 13.3904C8.16508 13.4131 8.34183 13.3653 8.48073 13.2264C8.94582 12.7613 9.57662 12.5 10.2344 12.5H13.5C14.0523 12.5 14.5 12.0523 14.5 11.5V4.5C14.5 3.94772 14.0523 3.5 13.5 3.5H9.5C8.90265 3.5 8.36647 3.76188 8 4.17709C7.63353 3.76188 7.09735 3.5 6.5 3.5H2.5ZM7.5 5.5C7.5 4.94772 7.05228 4.5 6.5 4.5H2.5V11.5H5.76565C6.3796 11.5 6.97682 11.6622 7.5 11.963V5.5ZM8.5 11.963C9.02318 11.6622 9.6204 11.5 10.2344 11.5H13.5V4.5H9.5C8.94772 4.5 8.5 4.94772 8.5 5.5V11.963ZM12.5 6.5H9.5V5.5H12.5V6.5ZM3.5 6.5H6.5V5.5H3.5V6.5ZM12.5 8.5H9.5V7.5H12.5V8.5ZM3.5 8.5H6.5V7.5H3.5V8.5ZM12.5 10.5H9.5V9.5H12.5V10.5ZM3.5 10.5H6.5V9.5H3.5V10.5Z" fill="black"/>
</svg>
