<svg width="16" height="16" viewBox="0 0 16 16" fill="none" xmlns="http://www.w3.org/2000/svg">
<path fill-rule="evenodd" clip-rule="evenodd" d="M5.15 3C5.15 2.0335 5.9335 1.25 6.9 1.25H9.1C10.0665 1.25 10.85 2.0335 10.85 3V5.15H13C13.9665 5.15 14.75 5.9335 14.75 6.9V9.1C14.75 10.0665 13.9665 10.85 13 10.85H10.85V13C10.85 13.9665 10.0665 14.75 9.1 14.75H6.9C5.9335 14.75 5.15 13.9665 5.15 13V10.85H3C2.0335 10.85 1.25 10.0665 1.25 9.1V6.9C1.25 5.9335 2.0335 5.15 3 5.15H5.15V3ZM6.9 2.75C6.76193 2.75 6.65 2.86193 6.65 3V6.65H3C2.86193 6.65 2.75 6.76193 2.75 6.9V9.1C2.75 9.23807 2.86193 9.35 3 9.35H6.65V13C6.65 13.1381 6.76193 13.25 6.9 13.25H9.1C9.23807 13.25 9.35 13.1381 9.35 13V9.35H13C13.1381 9.35 13.25 9.23807 13.25 9.1V6.9C13.25 6.76193 13.1381 6.65 13 6.65H9.35V3C9.35 2.86193 9.23807 2.75 9.1 2.75H6.9Z" fill="black"/>
</svg>
