<svg width="16" height="16" viewBox="0 0 16 16" fill="none" xmlns="http://www.w3.org/2000/svg">
<path fill-rule="evenodd" clip-rule="evenodd" d="M8.68115 4.40475C8.50171 4.58413 8.2207 4.61196 8.00952 4.47125L8 4.46487V4.30282C8 2.79507 6.07227 2.19 5.20483 3.39233L3.3396 5.63061C2.6582 6.44812 2.73657 7.65588 3.51733 8.37872L7.73486 12.2824C8.93921 13.3973 10.52 14.0166 12.1614 14.0166H12.9277C14.0723 14.0166 15 13.0888 15 11.9443C15 11.3946 14.7817 10.8675 14.3931 10.4789L12.793 8.87872C12.6055 8.69122 12.5 8.43682 12.5 8.17163V5.50006C12.5 4.39547 11.6047 3.50006 10.5 3.50006H10.3059C9.84497 3.50006 9.40283 3.68319 9.07666 4.00915L8.68115 4.40475ZM4.10767 6.27081L6 4.00006C6.29956 3.55072 7 3.76278 7 4.30282V4.65145C7 4.77917 7.0376 4.90194 7.10498 5.00604C7.15259 5.0794 7.21509 5.14349 7.29004 5.19342L7.45483 5.30328C8.06274 5.70843 8.87183 5.62829 9.38818 5.11187L9.78394 4.71627C9.92236 4.57782 10.1101 4.50006 10.3059 4.50006H10.5C11.0522 4.50006 11.5 4.94778 11.5 5.50006V8.17163C11.5 8.70208 11.7107 9.21075 12.0859 9.58587L13.686 11.186C13.8872 11.3871 14 11.6598 14 11.9443C14 12.5365 13.52 13.0166 12.9277 13.0166H12.1614C10.772 13.0166 9.43359 12.4924 8.41406 11.5485L4.19678 7.64489C3.80615 7.28344 3.76709 6.67956 4.10767 6.27081Z" fill="black"/>
<path d="M2.5 11.0001C2.22388 11.0001 2 11.2239 2 11.5001C2 11.7762 2.22388 12.0001 2.5 12.0001H4.5C4.77612 12.0001 5 11.7762 5 11.5001C5 11.2239 4.77612 11.0001 4.5 11.0001H2.5Z" fill="black"/>
<path d="M2 13.5001C2 13.2239 2.22388 13.0001 2.5 13.0001H6.5C6.77612 13.0001 7 13.2239 7 13.5001C7 13.7762 6.77612 14.0001 6.5 14.0001H2.5C2.22388 14.0001 2 13.7762 2 13.5001Z" fill="black"/>
</svg>
