<svg width="16" height="16" viewBox="0 0 16 16" fill="none" xmlns="http://www.w3.org/2000/svg">
<path fill-rule="evenodd" clip-rule="evenodd" d="M4 4C4 3.72386 4.22386 3.5 4.5 3.5H10.9622C11.0866 3.5 11.2065 3.54636 11.2985 3.63003L13.8363 5.93712C13.9406 6.03188 14 6.16622 14 6.30709V9.44827C14 9.72441 13.7761 9.94827 13.5 9.94827H4.5C4.22386 9.94827 4 9.72441 4 9.44827V4ZM4.5 2.5C3.67157 2.5 3 3.17157 3 4V4.93277H2.5C1.67157 4.93277 1 5.60434 1 6.43277V11.881C1 12.7095 1.67157 13.381 2.5 13.381H11.5C12.3284 13.381 13 12.7095 13 11.881V10.9483H13.5C14.3284 10.9483 15 10.2767 15 9.44827V6.30709C15 5.88447 14.8217 5.48146 14.509 5.19718L11.9712 2.89009C11.6951 2.63908 11.3354 2.5 10.9622 2.5H4.5ZM12 10.9483H4.5C3.67157 10.9483 3 10.2767 3 9.44827V5.93277H2.5C2.22386 5.93277 2 6.15663 2 6.43277V11.881C2 12.1572 2.22386 12.381 2.5 12.381H11.5C11.7761 12.381 12 12.1572 12 11.881V10.9483ZM5.33291 5.79183H9.34352V4.79183H5.33291V5.79183ZM9.34352 8.08349H5.33291V7.08349H9.34352V8.08349Z" fill="black"/>
</svg>
