<svg width="16" height="16" viewBox="0 0 16 16" fill="none" xmlns="http://www.w3.org/2000/svg">
<path fill-rule="evenodd" clip-rule="evenodd" d="M8 1.5C8.27614 1.5 8.5 1.72386 8.5 2V2.57143C8.5 2.84757 8.27614 3.07143 8 3.07143C7.72386 3.07143 7.5 2.84757 7.5 2.57143V2C7.5 1.72386 7.72386 1.5 8 1.5ZM3.5 2.75C3.5 2.47386 3.27614 2.25 3 2.25C2.72386 2.25 2.5 2.47386 2.5 2.75V13.5C2.5 13.7761 2.72386 14 3 14C3.27614 14 3.5 13.7761 3.5 13.5V2.75ZM13.5 2.75C13.5 2.47386 13.2761 2.25 13 2.25C12.7239 2.25 12.5 2.47386 12.5 2.75V13.5C12.5 13.7761 12.7239 14 13 14C13.2761 14 13.5 13.7761 13.5 13.5V2.75ZM8.5 13.5C8.5 13.2239 8.27614 13 8 13C7.72386 13 7.5 13.2239 7.5 13.5V14C7.5 14.2761 7.72386 14.5 8 14.5C8.27614 14.5 8.5 14.2761 8.5 14V13.5ZM7.5 5.5V7.49991H8.50005C9.05231 7.49991 9.5 7.05221 9.5 6.49995C9.5 5.94769 9.05231 5.5 8.50005 5.5H7.5ZM10.5 6.49995C10.5 7.6045 9.60459 8.49991 8.50005 8.49991H7.5V8.9999H8.5C8.77614 8.9999 9 9.22376 9 9.4999C9 9.77604 8.77614 9.9999 8.5 9.9999H7.5V10.5249C7.5 10.8011 7.27614 11.0249 7 11.0249C6.72386 11.0249 6.5 10.8011 6.5 10.5249V9.9999H6C5.72386 9.9999 5.5 9.77604 5.5 9.4999C5.5 9.22376 5.72386 8.9999 6 8.9999H6.5V8.49991H6C5.72386 8.49991 5.5 8.27605 5.5 7.99991C5.5 7.72377 5.72386 7.49991 6 7.49991H6.5V5.05882C6.5 4.7502 6.75019 4.5 7.05882 4.5H8.50005C9.60459 4.5 10.5 5.39541 10.5 6.49995Z" fill="black"/>
</svg>
