<svg width="16" height="16" viewBox="0 0 16 16" fill="none" xmlns="http://www.w3.org/2000/svg">
<path fill-rule="evenodd" clip-rule="evenodd" d="M8.55074 5.67648C8.14758 5.10383 8.20736 4.38535 8.47551 3.76638C8.74767 3.13818 9.26383 2.52467 9.94233 2.04698C10.6208 1.5693 11.3725 1.29024 12.0556 1.24586C12.7288 1.20213 13.4253 1.38812 13.8285 1.96077L14.788 3.32358C15.1911 3.89622 15.1313 4.6147 14.8632 5.23367C14.591 5.86186 14.0749 6.47539 13.3964 6.95307C12.7179 7.43076 11.9662 7.7098 11.2831 7.75419C10.6099 7.79792 9.91336 7.61193 9.5102 7.03928L8.55074 5.67648ZM9.36842 5.1008C9.24169 4.9208 9.2014 4.60641 9.3931 4.16391C9.58081 3.73064 9.96488 3.25407 10.518 2.86466C11.0711 2.47525 11.6493 2.27437 12.1205 2.24376C12.6017 2.21249 12.8841 2.35644 13.0108 2.53645C13.1375 2.71645 13.1778 3.03084 12.9861 3.47334C12.7984 3.90661 12.4144 4.38318 11.8612 4.77259C11.3081 5.162 10.73 5.36288 10.2588 5.39349C9.77754 5.42476 9.49515 5.28081 9.36842 5.1008ZM13.9212 3.8296L13.9703 3.89925C14.097 4.07925 14.1373 4.39363 13.9456 4.83614C13.7579 5.26942 13.3738 5.74598 12.8207 6.13539C12.2676 6.5248 11.6894 6.72568 11.2182 6.75629C10.737 6.78755 10.4546 6.64361 10.3279 6.46361L10.2788 6.39395C10.2938 6.39321 10.3087 6.39236 10.3236 6.39139C11.0068 6.347 11.7584 6.06795 12.4369 5.59027C13.1154 5.11258 13.6316 4.49906 13.9037 3.87087C13.9097 3.85716 13.9155 3.8434 13.9212 3.8296Z" fill="black"/>
<path fill-rule="evenodd" clip-rule="evenodd" d="M10.2052 12.3338C10.7602 11.653 10.7616 10.7326 10.4636 9.88521C10.1622 9.02833 9.53184 8.15734 8.66298 7.44889C7.79412 6.74044 6.81406 6.29831 5.91405 6.17561C5.024 6.05427 4.12271 6.24094 3.56765 6.92168L2.10705 8.71299C1.55199 9.39373 1.55059 10.3141 1.84862 11.1615C2.15 12.0184 2.78037 12.8894 3.64923 13.5979C4.51809 14.3063 5.49815 14.7484 6.39816 14.8711C7.28821 14.9925 8.1895 14.8058 8.74455 14.1251L10.2052 12.3338ZM4.34267 7.55361C4.59428 7.24503 5.07947 7.07108 5.77896 7.16644C5.86515 7.17819 5.95327 7.19397 6.04294 7.21379C6.67065 7.35248 7.37477 7.6888 8.03104 8.22391C8.78106 8.83546 9.28934 9.56051 9.52023 10.217C9.75446 10.883 9.68175 11.3932 9.43014 11.7018C9.17853 12.0104 8.69334 12.1844 7.99385 12.089C7.30432 11.995 6.49179 11.6431 5.74177 11.0315C4.99175 10.42 4.48347 9.69492 4.25258 9.03844C4.01835 8.37247 4.09106 7.86219 4.34267 7.55361ZM3.1916 8.96531C3.22271 9.10128 3.26225 9.23666 3.30922 9.37023C3.6106 10.2271 4.24097 11.0981 5.10983 11.8065C5.97869 12.515 6.95875 12.9571 7.85876 13.0798C7.99905 13.099 8.13962 13.1104 8.27907 13.1135L7.96953 13.4931C7.71793 13.8017 7.23274 13.9757 6.53324 13.8803C5.84371 13.7863 5.03118 13.4344 4.28116 12.8228C3.53115 12.2113 3.02287 11.4862 2.79198 10.8298C2.55775 10.1638 2.63047 9.6535 2.88207 9.34493L3.1916 8.96531Z" fill="black"/>
</svg>
