<svg width="16" height="16" viewBox="0 0 16 16" fill="none" xmlns="http://www.w3.org/2000/svg">
<path fill-rule="evenodd" clip-rule="evenodd" d="M4 1.5C2.89543 1.5 2 2.39543 2 3.5V8.5C2 9.60457 2.89543 10.5 4 10.5H5V12C5 13.1046 5.89543 14 7 14H12C13.1046 14 14 13.1046 14 12V7C14 5.89543 13.1046 5 12 5H11V3.5C11 2.39543 10.1046 1.5 9 1.5H4ZM10 5V3.5C10 2.94772 9.55228 2.5 9 2.5H4C3.44772 2.5 3 2.94772 3 3.5V8.5C3 9.05228 3.44772 9.5 4 9.5H5V7C5 5.89543 5.89543 5 7 5H10ZM6 9.5V7C6 6.44772 6.44772 6 7 6H10V8.5C10 9.05228 9.55228 9.5 9 9.5H6ZM6 10.5H9C10.1046 10.5 11 9.60457 11 8.5V6H12C12.5523 6 13 6.44772 13 7V12C13 12.5523 12.5523 13 12 13H7C6.44772 13 6 12.5523 6 12V10.5Z" fill="black"/>
</svg>
