<svg width="16" height="16" viewBox="0 0 16 16" fill="none" xmlns="http://www.w3.org/2000/svg">
<path fill-rule="evenodd" clip-rule="evenodd" d="M4.5459 2.47998H8.00046V4.69958H4.98047C3.04747 4.69958 1.48047 6.26659 1.48047 8.19959V9.18907C1.48047 9.74136 1.92818 10.1891 2.48047 10.1891H4.36657C4.91885 10.1891 5.36657 9.74136 5.36657 9.18907V8.26501H8.00046V12.0495H7.50049C7.22435 12.0495 7.00049 12.2734 7.00049 12.5495C7.00049 12.8257 7.22435 13.0495 7.50049 13.0495H14.4805C14.7566 13.0495 14.9805 12.8257 14.9805 12.5495C14.9805 12.2734 14.7566 12.0495 14.4805 12.0495H14.0249V4.47998C14.0249 2.82313 12.6817 1.47998 11.0249 1.47998H10.3181H8.50046H4.5459C4.26976 1.47998 4.0459 1.70384 4.0459 1.97998C4.0459 2.25612 4.26976 2.47998 4.5459 2.47998ZM9.00046 5.19958V2.47998H10.3181H11.0249C12.1294 2.47998 13.0249 3.37541 13.0249 4.47998V12.0431H9.00046V7.76501C9.00046 7.48886 8.7766 7.26501 8.50046 7.26501H5.36657C4.81428 7.26501 4.36657 7.71272 4.36657 8.26501V9.18907L2.48047 9.18907V8.19959C2.48047 6.81887 3.59976 5.69958 4.98047 5.69958H8.50046C8.7766 5.69958 9.00046 5.47573 9.00046 5.19958Z" fill="black"/>
</svg>
