<svg width="16" height="16" viewBox="0 0 16 16" fill="none" xmlns="http://www.w3.org/2000/svg">
<path fill-rule="evenodd" clip-rule="evenodd" d="M4.5 3V4.975H5.5125C6.05788 4.975 6.5 4.53288 6.5 3.9875C6.5 3.44212 6.05788 3 5.5125 3H4.5ZM7.5 3.9875C7.5 5.08517 6.61017 5.975 5.5125 5.975H4.5V6.47499H5.5C5.77614 6.47499 6 6.69884 6 6.97499C6 7.25113 5.77614 7.47499 5.5 7.47499H4.5V8C4.5 8.27614 4.27614 8.5 4 8.5C3.72386 8.5 3.5 8.27614 3.5 8V7.47499H3C2.72386 7.47499 2.5 7.25113 2.5 6.97499C2.5 6.69884 2.72386 6.47499 3 6.47499H3.5V5.975H3C2.72386 5.975 2.5 5.75114 2.5 5.475C2.5 5.19886 2.72386 4.975 3 4.975H3.5V2.55882C3.5 2.2502 3.75019 2 4.05882 2H5.5125C6.61017 2 7.5 2.88983 7.5 3.9875ZM11.4032 4.29568C11.5665 4.073 11.5184 3.7601 11.2957 3.5968C11.073 3.4335 10.7601 3.48163 10.5968 3.70432L3.99689 12.7042C3.83359 12.9269 3.88172 13.2398 4.10441 13.4031C4.32709 13.5664 4.63999 13.5183 4.80329 13.2956L11.4032 4.29568ZM12.2999 8.10009C12.2999 7.82394 12.076 7.60009 11.7999 7.60009C11.5238 7.60009 11.2999 7.82394 11.2999 8.10009V8.50007H11.05C10.194 8.50007 9.5 9.19402 9.5 10.0501C9.5 10.9061 10.194 11.6 11.05 11.6H12.5501C12.8539 11.6 13.1001 11.8463 13.1001 12.15C13.1001 12.4538 12.8539 12.7 12.5501 12.7H10.6C10.3239 12.7 10.1 12.9239 10.1 13.2C10.1 13.4762 10.3239 13.7 10.6 13.7H11.2999V14.1001C11.2999 14.3762 11.5238 14.6001 11.7999 14.6001C12.076 14.6001 12.2999 14.3762 12.2999 14.1001V13.7H12.5501C13.4061 13.7 14.1001 13.0061 14.1001 12.15C14.1001 11.294 13.4061 10.6 12.5501 10.6H11.05C10.7462 10.6 10.5 10.3538 10.5 10.0501C10.5 9.74631 10.7462 9.50007 11.05 9.50007H13C13.2761 9.50007 13.5 9.27621 13.5 9.00007C13.5 8.72393 13.2761 8.50007 13 8.50007H12.2999V8.10009Z" fill="black"/>
</svg>
