<svg width="16" height="16" viewBox="0 0 16 16" fill="none" xmlns="http://www.w3.org/2000/svg">
<path fill-rule="evenodd" clip-rule="evenodd" d="M1.99976 5.10005C1.99976 4.76868 2.26838 4.50005 2.59975 4.50004L10.9968 4.50001L11 4.5L11.0032 4.50001L13.4106 4.5C13.742 4.5 14.0106 4.76863 14.0106 5.1L14.0106 10.9C14.0106 11.2313 13.742 11.5 13.4106 11.5L11.0028 11.5L11 11.5L10.9972 11.5L2.59977 11.5C2.2684 11.5 1.99976 11.2314 1.99976 10.9L1.99976 5.10005ZM11.5 10.5C11.5 10.2239 11.2762 10 11 10C10.7239 10 10.5 10.2239 10.5 10.5L2.99976 10.5L2.99976 5.50004L10.5 5.50001C10.5 5.77615 10.7239 6 11 6C11.2761 6 11.5 5.77615 11.5 5.50001L13.0106 5.5L13.0106 10.5L11.5 10.5ZM11 7C11.2762 7 11.5 7.22386 11.5 7.5V8.5C11.5 8.77614 11.2762 9 11 9C10.7239 9 10.5 8.77614 10.5 8.5V7.5C10.5 7.22386 10.7239 7 11 7ZM4.00001 7.5H8.00001V6.5H4.00001V7.5ZM4.00001 9.5H7.00001V8.5H4.00001V9.5Z" fill="black"/>
</svg>
