<svg width="16" height="16" viewBox="0 0 16 16" fill="none" xmlns="http://www.w3.org/2000/svg">
<path fill-rule="evenodd" clip-rule="evenodd" d="M5.81828 3.5C5.54214 3.5 5.31828 3.72386 5.31828 4V6.59459C5.31828 6.87074 5.54214 7.09459 5.81828 7.09459H14.0001C14.2762 7.09459 14.5001 6.87074 14.5001 6.59459V4C14.5001 3.72386 14.2762 3.5 14.0001 3.5H5.81828ZM6.31828 6.09459V4.5H13.5001V6.09459H6.31828ZM5.81827 8.36485C5.54213 8.36485 5.31827 8.5887 5.31827 8.86485V11.4594C5.31827 11.7356 5.54213 11.9594 5.81827 11.9594H14.0001C14.2762 11.9594 14.5001 11.7356 14.5001 11.4594V8.86485C14.5001 8.5887 14.2762 8.36485 14.0001 8.36485H5.81827ZM6.31827 10.9594V9.36485H13.5001V10.9594H6.31827ZM3.32465 6.53425C2.90052 7.20483 2.81275 7.80834 2.87154 8.30479C2.95671 9.02396 3.35936 9.59989 3.69583 9.89897C3.90222 10.0824 3.92081 10.3985 3.73735 10.6049C3.55389 10.8112 3.23786 10.8298 3.03147 10.6464C2.54975 10.2182 1.99786 9.43048 1.87848 8.42238C1.79249 7.69624 1.93535 6.89341 2.4359 6.0706L2.08228 6.12954C1.80989 6.17494 1.55228 5.99093 1.50688 5.71854C1.46148 5.44616 1.64549 5.18854 1.91788 5.14315L3.4556 4.88686C3.47281 4.88399 3.48996 4.88189 3.50703 4.88052C3.67381 4.83603 3.8591 4.8792 3.98993 5.01003C4.0786 5.0987 4.127 5.21239 4.13514 5.32837C4.1395 5.34528 4.14315 5.36251 4.14608 5.38006L4.40236 6.91778C4.44776 7.19016 4.26375 7.44778 3.99137 7.49318C3.71898 7.53857 3.46137 7.35456 3.41597 7.08218L3.32465 6.53425Z" fill="black"/>
</svg>
