<svg width="16" height="16" viewBox="0 0 16 16" fill="none" xmlns="http://www.w3.org/2000/svg">
<path fill-rule="evenodd" clip-rule="evenodd" d="M3.5 3.5C3.5 3.01275 3.96519 2.5 4.5 2.5C5.03481 2.5 5.5 3.01275 5.5 3.5C5.5 3.77614 5.72386 4 6 4C6.27614 4 6.5 3.77614 6.5 3.5C6.5 2.49608 5.62205 1.5 4.5 1.5C3.37795 1.5 2.5 2.49608 2.5 3.5C2.5 4.35265 3.12973 5.19196 4 5.43205V6.08535C3.4174 6.29127 3 6.84689 3 7.5C3 8.13612 3.39597 8.67975 3.95486 8.89787C3.68088 9.27978 3.33988 9.80233 3.05802 10.3692C2.75995 10.9687 2.5 11.6724 2.5 12.3333C2.5 13.0197 2.72862 13.5725 3.11997 13.9535C3.50562 14.3289 4.01099 14.5 4.5 14.5C4.98902 14.5 5.49438 14.3289 5.88003 13.9535C6.27138 13.5725 6.5 13.0197 6.5 12.3333C6.5 11.6724 6.24005 10.9687 5.94198 10.3692C5.66012 9.80233 5.31912 9.27978 5.04514 8.89787C5.60403 8.67975 6 8.13612 6 7.5C6 6.84689 5.5826 6.29127 5 6.08535V5.1C5 4.75956 4.72908 4.51918 4.43669 4.49767C3.92585 4.4601 3.5 3.96333 3.5 3.5ZM4 7.5C4 7.22386 4.22386 7 4.5 7C4.77614 7 5 7.22386 5 7.5C5 7.77614 4.77614 8 4.5 8C4.22386 8 4 7.77614 4 7.5ZM3.5 12.3333C3.5 11.9055 3.67753 11.3694 3.95345 10.8144C4.12093 10.4776 4.31447 10.1538 4.5 9.87063C4.68553 10.1538 4.87907 10.4776 5.04655 10.8144C5.32247 11.3694 5.5 11.9055 5.5 12.3333C5.5 12.7897 5.35362 13.0703 5.18247 13.2369C5.00562 13.4091 4.76098 13.5 4.5 13.5C4.23901 13.5 3.99438 13.4091 3.81753 13.2369C3.64638 13.0703 3.5 12.7897 3.5 12.3333Z" fill="black"/>
<path fill-rule="evenodd" clip-rule="evenodd" d="M12.5 3.5C12.5 3.01275 12.0348 2.5 11.5 2.5C10.9652 2.5 10.5 3.01275 10.5 3.5C10.5 3.77614 10.2761 4 10 4C9.72386 4 9.5 3.77614 9.5 3.5C9.5 2.49608 10.378 1.5 11.5 1.5C12.622 1.5 13.5 2.49608 13.5 3.5C13.5 4.35265 12.8703 5.19196 12 5.43205V6.08535C12.5826 6.29127 13 6.84689 13 7.5C13 8.13612 12.604 8.67974 12.0451 8.89786C12.3191 9.27977 12.6601 9.80233 12.942 10.3692C13.24 10.9687 13.5 11.6724 13.5 12.3333C13.5 13.0197 13.2714 13.5725 12.88 13.9535C12.4944 14.3289 11.989 14.5 11.5 14.5C11.011 14.5 10.5056 14.3289 10.12 13.9535C9.72862 13.5725 9.5 13.0197 9.5 12.3333C9.5 11.6724 9.75995 10.9687 10.058 10.3692C10.3399 9.80233 10.6809 9.27977 10.9549 8.89786C10.396 8.67974 10 8.13612 10 7.5C10 6.84689 10.4174 6.29127 11 6.08535V5.1C11 4.75956 11.2709 4.51918 11.5633 4.49767C12.0742 4.4601 12.5 3.96333 12.5 3.5ZM11.5 7C11.2239 7 11 7.22386 11 7.5C11 7.77614 11.2239 8 11.5 8C11.7761 8 12 7.77614 12 7.5C12 7.22386 11.7761 7 11.5 7ZM12.0466 10.8144C12.3225 11.3694 12.5 11.9055 12.5 12.3333C12.5 12.7897 12.3536 13.0703 12.1825 13.2369C12.0056 13.4091 11.761 13.5 11.5 13.5C11.239 13.5 10.9944 13.4091 10.8175 13.2369C10.6464 13.0703 10.5 12.7897 10.5 12.3333C10.5 11.9055 10.6775 11.3694 10.9534 10.8144C11.1209 10.4776 11.3145 10.1538 11.5 9.87063C11.6855 10.1538 11.8791 10.4776 12.0466 10.8144Z" fill="black"/>
</svg>
