<svg width="16" height="16" viewBox="0 0 16 16" fill="none" xmlns="http://www.w3.org/2000/svg">
<path fill-rule="evenodd" clip-rule="evenodd" d="M2.00006 2.5C1.44778 2.5 1.00006 2.94771 1.00006 3.5V4.36062C0.99998 4.36583 0.99998 4.37104 1.00006 4.37625V12C1.00006 12.5523 1.44778 13 2.00006 13H6.70839C6.98454 13 7.20839 12.7761 7.20839 12.5C7.20839 12.2239 6.98454 12 6.70839 12H2.00006V5.29571L7.47549 8.89343C7.64215 9.00294 7.85796 9.00294 8.02462 8.89343L13.5001 5.2957V8.47556C13.5001 8.7517 13.7239 8.97556 14.0001 8.97556C14.2762 8.97556 14.5001 8.7517 14.5001 8.47556V4.37562C14.5001 4.37083 14.5001 4.36604 14.5001 4.36124V3.5C14.5001 2.94771 14.0523 2.5 13.5001 2.5H2.00006ZM13.5001 4.09915V3.5L2.00006 3.5V4.09916L7.75006 7.87729L13.5001 4.09915ZM9.66671 10.8723C9.51651 10.6406 9.20691 10.5745 8.97518 10.7247C8.74346 10.8749 8.67736 11.1845 8.82755 11.4162C8.93185 11.5772 9.06417 11.7346 9.21952 11.8831L8.54147 12.5805C8.34897 12.7785 8.35343 13.0951 8.55142 13.2876C8.74942 13.4801 9.06597 13.4756 9.25846 13.2776L10.0471 12.4665C10.3898 12.6429 10.7732 12.7745 11.1763 12.8381V14.0002C11.1763 14.2763 11.4002 14.5002 11.6763 14.5002C11.9525 14.5002 12.1763 14.2763 12.1763 14.0002V12.8491C12.5556 12.7962 12.9384 12.6753 13.3103 12.4713L14.0942 13.2776C14.2867 13.4756 14.6032 13.4801 14.8012 13.2876C14.9992 13.0951 15.0037 12.7785 14.8112 12.5805L14.1197 11.8693C14.2477 11.7455 14.3729 11.609 14.4944 11.459C14.6682 11.2445 14.6352 10.9296 14.4207 10.7558C14.2061 10.582 13.8912 10.615 13.7174 10.8295C12.9646 11.7587 12.1009 11.9634 11.3588 11.8544C10.5768 11.7395 9.92857 11.2764 9.66671 10.8723Z" fill="black"/>
</svg>
