<svg width="16" height="16" viewBox="0 0 16 16" fill="none" xmlns="http://www.w3.org/2000/svg">
<path fill-rule="evenodd" clip-rule="evenodd" d="M4.99612 2.09756C5.6774 1.42401 6.68547 1 8 1C9.31453 1 10.3226 1.42401 11.0039 2.09756C11.6803 2.76635 12 3.64776 12 4.5C12 5.15154 11.7389 5.75818 11.388 6.20112C11.0531 6.62383 10.5496 6.99993 10.0002 7C9.54405 7.60721 8.81789 7.99997 8 7.99997C7.1821 7.99997 6.45594 7.60721 5.99984 7C5.45045 6.99993 4.94689 6.62383 4.612 6.20112C4.26108 5.75818 4 5.15154 4 4.5C4 3.64776 4.31967 2.76635 4.99612 2.09756ZM5.69919 2.80869C5.2272 3.27532 5 3.89391 5 4.5C5 4.89013 5.1608 5.28348 5.39582 5.58013C5.43076 5.62423 5.4656 5.66419 5.5 5.70031V4.6C5.5 4.27152 5.7626 4.00602 6.08838 3.99899C6.42742 3.99167 7.0049 3.94367 7.53713 3.80868C7.80307 3.74123 8.03989 3.65645 8.22483 3.55525C8.41333 3.4521 8.51163 3.35188 8.55524 3.27145C8.76591 2.88287 9.33546 2.93446 9.47683 3.34915L9.5804 3.65296C9.644 3.83951 9.8088 3.97316 10.0045 3.99688C10.2873 4.03116 10.5 4.27122 10.5 4.55612V5.70031C10.5344 5.66419 10.5692 5.62423 10.6042 5.58013C10.8392 5.28348 11 4.89013 11 4.5C11 3.89391 10.7728 3.27532 10.3008 2.80869C9.83365 2.34682 9.09172 2 8 2C6.90828 2 6.16635 2.34682 5.69919 2.80869ZM9.5 4.89074L9.5 5.49997C9.5 6.3284 8.82843 6.99997 8 6.99997C7.17157 6.99997 6.5 6.3284 6.5 5.49997V4.97929C6.87017 4.95147 7.33428 4.89179 7.78297 4.77799C8.09666 4.69843 8.42063 4.58803 8.70487 4.43249C8.74659 4.40966 8.78828 4.38541 8.82959 4.35962C8.99713 4.5971 9.23007 4.78183 9.5 4.89074Z" fill="black"/>
<path d="M4.25142 11.931C3.9627 10.9686 4.68337 10 5.68816 10H6.0001C6.27624 10 6.5001 9.77614 6.5001 9.5C6.5001 9.22386 6.27624 9 6.0001 9H5.68816C4.01351 9 2.81239 10.6143 3.2936 12.2184L3.5936 13.2184C3.91083 14.2758 4.88414 15 5.98816 15H10.012C11.1161 15 12.0894 14.2758 12.4066 13.2184L12.7066 12.2184C13.1878 10.6143 11.9867 9 10.312 9H10.0001C9.72396 9 9.5001 9.22386 9.5001 9.5C9.5001 9.77614 9.72396 10 10.0001 10H10.312C11.3168 10 12.0375 10.9686 11.7488 11.931L11.4488 12.931C11.2584 13.5655 10.6745 14 10.012 14H5.98816C5.32575 14 4.74177 13.5655 4.55142 12.931L4.25142 11.931Z" fill="black"/>
<path d="M8.53677 9.45533C8.31565 9.0131 7.68457 9.0131 7.46345 9.45533L6.0529 12.2764C5.9294 12.5234 6.02951 12.8238 6.2765 12.9473C6.52349 13.0708 6.82383 12.9706 6.94732 12.7237L8.00011 10.6181L9.0529 12.7237C9.17639 12.9706 9.47673 13.0708 9.72372 12.9473C9.97071 12.8238 10.0708 12.5234 9.94732 12.2764L8.53677 9.45533Z" fill="black"/>
</svg>
