<svg width="16" height="16" viewBox="0 0 16 16" fill="none" xmlns="http://www.w3.org/2000/svg">
<path fill-rule="evenodd" clip-rule="evenodd" d="M8.05789 2.6001C5.81678 2.6001 4 4.41688 4 6.65799V6.8051C4 7.08124 4.22386 7.3051 4.5 7.3051C4.77614 7.3051 5 7.08124 5 6.8051V6.65799C5 4.96916 6.36907 3.6001 8.05789 3.6001H8.18882C9.80534 3.6001 11.1158 4.91055 11.1158 6.52706V7.0446C11.1158 7.44878 11.0387 7.84924 10.8886 8.22451C10.7123 8.66506 10.4909 9.08611 10.2277 9.48091L10.0096 9.80799C9.66016 10.3322 9.47368 10.948 9.47368 11.578C9.47368 12.3634 8.83699 13.0001 8.05159 13.0001H7.95179C7.17631 13.0001 6.52484 12.417 6.4392 11.6463L6.36536 10.9817C6.33487 10.7073 6.08766 10.5095 5.81321 10.54C5.53875 10.5705 5.34098 10.8177 5.37148 11.0922L5.44532 11.7567C5.58723 13.0339 6.66676 14.0001 7.95179 14.0001H8.05159C9.38928 14.0001 10.4737 12.9157 10.4737 11.578C10.4737 11.1455 10.6017 10.7226 10.8417 10.3627L11.0597 10.0356C11.3613 9.58321 11.6151 9.10072 11.817 8.5959C12.0144 8.10251 12.1158 7.576 12.1158 7.0446V6.52706C12.1158 4.35826 10.3576 2.6001 8.18882 2.6001H8.05789ZM7.18945 6.65798C7.18945 6.22646 7.59289 5.78956 8.05787 5.78956C8.52286 5.78956 8.9263 6.22646 8.9263 6.65798C8.9263 6.93413 9.15015 7.15798 9.4263 7.15798C9.70244 7.15798 9.9263 6.93413 9.9263 6.65798C9.9263 5.70389 9.1044 4.78956 8.05787 4.78956C7.01135 4.78956 6.18945 5.70389 6.18945 6.65798C6.18945 7.06902 6.27712 7.42213 6.43507 7.72313C6.53234 7.90849 6.64177 8.08672 6.74274 8.24991L6.76407 8.28438L6.76408 8.28439C6.85962 8.43874 6.9468 8.57956 7.02465 8.72145C7.19172 9.02595 7.28419 9.28134 7.28419 9.53616V9.94219C7.28419 10.2183 7.50805 10.4422 7.78419 10.4422C8.06033 10.4422 8.28419 10.2183 8.28419 9.94219V9.53616C8.28419 9.03343 8.09948 8.60153 7.90136 8.24044C7.81025 8.07437 7.7096 7.91184 7.61694 7.76223L7.61693 7.7622L7.59314 7.72378C7.49116 7.55895 7.3993 7.40851 7.32056 7.25846C7.24455 7.11361 7.18945 6.92226 7.18945 6.65798Z" fill="black"/>
</svg>
