<svg width="16" height="16" viewBox="0 0 16 16" fill="none" xmlns="http://www.w3.org/2000/svg">
<path fill-rule="evenodd" clip-rule="evenodd" d="M11.7523 2.34558C11.1819 1.77519 10.2056 2.08015 10.0613 2.8738L9.85625 4.00182C8.96786 3.67136 7.92931 3.86317 7.21525 4.57723L4.57213 7.22035C3.8581 7.93438 3.66628 8.97287 3.99667 9.86123L2.86868 10.0663C2.07503 10.2106 1.77006 11.1869 2.34046 11.7573L4.45559 13.8724C5.03262 14.4495 6.02058 14.1297 6.15004 13.324L6.35334 12.0587C7.18547 12.2782 8.10874 12.0617 8.76113 11.4093L11.4043 8.76623C12.1006 8.06986 12.3003 7.06488 12.0033 6.19153L13.1731 6.09405C14.0215 6.02335 14.3991 4.9924 13.7971 4.39039L11.7523 2.34558ZM11.4042 5.2307L10.7654 4.59182L11.0452 3.05269L13.09 5.0975L11.411 5.23742L11.4042 5.2307ZM7.92236 5.28434C8.50783 4.69887 9.45687 4.69855 10.0427 5.2834L10.0437 5.28434L10.6971 5.9378L10.6981 5.93876C11.2829 6.52463 11.2826 7.47366 10.6971 8.05912L8.05403 10.7022C7.46824 11.288 6.51849 11.288 5.93271 10.7022L5.27924 10.0488C4.69345 9.46299 4.69345 8.51324 5.27924 7.92746L7.92236 5.28434ZM3.04756 11.0502L5.1627 13.1653L5.41244 11.6111L4.58439 10.7708L3.04756 11.0502ZM9.08773 7.10313C9.28299 6.90786 9.28299 6.59128 9.08773 6.39602C8.89247 6.20076 8.57589 6.20076 8.38062 6.39602L6.14227 8.63438C5.947 8.82964 5.947 9.14622 6.14227 9.34149C6.33753 9.53675 6.65411 9.53675 6.84937 9.34149L9.08773 7.10313Z" fill="black"/>
</svg>
