<svg width="16" height="16" viewBox="0 0 16 16" fill="none" xmlns="http://www.w3.org/2000/svg">
<path fill-rule="evenodd" clip-rule="evenodd" d="M10.595 1.55815C10.288 1.46253 10.0063 1.54296 9.79958 1.6699C9.59971 1.79263 9.44685 1.96972 9.34237 2.13893L8.94257 2.78645C8.27272 3.87134 7.61919 4.87417 6.67767 5.52143C6.31459 5.77104 5.86686 6.01632 5.25627 6.26516C4.68906 6.49632 4.2793 7.04456 4.2793 7.68912V13.5783C4.2793 14.4067 4.95087 15.0783 5.7793 15.0783H10.7017C11.8626 15.0783 12.8708 14.2791 13.1357 13.1488L13.9021 9.87947C14.2698 8.31074 13.0793 6.80893 11.468 6.80893H10.7677C11.1055 6.03954 11.5548 5.00085 11.7258 4.07218C11.816 3.5827 11.8417 3.06236 11.6879 2.60456C11.5229 2.11294 11.1636 1.73522 10.595 1.55815ZM10.3229 2.52205L10.3239 2.52144C10.566 2.60361 10.6786 2.74026 10.74 2.92291C10.8148 3.14586 10.82 3.46949 10.7424 3.89106C10.5875 4.73192 10.1545 5.71818 9.79894 6.52794L9.54429 7.10792C9.47641 7.26253 9.49115 7.44095 9.58347 7.58233C9.6758 7.72371 9.83325 7.80893 10.0021 7.80893H11.468C12.4348 7.80893 13.1491 8.71001 12.9284 9.65126L12.1621 12.9206C12.0031 13.5988 11.3982 14.0783 10.7017 14.0783H5.7793C5.50315 14.0783 5.2793 13.8544 5.2793 13.5783V7.68912C5.2793 7.48269 5.41281 7.28122 5.63367 7.19121C6.30055 6.91943 6.81345 6.6416 7.24418 6.34549C8.38414 5.5618 9.13628 4.37616 9.79345 3.31182L10.1932 2.6643C10.2384 2.59124 10.2888 2.54295 10.3229 2.52205Z" fill="black"/>
<path d="M3.05957 6.12137C3.05957 5.84523 2.83571 5.62137 2.55957 5.62137C2.28343 5.62137 2.05957 5.84523 2.05957 6.12137V15.0002C2.05957 15.2763 2.28343 15.5002 2.55957 15.5002C2.83571 15.5002 3.05957 15.2763 3.05957 15.0002V6.12137Z" fill="black"/>
</svg>
