<svg width="16" height="16" viewBox="0 0 16 16" fill="none" xmlns="http://www.w3.org/2000/svg">
<path fill-rule="evenodd" clip-rule="evenodd" d="M6.09345 2.67337C6.09345 1.60938 6.99995 1 8.00605 1C9.01216 1 9.91718 1.64062 9.91718 2.66779C10.7727 2.38907 11.7297 2.74323 12.194 3.55936C12.7287 4.49951 12.4138 5.70776 11.4797 6.25507C11.2058 6.41534 10.9089 6.50098 10.613 6.51746C10.5886 6.521 10.5637 6.52289 10.5383 6.52289H8.84687C8.82881 6.52289 8.81074 6.5224 8.79316 6.52148H7.20429C7.18574 6.52252 7.1667 6.52301 7.14765 6.52301H5.45625C5.43086 6.52301 5.40595 6.52118 5.38203 6.51764C5.08564 6.50116 4.78877 6.41553 4.51484 6.25525C3.58076 5.70789 3.26582 4.49969 3.80049 3.55951C4.26777 2.73816 5.23408 2.3847 6.09345 2.67337ZM8.00605 2C7.48896 2 7.05732 2.51044 7.05732 3.05322C7.05732 3.22375 7.0998 3.38239 7.17402 3.52017L7.19013 3.5528L8.00605 4.98669L8.82246 3.55206L8.83808 3.53302V3.5202C8.9123 3.38239 8.95478 3.22375 8.95478 3.05322C8.95478 2.51044 8.52314 2 8.00605 2ZM10.4929 5.5174H8.85322L8.87519 5.4812L9.67744 4.06842L9.6955 4.04028C9.77509 3.90741 9.88789 3.79239 10.031 3.70856C10.4826 3.44391 11.0661 3.59869 11.3312 4.06488C11.5964 4.53107 11.4367 5.12122 10.9851 5.38586C10.842 5.46967 10.6877 5.51105 10.5349 5.51471L10.4929 5.5174ZM5.96357 3.70871C5.51191 3.44406 4.92842 3.59882 4.66328 4.06506C4.39814 4.53125 4.55781 5.1214 5.00947 5.38605C5.15254 5.46985 5.30683 5.51123 5.46015 5.51483L5.50166 5.51752H7.14131L6.31758 4.06909L6.29902 4.04047C6.21943 3.90753 6.10664 3.79254 5.96357 3.70871Z" fill="black"/>
<path fill-rule="evenodd" clip-rule="evenodd" d="M12.501 9.492C12.4875 8.63019 11.9876 8.03424 11.3249 7.71918C10.6838 7.41437 9.883 7.36084 9.13618 7.51019C8.40815 7.65576 7.60285 7.65759 6.87727 7.51166C6.12702 7.36078 5.32343 7.41315 4.68012 7.71753C4.01521 8.03217 3.51386 8.62854 3.49995 9.49188C3.47785 10.8582 4.29829 11.6174 5.11213 12.2141C5.28169 12.3384 5.44258 12.4503 5.59919 12.5593L5.60505 12.5633C5.69966 12.629 5.79279 12.6938 5.88545 12.7596C6.02986 12.8622 6.17329 12.9673 6.31953 13.0831C6.69612 13.381 7.0196 13.6975 7.25739 14.0832C7.44026 14.38 7.76277 14.4742 7.99995 14.4744C8.23713 14.4744 8.55976 14.3804 8.74287 14.0837C8.98103 13.6978 9.30476 13.3812 9.68134 13.0833C9.92158 12.8932 10.1539 12.7317 10.3956 12.5637C10.5053 12.4873 10.617 12.4097 10.7322 12.3275C10.7836 12.2907 10.8358 12.2531 10.8887 12.2142C11.7026 11.6174 12.5228 10.8583 12.501 9.492ZM9.33222 8.49078C9.91914 8.37341 10.4918 8.4303 10.8956 8.62231C11.2779 8.80402 11.4946 9.09119 11.5012 9.50787C11.5147 10.3605 11.0539 10.8531 10.2974 11.4078C10.1688 11.5021 10.0228 11.604 9.86958 11.7108C9.60395 11.8962 9.31684 12.0966 9.06098 12.299C8.68232 12.5985 8.30622 12.9493 8.00031 13.3925C7.69477 12.9493 7.31867 12.5984 6.94001 12.2988C6.85529 12.2318 6.76716 12.165 6.67756 12.099C6.49629 11.9653 6.30879 11.8345 6.13093 11.7104C6.01472 11.6293 5.90254 11.551 5.7989 11.4767C5.76618 11.4533 5.73432 11.4303 5.70344 11.4077C4.94685 10.853 4.48603 10.3605 4.49983 9.508C4.50654 9.0907 4.72383 8.80316 5.10786 8.62146C5.51362 8.4295 6.08906 8.37317 6.68012 8.492C7.53767 8.66449 8.47663 8.66187 9.33222 8.49078Z" fill="black"/>
</svg>
