<svg width="16" height="16" viewBox="0 0 16 16" fill="none" xmlns="http://www.w3.org/2000/svg">
<path fill-rule="evenodd" clip-rule="evenodd" d="M8.5 1C7.97232 1 7.58399 1.08115 7.28422 1.20943C7.06358 1.30385 6.90797 1.41718 6.79789 1.5101C6.20346 1.56921 5.65539 1.88176 5.25354 2.29172C4.81796 2.7361 4.5 3.35031 4.5 4.00434C4.5 5.01892 5.09674 5.57569 5.52093 5.82495C5.68024 7.05212 6.72943 7.99995 8 7.99995C9.29869 7.99995 10.3661 7.0097 10.4883 5.74306C10.5101 5.72798 10.5315 5.71098 10.5526 5.6919C11.5676 4.77139 11.641 3.56502 11.1482 2.61399C10.6708 1.69279 9.66028 1 8.5 1ZM7.36614 2.34276C7.45588 2.26055 7.53443 2.19008 7.67764 2.12879C7.82598 2.06531 8.0746 2 8.5 2C9.26231 2 9.94331 2.46232 10.2603 3.07406C10.4671 3.4731 10.5181 3.92975 10.3197 4.36786C10.2899 4.30347 10.2558 4.23974 10.217 4.17769C9.98347 3.80433 9.58127 3.50434 8.98709 3.50434C8.76561 3.50434 8.47319 3.50376 8.17581 3.4627C7.87115 3.42063 7.61603 3.34259 7.44596 3.22375C7.37622 3.17502 7.26387 3.10329 7.12573 3.06227C6.97754 3.01827 6.77149 3.00261 6.56468 3.11358C6.2138 3.30186 5.96676 3.68893 5.80892 4.04824C5.7391 4.20719 5.67862 4.37912 5.63014 4.55794C5.55274 4.4141 5.5 4.23225 5.5 4.00434C5.5 3.67122 5.66927 3.29616 5.96768 2.99173C6.26604 2.68734 6.63935 2.50892 6.97428 2.50033C7.11118 2.49682 7.25283 2.44658 7.36614 2.34276ZM9.5 5.08598C9.47805 4.95137 9.43551 4.81408 9.36913 4.70794C9.29291 4.58608 9.19112 4.50434 8.98709 4.50434H8.9799C8.76118 4.50435 8.40879 4.50436 8.03903 4.4533C7.69429 4.40569 7.28562 4.30792 6.93833 4.0869C6.87763 4.15956 6.80084 4.27659 6.72448 4.45043C6.60377 4.72522 6.51951 5.06367 6.50297 5.38618C6.50237 5.39784 6.50138 5.40952 6.5 5.42119V5.49995C6.5 6.32838 7.17157 6.99995 8 6.99995C8.82843 6.99995 9.5 6.32838 9.5 5.49995V5.08598Z" fill="black"/>
<path fill-rule="evenodd" clip-rule="evenodd" d="M5.73543 9C5.89903 9 6.05009 9.08766 6.13126 9.22971L6.77199 10.351L6.99611 9.45448C7.06289 9.18738 7.30288 9 7.5782 9H8.42204C8.69736 9 8.93735 9.18738 9.00413 9.45448L9.22818 10.3507L9.86874 9.22971C9.94991 9.08766 10.101 9 10.2646 9C11.7753 9 13 10.2247 13 11.7354V13.2857C13 14.2325 12.2325 15 11.2857 15H4.71429C3.76751 15 3 14.2325 3 13.2857V11.7354C3 10.2247 4.22469 9 5.73543 9ZM12 11.7354V13.2857C12 13.6802 11.6802 14 11.2857 14H4.71429C4.3198 14 4 13.6802 4 13.2857V11.7354C4 10.8796 4.6195 10.1685 5.43453 10.026L7.04493 12.8442C7.46722 13.5832 8.53279 13.5832 8.95507 12.8442L10.5655 10.026C11.3805 10.1685 12 10.8796 12 11.7354ZM8.51112 11.6055L8.10973 10H7.89051L7.48905 11.6058L7.91318 12.3481C7.95157 12.4152 8.04843 12.4152 8.08682 12.3481L8.51112 11.6055Z" fill="black"/>
</svg>
