<svg width="16" height="16" viewBox="0 0 16 16" fill="none" xmlns="http://www.w3.org/2000/svg">
<path fill-rule="evenodd" clip-rule="evenodd" d="M4.5 3V13H11.5V3H4.5ZM4 2C3.72386 2 3.5 2.22386 3.5 2.5V13.5C3.5 13.7761 3.72386 14 4 14H12C12.2761 14 12.5 13.7761 12.5 13.5V2.5C12.5 2.22386 12.2761 2 12 2H4ZM10 10.5V11.5H6V10.5H10ZM6.5 7C6.5 6.17157 7.17157 5.5 8 5.5C8.82843 5.5 9.5 6.17157 9.5 7C9.5 7.82843 8.82843 8.5 8 8.5C7.17157 8.5 6.5 7.82843 6.5 7ZM8 4.5C6.61929 4.5 5.5 5.61929 5.5 7C5.5 8.38071 6.61929 9.5 8 9.5C9.38071 9.5 10.5 8.38071 10.5 7C10.5 5.61929 9.38071 4.5 8 4.5Z" fill="black"/>
</svg>
