<svg width="16" height="16" viewBox="0 0 16 16" fill="none" xmlns="http://www.w3.org/2000/svg">
<path fill-rule="evenodd" clip-rule="evenodd" d="M12.0174 3.91398L10.4001 4.0276L5.35723 9.0797L6.86325 10.5857L11.8885 5.51359L12.0174 3.91398ZM12.4115 2.88384C12.7778 2.8581 13.0811 3.16453 13.0516 3.53057L12.8735 5.73955C12.8621 5.8806 12.8013 6.0131 12.7017 6.11363L7.50141 11.3624L8.16724 12.0546C8.35867 12.2536 8.35253 12.5701 8.15351 12.7616C7.9545 12.953 7.63798 12.9469 7.44654 12.7479L6.53246 11.7976L4.57045 13.7596C4.17992 14.1501 3.54676 14.1501 3.15623 13.7596L2.26555 12.8689C1.87503 12.4784 1.87502 11.8452 2.26555 11.4547L4.27231 9.44794L3.44857 8.59159C3.25713 8.39257 3.26327 8.07605 3.46229 7.88461C3.66131 7.69318 3.97783 7.69932 4.16926 7.89834L4.63756 8.38518L9.79804 3.2152C9.90033 3.11272 10.0362 3.05069 10.1807 3.04055L12.4115 2.88384ZM4.96569 10.1688L2.97266 12.1618L3.86334 13.0525L5.83908 11.0768L4.96569 10.1688Z" fill="black"/>
</svg>
