<svg width="16" height="16" viewBox="0 0 16 16" fill="none" xmlns="http://www.w3.org/2000/svg">
<path fill-rule="evenodd" clip-rule="evenodd" d="M7.5 4C7.77614 4 8 3.77614 8 3.5C8 3.22386 7.77614 3 7.5 3H2C1.72386 3 1.5 3.22386 1.5 3.5C1.5 3.77614 1.72386 4 2 4H3.4998L3.49981 8.11176C3.3575 8.15098 3.22139 8.20291 3.09558 8.27108C2.8705 8.39303 2.62007 8.59941 2.47885 8.92946C2.33509 9.26545 2.36244 9.59386 2.44075 9.84465C2.57813 10.2846 2.91226 10.6286 3.17442 10.8586C3.47009 11.1179 3.83985 11.3722 4.24396 11.6105C4.76167 11.9157 5.38654 12.2238 6.06673 12.4999L2.49999 12.4999C2.22385 12.4999 2 12.276 2 11.9999V11.5C2 11.2239 1.77614 11 1.5 11C1.22386 11 1 11.2239 1 11.5V11.9999C1 12.8283 1.67156 13.4999 2.49998 13.4999L9.99999 13.5C10.038 13.5 10.0751 13.4958 10.1107 13.4877C10.242 13.4946 10.3718 13.4981 10.4999 13.4981H12.1378C12.7735 13.4981 13.3765 13.3992 13.8315 13.0976C14.0747 12.9364 14.2966 12.7018 14.4192 12.3842C14.5429 12.0635 14.5334 11.7407 14.4514 11.4646C14.2982 10.9483 13.9014 10.5862 13.5345 10.3713C13.3612 10.2697 13.1695 10.1853 12.9646 10.1228C12.816 9.73303 12.5816 9.36066 12.3002 9.05102C11.7853 8.48443 10.9977 8 9.99981 8H7.24384L6.04383 4L7.5 4ZM4.49981 9L4.4998 4H4.9998L6.49981 9H9.99981C10.7973 9 11.4159 9.46772 11.778 10L10 10C9.72386 10 9.5 10.2239 9.5 10.5C9.5 10.7761 9.72386 11 10 11H12.1378C13.4998 11 14.3891 12.4981 12.1378 12.4981H10.4999C6.76851 12.4981 0.903245 9 4.49981 9Z" fill="black"/>
</svg>
