<svg width="16" height="16" viewBox="0 0 16 16" fill="none" xmlns="http://www.w3.org/2000/svg">
<path fill-rule="evenodd" clip-rule="evenodd" d="M4 8.5V3H12V8.5C12 9.95983 11.1752 11.2944 9.8695 11.9472L8 12.882L6.1305 11.9472C4.82479 11.2944 4 9.95983 4 8.5ZM3 2.5C3 2.22386 3.22386 2 3.5 2H12.5C12.7761 2 13 2.22386 13 2.5V8.5C13 10.3386 11.9612 12.0194 10.3167 12.8416L8.20681 13.8966C8.07662 13.9617 7.92338 13.9617 7.79319 13.8966L5.68328 12.8416C4.03879 12.0194 3 10.3386 3 8.5V2.5ZM8 5H6V7C6 7.27614 5.77614 7.5 5.5 7.5C5.22386 7.5 5 7.27614 5 7V4.6C5 4.26863 5.26863 4 5.6 4H8C8.27614 4 8.5 4.22386 8.5 4.5C8.5 4.77614 8.27614 5 8 5Z" fill="black"/>
</svg>
