<svg width="16" height="16" viewBox="0 0 16 16" fill="none" xmlns="http://www.w3.org/2000/svg">
<path fill-rule="evenodd" clip-rule="evenodd" d="M5.38186 4.75068C5.40597 4.60602 5.53113 4.5 5.67778 4.5H10.3224C10.469 4.5 10.5942 4.60602 10.6183 4.75068L10.9098 6.5H5.09031L5.38186 4.75068ZM4.49186 7.5C4.49776 7.5001 4.50363 7.5001 4.50949 7.5H11.4907C11.4965 7.5001 11.5024 7.5001 11.5083 7.5H12.2C12.3657 7.5 12.5 7.63432 12.5 7.8V10.2C12.5 10.3657 12.3657 10.5 12.2 10.5H3.8C3.63431 10.5 3.5 10.3657 3.5 10.2V7.8C3.5 7.63431 3.63431 7.5 3.8 7.5H4.49186ZM4.07651 6.5L4.39547 4.58628C4.49994 3.95944 5.04229 3.5 5.67778 3.5H10.3224C10.9579 3.5 11.5002 3.95944 11.6047 4.58628L11.9236 6.5H12.2C12.918 6.5 13.5 7.08203 13.5 7.8V10.2C13.5 10.9012 12.9448 11.4728 12.25 11.4991V12C12.25 12.4142 11.9142 12.75 11.5 12.75C11.0858 12.75 10.75 12.4142 10.75 12V11.5H5.25V12C5.25 12.4142 4.91421 12.75 4.5 12.75C4.08579 12.75 3.75 12.4142 3.75 12V11.4991C3.0552 11.4728 2.5 10.9012 2.5 10.2V7.8C2.5 7.08203 3.08203 6.5 3.8 6.5H4.07651ZM2 5C1.72386 5 1.5 5.22386 1.5 5.5C1.5 5.77614 1.72386 6 2 6H3C3.27614 6 3.5 5.77614 3.5 5.5C3.5 5.22386 3.27614 5 3 5H2ZM5 8.5C4.72386 8.5 4.5 8.72386 4.5 9C4.5 9.27614 4.72386 9.5 5 9.5H6C6.27614 9.5 6.5 9.27614 6.5 9C6.5 8.72386 6.27614 8.5 6 8.5H5ZM9.5 9C9.5 8.72386 9.72386 8.5 10 8.5H11C11.2761 8.5 11.5 8.72386 11.5 9C11.5 9.27614 11.2761 9.5 11 9.5H10C9.72386 9.5 9.5 9.27614 9.5 9ZM12.5 5.5C12.5 5.22386 12.7239 5 13 5H14C14.2761 5 14.5 5.22386 14.5 5.5C14.5 5.77614 14.2761 6 14 6H13C12.7239 6 12.5 5.77614 12.5 5.5Z" fill="black"/>
</svg>
