<svg width="16" height="16" viewBox="0 0 16 16" fill="none" xmlns="http://www.w3.org/2000/svg">
<path fill-rule="evenodd" clip-rule="evenodd" d="M3 3C2.44771 3 2 3.44772 2 4V12C2 12.5523 2.44772 13 3 13H13C13.5523 13 14 12.5523 14 12V4C14 3.44772 13.5523 3 13 3H3ZM3 4L13 4V8.5H10.0667C9.82725 8.5 9.60306 8.64355 9.51044 8.87712C9.43138 9.07651 9.3217 9.3511 9.09954 9.58324C8.89389 9.79811 8.56846 10 8 10C7.43154 10 7.10611 9.79811 6.90046 9.58324C6.6783 9.3511 6.56862 9.07651 6.48956 8.87712C6.39694 8.64355 6.17275 8.5 5.93333 8.5H3V4ZM3 9.5V12H13V9.5H10.3339C10.2337 9.72027 10.0748 10.0105 9.82199 10.2747C9.43382 10.6802 8.85001 11 8 11C7.14999 11 6.56618 10.6802 6.17801 10.2747C5.9252 10.0105 5.7663 9.72027 5.66608 9.5H3ZM12 6H4V5H12V6ZM4 7.5H12V6.5H4V7.5Z" fill="black"/>
</svg>
