<svg width="16" height="16" viewBox="0 0 16 16" fill="none" xmlns="http://www.w3.org/2000/svg">
<path d="M10.3738 5.33215C10.5571 5.12585 10.5386 4.80981 10.3323 4.62634C10.2153 4.52246 10.0635 4.4834 9.92041 4.50635C9.81055 4.52405 9.70581 4.57825 9.62622 4.66785L5.62622 9.16785C5.44287 9.37427 5.46143 9.69031 5.66772 9.87366C5.87427 10.0571 6.19019 10.0386 6.37378 9.83215L10.3738 5.33215Z" fill="black"/>
<path d="M7.5 5.5C7.5 6.05225 7.05225 6.5 6.5 6.5C5.94775 6.5 5.5 6.05225 5.5 5.5C5.5 4.94775 5.94775 4.5 6.5 4.5C7.05225 4.5 7.5 4.94775 7.5 5.5Z" fill="black"/>
<path d="M9.5 10C10.0522 10 10.5 9.55225 10.5 9C10.5 8.44775 10.0522 8 9.5 8C8.94775 8 8.5 8.44775 8.5 9C8.5 9.55225 8.94775 10 9.5 10Z" fill="black"/>
<path fill-rule="evenodd" clip-rule="evenodd" d="M12 2H4C3.44775 2 3 2.44775 3 3V8.65588C3 8.94031 3.02588 9.224 3.07764 9.50366L3.12622 9.7677C3.36426 11.0566 4.1355 12.1851 5.25 12.875L7.49121 14.1993C7.80518 14.3848 8.19482 14.3848 8.50879 14.1993L10.75 12.875C11.8645 12.1851 12.6357 11.0566 12.8738 9.7677L12.9224 9.50366C12.9741 9.224 13 8.94031 13 8.65588V3C13 2.44775 12.5522 2 12 2ZM4.06104 9.32202C4.02051 9.10229 4 8.87939 4 8.65588V3H12V8.65588C12 8.87939 11.9795 9.10229 11.939 9.32202L11.8904 9.58618C11.7041 10.5945 11.1021 11.4778 10.2319 12.0197L8 13.3385L5.76807 12.0197C4.89795 11.4778 4.2959 10.5945 4.10962 9.58618L4.06104 9.32202Z" fill="black"/>
</svg>
