<svg width="16" height="16" viewBox="0 0 16 16" fill="none" xmlns="http://www.w3.org/2000/svg">
<path fill-rule="evenodd" clip-rule="evenodd" d="M10.1957 1.82492C10.3905 1.62925 10.7071 1.62859 10.9028 1.82345L11.885 2.80158L12.8672 1.82345C13.0628 1.62859 13.3794 1.62925 13.5743 1.82492C13.7691 2.02058 13.7685 2.33716 13.5728 2.53202L12.5935 3.50722L13.5728 4.48242C13.7685 4.67727 13.7691 4.99385 13.5743 5.18952C13.3794 5.38519 13.0628 5.38585 12.8672 5.19099L11.885 4.21286L10.9028 5.19099C10.7071 5.38585 10.3905 5.38519 10.1957 5.18952C10.0008 4.99385 10.0015 4.67727 10.1971 4.48242L11.1764 3.50722L10.1971 2.53202C10.0015 2.33716 10.0008 2.02058 10.1957 1.82492ZM10.3255 12.6286C8.02294 12.4224 6.59785 11.1407 5.56961 10.1056C4.55324 9.08247 3.21559 7.40915 3.03252 5.10477C2.99649 4.65122 3.17649 4.17545 3.54918 3.80828L4.14206 3.22418C4.46955 2.90155 4.89666 2.93505 5.10112 3.14087L6.2785 4.32607C6.48297 4.53189 6.512 4.95757 6.18452 5.2802L5.48461 5.96975C5.29888 6.15272 5.09933 6.48514 5.20985 6.87423C5.35626 7.38962 5.81232 8.25243 6.62265 9.06814C7.43302 9.88389 8.29454 10.3472 8.81043 10.4986C9.19992 10.6128 9.53585 10.4177 9.72158 10.2347L10.4215 9.54516C10.749 9.22253 11.1761 9.25603 11.3806 9.46185L12.5579 10.647C12.7624 10.8529 12.7914 11.2786 12.4639 11.6012L11.8731 12.1833C11.4192 12.6199 10.8779 12.6781 10.3255 12.6286ZM4.85724 10.8074C5.9212 11.8784 7.56217 13.383 10.2357 13.6225C10.9119 13.6831 11.8122 13.6314 12.5721 12.8984L13.1687 12.3106C13.8162 11.6727 13.9328 10.6122 13.2703 9.94524L12.0929 8.76004C11.4304 8.09311 10.3643 8.19779 9.71673 8.83572L9.02347 9.51871C8.66955 9.39531 7.99853 9.03425 7.33502 8.36633C6.67148 7.69839 6.31612 7.02636 6.19602 6.67264L6.88928 5.98965C7.53681 5.35171 7.6534 4.29119 6.99087 3.62426L5.81349 2.43906C5.15096 1.77213 4.08483 1.87681 3.4373 2.51474L2.84442 3.09884C2.28069 3.65422 1.97226 4.41158 2.03357 5.18343C2.24453 7.83901 3.78142 9.72443 4.85724 10.8074Z" fill="black"/>
</svg>
