<svg width="16" height="16" viewBox="0 0 16 16" fill="none" xmlns="http://www.w3.org/2000/svg">
<path fill-rule="evenodd" clip-rule="evenodd" d="M4 2C3.75544 2 3.49862 2.07663 3.29905 2.26564C3.09508 2.45882 3 2.723 3 3L3 8.31783C3 8.79129 3.52269 9.07822 3.92213 8.82403L8.53761 5.88691C8.67589 5.95915 8.83317 6 9 6C9.55228 6 10 5.55228 10 5C10 4.44772 9.55228 4 9 4C8.44772 4 8 4.44772 8 5C8 5.01445 8.00031 5.02883 8.00091 5.04313L4 7.58916L4 3H12L12.0073 3.00014V4.5C12.0073 4.77614 12.2311 5 12.5073 5C12.7834 5 13.0073 4.77614 13.0073 4.5V3C13.0073 2.71787 12.9069 2.45339 12.7009 2.26221C12.5005 2.07619 12.244 2 12 2H4ZM13.0005 6.68009C12.9992 6.20742 12.4772 5.92187 12.0784 6.17563L7.46239 9.11309C7.32411 9.04085 7.16683 9 7 9C6.44772 9 6 9.44772 6 10C6 10.5523 6.44772 11 7 11C7.55228 11 8 10.5523 8 10C8 9.98555 7.99969 9.97117 7.99909 9.95687L12.0026 7.40916L12.0073 9.00077C12.0072 9.20672 11.9919 9.29862 11.9505 9.53765L11.9267 9.67442C11.8462 10.1386 11.5844 10.6506 11.2155 11.1301C10.8519 11.6029 10.4117 12.0084 10.0186 12.269L7.99971 13.4865L6.27132 12.4588C6.07854 12.3442 5.90499 12.2321 5.74978 12.1071C5.51852 11.9208 5.18799 11.6314 4.91977 11.3103C4.63331 10.9674 4.5 10.6845 4.5 10.5C4.50001 10.2239 4.27615 10 4.00001 10C3.72386 10 3.50001 10.2239 3.5 10.5C3.5 11.0602 3.84206 11.58 4.15232 11.9514C4.48081 12.3447 4.86835 12.6812 5.12252 12.8859C5.3314 13.0541 5.55118 13.194 5.76023 13.3183L7.52426 14.3673C7.81855 14.5491 8.18328 14.5488 8.47732 14.3663L10.5525 13.1148L10.5609 13.1093C11.0557 12.7832 11.5796 12.297 12.0082 11.7398C12.4341 11.186 12.7941 10.5252 12.912 9.84527L12.9358 9.7085C12.9796 9.45562 13.0073 9.29511 13.0073 9L13.0005 6.68009Z" fill="black"/>
</svg>
