<svg width="16" height="16" viewBox="0 0 16 16" fill="none" xmlns="http://www.w3.org/2000/svg">
<path fill-rule="evenodd" clip-rule="evenodd" d="M1 2C1 1.44772 1.44771 1 2 1H9C9.55229 1 10 1.44772 10 2V3.73684C10 4.28913 9.55229 4.73684 9 4.73684H8.1579V7.84211H11.2632V7C11.2632 6.44771 11.7109 6 12.2632 6H14C14.5523 6 15 6.44771 15 7V14C15 14.5523 14.5523 15 14 15H12.2632C11.7109 15 11.2632 14.5523 11.2632 14V12.9474H7.55263C5.06735 12.9474 3.05263 10.9326 3.05263 8.44737V4.73684H2C1.44772 4.73684 1 4.28913 1 3.73684V2ZM2 2V3.73684H4.05263V8.44737C4.05263 10.3804 5.61964 11.9474 7.55263 11.9474H12.2632V14H14V7L12.2632 7V8.84211H8.15789C7.60561 8.84211 7.1579 8.39439 7.1579 7.84211V3.73684L9 3.73684V2L2 2ZM6.29009 8.20167C6.39676 8.56418 6.18936 8.94453 5.82685 9.0512C5.46434 9.15787 5.08399 8.95047 4.97732 8.58796C4.87065 8.22545 5.07805 7.8451 5.44056 7.73843C5.80307 7.63176 6.18342 7.83916 6.29009 8.20167ZM7.1953 11.1038C7.55781 10.9972 7.76521 10.6168 7.65853 10.2543C7.55186 9.89179 7.17152 9.68439 6.80901 9.79106C6.4465 9.89773 6.2391 10.2781 6.34577 10.6406C6.45244 11.0031 6.83279 11.2105 7.1953 11.1038Z" fill="black"/>
</svg>
