<svg width="16" height="16" viewBox="0 0 16 16" fill="none" xmlns="http://www.w3.org/2000/svg">
<path fill-rule="evenodd" clip-rule="evenodd" d="M3.54331 3.79639C3.58719 3.69765 3.66325 3.61235 3.76616 3.55787C5.12317 2.83946 8.65602 1.86259 12.2141 3.548C12.3262 3.60106 12.4094 3.69038 12.4563 3.79528C12.4701 3.81324 12.483 3.8322 12.4949 3.85214L13.9023 6.19775C14.0029 6.36537 14.0155 6.57148 13.9361 6.75012L12.0117 11.0802C11.8486 11.4472 11.3779 11.5535 11.0729 11.2921L8.00016 8.65816L4.92755 11.292C4.6226 11.5535 4.1519 11.4472 3.98877 11.0802L2.0644 6.75012C1.98502 6.57149 1.99763 6.36537 2.0982 6.19775L3.50556 3.85214C3.51729 3.83261 3.5299 3.81402 3.54331 3.79639ZM11.1221 4.17064C8.6232 3.23426 6.21331 3.66176 4.86964 4.16189L8.00032 7.29257L11.1221 4.17064ZM4.09948 4.80594L3.06265 6.53398L4.68448 10.1833L7.26487 7.97134L4.09948 4.80594ZM11.901 4.80595L12.9378 6.53398L11.316 10.1833L8.73562 7.97148L11.901 4.80595Z" fill="black"/>
<path d="M7.5 10.4999H8.5V11.4999H7.5V10.4999Z" fill="black"/>
<path d="M8.5 12.4999H7.5V13.4999H8.5V12.4999Z" fill="black"/>
</svg>
