<svg width="16" height="16" viewBox="0 0 16 16" fill="none" xmlns="http://www.w3.org/2000/svg">
<path fill-rule="evenodd" clip-rule="evenodd" d="M10.0761 3.851C9.50742 3.27647 8.5927 3.25658 8 3.78881C7.4073 3.25658 6.49258 3.27647 5.92388 3.851C5.13767 4.64527 3.85542 4.64855 3.06516 3.8583L2.94523 3.73836C2.59642 3.38955 2 3.63659 2 4.12989V8.00022C2 8.73192 2.13808 9.46493 2.57874 10.1542C3.01678 10.8393 3.72381 11.4343 4.77876 11.9486C6.80756 12.9621 9.19509 12.9617 11.2236 11.9474C12.2764 11.4211 12.9827 10.8268 13.4206 10.1456C13.8617 9.4595 14 8.73256 14 8.00024V4.12989C14 3.63659 13.4036 3.38955 13.0548 3.73836L12.9348 3.85829C12.1446 4.64854 10.8623 4.64527 10.0761 3.851ZM12.5794 9.60485C12.2673 10.0903 11.7236 10.5794 10.7764 11.053C9.02861 11.9269 6.97139 11.9269 5.22361 11.053C4.5345 10.7129 3.8438 10.2764 3.42126 9.6155C3.11192 9.13166 3 8.60186 3 8.00022V5.05552C4.15589 5.71344 5.65344 5.5457 6.63459 4.55449C6.83386 4.35317 7.1595 4.3544 7.35724 4.55722L7.59404 4.80009C7.81656 5.02832 8.18344 5.02832 8.40596 4.80008L8.64276 4.55722C8.8405 4.3544 9.16614 4.35317 9.36541 4.55448C10.3466 5.5457 11.8441 5.71344 13 5.05552V8.00024C13 8.60125 12.8883 9.1243 12.5794 9.60485ZM7.35355 6.14669C7.15829 5.95143 6.84171 5.95143 6.64645 6.14669C6.45118 6.34195 6.45118 6.65854 6.64645 6.8538C7.01143 7.21878 7.52576 7.37524 8 7.37524C8.47424 7.37524 8.98857 7.21878 9.35355 6.8538C9.54882 6.65854 9.54882 6.34195 9.35355 6.14669C9.15829 5.95143 8.84171 5.95143 8.64645 6.14669C8.51143 6.2817 8.27576 6.37524 8 6.37524C7.72424 6.37524 7.48857 6.2817 7.35355 6.14669Z" fill="black"/>
</svg>
