<svg width="16" height="16" viewBox="0 0 16 16" fill="none" xmlns="http://www.w3.org/2000/svg">
<path fill-rule="evenodd" clip-rule="evenodd" d="M3 2.5C2.72386 2.5 2.5 2.72386 2.5 3V5.5C2.5 5.64596 2.56378 5.78464 2.6746 5.87963L6.38889 9.0633V13.5758C6.38889 13.7305 6.46051 13.8765 6.58287 13.9712C6.70522 14.0659 6.86452 14.0986 7.01429 14.0598L9.23652 13.484C9.45708 13.4269 9.61111 13.2278 9.61111 13V9.0633L13.3185 5.88556C13.4294 5.79385 13.5001 5.65518 13.5001 5.5C13.5001 5.49648 13.5001 5.49297 13.5 5.48947V3C13.5 2.72386 13.2761 2.5 13 2.5H3ZM12.5 5V3.5H3.5V5.27003L7.21428 8.4537C7.32511 8.5487 7.38889 8.68737 7.38889 8.83333V12.9297L8.61111 12.613V8.83333C8.61111 8.68737 8.67489 8.5487 8.78572 8.4537L11.6484 6H8.55566C8.27952 6 8.05566 5.77614 8.05566 5.5C8.05566 5.22386 8.27952 5 8.55566 5H12.5Z" fill="black"/>
</svg>
