<svg width="16" height="16" viewBox="0 0 16 16" fill="none" xmlns="http://www.w3.org/2000/svg">
<path fill-rule="evenodd" clip-rule="evenodd" d="M8.3538 2.64644C8.54906 2.84171 8.54906 3.15829 8.3538 3.35355C7.99923 3.70813 7.01194 5.38097 8.42899 7.74275C10.0554 10.4534 9.0043 12.7031 8.3538 13.3536C8.15853 13.5488 7.84195 13.5488 7.64669 13.3535C7.45143 13.1583 7.45143 12.8417 7.6467 12.6464C7.99622 12.2969 8.94511 10.5466 7.5715 8.25725C5.89475 5.46263 7.00128 3.29187 7.64669 2.64645C7.84195 2.45119 8.15854 2.45118 8.3538 2.64644ZM11.8536 2.64644C12.0488 2.84171 12.0488 3.15829 11.8536 3.35355C11.499 3.70813 10.5117 5.38097 11.9288 7.74275C13.5551 10.4534 12.5041 12.7031 11.8536 13.3536C11.6583 13.5488 11.3417 13.5488 11.1464 13.3535C10.9512 13.1583 10.9512 12.8417 11.1465 12.6464C11.496 12.2969 12.4449 10.5466 11.0713 8.25725C9.3945 5.46263 10.501 3.29187 11.1464 2.64645C11.3417 2.45119 11.6583 2.45118 11.8536 2.64644ZM4.85356 3.35355C5.04882 3.15829 5.04882 2.84171 4.85355 2.64644C4.65829 2.45118 4.34171 2.45119 4.14645 2.64645C3.50103 3.29187 2.3945 5.46263 4.07126 8.25725C5.44486 10.5466 4.49597 12.2969 4.14645 12.6464C3.95119 12.8417 3.95119 13.1583 4.14645 13.3535C4.34171 13.5488 4.65829 13.5488 4.85355 13.3536C5.50406 12.7031 6.55512 10.4534 4.92875 7.74275C3.51169 5.38097 4.49899 3.70813 4.85356 3.35355Z" fill="black"/>
</svg>
