<svg width="16" height="16" viewBox="0 0 16 16" fill="none" xmlns="http://www.w3.org/2000/svg">
<path fill-rule="evenodd" clip-rule="evenodd" d="M6.47423 2.65825C6.56156 2.39628 6.41998 2.11312 6.15801 2.02579C5.89603 1.93847 5.61287 2.08005 5.52555 2.34202L4.63948 5.00024H2.59021C2.28124 5.00024 2.04622 5.27768 2.09701 5.58244L3.43035 13.5824C3.47053 13.8235 3.67913 14.0002 3.92355 14.0002H12.0764C12.3208 14.0002 12.5294 13.8235 12.5696 13.5824L13.9029 5.58244C13.9537 5.27768 13.7187 5.00024 13.4098 5.00024H11.3603L10.4742 2.34202C10.3869 2.08005 10.1037 1.93847 9.84178 2.02579C9.57981 2.11312 9.43823 2.39628 9.52555 2.65825L10.3062 5.00024H5.69357L6.47423 2.65825ZM4.99478 6.00024C4.99824 6.00028 5.00169 6.00028 5.00514 6.00024H10.9946C10.9981 6.00028 11.0015 6.00028 11.005 6.00024H12.8195L11.6529 13.0002H4.34711L3.18044 6.00024H4.99478ZM5.5 8.00024C5.22386 8.00024 5 8.2241 5 8.50024C5 8.77639 5.22386 9.00024 5.5 9.00024H10.5C10.7761 9.00024 11 8.77639 11 8.50024C11 8.2241 10.7761 8.00024 10.5 8.00024H5.5ZM5 10.5002C5 10.2241 5.22386 10.0002 5.5 10.0002H10.5C10.7761 10.0002 11 10.2241 11 10.5002C11 10.7764 10.7761 11.0002 10.5 11.0002H5.5C5.22386 11.0002 5 10.7764 5 10.5002Z" fill="black"/>
</svg>
