<svg width="16" height="16" viewBox="0 0 16 16" fill="none" xmlns="http://www.w3.org/2000/svg">
<path fill-rule="evenodd" clip-rule="evenodd" d="M2.6 2C2.26863 2 2 2.26863 2 2.6V4.5C2 4.77614 2.22386 5 2.5 5C2.77614 5 3 4.77614 3 4.5V3H4.5C4.77614 3 5 2.77614 5 2.5C5 2.22386 4.77614 2 4.5 2H2.6ZM2.6 14C2.26863 14 2 13.7314 2 13.4V11.5C2 11.2239 2.22386 11 2.5 11C2.77614 11 3 11.2239 3 11.5V13H4.5C4.77614 13 5 13.2239 5 13.5C5 13.7761 4.77614 14 4.5 14H2.6ZM14 2.6C14 2.26863 13.7314 2 13.4 2H11.5C11.2239 2 11 2.22386 11 2.5C11 2.77614 11.2239 3 11.5 3H13V4.5C13 4.77614 13.2239 5 13.5 5C13.7761 5 14 4.77614 14 4.5V2.6ZM13.4 14C13.7314 14 14 13.7314 14 13.4V11.5C14 11.2239 13.7761 11 13.5 11C13.2239 11 13 11.2239 13 11.5V13H11.5C11.2239 13 11 13.2239 11 13.5C11 13.7761 11.2239 14 11.5 14H13.4ZM5 8V10H11V8H5ZM5 7H11V6H5V7ZM4 5.8C4 5.35817 4.35817 5 4.8 5H11.2C11.6418 5 12 5.35817 12 5.8V10.2C12 10.6418 11.6418 11 11.2 11H4.8C4.35817 11 4 10.6418 4 10.2V5.8Z" fill="black"/>
</svg>
