<svg width="16" height="16" viewBox="0 0 16 16" fill="none" xmlns="http://www.w3.org/2000/svg">
<path fill-rule="evenodd" clip-rule="evenodd" d="M13.0009 6.40418L13.0015 6C13.0015 4.34315 11.6583 3 10.0015 3H6.00146C4.34461 3 3.00146 4.34315 3.00146 6L3.00096 6.41732C2.14501 6.73238 1.53882 7.5585 1.53882 8.51996C1.53882 9.28018 1.91781 9.95579 2.49959 10.361V11.9999L2.49933 12.0119C2.49706 12.0957 2.48571 12.5131 2.72278 12.879C3.04845 13.3819 3.58701 13.4999 3.99959 13.4999L11.4929 13.5L11.5002 13.5H12.0001C12.4127 13.5 12.9512 13.382 13.2769 12.8792C13.514 12.5132 13.5026 12.0958 13.5003 12.012L13.5001 12V10.3879C14.104 9.98601 14.5001 9.29726 14.5001 8.52008C14.5001 7.5448 13.8763 6.70878 13.0009 6.40418ZM6.00146 4C4.8969 4 4.00146 4.89543 4.00146 6C4.00146 6.11378 4.00106 6.21122 3.99986 6.29456C4.60524 6.36567 5.09028 6.7094 5.40907 7.09343C5.76694 7.52453 6.00008 8.10016 6.00008 8.69632V9.50024H10.0001V8.5C10.0001 7.3079 10.9326 6.42535 12.0015 6.29729V6C12.0015 4.89543 11.106 4 10.0015 4H6.00146ZM6.00008 11.9999C6.00008 12.1817 5.9638 12.3498 5.90672 12.5002L10.0972 12.5C10.0385 12.3523 10.0001 12.1847 10.0001 12V10.5002H6.00008V11.9999ZM12 12.5H11.5002C11.2737 12.5 11.0001 12.2281 11.0001 12V8.5C11.0001 8.1251 11.1771 7.79513 11.449 7.57341C11.6733 7.39049 11.9622 7.28125 12.2694 7.28125C12.9424 7.28125 13.4893 7.82507 13.4999 8.5L13.5001 8.52008C13.5001 9.12492 13.0695 9.62852 12.5001 9.7372V12C12.5001 12.2281 12.5 12.5 12 12.5ZM4.58987 7.67518C4.84164 7.94906 5.00008 8.32942 5.00008 8.69632L4.99998 11.9999C4.99998 12.2279 4.76511 12.4999 4.53856 12.4999H3.99959C3.49959 12.4999 3.49959 12.2279 3.49959 11.9999V9.72892C3.00546 9.61763 2.62353 9.20719 2.55119 8.69632C2.54304 8.63872 2.53882 8.57984 2.53882 8.51996C2.53882 7.91838 2.96477 7.41695 3.52963 7.30464C3.6072 7.28921 3.68739 7.28113 3.76945 7.28113C3.79136 7.28113 3.81313 7.28189 3.83475 7.28338C4.12427 7.30337 4.38728 7.4548 4.58987 7.67518Z" fill="black"/>
</svg>
