<svg width="16" height="16" viewBox="0 0 16 16" fill="none" xmlns="http://www.w3.org/2000/svg">
<path fill-rule="evenodd" clip-rule="evenodd" d="M4.78078 9L6.28078 3H9.71924L11.2192 9H4.78078ZM5.40532 2.37873C5.46096 2.15615 5.66096 2 5.89039 2H10.1096C10.3391 2 10.5391 2.15615 10.5947 2.37873L12.3447 9.37873C12.4236 9.69431 12.1849 10 11.8596 10H4.14039C3.8151 10 3.57642 9.69431 3.65531 9.37873L5.40532 2.37873ZM8.50001 11.5C8.50001 11.2239 8.27615 11 8.00001 11C7.72387 11 7.50001 11.2239 7.50001 11.5V13H6C5.72386 13 5.5 13.2239 5.5 13.5C5.5 13.7761 5.72386 14 6 14H8.00001H10C10.2762 14 10.5 13.7761 10.5 13.5C10.5 13.2239 10.2762 13 10 13H8.50001V11.5Z" fill="black"/>
</svg>
