<svg width="16" height="16" viewBox="0 0 16 16" fill="none" xmlns="http://www.w3.org/2000/svg">
<path d="M7.50291 8.8641C7.02561 9.14178 6.41358 8.97996 6.1359 8.50266C5.85822 8.02537 6.02004 7.41334 6.49734 7.13566C6.97463 6.85798 7.58666 7.0198 7.86434 7.49709C8.14202 7.97439 7.9802 8.58642 7.50291 8.8641Z" fill="black"/>
<path fill-rule="evenodd" clip-rule="evenodd" d="M12.8969 12.9999H3.4999C2.89897 13.0001 2.39099 12.6682 2.14893 12.1616C1.91979 11.6821 1.96421 11.1305 2.21942 10.6833L6.83909 2.58781C7.13066 2.07688 7.78015 1.87947 8.3107 2.16219C10.0211 3.07365 11.5054 4.45386 12.5486 6.24496C13.5932 8.03846 14.0485 9.99783 13.9961 11.9307C13.9797 12.5322 13.4862 12.9999 12.8969 12.9999ZM3.4999 11.9999C3.067 12.0004 2.87358 11.5546 3.08796 11.1789L3.3347 10.7465C3.64885 11.0266 4.11938 11.0872 4.50291 10.8641C4.9802 10.5864 5.14202 9.97439 4.86434 9.49709C4.73466 9.27418 4.53204 9.12007 4.30428 9.04742L6.66375 4.91271C6.68981 4.93273 6.71823 4.95046 6.74888 4.96548C8.02951 5.59289 9.1355 6.55231 9.90822 7.80131C10.4538 8.68308 10.7766 9.6202 10.9009 10.5671C10.9368 10.8409 11.1879 11.0337 11.4617 10.9977C11.7355 10.9618 11.9283 10.7107 11.8924 10.4369C11.7498 9.35081 11.3794 8.27854 10.7586 7.27518C9.88034 5.85556 8.62714 4.77213 7.18884 4.06746C7.17758 4.06194 7.16621 4.05689 7.15475 4.05229L7.70763 3.08344C7.73425 3.03678 7.793 3.01944 7.84041 3.04471C9.39211 3.87159 10.7377 5.12275 11.6845 6.74825C12.6312 8.37366 13.044 10.148 12.9964 11.9035C12.995 11.9573 12.9507 11.9999 12.8969 11.9999H9.77131C10.0569 11.5431 10.0862 10.9473 9.79645 10.4493C9.37993 9.73337 8.46189 9.49064 7.74594 9.90716C7.03 10.3237 6.78727 11.2417 7.20379 11.9577C7.21209 11.9719 7.22058 11.986 7.22927 11.9999H3.4999Z" fill="black"/>
</svg>
