<svg width="16" height="16" viewBox="0 0 16 16" fill="none" xmlns="http://www.w3.org/2000/svg">
<path fill-rule="evenodd" clip-rule="evenodd" d="M8.5 2C8.5 1.72386 8.27614 1.5 8 1.5C7.72386 1.5 7.5 1.72386 7.5 2V2.52125C4.48698 2.77815 2.05799 5.33113 2.00108 8.39038C1.99478 8.72927 2.26901 9 2.60006 9H7.5V12.75C7.5 12.8881 7.38807 13 7.25 13C7.11193 13 7 12.8881 7 12.75V12.5C7 12.2239 6.77614 12 6.5 12C6.22386 12 6 12.2239 6 12.5V12.75C6 13.4404 6.55964 14 7.25 14C7.94036 14 8.5 13.4404 8.5 12.75V9H13.4001C13.7311 9 14.0053 8.72927 13.999 8.39038C13.9421 5.33109 11.5131 2.77808 8.5 2.52124V2ZM8.00006 3.5C10.5551 3.5 12.7168 5.503 12.9744 8H8H3.02575C3.28336 5.503 5.44505 3.5 8.00006 3.5ZM9.00103 4.5C8.72814 4.49973 8.5 4.72689 8.5 5C8.5 5.27446 8.72115 5.49727 8.99497 5.49998C8.99497 5.49998 9.00167 5.50023 9.00954 5.50077C9.02536 5.50186 9.0524 5.50433 9.08803 5.50981C9.15996 5.52088 9.2626 5.54356 9.3768 5.58924C9.59999 5.67851 9.86826 5.85455 10.0528 6.22361C10.1763 6.4706 10.4766 6.57071 10.7236 6.44721C10.9706 6.32372 11.0707 6.02338 10.9472 5.77639C10.6317 5.14545 10.15 4.82149 9.7482 4.66076C9.5499 4.58144 9.37129 4.54162 9.24009 4.52144C9.17416 4.5113 9.11917 4.50595 9.07835 4.50314C9.0579 4.50173 9.0409 4.50094 9.02774 4.50051L9.01088 4.50009L9.00468 4.50002L9.00215 4.5L9.00103 4.5Z" fill="black"/>
</svg>
