<svg width="16" height="16" viewBox="0 0 16 16" fill="none" xmlns="http://www.w3.org/2000/svg">
<path fill-rule="evenodd" clip-rule="evenodd" d="M8 1.5C8.27614 1.5 8.5 1.72386 8.5 2V3.5C8.5 3.5075 8.49984 3.51496 8.49951 3.52238C9.41643 3.60492 10.2685 3.9125 11 4.38947V3.5C11 3.22386 11.2239 3 11.5 3C11.7761 3 12 3.22386 12 3.5V5C12 5.06615 11.9872 5.1293 11.9638 5.1871C12.9151 6.17581 13.5 7.5196 13.5 9C13.5 12.0376 11.0376 14.5 8 14.5C4.96243 14.5 2.5 12.0376 2.5 9C2.5 7.5196 3.08489 6.17581 4.03618 5.1871C4.01285 5.12931 4 5.06615 4 5V3.5C4 3.22386 4.22386 3 4.5 3C4.77614 3 5 3.22386 5 3.5V4.38947C5.73152 3.9125 6.58357 3.60492 7.50049 3.52238C7.50016 3.51496 7.5 3.5075 7.5 3.5V2C7.5 1.72386 7.72386 1.5 8 1.5ZM8 13.5C10.4853 13.5 12.5 11.4853 12.5 9C12.5 6.51472 10.4853 4.5 8 4.5C5.51472 4.5 3.5 6.51472 3.5 9C3.5 11.4853 5.51472 13.5 8 13.5ZM7.5 9V7H9C9.55228 7 10 7.44772 10 8C10 8.55228 9.55228 9 9 9H7.5ZM9 10C10.1046 10 11 9.10457 11 8C11 6.89543 10.1046 6 9 6H7.1C6.76863 6 6.5 6.26863 6.5 6.6V9H6C5.72386 9 5.5 9.22386 5.5 9.5C5.5 9.77614 5.72386 10 6 10H6.5V10.5H6C5.72386 10.5 5.5 10.7239 5.5 11C5.5 11.2761 5.72386 11.5 6 11.5H6.5V12C6.5 12.2761 6.72386 12.5 7 12.5C7.27614 12.5 7.5 12.2761 7.5 12V11.5H8.5C8.77614 11.5 9 11.2761 9 11C9 10.7239 8.77614 10.5 8.5 10.5H7.5V10H9Z" fill="black"/>
</svg>
