<svg width="16" height="16" viewBox="0 0 16 16" fill="none" xmlns="http://www.w3.org/2000/svg">
<path fill-rule="evenodd" clip-rule="evenodd" d="M9.91652 9.86485L9.90997 9.87139C9.58965 10.1917 9.0997 10.2695 8.69601 10.0646C8.16029 9.79258 7.45707 9.24891 6.91517 8.70701C6.38861 8.18045 5.85419 7.5269 5.57571 6.9784C5.37075 6.57471 5.44856 6.08475 5.76889 5.76441L6.42118 5.11212C6.48932 5.04398 6.48932 4.93785 6.42118 4.86972L5.251 3.69954C5.17699 3.62553 5.05253 3.62552 4.97852 3.69954L4.14123 4.53684C4.14127 4.53679 4.1414 4.53662 4.14123 4.53684C4.13754 4.54143 4.08541 4.60629 4.04125 4.76645C3.99803 4.9232 3.97887 5.11453 3.99581 5.30497C4.05625 5.98412 4.41093 6.76763 4.91719 7.53591C5.41229 8.28726 5.99087 8.93213 6.37563 9.31689C6.75035 9.69161 7.39156 10.2482 8.14322 10.7241C8.90898 11.2088 9.69975 11.5524 10.3915 11.614C10.5939 11.632 10.7867 11.6146 10.9383 11.5753C11.0785 11.5389 11.1369 11.4968 11.1458 11.4903C11.1463 11.49 11.1466 11.4898 11.1468 11.4896L11.9576 10.6548L11.9628 10.6496C12.0368 10.5756 12.0368 10.4512 11.9628 10.3772L10.7926 9.20701C10.7257 9.14011 10.6222 9.13889 10.554 9.20336L9.91652 9.86485ZM9.84312 8.49991C10.3018 8.04124 11.0411 8.04124 11.4997 8.49991L12.6699 9.67006C13.1344 10.1346 13.1344 10.8922 12.6699 11.3568L11.8536 12.1971C11.5357 12.515 10.9168 12.6647 10.3028 12.61C8.46076 12.4461 6.50434 10.8598 5.66852 10.024C4.83271 9.18818 3.16368 7.23567 2.99975 5.3936C2.94511 4.77958 3.11622 4.14763 3.43412 3.82973L4.27141 2.99243C4.73595 2.5279 5.49357 2.5279 5.95811 2.99243L7.12829 4.16261C7.58695 4.62128 7.58695 5.36057 7.12829 5.81923L6.476 6.47152C6.46171 6.48581 6.45824 6.50772 6.46737 6.52569C6.67719 6.93896 7.12841 7.50604 7.62227 7.9999C8.11613 8.49376 8.73541 8.96307 9.14871 9.17291C9.16668 9.18203 9.18859 9.17856 9.20288 9.16427L9.84312 8.49991Z" fill="black"/>
</svg>
