<svg width="16" height="16" viewBox="0 0 16 16" fill="none" xmlns="http://www.w3.org/2000/svg">
<path fill-rule="evenodd" clip-rule="evenodd" d="M5 4.5C5 4.22386 5.22386 4 5.5 4H10.5C10.7761 4 11 4.22386 11 4.5V5.4C11 5.73137 11.2686 6 11.6 6H12.5C12.7761 6 13 6.22386 13 6.5V11.5C13 11.7761 12.7761 12 12.5 12H3.5C3.22386 12 3 11.7761 3 11.5V6.5C3 6.22386 3.22386 6 3.5 6H4.4C4.73137 6 5 5.73137 5 5.4V4.5ZM5.5 3C4.67157 3 4 3.67157 4 4.5V5H3.5C2.67157 5 2 5.67157 2 6.5V11.5C2 12.3284 2.67157 13 3.5 13H12.5C13.3284 13 14 12.3284 14 11.5V6.5C14 5.67157 13.3284 5 12.5 5H12V4.5C12 3.67157 11.3284 3 10.5 3H5.5ZM9.5 8.5C9.5 9.32843 8.82843 10 8 10C7.17157 10 6.5 9.32843 6.5 8.5C6.5 7.67157 7.17157 7 8 7C8.82843 7 9.5 7.67157 9.5 8.5ZM10.5 8.5C10.5 9.88071 9.38071 11 8 11C6.61929 11 5.5 9.88071 5.5 8.5C5.5 7.11929 6.61929 6 8 6C9.38071 6 10.5 7.11929 10.5 8.5Z" fill="black"/>
</svg>
