<svg width="16" height="16" viewBox="0 0 16 16" fill="none" xmlns="http://www.w3.org/2000/svg">
<path d="M4.5 9H10.5C10.7761 9 11 8.77614 11 8.5C11 8.22386 10.7761 8 10.5 8H8V2C8 1.72386 7.77614 1.5 7.5 1.5C7.22386 1.5 7 1.72386 7 2V8H4.5C4.22386 8 4 8.22386 4 8.5C4 8.77614 4.22386 9 4.5 9Z" fill="black"/>
<path fill-rule="evenodd" clip-rule="evenodd" d="M10.1657 9.96313H4.5381L4.52154 9.96424C4.21895 9.98435 4.0361 10.1955 3.94918 10.3239C3.85197 10.4676 3.78276 10.6405 3.73179 10.8063C3.6281 11.1435 3.56571 11.5656 3.54661 11.9719C3.52766 12.3752 3.54925 12.8064 3.63881 13.1551C3.68289 13.3267 3.75279 13.5164 3.87239 13.6737C4.00002 13.8415 4.20994 14 4.50013 14H11.2804C11.9776 14 12.5468 13.6555 12.6802 13.0554C12.8074 12.4827 12.4726 11.9276 11.9188 11.6555C11.5755 11.4869 11.4027 11.3144 11.3016 11.1666C11.1954 11.0114 11.1444 10.8515 11.0837 10.6418C10.9601 10.2147 10.5703 9.96313 10.1657 9.96313ZM4.68763 11.1001C4.70519 11.043 4.72205 10.9978 4.73691 10.9631H10.1357C10.1961 11.1701 10.2842 11.4506 10.4764 11.7313C10.6874 12.0397 11.0013 12.3189 11.4779 12.5531C11.7102 12.6672 11.7103 12.8099 11.704 12.8385C11.6999 12.8567 11.6877 12.8871 11.6385 12.9197C11.586 12.9546 11.4767 13 11.2804 13H4.63616C4.62676 12.9747 4.61696 12.9436 4.60738 12.9063C4.55217 12.6913 4.529 12.3702 4.54551 12.0189C4.56188 11.6705 4.61518 11.3358 4.68763 11.1001Z" fill="black"/>
</svg>
