<svg width="16" height="16" viewBox="0 0 16 16" fill="none" xmlns="http://www.w3.org/2000/svg">
<path fill-rule="evenodd" clip-rule="evenodd" d="M13 8C13 10.7614 10.7614 13 8 13C5.23858 13 3 10.7614 3 8C3 5.23858 5.23858 3 8 3C10.7614 3 13 5.23858 13 8ZM14 8C14 11.3137 11.3137 14 8 14C4.68629 14 2 11.3137 2 8C2 4.68629 4.68629 2 8 2C11.3137 2 14 4.68629 14 8ZM6 5.75C5.58579 5.75 5.25 6.08579 5.25 6.5C5.25 6.91421 5.58579 7.25 6 7.25C6.41421 7.25 6.75 6.91421 6.75 6.5C6.75 6.08579 6.41421 5.75 6 5.75ZM9.25 6.5C9.25 6.08579 9.58579 5.75 10 5.75C10.4142 5.75 10.75 6.08579 10.75 6.5C10.75 6.91421 10.4142 7.25 10 7.25C9.58579 7.25 9.25 6.91421 9.25 6.5ZM5.50004 8.5H10.5C10.7762 8.5 10.9776 8.7252 10.8686 8.97893C10.5377 9.74952 9.58148 11 8.00004 11C6.4186 11 5.4624 9.74952 5.13143 8.97893C5.02246 8.7252 5.2239 8.5 5.50004 8.5Z" fill="black"/>
</svg>
