<svg width="16" height="16" viewBox="0 0 16 16" fill="none" xmlns="http://www.w3.org/2000/svg">
<path d="M5 5H13V12H5V11H6.5C6.77614 11 7 10.7761 7 10.5C7 10.2239 6.77614 10 6.5 10H2.5C2.22386 10 2 10.2239 2 10.5C2 10.7761 2.22386 11 2.5 11H4V12C4 12.5523 4.44772 13 5 13H13C13.5523 13 14 12.5523 14 12V5C14 4.44772 13.5523 4 13 4H5C4.44772 4 4 4.44772 4 5V6H5V5Z" fill="black"/>
<path d="M4 9V8H2.5C2.22386 8 2 7.77614 2 7.5C2 7.22386 2.22386 7 2.5 7H7.5C7.77614 7 8 7.22386 8 7.5C8 7.77614 7.77614 8 7.5 8H5V9H4Z" fill="black"/>
</svg>
