<svg width="16" height="16" viewBox="0 0 16 16" fill="none" xmlns="http://www.w3.org/2000/svg">
<path fill-rule="evenodd" clip-rule="evenodd" d="M3 2C3 1.72386 3.22386 1.5 3.5 1.5H12.5958C12.872 1.5 13.0958 1.72386 13.0958 2C13.0958 2.27614 12.872 2.5 12.5958 2.5H12.2836V6.04792H12.5958C12.872 6.04792 13.0958 6.27178 13.0958 6.54792C13.0958 6.82407 12.872 7.04792 12.5958 7.04792H12.2836V13.5H12.5958C12.872 13.5 13.0958 13.7239 13.0958 14C13.0958 14.2761 12.872 14.5 12.5958 14.5H3.5C3.22386 14.5 3 14.2761 3 14C3 13.7239 3.22386 13.5 3.5 13.5H3.81201V7.04792H3.5C3.22386 7.04792 3 6.82407 3 6.54792C3 6.27178 3.22386 6.04792 3.5 6.04792H3.81201V2.5H3.5C3.22386 2.5 3 2.27614 3 2ZM11.2836 2.51298V6.04792H4.81201V2.51298H11.2836ZM4.81201 13.4675V7.04792H11.2836V13.4675H4.81201ZM7.75616 10.3069C7.85583 10.1506 7.96 10.0074 8.07143 9.8567C8.18286 10.0074 8.28702 10.1506 8.38669 10.3069C8.571 10.596 8.64286 10.7929 8.64286 10.9286C8.64286 11.1162 8.57874 11.2545 8.49112 11.3439C8.40499 11.4318 8.26935 11.5 8.07143 11.5C7.87351 11.5 7.73787 11.4318 7.65174 11.3439C7.56412 11.2545 7.5 11.1162 7.5 10.9286C7.5 10.7929 7.57185 10.596 7.75616 10.3069ZM8.56573 8.83704C8.32576 8.49424 7.8171 8.49424 7.57712 8.83704C7.51229 8.92965 7.43389 9.03598 7.3509 9.14853L7.3509 9.14854C7.20242 9.3499 7.03927 9.57117 6.91292 9.76937C6.70975 10.0881 6.5 10.4911 6.5 10.9286C6.5 11.3533 6.65017 11.7506 6.93754 12.0439C7.22642 12.3386 7.62649 12.5 8.07143 12.5C8.51636 12.5 8.91644 12.3386 9.20531 12.0439C9.49269 11.7506 9.64286 11.3533 9.64286 10.9286C9.64286 10.4911 9.43311 10.0881 9.22994 9.76937C9.10359 9.57117 8.94044 9.3499 8.79196 9.14854L8.79196 9.14854C8.70897 9.03599 8.63057 8.92966 8.56573 8.83704Z" fill="black"/>
</svg>
