<svg width="16" height="16" viewBox="0 0 16 16" fill="none" xmlns="http://www.w3.org/2000/svg">
<path fill-rule="evenodd" clip-rule="evenodd" d="M6.55393 2.2998C5.23269 2.2998 4.16162 3.37088 4.16162 4.69211V5.23277C4.16162 6.55401 5.23269 7.62508 6.55393 7.62508C7.87516 7.62508 8.94624 6.55401 8.94624 5.23277V4.69211C8.94624 3.37088 7.87516 2.2998 6.55393 2.2998ZM5.16162 4.69211C5.16162 3.92316 5.78498 3.2998 6.55393 3.2998C7.32288 3.2998 7.94624 3.92316 7.94624 4.69211V5.23277C7.94624 6.00172 7.32288 6.62508 6.55393 6.62508C5.78498 6.62508 5.16162 6.00172 5.16162 5.23277V4.69211ZM11.1087 5.30576C10.9138 5.50136 10.9144 5.81794 11.11 6.01286C11.3056 6.20778 11.6222 6.20723 11.8171 6.01163L12.5229 5.30338L13.2311 6.00914C13.4267 6.20406 13.7433 6.20351 13.9382 6.0079C14.1331 5.8123 14.1326 5.49572 13.937 5.3008L13.2287 4.59504L13.9347 3.88661C14.1296 3.69101 14.1291 3.37442 13.9335 3.1795C13.7379 2.98458 13.4213 2.98513 13.2263 3.18074L12.5204 3.88917L11.8119 3.18318C11.6163 2.98826 11.2997 2.98882 11.1048 3.18442C10.9099 3.38002 10.9105 3.6966 11.1061 3.89152L11.8145 4.59751L11.1087 5.30576ZM1.7002 12.0715C1.7002 10.2093 3.2098 8.69971 5.07199 8.69971H8.55917C10.4214 8.69971 11.931 10.2093 11.931 12.0715C11.931 13.1407 11.0642 14.0074 9.99507 14.0074H3.63609C2.56693 14.0074 1.7002 13.1407 1.7002 12.0715ZM5.07199 9.69971C3.76208 9.69971 2.7002 10.7616 2.7002 12.0715C2.7002 12.5884 3.11921 13.0074 3.63609 13.0074H9.99507C10.5119 13.0074 10.931 12.5884 10.931 12.0715C10.931 10.7616 9.86908 9.69971 8.55917 9.69971H5.07199Z" fill="black"/>
</svg>
