<svg width="16" height="16" viewBox="0 0 16 16" fill="none" xmlns="http://www.w3.org/2000/svg">
<path fill-rule="evenodd" clip-rule="evenodd" d="M4.5 3V4.975H5.5125C6.05788 4.975 6.5 4.53288 6.5 3.9875C6.5 3.44212 6.05788 3 5.5125 3H4.5ZM7.5 3.9875C7.5 5.08517 6.61017 5.975 5.5125 5.975H4.5V6.47499H5.5C5.77614 6.47499 6 6.69884 6 6.97499C6 7.25113 5.77614 7.47499 5.5 7.47499H4.5V8C4.5 8.27614 4.27614 8.5 4 8.5C3.72386 8.5 3.5 8.27614 3.5 8V7.47499H3C2.72386 7.47499 2.5 7.25113 2.5 6.97499C2.5 6.69884 2.72386 6.47499 3 6.47499H3.5V5.975H3C2.72386 5.975 2.5 5.75114 2.5 5.475C2.5 5.19886 2.72386 4.975 3 4.975H3.5V2.55882C3.5 2.2502 3.75019 2 4.05882 2H5.5125C6.61017 2 7.5 2.88983 7.5 3.9875ZM11.4032 4.29568C11.5665 4.073 11.5184 3.7601 11.2957 3.5968C11.073 3.4335 10.7601 3.48164 10.5968 3.70432L3.99689 12.7042C3.83359 12.9269 3.88172 13.2398 4.10441 13.4031C4.32709 13.5664 4.63999 13.5183 4.80329 13.2956L11.4032 4.29568ZM12.3462 9C12.3462 8.72386 12.1223 8.5 11.8462 8.5C11.57 8.5 11.3462 8.72386 11.3462 9V10.3462H10C9.72386 10.3462 9.5 10.57 9.5 10.8462C9.5 11.1223 9.72386 11.3462 10 11.3462H11.3462V12.6923C11.3462 12.9685 11.57 13.1923 11.8462 13.1923C12.1223 13.1923 12.3462 12.9685 12.3462 12.6923V11.3462H13.6923C13.9685 11.3462 14.1923 11.1223 14.1923 10.8462C14.1923 10.57 13.9685 10.3462 13.6923 10.3462H12.3462V9Z" fill="black"/>
</svg>
