<svg width="16" height="16" viewBox="0 0 16 16" fill="none" xmlns="http://www.w3.org/2000/svg">
<path fill-rule="evenodd" clip-rule="evenodd" d="M7.80831 3.5H7.85004C8.18352 3.5 8.64634 3.622 9.03117 3.97384C9.4312 4.33958 9.70004 4.91016 9.70004 5.71429V11.2857C9.70004 12.0898 9.4312 12.6604 9.03117 13.0262C8.64634 13.378 8.18352 13.5 7.85004 13.5H7.80831L7.76717 13.4931C6.49474 13.2792 3.71316 12.8067 2.80649 12.634C2.21305 12.521 1.84398 12.2121 1.65772 11.8041C1.4993 11.4571 1.49977 11.0846 1.50002 10.8805V6.11954C1.49977 5.91539 1.4993 5.54288 1.65772 5.19589C1.84398 4.78791 2.21305 4.47901 2.80649 4.36597C3.71316 4.19327 6.49474 3.72077 7.76717 3.50692L7.80831 3.5ZM7.88417 4.50128C6.58623 4.71955 3.87573 5.18029 2.9936 5.34831C2.68707 5.4067 2.60614 5.52634 2.5674 5.6112C2.50704 5.74341 2.50005 5.91235 2.50004 6.14281V10.8572C2.50005 11.0876 2.50704 11.2566 2.5674 11.3888C2.60614 11.4737 2.68707 11.5933 2.9936 11.6517C3.87573 11.8197 6.58623 12.2805 7.88417 12.4987C8.00493 12.4901 8.19492 12.4358 8.35641 12.2881C8.51888 12.1396 8.70004 11.853 8.70004 11.2857V5.71429C8.70004 5.14698 8.51888 4.86042 8.35641 4.71187C8.19492 4.56423 8.00493 4.50994 7.88417 4.50128ZM10.5376 4.23301C10.7087 4.01628 11.0231 3.97929 11.2399 4.1504C11.7924 4.58663 11.9729 5.10599 11.9729 5.50082V11.7277C11.9729 12.4577 11.4338 12.925 11.2399 13.0781C11.0231 13.2492 10.7087 13.2123 10.5376 12.9955C10.3665 12.7788 10.4035 12.4644 10.6202 12.2933C10.6908 12.2375 10.7853 12.1525 10.8595 12.0463C10.9326 11.9418 10.9729 11.8364 10.9729 11.7277V5.50082C10.9729 5.41666 10.9362 5.18476 10.6202 4.93528C10.4035 4.76417 10.3665 4.44975 10.5376 4.23301ZM12.6149 4.78202C12.7826 4.56267 13.0964 4.52083 13.3158 4.68857C13.8731 5.11477 14.0549 5.63491 14.0549 6.0267V11.2019C14.0549 11.9269 13.5119 12.3901 13.3158 12.5401C13.0964 12.7078 12.7826 12.666 12.6149 12.4466C12.4471 12.2273 12.489 11.9135 12.7083 11.7457C12.7765 11.6936 12.8702 11.6109 12.9438 11.5073C13.0163 11.4053 13.0549 11.3041 13.0549 11.2019V6.0267C13.0549 5.94802 13.0196 5.72093 12.7083 5.48293C12.489 5.31519 12.4471 5.00138 12.6149 4.78202Z" fill="black"/>
</svg>
