<svg width="16" height="16" viewBox="0 0 16 16" fill="none" xmlns="http://www.w3.org/2000/svg">
<path fill-rule="evenodd" clip-rule="evenodd" d="M5.30209 3.31666C4.41063 4.26705 3.956 5.5865 4.05182 6.78208L4.06073 6.89321L3.4218 8.59701H4.12216C4.3983 8.59701 4.62216 8.82087 4.62216 9.09701V10.372C4.62216 10.6481 4.84602 10.872 5.12216 10.872H6.39714C6.60739 10.872 6.79518 11.0035 6.86703 11.2011L7.81793 13.8161L11.1849 12.2448L10.4727 10.1082C10.414 9.93188 10.4579 9.73749 10.5867 9.60352C11.8441 8.29613 12.413 7.07323 12.5073 6.0206C12.6006 4.97959 12.2358 4.04445 11.5003 3.27604C10.8795 2.62744 10.0237 2.20711 9.11522 2.06256C7.48189 1.80267 6.18112 2.37952 5.30209 3.31666ZM4.57273 2.63253C5.66382 1.46931 7.29064 0.759656 9.27236 1.07498C10.3742 1.25031 11.436 1.76262 12.2227 2.58459C13.1371 3.53994 13.6249 4.75281 13.5034 6.10982C13.3891 7.38491 12.7426 8.73163 11.5156 10.0747L12.2745 12.3513C12.3548 12.5923 12.2418 12.8551 12.0116 12.9625L7.74606 14.9531C7.61898 15.0124 7.47284 15.0157 7.34328 14.962C7.21372 14.9083 7.11265 14.8027 7.06472 14.6709L6.04692 11.872H5.12216C4.29373 11.872 3.62216 11.2004 3.62216 10.372V9.59701H3.4218C2.7236 9.59701 2.24032 8.89964 2.48547 8.24589L3.04722 6.7479C2.9649 5.29605 3.52163 3.75311 4.57273 2.63253ZM8.10313 4.76275C7.594 4.76275 7.18127 5.17548 7.18127 5.68461V5.72523C7.18127 6.00137 6.95742 6.22523 6.68127 6.22523C6.40513 6.22523 6.18127 6.00137 6.18127 5.72523V5.68461C6.18127 4.62319 7.04172 3.76275 8.10313 3.76275H8.23193C9.22221 3.76275 10.025 4.56553 10.025 5.55581C10.025 6.15953 9.72118 6.72273 9.21664 7.05428L8.73319 7.37198C8.65201 7.42532 8.60313 7.51593 8.60313 7.61306V7.95099C8.60313 8.22714 8.37927 8.45099 8.10313 8.45099C7.82699 8.45099 7.60313 8.22714 7.60313 7.95099V7.61306C7.60313 7.17923 7.82145 6.77452 8.18401 6.53627L8.66746 6.21857C8.89061 6.07193 9.02499 5.82283 9.02499 5.55581C9.02499 5.11781 8.66993 4.76275 8.23193 4.76275H8.10313ZM8.60315 10.2088C8.60315 9.93265 8.37929 9.70879 8.10315 9.70879C7.82701 9.70879 7.60315 9.93265 7.60315 10.2088V10.5313C7.60315 10.8075 7.82701 11.0313 8.10315 11.0313C8.37929 11.0313 8.60315 10.8075 8.60315 10.5313V10.2088Z" fill="black"/>
</svg>
