<svg width="16" height="16" viewBox="0 0 16 16" fill="none" xmlns="http://www.w3.org/2000/svg">
<path d="M5.00781 9.5C5.00781 9.22388 5.23169 9 5.50781 9H6.00781C6.28394 9 6.50781 9.22388 6.50781 9.5C6.50781 9.77612 6.28394 10 6.00781 10H5.50781C5.23169 10 5.00781 9.77612 5.00781 9.5Z" fill="black"/>
<path d="M7.26562 9.5C7.26562 9.22388 7.4895 9 7.76562 9H8.26562C8.54175 9 8.76562 9.22388 8.76562 9.5C8.76562 9.77612 8.54175 10 8.26562 10H7.76562C7.4895 10 7.26562 9.77612 7.26562 9.5Z" fill="black"/>
<path d="M10 9C9.72388 9 9.5 9.22388 9.5 9.5C9.5 9.77612 9.72388 10 10 10H10.5C10.7761 10 11 9.77612 11 9.5C11 9.22388 10.7761 9 10.5 9H10Z" fill="black"/>
<path d="M5.00781 11.5291C5.00781 11.2529 5.23169 11.0291 5.50781 11.0291H6.00781C6.28394 11.0291 6.50781 11.2529 6.50781 11.5291C6.50781 11.8052 6.28394 12.0291 6.00781 12.0291H5.50781C5.23169 12.0291 5.00781 11.8052 5.00781 11.5291Z" fill="black"/>
<path d="M7.76562 11.0291C7.4895 11.0291 7.26562 11.2529 7.26562 11.5291C7.26562 11.8052 7.4895 12.0291 7.76562 12.0291H8.26562C8.54175 12.0291 8.76562 11.8052 8.76562 11.5291C8.76562 11.2529 8.54175 11.0291 8.26562 11.0291H7.76562Z" fill="black"/>
<path d="M9.5 11.5291C9.5 11.2529 9.72388 11.0291 10 11.0291H10.5C10.7761 11.0291 11 11.2529 11 11.5291C11 11.8052 10.7761 12.0291 10.5 12.0291H10C9.72388 12.0291 9.5 11.8052 9.5 11.5291Z" fill="black"/>
<path d="M5.75 6.5C5.33582 6.5 5 6.83582 5 7.25C5 7.66418 5.33582 8 5.75 8H10.25C10.6642 8 11 7.66418 11 7.25C11 6.83582 10.6642 6.5 10.25 6.5H5.75Z" fill="black"/>
<path fill-rule="evenodd" clip-rule="evenodd" d="M5 2.5C5 1.94772 5.44775 1.5 6 1.5H10C10.5522 1.5 11 1.94772 11 2.5V3C12.1046 3 13 3.89542 13 5V8.72705C13 8.76288 12.999 8.79858 12.9972 8.83411C12.999 8.85913 13 8.88428 13 8.90948C13 10.0892 12.9258 10.9565 12.7377 11.6257C12.5341 12.35 12.2023 12.8247 11.7645 13.2139C10.9856 13.9066 9.92419 13.999 9.01941 14.0002L9 14.0004H7L6.98059 14.0002C6.07581 13.999 5.0144 13.9066 4.23547 13.2139C3.79773 12.8247 3.46594 12.35 3.26233 11.6257C3.07422 10.9565 3 10.0892 3 8.90948C3 8.88428 3.00098 8.85913 3.00281 8.83411C3.00195 8.81818 3.00134 8.80225 3.00085 8.78625C3.00024 8.76654 3 8.74683 3 8.72705V5C3 3.89545 3.89539 3 5 3V2.5ZM6 2.5H10V4.5H6V2.5ZM5 4C4.44775 4 4 4.44769 4 5V8.72705C4 8.76807 4.00244 8.80853 4.00732 8.84821C4.00977 8.86884 4.01282 8.88928 4.0166 8.90948L4.01697 8.9115L4 8.90948V8.91467L4.00037 9.05145C4.0011 9.1731 4.00269 9.2901 4.00513 9.40271C4.00903 9.58325 4.01514 9.75256 4.02356 9.9115C4.10486 11.4471 4.39697 12.0194 4.90002 12.4667C5.38 12.8936 6.09998 13.0002 7 13.0002L9 13.0004C9.90002 13.0004 10.62 12.8936 11.1 12.4667C11.603 12.0194 11.8951 11.4471 11.9764 9.9115C11.9901 9.65338 11.9978 9.36804 11.9996 9.05145L12 8.91467V8.90948L11.983 8.9115L11.9834 8.90948C11.9855 8.89789 11.9874 8.88623 11.9891 8.87445C11.9905 8.86572 11.9916 8.85699 11.9927 8.84821C11.996 8.82135 11.9982 8.79407 11.9993 8.76654L11.9996 8.75385L12 8.72705V5C12 4.44769 11.5522 4 11 4V4.5C11 5.05231 10.5522 5.5 10 5.5H6C5.44775 5.5 5 5.05231 5 4.5V4Z" fill="black"/>
</svg>
