<svg width="16" height="16" viewBox="0 0 16 16" fill="none" xmlns="http://www.w3.org/2000/svg">
<path fill-rule="evenodd" clip-rule="evenodd" d="M5 2C4.17157 2 3.5 2.67157 3.5 3.5V12.5C3.5 13.3284 4.17157 14 5 14H11C11.8284 14 12.5 13.3284 12.5 12.5V3.5C12.5 2.67157 11.8284 2 11 2H5ZM4.5 3.5C4.5 3.22386 4.72386 3 5 3H11C11.2761 3 11.5 3.22386 11.5 3.5V12.5C11.5 12.7761 11.2761 13 11 13H5C4.72386 13 4.5 12.7761 4.5 12.5V3.5ZM9 4C9.27614 4 9.5 4.22386 9.5 4.5C9.5 4.77614 9.27614 5 9 5H7C6.72386 5 6.5 4.77614 6.5 4.5C6.5 4.22386 6.72386 4 7 4H9ZM8 6.5C8.27614 6.5 8.5 6.72386 8.5 7V8.5H10C10.2761 8.5 10.5 8.72386 10.5 9C10.5 9.27614 10.2761 9.5 10 9.5H8.5V11C8.5 11.2761 8.27614 11.5 8 11.5C7.72386 11.5 7.5 11.2761 7.5 11V9.5H6C5.72386 9.5 5.5 9.27614 5.5 9C5.5 8.72386 5.72386 8.5 6 8.5H7.5V7C7.5 6.72386 7.72386 6.5 8 6.5Z" fill="black"/>
</svg>
