<svg width="16" height="16" viewBox="0 0 16 16" fill="none" xmlns="http://www.w3.org/2000/svg">
<path fill-rule="evenodd" clip-rule="evenodd" d="M3.02051 7.36667C3.02051 4.69207 5.25467 2.5 8.04051 2.5C10.8263 2.5 13.0605 4.69207 13.0605 7.36667C13.0605 8.66841 12.5338 9.85204 11.671 10.7277C11.4772 10.9244 11.4795 11.2409 11.6762 11.4348C11.8729 11.6286 12.1895 11.6262 12.3833 11.4295C13.4201 10.3773 14.0605 8.94542 14.0605 7.36667C14.0605 4.11341 11.3519 1.5 8.04051 1.5C4.72912 1.5 2.02051 4.11341 2.02051 7.36667C2.02051 8.94542 2.6609 10.3773 3.69768 11.4295C3.7419 11.4744 3.78682 11.5186 3.83242 11.562C4.03235 11.7525 4.34884 11.7448 4.53932 11.5449C4.7298 11.345 4.72213 11.0285 4.5222 10.838C4.48418 10.8018 4.44678 10.765 4.41 10.7277C3.54723 9.85204 3.02051 8.66841 3.02051 7.36667ZM2.5 12.5C2.22386 12.5 2 12.7239 2 13C2 13.2761 2.22386 13.5 2.5 13.5H13.5C13.7761 13.5 14 13.2761 14 13C14 12.7239 13.7761 12.5 13.5 12.5H2.5ZM7.99847 4.9974C8.27461 4.9974 8.49847 5.22126 8.49847 5.4974V8.83692L9.74336 7.59203C9.93862 7.39677 10.2552 7.39677 10.4505 7.59203C10.6457 7.7873 10.6457 8.10388 10.4505 8.29914L8.42273 10.3269C8.18842 10.5612 7.80852 10.5612 7.5742 10.3269L5.54647 8.29914C5.35121 8.10388 5.35121 7.7873 5.54647 7.59203C5.74173 7.39677 6.05832 7.39677 6.25358 7.59203L7.49847 8.83692V5.4974C7.49847 5.22126 7.72232 4.9974 7.99847 4.9974Z" fill="black"/>
</svg>
