<svg width="16" height="16" viewBox="0 0 16 16" fill="none" xmlns="http://www.w3.org/2000/svg">
<path fill-rule="evenodd" clip-rule="evenodd" d="M10.5 2C9.67157 2 9 2.67157 9 3.5V4.08535C8.84361 4.03008 8.67532 4 8.5 4C8.30488 4 8.11845 4.03726 7.94746 4.10504C7.77411 3.46823 7.19173 3 6.5 3C5.67157 3 5 3.67157 5 4.5V5.08535C4.84361 5.03008 4.67532 5 4.5 5C3.67157 5 3 5.67157 3 6.5V8.5C3 9.32843 3.67157 10 4.5 10C4.88418 10 5.23462 9.85557 5.5 9.61805C5.76538 9.85557 6.11582 10 6.5 10C6.88418 10 7.23462 9.85557 7.5 9.61805C7.76538 9.85557 8.11582 10 8.5 10C8.88418 10 9.23462 9.85557 9.5 9.61805C9.76538 9.85557 10.1158 10 10.5 10C10.8842 10 11.2346 9.85557 11.5 9.61805C11.7654 9.85557 12.1158 10 12.5 10C13.3284 10 14 9.32843 14 8.5V6.5C14 5.67157 13.3284 5 12.5 5C12.3247 5 12.1564 5.03008 12 5.08535V3.5C12 2.67157 11.3284 2 10.5 2ZM10.5 3C10.7761 3 11 3.22386 11 3.5V8.5C11 8.77614 10.7761 9 10.5 9C10.2239 9 10 8.77614 10 8.5V3.5C10 3.22386 10.2239 3 10.5 3ZM12 8.5V6.5C12 6.22386 12.2239 6 12.5 6C12.7761 6 13 6.22386 13 6.5V8.5C13 8.77614 12.7761 9 12.5 9C12.2239 9 12 8.77614 12 8.5ZM9 5.5C9 5.22386 8.77614 5 8.5 5C8.22386 5 8 5.22386 8 5.5V8.5C8 8.77614 8.22386 9 8.5 9C8.77614 9 9 8.77614 9 8.5V5.5ZM7 4.5V8.5C7 8.77614 6.77614 9 6.5 9C6.22386 9 6 8.77614 6 8.5V4.5C6 4.22386 6.22386 4 6.5 4C6.77614 4 7 4.22386 7 4.5ZM5 6.5C5 6.22386 4.77614 6 4.5 6C4.22386 6 4 6.22386 4 6.5V8.5C4 8.77614 4.22386 9 4.5 9C4.77614 9 5 8.77614 5 8.5V6.5Z" fill="black"/>
<path fill-rule="evenodd" clip-rule="evenodd" d="M15 12.5C15 11.6716 14.3284 11 13.5 11H3.5C2.67157 11 2 11.6716 2 12.5C2 13.3284 2.67157 14 3.5 14H13.5C14.3284 14 15 13.3284 15 12.5ZM3 12.5C3 12.2239 3.22386 12 3.5 12H13.5C13.7761 12 14 12.2239 14 12.5C14 12.7761 13.7761 13 13.5 13H3.5C3.22386 13 3 12.7761 3 12.5Z" fill="black"/>
</svg>
