<svg width="16" height="16" viewBox="0 0 16 16" fill="none" xmlns="http://www.w3.org/2000/svg">
<path fill-rule="evenodd" clip-rule="evenodd" d="M1.30444 3.12058C1.1095 3.31522 1 3.57935 1 3.85477C1 4.4693 1.25293 5.2713 1.85474 5.87293C2.47107 6.48901 3.29871 6.73706 4.09656 6.64636L9.33923 11.8874C9.24841 12.685 9.49658 13.5123 10.1129 14.1285C10.7147 14.7301 11.5168 14.9829 12.1316 14.9829C12.4071 14.9829 12.6714 14.8734 12.8661 14.6786C13.3551 14.1893 13.8445 13.7003 14.3339 13.2113L14.7008 12.8445C14.9594 12.5861 15.0487 12.2115 14.9751 11.8592L14.964 11.8072C14.9585 11.7823 14.952 11.754 14.9445 11.7227C14.918 11.6119 14.8776 11.4585 14.8214 11.2878C14.7246 10.9938 14.5254 10.4675 14.1467 10.0889C13.5289 9.47144 12.7031 9.22711 11.908 9.31854L9.75061 7.16187L11.4659 5.44653L11.8275 5.5188C12.2581 5.60492 12.6945 5.40015 12.9033 5.01392L14.041 2.9101L12.9863 1.85544L11.0107 3.18491C10.6517 3.42642 10.4889 3.8714 10.6071 4.2876L10.7405 4.75781L9.04346 6.4549L6.66614 4.07837C6.75757 3.28342 6.51318 2.45786 5.89551 1.84033C5.51685 1.46176 4.99036 1.26257 4.69617 1.1658C4.65723 1.15302 4.61926 1.14102 4.5824 1.12982C4.54944 1.11981 4.51746 1.11044 4.48657 1.10169C4.40076 1.07733 4.3241 1.05783 4.26123 1.04279C4.19604 1.02719 4.13062 1.0126 4.06482 1.00018C3.73047 0.93805 3.37964 1.04584 3.13904 1.28644C2.52759 1.89783 1.91675 2.50906 1.30444 3.12058ZM4.60754 3.48798L3.50623 2.38709L3.87317 2.02014C3.87317 2.02014 4.37305 2.11224 4.78845 2.31989C4.85083 2.35108 4.91138 2.38486 4.96802 2.42136C5.04016 2.46787 5.10596 2.51874 5.1615 2.57416C5.64856 3.0611 5.76782 3.77203 5.52551 4.40582L11.5804 10.4588C12.2144 10.2166 12.9255 10.3358 13.4126 10.8228C13.5116 10.9216 13.5961 11.0537 13.667 11.1956C13.8746 11.6109 13.9668 12.1106 13.9668 12.1106L13.5997 12.4775L12.4984 11.3766L11.397 12.4775L12.5188 13.5577L12.1316 13.9451C11.9763 13.9451 11.7921 13.9161 11.6019 13.8533C11.3422 13.7675 11.071 13.6187 10.8469 13.3947C10.3599 12.9077 10.2371 12.1933 10.4794 11.5595L4.42444 5.50653C3.79053 5.74872 3.07581 5.62604 2.58875 5.1391C2.36462 4.91504 2.21582 4.64404 2.13 4.38434C2.09509 4.27869 2.07056 4.17487 2.05579 4.07691C2.05225 4.05335 2.04919 4.03009 2.04675 4.00726C2.04089 3.95407 2.03809 3.90302 2.03809 3.85477L2.41882 3.47449L3.50635 4.58905L4.60754 3.48798Z" fill="black"/>
<path d="M1.94409 11.5792L4.57166 9.00067L5.27881 9.70783L2.64441 12.293C2.24768 12.6824 2.24463 13.3207 2.6377 13.7138L2.68103 13.7571C3.08521 14.1613 3.74548 14.145 4.12927 13.7213L6.58325 11.0122L7.29114 11.7202L4.87036 14.3926C4.10291 15.2401 2.78235 15.2726 1.97388 14.4642L1.93066 14.4209C1.14441 13.6346 1.15039 12.358 1.94409 11.5792Z" fill="black"/>
</svg>
