<svg width="16" height="16" viewBox="0 0 16 16" fill="none" xmlns="http://www.w3.org/2000/svg">
<path fill-rule="evenodd" clip-rule="evenodd" d="M2.5 10.5V3.5H13.5V10.5H2.5ZM2.1 2.5C1.76863 2.5 1.5 2.76863 1.5 3.1V10.9C1.5 11.2314 1.76863 11.5 2.1 11.5H13.9C14.2314 11.5 14.5 11.2314 14.5 10.9V3.1C14.5 2.76863 14.2314 2.5 13.9 2.5H2.1ZM2 12.5C1.72386 12.5 1.5 12.7239 1.5 13C1.5 13.2761 1.72386 13.5 2 13.5H14C14.2761 13.5 14.5 13.2761 14.5 13C14.5 12.7239 14.2761 12.5 14 12.5H2ZM5.5 7C5.5 6.72386 5.72386 6.5 6 6.5H6.21571C6.29485 6.05006 6.47071 5.63138 6.75072 5.29025C7.15604 4.79647 7.75289 4.5 8.48144 4.5C9.06631 4.5 9.60795 4.69044 10.0441 5.01266C10.2662 5.17675 10.3132 5.48982 10.1491 5.71192C9.98504 5.93403 9.67197 5.98106 9.44987 5.81697C9.1809 5.61825 8.84642 5.5 8.48144 5.5C8.04509 5.5 7.73454 5.66783 7.52367 5.92472C7.39869 6.07698 7.30037 6.2716 7.23883 6.5H8C8.27614 6.5 8.5 6.72386 8.5 7C8.5 7.27614 8.27614 7.5 8 7.5H7.20503C7.26029 7.79302 7.37246 8.03922 7.52367 8.22343C7.73454 8.48032 8.04509 8.64815 8.48144 8.64815C8.84642 8.64815 9.1809 8.52989 9.44987 8.33118C9.67197 8.16709 9.98504 8.21412 10.1491 8.43622C10.3132 8.65833 10.2662 8.9714 10.0441 9.13548C9.60795 9.4577 9.06631 9.64815 8.48144 9.64815C7.75289 9.64815 7.15604 9.35168 6.75072 8.8579C6.4402 8.4796 6.25776 8.00592 6.19328 7.5H6C5.72386 7.5 5.5 7.27614 5.5 7ZM4 6C4.27614 6 4.5 6.22386 4.5 6.5V7.5C4.5 7.77614 4.27614 8 4 8C3.72386 8 3.5 7.77614 3.5 7.5V6.5C3.5 6.22386 3.72386 6 4 6ZM12.5 6.5C12.5 6.22386 12.2761 6 12 6C11.7239 6 11.5 6.22386 11.5 6.5V7.5C11.5 7.77614 11.7239 8 12 8C12.2761 8 12.5 7.77614 12.5 7.5V6.5Z" fill="black"/>
</svg>
