<svg width="16" height="16" viewBox="0 0 16 16" fill="none" xmlns="http://www.w3.org/2000/svg">
<path fill-rule="evenodd" clip-rule="evenodd" d="M3.55957 4.5C3.28343 4.5 3.05957 4.72386 3.05957 5V10.4483C3.05957 10.7244 3.28343 10.9483 3.55957 10.9483H12.5596C12.8357 10.9483 13.0596 10.7244 13.0596 10.4483V7.30709C13.0596 7.16622 13.0001 7.03188 12.8959 6.93712L10.3581 4.63003C10.2661 4.54636 10.1462 4.5 10.0218 4.5H3.55957ZM2.05957 5C2.05957 4.17157 2.73114 3.5 3.55957 3.5H10.0218C10.3949 3.5 10.7547 3.63908 11.0308 3.89009L13.5686 6.19718C13.8813 6.48146 14.0596 6.88447 14.0596 7.30709V10.4483C14.0596 11.2767 13.388 11.9483 12.5596 11.9483H3.55957C2.73114 11.9483 2.05957 11.2767 2.05957 10.4483V5ZM8.40306 6.79184H4.39246V5.79184H8.40306V6.79184ZM4.39246 9.0835H8.40306V8.0835H4.39246V9.0835Z" fill="black"/>
</svg>
