<svg width="16" height="16" viewBox="0 0 16 16" fill="none" xmlns="http://www.w3.org/2000/svg">
<path fill-rule="evenodd" clip-rule="evenodd" d="M6.06874 3.56041C5.70213 2.27728 6.66559 1 8.00006 1C9.33453 1 10.298 2.27728 9.93138 3.56041L9.58443 4.77472C9.46177 5.20402 9.06939 5.5 8.62291 5.5H7.37721C6.93073 5.5 6.53834 5.20402 6.41569 4.77472L6.06874 3.56041ZM8.00006 2C7.32997 2 6.84617 2.64138 7.03026 3.28569L7.37721 4.5L8.62291 4.5L8.96986 3.28569C9.15394 2.64138 8.67015 2 8.00006 2ZM7.2649 7.5C6.59352 8.44037 5.57489 9.07775 4.43141 9.26833L3.86488 9.36275C3.65432 9.39784 3.5 9.58002 3.5 9.79347C3.5 9.98843 3.62924 10.1598 3.8167 10.2133L3.98157 10.2604C5.60541 10.7244 7.01874 11.7211 8 13.0805C8.98126 11.7211 10.3946 10.7244 12.0184 10.2604L12.1833 10.2133C12.3708 10.1598 12.5 9.98843 12.5 9.79347C12.5 9.58002 12.3457 9.39784 12.1351 9.36275L11.5686 9.26833C10.4251 9.07775 9.40648 8.44037 8.7351 7.5L7.2649 7.5ZM6.5123 6.83016C6.64981 6.62389 6.88131 6.5 7.12921 6.5L8.87079 6.5C9.11869 6.5 9.35019 6.6239 9.4877 6.83016C10.0033 7.6036 10.8161 8.12912 11.733 8.28194L12.2995 8.37636C12.9923 8.49181 13.5 9.09118 13.5 9.79347C13.5 10.4349 13.0748 10.9986 12.458 11.1749L12.2932 11.222C10.7087 11.6747 9.3555 12.7127 8.50768 14.1257C8.27772 14.509 7.72228 14.509 7.49232 14.1257C6.6445 12.7127 5.29132 11.6747 3.70685 11.222L3.54198 11.1749C2.92522 10.9986 2.5 10.4349 2.5 9.79347C2.5 9.09118 3.00774 8.49181 3.70048 8.37636L4.26701 8.28194C5.18392 8.12912 5.99668 7.6036 6.5123 6.83016ZM8 9.5C7.72386 9.5 7.5 9.72386 7.5 10C7.5 10.2761 7.72386 10.5 8 10.5H9.5C9.77614 10.5 10 10.2761 10 10C10 9.72386 9.77614 9.5 9.5 9.5H8Z" fill="black"/>
</svg>
