<svg width="16" height="16" viewBox="0 0 16 16" fill="none" xmlns="http://www.w3.org/2000/svg">
<path fill-rule="evenodd" clip-rule="evenodd" d="M9.81889 0.528731C10.0868 0.595733 10.2496 0.867217 10.1826 1.13511L9.92665 2.15859C12.9736 3.04517 14.4865 6.22191 13.8835 9.32411C13.8582 9.45429 13.7822 9.56908 13.6723 9.64324C13.5623 9.71739 13.4274 9.74483 13.2973 9.71951L8.63955 8.81381L7.68572 13.0002H13.2962C13.5723 13.0002 13.7962 13.224 13.7962 13.5002C13.7962 13.7763 13.5723 14.0002 13.2962 14.0002H2.5C2.22386 14.0002 2 13.7763 2 13.5002C2 13.224 2.22386 13.0002 2.5 13.0002H6.66009L7.65743 8.62283L2.80232 7.67874C2.53127 7.62604 2.35426 7.36359 2.40695 7.09253C3.01718 3.95316 5.7577 1.59873 8.94511 1.96163L9.21251 0.892473C9.27951 0.624582 9.551 0.46173 9.81889 0.528731ZM3.50468 6.79659L12.9778 8.63866C13.2783 5.96851 11.7919 3.51518 9.21431 3.01414C6.62479 2.51079 4.23531 4.22266 3.50468 6.79659ZM8.96633 3.62434C8.69844 3.55737 8.42697 3.72025 8.35999 3.98815C8.29302 4.25604 8.4559 4.52751 8.7238 4.59448C9.79499 4.86228 10.6781 5.97863 10.9773 7.1751C11.0442 7.443 11.3157 7.60588 11.5836 7.5389C11.8515 7.47193 12.0144 7.20046 11.9474 6.93256C11.5922 5.51177 10.5124 4.01086 8.96633 3.62434Z" fill="black"/>
</svg>
