<svg width="16" height="16" viewBox="0 0 16 16" fill="none" xmlns="http://www.w3.org/2000/svg">
<path fill-rule="evenodd" clip-rule="evenodd" d="M5.75 4.73327C5.75 3.50274 6.75448 2.5 8 2.5C9.24552 2.5 10.25 3.50274 10.25 4.73327C10.25 4.86807 10.238 4.99968 10.2152 5.12722L10.1226 5.64426L10.6436 5.71125C11.9753 5.88249 13 7.01357 13 8.37762C13 9.85974 11.7903 11.0664 10.2917 11.0664C10.0155 11.0664 9.79167 11.2903 9.79167 11.5664C9.79167 11.8426 10.0155 12.0664 10.2917 12.0664C12.3368 12.0664 14 10.4178 14 8.37762C14 6.66752 12.8315 5.23274 11.249 4.81305C11.2497 4.78652 11.25 4.75993 11.25 4.73327C11.25 2.94471 9.79204 1.5 8 1.5C6.20796 1.5 4.75 2.94471 4.75 4.73327C4.75 4.75993 4.75033 4.78653 4.75097 4.81305C3.16848 5.23275 2 6.66752 2 8.37762C2 10.4178 3.66316 12.0664 5.70833 12.0664C5.98448 12.0664 6.20833 11.8426 6.20833 11.5664C6.20833 11.2903 5.98448 11.0664 5.70833 11.0664C4.20968 11.0664 3 9.85974 3 8.37762C3 7.01357 4.02474 5.88249 5.3564 5.71125L5.87738 5.64426L5.78481 5.12722C5.76198 4.99968 5.75 4.86807 5.75 4.73327ZM6.52512 8.41721C6.33071 8.22111 6.01413 8.21974 5.81802 8.41415C5.62192 8.60857 5.62055 8.92515 5.81496 9.12125L7.55578 10.8772V14C7.55578 14.2761 7.77964 14.5 8.05578 14.5C8.33192 14.5 8.55578 14.2761 8.55578 14V10.0853L10.6374 8.55686C10.86 8.39343 10.908 8.0805 10.7445 7.85791C10.5811 7.63533 10.2682 7.58738 10.0456 7.75082L8.55578 8.84472V6.92308C8.55578 6.64694 8.33192 6.42308 8.05578 6.42308C7.77964 6.42308 7.55578 6.64694 7.55578 6.92308V9.45682L6.52512 8.41721Z" fill="black"/>
</svg>
