<svg width="16" height="16" viewBox="0 0 16 16" fill="none" xmlns="http://www.w3.org/2000/svg">
<path d="M4 11C4 10.4477 4.44772 10 5 10C5.55228 10 6 10.4477 6 11C6 11.5523 5.55228 12 5 12C4.44772 12 4 11.5523 4 11Z" fill="black"/>
<path fill-rule="evenodd" clip-rule="evenodd" d="M2 11V5C2 3.34315 3.34315 2 5 2C6.65685 2 8 3.34315 8 5L12 5C12.5523 5 13 5.44772 13 6V13C13 13.5523 12.5523 14 12 14H5C3.34315 14 2 12.6569 2 11ZM5 13C4.63571 13 4.29417 12.9026 4 12.7324C3.4022 12.3866 3 11.7403 3 11C3 10.6357 3.09739 10.2942 3.26756 10C3.61337 9.4022 4.25972 9 5 9C5.74028 9 6.38663 9.4022 6.73244 10C6.90261 10.2942 7 10.6357 7 11C7 12.1046 6.10457 13 5 13ZM5 8C4.23165 8 3.53076 8.28885 3 8.76389L3 5C3 3.89543 3.89543 3 5 3C6.10457 3 7 3.89543 7 5L7 8.76389C6.46924 8.28885 5.76835 8 5 8ZM7.23611 13C7.71115 12.4692 8 11.7684 8 11L8 6L12 6V13H7.23611Z" fill="black"/>
</svg>
