<svg width="16" height="16" viewBox="0 0 16 16" fill="none" xmlns="http://www.w3.org/2000/svg">
<path fill-rule="evenodd" clip-rule="evenodd" d="M3 2C2.44772 2 2 2.44772 2 3V13C2 13.5523 2.44772 14 3 14H13C13.5523 14 14 13.5523 14 13V3C14 2.44772 13.5523 2 13 2H3ZM3 3L13 3V13H3V3ZM10.0282 7.99998L6.5 10.1169L6.5 5.88308L10.0282 7.99998ZM7.0145 5.02558C6.34797 4.62567 5.5 5.10578 5.5 5.88307V10.1169C5.5 10.8942 6.34797 11.3743 7.0145 10.9744L10.5427 8.85747C11.19 8.46907 11.19 7.53089 10.5427 7.14249L7.0145 5.02558Z" fill="black"/>
</svg>
