<svg width="16" height="16" viewBox="0 0 16 16" fill="none" xmlns="http://www.w3.org/2000/svg">
<path fill-rule="evenodd" clip-rule="evenodd" d="M4 3H12V13H4V3ZM3 3C3 2.44772 3.44772 2 4 2H12C12.5523 2 13 2.44772 13 3V13C13 13.5523 12.5523 14 12 14H4C3.44772 14 3 13.5523 3 13V3ZM5 5H11V4H5V5ZM11 7H5V6H11V7ZM8.039 11.4641L8.59262 9.80326L9.02515 10.6683C9.12678 10.8716 9.33454 11 9.5618 11H10.5C10.7761 11 11 10.7761 11 10.5C11 10.2238 10.7761 9.99998 10.5 9.99998H9.80902L9.05518 8.49231C8.81612 8.0142 8.11835 8.06379 7.94931 8.5709L7.34894 10.372L6.94571 9.76716C6.83443 9.60024 6.64709 9.49998 6.44648 9.49998H5.5C5.22386 9.49998 5 9.72384 5 9.99998C5 10.2761 5.22386 10.5 5.5 10.5H6.23241L6.97056 11.6072C7.24751 12.0226 7.88111 11.9378 8.039 11.4641Z" fill="black"/>
</svg>
