<svg width="16" height="16" viewBox="0 0 16 16" fill="none" xmlns="http://www.w3.org/2000/svg">
<path fill-rule="evenodd" clip-rule="evenodd" d="M11.6543 2.49992C11.2638 2.1094 10.6306 2.1094 10.2401 2.49992L9.41992 3.32009L9.09075 2.99488C8.69852 2.60735 8.06661 2.61043 7.67818 3.00178L3.03273 7.68207C1.52624 9.19986 1.56827 11.6613 3.12571 13.1268C4.64257 14.5541 7.02566 14.4945 8.46926 12.9932L13.0184 8.26206C13.3975 7.86777 13.3895 7.24204 13.0004 6.85759L12.6729 6.534L13.4735 5.73335C13.864 5.34282 13.864 4.70966 13.4735 4.31913L11.6543 2.49992ZM11.9615 5.83116L12.7664 5.02624L10.9472 3.20703L10.1313 4.02293L11.9615 5.83116ZM7.74843 12.3C6.6847 13.4063 4.9287 13.4503 3.81099 12.3985C2.66337 11.3187 2.6324 9.50493 3.74248 8.38653L8.38793 3.70624L12.2976 7.56896L7.74843 12.3ZM8.35343 5.64639C8.15817 5.45112 7.84159 5.45112 7.64632 5.64639C7.45106 5.84165 7.45106 6.15823 7.64632 6.35349L9.64632 8.35349C9.84159 8.54875 10.1582 8.54875 10.3534 8.35349C10.5487 8.15823 10.5487 7.84165 10.3534 7.64639L8.35343 5.64639ZM5.99988 8.99994C5.44759 8.99994 4.99988 9.44765 4.99988 9.99994C4.99988 10.5522 5.44759 10.9999 5.99988 10.9999C6.55216 10.9999 6.99988 10.5522 6.99988 9.99994C6.99988 9.44765 6.55216 8.99994 5.99988 8.99994ZM3.99988 9.99994C3.99988 8.89537 4.89531 7.99994 5.99988 7.99994C7.10445 7.99994 7.99988 8.89537 7.99988 9.99994C7.99988 11.1045 7.10445 11.9999 5.99988 11.9999C4.89531 11.9999 3.99988 11.1045 3.99988 9.99994Z" fill="black"/>
</svg>
