<svg width="16" height="16" viewBox="0 0 16 16" fill="none" xmlns="http://www.w3.org/2000/svg">
<path fill-rule="evenodd" clip-rule="evenodd" d="M1.5 2.5C1.5 2.22386 1.72386 2 2 2H3.42192C3.69724 2 3.93723 2.18738 4.00401 2.45448L4.39039 4H12.8913C13.2423 4 13.5184 4.30001 13.4892 4.64983L13.0518 9.89965C12.9999 10.5216 12.48 11 11.8559 11H5.14409C4.51999 11 4.00007 10.5216 3.94824 9.89965L3.50509 4.58193L3.10961 3H2C1.72386 3 1.5 2.77614 1.5 2.5ZM4.5434 5L4.94478 9.81661C4.95342 9.92027 5.04008 10 5.14409 10H11.8559C11.9599 10 12.0466 9.92027 12.0552 9.81661L12.4566 5H4.5434ZM7 13C7 13.5523 6.55228 14 6 14C5.44772 14 5 13.5523 5 13C5 12.4477 5.44772 12 6 12C6.55228 12 7 12.4477 7 13ZM11 14C11.5523 14 12 13.5523 12 13C12 12.4477 11.5523 12 11 12C10.4477 12 10 12.4477 10 13C10 13.5523 10.4477 14 11 14Z" fill="black"/>
</svg>
