<svg width="16" height="16" viewBox="0 0 16 16" fill="none" xmlns="http://www.w3.org/2000/svg">
<path fill-rule="evenodd" clip-rule="evenodd" d="M3 2C2.44772 2 2 2.44772 2 3V13C2 13.5523 2.44772 14 3 14H13C13.5523 14 14 13.5523 14 13V3C14 2.44772 13.5523 2 13 2H3ZM3 3L13 3V13H3V3ZM7.5 9.5V6H10.5V8.08535C10.3436 8.03008 10.1753 8 10 8C9.17157 8 8.5 8.67157 8.5 9.5C8.5 10.3284 9.17157 11 10 11C10.8284 11 11.5 10.3284 11.5 9.5V5.6C11.5 5.26863 11.2314 5 10.9 5H7.1C6.76863 5 6.5 5.26863 6.5 5.6V8.08535C6.34361 8.03008 6.17532 8 6 8C5.17157 8 4.5 8.67157 4.5 9.5C4.5 10.3284 5.17157 11 6 11C6.82843 11 7.5 10.3284 7.5 9.5ZM10.5 9.5C10.5 9.22386 10.2761 9 10 9C9.72386 9 9.5 9.22386 9.5 9.5C9.5 9.77614 9.72386 10 10 10C10.2761 10 10.5 9.77614 10.5 9.5ZM6 9C6.27614 9 6.5 9.22386 6.5 9.5C6.5 9.77614 6.27614 10 6 10C5.72386 10 5.5 9.77614 5.5 9.5C5.5 9.22386 5.72386 9 6 9Z" fill="black"/>
</svg>
