<svg width="16" height="16" viewBox="0 0 16 16" fill="none" xmlns="http://www.w3.org/2000/svg">
<path d="M8.50012 2.50001C8.13704 2.15624 8.13657 2.15674 8.13657 2.15674L8.13509 2.15832L8.13295 2.16062L8.12816 2.16585L8.1166 2.17891C8.10804 2.18879 8.09782 2.20103 8.08622 2.21572C8.06301 2.24512 8.03428 2.2843 8.0021 2.33407C7.93766 2.43375 7.85997 2.57504 7.78517 2.76413C7.69891 2.98222 7.6176 3.26105 7.56407 3.60957C7.1058 2.77184 6.17584 2.14755 5.05106 2.03269C4.41254 1.96749 3.80181 2.07571 3.27958 2.31458C3.07242 2.40933 2.98092 2.65109 3.08008 2.85585C3.51376 3.75129 4.47672 4.42815 5.65261 4.54823C6.29114 4.61343 6.90186 4.50521 7.4241 4.26634C7.45388 4.25272 7.48127 4.23605 7.50605 4.2169C7.50217 4.30782 7.50012 4.40216 7.50012 4.50001C7.50012 4.77615 7.72398 5.00001 8.00012 5.00001C8.27626 5.00001 8.50012 4.77615 8.50012 4.50001C8.50012 3.82177 8.61508 3.38473 8.71507 3.13196C8.76527 3.00504 8.81259 2.92231 8.84189 2.87698C8.85659 2.85424 8.86693 2.84066 8.87105 2.83543L8.87201 2.83423C9.05274 2.63333 9.04126 2.3238 8.84389 2.13693C8.64336 1.94707 8.32643 1.95622 8.13657 2.15674L8.50012 2.50001Z" fill="black"/>
<path d="M4.49988 9.00001C4.49988 9.27615 4.72374 9.50001 4.99988 9.50001C5.27602 9.50001 5.49988 9.27615 5.49988 9.00001C5.49988 8.74375 5.5636 8.64339 5.60343 8.60356C5.64326 8.56373 5.74362 8.50001 5.99988 8.50001C6.27602 8.50001 6.49988 8.27615 6.49988 8.00001C6.49988 7.72387 6.27602 7.50001 5.99988 7.50001C5.58947 7.50001 5.18983 7.60295 4.89632 7.89645C4.60282 8.18996 4.49988 8.5896 4.49988 9.00001Z" fill="black"/>
<path fill-rule="evenodd" clip-rule="evenodd" d="M6.73474 13.878C7.55159 13.6825 8.4482 13.6825 9.26506 13.878C10.1249 14.0837 11.1454 13.9526 11.9834 12.8735C14.215 9.99966 14.5657 3.90734 8.80164 5.86532C8.28568 6.04058 7.71408 6.04058 7.19813 5.86532C1.43401 3.90736 1.78476 9.99967 4.01639 12.8735C4.85434 13.9526 5.87485 14.0837 6.73474 13.878ZM11.1935 12.2602C10.8893 12.6519 10.5932 12.8244 10.3418 12.9007C10.0808 12.98 9.79608 12.9768 9.49776 12.9054C8.52793 12.6734 7.47187 12.6734 6.50204 12.9054C6.2037 12.9768 5.91901 12.98 5.65795 12.9007C5.40661 12.8244 5.11044 12.652 4.80622 12.2602C4.33902 11.6585 3.95292 10.862 3.72652 10.0286C3.49852 9.18931 3.4525 8.38785 3.5863 7.76871C3.71633 7.16699 3.99087 6.81412 4.37234 6.63915C4.7896 6.44776 5.55871 6.36456 6.87649 6.81219C7.60102 7.0583 8.39875 7.05829 9.12328 6.81218C10.4411 6.36455 11.2102 6.44775 11.6274 6.63914C12.0089 6.81411 12.2834 7.16698 12.4135 7.7687C12.5473 8.38784 12.5012 9.1893 12.2732 10.0286C12.0468 10.862 11.6607 11.6585 11.1935 12.2602Z" fill="black"/>
</svg>
