<svg width="16" height="16" viewBox="0 0 16 16" fill="none" xmlns="http://www.w3.org/2000/svg">
<path fill-rule="evenodd" clip-rule="evenodd" d="M5.4681 5.73984C5.24111 5.89847 5.03211 6.09468 4.89324 6.23355L3.79324 7.33355C2.99739 8.1294 2.10832 8.36 1.67969 8.36C1.40355 8.36 1.17969 8.13614 1.17969 7.86C1.17969 7.58386 1.40355 7.36 1.67969 7.36C1.83772 7.36 2.47398 7.2386 3.08613 6.62645L4.18613 5.52645C4.3406 5.37198 4.5976 5.1282 4.89527 4.92016C5.17474 4.72486 5.5742 4.5 5.99969 4.5C6.4097 4.5 6.72471 4.63143 6.96484 4.73162L7.02734 4.75757C7.27306 4.85862 7.49657 4.94 7.83969 4.94C8.16177 4.94 8.30043 4.87064 8.48797 4.77684L8.49608 4.77279C8.74438 4.64864 9.0464 4.5 9.59969 4.5C10.4701 4.5 11.0501 5.08161 11.6381 5.67112L11.7132 5.74645L12.5932 6.62645C12.7118 6.74501 12.9419 6.93779 13.217 7.09775C13.4992 7.26184 13.7753 7.36 13.9997 7.36C14.2758 7.36 14.4997 7.58386 14.4997 7.86C14.4997 8.13614 14.2758 8.36 13.9997 8.36C13.5201 8.36 13.0628 8.16482 12.7144 7.96225C12.3588 7.75555 12.0609 7.50832 11.8861 7.33355L11.0061 6.45355C10.3004 5.74779 10.0122 5.5 9.59969 5.5C9.27761 5.5 9.13894 5.56936 8.95141 5.66316L8.94329 5.66721C8.69499 5.79136 8.39298 5.94 7.83969 5.94C7.3028 5.94 6.93631 5.80139 6.64703 5.68243L6.61108 5.66763C6.34667 5.55874 6.20403 5.5 5.99969 5.5C5.89718 5.5 5.7133 5.56848 5.4681 5.73984ZM2.54753 8.78952C2.76317 8.61701 3.07781 8.65197 3.25032 8.8676C3.35485 8.99827 3.65976 9.29115 4.08685 9.54974C4.51221 9.80728 5.0082 9.99995 5.49988 9.99995C6.41966 9.99995 7.10514 9.78641 7.52946 9.65423C7.63569 9.62114 7.72554 9.59315 7.79861 9.57488L7.91988 9.54456L8.04115 9.57488C8.11422 9.59315 8.20408 9.62114 8.3103 9.65423C8.73463 9.78641 9.4201 9.99995 10.3399 9.99995C10.8316 9.99995 11.3276 9.80728 11.7529 9.54974C12.18 9.29115 12.4849 8.99827 12.5894 8.8676C12.762 8.65197 13.0766 8.61701 13.2922 8.78952C13.5079 8.96202 13.5428 9.27667 13.3703 9.4923C13.1815 9.7283 12.7824 10.0954 12.2708 10.4052C11.7575 10.716 11.0802 11 10.3399 11C9.23587 11 8.34956 10.7179 7.96299 10.5949L7.91988 10.5812L7.87677 10.5949L7.87677 10.5949C7.4902 10.7179 6.60389 11 5.49988 11C4.75956 11 4.08222 10.716 3.56892 10.4052C3.05734 10.0954 2.65825 9.7283 2.46945 9.4923C2.29694 9.27667 2.3319 8.96202 2.54753 8.78952ZM4.73975 8.93988C5.16693 8.93988 5.519 8.79885 5.78258 8.69327L5.80544 8.68412C6.08949 8.5705 6.2794 8.49988 6.49975 8.49988C6.67837 8.49988 6.74153 8.54199 6.87986 8.63421L6.8824 8.6359C7.0723 8.76251 7.33946 8.93988 7.81975 8.93988C8.30004 8.93988 8.56719 8.76251 8.7571 8.6359L8.75963 8.63421C8.89796 8.54199 8.96112 8.49988 9.13975 8.49988C9.33682 8.49988 9.45823 8.55393 9.69893 8.6611L9.73418 8.67678C10.0097 8.79922 10.359 8.93988 10.8997 8.93988C11.1759 8.93988 11.3997 8.71602 11.3997 8.43988C11.3997 8.16374 11.1759 7.93988 10.8997 7.93988C10.5605 7.93988 10.3598 7.86053 10.1403 7.76297L10.0832 7.73733C9.85823 7.63582 9.55692 7.49988 9.13975 7.49988C8.65946 7.49988 8.3923 7.67725 8.2024 7.80385L8.19986 7.80554C8.06153 7.89776 7.99837 7.93988 7.81975 7.93988C7.64112 7.93988 7.57796 7.89777 7.43963 7.80554L7.4371 7.80385C7.24719 7.67725 6.98004 7.49988 6.49975 7.49988C6.07256 7.49988 5.7205 7.6409 5.45691 7.74649L5.43405 7.75564C5.15 7.86926 4.96009 7.93988 4.73975 7.93988C4.4636 7.93988 4.23975 8.16374 4.23975 8.43988C4.23975 8.71602 4.4636 8.93988 4.73975 8.93988Z" fill="black"/>
</svg>
