<svg width="16" height="16" viewBox="0 0 16 16" fill="none" xmlns="http://www.w3.org/2000/svg">
<path fill-rule="evenodd" clip-rule="evenodd" d="M5 4V7.5H12V4H5ZM4.5 3C4.22386 3 4 3.22386 4 3.5V8C4 8.27614 4.22386 8.5 4.5 8.5H8.5V9.5C8.5 10.3284 7.82843 11 7 11H3.5V10H2.5V11.5V13H3.5V12H7C8.38071 12 9.5 10.8807 9.5 9.5V8.5H12.5C12.7761 8.5 13 8.27614 13 8V3.5C13 3.22386 12.7761 3 12.5 3H4.5ZM14 4C14.2761 4 14.5 4.22386 14.5 4.5V7C14.5 7.27614 14.2761 7.5 14 7.5C13.7239 7.5 13.5 7.27614 13.5 7V4.5C13.5 4.22386 13.7239 4 14 4ZM6.5 5C6.22386 5 6 5.22386 6 5.5C6 5.77614 6.22386 6 6.5 6H8C8.27614 6 8.5 5.77614 8.5 5.5C8.5 5.22386 8.27614 5 8 5H6.5Z" fill="black"/>
</svg>
