<svg width="16" height="16" viewBox="0 0 16 16" fill="none" xmlns="http://www.w3.org/2000/svg">
<path fill-rule="evenodd" clip-rule="evenodd" d="M2 3C2 2.44772 2.44772 2 3 2H10.4586C10.4658 2 10.473 2.00013 10.4801 2.00039C10.4867 2.00013 10.4933 2 10.5 2C10.6452 2 10.7759 2.06188 10.8673 2.16072C10.8725 2.16562 10.8777 2.17063 10.8828 2.17574L13.8243 5.11716C13.8294 5.12226 13.8344 5.12745 13.8393 5.13272C13.9381 5.22407 14 5.35481 14 5.5C14 5.50665 13.9999 5.51327 13.9996 5.51986C13.9999 5.52703 14 5.53422 14 5.54142V13C14 13.5523 13.5523 14 13 14H3C2.44772 14 2 13.5523 2 13V3ZM3 3L10 3V5.4C10 5.73137 10.2686 6 10.6 6H13V13H3V3ZM11 3.70711L12.2929 5H11V3.70711ZM4.5 6.54808C4.64627 6.53892 4.7834 6.53205 4.91139 6.52747C5.03938 6.51831 5.16737 6.51374 5.29536 6.51374C5.42335 6.50916 5.55591 6.50687 5.69304 6.50687C5.83017 6.50229 5.9833 6.5 6.15243 6.5C6.60953 6.5 6.99121 6.55266 7.29747 6.65797C7.60373 6.7587 7.84828 6.90751 8.03112 7.1044C8.21396 7.30128 8.34195 7.54396 8.41509 7.83242C8.49279 8.12088 8.53165 8.45284 8.53165 8.8283C8.53165 9.70284 8.33281 10.3484 7.93513 10.7651C7.54202 11.1818 6.91122 11.3901 6.04272 11.3901C5.74561 11.3901 5.48049 11.3855 5.24736 11.3764C5.01881 11.3672 4.76969 11.3535 4.5 11.3352V6.54808ZM5.62447 10.3874C5.71132 10.3965 5.78903 10.4034 5.8576 10.408C5.92616 10.4125 6.00615 10.4148 6.09758 10.4148C6.54554 10.4148 6.87008 10.2958 7.0712 10.0577C7.27233 9.8196 7.37289 9.4304 7.37289 8.89011C7.37289 8.39103 7.28147 8.03159 7.09863 7.81181C6.91579 7.58745 6.60724 7.47528 6.173 7.47528C6.06786 7.47528 5.97416 7.47756 5.89188 7.48214C5.8096 7.48672 5.72047 7.49359 5.62447 7.50275V10.3874Z" fill="black"/>
</svg>
