<svg width="16" height="16" viewBox="0 0 16 16" fill="none" xmlns="http://www.w3.org/2000/svg">
<path fill-rule="evenodd" clip-rule="evenodd" d="M3.5 3.5C3.5 2.67157 4.17157 2 5 2H11C11.8284 2 12.5 2.67157 12.5 3.5V12.5C12.5 13.3284 11.8284 14 11 14H5C4.17157 14 3.5 13.3284 3.5 12.5V3.5ZM5 3C4.72386 3 4.5 3.22386 4.5 3.5V12.5C4.5 12.7761 4.72386 13 5 13H11C11.2761 13 11.5 12.7761 11.5 12.5V3.5C11.5 3.22386 11.2761 3 11 3H5ZM7.25 11C7.25 10.5858 7.58579 10.25 8 10.25C8.41421 10.25 8.75 10.5858 8.75 11C8.75 11.4142 8.41421 11.75 8 11.75C7.58579 11.75 7.25 11.4142 7.25 11ZM9 4C9.27614 4 9.5 4.22386 9.5 4.5C9.5 4.77614 9.27614 5 9 5H7C6.72386 5 6.5 4.77614 6.5 4.5C6.5 4.22386 6.72386 4 7 4H9Z" fill="black"/>
</svg>
