<svg width="16" height="16" viewBox="0 0 16 16" fill="none" xmlns="http://www.w3.org/2000/svg">
<path fill-rule="evenodd" clip-rule="evenodd" d="M5.35904 2.5C5.15459 2.5 4.97074 2.62448 4.89481 2.8143L4.10476 4.78943H11.0859L10.3726 2.82904C10.3008 2.63149 10.113 2.5 9.90278 2.5H5.35904ZM12.151 4.792L11.3124 2.48712C11.0967 1.89447 10.5334 1.5 9.90278 1.5H5.35904C4.74569 1.5 4.19412 1.87343 3.96633 2.44291L3.02772 4.78943H3C2.72386 4.78943 2.5 5.01329 2.5 5.28943C2.5 5.56557 2.72386 5.78943 3 5.78943H3.35277C3.36166 5.78967 3.37052 5.78967 3.37937 5.78943H11.7866C11.7955 5.78967 11.8044 5.78967 11.8134 5.78943H12.1C12.3761 5.78943 12.6 5.56557 12.6 5.28943C12.6 5.03052 12.4032 4.81757 12.151 4.792ZM3.62769 6.76771C3.9013 6.7304 4.15335 6.92195 4.19067 7.19556L5.05957 13.5675C5.09335 13.8153 5.30495 14 5.55498 14H9.73025C9.98029 14 10.1919 13.8153 10.2257 13.5675L11.0946 7.19556C11.1319 6.92195 11.3839 6.7304 11.6575 6.76771C11.9312 6.80502 12.1227 7.05707 12.0854 7.33068L11.2165 13.7026C11.1151 14.4459 10.4804 15 9.73025 15H5.55498C4.80488 15 4.17009 14.4459 4.06874 13.7026L3.19984 7.33068C3.16252 7.05707 3.35408 6.80502 3.62769 6.76771Z" fill="black"/>
</svg>
