<svg width="16" height="16" viewBox="0 0 16 16" fill="none" xmlns="http://www.w3.org/2000/svg">
<path d="M8.5 12C8.22386 12 8 11.7761 8 11.5V7.50025C8 7.22411 8.22386 7 8.5 7C8.77614 7 9 7.22389 9 7.50003V11.5C9 11.7761 8.77614 12 8.5 12Z" fill="black"/>
<path d="M5 11.5C5 11.7761 5.22386 12 5.5 12C5.77614 12 6 11.7761 6 11.5V7.50003C6 7.22389 5.77614 7 5.5 7C5.22386 7 5 7.22411 5 7.50025V11.5Z" fill="black"/>
<path fill-rule="evenodd" clip-rule="evenodd" d="M7 1.5C6.25783 1.5 5.58697 1.83122 5.15836 2.35916C5.09563 2.35311 5.03209 2.35001 4.96792 2.35001C4.4682 2.35001 3.98781 2.53728 3.62816 2.8417C3.26789 3.14666 3.00055 3.59632 3.00055 4.12462C3.00055 4.5066 3.00042 4.63425 3.00029 4.76564L3.0001 4.98979L3 5V11.5C3 12.8807 4.11929 14 5.5 14H8.5C9.72602 14 10.7459 13.1175 10.9591 11.953C12.6918 11.7435 14.0345 10.2678 14.0345 8.47852V7.51074C14.0345 6.68231 13.363 6.01074 12.5345 6.01074H11V5L11 4.99673V4.12462C11 3.08385 10.0341 2.35001 9.06803 2.35001C8.99253 2.35001 8.91791 2.35429 8.84446 2.36264C8.41597 1.83266 7.74376 1.5 7 1.5ZM5.84993 3.10782C6.07268 2.75303 6.49723 2.5 7 2.5C7.5052 2.5 7.93135 2.75546 8.15323 3.11288C8.29532 3.34177 8.56902 3.44773 8.82509 3.38087C8.9015 3.36091 8.9829 3.35001 9.06803 3.35001C9.61151 3.35001 9.99999 3.7575 9.99999 4.12462V5H4.0001L4.00029 4.76745C4.00042 4.63023 4.00055 4.4961 4.00055 4.12462C4.00055 3.94898 4.08952 3.76133 4.27424 3.60497C4.45959 3.44808 4.71288 3.35001 4.96792 3.35001C5.04614 3.35001 5.1212 3.35921 5.19211 3.37618C5.44393 3.43641 5.70984 3.33095 5.84993 3.10782ZM10 6H4V11.5C4 12.3284 4.67157 13 5.5 13H8.5C9.32843 13 10 12.3284 10 11.5V6ZM13.0345 8.47852C13.0345 9.70016 12.1583 10.7172 11 10.9353V7.01074H12.5345C12.8107 7.01074 13.0345 7.2346 13.0345 7.51074V8.47852Z" fill="black"/>
</svg>
