<svg width="16" height="16" viewBox="0 0 16 16" fill="none" xmlns="http://www.w3.org/2000/svg">
<path fill-rule="evenodd" clip-rule="evenodd" d="M4.06097 9.32208C4.02041 9.10235 4 8.87938 4 8.65594V3L11.3135 3L4.35718 10.3911C4.24485 10.1354 4.16131 9.86559 4.10972 9.58614L4.06097 9.32208ZM4.90353 11.2696C5.14801 11.5607 5.43888 11.8146 5.76814 12.0196L8 13.3385L10.2319 12.0196C11.102 11.4778 11.7041 10.5945 11.8903 9.58614L11.939 9.32208C11.9796 9.10235 12 8.87938 12 8.65594V3.72963L4.90353 11.2696ZM12 2H4C3.44772 2 3 2.44772 3 3V8.65594C3 8.94027 3.02597 9.22402 3.07759 9.50363L3.12634 9.76769C3.3643 11.0566 4.13555 12.1851 5.25 12.875L7.49127 14.1994C7.80508 14.3848 8.19492 14.3848 8.50873 14.1994L10.75 12.875C11.8645 12.1851 12.6357 11.0566 12.8737 9.76769L12.9224 9.50363C12.974 9.22402 13 8.94027 13 8.65594V3C13 2.44772 12.5523 2 12 2Z" fill="black"/>
</svg>
