<svg width="16" height="16" viewBox="0 0 16 16" fill="none" xmlns="http://www.w3.org/2000/svg">
<path fill-rule="evenodd" clip-rule="evenodd" d="M9.78169 3.76325C9.73852 3.63374 9.83492 3.5 9.97143 3.5H12.529C12.6655 3.5 12.7619 3.63374 12.7188 3.76325L12.1399 5.5H10.3606L9.78169 3.76325ZM9.5 6.08045L8.83301 4.07947C8.574 3.30244 9.15236 2.5 9.97143 2.5H12.529C13.3481 2.5 13.9265 3.30244 13.6675 4.07947L13 6.08183V12.25C13 13.2165 12.2165 14 11.25 14C10.2835 14 9.5 13.2165 9.5 12.25V6.08045ZM5.63167 2.62515C6.03061 2.42568 6.5 2.71578 6.5 3.16181V6.5083C6.78377 6.5559 7 6.8027 7 7.1V10.5083C7.28377 10.5559 7.5 10.8027 7.5 11.1V13.4C7.5 13.7314 7.23137 14 6.9 14H3.1C2.76863 14 2.5 13.7314 2.5 13.4V11.1C2.5 10.8027 2.71623 10.5559 3 10.5083V7.1C3 6.8027 3.21623 6.5559 3.5 6.5083V4.06181C3.5 3.83455 3.6284 3.62679 3.83167 3.52515L5.63167 2.62515ZM3.5 11.5V13H6.5V11.5H3.5ZM6 10.5H4V7.50001L4.00242 7.5H5.99758L6 7.50001V10.5ZM5.5 3.80902V6.5H4.5V4.30902L5.5 3.80902ZM10.5 6.5V12.25C10.5 12.6642 10.8358 13 11.25 13C11.6642 13 12 12.6642 12 12.25V6.5H10.5Z" fill="black"/>
</svg>
