<svg width="16" height="16" viewBox="0 0 16 16" fill="none" xmlns="http://www.w3.org/2000/svg">
<path fill-rule="evenodd" clip-rule="evenodd" d="M8 2.5C6.63992 2.5 5.5 3.47637 5.5 5V7C5.5 7.90893 5.91122 8.64875 6.56845 9.08364C6.62584 9.12162 6.68382 9.15573 6.74124 9.18642L6.01315 10.0002L6 9.99999C6.00424 9.99999 6.00384 9.99987 5.99869 9.99836C5.98309 9.99379 5.92389 9.97643 5.81786 9.91079C5.69309 9.83355 5.55104 9.71892 5.41605 9.58393C5.28107 9.44895 5.16644 9.3069 5.0892 9.18212C5.02356 9.0761 5.0062 9.0169 5.00163 9.0013C5.00012 8.99615 5 8.99575 5 8.99999C5 8.72385 4.77614 8.49999 4.5 8.49999C4.22386 8.49999 4 8.72385 4 8.99999C4 9.26706 4.12311 9.52138 4.23893 9.70848C4.36481 9.91183 4.53143 10.1135 4.70895 10.291C4.88646 10.4686 5.08816 10.6352 5.29151 10.7611L5.31792 10.7772L3.62738 12.6666C3.44325 12.8724 3.46081 13.1885 3.66661 13.3726C3.8724 13.5568 4.1885 13.5392 4.37263 13.3334L10.4867 6.5H10.5V6.48516L12.8726 3.8334C13.0568 3.62761 13.0392 3.31151 12.8334 3.12738C12.6276 2.94325 12.3115 2.96081 12.1274 3.16661L10.5 4.98549C10.4928 3.47017 9.35576 2.5 8 2.5ZM9.5 6.1031V5C9.5 4.06903 8.84906 3.5 8 3.5C7.15094 3.5 6.5 4.06903 6.5 5V7C6.5 7.58894 6.75566 8.00842 7.12028 8.24969C7.21718 8.31381 7.32854 8.36361 7.44118 8.40413L9.5 6.1031ZM11.9472 9.22359C12.0707 8.9766 11.9706 8.67627 11.7236 8.55277C11.4766 8.42928 11.1763 8.52939 11.0528 8.77638C10.8324 9.21707 10.5098 9.64254 10.0352 9.95896C9.56365 10.2733 8.91251 10.5 8 10.5C7.82444 10.5 7.67001 10.5905 7.58081 10.7273C7.5297 10.8058 7.5 10.8994 7.5 11V13C7.5 13.2761 7.72386 13.5 8 13.5C8.27614 13.5 8.5 13.2761 8.5 13V11.4798C9.35206 11.4091 10.0401 11.1575 10.5898 10.791C11.2402 10.3574 11.6676 9.78291 11.9472 9.22359Z" fill="black"/>
</svg>
