<svg width="16" height="16" viewBox="0 0 16 16" fill="none" xmlns="http://www.w3.org/2000/svg">
<path fill-rule="evenodd" clip-rule="evenodd" d="M8.60105 2.58034L7.944 2.95659C7.4095 3.26266 7.15327 3.86774 7.26537 4.4404C6.73523 4.63788 6.35568 5.14787 6.35386 5.7486L6.3516 6.49532C6.34979 7.09099 6.72005 7.60014 7.24263 7.80419C7.15412 8.35816 7.40583 8.93519 7.92049 9.23513L8.56564 9.61112C9.08466 9.9136 9.71661 9.84438 10.1553 9.48711C10.5924 9.87364 11.2439 9.9589 11.7785 9.65283L12.4355 9.27659C12.9701 8.97047 13.2263 8.36527 13.1141 7.79253C13.6474 7.59665 14.0298 7.085 14.0316 6.48212L14.0338 5.73537C14.0356 5.13923 13.6649 4.62991 13.1419 4.42613C13.2308 3.87193 12.9792 3.29436 12.4642 2.99419L11.819 2.61819C11.2981 2.31462 10.6633 2.38538 10.2244 2.74624C9.78729 2.35956 9.13564 2.27423 8.60105 2.58034ZM8.44093 3.82438C8.25139 3.93292 8.18432 4.17303 8.28891 4.36372L8.29258 4.37027L8.69288 5.06933C8.77015 5.20428 8.67061 5.37192 8.51514 5.36867L7.76222 5.35293C7.75471 5.35278 7.74726 5.35283 7.73985 5.35308C7.72796 5.35349 7.7162 5.35441 7.70459 5.35584C7.5078 5.37999 7.35448 5.54747 7.35386 5.75163L7.35159 6.49835C7.35101 6.69275 7.48911 6.85489 7.67235 6.89172C7.68385 6.89403 7.69552 6.89584 7.70735 6.89714C7.72298 6.89886 7.73887 6.89968 7.75498 6.89954L8.48225 6.89339C8.63835 6.89206 8.73572 7.0621 8.65557 7.19606L8.28216 7.82019C8.27389 7.83401 8.26655 7.84813 8.26013 7.86247C8.25526 7.87334 8.25092 7.88433 8.24709 7.89541C8.18611 8.07208 8.25605 8.27326 8.42401 8.37115L9.06916 8.74713C9.24555 8.84993 9.4676 8.80247 9.58804 8.64497C9.59514 8.63568 9.60189 8.626 9.60826 8.61595C9.61223 8.60969 9.61604 8.60329 9.6197 8.59674L9.98721 7.93941C10.0631 7.80368 10.2581 7.80268 10.3353 7.93763L10.7356 8.63669L10.7394 8.64317C10.851 8.82988 11.092 8.89357 11.2815 8.78504L11.9386 8.40879C12.1286 8.3 12.1955 8.05896 12.0898 7.86805L12.0869 7.86291L11.6862 7.16302C11.609 7.02825 11.7082 6.86078 11.8634 6.86367L12.6242 6.87781L12.6388 6.87781C12.6507 6.87761 12.6624 6.87689 12.674 6.87567C12.8741 6.85462 13.031 6.68558 13.0316 6.47909L13.0338 5.73234C13.0344 5.53699 12.895 5.37428 12.7105 5.33846C12.6986 5.33614 12.6864 5.33435 12.6741 5.33312C12.6595 5.33166 12.6446 5.33099 12.6296 5.33115L11.8991 5.33897C11.7426 5.34065 11.6449 5.17004 11.7256 5.03592L12.102 4.4099C12.1098 4.397 12.1167 4.38384 12.1229 4.37047C12.1281 4.35923 12.1327 4.34786 12.1367 4.33637C12.1992 4.15915 12.1294 3.95653 11.9606 3.85817L11.3155 3.48217C11.1371 3.3782 10.9119 3.42792 10.7924 3.58988C10.7855 3.59925 10.779 3.60899 10.7728 3.6191L10.7654 3.63175L10.3925 4.295C10.3164 4.43037 10.1218 4.43114 10.0446 4.29638L9.64386 3.59649L9.64089 3.59139C9.52973 3.40361 9.28797 3.33934 9.09798 3.44814L8.44093 3.82438ZM2.5 3.9999C2.77614 3.9999 3 4.22375 3 4.4999L5.26176 9.11807C5.02159 9.04133 4.76563 8.9999 4.5 8.9999C3.9372 8.9999 3.41783 9.18587 3 9.49971V11.4999V11.5C3 11.7761 2.77614 12 2.5 12C2.22386 12 2 11.7761 2 11.5V11.4999V4.4999C2 4.22375 2.22386 3.9999 2.5 3.9999ZM3 11.4999C3 10.6715 3.67157 9.9999 4.5 9.9999C5.32843 9.9999 6 10.6715 6 11.4999C6 12.3283 5.32843 12.9999 4.5 12.9999C3.67157 12.9999 3 12.3283 3 11.4999ZM6.34532 11.3305L5.26176 9.11807C5.98287 9.34851 6.56168 9.89734 6.83285 10.5992L6.34532 11.3305ZM6.34532 11.3305L6.8487 12.3584C6.68336 12.5195 6.42249 12.5492 6.22265 12.4159C5.99289 12.2627 5.9308 11.9523 6.08397 11.7225L6.34532 11.3305Z" fill="black"/>
</svg>
