<svg width="16" height="16" viewBox="0 0 16 16" fill="none" xmlns="http://www.w3.org/2000/svg">
<path fill-rule="evenodd" clip-rule="evenodd" d="M11.5 3.03418L13.494 5.02822L11.5 7.02226L9.50596 5.02822L11.5 3.03418ZM10.7929 2.32707C11.1834 1.93655 11.8166 1.93655 12.2071 2.32707L14.2011 4.32112C14.5917 4.71164 14.5917 5.3448 14.2011 5.73533L12.2071 7.72937C11.8166 8.11989 11.1834 8.11989 10.7929 7.72937L8.79885 5.73533C8.40833 5.3448 8.40833 4.71164 8.79885 4.32111L10.7929 2.32707ZM4 3.53546H7V6.53546H4L4 3.53546ZM3 3.53546C3 2.98318 3.44772 2.53546 4 2.53546H7C7.55228 2.53546 8 2.98318 8 3.53546V6.53546C8 7.08775 7.55228 7.53546 7 7.53546H4C3.44772 7.53546 3 7.08775 3 6.53546V3.53546ZM4 9.53543H7V12.5354H4L4 9.53543ZM3 9.53543C3 8.98315 3.44772 8.53543 4 8.53543H7C7.55228 8.53543 8 8.98315 8 9.53543V12.5354C8 13.0877 7.55228 13.5354 7 13.5354H4C3.44772 13.5354 3 13.0877 3 12.5354V9.53543ZM13 9.53543H10V12.5354H13V9.53543ZM10 8.53543C9.44772 8.53543 9 8.98315 9 9.53543V12.5354C9 13.0877 9.44772 13.5354 10 13.5354H13C13.5523 13.5354 14 13.0877 14 12.5354V9.53543C14 8.98315 13.5523 8.53543 13 8.53543H10Z" fill="black"/>
</svg>
