<svg width="16" height="16" viewBox="0 0 16 16" fill="none" xmlns="http://www.w3.org/2000/svg">
<path fill-rule="evenodd" clip-rule="evenodd" d="M11.0005 8C11.0005 6.34314 9.65734 5 8.00049 5C6.34363 5 5.00049 6.34314 5.00049 8C5.00049 9.65685 6.34363 11 8.00049 11C9.65734 11 11.0005 9.65685 11.0005 8ZM12.0005 8C12.0005 5.79086 10.2096 4 8.00049 4C5.79135 4 4.00049 5.79086 4.00049 8C4.00049 10.2091 5.79135 12 8.00049 12C10.2096 12 12.0005 10.2091 12.0005 8ZM3.63774 10.9577C3.17478 10.1221 2.90039 9.09577 2.90039 7.9999C2.90039 6.90404 3.17477 5.87789 3.63774 5.04231C3.77158 4.80076 3.68426 4.49646 3.44272 4.36263C3.20117 4.2288 2.89687 4.31611 2.76304 4.55766C2.21505 5.54667 1.90039 6.74042 1.90039 7.9999C1.90039 9.25936 2.21505 10.4533 2.76304 11.4423C2.89687 11.6839 3.20117 11.7712 3.44272 11.6373C3.68426 11.5035 3.77158 11.1992 3.63774 10.9577ZM12.363 5.04231C12.826 5.87788 13.1003 6.9042 13.1003 8.00007C13.1003 9.09593 12.826 10.1221 12.363 10.9577C12.2292 11.1992 12.3165 11.5035 12.558 11.6373C12.7996 11.7712 13.1039 11.6839 13.2377 11.4423C13.7857 10.4533 14.1003 9.25955 14.1003 8.00007C14.1003 6.74061 13.7857 5.54668 13.2377 4.55766C13.1039 4.31612 12.7996 4.2288 12.558 4.36263C12.3165 4.49647 12.2292 4.80077 12.363 5.04231ZM9.50108 8.33283C9.73857 8.1745 9.73857 7.82552 9.50108 7.66719L7.62219 6.41459C7.35637 6.23738 7.00031 6.42794 7.00031 6.74741L7.00031 9.2526C7.00031 9.57208 7.35637 9.76263 7.62219 9.58542L9.50108 8.33283Z" fill="#EFEFEF"/>
<path fill-rule="evenodd" clip-rule="evenodd" d="M11.0005 8C11.0005 6.34314 9.65734 5 8.00049 5C6.34363 5 5.00049 6.34314 5.00049 8C5.00049 9.65685 6.34363 11 8.00049 11C9.65734 11 11.0005 9.65685 11.0005 8ZM12.0005 8C12.0005 5.79086 10.2096 4 8.00049 4C5.79135 4 4.00049 5.79086 4.00049 8C4.00049 10.2091 5.79135 12 8.00049 12C10.2096 12 12.0005 10.2091 12.0005 8ZM3.63774 10.9577C3.17478 10.1221 2.90039 9.09577 2.90039 7.9999C2.90039 6.90404 3.17477 5.87789 3.63774 5.04231C3.77158 4.80076 3.68426 4.49646 3.44272 4.36263C3.20117 4.2288 2.89687 4.31611 2.76304 4.55766C2.21505 5.54667 1.90039 6.74042 1.90039 7.9999C1.90039 9.25936 2.21505 10.4533 2.76304 11.4423C2.89687 11.6839 3.20117 11.7712 3.44272 11.6373C3.68426 11.5035 3.77158 11.1992 3.63774 10.9577ZM12.363 5.04231C12.826 5.87788 13.1003 6.9042 13.1003 8.00007C13.1003 9.09593 12.826 10.1221 12.363 10.9577C12.2292 11.1992 12.3165 11.5035 12.558 11.6373C12.7996 11.7712 13.1039 11.6839 13.2377 11.4423C13.7857 10.4533 14.1003 9.25955 14.1003 8.00007C14.1003 6.74061 13.7857 5.54668 13.2377 4.55766C13.1039 4.31612 12.7996 4.2288 12.558 4.36263C12.3165 4.49647 12.2292 4.80077 12.363 5.04231ZM9.50108 8.33283C9.73857 8.1745 9.73857 7.82552 9.50108 7.66719L7.62219 6.41459C7.35637 6.23738 7.00031 6.42794 7.00031 6.74741L7.00031 9.2526C7.00031 9.57208 7.35637 9.76263 7.62219 9.58542L9.50108 8.33283Z" fill="black"/>
</svg>
