<svg width="16" height="16" viewBox="0 0 16 16" fill="none" xmlns="http://www.w3.org/2000/svg">
<path fill-rule="evenodd" clip-rule="evenodd" d="M8.11002 2.50108C7.77321 2.49477 7.5 2.76686 7.5 3.10005V7.90005C7.5 8.23143 7.76863 8.50005 8.1 8.50005H12.9C13.2285 8.50005 13.5061 8.23182 13.4988 7.88943C13.4419 5.21505 11.3136 2.56114 8.11002 2.50108ZM8.5 7.50005V3.52634C10.7219 3.76307 12.2437 5.56437 12.4706 7.50005H8.5ZM6.20586 3.71352C6.45751 3.59983 6.56935 3.30365 6.45565 3.052C6.34196 2.80035 6.04579 2.68852 5.79414 2.80221C3.85268 3.67936 2.5 5.63327 2.5 7.90418C2.5 10.9947 5.00537 13.5001 8.09591 13.5001C10.3668 13.5001 12.3207 12.1474 13.1979 10.206C13.3116 9.95431 13.1997 9.65814 12.9481 9.54444C12.6964 9.43075 12.4003 9.54258 12.2866 9.79423C11.5653 11.3907 9.95961 12.5001 8.09591 12.5001C5.55766 12.5001 3.5 10.4424 3.5 7.90418C3.5 6.04049 4.60935 4.43482 6.20586 3.71352Z" fill="black"/>
</svg>
