<svg width="16" height="16" viewBox="0 0 16 16" fill="none" xmlns="http://www.w3.org/2000/svg">
<path fill-rule="evenodd" clip-rule="evenodd" d="M2.5 10.5V3.5H13.5V10.5H2.5ZM2.1 2.5C1.76863 2.5 1.5 2.76863 1.5 3.1V10.9C1.5 11.2314 1.76863 11.5 2.1 11.5H13.9C14.2314 11.5 14.5 11.2314 14.5 10.9V3.1C14.5 2.76863 14.2314 2.5 13.9 2.5H2.1ZM2 12.5C1.72386 12.5 1.5 12.7239 1.5 13C1.5 13.2761 1.72386 13.5 2 13.5H14C14.2761 13.5 14.5 13.2761 14.5 13C14.5 12.7239 14.2761 12.5 14 12.5H2ZM7.5 6.5H8.5C8.77614 6.5 9 6.27614 9 6C9 5.72386 8.77614 5.5 8.5 5.5H7.5V6.5ZM10 6.00001C10 5.17158 9.32843 4.5 8.5 4.5H7.08064C6.75996 4.5 6.5 4.75996 6.5 5.08064V6.5H6C5.72386 6.5 5.5 6.72386 5.5 7C5.5 7.27614 5.72386 7.5 6 7.5H6.5V8.00012H6C5.72386 8.00012 5.5 8.22398 5.5 8.50012C5.5 8.77626 5.72386 9.00012 6 9.00012H6.5V9.5C6.5 9.77614 6.72386 10 7 10C7.27614 10 7.5 9.77614 7.5 9.5V9.00012H8C8.27614 9.00012 8.5 8.77626 8.5 8.50012C8.5 8.22398 8.27614 8.00012 8 8.00012H7.5V7.5H8.5C9.32842 7.5 9.99999 6.82843 10 6.00001ZM4 6C4.27614 6 4.5 6.22386 4.5 6.5V7.5C4.5 7.77614 4.27614 8 4 8C3.72386 8 3.5 7.77614 3.5 7.5V6.5C3.5 6.22386 3.72386 6 4 6ZM12.5 6.5C12.5 6.22386 12.2761 6 12 6C11.7239 6 11.5 6.22386 11.5 6.5V7.5C11.5 7.77614 11.7239 8 12 8C12.2761 8 12.5 7.77614 12.5 7.5V6.5Z" fill="black"/>
</svg>
