<svg width="16" height="16" viewBox="0 0 16 16" fill="none" xmlns="http://www.w3.org/2000/svg">
<path fill-rule="evenodd" clip-rule="evenodd" d="M1.5 3C1.5 2.72386 1.72386 2.5 2 2.5H3C3.82843 2.5 4.5 3.17157 4.5 4V8.5H11C11.8284 8.5 12.5 7.82843 12.5 7V4H6.5C6.22386 4 6 3.77614 6 3.5C6 3.22386 6.22386 3 6.5 3H12.9C13.2314 3 13.5 3.26863 13.5 3.6V7C13.5 8.38071 12.3807 9.5 11 9.5H4.5V11.5C4.5 11.7761 4.72386 12 5 12H5.5H12H13C13.2761 12 13.5 12.2239 13.5 12.5C13.5 12.7761 13.2761 13 13 13H12.5V13.5C12.5 13.7761 12.2761 14 12 14C11.7239 14 11.5 13.7761 11.5 13.5V13H6V13.5C6 13.7761 5.77614 14 5.5 14C5.22386 14 5 13.7761 5 13.5V13C4.17157 13 3.5 12.3284 3.5 11.5V9V4C3.5 3.72386 3.27614 3.5 3 3.5H2C1.72386 3.5 1.5 3.27614 1.5 3Z" fill="black"/>
</svg>
