<svg width="16" height="16" viewBox="0 0 16 16" fill="none" xmlns="http://www.w3.org/2000/svg">
<path fill-rule="evenodd" clip-rule="evenodd" d="M2.00006 2.5C1.44778 2.5 1.00006 2.94771 1.00006 3.5V4.36013C0.99998 4.36534 0.99998 4.37055 1.00006 4.37576V11.7368C1.00006 12.2891 1.44778 12.7368 2.00006 12.7368H6.70839C6.98454 12.7368 7.20839 12.513 7.20839 12.2368C7.20839 11.9607 6.98454 11.7368 6.70839 11.7368H2.00006V5.29505L7.47556 8.89158C7.64219 9.00103 7.85792 9.00103 8.02456 8.89158L13.5001 5.29504L13.5001 8.47368C13.5001 8.74982 13.7239 8.97368 14.0001 8.97368C14.2762 8.97368 14.5001 8.74982 14.5001 8.47368V4.37512C14.5001 4.37034 14.5001 4.36555 14.5001 4.36076V3.5C14.5001 2.94771 14.0523 2.5 13.5001 2.5H2.00006ZM13.5001 4.09861V3.5L2.00006 3.5V4.09862L7.75006 7.87545L13.5001 4.09861ZM14.7377 11.1373C14.9806 11.006 15.0712 10.7027 14.94 10.4597C14.8088 10.2167 14.5055 10.1261 14.2625 10.2573L13.6051 10.6123C13.1076 10.881 12.5053 10.8673 12.0205 10.5764C11.2329 10.1039 10.2544 10.0817 9.44621 10.5181L8.78883 10.8731C8.54585 11.0043 8.45524 11.3077 8.58645 11.5507C8.71766 11.7936 9.021 11.8842 9.26398 11.753L9.92136 11.3981C10.4189 11.1294 11.0212 11.143 11.506 11.4339C12.2936 11.9065 13.2721 11.9287 14.0803 11.4922L14.7377 11.1373ZM14.7377 13.6004C14.9806 13.4692 15.0712 13.1658 14.94 12.9229C14.8088 12.6799 14.5055 12.5893 14.2625 12.7205L13.6051 13.0755C13.1076 13.3441 12.5053 13.3305 12.0205 13.0396C11.2329 12.567 10.2544 12.5449 9.44621 12.9813L8.78883 13.3363C8.54585 13.4675 8.45524 13.7708 8.58645 14.0138C8.71766 14.2568 9.021 14.3474 9.26398 14.2162L9.92136 13.8612C10.4189 13.5925 11.0212 13.6062 11.506 13.8971C12.2936 14.3696 13.2721 14.3918 14.0803 13.9554L14.7377 13.6004Z" fill="black"/>
</svg>
