<svg width="16" height="16" viewBox="0 0 16 16" fill="none" xmlns="http://www.w3.org/2000/svg">
<path d="M7 4C6.72386 4 6.5 4.22386 6.5 4.5C6.5 4.77614 6.72386 5 7 5H8C8.27614 5 8.5 4.77614 8.5 4.5C8.5 4.22386 8.27614 4 8 4H7Z" fill="black"/>
<path fill-rule="evenodd" clip-rule="evenodd" d="M4.80659 2.42329C4.8258 2.16208 5.04333 1.95996 5.30525 1.95996H10.7519C11.0132 1.95996 11.2304 2.16112 11.2504 2.42162L11.5066 5.75186C11.5082 5.77385 11.5106 5.7998 11.5132 5.82858C11.5219 5.92501 11.5334 6.05348 11.5334 6.17332C11.5334 7.88503 10.214 9.27463 8.53608 9.47514L8.53565 12.9998H10.5457C10.8218 12.9998 11.0457 13.2237 11.0457 13.4998C11.0457 13.776 10.8218 13.9998 10.5457 13.9998H5.52246C5.24632 13.9998 5.02246 13.776 5.02246 13.4998C5.02246 13.2237 5.24632 12.9998 5.52246 12.9998H7.53565L7.53608 9.47545C5.85688 9.27607 4.53613 7.88591 4.53613 6.17332C4.53613 6.05938 4.54645 5.93813 4.55423 5.84672C4.55649 5.82016 4.55854 5.79608 4.56006 5.77547L4.80659 2.42329ZM8.11728 8.5L7.94433 8.49999C6.59889 8.49585 5.53613 7.44125 5.53613 6.17332C5.53613 6.1053 5.54116 6.04596 5.54783 5.9673C5.55078 5.93243 5.55406 5.89372 5.55736 5.84882L5.76982 2.95996H10.2889L10.5095 5.82856C10.5133 5.878 10.5171 5.9202 10.5205 5.95807C10.5279 6.03991 10.5334 6.10183 10.5334 6.17332C10.5334 7.44374 9.46647 8.5 8.11728 8.5Z" fill="black"/>
</svg>
