<svg width="16" height="16" viewBox="0 0 16 16" fill="none" xmlns="http://www.w3.org/2000/svg">
<path fill-rule="evenodd" clip-rule="evenodd" d="M7.99991 13.9999C6.82708 13.9999 5.69213 13.5846 4.79625 12.8277L4.71459 12.7587C4.2882 12.3985 4.40084 11.7135 4.92013 11.5087L6.07605 11.053C6.31116 10.9603 6.44359 10.71 6.38801 10.4635C6.31619 10.1449 5.96868 9.97387 5.67241 10.1113L4.86589 10.4854C3.51885 11.1103 1.92877 10.4152 1.47263 9.00204C0.823695 6.99167 0.85796 4.82309 1.57009 2.83422L1.76545 2.28861C1.97268 1.70985 2.75687 1.62675 3.08079 2.14923L5.52182 6.08658L5.41165 6.37617C5.24799 6.80637 5.61219 7.25213 6.06638 7.17751C6.35486 7.13012 6.56658 6.88078 6.56658 6.58843V5.63802C6.56658 5.30216 6.29431 5.02989 5.95845 5.02989H5.87545C5.30934 5.02989 4.92335 4.45669 5.13621 3.93213L5.19047 3.79842C5.39794 3.28716 5.80005 2.87929 6.30831 2.66458L6.47958 2.59223C7.00161 2.3717 7.58235 2.46869 7.99991 2.802C8.41746 2.46869 8.99821 2.3717 9.52024 2.59223L9.69151 2.66458C10.1998 2.87929 10.6019 3.28716 10.8093 3.79842L10.8636 3.93213C11.0765 4.45669 10.6905 5.02989 10.1244 5.02989H10.0414C9.70551 5.02989 9.43324 5.30216 9.43324 5.63802V6.58843C9.43324 6.88078 9.64496 7.13012 9.93343 7.17751C10.3876 7.25213 10.7518 6.80637 10.5882 6.37617L10.478 6.08658L12.919 2.14923C13.2429 1.62675 14.0271 1.70985 14.2344 2.28861L14.4297 2.83422C15.1419 4.82309 15.1761 6.99167 14.5272 9.00204C14.071 10.4152 12.481 11.1103 11.1339 10.4854L10.3274 10.1113C10.0311 9.97387 9.68363 10.1449 9.6118 10.4635C9.55622 10.71 9.68866 10.9603 9.92376 11.053L11.0797 11.5087C11.599 11.7135 11.7116 12.3985 11.2852 12.7587L11.2036 12.8277C10.3077 13.5846 9.17274 13.9999 7.99991 13.9999ZM2.51156 3.17132L2.52119 3.14442L4.41875 6.20516C4.14396 7.29486 5.07838 8.35323 6.2285 8.16428C7.00021 8.0375 7.56658 7.3705 7.56658 6.58843V5.63802C7.56658 4.82503 6.96328 4.15293 6.17994 4.04502C6.29674 3.84046 6.47805 3.67844 6.69746 3.58576L6.86873 3.5134C7.11065 3.4112 7.39041 3.51359 7.50922 3.7478L7.55145 3.83105C7.57609 3.88111 7.60918 3.92729 7.64996 3.96721C7.74379 4.05912 7.87017 4.1099 7.99991 4.11C8.06757 4.11005 8.13614 4.09633 8.20149 4.06747C8.25599 4.0435 8.30641 4.00976 8.34985 3.96721C8.39063 3.92729 8.42373 3.88111 8.44837 3.83105L8.4906 3.7478C8.60941 3.51359 8.88917 3.4112 9.13109 3.5134L9.30236 3.58576C9.52177 3.67844 9.70308 3.84046 9.81988 4.04502C9.03654 4.15293 8.43324 4.82503 8.43324 5.63802V6.58843C8.43324 7.3705 8.9996 8.0375 9.77132 8.16428C10.9214 8.35323 11.8559 7.29486 11.5811 6.20516L13.4786 3.14442L13.4883 3.17132C14.126 4.95244 14.1567 6.89448 13.5755 8.69486C13.3039 9.53642 12.3569 9.95038 11.5547 9.57826L10.7482 9.20415C9.87385 8.79856 8.84826 9.30333 8.63629 10.2436C8.47226 10.9712 8.8631 11.7097 9.55696 11.9833L10.2892 12.272C9.62207 12.744 8.82266 12.9999 7.99991 12.9999C7.17716 12.9999 6.37775 12.744 5.7106 12.272L6.44286 11.9833C7.13671 11.7097 7.52756 10.9712 7.36353 10.2436C7.15156 9.30333 6.12597 8.79856 5.25162 9.20415L4.4451 9.57826C3.64288 9.95038 2.69593 9.53642 2.42428 8.69486C1.84313 6.89448 1.87382 4.95244 2.51156 3.17132Z" fill="black"/>
</svg>
