<svg width="16" height="16" viewBox="0 0 16 16" fill="none" xmlns="http://www.w3.org/2000/svg">
<path fill-rule="evenodd" clip-rule="evenodd" d="M2.5 3.5V10.5H13.5V3.5H2.5ZM1.5 3.1C1.5 2.76863 1.76863 2.5 2.1 2.5H13.9C14.2314 2.5 14.5 2.76863 14.5 3.1V10.9C14.5 11.2314 14.2314 11.5 13.9 11.5H2.1C1.76863 11.5 1.5 11.2314 1.5 10.9V3.1ZM1.5 13C1.5 12.7239 1.72386 12.5 2 12.5H14C14.2761 12.5 14.5 12.7239 14.5 13C14.5 13.2761 14.2761 13.5 14 13.5H2C1.72386 13.5 1.5 13.2761 1.5 13ZM7.5 4.49969C6.67157 4.49969 6 5.17127 6 5.99969C6 6.82812 6.67157 7.49969 7.5 7.49969H8.49992C8.77611 7.49969 9 7.72359 9 7.99978C9 8.27593 8.77616 8.49981 8.5 8.49986L6.49992 8.50018C6.22378 8.50023 5.99996 8.72412 6 9.00026C6.00004 9.27641 6.22394 9.50023 6.50008 9.50018L7.5 9.50002V9.50018C7.5 9.77633 7.72386 10.0002 8 10.0002C8.27614 10.0002 8.5 9.77633 8.5 9.50018V9.49986H8.50016C9.32854 9.49972 10 8.82815 10 7.99978C10 7.1713 9.32839 6.49969 8.49992 6.49969H7.5C7.22386 6.49969 7 6.27584 7 5.99969C7 5.72355 7.22386 5.49969 7.5 5.49969H7.98237C7.98822 5.4999 7.9941 5.5 8 5.5C8.0059 5.5 8.01178 5.4999 8.01763 5.49969H9.5C9.77614 5.49969 10 5.27584 10 4.99969C10 4.72355 9.77614 4.49969 9.5 4.49969H8.5C8.49984 4.22369 8.27604 4 8 4C7.72396 4 7.50016 4.22369 7.5 4.49969ZM4 6C4.27614 6 4.5 6.22386 4.5 6.5V7.5C4.5 7.77614 4.27614 8 4 8C3.72386 8 3.5 7.77614 3.5 7.5V6.5C3.5 6.22386 3.72386 6 4 6ZM12.5 6.5C12.5 6.22386 12.2761 6 12 6C11.7239 6 11.5 6.22386 11.5 6.5V7.5C11.5 7.77614 11.7239 8 12 8C12.2761 8 12.5 7.77614 12.5 7.5V6.5Z" fill="black"/>
</svg>
