<svg width="16" height="16" viewBox="0 0 16 16" fill="none" xmlns="http://www.w3.org/2000/svg">
<path d="M9.49947 2C9.49947 1.72386 9.27561 1.5 8.99947 1.5C8.72333 1.5 8.49947 1.72386 8.49947 2L8.49947 2.97059L8.49964 3.04494C8.50037 3.2489 8.50098 3.41792 8.44787 3.62746C8.39035 3.85441 8.26091 4.15289 7.9435 4.54579C7.68728 4.86295 7.43497 5.17759 7.19978 5.47089C6.77616 5.99917 6.408 6.4583 6.17257 6.73806C6.12945 6.7893 6.08278 6.84431 6.03342 6.90248C5.77516 7.20686 5.4434 7.59787 5.16307 7.98847C4.99525 8.22232 4.83562 8.46977 4.71625 8.71238C4.60122 8.94618 4.5 9.22178 4.5 9.5C4.5 9.72109 4.53734 9.93548 4.63307 10.1337C4.73011 10.3346 4.87307 10.4898 5.04104 10.6107C5.35226 10.8349 5.77751 10.9576 6.21282 11.0653C6.65125 11.1739 6.82784 11.2667 6.90581 11.3407C6.94793 11.3807 7.00037 11.4477 7.00037 11.7059L7 13C7 13.2761 7.22386 13.5 7.5 13.5C7.77614 13.5 8 13.2761 8 13L8.00037 11.7059C8.00037 11.304 7.91343 10.9182 7.59402 10.6152C7.31045 10.3462 6.90334 10.2061 6.45313 10.0947C5.99979 9.98242 5.75855 9.89513 5.62545 9.79927C5.57125 9.76024 5.5476 9.72789 5.53355 9.6988C5.5182 9.66702 5.5 9.60891 5.5 9.5C5.5 9.44822 5.52375 9.33632 5.61352 9.15387C5.69895 8.98023 5.82397 8.78268 5.97551 8.57153C6.22974 8.21727 6.52981 7.8634 6.78873 7.55805C6.84024 7.4973 6.89013 7.43846 6.9377 7.38194C7.18048 7.09344 7.56235 6.61724 7.99283 6.08043C8.2262 5.78942 8.47385 5.4806 8.72137 5.17421C9.11488 4.68711 9.31895 4.26088 9.41722 3.87313C9.50329 3.53353 9.50123 3.24121 9.4998 3.03919C9.49963 3.01502 9.49947 2.9921 9.49947 2.97059V2Z" fill="black"/>
<path d="M7.5 8.5C7.22386 8.5 7 8.72386 7 9C7 9.27614 7.22386 9.5 7.5 9.5H8.5L8.50131 9.49999C8.5168 9.49984 8.55814 9.49944 8.73489 9.65411C8.76603 9.68136 8.80081 9.71295 8.83926 9.74787C9.00021 9.89403 9.22545 10.0986 9.5165 10.2875C9.71842 10.4186 9.97036 10.4783 10.2007 10.4949C10.4397 10.5121 10.7054 10.4868 10.9593 10.4044C11.2134 10.3219 11.4755 10.1751 11.6764 9.93483C11.8828 9.68788 12 9.37083 12 9C12 8.72386 11.7761 8.5 11.5 8.5C11.2239 8.5 11 8.72386 11 9C11 9.14995 10.9567 9.23654 10.9092 9.29342C10.856 9.357 10.7706 9.41425 10.6504 9.45329C10.5299 9.4924 10.3946 9.50625 10.2726 9.49746C10.2126 9.49314 10.1616 9.48374 10.1223 9.47253C10.1029 9.46699 10.0879 9.46146 10.0771 9.45677C10.0717 9.45446 10.0678 9.4525 10.065 9.45105C10.0639 9.45049 10.0631 9.45002 10.0625 9.44966C10.0615 9.44909 10.061 9.44879 10.061 9.44881C9.8445 9.30822 9.69334 9.17145 9.53681 9.02983C9.49013 8.98759 9.44296 8.94492 9.39345 8.90159C9.19842 8.73091 8.91333 8.5 8.5 8.5H7.5Z" fill="black"/>
</svg>
