<svg width="16" height="16" viewBox="0 0 16 16" fill="none" xmlns="http://www.w3.org/2000/svg">
<path fill-rule="evenodd" clip-rule="evenodd" d="M3.59232 5C3.59232 4.17157 4.26389 3.5 5.09232 3.5H11.0923C11.9207 3.5 12.5923 4.17157 12.5923 5V11C12.5923 11.8284 11.9207 12.5 11.0923 12.5H5.09232C4.26389 12.5 3.59232 11.8284 3.59232 11V5ZM5.09232 4.5C4.81617 4.5 4.59232 4.72386 4.59232 5V11C4.59232 11.2761 4.81617 11.5 5.09232 11.5H11.0923C11.3685 11.5 11.5923 11.2761 11.5923 11V5C11.5923 4.72386 11.3685 4.5 11.0923 4.5H5.09232ZM2.97475 5.34469C3.10629 5.58749 3.01609 5.89095 2.77329 6.02249L2.5 6.17054V10.3798L2.75872 10.5092C3.00571 10.6327 3.10583 10.933 2.98233 11.18C2.85884 11.427 2.5585 11.5271 2.31151 11.4036L2.05279 11.2742C1.714 11.1048 1.5 10.7586 1.5 10.3798V6.17054C1.5 5.80357 1.701 5.46608 2.02366 5.29128L2.29695 5.14323C2.53975 5.01169 2.84321 5.10189 2.97475 5.34469ZM13.3304 6.08232C13.0794 5.96728 12.9691 5.67052 13.0842 5.41948C13.1992 5.16844 13.496 5.05819 13.747 5.17323L13.9904 5.28477C14.3459 5.44768 14.5738 5.80283 14.5738 6.19387V10.38C14.5738 10.7588 14.3598 11.1051 14.021 11.2745L13.7623 11.4038C13.5153 11.5273 13.215 11.4272 13.0915 11.1802C12.968 10.9332 13.0681 10.6329 13.3151 10.5094L13.5738 10.38V6.19387L13.3304 6.08232Z" fill="black"/>
</svg>
