<svg width="16" height="16" viewBox="0 0 16 16" fill="none" xmlns="http://www.w3.org/2000/svg">
<path fill-rule="evenodd" clip-rule="evenodd" d="M6 2C5.72386 2 5.5 2.22386 5.5 2.5C5.5 2.77614 5.72386 3 6 3H10C10.2761 3 10.5 2.77614 10.5 2.5C10.5 2.22386 10.2761 2 10 2H6ZM6 4C5.17157 4 4.5 4.67157 4.5 5.5V10.5C4.5 11.3284 5.17157 12 6 12H10C10.8284 12 11.5 11.3284 11.5 10.5V5.5C11.5 4.67157 10.8284 4 10 4H6ZM5.5 5.5C5.5 5.22386 5.72386 5 6 5H10C10.2761 5 10.5 5.22386 10.5 5.5V10.5C10.5 10.7761 10.2761 11 10 11H6C5.72386 11 5.5 10.7761 5.5 10.5V5.5ZM5.5 13.5C5.5 13.2239 5.72386 13 6 13H10C10.2761 13 10.5 13.2239 10.5 13.5C10.5 13.7761 10.2761 14 10 14H6C5.72386 14 5.5 13.7761 5.5 13.5ZM9 6.5C9 6.22386 8.77614 6 8.5 6C8.22386 6 8 6.22386 8 6.5V8H7.5C7.22386 8 7 8.22386 7 8.5C7 8.77614 7.22386 9 7.5 9H8.4C8.73137 9 9 8.73137 9 8.4V6.5Z" fill="black"/>
</svg>
