<svg width="16" height="16" viewBox="0 0 16 16" fill="none" xmlns="http://www.w3.org/2000/svg">
<path d="M4.25439 2.97263C5.26953 2.37268 6.66382 2 8 2C9.33643 2 10.731 2.37268 11.7461 2.97263C11.9839 3.1131 12.2903 3.0343 12.4309 2.79657C12.5713 2.55884 12.4927 2.25223 12.2549 2.11172C11.073 1.41318 9.5 1 8 1C6.50024 1 4.92749 1.41318 3.74561 2.11172C3.50806 2.25223 3.4292 2.55884 3.56958 2.79657C3.71021 3.0343 4.01685 3.1131 4.25439 2.97263Z" fill="black"/>
<path fill-rule="evenodd" clip-rule="evenodd" d="M10 10C10 11.1046 9.10449 12 8 12C6.89551 12 6 11.1046 6 10C6 8.89545 6.89551 8 8 8C9.10449 8 10 8.89545 10 10ZM9 10C9 10.5523 8.55225 11 8 11C7.44775 11 7 10.5523 7 10C7 9.44769 7.44775 9 8 9C8.55225 9 9 9.44769 9 10Z" fill="black"/>
<path fill-rule="evenodd" clip-rule="evenodd" d="M5.52222 5.99121C4.6936 5.99121 4.02222 6.66278 4.02222 7.49121V7.5H3.50586C2.67749 7.5 2.00586 8.17157 2.00586 9V12.5264C2.00586 13.3548 2.67749 14.0264 3.50586 14.0264H12.4954C13.3237 14.0264 13.9954 13.3548 13.9954 12.5264V9C13.9954 8.17157 13.3237 7.5 12.4954 7.5H11.9829V7.49121C11.9829 6.66278 11.3113 5.99121 10.4829 5.99121H5.52222ZM5.02222 7.49121C5.02222 7.21509 5.24609 6.99121 5.52222 6.99121H10.4829C10.759 6.99121 10.9829 7.21509 10.9829 7.49121V8C10.9829 8.27612 11.2068 8.5 11.4829 8.5H12.4954C12.7715 8.5 12.9954 8.72388 12.9954 9V12.5264C12.9954 12.8025 12.7715 13.0264 12.4954 13.0264H3.50586C3.22974 13.0264 3.00586 12.8025 3.00586 12.5264V9C3.00586 8.72388 3.22974 8.5 3.50586 8.5H4.52222C4.79834 8.5 5.02222 8.27612 5.02222 8V7.49121Z" fill="black"/>
<path d="M8.00586 4.5C7.37769 4.5 6.73511 4.6568 6.25562 4.93317C6.01636 5.07111 5.71069 4.98895 5.57275 4.74976C5.43481 4.5105 5.51709 4.20477 5.7561 4.06683C6.4104 3.68973 7.23071 3.5 8.00586 3.5C8.78125 3.5 9.60156 3.68973 10.2556 4.06683C10.4949 4.20477 10.5771 4.5105 10.4392 4.74976C10.3013 4.98895 9.99536 5.07111 9.7561 4.93317C9.27686 4.6568 8.63428 4.5 8.00586 4.5Z" fill="black"/>
</svg>
