<svg width="16" height="16" viewBox="0 0 16 16" fill="none" xmlns="http://www.w3.org/2000/svg">
<path fill-rule="evenodd" clip-rule="evenodd" d="M12.5 3C12.5 2.72386 12.2761 2.5 12 2.5C11.7239 2.5 11.5 2.72386 11.5 3V4.51684L8.30877 2.60211C8.11876 2.4881 7.88139 2.4881 7.69138 2.60211L2.74283 5.57124C2.50604 5.71331 2.42926 6.02044 2.57133 6.25723C2.7134 6.49402 3.02053 6.5708 3.25732 6.42873L8.00008 3.58308L12.7428 6.42873C12.9796 6.5708 13.2867 6.49402 13.4288 6.25723C13.5709 6.02044 13.4941 5.71331 13.2573 5.57124L12.4879 5.10961C12.4958 5.07434 12.5 5.03765 12.5 5V3ZM4 7C4.27614 7 4.5 7.22386 4.5 7.5V12.5C4.5 12.7761 4.72386 13 5 13H11C11.2761 13 11.5 12.7761 11.5 12.5V7.5C11.5 7.22386 11.7239 7 12 7C12.2761 7 12.5 7.22386 12.5 7.5V12.5C12.5 13.3284 11.8284 14 11 14H5C4.17157 14 3.5 13.3284 3.5 12.5V7.5C3.5 7.22386 3.72386 7 4 7ZM7.07398 7.98287C7.20773 7.78902 7.34955 7.61699 7.48823 7.47171V7.76867C7.48823 8.84825 8.53892 9.51452 9.46035 9.22686C9.55384 9.65623 9.48307 10.0402 9.31167 10.3305C9.08475 10.7148 8.64399 10.9999 8 10.9999C7.23923 10.9999 6.5 10.4328 6.5 9.49992C6.5 9.04463 6.72452 8.48937 7.07398 7.98287ZM8.48823 6.60793C8.48823 6.2379 8.10273 5.89348 7.6821 6.08399C7.19007 6.30685 6.65461 6.82982 6.25088 7.41497C5.84399 8.0047 5.5 8.75951 5.5 9.49992C5.5 11.067 6.77255 11.9999 8 11.9999C8.96534 11.9999 9.75008 11.5548 10.1728 10.8389C10.5923 10.1284 10.6173 9.21667 10.2094 8.34728C10.0542 8.01632 9.62671 7.927 9.35157 8.16422C9.01308 8.45608 8.48823 8.2156 8.48823 7.76867V6.60793Z" fill="black"/>
</svg>
