<svg width="16" height="16" viewBox="0 0 16 16" fill="none" xmlns="http://www.w3.org/2000/svg">
<path fill-rule="evenodd" clip-rule="evenodd" d="M4.5 5.5C3.36603 5.5 2.5 6.39706 2.5 7.52632C2.5 8.65558 3.36603 9.55263 4.5 9.55263C5.13625 9.55263 5.75827 9.27482 6.12805 8.86321L6.14023 8.84966L6.15336 8.83703C6.35176 8.64617 6.93815 8.03849 7.61228 7.2106C8.29703 6.36969 8.90107 5.73939 9.14056 5.50729C9.71368 4.87823 10.6067 4.5 11.5 4.5C13.2064 4.5 14.5 5.86508 14.5 7.52632C14.5 9.18755 13.2064 10.5526 11.5 10.5526C10.6861 10.5526 9.804 10.2156 8.86869 9.1129C8.69007 8.90231 8.71598 8.58679 8.92657 8.40817C9.13716 8.22954 9.45268 8.25546 9.63131 8.46605C10.4103 9.38442 11.0282 9.55263 11.5 9.55263C12.634 9.55263 13.5 8.65558 13.5 7.52632C13.5 6.39706 12.634 5.5 11.5 5.5C10.8637 5.5 10.2417 5.77781 9.87195 6.18942L9.85977 6.20297L9.84664 6.21561C9.64824 6.40646 9.06185 7.01415 8.38772 7.84203C7.70297 8.68294 7.09893 9.31324 6.85944 9.54534C6.28632 10.1744 5.39326 10.5526 4.5 10.5526C2.79365 10.5526 1.5 9.18755 1.5 7.52632C1.5 5.86508 2.79365 4.5 4.5 4.5C5.54976 4.5 6.43476 5.02621 7.14743 5.95976C7.31499 6.17926 7.27289 6.49303 7.0534 6.66059C6.8339 6.82815 6.52013 6.78605 6.35257 6.56655C5.77953 5.8159 5.16452 5.5 4.5 5.5Z" fill="black"/>
</svg>
