<svg width="16" height="16" viewBox="0 0 16 16" fill="none" xmlns="http://www.w3.org/2000/svg">
<path fill-rule="evenodd" clip-rule="evenodd" d="M7.99994 3.5C8.27608 3.5 8.49994 3.72386 8.49994 4V13.964C8.49994 14.2402 8.27608 14.464 7.99994 14.464C7.7238 14.464 7.49994 14.2402 7.49994 13.964V4C7.49994 3.72386 7.7238 3.5 7.99994 3.5ZM1.66975 4.75227C2.13554 4.30396 2.75689 4.05353 3.40338 4.05353H5.92827C6.20441 4.05353 6.42827 4.27739 6.42827 4.55353V7.62829C6.42827 7.90443 6.20441 8.12829 5.92827 8.12829H3.40338C2.75689 8.12829 2.13554 7.87786 1.66975 7.42955L1.0275 6.81141C0.618764 6.41803 0.618765 5.76379 1.0275 5.37041L1.66975 4.75227ZM3.40338 5.05353C3.01548 5.05353 2.64267 5.20379 2.3632 5.47277L1.72095 6.09091L2.3632 6.70905C2.64267 6.97803 3.01548 7.12829 3.40338 7.12829H5.42827V5.05353H3.40338ZM12.5964 6.26776C13.2429 6.26776 13.8643 6.5182 14.3301 6.9665L14.9723 7.58464C15.3811 7.97803 15.3811 8.63226 14.9723 9.02565L14.3301 9.64378C13.8643 10.0921 13.2429 10.3425 12.5964 10.3425H10.0716C9.79541 10.3425 9.57155 10.1187 9.57155 9.84253V6.76776C9.57155 6.49162 9.79541 6.26776 10.0716 6.26776H12.5964ZM13.6366 7.68701C13.3571 7.41802 12.9843 7.26776 12.5964 7.26776H10.5716V9.34253H12.5964C12.9843 9.34253 13.3571 9.19226 13.6366 8.92328L14.2789 8.30514L13.6366 7.68701Z" fill="black"/>
</svg>
