<svg width="16" height="16" viewBox="0 0 16 16" fill="none" xmlns="http://www.w3.org/2000/svg">
<path d="M10.2874 2.72573L12.6094 5.04728C12.8132 5.25103 13.1436 5.251 13.3473 5.0472C13.551 4.84341 13.551 4.51301 13.3473 4.30925L11.0253 1.98775L10.9502 1.91733C10.3353 1.37745 9.39856 1.40093 8.81177 1.98779L8.62732 2.17222C8.52539 2.27411 8.52539 2.4393 8.62732 2.54119L8.99622 2.91017C9.09814 3.01206 9.26331 3.01206 9.36523 2.91017L9.54968 2.72573L9.59875 2.68233C9.80347 2.52318 10.0992 2.53765 10.2874 2.72573Z" fill="black"/>
<path fill-rule="evenodd" clip-rule="evenodd" d="M1.21729 5.61342C0.98291 5.84774 0.98291 6.22764 1.21729 6.46195L2.65503 7.89974C2.88928 8.13406 3.26929 8.13406 3.50354 7.89974L7.42212 3.98117L10.4244 6.98344C10.6196 7.17871 10.9363 7.17871 11.1315 6.98344C11.3268 6.78818 11.3268 6.4716 11.1315 6.27634L7.61072 2.7555C6.6344 1.77919 5.05151 1.77919 4.0752 2.7555L1.21729 5.61342ZM4.78223 3.46261C5.30371 2.94117 6.11353 2.88389 6.69836 3.29077L3.07935 6.90979L2.20715 6.03768L4.78223 3.46261Z" fill="black"/>
<path fill-rule="evenodd" clip-rule="evenodd" d="M14.8114 10.0152C15.0458 9.78091 15.0458 9.40101 14.8114 9.16669L13.3737 7.7289C13.1393 7.49459 12.7594 7.49459 12.5251 7.7289L8.60657 11.6475L5.60425 8.6452C5.40894 8.44994 5.09241 8.44994 4.89709 8.6452C4.7019 8.84046 4.7019 9.15704 4.89709 9.35231L8.41797 12.8731C9.39429 13.8495 10.9772 13.8495 11.9535 12.8731L14.8114 10.0152ZM11.2465 12.166C10.725 12.6875 9.91516 12.7448 9.33032 12.3379L12.9493 8.71885L13.8215 9.59096L11.2465 12.166Z" fill="black"/>
<path d="M3.85156 10.9272L6.17358 13.2487C6.36169 13.4368 6.65747 13.4512 6.86218 13.2921L6.91125 13.2487L7.0957 13.0643C7.19763 12.9624 7.36279 12.9624 7.46472 13.0643L7.83362 13.4332C7.93555 13.5351 7.93555 13.7003 7.83362 13.8022L7.64917 13.9866C7.06238 14.5735 6.12561 14.597 5.51074 14.0571L5.43567 13.9867L3.11365 11.6652C2.90991 11.4614 2.90991 11.131 3.11365 10.9272C3.31738 10.7234 3.64771 10.7234 3.85156 10.9272Z" fill="black"/>
</svg>
