<svg width="16" height="16" viewBox="0 0 16 16" fill="none" xmlns="http://www.w3.org/2000/svg">
<path fill-rule="evenodd" clip-rule="evenodd" d="M2.5 3.5C2.5 2.67157 3.17157 2 4 2H6.2C6.65509 2 6.94217 2.35518 7.02674 2.66313C7.13865 3.0706 7.49047 3.5 8 3.5C8.50953 3.5 8.86135 3.0706 8.97326 2.66313C9.05783 2.35518 9.34491 2 9.8 2H12C12.8284 2 13.5 2.67157 13.5 3.5V9V12.5C13.5 13.3284 12.8284 14 12 14H9.8C9.34491 14 9.05783 13.6448 8.97326 13.3369C8.86135 12.9294 8.50953 12.5 8 12.5C7.49047 12.5 7.13865 12.9294 7.02674 13.3369C6.94217 13.6448 6.65509 14 6.2 14H4C3.17157 14 2.5 13.3284 2.5 12.5V9V3.5ZM12.5 8.5H12C11.7239 8.5 11.5 8.72386 11.5 9C11.5 9.27614 11.7239 9.5 12 9.5H12.5V12.5C12.5 12.7761 12.2761 13 12 13H9.91624C9.71711 12.3714 9.10281 11.5 8 11.5C6.89719 11.5 6.28289 12.3714 6.08376 13H4C3.72386 13 3.5 12.7761 3.5 12.5V9.5H4C4.27614 9.5 4.5 9.27614 4.5 9C4.5 8.72386 4.27614 8.5 4 8.5H3.5V3.5C3.5 3.22386 3.72386 3 4 3H6.08376C6.28289 3.62861 6.89719 4.5 8 4.5C9.10281 4.5 9.71711 3.62861 9.91624 3H12C12.2761 3 12.5 3.22386 12.5 3.5V8.5ZM6 8.5C5.72386 8.5 5.5 8.72386 5.5 9C5.5 9.27614 5.72386 9.5 6 9.5H7C7.27614 9.5 7.5 9.27614 7.5 9C7.5 8.72386 7.27614 8.5 7 8.5H6ZM8.5 9C8.5 8.72386 8.72386 8.5 9 8.5H10C10.2761 8.5 10.5 8.72386 10.5 9C10.5 9.27614 10.2761 9.5 10 9.5H9C8.72386 9.5 8.5 9.27614 8.5 9Z" fill="black"/>
</svg>
