<svg width="16" height="16" viewBox="0 0 16 16" fill="none" xmlns="http://www.w3.org/2000/svg">
<path fill-rule="evenodd" clip-rule="evenodd" d="M11.8986 3.00242C12.1375 3.32386 12.4988 3.5778 13.0771 3.58108L13.0885 3.58106C13.3646 3.58106 13.5885 3.80497 13.5885 4.08111C13.5885 4.35725 13.3646 4.58111 13.0885 4.58111L13.0771 4.58109C12.4988 4.58437 12.1375 4.83831 11.8986 5.15975C11.6444 5.50172 11.5296 5.92511 11.506 6.19997C11.5037 6.23072 11.4986 6.26079 11.4909 6.28988C11.4645 6.39032 11.408 6.4775 11.3323 6.54219C11.2906 6.5779 11.2429 6.60694 11.1906 6.62751C11.1335 6.64999 11.0717 6.66224 11.0074 6.66217C10.9431 6.66224 10.8812 6.64999 10.8242 6.62751C10.7719 6.60694 10.7241 6.5779 10.6825 6.54219C10.6068 6.4775 10.5503 6.39032 10.5239 6.28988C10.5162 6.26079 10.5111 6.23072 10.5088 6.19997C10.4852 5.92511 10.3703 5.50172 10.1162 5.15975C9.87719 4.83828 9.51593 4.58432 8.93745 4.58109L8.92627 4.58111C8.65013 4.58111 8.42627 4.3572 8.42627 4.08106C8.42627 3.80492 8.65013 3.58106 8.92627 3.58106L8.93745 3.58108C9.51593 3.57785 9.87719 3.32389 10.1162 3.00242C10.3703 2.66045 10.4852 2.23706 10.5088 1.9622C10.5111 1.93145 10.5162 1.90138 10.5239 1.87229C10.5503 1.77185 10.6068 1.68467 10.6825 1.61998C10.7241 1.58427 10.7719 1.55523 10.8242 1.53466C10.8812 1.51217 10.9431 1.49993 11.0074 1.5C11.0717 1.49993 11.1335 1.51217 11.1906 1.53466C11.2429 1.55523 11.2906 1.58427 11.3323 1.61998C11.408 1.68467 11.4645 1.77185 11.4909 1.87229C11.4986 1.90138 11.5037 1.93145 11.506 1.9622C11.5296 2.23706 11.6444 2.66045 11.8986 3.00242ZM11.0074 3.47239C11.0355 3.51507 11.0651 3.55732 11.096 3.59899C11.2264 3.77435 11.3821 3.93878 11.5647 4.08108C11.3821 4.22339 11.2264 4.38782 11.096 4.56318C11.0651 4.60485 11.0355 4.64709 11.0074 4.68977C10.9792 4.64709 10.9497 4.60485 10.9187 4.56318C10.7884 4.38782 10.6327 4.22339 10.45 4.08108C10.6327 3.93878 10.7884 3.77435 10.9187 3.59899C10.9497 3.55732 10.9792 3.51507 11.0074 3.47239Z" fill="black"/>
<path fill-rule="evenodd" clip-rule="evenodd" d="M4.33978 10.9983C5.40167 12.0717 7.03946 13.5796 9.7078 13.8196C10.3827 13.8804 11.2812 13.8285 12.0396 13.0939L12.6351 12.5048C13.2814 11.8655 13.3977 10.8026 12.7365 10.1343L11.5614 8.94645C10.9002 8.27809 9.83616 8.38297 9.18989 9.02232L8.49795 9.70685C8.1447 9.58317 7.47495 9.22131 6.81268 8.55187C6.15039 7.88241 5.79571 7.20886 5.67585 6.85434L6.36779 6.16981C7.01406 5.53047 7.1304 4.46763 6.4692 3.79927L5.29409 2.61144C4.63289 1.94308 3.56887 2.04796 2.9226 2.68731L2.33086 3.2727C1.76822 3.82931 1.4604 4.58834 1.52159 5.36188C1.73214 8.02333 3.26605 9.91291 4.33978 10.9983ZM9.7974 12.8237C7.4993 12.6169 6.07694 11.3324 5.05069 10.295C4.03627 9.26959 2.70119 7.59254 2.51848 5.28301C2.48252 4.82843 2.66217 4.3516 3.03415 3.98361L3.62589 3.39821C3.95274 3.07486 4.37907 3.1084 4.58319 3.31473L5.75829 4.50256C5.96241 4.70889 5.99136 5.13556 5.6645 5.45891L4.96594 6.14998C4.78057 6.33337 4.58143 6.6665 4.69173 7.05641C4.83785 7.57294 5.29302 8.43765 6.10178 9.25516C6.91057 10.0727 7.77041 10.5371 8.28528 10.6887C8.67399 10.8032 9.00925 10.6077 9.19462 10.4243L9.89318 9.73322C10.22 9.40987 10.6464 9.44341 10.8505 9.64974L12.0256 10.8376C12.2297 11.0439 12.2586 11.4706 11.9318 11.7939L11.3421 12.3773C10.889 12.8149 10.3488 12.8733 9.7974 12.8237Z" fill="black"/>
</svg>
