<svg width="16" height="16" viewBox="0 0 16 16" fill="none" xmlns="http://www.w3.org/2000/svg">
<path fill-rule="evenodd" clip-rule="evenodd" d="M7 9H3.5C2.67163 9 2 8.32837 2 7.5V5.5C2 4.67163 2.67163 4 3.5 4C4.19165 4 4.77417 4.46826 4.94751 5.1051C5.11841 5.03723 5.30493 5 5.5 5C5.61353 5 5.72388 5.01257 5.83032 5.03638C5.88818 5.04944 5.94482 5.0658 6 5.08533V3.5C6 2.67163 6.67163 2 7.5 2C8.32837 2 9 2.67163 9 3.5V8H12.5C13.3284 8 14 8.67163 14 9.5V11.5C14 12.3284 13.3284 13 12.5 13C12.3049 13 12.1184 12.9628 11.9475 12.8949C11.7742 13.5317 11.1917 14 10.5 14C9.67163 14 9 13.3284 9 12.5V11.9147C8.84351 11.97 8.67529 12 8.5 12C7.67163 12 7 11.3284 7 10.5V9ZM7.5 8C7.77612 8 8 7.77612 8 7.5V3.5C8 3.22388 7.77612 3 7.5 3C7.22388 3 7 3.22388 7 3.5V7.5C7 7.77612 7.22388 8 7.5 8ZM8 9.5V10.5C8 10.7761 8.22388 11 8.5 11C8.77612 11 8.99976 10.776 9 10.5V9.5C9 9.22388 8.77612 9 8.5 9C8.22388 9 8 9.22388 8 9.5ZM10.5 9C10.7761 9 11 9.22388 11 9.5V12.5C11 12.6923 10.8914 12.8593 10.7322 12.9429C10.6628 12.9794 10.5837 13 10.5 13C10.2239 13 10 12.7761 10 12.5V9.5C10 9.22388 10.2239 9 10.5 9ZM5.5 8C5.77612 8 6 7.77612 6 7.5V6.5C6 6.22388 5.77612 6 5.5 6C5.36084 6 5.23511 6.05676 5.14453 6.14844C5.0918 6.20166 5.05103 6.26672 5.02637 6.33923C5.00928 6.38965 5 6.44373 5 6.5V7.5C5 7.77612 5.22388 8 5.5 8ZM4 5.5V7.5C4 7.77612 3.77612 8 3.5 8C3.22388 8 3 7.77612 3 7.5V5.5C3 5.22388 3.22388 5 3.5 5C3.77612 5 4 5.22388 4 5.5ZM12.5 12C12.2241 12 12.0002 11.7765 12 11.5006V9.5C12 9.22388 12.2239 9 12.5 9C12.7761 9 13 9.22388 13 9.5V11.5C13 11.7761 12.7761 12 12.5 12Z" fill="black"/>
</svg>
