<svg width="16" height="16" viewBox="0 0 16 16" fill="none" xmlns="http://www.w3.org/2000/svg">
<path fill-rule="evenodd" clip-rule="evenodd" d="M7.99989 4C7.44761 4 6.99989 4.44772 6.99989 5V5.5C6.99989 5.77614 6.77604 6 6.49989 6C6.22375 6 5.99989 5.77614 5.99989 5.5V5C5.99989 3.89543 6.89533 3 7.99989 3C9.10446 3 9.99989 3.89543 9.99989 5C9.99989 5.43274 9.85954 5.85381 9.59989 6.2L8.71702 7.37716L14.0024 10.9008C14.4964 11.2301 14.2633 12 13.6696 12H2.29989C1.72329 12 1.4786 11.266 1.93989 10.92L5.69989 8.1C5.92081 7.93431 6.23421 7.97909 6.39989 8.2C6.56558 8.42091 6.52081 8.73431 6.29989 8.9L3.49989 11H12.3485L8.16232 8.20921C7.68466 7.89077 7.57257 7.23643 7.91702 6.77716L8.79989 5.6C8.92972 5.4269 8.99989 5.21637 8.99989 5C8.99989 4.44772 8.55218 4 7.99989 4Z" fill="black"/>
</svg>
