<svg width="16" height="16" viewBox="0 0 16 16" fill="none" xmlns="http://www.w3.org/2000/svg">
<path fill-rule="evenodd" clip-rule="evenodd" d="M4.1 4.2C4.70752 4.2 5.2 3.70752 5.2 3.1C5.2 2.49249 4.70752 2 4.1 2C3.49249 2 3 2.49249 3 3.1C3 3.70752 3.49249 4.2 4.1 4.2ZM4.1 5.2C5.2598 5.2 6.2 4.2598 6.2 3.1C6.2 1.9402 5.2598 1 4.1 1C2.9402 1 2 1.9402 2 3.1C2 4.2598 2.9402 5.2 4.1 5.2ZM7.50003 2.79996C7.50003 2.52381 7.72388 2.29996 8.00003 2.29996H10.85C12.5345 2.29996 13.9 3.66549 13.9 5.34996C13.9 7.03443 12.5345 8.39996 10.85 8.39996H5.15002C4.01784 8.39996 3.10002 9.31778 3.10002 10.45C3.10002 11.5821 4.01784 12.5 5.15002 12.5H8.00003C8.27617 12.5 8.50003 12.7238 8.50003 13C8.50003 13.2761 8.27617 13.5 8.00003 13.5H5.15002C3.46555 13.5 2.10002 12.1344 2.10002 10.45C2.10002 8.76549 3.46555 7.39996 5.15002 7.39996H10.85C11.9822 7.39996 12.9 6.48214 12.9 5.34996C12.9 4.21777 11.9822 3.29996 10.85 3.29996H8.00003C7.72388 3.29996 7.50003 3.0761 7.50003 2.79996ZM14.3535 11.5536C14.5488 11.3583 14.5488 11.0418 14.3535 10.8465C14.1583 10.6512 13.8417 10.6512 13.6464 10.8465L11.6 12.893L10.7535 12.0465C10.5583 11.8512 10.2417 11.8512 10.0464 12.0465C9.85116 12.2418 9.85116 12.5583 10.0464 12.7536L11.1757 13.8829C11.41 14.1172 11.7899 14.1172 12.0242 13.8829L14.3535 11.5536Z" fill="black"/>
</svg>
