<svg width="16" height="16" viewBox="0 0 16 16" fill="none" xmlns="http://www.w3.org/2000/svg">
<path fill-rule="evenodd" clip-rule="evenodd" d="M9 14C8.72386 14 8.5 13.7761 8.5 13.5C8.5 13.2239 8.72386 13 9 13H12V3H4V8C4 8.27614 3.77614 8.5 3.5 8.5C3.22386 8.5 3 8.27614 3 8V3C3 2.44775 3.44775 2 4 2H12C12.5522 2 13 2.44775 13 3V13C13 13.5522 12.5522 14 12 14H9ZM5 5.5H11V4.5H5V5.5ZM11 8H5V7H11V8ZM8.5 10.5H11V9.5H8.5V10.5ZM3.34502 12.9479L2.64645 13.6464C2.45118 13.8417 2.45118 14.1583 2.64645 14.3536C2.84171 14.5488 3.15829 14.5488 3.35355 14.3536L4.05213 13.655C4.39899 13.8735 4.80973 14 5.25 14C6.49264 14 7.5 12.9926 7.5 11.75C7.5 10.5074 6.49264 9.5 5.25 9.5C4.00736 9.5 3 10.5074 3 11.75C3 12.1903 3.12645 12.601 3.34502 12.9479ZM4 11.75C4 11.0596 4.55964 10.5 5.25 10.5C5.94036 10.5 6.5 11.0596 6.5 11.75C6.5 12.4404 5.94036 13 5.25 13C4.55964 13 4 12.4404 4 11.75Z" fill="black"/>
</svg>
