<svg width="16" height="16" viewBox="0 0 16 16" fill="none" xmlns="http://www.w3.org/2000/svg">
<path fill-rule="evenodd" clip-rule="evenodd" d="M6 1C4.61929 1 3.5 2.11929 3.5 3.5V4C3.5 5.38071 4.61929 6.5 6 6.5C7.38071 6.5 8.5 5.38071 8.5 4V3.5C8.5 2.11929 7.38071 1 6 1ZM4.5 3.5C4.5 2.67157 5.17157 2 6 2C6.82843 2 7.5 2.67157 7.5 3.5V4C7.5 4.82843 6.82843 5.5 6 5.5C5.17157 5.5 4.5 4.82843 4.5 4V3.5ZM13.9707 8H8V12.9912H13.9707V8ZM8 7C7.44772 7 7 7.44772 7 8V12.9912C7 13.5435 7.44772 13.9912 8 13.9912H13.9707C14.523 13.9912 14.9707 13.5435 14.9707 12.9912V8C14.9707 7.44772 14.523 7 13.9707 7H8ZM4 9C2.89543 9 2 9.89543 2 11V13H5.5C5.77614 13 6 13.2239 6 13.5C6 13.7761 5.77614 14 5.5 14H1.95455C1.42736 14 1 13.5726 1 13.0455V11C1 9.34315 2.34315 8 4 8H5.5C5.77614 8 6 8.22386 6 8.5C6 8.77614 5.77614 9 5.5 9H4ZM12.5 9.5C12.5 9.22386 12.2761 9 12 9H10C9.72386 9 9.5 9.22386 9.5 9.5C9.5 9.77614 9.72386 10 10 10H12C12.2761 10 12.5 9.77614 12.5 9.5Z" fill="black"/>
</svg>
