<svg width="16" height="16" viewBox="0 0 16 16" fill="none" xmlns="http://www.w3.org/2000/svg">
<path fill-rule="evenodd" clip-rule="evenodd" d="M9 2C8.0832 2 7.22019 2.13521 6.55345 2.36452C6.22532 2.47737 5.89397 2.6302 5.62374 2.83933C5.3804 3.02764 5 3.41154 5 4L5.00015 4.02009L5 4.04016V7.0567C4.47482 7.11647 3.99067 7.22149 3.5809 7.36217C3.2543 7.47431 2.92417 7.62626 2.65474 7.8344C2.47922 7.96999 2.23098 8.2084 2.10748 8.55316C2.04229 8.70177 2 8.87311 2 9.06779V12.0492C2 12.6537 2.40769 13.0331 2.64269 13.2061C2.91251 13.4048 3.24191 13.5491 3.56708 13.6555C4.22882 13.872 5.08625 14 5.99789 14C6.90954 14 7.76697 13.872 8.42871 13.6555C8.75388 13.5491 9.08328 13.4048 9.3531 13.2061C9.5881 13.0331 9.99579 12.6537 9.99579 12.0492V11.946C10.5325 11.8867 11.0273 11.7806 11.4449 11.6378C11.7727 11.5257 12.1038 11.3739 12.3741 11.166C12.6165 10.9794 13 10.596 13 10.0057V4.04016L12.9999 4.02009L13 4C13 3.41154 12.6196 3.02764 12.3763 2.83933C12.106 2.6302 11.7747 2.47737 11.4466 2.36452C10.7798 2.13521 9.9168 2 9 2ZM9.99579 10.9391C11.1632 10.7926 12 10.403 12 10.0057V5.39992C11.8225 5.49351 11.634 5.57102 11.4466 5.63548C10.7798 5.86479 9.9168 6 9 6C8.0832 6 7.22019 5.86479 6.55345 5.63548C6.36602 5.57102 6.17754 5.49351 6 5.39992V7.00001C6.00526 7 6.01052 7 6.01579 7C6.92806 7 7.78695 7.1343 8.45067 7.36217C8.77727 7.47431 9.1074 7.62626 9.37684 7.8344C9.61912 8.02158 10 8.40466 10 8.99301C10 9.02923 9.99856 9.06468 9.99579 9.09935V10.9391ZM5 8.17563C3.98469 8.29794 3.22014 8.59631 3.04033 8.92222C3.03453 8.94575 3.03157 8.96937 3.03157 8.99301C3.03157 9.49573 4.36765 9.98601 6.01579 9.98601C7.60509 9.98601 8.90421 9.53011 8.99494 9.04677C8.95665 8.57311 7.63062 8.11746 6 8.11707L5.99789 8.11707C5.64803 8.11707 5.31216 8.13803 5 8.17563ZM6.00071 4.02014C6.03569 3.52387 7.36512 3.0459 9 3.0459C10.6349 3.0459 11.9643 3.52387 11.9993 4.02014C11.9643 4.51927 10.6349 5 9 5C7.36512 5 6.03569 4.51927 6.00071 4.02014ZM3.5809 10.6238C3.38385 10.5562 3.18551 10.474 3 10.3738V12.0492C3 12.5306 4.3422 13 5.99789 13C7.65359 13 8.99579 12.5306 8.99579 12.0492V10.3928C8.82067 10.4845 8.63511 10.5605 8.45067 10.6238C7.78695 10.8517 6.92806 10.986 6.01579 10.986C5.10351 10.986 4.24462 10.8517 3.5809 10.6238Z" fill="black"/>
</svg>
