<svg width="16" height="16" viewBox="0 0 16 16" fill="none" xmlns="http://www.w3.org/2000/svg">
<path fill-rule="evenodd" clip-rule="evenodd" d="M5.74965 7.95727L4.95672 8.75022L5.85322 9.64648C6.04851 9.84171 6.04855 10.1583 5.85332 10.3536C5.65808 10.5489 5.3415 10.5489 5.14621 10.3537L4.24963 9.45734L3.2067 10.5003L4.9996 12.2932L12.2925 5.00029L10.4996 3.20721L9.45666 4.25016L10.3532 5.14648C10.5485 5.34171 10.5486 5.65829 10.3533 5.85358C10.1581 6.04887 9.8415 6.04892 9.64621 5.85368L8.74956 4.95727L7.95673 5.75013L8.8527 6.64586C9.04799 6.8411 9.04804 7.15768 8.8528 7.35297C8.65756 7.54826 8.34098 7.5483 8.14569 7.35306L7.24963 6.45725L6.45675 7.25015L7.3527 8.14586C7.54799 8.3411 7.54804 8.65768 7.3528 8.85297C7.15756 9.04826 6.84098 9.0483 6.64569 8.85306L5.74965 7.95727ZM10.9239 2.21726L13.2825 4.57606C13.5168 4.81038 13.5168 5.19026 13.2824 5.42457L5.42386 13.2831C5.18954 13.5175 4.80965 13.5175 4.57533 13.2831L2.21675 10.9246C1.98244 10.6903 1.98244 10.3104 2.21675 10.076L10.0753 2.21725C10.3096 1.98292 10.6896 1.98292 10.9239 2.21726Z" fill="black"/>
</svg>
