<svg width="16" height="16" viewBox="0 0 16 16" fill="none" xmlns="http://www.w3.org/2000/svg">
<path fill-rule="evenodd" clip-rule="evenodd" d="M2 5.5C2 4.67157 2.67157 4 3.5 4H8.5C9.32843 4 10 4.67157 10 5.5V10.5C10 11.3284 9.32843 12 8.5 12H3.5C2.67157 12 2 11.3284 2 10.5V5.5ZM3.5 5C3.22386 5 3 5.22386 3 5.5V10.5C3 10.7761 3.22386 11 3.5 11H8.5C8.77614 11 9 10.7761 9 10.5V5.5C9 5.22386 8.77614 5 8.5 5H3.5ZM13 5.72144L12 6.09644V9.90344L13 10.2784V5.72144ZM13.1893 4.58245C13.5816 4.43535 14 4.72532 14 5.14424V10.8556C14 11.2746 13.5816 11.5645 13.1893 11.4174L11.3893 10.7424C11.1551 10.6546 11 10.4307 11 10.1806V5.81924C11 5.56914 11.1551 5.34527 11.3893 5.25745L13.1893 4.58245ZM4.5 6C4.22386 6 4 6.22386 4 6.5C4 6.77614 4.22386 7 4.5 7H6C6.27614 7 6.5 6.77614 6.5 6.5C6.5 6.22386 6.27614 6 6 6H4.5Z" fill="black"/>
</svg>
