<svg width="16" height="16" viewBox="0 0 16 16" fill="none" xmlns="http://www.w3.org/2000/svg">
<path fill-rule="evenodd" clip-rule="evenodd" d="M6.9705 2H9.0295H9.02951C9.94192 1.99999 10.6674 1.99999 11.2452 2.06259C11.8386 2.12688 12.3353 2.26197 12.7634 2.57295C13.018 2.75799 13.242 2.98196 13.4271 3.23664C13.738 3.66467 13.8731 4.16137 13.9374 4.75477C14 5.3326 14 6.05808 14 6.97049V9.02951C14 9.94192 14 10.6674 13.9374 11.2452C13.8731 11.8386 13.738 12.3353 13.4271 12.7634C13.242 13.018 13.018 13.242 12.7634 13.4271C12.3353 13.738 11.8386 13.8731 11.2452 13.9374C10.6674 14 9.94192 14 9.02951 14H6.97049C6.05808 14 5.3326 14 4.75477 13.9374C4.16137 13.8731 3.66467 13.738 3.23664 13.4271C2.98196 13.242 2.75799 13.018 2.57295 12.7634C2.26197 12.3353 2.12688 11.8386 2.06259 11.2452C1.99999 10.6674 1.99999 9.94192 2 9.02951V9.0295V6.9705V6.97049C1.99999 6.05808 1.99999 5.33261 2.06259 4.75477C2.12688 4.16137 2.26197 3.66467 2.57295 3.23664C2.75799 2.98196 2.98196 2.75799 3.23664 2.57295C3.66467 2.26197 4.16137 2.12688 4.75477 2.06259C5.33261 1.99999 6.05808 1.99999 6.97049 2H6.9705ZM4.86249 3.05677C4.35417 3.11185 4.05357 3.21548 3.82443 3.38197C3.65464 3.50533 3.50533 3.65464 3.38197 3.82443C3.21548 4.05357 3.11185 4.35417 3.05677 4.86249C3.00069 5.38016 3 6.05143 3 7V9C3 9.94857 3.00069 10.6198 3.05677 11.1375C3.11185 11.6458 3.21548 11.9464 3.38197 12.1756C3.50533 12.3454 3.65464 12.4947 3.82443 12.618C4.05357 12.7845 4.35417 12.8882 4.86249 12.9432C5.38016 12.9993 6.05143 13 7 13H9C9.94857 13 10.6198 12.9993 11.1375 12.9432C11.6458 12.8882 11.9464 12.7845 12.1756 12.618C12.3454 12.4947 12.4947 12.3454 12.618 12.1756C12.7845 11.9464 12.8882 11.6458 12.9432 11.1375C12.9993 10.6198 13 9.94857 13 9V7C13 6.05143 12.9993 5.38016 12.9432 4.86249C12.8882 4.35417 12.7845 4.05357 12.618 3.82443C12.4947 3.65464 12.3454 3.50533 12.1756 3.38197C11.9464 3.21548 11.6458 3.11185 11.1375 3.05677C10.6198 3.00069 9.94857 3 9 3H7C6.05143 3 5.38016 3.00069 4.86249 3.05677ZM7.5 6V8H9C9.55228 8 10 7.55228 10 7C10 6.44772 9.55228 6 9 6H7.5ZM11 7C11 8.10457 10.1046 9 9 9H7.5V9.5H8.5C8.77614 9.5 9 9.72386 9 10C9 10.2761 8.77614 10.5 8.5 10.5H7.5V11C7.5 11.2761 7.27614 11.5 7 11.5C6.72386 11.5 6.5 11.2761 6.5 11V10.5H6C5.72386 10.5 5.5 10.2761 5.5 10C5.5 9.72386 5.72386 9.5 6 9.5H6.5V9H6C5.72386 9 5.5 8.77614 5.5 8.5C5.5 8.22386 5.72386 8 6 8H6.5V5.6C6.5 5.26863 6.76863 5 7.1 5H9C10.1046 5 11 5.89543 11 7Z" fill="black"/>
</svg>
