<svg width="16" height="16" viewBox="0 0 16 16" fill="none" xmlns="http://www.w3.org/2000/svg">
<path fill-rule="evenodd" clip-rule="evenodd" d="M2 2.75675C2 2.339 2.33225 2 2.75675 2H4.24325C4.661 2 5 2.33225 5 2.75675V4.2425C5 4.661 4.66775 5 4.24325 5H2.75675C2.339 5 2 4.667 2 4.2425V2.75675ZM8.08556 14.8854L9.74022 13.0536C9.8658 12.9153 9.85131 12.7041 9.70848 12.5825C9.645 12.529 9.56427 12.4996 9.48077 12.4996H6.17076C5.98032 12.4996 5.82575 12.6493 5.82575 12.8338C5.82575 12.9146 5.85611 12.9928 5.91131 13.0536L7.56667 14.8854C7.69225 15.0244 7.9103 15.0385 8.05313 14.9168C8.06486 14.9075 8.0759 14.8968 8.08556 14.8854ZM7.25674 2C6.83224 2 6.49999 2.339 6.49999 2.75675V4.2425C6.49999 4.667 6.83899 5 7.25674 5H8.74324C9.16774 5 9.49999 4.661 9.49999 4.2425V2.75675C9.49999 2.33225 9.16099 2 8.74324 2H7.25674ZM11 2.75675C11 2.339 11.3323 2 11.7568 2H13.2433C13.661 2 14 2.33225 14 2.75675V4.2425C14 4.661 13.6678 5 13.2433 5H11.7568C11.339 5 11 4.667 11 4.2425V2.75675ZM2.75675 6.50002C2.33225 6.50002 2 6.83902 2 7.25677V8.74252C2 9.16702 2.339 9.50002 2.75675 9.50002H4.24325C4.66775 9.50002 5 9.16102 5 8.74252V7.25677C5 6.83227 4.661 6.50002 4.24325 6.50002H2.75675ZM6.49999 7.25677C6.49999 6.83902 6.83224 6.50002 7.25674 6.50002H8.74324C9.16099 6.50002 9.49999 6.83227 9.49999 7.25677V8.74252C9.49999 9.16102 9.16774 9.50002 8.74324 9.50002H7.25674C6.83899 9.50002 6.49999 9.16702 6.49999 8.74252V7.25677ZM11.7568 6.50002C11.3323 6.50002 11 6.83902 11 7.25677V8.74252C11 9.16702 11.339 9.50002 11.7568 9.50002H13.2433C13.6678 9.50002 14 9.16102 14 8.74252V7.25677C14 6.83227 13.661 6.50002 13.2433 6.50002H11.7568Z" fill="black"/>
</svg>
