<svg width="16" height="16" viewBox="0 0 16 16" fill="none" xmlns="http://www.w3.org/2000/svg">
<path fill-rule="evenodd" clip-rule="evenodd" d="M4.96823 4C4.81984 4 4.67911 4.06591 4.58412 4.17991L3.06737 6L4.49988 6C4.77602 6 4.99988 6.22386 4.99988 6.5C4.99988 6.77614 4.77602 7 4.49988 7L3.20696 7L7.99985 11.7929L12.7927 7H6.49988C6.22374 7 5.99988 6.77614 5.99988 6.5C5.99988 6.22386 6.22374 6 6.49988 6H12.9323L11.4156 4.17991C11.3206 4.06591 11.1799 4 11.0315 4H4.96823ZM3.81589 3.53972C4.10089 3.19773 4.52306 3 4.96823 3H11.0315C11.4766 3 11.8988 3.19773 12.1838 3.53972L14.0916 5.82913C14.4228 6.22646 14.3963 6.81071 14.0305 7.17642L8.70696 12.5C8.31643 12.8905 7.68327 12.8905 7.29274 12.5L1.96917 7.17642C1.60345 6.8107 1.57695 6.22646 1.90805 5.82913L3.81589 3.53972Z" fill="black"/>
</svg>
