<svg width="16" height="16" viewBox="0 0 16 16" fill="none" xmlns="http://www.w3.org/2000/svg">
<path fill-rule="evenodd" clip-rule="evenodd" d="M13 4H3L3 10H13V4ZM3 3C2.44772 3 2 3.44772 2 4V10C2 10.5523 2.44772 11 3 11H13C13.5523 11 14 10.5523 14 10V4C14 3.44772 13.5523 3 13 3H3ZM5.5 12.5C5.5 12.2239 5.72386 12 6 12H10C10.2761 12 10.5 12.2239 10.5 12.5C10.5 12.7761 10.2761 13 10 13H6C5.72386 13 5.5 12.7761 5.5 12.5ZM8 9C7.58579 9 7.25 8.66421 7.25 8.25C7.25 7.83579 7.58579 7.5 8 7.5C8.41421 7.5 8.75 7.83579 8.75 8.25C8.75 8.66421 8.41421 9 8 9Z" fill="black"/>
</svg>
