<svg width="16" height="16" viewBox="0 0 16 16" fill="none" xmlns="http://www.w3.org/2000/svg">
<path fill-rule="evenodd" clip-rule="evenodd" d="M13.3536 3.35355C13.5488 3.15829 13.5488 2.84171 13.3536 2.64645C13.1583 2.45118 12.8417 2.45118 12.6464 2.64645L8.99999 6.2929L5.92426 3.21716C5.68994 2.98284 5.31004 2.98284 5.07573 3.21716L3.21715 5.07574C2.98283 5.31005 2.98283 5.68995 3.21715 5.92426L6.29289 9L2.64645 12.6464C2.45118 12.8417 2.45118 13.1583 2.64645 13.3536C2.84171 13.5488 3.15829 13.5488 3.35355 13.3536L13.3536 3.35355ZM7 8.2929L8.29289 7L7.25 5.95711L5.9571 7.25001L7 8.2929ZM5.49999 4.20711L6.54289 5.25001L5.25 6.5429L4.2071 5.5L5.49999 4.20711ZM10.8536 8.14645C10.6583 7.95118 10.3417 7.95118 10.1464 8.14645C9.95118 8.34171 9.95118 8.65829 10.1464 8.85355L12 10.7071V12H10.7071L8.85355 10.1464C8.65829 9.95118 8.34171 9.95118 8.14645 10.1464C7.95118 10.3417 7.95118 10.6583 8.14645 10.8536L10.1172 12.8243C10.2297 12.9368 10.3823 13 10.5414 13H12.4C12.7314 13 13 12.7314 13 12.4V10.5414C13 10.3823 12.9368 10.2297 12.8243 10.1172L10.8536 8.14645Z" fill="black"/>
</svg>
