<svg width="16" height="16" viewBox="0 0 16 16" fill="none" xmlns="http://www.w3.org/2000/svg">
<path fill-rule="evenodd" clip-rule="evenodd" d="M7.29453 3.67028C7.38947 3.56205 7.52645 3.5 7.67041 3.5H8.28261V12.413H7.67041C7.52645 12.413 7.38947 12.351 7.29453 12.2428L4.83521 9.43913H3.98261C3.16379 9.43913 2.5 8.77534 2.5 7.95652C2.5 7.1377 3.16379 6.47391 3.98261 6.47391H4.83521L7.29453 3.67028ZM3.98261 5.47391C2.6115 5.47391 1.5 6.58541 1.5 7.95652C1.5 9.32763 2.6115 10.4391 3.98261 10.4391H4.38218L6.54277 12.9022C6.82758 13.2269 7.23852 13.413 7.67041 13.413H8.28261C8.83489 13.413 9.28261 12.9653 9.28261 12.413V3.5C9.28261 2.94771 8.83489 2.5 8.28261 2.5H7.67041C7.23852 2.5 6.82758 2.68616 6.54277 3.01084L4.38219 5.47391H3.98261ZM12.6889 3.70334C12.501 3.50094 12.1846 3.48916 11.9823 3.67703C11.7799 3.86489 11.7681 4.18125 11.9559 4.38364C12.6338 5.11398 13.2969 6.19628 13.4612 7.4353C13.6222 8.64985 13.3124 10.068 11.9559 11.5294C11.7681 11.7318 11.7799 12.0482 11.9823 12.236C12.1846 12.4239 12.501 12.4121 12.6889 12.2097C14.2381 10.5407 14.6547 8.82843 14.4525 7.30385C14.2536 5.80375 13.4638 4.53821 12.6889 3.70334ZM11.236 6.31203C11.0482 6.10964 10.7318 6.09786 10.5294 6.28572C10.327 6.47358 10.3152 6.78995 10.5031 6.99234C10.6485 7.14898 10.7996 7.48599 10.8245 7.88959C10.8489 8.28261 10.7488 8.65604 10.5031 8.92073C10.3152 9.12312 10.327 9.43948 10.5294 9.62735C10.7318 9.81521 11.0482 9.80343 11.236 9.60103C11.7168 9.08312 11.8588 8.41306 11.8226 7.82783C11.7871 7.25316 11.5749 6.67713 11.236 6.31203Z" fill="black"/>
</svg>
