<svg width="24" height="24" viewBox="0 0 24 24" fill="none" xmlns="http://www.w3.org/2000/svg">
<path fill-rule="evenodd" clip-rule="evenodd" d="M6.7998 7.05005C6.10945 7.05005 5.5498 7.60969 5.5498 8.30005V14.8696C5.5498 15.56 6.10945 16.1196 6.7998 16.1196H18.2476C18.938 16.1196 19.4976 15.56 19.4976 14.8696V10.8076C19.4976 10.7372 19.4679 10.67 19.4158 10.6227L15.5575 7.11506C15.5114 7.07323 15.4515 7.05005 15.3893 7.05005H6.7998ZM4.0498 8.30005C4.0498 6.78126 5.28102 5.55005 6.7998 5.55005H15.3893C15.8246 5.55005 16.2443 5.71231 16.5665 6.00515L20.4248 9.51274C20.7896 9.84441 20.9976 10.3146 20.9976 10.8076V14.8696C20.9976 16.3884 19.7664 17.6196 18.2476 17.6196H6.7998C5.28102 17.6196 4.0498 16.3884 4.0498 14.8696V8.30005ZM12.9303 10.3023H7.23895V8.80231H12.9303V10.3023ZM7.23895 13.5543H12.9303V12.0543H7.23895V13.5543Z" fill="black"/>
</svg>
