<svg width="24" height="24" viewBox="0 0 24 24" fill="none" xmlns="http://www.w3.org/2000/svg">
<path d="M6 7C6 4.79086 7.79086 3 10 3C12.2091 3 14 4.79086 14 7V8C14 10.2091 12.2091 12 10 12C7.79086 12 6 10.2091 6 8V7Z" fill="black"/>
<path d="M1.5 19C1.5 16.2386 3.73858 14 6.5 14H10.5C11.0523 14 11.5 14.4477 11.5 15V21C11.5 21.5523 11.0523 22 10.5 22H3.5C2.39543 22 1.5 21.1046 1.5 20V19Z" fill="black"/>
<path fill-rule="evenodd" clip-rule="evenodd" d="M13 13.0518C13 12.4995 13.4477 12.0518 14 12.0518H20.9707C21.523 12.0518 21.9707 12.4995 21.9707 13.0518V21C21.9707 21.5523 21.523 22 20.9707 22H14C13.4477 22 13 21.5523 13 21V13.0518ZM18.6876 14C19.1363 14 19.5 14.3637 19.5 14.8124C19.5 15.2611 19.1363 15.6249 18.6876 15.6249H16.3123C15.8636 15.6249 15.4999 15.2611 15.4999 14.8124C15.4999 14.3637 15.8636 14 16.3123 14H18.6876Z" fill="black"/>
</svg>
