<svg width="24" height="24" viewBox="0 0 24 24" fill="none" xmlns="http://www.w3.org/2000/svg">
<path fill-rule="evenodd" clip-rule="evenodd" d="M5.5 5C4.67157 5 4 5.67157 4 6.5V13.5H8.92792C9.29855 13.5 9.60582 13.7355 9.72568 14.0526C9.91112 14.5431 10.599 15.5 12 15.5C13.401 15.5 14.0889 14.5431 14.2743 14.0526C14.3942 13.7355 14.7014 13.5 15.0721 13.5H20V6.5C20 5.67157 19.3284 5 18.5 5H5.5ZM20 15H15.4815C14.9934 15.8757 13.8896 17 12 17C10.1104 17 9.00656 15.8757 8.51847 15H4V17.5C4 18.3284 4.67157 19 5.5 19H18.5C19.3284 19 20 18.3284 20 17.5V15ZM18 8.5H6V7H18V8.5ZM6 11.5H18V10H6V11.5Z" fill="black"/>
</svg>
