<svg width="24" height="24" viewBox="0 0 24 24" fill="none" xmlns="http://www.w3.org/2000/svg">
<path fill-rule="evenodd" clip-rule="evenodd" d="M4 3H15V8.15C15 8.61944 15.3806 9 15.85 9H21V19.5C21 20.0523 20.5523 20.5 20 20.5H4C3.44772 20.5 3 20.0523 3 19.5V4C3 3.44772 3.44772 3 4 3ZM20.9707 7.47071C20.9793 7.47926 20.9861 7.4892 20.991 7.5H16.5V3.00898C16.5108 3.0139 16.5207 3.02074 16.5293 3.02929L20.9707 7.47071ZM10.5011 13.0975C10.1537 13.4959 9.97999 14.13 9.97999 15C9.97999 15.8791 10.1605 16.5156 10.5217 16.9093C10.8873 17.3031 11.413 17.5 12.0987 17.5C12.4415 17.5 12.7432 17.4565 13.0037 17.3695C13.2643 17.2779 13.4814 17.1337 13.6551 16.9368C13.8334 16.7353 13.9659 16.4766 14.0528 16.1607C14.1442 15.8402 14.1899 15.4533 14.1899 15C14.1899 14.565 14.1511 14.1918 14.0733 13.8805C14.0002 13.5646 13.8791 13.3059 13.7099 13.1044C13.5454 12.8984 13.3306 12.7473 13.0654 12.6511C12.8003 12.5504 12.4781 12.5 12.0987 12.5C11.381 12.5 10.8485 12.6992 10.5011 13.0975ZM11.2484 15.7486C11.2073 15.5517 11.1867 15.3045 11.1867 15.0069C11.1867 14.7276 11.205 14.4918 11.2416 14.2995C11.2782 14.1026 11.3307 13.9446 11.3993 13.8255C11.4724 13.7019 11.5638 13.6126 11.6736 13.5577C11.7878 13.5027 11.9204 13.4753 12.0712 13.4753C12.2221 13.4753 12.3546 13.5005 12.4689 13.5508C12.5878 13.5966 12.6838 13.679 12.7569 13.7981C12.8346 13.9171 12.8917 14.0751 12.9283 14.272C12.9694 14.4689 12.99 14.7138 12.99 15.0069C12.99 15.2999 12.9717 15.5449 12.9352 15.7418C12.8986 15.9341 12.8437 16.0897 12.7706 16.2088C12.6975 16.3233 12.606 16.4057 12.4963 16.456C12.3866 16.5018 12.2609 16.5247 12.1192 16.5247C11.973 16.5247 11.8427 16.5018 11.7284 16.456C11.6141 16.4103 11.5159 16.3301 11.4336 16.2157C11.3559 16.1012 11.2942 15.9455 11.2484 15.7486ZM5.91139 12.5824C5.7834 12.587 5.64627 12.5939 5.5 12.603V17.3901C5.76969 17.4084 6.01881 17.4221 6.24736 17.4313C6.48049 17.4405 6.74561 17.445 7.04272 17.445C7.91122 17.445 8.54202 17.2367 8.93513 16.82C9.33281 16.4034 9.53165 15.7578 9.53165 14.8832C9.53165 14.5078 9.49279 14.1758 9.41509 13.8873C9.34195 13.5989 9.21396 13.3562 9.03112 13.1593C8.84828 12.9624 8.60373 12.8136 8.29747 12.7129C7.99121 12.6076 7.60953 12.5549 7.15243 12.5549C6.9833 12.5549 6.83017 12.5572 6.69304 12.5618C6.55591 12.5618 6.42335 12.5641 6.29536 12.5687C6.16737 12.5687 6.03938 12.5732 5.91139 12.5824ZM6.8576 16.4629C6.78903 16.4583 6.71132 16.4515 6.62447 16.4423V13.5577C6.72047 13.5485 6.8096 13.5417 6.89188 13.5371C6.97416 13.5325 7.06786 13.5302 7.173 13.5302C7.60724 13.5302 7.91579 13.6424 8.09863 13.8667C8.28147 14.0865 8.37289 14.446 8.37289 14.945C8.37289 15.4853 8.27233 15.8745 8.0712 16.1126C7.87008 16.3507 7.54554 16.4698 7.09758 16.4698C7.00615 16.4698 6.92616 16.4675 6.8576 16.4629ZM18.452 13.8668C18.3057 13.7843 18.1275 13.7065 17.9172 13.6332C17.7115 13.5554 17.4464 13.5165 17.1218 13.5165C16.9024 13.5165 16.7104 13.5417 16.5459 13.592C16.3859 13.6424 16.2533 13.7248 16.1482 13.8393C16.0431 13.9538 15.9631 14.1049 15.9082 14.2926C15.8579 14.4757 15.8328 14.7047 15.8328 14.9794C15.8328 15.2679 15.8602 15.5082 15.9151 15.7006C15.9699 15.8929 16.0522 16.0485 16.1619 16.1676C16.2716 16.2821 16.411 16.3645 16.5802 16.4148C16.7493 16.4606 16.9481 16.4835 17.1767 16.4835C17.4921 16.4835 17.7595 16.4446 17.9789 16.3668C18.1983 16.2843 18.372 16.1973 18.5 16.1058V17.2253C18.372 17.2894 18.1892 17.3489 17.9515 17.4038C17.7138 17.4634 17.4258 17.4931 17.0876 17.4931C16.6624 17.4931 16.2968 17.4451 15.9905 17.3489C15.6888 17.2482 15.4397 17.0971 15.2431 16.8956C15.0512 16.6941 14.9095 16.44 14.818 16.1332C14.7266 15.8265 14.6809 15.4625 14.6809 15.0412C14.6809 14.6062 14.7266 14.2308 14.818 13.9148C14.9095 13.5943 15.0512 13.3288 15.2431 13.1181C15.4397 12.9075 15.6911 12.7518 15.9974 12.6511C16.3036 12.5504 16.6693 12.5 17.0944 12.5C17.4327 12.5 17.7138 12.5275 17.9378 12.5824C18.1617 12.6328 18.3332 12.6763 18.452 12.7129V13.8668Z" fill="black"/>
</svg>
