<svg width="24" height="24" viewBox="0 0 24 24" fill="none" xmlns="http://www.w3.org/2000/svg">
<path fill-rule="evenodd" clip-rule="evenodd" d="M9.24995 3C8.8055 3 8.41439 3.29333 8.28995 3.72L5.29862 13.976C5.14928 14.488 5.53328 15 6.06662 15H17.9333C18.4666 15 18.8506 14.488 18.7013 13.976L15.7099 3.72C15.5855 3.29333 15.1944 3 14.7499 3H9.24995ZM12.75 16.75C12.75 16.3358 12.4142 16 12 16C11.5858 16 11.25 16.3358 11.25 16.75V19H8.75C8.33579 19 8 19.3358 8 19.75C8 20.1642 8.33579 20.5 8.75 20.5H15.25C15.6642 20.5 16 20.1642 16 19.75C16 19.3358 15.6642 19 15.25 19H12.75V16.75Z" fill="black"/>
</svg>
