<svg width="24" height="24" viewBox="0 0 24 24" fill="none" xmlns="http://www.w3.org/2000/svg">
<path fill-rule="evenodd" clip-rule="evenodd" d="M15.8667 13.185C12.8355 18.7221 7.4794 17.1291 5.06525 15.2397C4.12473 16.9245 3.75 18.8497 3.75 20.27C3.75 20.6842 3.41421 21.02 3 21.02C2.58579 21.02 2.25 20.6842 2.25 20.27C2.25 19.4507 2.35935 18.4582 2.61953 17.4162C3.26068 15.177 5.64912 9.96719 11.1088 7.69231C11.4912 7.53299 11.672 7.09389 11.5127 6.71154C11.3534 6.32918 10.9143 6.14838 10.5319 6.30769C7.04849 7.75912 4.70944 10.2664 3.21633 12.606C2.62291 10.622 3.35412 8.55797 4.15757 7.4814C5.37376 5.8518 7.92139 3 12.9395 3C18.3757 3 23.4182 6 23 6C22.5818 6 19.212 7.074 15.8667 13.185Z" fill="black"/>
</svg>
