<svg width="24" height="24" viewBox="0 0 24 24" fill="none" xmlns="http://www.w3.org/2000/svg">
<path fill-rule="evenodd" clip-rule="evenodd" d="M3 6V16C3 16.5523 3.44772 17 4 17H20C20.5523 17 21 16.5523 21 16V6C21 5.44772 20.5523 5 20 5H4C3.44772 5 3 5.44772 3 6ZM11 11V8.5H12.75C13.4404 8.5 14 9.05964 14 9.75C14 10.4404 13.4404 11 12.75 11H11ZM12.75 12C13.9926 12 15 10.9926 15 9.75C15 8.50736 13.9926 7.5 12.75 7.5H10.6C10.2686 7.5 10 7.76863 10 8.1V11H9.5C9.22386 11 9 11.2239 9 11.5C9 11.7761 9.22386 12 9.5 12H10V12.4998H9.5C9.22386 12.4998 9 12.7237 9 12.9998C9 13.276 9.22386 13.4998 9.5 13.4998H10V14C10 14.2761 10.2239 14.5 10.5 14.5C10.7761 14.5 11 14.2761 11 14V13.4998H12C12.2761 13.4998 12.5 13.276 12.5 12.9998C12.5 12.7237 12.2761 12.4998 12 12.4998H11V12H12.75ZM7 10.25C7 9.83579 6.66421 9.5 6.25 9.5C5.83579 9.5 5.5 9.83579 5.5 10.25V11.75C5.5 12.1642 5.83579 12.5 6.25 12.5C6.66421 12.5 7 12.1642 7 11.75V10.25ZM17.75 9.5C18.1642 9.5 18.5 9.83579 18.5 10.25V11.75C18.5 12.1642 18.1642 12.5 17.75 12.5C17.3358 12.5 17 12.1642 17 11.75V10.25C17 9.83579 17.3358 9.5 17.75 9.5ZM3.75 18.5C3.33579 18.5 3 18.8358 3 19.25C3 19.6642 3.33579 20 3.75 20H20.25C20.6642 20 21 19.6642 21 19.25C21 18.8358 20.6642 18.5 20.25 18.5H3.75Z" fill="black"/>
</svg>
