<svg width="24" height="24" viewBox="0 0 24 24" fill="none" xmlns="http://www.w3.org/2000/svg">
<path fill-rule="evenodd" clip-rule="evenodd" d="M3.5 6.5C3.22386 6.5 3 6.72386 3 7V18C3 18.2761 3.22386 18.5 3.5 18.5H20.5C20.7761 18.5 21 18.2761 21 18V7C21 6.72386 20.7761 6.5 20.5 6.5H3.5ZM6.5 11C6.5 9.89543 7.39543 9 8.5 9C9.60457 9 10.5 9.89543 10.5 11V11.5C10.5 12.6046 9.60457 13.5 8.5 13.5C7.39543 13.5 6.5 12.6046 6.5 11.5V11ZM6 16C6 15.1716 6.67157 14.5 7.5 14.5H9.5C10.3284 14.5 11 15.1716 11 16H6ZM12.5 13H18.5V11.5H12.5V13ZM12.5 16H17V14.5H12.5V16Z" fill="black"/>
</svg>
