<svg width="24" height="24" viewBox="0 0 24 24" fill="none" xmlns="http://www.w3.org/2000/svg">
<path d="M15.0103 4V7.04999H10.7603C9.24146 7.04999 8.01025 8.2812 8.01025 9.79999V14.27H4.74023C4.04993 14.27 3.49023 13.7104 3.49023 13.02V4C3.49023 3.30965 4.04993 2.75 4.74023 2.75H13.7603C14.4506 2.75 15.0103 3.30965 15.0103 4Z" fill="black"/>
<path d="M9.51025 9.79999V14.27H13.7603C14.4506 14.27 15.0103 13.7104 15.0103 13.02V8.54999H10.7603C10.0699 8.54999 9.51025 9.10963 9.51025 9.79999Z" fill="black"/>
<path d="M13.7603 15.77H9.51025V18.82C9.51025 19.5103 10.0699 20.07 10.7603 20.07H19.7803C20.4706 20.07 21.0303 19.5103 21.0303 18.82V9.79999C21.0303 9.10963 20.4706 8.54999 19.7803 8.54999H16.5103V13.02C16.5103 14.5388 15.2791 15.77 13.7603 15.77Z" fill="black"/>
</svg>
