<svg width="24" height="24" viewBox="0 0 24 24" fill="none" xmlns="http://www.w3.org/2000/svg">
<path fill-rule="evenodd" clip-rule="evenodd" d="M10.8416 5.58541C10.9938 5.28117 11.3061 5 12.001 5C12.696 5 13.0071 5.28117 13.1592 5.58541C13.3445 5.95589 13.795 6.10606 14.1655 5.92082C14.5359 5.73558 14.6861 5.28507 14.5009 4.91459C13.9863 3.8855 12.9728 3.5 12.001 3.5C11.0293 3.5 10.0145 3.8855 9.5 4.91459C9.31476 5.28507 9.46492 5.73558 9.83541 5.92082C10.2059 6.10606 10.6564 5.95589 10.8416 5.58541ZM4.36537 18.0228L5.07886 14.3535C5.59575 14.7559 6.24946 15 6.97363 15H8.52468C8.6675 15.8513 9.40789 16.5 10.2998 16.5H13.6998C14.5917 16.5 15.3321 15.8513 15.4749 15H17.0261C17.7501 15 18.4037 14.756 18.9205 14.3538L19.634 18.0228C19.9341 19.5661 18.7521 21 17.1799 21H6.81942C5.24725 21 4.0653 19.5661 4.36537 18.0228ZM6.03671 9.42739L5.46048 12.3908C5.51216 13.059 6.1974 13.5 6.97363 13.5H8.49979V13.3C8.49979 12.3059 9.30568 11.5 10.2998 11.5H13.6998C14.6939 11.5 15.4998 12.3059 15.4998 13.3V13.5H17.0261C17.8021 13.5 18.487 13.0593 18.539 12.3915L17.9626 9.42739C17.6885 8.01772 16.4539 7 15.0178 7H8.98157C7.54549 7 6.31082 8.01771 6.03671 9.42739ZM10.2987 15H10.2988L10.2998 15H13.6998L13.7006 15C13.7217 14.9999 13.7422 14.9977 13.762 14.9935C13.8978 14.9649 13.9998 14.8444 13.9998 14.7V13.5H13.9998V13.3C13.9998 13.1343 13.8655 13 13.6998 13H10.2998C10.1341 13 9.99979 13.1343 9.99979 13.3V14.7C9.99979 14.8649 10.1328 14.9987 10.2973 15L10.2987 15Z" fill="black"/>
</svg>
