<svg width="24" height="24" viewBox="0 0 24 24" fill="none" xmlns="http://www.w3.org/2000/svg">
<path d="M15.0629 3.44272C14.7801 3.30134 14.4592 3.25 14.1792 3.25C13.8992 3.25 13.5784 3.30134 13.2956 3.44272L7.92897 6.12604L16.1844 10.2538L20.5449 8.07356C20.8024 7.94481 21.1865 7.6463 21.1865 7.12865C21.1865 6.61099 20.8024 6.31248 20.5449 6.18372L15.0629 3.44272Z" fill="black"/>
<path d="M14.5074 11.0923L6.25192 6.96457L2.3316 8.92473C2.07409 9.05348 1.68994 9.35199 1.68994 9.86965C1.68994 10.3873 2.07409 10.6858 2.3316 10.8146L7.81362 13.5556C8.09637 13.697 8.41723 13.7483 8.69723 13.7483C8.97723 13.7483 9.29808 13.697 9.58084 13.5556L14.5074 11.0923Z" fill="black"/>
<path d="M15.25 12.5436V14.2213L9.4821 17.1112C8.98821 17.3586 8.40649 17.3583 7.91283 17.1104L2.09986 14.1912C1.7297 14.0053 1.58032 13.5546 1.76621 13.1844C1.9521 12.8142 2.40287 12.6649 2.77303 12.8507L8.13774 15.5449C8.49015 15.7216 8.90593 15.722 9.25845 15.5455L15.25 12.5436Z" fill="black"/>
<path d="M16.75 13.4698V11.792L20.1447 10.0912C20.515 9.90567 20.9656 10.0555 21.1512 10.4258C21.3367 10.7961 21.1869 11.2468 20.8166 11.4323L16.75 13.4698Z" fill="black"/>
<path d="M15.25 16.0455L9.25845 19.0474C8.90593 19.224 8.49015 19.2235 8.13774 19.0468L2.77303 16.3527C2.40287 16.1668 1.9521 16.3162 1.76621 16.6863C1.58032 17.0565 1.7297 17.5073 2.09986 17.6932L7.91283 20.6124C8.40649 20.8603 8.98821 20.8606 9.4821 20.6131L15.25 17.7233V16.0455Z" fill="black"/>
<path d="M16.75 16.9717V15.294L20.1447 13.5932C20.515 13.4076 20.9656 13.5574 21.1512 13.9278C21.3367 14.2981 21.1869 14.7487 20.8166 14.9343L16.75 16.9717Z" fill="black"/>
</svg>
