<svg width="24" height="24" viewBox="0 0 24 24" fill="none" xmlns="http://www.w3.org/2000/svg">
<path fill-rule="evenodd" clip-rule="evenodd" d="M20.0454 5C20.0454 4.58579 19.7096 4.25 19.2954 4.25C18.8812 4.25 18.5454 4.58579 18.5454 5V6.99998H16.5454C16.1312 6.99998 15.7954 7.33577 15.7954 7.74998C15.7954 8.1642 16.1312 8.49998 16.5454 8.49998H18.5454V10.5C18.5454 10.9142 18.8812 11.25 19.2954 11.25C19.7096 11.25 20.0454 10.9142 20.0454 10.5V8.49998H22.0454C22.4596 8.49998 22.7954 8.1642 22.7954 7.74998C22.7954 7.33577 22.4596 6.99998 22.0454 6.99998H20.0454V5ZM2 19C2 16.2386 4.23858 14 7 14H12C14.7614 14 17 16.2386 17 19C17 20.1046 16.1046 21 15 21H4C2.89543 21 2 20.1046 2 19ZM9.62041 5C7.92213 5 6.54541 6.37672 6.54541 8.075V8.95357C6.54541 10.6518 7.92213 12.0286 9.62041 12.0286C11.3187 12.0286 12.6954 10.6519 12.6954 8.95358V8.075C12.6954 6.37672 11.3187 5 9.62041 5Z" fill="black"/>
</svg>
