<svg width="24" height="24" viewBox="0 0 24 24" fill="none" xmlns="http://www.w3.org/2000/svg">
<path fill-rule="evenodd" clip-rule="evenodd" d="M16.5 7.05014L12.3345 3.3012C12.1444 3.13007 11.8557 3.13007 11.6655 3.3012L2.96853 11.1285C2.62792 11.4351 2.84477 12.0002 3.30301 12.0002H4.00003H6.00003V20.5002C6.00003 20.7763 6.22389 21.0002 6.50003 21.0002H17.5C17.7762 21.0002 18 20.7763 18 20.5002V12.0002H20.6971C21.1553 12.0002 21.3721 11.4351 21.0315 11.1285L18 8.40015V5.25024C18 4.83603 17.6642 4.50024 17.25 4.50024C16.8358 4.50024 16.5 4.83603 16.5 5.25024V7.05014ZM13.0854 14.3725C12.4486 14.2703 11.9972 13.6372 11.9972 12.9391V11.1951C11.9972 11.0267 11.8136 10.9392 11.6983 11.0518C11.0457 11.6907 9.54857 13.3534 9.5 15.1992C9.46143 16.6764 10.5704 17.9623 11.9333 18.0003C13.344 18.0398 14.499 16.8116 14.499 15.291C14.499 14.9166 14.4365 14.5499 14.3333 14.1964C14.2947 14.0647 14.1515 14.0163 14.0504 14.1007C13.7901 14.3187 13.4519 14.4314 13.0854 14.3725Z" fill="black"/>
</svg>
