<svg width="24" height="24" viewBox="0 0 24 24" fill="none" xmlns="http://www.w3.org/2000/svg">
<path fill-rule="evenodd" clip-rule="evenodd" d="M4 3.8V14C4 15.9474 5.23883 17.9975 7.2 18.8684L9.15898 19.7384C10.9678 20.5416 13.0322 20.5416 14.841 19.7384L16.8 18.8684C18.7612 17.9975 20 15.9474 20 14V3.8C20 3.35817 19.6418 3 19.2 3H4.8C4.35817 3 4 3.35817 4 3.8ZM9.61424 7.60699C9.96943 7.39388 10.4301 7.50906 10.6432 7.86424L10.9395 8.35799C11.118 8.45128 11.3166 8.50011 11.5184 8.50011H12.4819C12.6836 8.50011 12.8822 8.45128 13.0607 8.35799L13.357 7.86424C13.5701 7.50906 14.0308 7.39388 14.386 7.60699C14.7412 7.8201 14.8563 8.2808 14.6432 8.63598L14.3259 9.16488C14.204 9.36796 14.0309 9.53541 13.8239 9.65042L13.8174 9.65405C13.4088 9.88101 12.9492 10.0001 12.4819 10.0001H11.5184C11.051 10.0001 10.5914 9.88101 10.1828 9.65405L10.1763 9.65042C9.9693 9.53541 9.79618 9.36796 9.67433 9.16488L9.35699 8.63599C9.14388 8.2808 9.25906 7.8201 9.61424 7.60699ZM9.75 12.5C9.33579 12.5 9 12.8358 9 13.25C9 13.6642 9.33579 14 9.75 14H14.25C14.6642 14 15 13.6642 15 13.25C15 12.8358 14.6642 12.5 14.25 12.5H9.75Z" fill="black"/>
</svg>
