<svg width="24" height="24" viewBox="0 0 24 24" fill="none" xmlns="http://www.w3.org/2000/svg">
<path fill-rule="evenodd" clip-rule="evenodd" d="M21 11.75C21 13.9144 20.1917 15.8953 18.8525 17.4228C18.5139 17.809 18.0122 18 17.4985 18H6.5015C5.98783 18 5.48607 17.809 5.14745 17.4228C3.80831 15.8953 3 13.9144 3 11.75C3 6.91751 7.02944 3 12 3C16.9706 3 21 6.91751 21 11.75ZM3 20.25C3 19.8358 3.33579 19.5 3.75 19.5H20.2802C20.6944 19.5 21.0302 19.8358 21.0302 20.25C21.0302 20.6642 20.6944 21 20.2802 21H3.75C3.33579 21 3 20.6642 3 20.25ZM8 10.2273C8 10.8341 8.25427 11.4165 8.66667 11.8182C8.67676 11.828 8.68696 11.8377 8.69724 11.8474L11.1714 14.2091C11.6351 14.6517 12.3649 14.6517 12.8286 14.2091L15.3333 11.8182C15.7655 11.4139 16 10.8505 16 10.2273C16 8.99718 14.9553 8 13.6667 8C13.0138 8 12.4235 8.36524 12 8.77778C11.5765 8.36524 10.9862 8 10.3333 8C9.04467 8 8 8.99718 8 10.2273Z" fill="black"/>
</svg>
