<svg width="24" height="24" viewBox="0 0 24 24" fill="none" xmlns="http://www.w3.org/2000/svg">
<path fill-rule="evenodd" clip-rule="evenodd" d="M3 4.25C3 3.55964 3.55964 3 4.25 3H7.75C8.16421 3 8.5 3.33579 8.5 3.75C8.5 4.16421 8.16421 4.5 7.75 4.5H4.5V7.75C4.5 8.16421 4.16421 8.5 3.75 8.5C3.33579 8.5 3 8.16421 3 7.75V4.25ZM3 19.75C3 20.4404 3.55964 21 4.25 21H7.75C8.16421 21 8.5 20.6642 8.5 20.25C8.5 19.8358 8.16421 19.5 7.75 19.5H4.5V16.25C4.5 15.8358 4.16421 15.5 3.75 15.5C3.33579 15.5 3 15.8358 3 16.25V19.75ZM19.75 3C20.4404 3 21 3.55964 21 4.25V7.75C21 8.16421 20.6642 8.5 20.25 8.5C19.8358 8.5 19.5 8.16421 19.5 7.75V4.5H16.25C15.8358 4.5 15.5 4.16421 15.5 3.75C15.5 3.33579 15.8358 3 16.25 3H19.75ZM21 19.75C21 20.4404 20.4404 21 19.75 21H16.25C15.8358 21 15.5 20.6642 15.5 20.25C15.5 19.8358 15.8358 19.5 16.25 19.5H19.5V16.25C19.5 15.8358 19.8358 15.5 20.25 15.5C20.6642 15.5 21 15.8358 21 16.25V19.75ZM10.5 9.5H13.5C14.0523 9.5 14.5 9.94772 14.5 10.5V13.5C14.5 14.0523 14.0523 14.5 13.5 14.5H10.5C9.94772 14.5 9.5 14.0523 9.5 13.5V10.5C9.5 9.94772 9.94772 9.5 10.5 9.5ZM8 10.5C8 9.11929 9.11929 8 10.5 8H13.5C14.8807 8 16 9.11929 16 10.5V13.5C16 14.8807 14.8807 16 13.5 16H10.5C9.11929 16 8 14.8807 8 13.5V10.5Z" fill="black"/>
</svg>
