<svg width="24" height="24" viewBox="0 0 24 24" fill="none" xmlns="http://www.w3.org/2000/svg">
<path fill-rule="evenodd" clip-rule="evenodd" d="M4.5 5.25C4.5 4.83579 4.16421 4.5 3.75 4.5C3.33579 4.5 3 4.83579 3 5.25V20.15C3 20.6194 3.38055 21 3.85 21H19.75C20.1642 21 20.5 20.6642 20.5 20.25C20.5 19.8358 20.1642 19.5 19.75 19.5H4.5V5.25ZM5.86 17.52L8.24559 14.3392C8.36978 14.1736 8.62039 14.1806 8.7352 14.3528L9.25038 15.1256C9.36913 15.3037 9.63087 15.3037 9.74961 15.1256L12.2648 11.3528C12.3796 11.1806 12.6302 11.1736 12.7544 11.3392L13.741 12.6547C13.8665 12.822 14.1203 12.8128 14.2334 12.6369L17.9476 6.85922C18.1096 6.60735 18.5 6.72203 18.5 7.02144V17.7C18.5 17.8657 18.3657 18 18.2 18H6.1C5.85278 18 5.71167 17.7178 5.86 17.52Z" fill="black"/>
</svg>
