<svg width="24" height="24" viewBox="0 0 24 24" fill="none" xmlns="http://www.w3.org/2000/svg">
<path fill-rule="evenodd" clip-rule="evenodd" d="M19.5 4H17.1589C15.1504 4 13.2388 4.86267 11.91 6.36865L6.81075 12.1478C6.63606 12.3458 6.64542 12.6454 6.83212 12.8321L11.1678 17.1679C11.3545 17.3546 11.6542 17.3639 11.8522 17.1892L17.6313 12.09C19.1373 10.7612 20 8.84952 20 6.84112V4.5C20 4.22386 19.7761 4 19.5 4ZM17.5 8C17.5 8.82843 16.8284 9.5 16 9.5C15.1716 9.5 14.5 8.82843 14.5 8C14.5 7.17157 15.1716 6.5 16 6.5C16.8284 6.5 17.5 7.17157 17.5 8ZM6.53033 16.0303C6.82322 15.7374 6.82322 15.2626 6.53033 14.9697C6.23744 14.6768 5.76256 14.6768 5.46967 14.9697L3.46967 16.9697C3.17678 17.2626 3.17678 17.7374 3.46967 18.0303C3.76256 18.3232 4.23744 18.3232 4.53033 18.0303L6.53033 16.0303ZM8.53033 18.0303C8.82322 17.7374 8.82322 17.2626 8.53033 16.9697C8.23744 16.6768 7.76256 16.6768 7.46967 16.9697L6.46967 17.9697C6.17678 18.2626 6.17678 18.7374 6.46967 19.0303C6.76256 19.3232 7.23744 19.3232 7.53033 19.0303L8.53033 18.0303ZM4.08086 10.3113L5.34905 7.3522C5.43811 7.1444 5.65553 7.02221 5.87934 7.05419L9 7.49999L4.70729 12.6512C4.46778 12.9387 4 12.7693 4 12.3952V10.7053C4 10.5698 4.02751 10.4358 4.08086 10.3113ZM11.1761 20H12.8187C12.9386 20 13.0575 19.9784 13.1698 19.9363L16.6238 18.6411C16.8435 18.5587 16.9764 18.3345 16.9432 18.1022L16.5 15L10.9322 19.283C10.6294 19.5158 10.7941 20 11.1761 20Z" fill="black"/>
</svg>
