<svg width="24" height="24" viewBox="0 0 24 24" fill="none" xmlns="http://www.w3.org/2000/svg">
<path d="M18.4787 8.6688C19.0832 8.59285 19.6679 8.32212 20.1314 7.85678C21.2367 6.74694 21.2339 4.95038 20.1251 3.84404C19.0162 2.73769 17.2213 2.74052 16.116 3.85036C15.6525 4.3157 15.3839 4.90177 15.3099 5.50708L12.2388 3.61086C11.5901 3.21034 10.8426 2.9988 10.0805 3.00001C8.99345 3.00172 7.95163 3.43557 7.18421 4.20612L3.23633 8.17005C2.92052 8.48715 2.92133 9.00045 3.23814 9.31655C3.55494 9.63265 4.06778 9.63184 4.38359 9.31474L7.81455 5.86983L8.96182 7.01452L5.53086 10.4594C5.21505 10.7765 5.21586 11.2898 5.53266 11.6059C5.84947 11.922 6.36231 11.9212 6.67812 11.6041L10.1091 8.15921L11.2563 9.3039L7.82539 12.7488C7.50957 13.0659 7.51038 13.5792 7.82719 13.8953C8.144 14.2114 8.65684 14.2106 8.97265 13.8935L12.4036 10.4486L13.5509 11.5933L10.1199 15.0382C9.8041 15.3553 9.80491 15.8686 10.1217 16.1847C10.4385 16.5008 10.9514 16.5 11.2672 16.1829L14.6981 12.738L15.8454 13.8827L12.4144 17.3276C12.0986 17.6447 12.0994 18.158 12.4162 18.4741C12.7331 18.7902 13.2459 18.7894 13.5617 18.4723L16.9927 15.0274L18.1399 16.172L14.709 19.617C14.3932 19.9341 14.394 20.4474 14.7108 20.7635C15.0276 21.0796 15.5404 21.0787 15.8562 20.7616L19.8041 16.7977C20.5715 16.0272 21.0017 14.983 21 13.895C20.9988 13.1322 20.7851 12.3847 20.3829 11.7367L18.4787 8.6688Z" fill="black"/>
</svg>
