<svg width="24" height="24" viewBox="0 0 24 24" fill="none" xmlns="http://www.w3.org/2000/svg">
<path fill-rule="evenodd" clip-rule="evenodd" d="M7 5C5.89543 5 5 5.89543 5 7V13C5 13.0175 5.00023 13.035 5.00067 13.0525C5.02071 17.4759 5.48716 18.8714 6.4 19.9239C7.10499 20.7367 8.14281 20.974 9.43488 20.9979C9.45641 20.9993 9.47812 21 9.5 21H14.5C14.5219 21 14.5436 20.9993 14.5651 20.9979C15.8572 20.974 16.895 20.7367 17.6 19.9239C18.5128 18.8714 18.9793 17.4759 18.9993 13.0525C18.9998 13.035 19 13.0175 19 13V7C19 5.89543 18.1046 5 17 5V7C17 7.55228 16.5523 8 16 8H8C7.44772 8 7 7.55228 7 7V5ZM8 18C8 17.4477 8.44772 17 9 17C9.55228 17 10 17.4477 10 18C10 18.5523 9.55228 19 9 19C8.44772 19 8 18.5523 8 18ZM12 17C11.4477 17 11 17.4477 11 18C11 18.5523 11.4477 19 12 19C12.5523 19 13 18.5523 13 18C13 17.4477 12.5523 17 12 17ZM14 18C14 17.4477 14.4477 17 15 17C15.5523 17 16 17.4477 16 18C16 18.5523 15.5523 19 15 19C14.4477 19 14 18.5523 14 18ZM9 14C8.44772 14 8 14.4477 8 15C8 15.5523 8.44772 16 9 16C9.55228 16 10 15.5523 10 15C10 14.4477 9.55228 14 9 14ZM11 15C11 14.4477 11.4477 14 12 14C12.5523 14 13 14.4477 13 15C13 15.5523 12.5523 16 12 16C11.4477 16 11 15.5523 11 15ZM15 14C14.4477 14 14 14.4477 14 15C14 15.5523 14.4477 16 15 16C15.5523 16 16 15.5523 16 15C16 14.4477 15.5523 14 15 14ZM8 11C8 10.4477 8.44772 10 9 10H15C15.5523 10 16 10.4477 16 11C16 11.5523 15.5523 12 15 12H9C8.44772 12 8 11.5523 8 11Z" fill="black"/>
<path d="M8.5 6.5V3H15.5V6.5H8.5Z" fill="black"/>
</svg>
