<svg width="24" height="24" viewBox="0 0 24 24" fill="none" xmlns="http://www.w3.org/2000/svg">
<path d="M17.9337 3H6.06609C5.71483 3 5.38932 3.1843 5.2086 3.4855L3.13599 6.93985C2.85605 7.40642 3.19213 8 3.73624 8H6.5V6C6.5 5.44772 6.94772 5 7.5 5C8.05228 5 8.5 5.44772 8.5 6V8H11V6C11 5.44772 11.4477 5 12 5C12.5523 5 13 5.44772 13 6V8H15.5V6C15.5 5.44772 15.9477 5 16.5 5C17.0523 5 17.5 5.44772 17.5 6V8H20.2636C20.8077 8 21.1438 7.40642 20.8638 6.93985L18.7912 3.4855C18.6105 3.1843 18.285 3 17.9337 3Z" fill="black"/>
<path fill-rule="evenodd" clip-rule="evenodd" d="M4.49996 9.5C4.22382 9.5 3.99996 9.72386 3.99996 10V20.5C3.99996 20.7761 4.22382 21 4.49996 21H6.99996V18C6.99996 17.4477 7.44768 17 7.99996 17C8.55224 17 8.99996 17.4477 8.99996 18V21H11V18C11 17.4477 11.4477 17 12 17C12.5522 17 13 17.4477 13 18V21H15V18C15 17.4477 15.4477 17 16 17C16.5522 17 17 17.4477 17 18V21H19.5C19.7761 21 20 20.7761 20 20.5V10C20 9.72386 19.7761 9.5 19.5 9.5H4.49996ZM7.99996 11C7.44768 11 6.99996 11.4477 6.99996 12V14C6.99996 14.5523 7.44768 15 7.99996 15C8.55224 15 8.99996 14.5523 8.99996 14V12C8.99996 11.4477 8.55224 11 7.99996 11ZM11 12C11 11.4477 11.4477 11 12 11C12.5522 11 13 11.4477 13 12V14C13 14.5523 12.5522 15 12 15C11.4477 15 11 14.5523 11 14V12ZM16 11C15.4477 11 15 11.4477 15 12V14C15 14.5523 15.4477 15 16 15C16.5522 15 17 14.5523 17 14V12C17 11.4477 16.5522 11 16 11Z" fill="black"/>
</svg>
