<svg width="24" height="24" viewBox="0 0 24 24" fill="none" xmlns="http://www.w3.org/2000/svg">
<path fill-rule="evenodd" clip-rule="evenodd" d="M21 11.75C21 13.9144 20.1917 15.8953 18.8525 17.4228C18.5139 17.809 18.0122 18 17.4985 18H6.5015C5.98783 18 5.48607 17.809 5.14745 17.4228C3.80831 15.8953 3 13.9144 3 11.75C3 6.91751 7.02944 3 12 3C16.9706 3 21 6.91751 21 11.75ZM3 20.25C3 19.8358 3.33579 19.5 3.75 19.5H20.2802C20.6944 19.5 21.0302 19.8358 21.0302 20.25C21.0302 20.6642 20.6944 21 20.2802 21H3.75C3.33579 21 3 20.6642 3 20.25ZM12 7.25C12.4142 7.25 12.75 7.58579 12.75 8V12.6893L14.4697 10.9697C14.7626 10.6768 15.2374 10.6768 15.5303 10.9697C15.8232 11.2626 15.8232 11.7374 15.5303 12.0303L12.601 14.9596C12.2691 15.2916 11.7309 15.2916 11.399 14.9596L8.46967 12.0303C8.17678 11.7374 8.17678 11.2626 8.46967 10.9697C8.76256 10.6768 9.23744 10.6768 9.53033 10.9697L11.25 12.6893V8C11.25 7.58579 11.5858 7.25 12 7.25Z" fill="black"/>
</svg>
