<svg width="24" height="24" viewBox="0 0 24 24" fill="none" xmlns="http://www.w3.org/2000/svg">
<path fill-rule="evenodd" clip-rule="evenodd" d="M18.3324 2.52883C18.385 2.51007 18.4415 2.49994 18.5 2.5C18.5585 2.49994 18.615 2.51007 18.6676 2.52883C18.8073 2.57862 18.9199 2.68917 18.9708 2.83114C18.9861 2.87391 18.9958 2.91924 18.9989 2.96612C19.043 3.47747 19.2525 4.2533 19.7253 4.88924C20.1855 5.50839 20.8947 6.00003 22 6.00003C22.2762 6.00003 22.5 6.22389 22.5 6.50003C22.5 6.77617 22.2762 7.00003 22 7.00003C20.8947 7.00003 20.1855 7.49167 19.7253 8.11081C19.2525 8.74676 19.043 9.52259 18.9989 10.0339C18.9958 10.0808 18.9861 10.1261 18.9708 10.1689C18.9208 10.308 18.8105 10.4201 18.6689 10.4708C18.6159 10.4898 18.559 10.5001 18.5 10.5001C18.4411 10.5001 18.3841 10.4898 18.3311 10.4708C18.192 10.4208 18.08 10.3105 18.0293 10.1689C18.0139 10.1261 18.0042 10.0808 18.0011 10.0339C17.9571 9.52259 17.7475 8.74676 17.2748 8.11081C16.8146 7.49167 16.1053 7.00003 15 7.00003C14.7239 7.00003 14.5 6.77617 14.5 6.50003C14.5 6.22389 14.7239 6.00003 15 6.00003C16.1053 6.00003 16.8146 5.50839 17.2748 4.88924C17.7475 4.2533 17.9571 3.47746 18.0011 2.96612C18.0042 2.91923 18.0139 2.87391 18.0293 2.83114C18.0794 2.69162 18.1902 2.5793 18.3324 2.52883ZM3.08891 8.5204C3.42094 12.7175 5.84328 15.7289 7.60634 17.511C9.36941 19.2932 11.9531 21.6509 16.1464 22.0282C17.1824 22.1214 18.3977 22.0282 19.4208 21.0371L20.4201 20.0486C21.2417 19.2358 21.3155 17.9782 20.5849 17.2397L18.6006 15.2338C17.8699 14.4953 16.6116 14.5556 15.79 15.3684L14.6104 16.5354C14.4131 16.7305 14.152 16.8443 13.9072 16.7722C13.195 16.5624 11.8632 15.8629 10.5817 14.5675C9.30025 13.2722 8.61496 11.933 8.41286 11.2186C8.3434 10.9731 8.46002 10.7132 8.65728 10.518L9.83689 9.35107C10.6585 8.53825 10.7323 7.28064 10.0017 6.54211L8.01737 4.5363C7.28676 3.79778 6.02843 3.85802 5.2068 4.67084L4.20757 5.65936C3.41846 6.44002 3.00687 7.48348 3.08891 8.5204Z" fill="black"/>
</svg>
