<svg width="24" height="24" viewBox="0 0 24 24" fill="none" xmlns="http://www.w3.org/2000/svg">
<path fill-rule="evenodd" clip-rule="evenodd" d="M11.7072 4.29297C11.8948 4.10544 12.1491 4.00009 12.4143 4.00008L19.0001 4C19.5524 3.99999 20.0001 4.44771 20.0001 5L20.0001 11.5858C20.0001 11.851 19.8947 12.1053 19.7072 12.2929L11.4951 20.505C11.2217 20.7784 10.7785 20.7784 10.5051 20.505L3.49506 13.4949C3.2217 13.2216 3.2217 12.7784 3.49507 12.505L11.7072 4.29297ZM11.4697 17.5303L6.46971 12.5303L7.53037 11.4696L12.5304 16.4696L11.4697 17.5303ZM16.5 8.99995C17.3285 8.99995 18 8.32838 18 7.49995C18 6.67153 17.3285 5.99995 16.5 5.99995C15.6716 5.99995 15 6.67153 15 7.49995C15 8.32838 15.6716 8.99995 16.5 8.99995Z" fill="black"/>
</svg>
