<svg width="24" height="24" viewBox="0 0 24 24" fill="none" xmlns="http://www.w3.org/2000/svg">
<path fill-rule="evenodd" clip-rule="evenodd" d="M7.02167 7.8471L8.85073 7.66419L8.16606 8.50102C7.2175 9.66036 7.47556 11.385 8.72192 12.2159C9.81611 12.9453 11.2864 12.7171 12.1079 11.6902L12.5811 11.0987L18.7908 16.8649L18.7774 16.8921C18.3214 17.8041 17.2397 18.2108 16.2959 17.8251L15.4997 17.4997C14.6713 18.6043 13.1043 18.8281 11.9997 17.9997C11.0627 19.0866 9.42122 19.206 8.33679 18.2662L5.26502 15.604C4.99317 15.3684 4.86882 15.0049 4.93937 14.6522L6.1406 8.64602C6.2268 8.21502 6.58432 7.89083 7.02167 7.8471ZM17.6985 8.46405L18.8059 14.832L13.3941 9.80668C12.8673 9.31752 12.0359 9.37902 11.5868 9.94037L10.9366 10.7531C10.6011 11.1724 10.0008 11.2657 9.55397 10.9678C9.04504 10.6285 8.93966 9.92428 9.32699 9.45088L10.8347 7.60816C11.667 6.59081 13.0275 6.17753 14.2805 6.55222L17.094 7.71071C17.4115 7.84142 17.6397 8.12583 17.6985 8.46405ZM4.64723 6.76434C5.0534 6.84558 5.31681 7.2407 5.23558 7.64687L3.73558 15.1469C3.65435 15.553 3.25923 15.8164 2.85306 15.7352C2.44689 15.654 2.18348 15.2589 2.26471 14.8527L3.76471 7.35269C3.84594 6.94652 4.24106 6.68311 4.64723 6.76434ZM19.3528 6.76434C18.9466 6.84558 18.6832 7.2407 18.7644 7.64687L20.2644 15.1469C20.3457 15.553 20.7408 15.8164 21.1469 15.7352C21.5531 15.654 21.8165 15.2589 21.7353 14.8527L20.2353 7.35269C20.1541 6.94652 19.7589 6.68311 19.3528 6.76434Z" fill="black"/>
</svg>
