<svg width="24" height="24" viewBox="0 0 24 24" fill="none" xmlns="http://www.w3.org/2000/svg">
<path d="M10.4774 12H14.9997C16.3479 12 17.3661 12.6434 18.0228 13.4438C18.29 13.7695 18.5056 14.1304 18.6655 14.5H15.75C15.3358 14.5 15 14.8358 15 15.25C15 15.6642 15.3358 16 15.75 16H20.4082C20.6512 16.1849 20.8783 16.3921 21.0615 16.6148C21.243 16.8355 21.4514 17.1553 21.5145 17.5517C21.5882 18.0145 21.445 18.4819 21.0809 18.8311C20.7684 19.1308 20.3574 19.2829 19.97 19.3688C19.5655 19.4586 19.0755 19.5 18.4998 19.5H3.75C2.7835 19.5 2 18.7165 2 17.75V16.25C2 15.8358 2.33579 15.5 2.75 15.5C3.16421 15.5 3.5 15.8358 3.5 16.25V17.75C3.5 17.8881 3.61193 18 3.75 18H8.92457C7.8695 17.57 6.89784 17.0872 6.09908 16.6071C5.49306 16.2429 4.95233 15.8605 4.53431 15.4781C4.15344 15.1297 3.72952 14.6535 3.59918 14.0816C3.52489 13.7556 3.54314 13.379 3.7393 13.024C3.92632 12.6855 4.21718 12.4715 4.49261 12.3373C4.77916 12.1977 5.12027 12.1096 5.50015 12.0586V5.5H3.25C2.83579 5.5 2.5 5.16421 2.5 4.75C2.5 4.33579 2.83579 4 3.25 4H10.75C11.1642 4 11.5 4.33579 11.5 4.75C11.5 5.16421 11.1642 5.5 10.75 5.5H8.37542L10.4774 12Z" fill="black"/>
</svg>
