<svg width="24" height="24" viewBox="0 0 24 24" fill="none" xmlns="http://www.w3.org/2000/svg">
<path fill-rule="evenodd" clip-rule="evenodd" d="M10.5 5.02251C10.5 6.66694 9.16693 8.00001 7.5225 8.00001L6 8.02247V9.02247H7.25C7.66421 9.02247 8 9.35826 8 9.77247C8 10.1867 7.66421 10.5225 7.25 10.5225H6V11.2725C6 11.6867 5.66421 12.0225 5.25 12.0225C4.83579 12.0225 4.5 11.6867 4.5 11.2725V10.5225H3.75C3.33579 10.5225 3 10.1867 3 9.77247C3 9.35826 3.33579 9.02247 3.75 9.02247H4.5V8.02247H3.75C3.33579 8.02247 3 7.68668 3 7.27247C3 6.85825 3.33579 6.52247 3.75 6.52247H4.5V2.8705C4.5 2.40214 4.87968 2.02246 5.34804 2.02246L7.5225 2C9.16693 2 10.5 3.37807 10.5 5.02251ZM6 3.52246V6.52247L7.5225 6.50001C8.3385 6.50001 9 5.83851 9 5.02251C9 4.2065 8.3385 3.5 7.5225 3.5L6 3.52246ZM18.4435 4.3952C18.7775 4.64015 18.8497 5.1095 18.6048 5.44353L7.60479 20.4435C7.35984 20.7776 6.89049 20.8498 6.55647 20.6048C6.22244 20.3599 6.15023 19.8905 6.39519 19.5565L17.3952 4.55648C17.6401 4.22246 18.1095 4.15025 18.4435 4.3952ZM18 13.25C18.4142 13.25 18.75 13.5858 18.75 14V16.25H21C21.4142 16.25 21.75 16.5858 21.75 17C21.75 17.4142 21.4142 17.75 21 17.75H18.75V20C18.75 20.4142 18.4142 20.75 18 20.75C17.5858 20.75 17.25 20.4142 17.25 20V17.75H15C14.5858 17.75 14.25 17.4142 14.25 17C14.25 16.5858 14.5858 16.25 15 16.25H17.25V14C17.25 13.5858 17.5858 13.25 18 13.25Z" fill="black"/>
</svg>
