<svg width="24" height="24" viewBox="0 0 24 24" fill="none" xmlns="http://www.w3.org/2000/svg">
<path fill-rule="evenodd" clip-rule="evenodd" d="M7.82663 7C6.88924 7 6.07761 7.65107 5.87426 8.56614L4.40571 15.1746C4.19754 16.1114 4.91037 17 5.86999 17H18.1301C19.0898 17 19.8026 16.1114 19.5944 15.1746L18.1259 8.56614C17.9225 7.65106 17.1109 7 16.1735 7H7.82663ZM11.25 10.5L9.00039 10.5L8.46423 12.9127C8.37438 13.317 7.97375 13.572 7.5694 13.4821C7.16505 13.3923 6.9101 12.9917 6.99995 12.5873L7.64922 9.66561C7.73564 9.2767 8.08058 9 8.47898 9L11.25 9.00001C11.6642 9.00001 12 9.33579 12 9.75001C12 10.1642 11.6642 10.5 11.25 10.5Z" fill="black"/>
</svg>
