<svg width="24" height="24" viewBox="0 0 24 24" fill="none" xmlns="http://www.w3.org/2000/svg">
<path fill-rule="evenodd" clip-rule="evenodd" d="M11.9753 11H3.25C2.83579 11 2.5 11.3358 2.5 11.75C2.5 12.1642 2.83579 12.5 3.25 12.5H4.08709C4.54835 15.0588 6.78661 17 9.47826 17H13.7C17.0788 17 19.8364 14.3401 19.993 11H12.25H11.9753ZM19.9004 9.5H11.9753V3.97204C11.9753 3.71134 12.1866 3.5 12.4473 3.5H12.8C16.3676 3.5 19.3292 6.09474 19.9004 9.5ZM7.5 21.5C8.60457 21.5 9.5 20.6046 9.5 19.5C9.5 18.3954 8.60457 17.5 7.5 17.5C6.39543 17.5 5.5 18.3954 5.5 19.5C5.5 20.6046 6.39543 21.5 7.5 21.5ZM16.5 21.5C17.6046 21.5 18.5 20.6046 18.5 19.5C18.5 18.3954 17.6046 17.5 16.5 17.5C15.3954 17.5 14.5 18.3954 14.5 19.5C14.5 20.6046 15.3954 21.5 16.5 21.5Z" fill="black"/>
</svg>
