<svg width="24" height="24" viewBox="0 0 24 24" fill="none" xmlns="http://www.w3.org/2000/svg">
<path fill-rule="evenodd" clip-rule="evenodd" d="M2 8.66205C2.00002 7.92962 2.00006 6.75781 3.58334 6.46485C5.16667 6.17188 10.0486 5.36621 12.2917 5C13.0833 5 14.6667 5.58594 14.6667 7.92971V17.4512C14.6667 19.795 13.0833 20.381 12.2917 20.381C10.0486 20.0147 5.16667 19.2091 3.58334 18.9161C2.00006 18.6231 2.00002 17.4513 2 16.7189V8.66205ZM15.8875 5.44002C16.1442 5.11491 16.6158 5.05943 16.9409 5.31609C17.8422 6.02759 18.131 6.86924 18.131 7.50139V17.8795C18.131 19.0543 17.262 19.8114 16.9409 20.0648C16.6158 20.3215 16.1442 20.266 15.8875 19.9409C15.6309 19.6158 15.6864 19.1442 16.0115 18.8875C16.2936 18.6648 16.631 18.3014 16.631 17.8795V7.50139C16.631 7.33523 16.5579 6.92478 16.0115 6.49342C15.6864 6.23675 15.6309 5.76513 15.8875 5.44002ZM20.5508 6.21378C20.2218 5.96217 19.7511 6.02493 19.4995 6.35396C19.2479 6.68299 19.3106 7.1537 19.6397 7.40532C20.1789 7.81766 20.25 8.22057 20.25 8.3778V17.0032C20.25 17.1956 20.177 17.3809 20.0494 17.5604C19.9201 17.7423 19.7569 17.886 19.6397 17.9757C19.3106 18.2273 19.2479 18.698 19.4995 19.027C19.7511 19.3561 20.2218 19.4188 20.5508 19.1672C20.8752 18.9192 21.75 18.169 21.75 17.0032V8.3778C21.75 7.75091 21.4592 6.90843 20.5508 6.21378Z" fill="black"/>
</svg>
