<svg width="24" height="24" viewBox="0 0 24 24" fill="none" xmlns="http://www.w3.org/2000/svg">
<path fill-rule="evenodd" clip-rule="evenodd" d="M2 20C1.44772 20 1 19.5523 1 19V5C1 4.44771 1.44772 4 2 4H22C22.5523 4 23 4.44771 23 5V19C23 19.5523 22.5523 20 22 20H2ZM10 10.2903L14.3897 16.4359C14.6305 16.773 15.0989 16.851 15.4359 16.6103C15.773 16.3695 15.8511 15.9011 15.6103 15.564L10.6917 8.67797C10.3527 8.20337 9.64732 8.20337 9.30832 8.67797L4.3897 15.564C4.14894 15.9011 4.22701 16.3695 4.56407 16.6103C4.90113 16.851 5.36954 16.773 5.6103 16.4359L10 10.2903ZM14.5589 9.89342C14.8939 9.64979 15.3629 9.72386 15.6065 10.0588L19.6065 15.5588C19.8502 15.8938 19.7761 16.3629 19.4411 16.6065C19.1061 16.8502 18.6371 16.7761 18.3934 16.4411L14.3934 10.9411C14.1498 10.6061 14.2239 10.1371 14.5589 9.89342ZM17.5 8C17.5 7.17157 18.1716 6.5 19 6.5C19.8284 6.5 20.5 7.17157 20.5 8C20.5 8.82843 19.8284 9.5 19 9.5C18.1716 9.5 17.5 8.82843 17.5 8Z" fill="black"/>
</svg>
