<svg width="24" height="24" viewBox="0 0 24 24" fill="none" xmlns="http://www.w3.org/2000/svg">
<path fill-rule="evenodd" clip-rule="evenodd" d="M4 7.8C4 6.80589 4.80589 6 5.8 6H17.2C18.1941 6 19 6.80589 19 7.8V15.2C19 16.1941 18.1941 17 17.2 17H5.8C4.80589 17 4 16.1941 4 15.2V7.8ZM20.75 13.5C21.1642 13.5 21.5 13.8358 21.5 14.25V15.25C21.5 15.6642 21.1642 16 20.75 16C20.3358 16 20 15.6642 20 15.25V14.25C20 13.8358 20.3358 13.5 20.75 13.5ZM21.5 10.25C21.5 9.83579 21.1642 9.5 20.75 9.5C20.3358 9.5 20 9.83579 20 10.25V11.25C20 11.6642 20.3358 12 20.75 12C21.1642 12 21.5 11.6642 21.5 11.25V10.25ZM14.5 18.75C14.5 18.3358 14.8358 18 15.25 18H17.25C17.6642 18 18 18.3358 18 18.75C18 19.1642 17.6642 19.5 17.25 19.5H15.25C14.8358 19.5 14.5 19.1642 14.5 18.75ZM11.25 18C10.8358 18 10.5 18.3358 10.5 18.75C10.5 19.1642 10.8358 19.5 11.25 19.5H12.25C12.6642 19.5 13 19.1642 13 18.75C13 18.3358 12.6642 18 12.25 18H11.25ZM6.5 18.75C6.5 18.3358 6.83579 18 7.25 18H8.25C8.66421 18 9 18.3358 9 18.75C9 19.1642 8.66421 19.5 8.25 19.5H7.25C6.83579 19.5 6.5 19.1642 6.5 18.75ZM21.2397 18.3599C21.4732 18.0178 21.3852 17.5512 21.0431 17.3177C20.701 17.0841 20.2343 17.1722 20.0008 17.5143C19.8956 17.6684 19.7674 17.7723 19.6397 17.8422C19.2764 18.0413 19.1432 18.4971 19.3423 18.8603C19.5413 19.2236 19.9971 19.3568 20.3604 19.1578C20.67 18.9881 20.9858 18.732 21.2397 18.3599Z" fill="black"/>
</svg>
