<svg width="24" height="24" viewBox="0 0 24 24" fill="none" xmlns="http://www.w3.org/2000/svg">
<path fill-rule="evenodd" clip-rule="evenodd" d="M9.65956 14.2203L8.21966 12.7804L3.17069 17.8293C3.10769 17.8923 3.15295 17.9996 3.24203 17.9985C6.97789 17.9501 9.95341 16.7748 9.65956 14.2203ZM10.1213 12.5607L10.2451 12.6226C11.3111 13.1556 12.5916 13.007 13.5073 12.244L19.2964 7.41968C20.2112 6.65734 20.274 5.27404 19.4319 4.432C18.6411 3.64115 17.3589 3.64116 16.568 4.432L9.28032 11.7197L10.1213 12.5607ZM12 17.25C12 16.8358 12.3358 16.5 12.75 16.5H14.75C15.1642 16.5 15.5 16.8358 15.5 17.25C15.5 17.6643 15.1642 18 14.75 18H12.75C12.3358 18 12 17.6643 12 17.25ZM17.75 16.5C17.3358 16.5 17 16.8358 17 17.25C17 17.6643 17.3358 18 17.75 18H19.75C20.1642 18 20.5 17.6643 20.5 17.25C20.5 16.8358 20.1642 16.5 19.75 16.5H17.75Z" fill="black"/>
</svg>
