<svg width="24" height="24" viewBox="0 0 24 24" fill="none" xmlns="http://www.w3.org/2000/svg">
<path fill-rule="evenodd" clip-rule="evenodd" d="M7.39441 2.85743C7.42861 2.37433 7.82779 2 8.30876 2H16.6733C17.1532 2 17.5518 2.37261 17.5875 2.85445L17.9623 7.91836C17.9807 8.07424 17.9924 8.23197 17.9973 8.39124L17.9975 8.39287C17.9999 8.42571 18.0006 8.45849 17.9995 8.49108C17.9998 8.51507 18 8.5391 18 8.56316C18 11.3103 15.8922 13.5815 13.25 13.9483V20H16.25C16.6642 20 17 20.3358 17 20.75C17 21.1642 16.6642 21.5 16.25 21.5H8.75C8.33579 21.5 8 21.1642 8 20.75C8 20.3358 8.33579 20 8.75 20H11.75V13.9483C9.10776 13.5815 7 11.3103 7 8.56316C7 8.5391 7.00016 8.51507 7.00047 8.49107C6.99946 8.45947 7.00007 8.4277 7.00232 8.39586L7.00267 8.39101C7.00723 8.24387 7.01761 8.09804 7.03362 7.95376L7.39441 2.85743ZM10 4C9.44772 4 9 4.44772 9 5C9 5.55228 9.44772 6 10 6H11C11.5523 6 12 5.55228 12 5C12 4.44772 11.5523 4 11 4H10Z" fill="black"/>
</svg>
