<svg width="24" height="24" viewBox="0 0 24 24" fill="none" xmlns="http://www.w3.org/2000/svg">
<path fill-rule="evenodd" clip-rule="evenodd" d="M5.04349 8C5.04349 6.34314 6.38663 5 8.04349 5H15.9565C17.6134 5 18.9565 6.34315 18.9565 8V15.913C18.9565 17.5699 17.6134 18.913 15.9565 18.913H8.04348C6.38663 18.913 5.04349 17.5699 5.04349 15.913V8ZM3.52901 7.21491C3.72632 7.57911 3.59102 8.03431 3.22682 8.23161L2.88092 8.419C2.80025 8.4627 2.75 8.54708 2.75 8.63882V15.2513C2.75 15.346 2.8035 15.4326 2.8882 15.4749L3.20498 15.6333C3.57546 15.8185 3.72563 16.269 3.54039 16.6395C3.35514 17.01 2.90464 17.1602 2.53416 16.9749L2.21738 16.8166C1.6245 16.5201 1.25 15.9142 1.25 15.2513V8.63882C1.25 7.99662 1.60175 7.40601 2.16641 7.10011L2.51231 6.91272C2.87651 6.71541 3.33171 6.85071 3.52901 7.21491ZM20.818 8.32702C20.4414 8.15446 20.2761 7.70932 20.4486 7.33276C20.6212 6.9562 21.0663 6.79082 21.4429 6.96338L21.729 7.09451C22.3511 7.37959 22.75 8.00112 22.75 8.68543V15.2517C22.75 15.9146 22.3755 16.5205 21.7826 16.817L21.4658 16.9754C21.0954 17.1606 20.6449 17.0104 20.4596 16.64C20.2744 16.2695 20.4245 15.819 20.795 15.6337L21.1118 15.4753C21.1965 15.433 21.25 15.3464 21.25 15.2517V8.68543C21.25 8.58767 21.193 8.49888 21.1041 8.45815L20.818 8.32702Z" fill="black"/>
</svg>
