<svg width="24" height="24" viewBox="0 0 24 24" fill="none" xmlns="http://www.w3.org/2000/svg">
<path fill-rule="evenodd" clip-rule="evenodd" d="M9.25 3.5C8.83579 3.5 8.5 3.83579 8.5 4.25C8.5 4.66421 8.83579 5 9.25 5H14.75C15.1642 5 15.5 4.66421 15.5 4.25C15.5 3.83579 15.1642 3.5 14.75 3.5H9.25ZM6 7.68421C6 7.30633 6.32561 7 6.72727 7H17.2727C17.6744 7 18 7.30633 18 7.68421V19.3158C18 19.6937 17.6744 20 17.2727 20H6.72727C6.32561 20 6 19.6937 6 19.3158V7.68421ZM8.5 9C8.91421 9 9.25 9.33579 9.25 9.75C9.25 10.3499 9.45388 11.0509 9.89297 11.5876C10.3129 12.1008 10.9748 12.5 12 12.5C13.0252 12.5 13.6871 12.1008 14.107 11.5876C14.5461 11.0509 14.75 10.3499 14.75 9.75C14.75 9.33579 15.0858 9 15.5 9C15.9142 9 16.25 9.33579 16.25 9.75C16.25 10.6501 15.9539 11.6991 15.268 12.5374C14.5629 13.3992 13.4748 14 12 14C10.5252 14 9.43709 13.3992 8.73203 12.5374C8.04612 11.6991 7.75 10.6501 7.75 9.75C7.75 9.33579 8.08579 9 8.5 9Z" fill="black"/>
</svg>
