<svg width="24" height="24" viewBox="0 0 24 24" fill="none" xmlns="http://www.w3.org/2000/svg">
<path fill-rule="evenodd" clip-rule="evenodd" d="M3 16V6C3 5.44772 3.44772 5 4 5H20C20.5523 5 21 5.44772 21 6V16C21 16.5523 20.5523 17 20 17H4C3.44772 17 3 16.5523 3 16ZM9.5 9.75003C9.5 8.78353 10.2835 8.00003 11.25 8.00003H11.5V7.5C11.5 7.22386 11.7239 7 12 7C12.2761 7 12.5 7.22386 12.5 7.5V8.00003H14C14.2761 8.00003 14.5 8.22389 14.5 8.50003C14.5 8.77617 14.2761 9.00003 14 9.00003H11.25C10.8358 9.00003 10.5 9.33582 10.5 9.75003C10.5 10.1642 10.8358 10.5 11.25 10.5L13.25 10.5C14.2165 10.5 15 11.2835 15 12.25C15 13.2165 14.2165 14 13.25 14L12.5 14V14.5C12.5 14.7761 12.2761 15 12 15C11.7239 15 11.5 14.7761 11.5 14.5V14L10.5 14C10.2239 14.0001 10 13.7762 10 13.5001C10 13.2239 10.2239 13.0001 10.5 13L11.9934 13L12 13L12.0066 13L13.25 13C13.6642 13 14 12.6642 14 12.25C14 11.8358 13.6642 11.5 13.25 11.5L11.25 11.5C10.2835 11.5 9.5 10.7165 9.5 9.75003ZM7 10.25C7 9.83579 6.66421 9.5 6.25 9.5C5.83579 9.5 5.5 9.83579 5.5 10.25V11.75C5.5 12.1642 5.83579 12.5 6.25 12.5C6.66421 12.5 7 12.1642 7 11.75V10.25ZM17.75 9.5C18.1642 9.5 18.5 9.83579 18.5 10.25V11.75C18.5 12.1642 18.1642 12.5 17.75 12.5C17.3358 12.5 17 12.1642 17 11.75V10.25C17 9.83579 17.3358 9.5 17.75 9.5ZM3.75 18.5C3.33579 18.5 3 18.8358 3 19.25C3 19.6642 3.33579 20 3.75 20H20.25C20.6642 20 21 19.6642 21 19.25C21 18.8358 20.6642 18.5 20.25 18.5H3.75Z" fill="black"/>
</svg>
