<svg width="24" height="24" viewBox="0 0 24 24" fill="none" xmlns="http://www.w3.org/2000/svg">
<path fill-rule="evenodd" clip-rule="evenodd" d="M4 3C3.44772 3 3 3.44772 3 4V19.5C3 20.0523 3.44772 20.5 4 20.5H20C20.5523 20.5 21 20.0523 21 19.5V4C21 3.44772 20.5523 3 20 3H4ZM10 14.75V8.5H15.5V12.813C15.3402 12.772 15.1726 12.75 15 12.75C13.8954 12.75 13 13.6455 13 14.75C13 15.8545 13.8954 16.75 15 16.75C16.1046 16.75 17 15.8545 17 14.75V7.8501C17 7.38037 16.6194 7 16.15 7H9.35C8.88056 7 8.5 7.38037 8.5 7.8501V12.813C8.34019 12.772 8.17265 12.75 8 12.75C6.89543 12.75 6 13.6455 6 14.75C6 15.8545 6.89543 16.75 8 16.75C9.10457 16.75 10 15.8545 10 14.75Z" fill="black"/>
</svg>
