<svg width="24" height="24" viewBox="0 0 24 24" fill="none" xmlns="http://www.w3.org/2000/svg">
<path fill-rule="evenodd" clip-rule="evenodd" d="M6 6V13.3089C6 13.7141 6.04906 14.1178 6.1461 14.5112C6.48117 15.8696 7.30846 17.0553 8.46773 17.8386L8.66667 17.973L11.4804 19.684C11.7996 19.8781 12.2004 19.8781 12.5196 19.684L15.3333 17.973L15.5323 17.8386C16.6915 17.0553 17.5188 15.8696 17.8539 14.5112C17.9509 14.1178 18 13.7141 18 13.3089V6C18 5.44772 17.5523 5 17 5H7C6.44772 5 6 5.44772 6 6ZM12.75 8.5H9.5V11.75C9.5 12.1642 9.16421 12.5 8.75 12.5C8.33579 12.5 8 12.1642 8 11.75V7.85C8 7.38056 8.38056 7 8.85 7H12.75C13.1642 7 13.5 7.33579 13.5 7.75C13.5 8.16421 13.1642 8.5 12.75 8.5Z" fill="black"/>
</svg>
