<svg width="24" height="24" viewBox="0 0 24 24" fill="none" xmlns="http://www.w3.org/2000/svg">
<path fill-rule="evenodd" clip-rule="evenodd" d="M4 4V13.4764C4 14.0215 4.06932 14.5643 4.2063 15.0918C4.64635 16.7866 5.68641 18.2642 7.1334 19.2502L7.5 19.5L11.5144 21.7302C11.8164 21.898 12.1836 21.898 12.4856 21.7302L16.5 19.5L16.8666 19.2502C18.3136 18.2642 19.3537 16.7866 19.7937 15.0918C19.9307 14.5643 20 14.0215 20 13.4764V4C20 3.44771 19.5523 3 19 3H5C4.44772 3 4 3.44772 4 4ZM16.0483 9.51174C16.3309 9.20893 16.3146 8.73434 16.0117 8.45171C15.7089 8.16909 15.2343 8.18545 14.9517 8.48826L10.8333 12.9008L9.04829 10.9883C8.76567 10.6855 8.29108 10.6691 7.98826 10.9517C7.68545 11.2343 7.66909 11.7089 7.95171 12.0117L10.2119 14.4334C10.548 14.7935 11.1187 14.7935 11.4547 14.4334L16.0483 9.51174Z" fill="black"/>
</svg>
