<svg width="24" height="24" viewBox="0 0 24 24" fill="none" xmlns="http://www.w3.org/2000/svg">
<path d="M10.9697 12.0303L4.79682 5.85745L3.1098 9.27737C3.04047 9.41763 3.04096 9.5823 3.11078 9.72219L6.18939 15.8795C6.34223 16.1848 6.74896 16.2508 6.99017 16.0094L10.9697 12.0303Z" fill="black"/>
<path d="M6.06537 5.00503C10.6845 3.29861 15.4287 4.0906 17.9433 4.99612L11.9999 10.9394L6.06537 5.00503Z" fill="black"/>
<path d="M19.2031 5.85757L13.0302 12.0305L17.0092 16.0094C17.2504 16.2508 17.6572 16.1848 17.81 15.8795L20.8886 9.72219C20.9584 9.5823 20.9589 9.41763 20.8901 9.27737L19.2031 5.85757Z" fill="black"/>
<path d="M12.9999 14.5V16.5H10.9999V14.5H12.9999Z" fill="black"/>
<path d="M12.9999 20V18H10.9999V20H12.9999Z" fill="black"/>
</svg>
