<svg width="24" height="24" viewBox="0 0 24 24" fill="none" xmlns="http://www.w3.org/2000/svg">
<path fill-rule="evenodd" clip-rule="evenodd" d="M3 7C3 6.17157 3.67157 5.5 4.5 5.5H19.5C20.3284 5.5 21 6.17157 21 7V17C21 17.8284 20.3284 18.5 19.5 18.5H4.5C3.67157 18.5 3 17.8284 3 17V7ZM5 8.25C5 7.83579 5.33579 7.5 5.75 7.5H18.25C18.6642 7.5 19 7.83579 19 8.25C19 8.66421 18.6642 9 18.25 9H5.75C5.33579 9 5 8.66421 5 8.25ZM5.75 11C5.33579 11 5 11.3358 5 11.75C5 12.1642 5.33579 12.5 5.75 12.5H9.57006C10.7324 14.1857 13.2676 14.1857 14.4299 12.5H18.25C18.6642 12.5 19 12.1642 19 11.75C19 11.3358 18.6642 11 18.25 11H14.0456C13.7336 11 13.4483 11.1763 13.3088 11.4554C12.7695 12.5339 11.2305 12.5339 10.6912 11.4554C10.5517 11.1763 10.2664 11 9.9544 11H5.75Z" fill="black"/>
</svg>
