<svg width="24" height="24" viewBox="0 0 24 24" fill="none" xmlns="http://www.w3.org/2000/svg">
<path fill-rule="evenodd" clip-rule="evenodd" d="M4.25 3C4.25 2.58579 4.58579 2.25 5 2.25H19C19.4142 2.25 19.75 2.58579 19.75 3C19.75 3.41421 19.4142 3.75 19 3.75H18V9.25H6V3.75H5C4.58579 3.75 4.25 3.41421 4.25 3ZM6 10.75H18V20.25H19C19.4142 20.25 19.75 20.5858 19.75 21C19.75 21.4142 19.4142 21.75 19 21.75H5C4.58579 21.75 4.25 21.4142 4.25 21C4.25 20.5858 4.58579 20.25 5 20.25H6V10.75ZM12 19C13.5 19 14.5 17.9287 14.5 16.5C14.5 15.4182 13.6401 14.2548 12.7884 13.1024C12.6679 12.9394 12.5476 12.7766 12.4299 12.6144C12.2205 12.3255 11.7795 12.3255 11.5701 12.6143C11.4524 12.7766 11.3321 12.9394 11.2116 13.1024C10.3599 14.2548 9.5 15.4182 9.5 16.5C9.5 17.9287 10.5 19 12 19Z" fill="black"/>
</svg>
