<svg width="24" height="24" viewBox="0 0 24 24" fill="none" xmlns="http://www.w3.org/2000/svg">
<path fill-rule="evenodd" clip-rule="evenodd" d="M6 4.5C6 3.67157 6.67163 3 7.5 3H16.5C17.3284 3 18 3.67157 18 4.5V7.05002C17.8385 7.01721 17.6713 7 17.5 7C16.1193 7 15 8.11929 15 9.5C13.6193 9.5 12.5 10.6193 12.5 12C12.5 13.3807 13.6193 14.5 15 14.5C15 15.8807 16.1193 17 17.5 17C17.5326 17 17.5649 16.9994 17.5972 16.9981C17.6276 16.997 17.6577 16.9953 17.6877 16.993C17.7195 16.9907 17.7511 16.9877 17.7826 16.9842C17.8561 16.9759 17.9286 16.9645 18 16.95V19.5C18 20.3284 17.3284 21 16.5 21H7.5C6.67163 21 6 20.3284 6 19.5V4.5ZM13 18C13 18.5523 12.5522 19 12 19C11.4478 19 11 18.5523 11 18C11 17.4477 11.4478 17 12 17C12.5522 17 13 17.4477 13 18ZM14.5 4.75C14.5 4.33578 14.1642 4 13.75 4H10.25C9.83582 4 9.5 4.33578 9.5 4.75C9.5 5.16422 9.83582 5.5 10.25 5.5H13.75C14.1642 5.5 14.5 5.16422 14.5 4.75Z" fill="black"/>
<path d="M18 15.3662C17.8529 15.4513 17.6821 15.5 17.5 15.5C16.9478 15.5 16.5 15.0523 16.5 14.5V13H15C14.4478 13 14 12.5523 14 12C14 11.4477 14.4478 11 15 11H16.5V9.5C16.5 8.94772 16.9478 8.5 17.5 8.5C17.6821 8.5 17.8529 8.54871 18 8.63379C18.299 8.8067 18.5 9.12988 18.5 9.5V11H20C20.5522 11 21 11.4477 21 12C21 12.5523 20.5522 13 20 13H18.5V14.5C18.5 14.8701 18.299 15.1933 18 15.3662Z" fill="black"/>
</svg>
