<svg width="24" height="24" viewBox="0 0 24 24" fill="none" xmlns="http://www.w3.org/2000/svg">
<path fill-rule="evenodd" clip-rule="evenodd" d="M16.4802 2.75977C16.4802 2.34555 16.816 2.00977 17.2302 2.00977C19.8136 2.00977 22.4802 4.22943 22.4802 7.25975C22.4802 7.67396 22.1444 8.00975 21.7302 8.00975C21.316 8.00975 20.9802 7.67396 20.9802 7.25975C20.9802 5.13554 19.065 3.50977 17.2302 3.50977C16.816 3.50977 16.4802 3.17398 16.4802 2.75977ZM16.4181 8.24981C15.525 7.95725 14.8749 7.06058 14.8749 5.99981L5.45 5.99976C4.64919 5.99976 4 6.70139 4 7.5669V15.4026C4 16.2681 4.64919 16.9698 5.45 16.9698H17.05C17.8508 16.9698 18.5 16.2681 18.5 15.4026L18.4999 9.91767C17.5185 9.91767 16.6888 9.21505 16.4181 8.24981ZM3 19.0099C2.58579 19.0099 2.25 19.3457 2.25 19.7599C2.25 20.1741 2.58579 20.5099 3 20.5099H19.6827C20.097 20.5099 20.4327 20.1741 20.4327 19.7599C20.4327 19.3457 20.097 19.0099 19.6827 19.0099H3ZM17.23 5.15979C16.8158 5.15979 16.48 5.49558 16.48 5.90979C16.48 6.324 16.8158 6.65979 17.23 6.65979C17.443 6.65979 17.5879 6.72634 17.6718 6.804C17.7464 6.87302 17.83 7.00212 17.83 7.25978C17.83 7.674 18.1658 8.00978 18.58 8.00978C18.9942 8.00978 19.33 7.674 19.33 7.25978C19.33 6.63382 19.1067 6.08792 18.6904 5.70285C18.2834 5.32642 17.7533 5.15979 17.23 5.15979Z" fill="black"/>
</svg>
