<svg width="24" height="24" viewBox="0 0 24 24" fill="none" xmlns="http://www.w3.org/2000/svg">
<path fill-rule="evenodd" clip-rule="evenodd" d="M12.5 2C11.1193 2 10 3.11929 10 4.5V12.3823C8.3621 13.2709 7.25 15.0056 7.25 17C7.25 19.8995 9.60051 22.25 12.5 22.25C15.3995 22.25 17.75 19.8995 17.75 17C17.75 15.0056 16.6379 13.2709 15 12.3823V11.2434C15.0327 11.2477 15.0662 11.25 15.1001 11.25H16.5001C16.9143 11.25 17.2501 10.9142 17.2501 10.5C17.2501 10.0858 16.9143 9.75 16.5001 9.75H15.1001C15.0662 9.75 15.0327 9.75225 15 9.75662V8.74338C15.0327 8.74775 15.0662 8.75 15.1001 8.75H16.5001C16.9143 8.75 17.2501 8.41421 17.2501 8C17.2501 7.58579 16.9143 7.25 16.5001 7.25H15.1001C15.0662 7.25 15.0327 7.25225 15 7.25662V6.25H16.5C16.9142 6.25 17.25 5.91421 17.25 5.5C17.25 5.08579 16.9142 4.75 16.5 4.75H15V4.5C15 3.11929 13.8807 2 12.5 2ZM10.25 17C10.25 16.5858 9.91421 16.25 9.5 16.25C9.08579 16.25 8.75 16.5858 8.75 17C8.75 17.9939 9.23941 18.9251 9.90717 19.5928C10.5749 20.2606 11.5061 20.75 12.5 20.75C12.9142 20.75 13.25 20.4142 13.25 20C13.25 19.5858 12.9142 19.25 12.5 19.25C11.9939 19.25 11.4251 18.9894 10.9678 18.5322C10.5106 18.0749 10.25 17.5061 10.25 17Z" fill="black"/>
</svg>
