<svg width="24" height="24" viewBox="0 0 24 24" fill="none" xmlns="http://www.w3.org/2000/svg">
<path fill-rule="evenodd" clip-rule="evenodd" d="M12.1711 11.0857C12.1926 11.1229 12.2192 11.158 12.251 11.1898L16.9123 15.8511C17.1076 16.0463 17.4242 16.0463 17.6194 15.8511L20.4883 12.9822C21.9708 11.4998 21.9708 9.09623 20.4883 7.61379C19.0059 6.13134 16.6023 6.13134 15.1199 7.61379L12.251 10.4827C12.2192 10.5144 12.1926 10.5495 12.1712 10.5866C12.1497 10.5494 12.1231 10.5144 12.0913 10.4826L9.22443 7.61573C7.74164 6.13294 5.33756 6.13294 3.85477 7.61573C2.37198 9.09852 2.37198 11.5026 3.85477 12.9854L6.72164 15.8523C6.9169 16.0475 7.23349 16.0475 7.42875 15.8523L12.0913 11.1897C12.1231 11.1579 12.1497 11.1229 12.1711 11.0857ZM13.0193 15.8494C13.0193 16.3183 12.6391 16.6985 12.1701 16.6985C11.7012 16.6985 11.321 16.3183 11.321 15.8494C11.321 15.3804 11.7012 15.0003 12.1701 15.0003C12.6391 15.0003 13.0193 15.3804 13.0193 15.8494ZM10.0474 18.3967C10.5163 18.3967 10.8965 18.0166 10.8965 17.5476C10.8965 17.0787 10.5163 16.6985 10.0474 16.6985C9.57842 16.6985 9.19826 17.0787 9.19826 17.5476C9.19826 18.0166 9.57842 18.3967 10.0474 18.3967ZM13.0193 19.3494C13.0193 19.8183 12.6391 20.1985 12.1701 20.1985C11.7012 20.1985 11.321 19.8183 11.321 19.3494C11.321 18.8804 11.7012 18.5003 12.1701 18.5003C12.6391 18.5003 13.0193 18.8804 13.0193 19.3494ZM14.2929 18.3967C14.7619 18.3967 15.1421 18.0166 15.1421 17.5476C15.1421 17.0787 14.7619 16.6985 14.2929 16.6985C13.824 16.6985 13.4438 17.0787 13.4438 17.5476C13.4438 18.0166 13.824 18.3967 14.2929 18.3967Z" fill="black"/>
</svg>
