<svg width="24" height="24" viewBox="0 0 24 24" fill="none" xmlns="http://www.w3.org/2000/svg">
<path fill-rule="evenodd" clip-rule="evenodd" d="M9.5152 4.78855C9.00605 4.35214 8.23831 4.41656 7.80901 4.93172C7.38807 5.43685 7.45097 6.18645 7.95021 6.61437L9.56678 8H14.4336L16.0502 6.61437C16.5494 6.18645 16.6123 5.43685 16.1914 4.93172C15.7621 4.41656 14.9944 4.35214 14.4852 4.78855L12.5465 6.45031C12.2321 6.71976 11.7683 6.71976 11.4539 6.45031L9.5152 4.78855ZM6.97402 7.75325L7.26189 8H5C4.44772 8 4 8.44772 4 9V10C4 10.5523 4.44772 11 5 11L8.75 11C9.16422 11 9.5 11.3358 9.5 11.75C9.5 12.1642 9.16422 12.5 8.75 12.5H5V19C5 19.5523 5.44772 20 6 20H11.25V10.25C11.25 9.83579 11.5858 9.5 12 9.5C12.4142 9.5 12.75 9.83579 12.75 10.25V11L19 11C19.5523 11 20 10.5523 20 10V9C20 8.44772 19.5523 8 19 8H16.7385L17.0264 7.75325C18.1485 6.79149 18.2898 5.10675 17.3437 3.97144C16.3789 2.81361 14.6533 2.66882 13.509 3.64966L12.0002 4.94294L10.4914 3.64966C9.34707 2.66882 7.62154 2.81361 6.65668 3.97144C5.71059 5.10675 5.85196 6.79149 6.97402 7.75325ZM19 12.5H12.75V20H18C18.5523 20 19 19.5523 19 19V12.5Z" fill="black"/>
</svg>
