<svg width="24" height="24" viewBox="0 0 24 24" fill="none" xmlns="http://www.w3.org/2000/svg">
<path d="M13.1981 4.09481C12.9743 4.31857 12.9743 4.68134 13.1981 4.9051L17.4092 9.11622C17.6435 9.35054 18.0234 9.35054 18.2577 9.11622L19.1997 8.17429C19.434 7.93998 19.434 7.56008 19.1997 7.32576L15.9687 4.09481C15.2036 3.32972 13.9632 3.32972 13.1981 4.09481Z" fill="black"/>
<path d="M2.68695 8.9842C2.35501 9.31614 2.355 9.85433 2.68695 10.1863L4.69188 12.1912C5.02383 12.5232 5.56202 12.5232 5.89397 12.1912L11.1954 6.88977L15.2261 10.9205C15.519 11.2133 15.9939 11.2133 16.2868 10.9205C16.5796 10.6276 16.5796 10.1527 16.2868 9.85979L10.9936 4.56664C9.91966 3.4927 8.17845 3.49269 7.10451 4.56664L2.68695 8.9842Z" fill="black"/>
<path d="M21.3136 15.0156C21.6455 14.6837 21.6456 14.1455 21.3136 13.8135L19.3087 11.8086C18.9767 11.4767 18.4385 11.4767 18.1066 11.8086L12.8051 17.1101L8.77446 13.0794C8.48157 12.7865 8.00669 12.7865 7.7138 13.0794C7.42091 13.3723 7.42091 13.8471 7.7138 14.14L13.007 19.4332C14.0809 20.5071 15.8221 20.5071 16.896 19.4332L21.3136 15.0156Z" fill="black"/>
<path d="M11.3021 20.4051C11.5259 20.1813 11.5259 19.8186 11.3021 19.5948L7.09098 15.3837C6.85666 15.1494 6.47676 15.1494 6.24245 15.3837L5.30051 16.3256C5.0662 16.5599 5.0662 16.9398 5.30051 17.1742L8.53146 20.4051C9.29655 21.1702 10.537 21.1702 11.3021 20.4051Z" fill="black"/>
</svg>
