<svg width="24" height="24" viewBox="0 0 24 24" fill="none" xmlns="http://www.w3.org/2000/svg">
<path fill-rule="evenodd" clip-rule="evenodd" d="M18.972 3H5C4.44772 3 4 3.44772 4 4V13.4764C4 14.0215 4.06932 14.5643 4.2063 15.0918C4.43552 15.9746 4.82754 16.7985 5.35508 17.5247L18.972 3ZM6.36188 18.6439C6.60382 18.8622 6.86142 19.0649 7.1334 19.2502L7.5 19.5L11.5144 21.7302C11.8164 21.898 12.1836 21.898 12.4856 21.7302L16.5 19.5L16.8666 19.2502C18.3136 18.2642 19.3537 16.7866 19.7937 15.0918C19.9307 14.5643 20 14.0215 20 13.4764V4.09659L6.36188 18.6439Z" fill="black"/>
</svg>
