<svg width="24" height="24" viewBox="0 0 24 24" fill="none" xmlns="http://www.w3.org/2000/svg">
<path fill-rule="evenodd" clip-rule="evenodd" d="M10.3923 3.96116C10.1893 2.94659 10.9654 2 12 2C13.0347 2 13.8107 2.94659 13.6078 3.96116L13.1961 6.01942C13.0821 6.58958 12.5815 7 12 7C11.4186 7 10.9179 6.58959 10.8039 6.01942L10.3923 3.96116ZM4.49846 12.8778C6.47192 12.1276 8.24178 10.9248 9.66567 9.36601C9.87866 9.13283 10.1799 9 10.4957 9H13.5043C13.8201 9 14.1213 9.13283 14.3343 9.36601C15.7582 10.9248 17.5281 12.1276 19.5015 12.8778L20.0827 13.0987C20.6349 13.3086 21 13.8379 21 14.4287V14.4508C21 15.072 20.5887 15.6183 19.9916 15.79C17.1964 16.5938 14.7438 18.2958 13.0126 20.633L12.8587 20.8408C12.4315 21.4175 11.5685 21.4175 11.1413 20.8408L10.9874 20.633C9.25625 18.2958 6.80357 16.5938 4.00837 15.79C3.41129 15.6183 3 15.072 3 14.4508V14.4287C3 13.8379 3.36506 13.3086 3.91728 13.0987L4.49846 12.8778ZM13.25 13.5C12.8358 13.5 12.5 13.8358 12.5 14.25C12.5 14.6642 12.8358 15 13.25 15H15.75C16.1642 15 16.5 14.6642 16.5 14.25C16.5 13.8358 16.1642 13.5 15.75 13.5H13.25Z" fill="black"/>
</svg>
