<svg width="24" height="24" viewBox="0 0 24 24" fill="none" xmlns="http://www.w3.org/2000/svg">
<path fill-rule="evenodd" clip-rule="evenodd" d="M8.68198 4.27257C9.08383 4.37303 9.32815 4.78023 9.22768 5.18208L8.33415 9H15.6662L14.7725 5.18208C14.672 4.78023 14.9163 4.37303 15.3182 4.27257C15.72 4.17211 16.1272 4.41643 16.2277 4.81828L17.2066 9H19.1699C19.6038 9 19.9331 9.39064 19.8598 9.81827L18.4283 18.169C18.346 18.649 17.9297 19 17.4427 19H6.55754C6.07045 19 5.65422 18.649 5.57192 18.169L4.14037 9.81828C4.06706 9.39064 4.39644 9 4.83031 9H6.79379L7.77247 4.81828C7.87293 4.41643 8.28013 4.17211 8.68198 4.27257ZM7.5 12.75C7.5 12.3358 7.83579 12 8.25 12H15.75C16.1642 12 16.5 12.3358 16.5 12.75C16.5 13.1642 16.1642 13.5 15.75 13.5H8.25C7.83579 13.5 7.5 13.1642 7.5 12.75ZM7.5 15.75C7.5 15.3358 7.83579 15 8.25 15H15.75C16.1642 15 16.5 15.3358 16.5 15.75C16.5 16.1642 16.1642 16.5 15.75 16.5H8.25C7.83579 16.5 7.5 16.1642 7.5 15.75Z" fill="black"/>
</svg>
