<svg width="24" height="24" viewBox="0 0 24 24" fill="none" xmlns="http://www.w3.org/2000/svg">
<path fill-rule="evenodd" clip-rule="evenodd" d="M15.721 4.4569C16.021 4.17123 16.4957 4.18281 16.7814 4.48276L18.6192 6.4125L20.4571 4.48276C20.7427 4.18281 21.2175 4.17123 21.5174 4.4569C21.8174 4.74256 21.829 5.2173 21.5433 5.51724L19.6549 7.5L21.5433 9.48276C21.829 9.78271 21.8174 10.2574 21.5174 10.5431C21.2175 10.8288 20.7427 10.8172 20.4571 10.5172L18.6192 8.5875L16.7814 10.5172C16.4957 10.8172 16.021 10.8288 15.721 10.5431C15.4211 10.2574 15.4095 9.78271 15.6952 9.48276L17.5835 7.5L15.6952 5.51724C15.4095 5.2173 15.4211 4.74256 15.721 4.4569ZM9.62041 5C7.92213 5 6.54541 6.37672 6.54541 8.075V8.95357C6.54541 10.6518 7.92213 12.0286 9.62041 12.0286C11.3187 12.0286 12.6954 10.6519 12.6954 8.95358V8.075C12.6954 6.37672 11.3187 5 9.62041 5ZM7 14C4.23858 14 2 16.2386 2 19C2 20.1046 2.89543 21 4 21H15C16.1046 21 17 20.1046 17 19C17 16.2386 14.7614 14 12 14H7Z" fill="black"/>
</svg>
