<svg width="24" height="24" viewBox="0 0 24 24" fill="none" xmlns="http://www.w3.org/2000/svg">
<path fill-rule="evenodd" clip-rule="evenodd" d="M12.2574 7.24245C11.8669 7.63297 11.8669 8.26614 12.2574 8.65666L15.7929 12.1922C16.1834 12.5827 16.8166 12.5827 17.2071 12.1922L20.7426 8.65666C21.1331 8.26614 21.1331 7.63297 20.7426 7.24245L17.2071 3.70696C16.8166 3.31643 16.1834 3.31643 15.7929 3.70696L12.2574 7.24245ZM5 4.39926C4.44772 4.39926 4 4.84698 4 5.39926V10.3993C4 10.9515 4.44772 11.3993 5 11.3993H10C10.5523 11.3993 11 10.9515 11 10.3993V5.39926C11 4.84698 10.5523 4.39926 10 4.39926H5ZM4 14.3993C4 13.847 4.44772 13.3993 5 13.3993H10C10.5523 13.3993 11 13.847 11 14.3993V19.3993C11 19.9515 10.5523 20.3993 10 20.3993H5C4.44772 20.3993 4 19.9515 4 19.3993V14.3993ZM14 13.3993C13.4477 13.3993 13 13.847 13 14.3993V19.3993C13 19.9515 13.4477 20.3993 14 20.3993H19C19.5523 20.3993 20 19.9515 20 19.3993V14.3993C20 13.847 19.5523 13.3993 19 13.3993H14Z" fill="black"/>
</svg>
