<svg width="24" height="24" viewBox="0 0 24 24" fill="none" xmlns="http://www.w3.org/2000/svg">
<path d="M9 3.5C9 3.22388 9.22388 3 9.5 3H10.5C10.6372 3 10.7612 3.05518 10.8516 3.14453C10.9431 3.23523 11 3.36096 11 3.5V12.5C11 12.7761 10.7761 13 10.5 13H9.5C9.22388 13 9 12.7761 9 12.5V3.5Z" fill="black"/>
<path d="M3.5 6C3.22388 6 3 6.22388 3 6.5V12.5C3 12.7761 3.22388 13 3.5 13H4.5C4.77612 13 5 12.7761 5 12.5V6.5C5 6.22388 4.77612 6 4.5 6H3.5Z" fill="black"/>
<path d="M19.9229 18.7666C19.9717 18.6895 20 18.598 20 18.5V13.5C20 13.2239 19.7761 13 19.5 13H18.5C18.2239 13 18 13.2239 18 13.5V18.5C18 18.7761 18.2239 19 18.5 19H19.5C19.5374 19 19.5737 18.9958 19.6086 18.9882C19.6694 18.9746 19.7263 18.95 19.7766 18.9165C19.8352 18.8774 19.885 18.8263 19.9229 18.7666Z" fill="black"/>
<path d="M16.5 22C16.7761 22 17 21.7761 17 21.5V13.5C17 13.2239 16.7761 13 16.5 13H15.5C15.2239 13 15 13.2239 15 13.5V21.5C15 21.7761 15.2239 22 15.5 22H16.5Z" fill="black"/>
<path d="M6.19775 8.10168C6.28174 8.03784 6.38647 8 6.5 8H7.5C7.77612 8 8 8.22388 8 8.5V12.5C8 12.7761 7.77612 13 7.5 13H6.5C6.22388 13 6 12.7761 6 12.5V8.5C6 8.3374 6.07764 8.19299 6.19775 8.10168Z" fill="black"/>
<path d="M13.5 17C13.7761 17 14 16.7761 14 16.5V13.5C14 13.2239 13.7761 13 13.5 13H12.5C12.2239 13 12 13.2239 12 13.5V16.5C12 16.7761 12.2239 17 12.5 17H13.5Z" fill="black"/>
</svg>
