<svg width="24" height="24" viewBox="0 0 24 24" fill="none" xmlns="http://www.w3.org/2000/svg">
<path fill-rule="evenodd" clip-rule="evenodd" d="M19.5 11.5833C19.5 13.5565 18.7547 15.3536 17.5332 16.7026C17.3563 16.898 17.101 17 16.8374 17H7.1626C6.89898 17 6.6437 16.898 6.46676 16.7026C5.24529 15.3536 4.5 13.5565 4.5 11.5833C4.5 7.39517 7.85786 4 12 4C16.1421 4 19.5 7.39517 19.5 11.5833ZM4.5 19.25C4.5 18.8358 4.83579 18.5 5.25 18.5H18.75C19.1642 18.5 19.5 18.8358 19.5 19.25C19.5 19.6642 19.1642 20 18.75 20H5.25C4.83579 20 4.5 19.6642 4.5 19.25ZM13 6C12.5858 6 12.25 6.33579 12.25 6.75C12.25 7.16421 12.5858 7.5 13 7.5C13.5244 7.5 14.2266 7.77644 14.808 8.30496C15.3793 8.82434 15.75 9.51011 15.75 10.25C15.75 10.6642 16.0858 11 16.5 11C16.9142 11 17.25 10.6642 17.25 10.25C17.25 8.98989 16.6207 7.92566 15.817 7.19504C15.0234 6.47356 13.9756 6 13 6Z" fill="black"/>
</svg>
