<svg width="24" height="24" viewBox="0 0 24 24" fill="none" xmlns="http://www.w3.org/2000/svg">
<path d="M10.4357 5.38916C10.8491 5.75 11.1339 6.32096 11.2712 6.85221C11.3109 7.00573 11.3716 7.14962 11.4533 7.27369C11.7711 7.75621 12.2864 7.75621 12.6042 7.27369C12.6858 7.14975 12.7465 7.00602 12.7862 6.85268C12.9237 6.3214 13.2087 5.75041 13.6223 5.38964C14.1417 4.93648 14.4706 4.26563 14.4706 3.51703C14.4706 2.15226 13.3776 1.0459 12.0293 1.0459C10.6809 1.0459 9.58789 2.15226 9.58789 3.51703C9.58789 4.26536 9.91652 4.93601 10.4357 5.38916Z" fill="black"/>
<path d="M14.6142 6.86361C14.5354 7.40745 14.1867 7.9387 13.7786 8.30669C13.6239 8.44618 13.4958 8.60818 13.4102 8.78335C13.1286 9.35972 13.4143 9.8605 14.0482 9.90188C14.2359 9.91414 14.4332 9.88472 14.6252 9.82226C15.154 9.65017 15.7987 9.61287 16.3168 9.8152C17.0539 10.1031 17.9086 10.0634 18.6461 9.63233C19.9408 8.87575 20.3844 7.2001 19.6369 5.88966C18.8894 4.57922 17.234 4.13023 15.9393 4.88681C15.1936 5.32262 14.7302 6.06337 14.6142 6.86361Z" fill="black"/>
<path d="M10.2214 8.3067C9.81331 7.9387 9.46461 7.40745 9.38577 6.86361C9.26977 6.06337 8.80641 5.32262 8.06067 4.88681C6.76602 4.13023 5.11056 4.57922 4.3631 5.88966C3.61563 7.2001 4.05921 8.87575 5.35386 9.63233C6.09142 10.0634 6.94608 10.1031 7.68324 9.8152C8.20132 9.61287 8.84596 9.65017 9.37485 9.82226C9.56681 9.88472 9.76406 9.91414 9.95181 9.90188C10.5857 9.8605 10.8714 9.35972 10.5898 8.78335C10.5042 8.60818 10.3761 8.44618 10.2214 8.3067Z" fill="black"/>
<path d="M15.7772 19.3251C17.233 18.4011 18.5 17.5969 18.5 15.4999C18.5 12.5384 15.8882 10.7304 12.9665 11.6268C12.3646 11.8115 11.7146 11.8115 11.1126 11.6274C8.17777 10.7297 5.5 12.5378 5.5 15.4999C5.5 17.594 6.78606 18.3988 8.2605 19.3214C9.36548 20.0129 10.5763 20.7706 11.4308 22.1868C11.6763 22.5935 12.403 22.5936 12.6476 22.1863C13.4963 20.7728 14.6894 20.0155 15.7772 19.3251Z" fill="black"/>
</svg>
