<svg width="24" height="24" viewBox="0 0 24 24" fill="none" xmlns="http://www.w3.org/2000/svg">
<path fill-rule="evenodd" clip-rule="evenodd" d="M5 6C3.89543 6 3 6.89543 3 8V17C3 18.1046 3.89543 19 5 19H19C20.1046 19 21 18.1046 21 17V8C21 6.89543 20.1046 6 19 6H5ZM11.2938 15.2953L8.50707 12.5151C7.68439 11.6943 7.70888 10.3542 8.561 9.56402C9.51623 8.67826 11.0448 8.8979 11.712 10.0168L12.0001 10.5L12.2882 10.0168C12.9554 8.89792 14.484 8.6783 15.4392 9.56409C16.2912 10.3542 16.3157 11.6942 15.4931 12.515L12.7064 15.2953C12.3161 15.6847 11.6841 15.6848 11.2938 15.2953Z" fill="black"/>
</svg>
