<svg width="24" height="24" viewBox="0 0 24 24" fill="none" xmlns="http://www.w3.org/2000/svg">
<path fill-rule="evenodd" clip-rule="evenodd" d="M6.75 13.5C6.33579 13.5 6 13.8358 6 14.25C6 14.6642 6.33579 15 6.75 15H8.75C9.16421 15 9.5 14.6642 9.5 14.25C9.5 13.8358 9.16421 13.5 8.75 13.5H6.75ZM15.25 13.5C14.8358 13.5 14.5 13.8358 14.5 14.25C14.5 14.6642 14.8358 15 15.25 15H17.25C17.6642 15 18 14.6642 18 14.25C18 13.8358 17.6642 13.5 17.25 13.5H15.25ZM8.05829 6.69577C8.0837 6.58138 8.18516 6.5 8.30233 6.5H15.698C15.8152 6.5 15.9166 6.58138 15.942 6.69577L16.6763 10L7.32401 10L8.05829 6.69577ZM5.78729 10.0006L6.59401 6.37037C6.77194 5.56968 7.48211 5 8.30233 5H15.698C16.5182 5 17.2284 5.56968 17.4063 6.37037L18.213 10.0006C19.2043 10.0244 20 10.7789 20 11.7063V15.2938C20 16.1296 19.3535 16.8251 18.5 16.9716V17.5C18.5 18.0523 18.0523 18.5 17.5 18.5C16.9477 18.5 16.5 18.0523 16.5 17.5V17L7.5 17V17.5C7.5 18.0523 7.05228 18.5 6.5 18.5C5.94772 18.5 5.5 18.0523 5.5 17.5V16.9716C4.64651 16.8251 4 16.1296 4 15.2937V11.7062C4 10.7788 4.79587 10.0242 5.78729 10.0006ZM3.25 7.5C2.83579 7.5 2.5 7.83579 2.5 8.25C2.5 8.66421 2.83579 9 3.25 9H4.25C4.66421 9 5 8.66421 5 8.25C5 7.83579 4.66421 7.5 4.25 7.5H3.25ZM19 8.25C19 7.83579 19.3358 7.5 19.75 7.5H20.75C21.1642 7.5 21.5 7.83579 21.5 8.25C21.5 8.66421 21.1642 9 20.75 9H19.75C19.3358 9 19 8.66421 19 8.25Z" fill="black"/>
</svg>
