<svg width="24" height="24" viewBox="0 0 24 24" fill="none" xmlns="http://www.w3.org/2000/svg">
<path fill-rule="evenodd" clip-rule="evenodd" d="M7.45459 2.5C8.28302 2.5 8.95459 3.17157 8.95459 4V5H15.0454V4C15.0454 3.17157 15.717 2.5 16.5454 2.5C17.3738 2.5 18.0454 3.17157 18.0454 4V5H20C20.5523 5 21 5.44772 21 6V8.70459H3V6C3 5.44772 3.44772 5 4 5H5.95459V4C5.95459 3.17157 6.62616 2.5 7.45459 2.5ZM3 10.2046H21V20C21 20.5523 20.5523 21 20 21H4C3.44772 21 3 20.5523 3 20V10.2046ZM16.9816 13.5336C17.2763 13.2425 17.2793 12.7677 16.9882 12.473C16.6971 12.1783 16.2223 12.1753 15.9276 12.4664L12.3589 15.991L10.2508 14.256C9.9145 13.9792 9.42332 14.0014 9.11339 14.3075L6.92756 16.4664C6.63286 16.7575 6.62991 17.2323 6.92098 17.527C7.21204 17.8217 7.68691 17.8247 7.98162 17.5336L9.7503 15.7868L11.8583 17.5218C12.1947 17.7986 12.6859 17.7763 12.9958 17.4702L16.9816 13.5336Z" fill="black"/>
</svg>
