<svg width="24" height="24" viewBox="0 0 24 24" fill="none" xmlns="http://www.w3.org/2000/svg">
<path fill-rule="evenodd" clip-rule="evenodd" d="M8.5 11.4392V20C8.5 20.5522 8.94772 21 9.5 21H17.0463C17.9821 21 18.7927 20.3511 18.9977 19.4381L20.3055 13.6133C20.5862 12.3631 19.6354 11.1751 18.3541 11.1751H15.5588L15.9007 10.3965L15.9204 10.3517C16.8654 8.19957 18.3842 4.74091 16.1592 4.04793C15.7918 3.9335 15.4443 4.21528 15.2422 4.54271L14.351 5.98608C13.6875 7.0607 12.9628 8.11936 11.9829 8.91611C11.3058 9.46658 10.4691 9.97515 9.16771 10.4827C8.77129 10.6373 8.5 11.0137 8.5 11.4392ZM7 9.99995C7 9.44767 6.55228 8.99995 6 8.99995C5.44772 8.99995 5 9.44767 5 9.99995V20.5882C5 21.1405 5.44772 21.5882 6 21.5882C6.55228 21.5882 7 21.1405 7 20.5882V9.99995Z" fill="black"/>
</svg>
