<svg width="24" height="24" viewBox="0 0 24 24" fill="none" xmlns="http://www.w3.org/2000/svg">
<path fill-rule="evenodd" clip-rule="evenodd" d="M15 3H4C3.44772 3 3 3.44772 3 4V19.5C3 20.0523 3.44772 20.5 4 20.5H20C20.5523 20.5 21 20.0523 21 19.5V9H15.85C15.3806 9 15 8.61944 15 8.15V3ZM20.991 7.5C20.9861 7.4892 20.9793 7.47926 20.9707 7.47071L16.5293 3.02929C16.5207 3.02074 16.5108 3.0139 16.5 3.00898V7.5H20.991ZM5.91505 12.5355C5.79312 12.5402 5.65477 12.5449 5.5 12.5496V17.4999H6.65371V16.2304C6.7475 16.2399 6.83192 16.247 6.90696 16.2517H7.16021C7.9528 16.2517 8.53199 16.0957 8.8978 15.7836C9.26361 15.4669 9.44651 14.9751 9.44651 14.3085C9.44651 13.9822 9.40665 13.7057 9.32692 13.4787C9.2472 13.247 9.11588 13.0603 8.93298 12.9184C8.75476 12.7719 8.52027 12.6655 8.2295 12.5993C7.94342 12.5331 7.59168 12.5 7.17428 12.5C6.99137 12.5 6.82957 12.5024 6.68888 12.5071C6.55287 12.5071 6.42156 12.5095 6.29493 12.5142C6.1683 12.5189 6.04168 12.526 5.91505 12.5355ZM6.90696 15.2872C6.83661 15.2825 6.75219 15.2754 6.65371 15.2659V13.4858C6.7475 13.4763 6.83192 13.4716 6.90696 13.4716C6.982 13.4669 7.06641 13.4645 7.16021 13.4645C7.37594 13.4645 7.55416 13.4834 7.69485 13.5213C7.83555 13.5591 7.94811 13.6158 8.03252 13.6915C8.11694 13.7624 8.17556 13.8546 8.20839 13.9681C8.24122 14.0815 8.25764 14.2139 8.25764 14.3652C8.25764 14.5212 8.23888 14.656 8.20136 14.7695C8.16384 14.8829 8.10287 14.9799 8.01845 15.0602C7.93404 15.1359 7.82148 15.1926 7.68078 15.2305C7.54009 15.2683 7.36656 15.2872 7.16021 15.2872H6.90696ZM14.3776 13.5426H15.862V17.5H17.0157V13.5426H18.5V12.5355H14.3776V13.5426ZM10.0907 12.5496C10.2455 12.5449 10.3838 12.5402 10.5057 12.5355C10.6324 12.526 10.759 12.5189 10.8856 12.5142C11.0122 12.5095 11.1436 12.5071 11.2796 12.5071C11.4203 12.5024 11.5821 12.5 11.765 12.5C12.1824 12.5 12.5341 12.5331 12.8202 12.5993C13.111 12.6655 13.3454 12.7719 13.5237 12.9184C13.7066 13.0603 13.8379 13.247 13.9176 13.4787C13.9973 13.7057 14.0372 13.9822 14.0372 14.3085C14.0372 14.9751 13.8543 15.4669 13.4885 15.7836C13.1227 16.0957 12.5435 16.2517 11.7509 16.2517H11.4976C11.4226 16.247 11.3382 16.2399 11.2444 16.2304V17.4999H10.0907V12.5496ZM11.2444 15.2659C11.3429 15.2754 11.4273 15.2825 11.4976 15.2872H11.7509C11.9573 15.2872 12.1308 15.2683 12.2715 15.2305C12.4122 15.1926 12.5247 15.1359 12.6091 15.0602C12.6936 14.9799 12.7545 14.8829 12.792 14.7695C12.8296 14.656 12.8483 14.5212 12.8483 14.3652C12.8483 14.2139 12.8319 14.0815 12.7991 13.9681C12.7663 13.8546 12.7076 13.7624 12.6232 13.6915C12.5388 13.6158 12.4262 13.5591 12.2855 13.5213C12.1448 13.4834 11.9666 13.4645 11.7509 13.4645C11.6571 13.4645 11.5727 13.4669 11.4976 13.4716C11.4226 13.4716 11.3382 13.4763 11.2444 13.4858V15.2659Z" fill="black"/>
</svg>
