<svg width="24" height="24" viewBox="0 0 24 24" fill="none" xmlns="http://www.w3.org/2000/svg">
<path fill-rule="evenodd" clip-rule="evenodd" d="M3 4.25C3 3.55964 3.55964 3 4.25 3H7.75C8.16421 3 8.5 3.33579 8.5 3.75C8.5 4.16421 8.16421 4.5 7.75 4.5H4.5V7.75C4.5 8.16421 4.16421 8.5 3.75 8.5C3.33579 8.5 3 8.16421 3 7.75V4.25ZM7.5 8C7.22386 8 7 8.22386 7 8.5V10H17V8.5C17 8.22386 16.7761 8 16.5 8H7.5ZM17 11.5H7V14.5C7 14.7761 7.22386 15 7.5 15H16.5C16.7761 15 17 14.7761 17 14.5V11.5ZM4.25 21C3.55964 21 3 20.4404 3 19.75V16.25C3 15.8358 3.33579 15.5 3.75 15.5C4.16421 15.5 4.5 15.8358 4.5 16.25V19.5H7.75C8.16421 19.5 8.5 19.8358 8.5 20.25C8.5 20.6642 8.16421 21 7.75 21H4.25ZM21 4.25C21 3.55964 20.4404 3 19.75 3H16.25C15.8358 3 15.5 3.33579 15.5 3.75C15.5 4.16421 15.8358 4.5 16.25 4.5H19.5V7.75C19.5 8.16421 19.8358 8.5 20.25 8.5C20.6642 8.5 21 8.16421 21 7.75V4.25ZM19.75 21C20.4404 21 21 20.4404 21 19.75V16.25C21 15.8358 20.6642 15.5 20.25 15.5C19.8358 15.5 19.5 15.8358 19.5 16.25V19.5H16.25C15.8358 19.5 15.5 19.8358 15.5 20.25C15.5 20.6642 15.8358 21 16.25 21H19.75Z" fill="black"/>
</svg>
