<svg width="24" height="24" viewBox="0 0 24 24" fill="none" xmlns="http://www.w3.org/2000/svg">
<path fill-rule="evenodd" clip-rule="evenodd" d="M8 3C7.17157 3 6.5 3.67157 6.5 4.5V7.5H17.5V4.5C17.5 3.67157 16.8284 3 16 3H8ZM17.5 17H6.5V20C6.5 20.8284 7.17157 21.5 8 21.5H16C16.8284 21.5 17.5 20.8284 17.5 20V17ZM3 10C3 9.44772 3.44772 9 4 9H20C20.5523 9 21 9.44772 21 10V12V15.5V17C21 17.5523 20.5523 18 20 18C19.4477 18 19 17.5523 19 17V15.5H5V17C5 17.5523 4.55228 18 4 18C3.44772 18 3 17.5523 3 17V15.5V12V10ZM15.25 10.5C14.8358 10.5 14.5 10.8358 14.5 11.25C14.5 11.6642 14.8358 12 15.25 12H17.25C17.6642 12 18 11.6642 18 11.25C18 10.8358 17.6642 10.5 17.25 10.5H15.25Z" fill="black"/>
</svg>
