<svg width="24" height="24" viewBox="0 0 24 24" fill="none" xmlns="http://www.w3.org/2000/svg">
<path fill-rule="evenodd" clip-rule="evenodd" d="M12 24C18.6274 24 24 18.6274 24 12C24 5.37258 18.6274 0 12 0C5.37258 0 0 5.37258 0 12C0 18.6274 5.37258 24 12 24ZM3.58355 11.6833C3.92922 12.9079 4.8037 14.5884 6.19502 15.9803C7.648 17.4338 9.58611 18.5 12.0001 18.5C14.414 18.5 16.3521 17.4338 17.8051 15.9803C19.1964 14.5884 20.0709 12.9079 20.4166 11.6833C19.8356 10.5735 18.831 9.04865 17.4414 7.79024C15.9758 6.46307 14.1633 5.5 12.0001 5.5C9.83685 5.5 8.02434 6.46307 6.55878 7.79024C5.16915 9.04865 4.16448 10.5735 3.58355 11.6833ZM2.13998 11.2115C3.37787 8.73853 6.71389 4 12.0001 4C17.2862 4 20.6223 8.73853 21.8602 11.2115C21.954 11.3989 21.9816 11.6107 21.9325 11.8144C21.2046 14.8372 17.7938 20 12.0001 20C6.20636 20 2.7955 14.8372 2.0676 11.8144C2.01853 11.6107 2.04616 11.3989 2.13998 11.2115ZM7.17454 11.3499C6.83759 11.109 6.36914 11.1869 6.12823 11.5238C5.88733 11.8608 5.96519 12.3292 6.30214 12.5701C6.73779 12.8816 7.2333 13.1263 7.75024 13.3184L7.3935 13.8089C7.14987 14.1439 7.22393 14.613 7.55892 14.8566C7.89391 15.1002 8.36298 15.0262 8.6066 14.6912L9.29516 13.7444C9.96823 13.8763 10.6409 13.9485 11.2501 13.9801V15.2501C11.2501 15.6643 11.5858 16.0001 12.0001 16.0001C12.4143 16.0001 12.7501 15.6643 12.7501 15.2501V13.9801C13.3592 13.9485 14.0319 13.8763 14.7049 13.7444L15.3935 14.6912C15.6371 15.0262 16.1062 15.1002 16.4412 14.8566C16.7762 14.613 16.8502 14.1439 16.6066 13.8089L16.2498 13.3184C16.7667 13.1263 17.2622 12.8816 17.6979 12.5701C18.0348 12.3292 18.1127 11.8608 17.8718 11.5238C17.6309 11.1869 17.1624 11.109 16.8255 11.3499C16.2362 11.7712 15.4199 12.0652 14.5251 12.2505C13.6393 12.4339 12.7304 12.4999 12 12.4999C11.2695 12.4999 10.3607 12.4339 9.47488 12.2505C8.58009 12.0652 7.76384 11.7712 7.17454 11.3499Z" fill="black"/>
</svg>
