<svg width="24" height="24" viewBox="0 0 24 24" fill="none" xmlns="http://www.w3.org/2000/svg">
<path fill-rule="evenodd" clip-rule="evenodd" d="M21 7C21 8.65685 19.6569 10 18 10C16.6021 10 15.4275 9.04392 15.0945 7.75H12.5V16.25H15.0945C15.4275 14.9561 16.6021 14 18 14C19.6569 14 21 15.3431 21 17C21 18.6569 19.6569 20 18 20C16.6021 20 15.4275 19.0439 15.0945 17.75H11.85C11.3806 17.75 11 17.3694 11 16.9V12.75H8.90549C8.57245 14.0439 7.39788 15 6 15C4.34315 15 3 13.6569 3 12C3 10.3431 4.34315 9 6 9C7.39788 9 8.57245 9.95608 8.90549 11.25H11V7.1C11 6.63056 11.3806 6.25 11.85 6.25H15.0945C15.4275 4.95608 16.6021 4 18 4C19.6569 4 21 5.34315 21 7Z" fill="black"/>
</svg>
