<svg width="24" height="24" viewBox="0 0 24 24" fill="none" xmlns="http://www.w3.org/2000/svg">
<path fill-rule="evenodd" clip-rule="evenodd" d="M3 4C3 3.44772 3.44772 3 4 3H14C14.5523 3 15 3.44772 15 4V6C15 6.55228 14.5523 7 14 7H12V12.5C12 12.7761 12.2239 13 12.5 13H18V11C18 10.4477 18.4477 10 19 10H21C21.5523 10 22 10.4477 22 11V21C22 21.5523 21.5523 22 21 22H19C18.4477 22 18 21.5523 18 21V19H12C8.68629 19 6 16.3137 6 13V7H4C3.44772 7 3 6.55228 3 6V4ZM10 11.5C10 12.3284 9.32843 13 8.5 13C7.67157 13 7 12.3284 7 11.5C7 10.6716 7.67157 10 8.5 10C9.32843 10 10 10.6716 10 11.5ZM10.5 17C11.3284 17 12 16.3284 12 15.5C12 14.6716 11.3284 14 10.5 14C9.67157 14 9 14.6716 9 15.5C9 16.3284 9.67157 17 10.5 17Z" fill="black"/>
</svg>
