<svg width="24" height="24" viewBox="0 0 24 24" fill="none" xmlns="http://www.w3.org/2000/svg">
<path d="M2.75 12C2.75 13.6978 3.23545 15.2933 4.06217 16.5989C4.28376 16.9488 4.1797 17.4122 3.82975 17.6337C3.47979 17.8553 3.01646 17.7513 2.79486 17.4013C1.81638 15.856 1.25 13.9824 1.25 12C1.25 10.0176 1.81639 8.14415 2.79486 6.59887C3.01646 6.24891 3.47979 6.14485 3.82975 6.36644C4.1797 6.58804 4.28376 7.05137 4.06217 7.40133C3.23544 8.70696 2.75 10.3022 2.75 12Z" fill="black"/>
<path d="M5.53527 12.0001C5.53527 12.7654 5.75317 13.4836 6.13761 14.106C6.35529 14.4584 6.24607 14.9205 5.89366 15.1382C5.54126 15.3559 5.07911 15.2466 4.86144 14.8942C4.33735 14.0458 4.03527 13.0563 4.03527 12.0001C4.03527 10.9439 4.33735 9.95444 4.86144 9.10596C5.07911 8.75355 5.54126 8.64433 5.89366 8.86201C6.24607 9.07969 6.35529 9.54183 6.13761 9.89423C5.75317 10.5166 5.53527 11.2348 5.53527 12.0001Z" fill="black"/>
<path d="M19.9378 7.40134C20.7646 8.70695 21.25 10.3024 21.25 12.0002C21.25 13.698 20.7646 15.2932 19.9378 16.5989C19.7162 16.9488 19.8203 17.4122 20.1703 17.6338C20.5202 17.8554 20.9835 17.7513 21.2051 17.4013C22.1836 15.8561 22.75 13.9826 22.75 12.0002C22.75 10.0179 22.1836 8.14418 21.2051 6.59888C20.9835 6.24892 20.5202 6.14486 20.1703 6.36645C19.8203 6.58805 19.7162 7.05138 19.9378 7.40134Z" fill="black"/>
<path d="M18.4643 12.0001C18.4643 11.2348 18.2464 10.5166 17.862 9.89424C17.6443 9.54184 17.7535 9.07969 18.1059 8.86202C18.4584 8.64434 18.9205 8.75356 19.1382 9.10597C19.6623 9.95444 19.9643 10.944 19.9643 12.0001C19.9643 13.0563 19.6623 14.0458 19.1382 14.8942C18.9205 15.2466 18.4584 15.3559 18.1059 15.1382C17.7535 14.9205 17.6443 14.4584 17.862 14.106C18.2464 13.4836 18.4643 12.7654 18.4643 12.0001Z" fill="black"/>
<path fill-rule="evenodd" clip-rule="evenodd" d="M12 7.00013C14.7614 7.00013 17 9.23871 17 12.0001C17 14.7616 14.7614 17.0001 12 17.0001C9.23858 17.0001 7 14.7616 7 12.0001C7 9.23871 9.23858 7.00013 12 7.00013ZM14.2627 11.572C14.585 11.7665 14.585 12.2338 14.2627 12.4283L10.7579 14.5427C10.4247 14.7437 9.99966 14.5037 9.99966 14.1145V9.88574C9.99966 9.49655 10.4247 9.25657 10.7579 9.45761L14.2627 11.572Z" fill="black"/>
</svg>
