<svg width="24" height="24" viewBox="0 0 24 24" fill="none" xmlns="http://www.w3.org/2000/svg">
<path fill-rule="evenodd" clip-rule="evenodd" d="M20.1414 21.0012H16.7547C15.1634 21.0012 13.6373 20.3691 12.5121 19.2439L2.96111 9.69293C2.57058 9.3024 2.57058 8.66924 2.96111 8.27871L7.38963 3.85019C7.67325 3.56656 8.05793 3.40723 8.45903 3.40723H8.57053C9.15491 3.40723 9.67373 3.78117 9.85853 4.33557L9.91186 4.49556C9.95595 4.62784 9.98521 4.76461 9.99908 4.90335C10.1385 6.2979 11.9407 6.76184 12.7362 5.608L13.1096 5.06641C13.3541 4.71177 13.7573 4.5 14.1881 4.5H16.0001C16.5524 4.5 17.0001 4.94772 17.0001 5.5V7.27441H15.3582C14.8842 7.27441 14.5 7.65866 14.5 8.13266C14.5 8.60666 14.8842 8.9909 15.3582 8.9909H17.0001V10.707H15.3582C14.8842 10.707 14.5 11.0913 14.5 11.5653C14.5 12.0393 14.8842 12.4235 15.3582 12.4235H17.0105C17.0543 12.8511 17.2349 13.2552 17.5284 13.5741L21.5044 17.8948C21.819 18.2367 21.9936 18.6844 21.9936 19.149C21.9936 20.172 21.1644 21.0012 20.1414 21.0012ZM2.00684 14.679C2.00684 14.2878 2.32397 13.9707 2.71518 13.9707H4.2999C4.6911 13.9707 5.00824 14.2878 5.00824 14.679C5.00824 15.0703 4.6911 15.3874 4.2999 15.3874H2.71518C2.32397 15.3874 2.00684 15.0703 2.00684 14.679ZM2.71518 16.8135C2.32397 16.8135 2.00684 17.1306 2.00684 17.5218C2.00684 17.913 2.32397 18.2302 2.71518 18.2302H6.87686C7.26807 18.2302 7.58521 17.913 7.58521 17.5218C7.58521 17.1306 7.26807 16.8135 6.87686 16.8135H2.71518ZM2.71518 19.584C2.32397 19.584 2.00684 19.9011 2.00684 20.2923C2.00684 20.6835 2.32397 21.0007 2.71518 21.0007H10.2969C10.6881 21.0007 11.0052 20.6835 11.0052 20.2923C11.0052 19.9011 10.6881 19.584 10.2969 19.584H2.71518Z" fill="black"/>
</svg>
