<svg width="24" height="24" viewBox="0 0 24 24" fill="none" xmlns="http://www.w3.org/2000/svg">
<path fill-rule="evenodd" clip-rule="evenodd" d="M12 4.25C12.4142 4.25 12.75 4.58579 12.75 5V20.2308C12.75 20.645 12.4142 20.9808 12 20.9808C11.5858 20.9808 11.25 20.645 11.25 20.2308V5C11.25 4.58579 11.5858 4.25 12 4.25ZM3.39983 6.32762C3.76232 6.01692 4.22399 5.84613 4.70142 5.84613H8.46157C9.01385 5.84613 9.46157 6.29385 9.46157 6.84613V9.92305C9.46157 10.4753 9.01385 10.9231 8.46157 10.9231H4.70142C4.22399 10.9231 3.76232 10.7523 3.39983 10.4416L1.88583 9.14385C1.42022 8.74475 1.42022 8.02443 1.88583 7.62534L3.39983 6.32762ZM19.2986 9.23077C19.7761 9.23077 20.2377 9.40156 20.6002 9.71226L22.1142 11.01C22.5798 11.4091 22.5798 12.1294 22.1142 12.5285L20.6002 13.8262C20.2377 14.1369 19.7761 14.3077 19.2986 14.3077H15.5385C14.9862 14.3077 14.5385 13.86 14.5385 13.3077V10.2308C14.5385 9.67849 14.9862 9.23077 15.5385 9.23077H19.2986Z" fill="black"/>
</svg>
