<svg width="24" height="24" viewBox="0 0 24 24" fill="none" xmlns="http://www.w3.org/2000/svg">
<path fill-rule="evenodd" clip-rule="evenodd" d="M4 5C3.44772 5 3 5.44772 3 6V18C3 18.5523 3.44772 19 4 19H20C20.5523 19 21 18.5523 21 18V6C21 5.44772 20.5523 5 20 5H4ZM6.30335 8.20229C5.9867 7.91508 5.4947 7.93625 5.20444 8.24957C4.91418 8.56289 4.93557 9.04971 5.25222 9.33692L11.1241 14.6629C11.6197 15.1124 12.3803 15.1124 12.8759 14.6629L18.7478 9.33692C19.0644 9.04971 19.0858 8.56289 18.7956 8.24957C18.5053 7.93625 18.0133 7.91508 17.6967 8.20229L12 13.3693L6.30335 8.20229Z" fill="black"/>
</svg>
