<svg width="24" height="24" viewBox="0 0 24 24" fill="none" xmlns="http://www.w3.org/2000/svg">
<path fill-rule="evenodd" clip-rule="evenodd" d="M9.4394 3.49994C9.73229 3.20705 10.2072 3.20705 10.5001 3.49994L11.9697 4.96961L13.4394 3.49994C13.7323 3.20705 14.2072 3.20705 14.5001 3.49994C14.7929 3.79284 14.7929 4.26771 14.5001 4.5606L13.0304 6.03027L14.5001 7.49994C14.7929 7.79284 14.7929 8.26771 14.5001 8.5606C14.2072 8.8535 13.7323 8.8535 13.4394 8.5606L11.9697 7.09093L10.5001 8.5606C10.2072 8.8535 9.73229 8.8535 9.4394 8.5606C9.1465 8.26771 9.1465 7.79284 9.4394 7.49994L10.9091 6.03027L9.4394 4.5606C9.1465 4.26771 9.1465 3.79284 9.4394 3.49994ZM3.44254 15.2517C3.16544 14.9438 3.1904 14.4696 3.49828 14.1925C5.98001 11.9588 8.75619 10.9999 12 10.9999C15.2438 10.9999 18.02 11.9588 20.5017 14.1925C20.8096 14.4696 20.8346 14.9438 20.5575 15.2517C20.2804 15.5595 19.8062 15.5845 19.4983 15.3074C17.3133 13.3409 14.903 12.4999 12 12.4999C9.09698 12.4999 6.68667 13.3409 4.50174 15.3074C4.19386 15.5845 3.71964 15.5595 3.44254 15.2517ZM6.46968 17.2196C6.17678 17.5125 6.17677 17.9874 6.46966 18.2803C6.76255 18.5732 7.23742 18.5732 7.53032 18.2803C8.40797 17.4027 10.015 16.4999 12 16.4999C13.7125 16.4999 15.2902 17.1009 16.4697 18.2803C16.7626 18.5732 17.2375 18.5732 17.5303 18.2803C17.8232 17.9874 17.8232 17.5125 17.5303 17.2196C16.0431 15.7324 14.0712 14.9999 12 14.9999C9.56829 14.9999 7.59203 16.0973 6.46968 17.2196ZM9.43899 20.2522C9.16409 20.562 9.19241 21.036 9.50226 21.3109C9.8121 21.5859 10.2861 21.5575 10.561 21.2477C11.0132 20.7381 11.5146 20.4999 12 20.4999C12.4854 20.4999 12.9868 20.7381 13.439 21.2477C13.7139 21.5575 14.1879 21.5859 14.4978 21.3109C14.8076 21.036 14.8359 20.562 14.561 20.2522C13.899 19.506 13.0154 18.9999 12 18.9999C10.9846 18.9999 10.101 19.506 9.43899 20.2522Z" fill="black"/>
</svg>
