<svg width="24" height="24" viewBox="0 0 24 24" fill="none" xmlns="http://www.w3.org/2000/svg">
<path fill-rule="evenodd" clip-rule="evenodd" d="M2 4.25C2 3.83579 2.33579 3.5 2.75 3.5H5.16802C5.5732 3.5 5.92205 3.78599 6.00151 4.1833L6.36485 6H20.0438C20.5504 6 20.9446 6.44036 20.8886 6.94387L19.9998 15.4433C19.9013 16.3295 19.1522 17 18.2605 17H7.64504C6.75333 17 6.00422 16.3295 5.90575 15.4433L5.00818 6.86517L4.63515 5H2.75C2.33579 5 2 4.66421 2 4.25ZM10 19.5C10 20.3284 9.32843 21 8.5 21C7.67157 21 7 20.3284 7 19.5C7 18.6716 7.67157 18 8.5 18C9.32843 18 10 18.6716 10 19.5ZM17 21C17.8284 21 18.5 20.3284 18.5 19.5C18.5 18.6716 17.8284 18 17 18C16.1716 18 15.5 18.6716 15.5 19.5C15.5 20.3284 16.1716 21 17 21Z" fill="black"/>
</svg>
