<svg width="24" height="24" viewBox="0 0 24 24" fill="none" xmlns="http://www.w3.org/2000/svg">
<path fill-rule="evenodd" clip-rule="evenodd" d="M9.36374 6C8.81145 6 8.36374 6.44771 8.36374 7V9.54545C8.36374 10.0977 8.81145 10.5455 9.36374 10.5455H21.0001C21.5524 10.5455 22.0001 10.0977 22.0001 9.54545V7C22.0001 6.44772 21.5524 6 21.0001 6H9.36374ZM9.36374 14.1818C8.81145 14.1818 8.36374 14.6295 8.36374 15.1818V17.7273C8.36374 18.2796 8.81145 18.7273 9.36374 18.7273H21.0001C21.5524 18.7273 22.0001 18.2796 22.0001 17.7273V15.1818C22.0001 14.6295 21.5524 14.1818 21.0001 14.1818H9.36374ZM2.89502 9.33845C1.99063 10.75 1.73391 12.1255 1.88021 13.3609C2.07633 15.017 2.98371 16.3122 3.77446 17.0151C4.08405 17.2903 4.55811 17.2624 4.83329 16.9528C5.10848 16.6432 5.0806 16.1692 4.77101 15.894C4.19813 15.3847 3.5146 14.4072 3.36981 13.1845C3.26408 12.2917 3.43773 11.2036 4.25492 9.99995L4.44214 11.1233C4.51024 11.5319 4.89666 11.8079 5.30523 11.7398C5.71381 11.6717 5.98983 11.2853 5.92173 10.8767L5.48362 8.24805C5.48073 8.23068 5.47733 8.21352 5.47343 8.19659C5.45661 8.03074 5.38467 7.86944 5.25761 7.74238C5.06722 7.55198 4.79993 7.48535 4.55571 7.54249C4.539 7.54427 4.52224 7.54656 4.50545 7.54936L1.87682 7.98746C1.46824 8.05556 1.19223 8.44198 1.26032 8.85056C1.32842 9.25913 1.71484 9.53515 2.12342 9.46705L2.89502 9.33845Z" fill="black"/>
</svg>
