<svg width="24" height="24" viewBox="0 0 24 24" fill="none" xmlns="http://www.w3.org/2000/svg">
<path fill-rule="evenodd" clip-rule="evenodd" d="M3.25 13.5488C3.52594 13.5488 3.78865 13.5161 4.05229 13.439C4.46492 14.2782 5.2462 15.2195 6.59045 15.6604C7.88607 16.0854 8.96694 16.0545 9.86192 15.8762C10.3765 15.7737 10.9452 15.6604 11.7729 15.6604C12.6007 15.6604 13.1694 15.7737 13.684 15.8762C14.579 16.0545 15.6598 16.0854 16.9554 15.6604C18.3924 15.1891 19.1861 14.1459 19.5738 13.2671L19.5763 13.2679C19.6886 13.304 19.7935 13.3376 19.8781 13.3681C20.1399 13.4625 20.4516 13.5488 20.75 13.5488C21.1642 13.5488 21.5 13.213 21.5 12.7988C21.5 12.3846 21.1642 12.0488 20.75 12.0488C20.711 12.0488 20.5929 12.0313 20.3868 11.957C20.324 11.9344 20.2364 11.9084 20.1391 11.8796L20.1391 11.8795C19.9387 11.8201 19.6972 11.7485 19.5468 11.6689C19.0806 11.4219 18.6988 11.1515 18.5677 11.0211L17.3145 9.77534L17.2047 9.66597C16.37 8.83383 15.5337 8 14.2794 8C13.4699 8 13.026 8.23568 12.6706 8.42705L12.6595 8.43303C12.3943 8.57585 12.2106 8.6748 11.7729 8.6748C11.3091 8.6748 11.0361 8.5593 10.726 8.4109C10.6998 8.39834 10.6726 8.38511 10.6444 8.3714L10.6444 8.37138C10.3253 8.21617 9.88099 8 9.26653 8C8.66104 8 8.06089 8.31401 7.6379 8.58705C7.1852 8.87928 6.78459 9.22538 6.54466 9.46389L4.97815 11.0211C4.09214 11.9019 3.69526 12.0488 3.25 12.0488C2.83579 12.0488 2.5 12.3846 2.5 12.7988C2.5 13.213 2.83579 13.5488 3.25 13.5488ZM7.5 13.6429C8.12794 13.6429 8.64536 13.4356 9.03026 13.2814L9.06426 13.2678C9.47961 13.1016 9.75377 13 10.0714 13C10.3265 13 10.4148 13.0589 10.6158 13.1929L10.6197 13.1955C10.8981 13.3811 11.2924 13.6429 12 13.6429C12.7076 13.6429 13.1019 13.3811 13.3803 13.1955L13.3842 13.1929C13.5852 13.0589 13.6735 13 13.9286 13C14.2123 13 14.3861 13.0774 14.739 13.2345L14.7891 13.2568C15.1927 13.4362 15.706 13.6429 16.5 13.6429C16.9142 13.6429 17.25 13.3071 17.25 12.8929C17.25 12.4786 16.9142 12.1429 16.5 12.1429C16.0083 12.1429 15.718 12.0281 15.3984 11.8861C15.3714 11.8741 15.3436 11.8615 15.3149 11.8486C14.9862 11.7002 14.5424 11.5 13.9286 11.5C13.221 11.5 12.8267 11.7618 12.5483 11.9474L12.5444 11.95C12.3434 12.084 12.2551 12.1429 12 12.1429C11.7449 12.1429 11.6566 12.084 11.4556 11.95L11.4517 11.9474C11.1733 11.7618 10.779 11.5 10.0714 11.5C9.44348 11.5 8.92607 11.7073 8.54116 11.8615L8.50717 11.8751C8.09181 12.0412 7.81766 12.1429 7.5 12.1429C7.08579 12.1429 6.75 12.4786 6.75 12.8929C6.75 13.3071 7.08579 13.6429 7.5 13.6429Z" fill="black"/>
</svg>
