<svg width="24" height="24" viewBox="0 0 24 24" fill="none" xmlns="http://www.w3.org/2000/svg">
<path d="M8.94496 3H15.0549C15.6255 3 16.1842 3.1627 16.6655 3.46902L21.5513 6.57817C21.9734 6.84673 21.7831 7.5 21.2829 7.5H2.71696C2.21674 7.5 2.0265 6.84673 2.44852 6.57817L7.33434 3.46902C7.81569 3.1627 8.37441 3 8.94496 3Z" fill="black"/>
<path fill-rule="evenodd" clip-rule="evenodd" d="M16.3571 9H14.6429V11.1786C14.6429 11.6323 14.2751 12 13.8214 12C13.3678 12 13 11.6323 13 11.1786V9H11V11.2499C11 11.6641 10.6642 11.9999 10.25 11.9999C9.83579 11.9999 9.5 11.6641 9.5 11.2499V9H7.64286V11.1784C7.64286 11.6321 7.27509 11.9999 6.82143 11.9999C6.36777 11.9999 6 11.6321 6 11.1784V9H4.5C4.22386 9 4 9.22386 4 9.5V20.5C4 20.7761 4.22386 21 4.5 21H7V17.5C7 16.8096 7.55964 16.25 8.25 16.25C8.94036 16.25 9.5 16.8096 9.5 17.5L9.5 21H14.5L14.5 17.5C14.5 16.8096 15.0596 16.25 15.75 16.25C16.4404 16.25 17 16.8096 17 17.5L17 21H19.5C19.7761 21 20 20.7761 20 20.5V9.5C20 9.22386 19.7761 9 19.5 9H18V11.1786C18 11.6323 17.6322 12 17.1786 12C16.7249 12 16.3571 11.6323 16.3571 11.1786V9ZM5.25 14.25C5.25 13.8358 5.58579 13.5 6 13.5H18C18.4142 13.5 18.75 13.8358 18.75 14.25C18.75 14.6642 18.4142 15 18 15H6C5.58579 15 5.25 14.6642 5.25 14.25Z" fill="black"/>
</svg>
