<svg width="24" height="24" viewBox="0 0 24 24" fill="none" xmlns="http://www.w3.org/2000/svg">
<path d="M8.03119 10.7675C7.0596 10.3472 6.00023 9.3754 6.00023 8C6.00023 5 8.21898 2 12.0002 2C15.7815 2 18.0002 5 18.0002 8C18.0002 9.38379 16.9279 10.3591 15.9515 10.7751C15.9838 10.5516 16.0002 10.3249 16.0002 10.0969V7.50005C16.0002 7.01973 15.6108 6.63036 15.1305 6.63036C14.629 6.63036 13.9339 6.30946 13.7753 5.83371L13.7173 5.65966C13.4918 4.98328 12.5894 4.98481 12.3128 5.58025C12.1663 5.89559 11.7306 6.18712 10.9922 6.38657C10.2989 6.57383 9.29304 6.62401 8.8402 6.62977C8.37643 6.63567 8.00017 7.01272 8.00017 7.48036V10.2254C8.00017 10.4071 8.01059 10.5881 8.03119 10.7675Z" fill="black"/>
<path d="M14.1193 11.6236C13.5765 12.1652 12.8275 12.5 12.0002 12.5C11.108 12.5 10.3068 12.1105 9.75725 11.4923C9.58819 11.0929 9.50017 10.6622 9.50017 10.2254V8.10103C9.97938 8.06501 10.8133 7.98864 11.3833 7.83468C11.8509 7.70838 12.3866 7.50926 12.8429 7.18315C13.2055 7.61308 13.948 7.9206 14.5002 8.05493V10.0969C14.5002 10.6324 14.3679 11.1563 14.1193 11.6236Z" fill="black"/>
<path d="M8.52197 14C6.27924 14 4.68 16.1753 5.34895 18.3159L6.1713 20.9474C6.36699 21.5736 6.94694 22 7.60302 22H16.3974C17.0535 22 17.6335 21.5736 17.8292 20.9474L18.6515 18.3159C19.3205 16.1753 17.7212 14 15.4785 14H12.6231C12.6949 14.0777 12.7544 14.1724 12.7963 14.2841L14.2026 18.0344C14.3481 18.4222 14.1516 18.8545 13.7637 19C13.3759 19.1454 12.9436 18.9489 12.7981 18.5611L12.0004 16.4337L11.2026 18.5611C11.0572 18.9489 10.6249 19.1454 10.237 19C9.84919 18.8545 9.65268 18.4222 9.79812 18.0344L11.2045 14.2841C11.2464 14.1724 11.3058 14.0777 11.3776 14H8.52197Z" fill="black"/>
</svg>
