<svg width="24" height="24" viewBox="0 0 24 24" fill="none" xmlns="http://www.w3.org/2000/svg">
<path fill-rule="evenodd" clip-rule="evenodd" d="M6.41406 4.9873C5.94993 4.9873 5.50482 5.17168 5.17663 5.49987L2.17663 8.76244C1.49321 9.44585 1.49321 10.5539 2.17663 11.2373L10.7624 19.9999C11.4458 20.6833 12.5539 20.6833 13.2373 19.9999L21.8231 11.2373C22.5065 10.5539 22.5065 9.44586 21.8231 8.76244L18.8231 5.49987C18.4949 5.17168 18.0498 4.9873 17.5856 4.9873H6.41406ZM4 9.74988C4 9.33566 4.33579 8.99988 4.75 8.99988H5.75C6.16421 8.99988 6.5 9.33566 6.5 9.74988C6.5 10.1641 6.16421 10.4999 5.75 10.4999H4.75C4.33579 10.4999 4 10.1641 4 9.74988ZM9.25 8.99988C8.83579 8.99988 8.5 9.33566 8.5 9.74988C8.5 10.1641 8.83579 10.4999 9.25 10.4999H18.75C19.1642 10.4999 19.5 10.1641 19.5 9.74988C19.5 9.33566 19.1642 8.99988 18.75 8.99988H9.25Z" fill="black"/>
</svg>
