<svg width="24" height="24" viewBox="0 0 24 24" fill="none" xmlns="http://www.w3.org/2000/svg">
<path d="M4.5 3.75977C4.5 3.34555 4.83579 3.00977 5.25 3.00977C5.26627 3.00977 5.28242 3.01028 5.29843 3.0113C5.31549 3.01028 5.33268 3.00977 5.35 3.00977H9.87305C10.611 3.00977 11.327 3.26093 11.9033 3.72194L13.0337 4.62629C13.344 4.87452 13.7296 5.00977 14.127 5.00977H19.15C19.6194 5.00977 20 5.39033 20 5.85977V16.6598C20 17.1292 19.6194 17.5098 19.15 17.5098H14.127C13.389 17.5098 12.673 17.2586 12.0967 16.7976L10.9663 15.8932C10.656 15.645 10.2704 15.5098 9.87305 15.5098H6V20.7598C6 21.174 5.66421 21.5098 5.25 21.5098C4.83579 21.5098 4.5 21.174 4.5 20.7598V3.75977Z" fill="black"/>
</svg>
