<svg width="24" height="24" viewBox="0 0 24 24" fill="none" xmlns="http://www.w3.org/2000/svg">
<path fill-rule="evenodd" clip-rule="evenodd" d="M16.5145 3.74992C16.905 3.3594 17.5382 3.3594 17.9287 3.74992L20.2972 6.11841C20.6877 6.50893 20.6877 7.1421 20.2972 7.53262L18.4612 9.36861L14.6785 5.58591L16.5145 3.74992ZM13.6179 6.64657L17.4006 10.4293L8.05776 19.7721C7.87022 19.9596 7.61587 20.065 7.35065 20.065L4.48218 20.065C4.20604 20.065 3.98218 19.8411 3.98218 19.565L3.98218 16.6965C3.98218 16.4313 4.08753 16.1769 4.27507 15.9894L13.6179 6.64657ZM14.25 18.4998C13.8358 18.4998 13.5 18.8355 13.5 19.2498C13.5 19.664 13.8358 19.9998 14.25 19.9998H20.25C20.6642 19.9998 21 19.664 21 19.2498C21 18.8355 20.6642 18.4998 20.25 18.4998H14.25Z" fill="black"/>
</svg>
