<svg width="24" height="24" viewBox="0 0 24 24" fill="none" xmlns="http://www.w3.org/2000/svg">
<path fill-rule="evenodd" clip-rule="evenodd" d="M3.25 3.75C2.83579 3.75 2.5 4.08579 2.5 4.5C2.5 4.91421 2.83579 5.25 3.25 5.25H4.75C5.16421 5.25 5.5 5.58579 5.5 6V16.25C5.5 17.4081 6.37501 18.3619 7.5 18.4863V19.2501C7.5 19.6643 7.83579 20.0001 8.25 20.0001C8.66421 20.0001 9 19.6643 9 19.2501V18.5H16.5V19.25C16.5 19.6641 16.8358 19.9999 17.25 19.9999C17.6642 19.9999 18 19.6641 18 19.25V18.5H19.25C19.6642 18.5 20 18.1642 20 17.75C20 17.3358 19.6642 17 19.25 17H7.75C7.33579 17 7 16.6642 7 16.25V14.4996H16.75C18.5449 14.4996 20 13.0445 20 11.2496V6.85C20 6.38056 19.6194 6 19.15 6H19H10.25H9.3C8.85817 6 8.5 6.35817 8.5 6.8V12.9996H7V6C7 4.75736 5.99264 3.75 4.75 3.75H3.25Z" fill="black"/>
</svg>
