<svg width="24" height="24" viewBox="0 0 24 24" fill="none" xmlns="http://www.w3.org/2000/svg">
<path fill-rule="evenodd" clip-rule="evenodd" d="M3.36115 4.53769C3.17824 5.01561 3 5.5491 3 6.42857C3 7.52909 3.26394 8.28747 3.72404 8.99686C3.84401 9.15454 3.98361 9.32697 4.13769 9.49818C4.39547 9.78461 4.67644 10.0481 4.95718 10.2352C5.24357 10.4262 5.47282 10.4999 5.64272 10.4999C6.05693 10.4999 6.39272 10.8357 6.39272 11.2499C6.39272 11.6642 6.05693 11.9999 5.64272 11.9999C5.22559 11.9999 4.83915 11.8765 4.5 11.7038V13C4.5 15.3283 5.6614 17.4709 7.5 18.5122L8.61319 19.1276C10.7207 20.2928 13.2793 20.2928 15.3868 19.1276L16.5 18.5122C18.3386 17.4709 19.5 15.3283 19.5 13V11.7673C19.1569 11.9087 18.7864 12.0002 18.4005 12.0002C17.9863 12.0002 17.6505 11.6644 17.6505 11.2501C17.6505 10.8359 17.9863 10.5001 18.4005 10.5001C20.255 10.5001 21 7.85795 21 6.42857C21 5.5491 20.8218 5.01561 20.6389 4.53769C20.5162 4.21717 20.2065 4 19.8633 4H4.13674C3.79354 4 3.48382 4.21717 3.36115 4.53769ZM9.61424 8.10699C9.96943 7.89388 10.4301 8.00906 10.6432 8.36424L10.9733 8.91435C11.0569 8.97005 11.1554 9.00011 11.2567 9.00011H12.7435C12.8448 9.00011 12.9433 8.97005 13.0269 8.91435L13.357 8.36424C13.5701 8.00906 14.0308 7.89388 14.386 8.10699C14.7412 8.3201 14.8563 8.7808 14.6432 9.13598L14.2762 9.74769C14.2111 9.85619 14.1282 9.95297 14.031 10.034C13.6696 10.3352 13.214 10.5001 12.7435 10.5001H11.2567C10.7862 10.5001 10.3306 10.3352 9.96921 10.034C9.87201 9.95297 9.78912 9.85619 9.72402 9.74769L9.35699 9.13599C9.14388 8.7808 9.25906 8.3201 9.61424 8.10699ZM9.75 13C9.33579 13 9 13.3358 9 13.75C9 14.1642 9.33579 14.5 9.75 14.5H14.25C14.6642 14.5 15 14.1642 15 13.75C15 13.3358 14.6642 13 14.25 13H9.75Z" fill="black"/>
</svg>
