<svg width="24" height="24" viewBox="0 0 24 24" fill="none" xmlns="http://www.w3.org/2000/svg">
<path fill-rule="evenodd" clip-rule="evenodd" d="M12 14.5C13.1046 14.5 14 13.6046 14 12.5C14 11.3954 13.1046 10.5 12 10.5C10.8954 10.5 10 11.3954 10 12.5C10 13.6046 10.8954 14.5 12 14.5ZM12 16C13.933 16 15.5 14.433 15.5 12.5C15.5 10.567 13.933 9 12 9C10.067 9 8.5 10.567 8.5 12.5C8.5 14.433 10.067 16 12 16ZM8.1405 3.74911C9.20252 3.12145 10.5059 2.75 11.8969 2.75C13.288 2.75 14.5911 3.12144 15.6532 3.74911C16.0098 3.95986 16.4697 3.84164 16.6804 3.48504C16.8912 3.12845 16.773 2.66853 16.4164 2.45778C15.119 1.69103 13.5516 1.25 11.8969 1.25C10.2423 1.25 8.67468 1.69102 7.37731 2.45778C7.02072 2.66853 6.90249 3.12845 7.11324 3.48504C7.32399 3.84164 7.78391 3.95986 8.1405 3.74911ZM18 9H16.7235V8.51754C16.7235 7.96526 16.2758 7.51754 15.7235 7.51754L8.06836 7.51754C7.51607 7.51754 7.06836 7.96526 7.06836 8.51755V9H6C5.44771 9 5 9.44772 5 10V16C5 16.5523 5.44772 17 6 17L18 17C18.5523 17 19 16.5523 19 16V10C19 9.44771 18.5523 9 18 9ZM11.897 5.41992C11.2781 5.41992 10.7003 5.58448 10.2026 5.8714C9.84376 6.07828 9.38514 5.95509 9.17826 5.59625C8.97137 5.2374 9.09456 4.77878 9.45341 4.5719C10.173 4.15703 11.0084 3.91992 11.897 3.91992C12.7855 3.91992 13.6209 4.15703 14.3405 4.5719C14.6994 4.77878 14.8226 5.2374 14.6157 5.59625C14.4088 5.95509 13.9502 6.07828 13.5913 5.8714C13.0937 5.58448 12.5158 5.41992 11.897 5.41992ZM11.2498 18.9167L8.59986 22.45C8.35133 22.7814 7.88123 22.8485 7.54986 22.6C7.21849 22.3515 7.15133 21.8814 7.39986 21.55L9.68737 18.5H14.3124L16.6 21.55C16.8486 21.8814 16.7814 22.3515 16.4501 22.6C16.1187 22.8485 15.6486 22.7814 15.4001 22.45L12.7498 18.9165V22C12.7498 22.4142 12.414 22.75 11.9998 22.75C11.5856 22.75 11.2498 22.4142 11.2498 22V18.9167Z" fill="black"/>
</svg>
