<svg width="24" height="24" viewBox="0 0 24 24" fill="none" xmlns="http://www.w3.org/2000/svg">
<path d="M3 4.25C3 3.55964 3.55964 3 4.25 3H7.75C8.16421 3 8.5 3.33579 8.5 3.75C8.5 4.16421 8.16421 4.5 7.75 4.5H4.5V7.75C4.5 8.16421 4.16421 8.5 3.75 8.5C3.33579 8.5 3 8.16421 3 7.75V4.25Z" fill="black"/>
<path d="M8.06247 11.0686C8.44445 10.4024 9.04307 9.78168 9.93549 9.7511C10.1674 9.74316 10.3771 9.83107 10.529 9.96704C10.8493 10.2538 11.0936 10.4235 11.4655 10.5417C11.8667 10.6691 12.462 10.75 13.5 10.75C14.5359 10.75 15.2856 11.1048 15.7995 11.6147C16.6343 9.37829 14.6871 7.32046 13.1803 6.9999C11.5951 6.66264 11.0438 7.33247 10.6877 7.76512C10.6413 7.82146 10.5822 7.93425 10.4983 7.93531C8.71462 7.95776 8 9.35011 8 10.4998C8 10.697 8.02281 10.8871 8.06247 11.0686Z" fill="black"/>
<path d="M15 13.0258C14.9789 12.9871 14.9561 12.9489 14.9316 12.9115C14.713 12.5785 14.3223 12.25 13.5 12.25C12.4098 12.25 11.6323 12.1685 11.0113 11.9713C10.5017 11.8094 10.129 11.5794 9.79658 11.313C9.62341 11.4151 9.40067 11.661 9.18305 12.1856C8.93489 12.7838 9 13.354 9 14C9 15.6568 10.3431 17 12 17C13.6569 17 15 15.6568 15 14V13.0258Z" fill="black"/>
<path d="M4.25 21C3.55964 21 3 20.4404 3 19.75V16.25C3 15.8358 3.33579 15.5 3.75 15.5C4.16421 15.5 4.5 15.8358 4.5 16.25V19.5H7.75C8.16421 19.5 8.5 19.8358 8.5 20.25C8.5 20.6642 8.16421 21 7.75 21H4.25Z" fill="black"/>
<path d="M21 4.25C21 3.55964 20.4404 3 19.75 3H16.25C15.8358 3 15.5 3.33579 15.5 3.75C15.5 4.16421 15.8358 4.5 16.25 4.5H19.5V7.75C19.5 8.16421 19.8358 8.5 20.25 8.5C20.6642 8.5 21 8.16421 21 7.75V4.25Z" fill="black"/>
<path d="M19.75 21C20.4404 21 21 20.4404 21 19.75V16.25C21 15.8358 20.6642 15.5 20.25 15.5C19.8358 15.5 19.5 15.8358 19.5 16.25V19.5H16.25C15.8358 19.5 15.5 19.8358 15.5 20.25C15.5 20.6642 15.8358 21 16.25 21H19.75Z" fill="black"/>
</svg>
