<svg width="24" height="24" viewBox="0 0 24 24" fill="none" xmlns="http://www.w3.org/2000/svg">
<path fill-rule="evenodd" clip-rule="evenodd" d="M4.5 11.75C4.5 7.51089 8.16808 4.5 12 4.5C15.8319 4.5 19.5 7.51089 19.5 11.75V13H16.3C15.8582 13 15.5 13.3582 15.5 13.8V19.7C15.5 20.1418 15.8582 20.5 16.3 20.5H18C19.6569 20.5 21 19.1569 21 17.5V13.75V13V11.75C21 6.62623 16.603 3 12 3C7.39702 3 3 6.62623 3 11.75V13V13.75V17.5C3 19.1569 4.34315 20.5 6 20.5H7.7C8.14183 20.5 8.5 20.1418 8.5 19.7V13.8C8.5 13.3582 8.14183 13 7.7 13H4.5V11.75Z" fill="black"/>
</svg>
