<svg width="24" height="24" viewBox="0 0 24 24" fill="none" xmlns="http://www.w3.org/2000/svg">
<path fill-rule="evenodd" clip-rule="evenodd" d="M16.9225 6.80546C16.9734 6.52292 17 6.23206 17 5.93507C17 3.2095 14.7614 1 12 1C9.23858 1 7 3.2095 7 5.93507C7 6.23206 7.02658 6.52292 7.07752 6.80546C4.21291 7.17126 2 9.58813 2 12.5152C2 15.695 4.61167 18.2727 7.83333 18.2727C9.10938 18.2727 10.2897 17.8683 11.25 17.1823V15.395L8.46181 12.5223C8.17333 12.2251 8.18041 11.7503 8.47764 11.4618C8.77488 11.1733 9.2497 11.1804 9.53819 11.4776L11.25 13.2413V9C11.25 8.58579 11.5858 8.25 12 8.25C12.4142 8.25 12.75 8.58579 12.75 9V12.2273L15.1864 10.4C15.5178 10.1515 15.9879 10.2186 16.2364 10.55C16.4849 10.8814 16.4178 11.3515 16.0864 11.6L12.75 14.1023V15.087V15.0946V17.1823C13.7103 17.8683 14.8906 18.2727 16.1667 18.2727C19.3883 18.2727 22 15.695 22 12.5152C22 9.58813 19.7871 7.17126 16.9225 6.80546ZM12.75 19C12.75 18.5858 12.4142 18.25 12 18.25C11.5858 18.25 11.25 18.5858 11.25 19V22C11.25 22.4142 11.5858 22.75 12 22.75C12.4142 22.75 12.75 22.4142 12.75 22V19Z" fill="black"/>
</svg>
