<svg width="24" height="24" viewBox="0 0 24 24" fill="none" xmlns="http://www.w3.org/2000/svg">
<path fill-rule="evenodd" clip-rule="evenodd" d="M14 11.5H21C21.4142 11.5 21.75 11.1642 21.75 10.75C21.75 10.3358 21.4142 9.99998 21 9.99998H14.4633L12.734 3.5614C12.5324 2.8109 11.4676 2.81093 11.266 3.5614L9.53674 9.99998H3C2.58579 9.99998 2.25 10.3358 2.25 10.75C2.25 11.1642 2.58579 11.5 3 11.5H10L10 11.5H14L14 11.5ZM6 12.989C5.58579 12.989 5.25 13.3248 5.25 13.739C5.25 14.1533 5.58579 14.489 6 14.489H8.20827L6.62015 18.8778C6.33494 19.666 7.24202 20.3475 7.9197 19.8542L12.0293 16.8625L16.784 19.8743C17.5183 20.3394 18.3948 19.5329 17.9922 18.7626L15.7591 14.489H18C18.4142 14.489 18.75 14.1533 18.75 13.739C18.75 13.3248 18.4142 12.989 18 12.989H14.686C14.6384 12.989 14.5921 12.9928 14.5472 13H9.27285C9.22811 12.9928 9.182 12.989 9.13473 12.989H6Z" fill="black"/>
</svg>
