<svg width="24" height="24" viewBox="0 0 24 24" fill="none" xmlns="http://www.w3.org/2000/svg">
<path d="M8.98999 7V15.7532C8.99353 15.7971 8.99622 15.8413 8.9978 15.8858C8.99927 15.9237 9 15.9618 9 16C9 17.6569 7.65686 19 6 19C4.34314 19 3 17.6569 3 16C3 14.3431 4.34314 13 6 13C6.54236 13 7.05103 13.1439 7.48999 13.3956V4.10001C7.48999 3.63057 7.87048 3.25 8.33997 3.25H19.14C19.6094 3.25 19.99 3.63055 19.99 4.10001V15.7532C19.9966 15.8346 20 15.9169 20 16C20 17.6569 18.6569 19 17 19C15.3431 19 14 17.6569 14 16C14 14.3431 15.3431 13 17 13C17.5424 13 18.051 13.1439 18.49 13.3956V7H8.98999Z" fill="black"/>
</svg>
