<svg width="24" height="24" viewBox="0 0 24 24" fill="none" xmlns="http://www.w3.org/2000/svg">
<path fill-rule="evenodd" clip-rule="evenodd" d="M6.65216 4C5.54759 4 4.65216 4.89543 4.65216 6V13.8696C4.65216 14.9741 5.54759 15.8696 6.65216 15.8696H20C21.1046 15.8696 22 14.9741 22 13.8696V9.00759C22 8.72584 21.8811 8.45717 21.6727 8.26765L17.2643 4.26006C17.0802 4.09272 16.8404 4 16.5916 4H6.65216ZM7.3913 8.65216H13.7826V6.65216H7.3913V8.65216ZM13.7826 12.3043H7.3913V10.3043H13.7826V12.3043ZM2.82609 7.65216V14.6956C2.82609 16.3525 4.16923 17.6956 5.82609 17.6956H18.3478C18.3478 18.7042 17.5303 19.5217 16.5217 19.5217H3C1.89543 19.5217 1 18.6263 1 17.5217V9.47825C1 8.46973 1.81757 7.65216 2.82609 7.65216Z" fill="black"/>
</svg>
