<svg width="24" height="24" viewBox="0 0 24 24" fill="none" xmlns="http://www.w3.org/2000/svg">
<path fill-rule="evenodd" clip-rule="evenodd" d="M5 5C5 4.44772 4.55228 4 4 4C3.44772 4 3 4.44772 3 5C3 5.19749 3.00638 5.39363 3.01895 5.58821C3.05457 6.13935 3.53022 6.55726 4.08136 6.52164C4.63249 6.48603 5.0504 6.01037 5.01479 5.45924C5.00499 5.30756 5 5.15443 5 5ZM21 5C21 4.44772 20.5523 4 20 4C19.4477 4 19 4.44772 19 5C19 5.15443 18.995 5.30756 18.9852 5.45924C18.9496 6.01037 19.3675 6.48603 19.9186 6.52164C20.4698 6.55726 20.9454 6.13935 20.981 5.58821C20.9936 5.39363 21 5.19749 21 5ZM20.0731 8.98204C20.3178 8.4869 20.1147 7.88718 19.6196 7.64254C19.1244 7.3979 18.5247 7.60097 18.2801 8.09611C18.1443 8.37085 17.991 8.63551 17.8216 8.88861C17.5143 9.34754 17.6373 9.96865 18.0962 10.2759C18.5551 10.5831 19.1762 10.4602 19.4835 10.0012C19.7012 9.67599 19.8984 9.33563 20.0731 8.98204ZM5.71995 8.09611C5.4753 7.60097 4.87559 7.3979 4.38044 7.64254C3.8853 7.88718 3.68223 8.4869 3.92687 8.98204C4.10157 9.33563 4.29875 9.67599 4.51651 10.0012C4.82376 10.4602 5.44486 10.5831 5.9038 10.2759C6.36273 9.96865 6.48569 9.34754 6.17845 8.88861C6.009 8.63551 5.85569 8.37085 5.71995 8.09611ZM17.0012 12.4835C17.4602 12.1762 17.5831 11.5551 17.2759 11.0962C16.9686 10.6373 16.3475 10.5143 15.8886 10.8216C15.6355 10.991 15.3709 11.1443 15.0961 11.2801C14.601 11.5247 14.3979 12.1244 14.6425 12.6196C14.8872 13.1147 15.4869 13.3178 15.982 13.0731C16.3356 12.8984 16.676 12.7012 17.0012 12.4835ZM8.11139 10.8216C7.65246 10.5143 7.03135 10.6373 6.72411 11.0962C6.41686 11.5551 6.53982 12.1762 6.99876 12.4835C7.32401 12.7012 7.66437 12.8984 8.01796 13.0731C8.5131 13.3178 9.11282 13.1147 9.35746 12.6196C9.6021 12.1244 9.39903 11.5247 8.90389 11.2801C8.62915 11.1443 8.36449 10.991 8.11139 10.8216ZM11.5408 11.9852C10.9896 11.9496 10.514 12.3675 10.4784 12.9186C10.4427 13.4698 10.8607 13.9454 11.4118 13.981C11.6064 13.9936 11.8025 14 12 14C12.1975 14 12.3936 13.9936 12.5882 13.981C13.1393 13.9454 13.5573 13.4698 13.5216 12.9186C13.486 12.3675 13.0104 11.9496 12.4592 11.9852C12.3076 11.995 12.1544 12 12 12C11.8456 12 11.6924 11.995 11.5408 11.9852ZM8.38799 17.536L9.78961 15.7655C9.92238 15.5978 10.1245 15.5 10.3384 15.5H13.6612C13.8751 15.5 14.0772 15.5978 14.21 15.7655L15.6116 17.536C15.8327 17.8153 15.8088 18.216 15.5561 18.4671L12.4931 21.5099C12.2202 21.7811 11.7795 21.7811 11.5065 21.5099L8.44348 18.4671C8.19078 18.216 8.16689 17.8153 8.38799 17.536ZM11.5303 16.4697C11.8232 16.7626 11.8232 17.2374 11.5303 17.5303L11.0303 18.0303C10.7374 18.3232 10.2626 18.3232 9.96967 18.0303C9.67678 17.7374 9.67678 17.2626 9.96967 16.9697L10.4697 16.4697C10.7626 16.1768 11.2374 16.1768 11.5303 16.4697Z" fill="black"/>
</svg>
