<svg width="24" height="24" viewBox="0 0 24 24" fill="none" xmlns="http://www.w3.org/2000/svg">
<path d="M15.0002 7.50003L13.5474 4.23132C13.2749 3.61827 13.6715 2.91611 14.3372 2.8329L14.8916 2.7636C16.2918 2.58857 17.7085 2.58857 19.1088 2.7636L19.6631 2.8329C20.3288 2.91611 20.7254 3.61827 20.4529 4.23132L19.0002 7.50003H15.0002Z" fill="black"/>
<path d="M6.5 8.50004V5.43266C6.5 5.16752 6.6498 4.92513 6.88695 4.80656L9.06584 3.71712C9.26531 3.61738 9.5 3.76243 9.5 3.98545V8.50004H6.5Z" fill="black"/>
<path d="M5.5 16.5V10H10.5V16.5H11C11.5523 16.5 12 16.9477 12 17.5V20C12 20.5523 11.5523 21 11 21H5C4.44772 21 4 20.5523 4 20V17.5C4 16.9477 4.44772 16.5 5 16.5H5.5Z" fill="black"/>
<path d="M15 9H19V19C19 20.1046 18.1046 21 17 21C15.8954 21 15 20.1046 15 19V9Z" fill="black"/>
</svg>
