<svg width="24" height="24" viewBox="0 0 24 24" fill="none" xmlns="http://www.w3.org/2000/svg">
<path fill-rule="evenodd" clip-rule="evenodd" d="M4.76393 5.64886C4 6.70032 4 8.20021 4 11.2V12.8C4 15.7998 4 17.2997 4.76393 18.3511C5.01065 18.6907 5.30928 18.9893 5.64886 19.2361C6.70032 20 8.20021 20 11.2 20H12.8C15.7998 20 17.2997 20 18.3511 19.2361C18.6907 18.9893 18.9893 18.6907 19.2361 18.3511C20 17.2997 20 15.7998 20 12.8V11.2C20 8.20021 20 6.70032 19.2361 5.64886C18.9893 5.30928 18.6907 5.01065 18.3511 4.76393C17.2997 4 15.7998 4 12.8 4H11.2C8.20021 4 6.70032 4 5.64886 4.76393C5.30928 5.01065 5.01065 5.30928 4.76393 5.64886ZM11 9V11.5H12.75C13.4404 11.5 14 10.9404 14 10.25C14 9.55964 13.4404 9 12.75 9H11ZM11 13H12.75C14.2688 13 15.5 11.7688 15.5 10.25C15.5 8.73122 14.2688 7.5 12.75 7.5H10.35C9.88056 7.5 9.5 7.88056 9.5 8.35V11.5H8.75C8.33579 11.5 8 11.8358 8 12.25C8 12.6642 8.33579 13 8.75 13H9.5V14H8.75C8.33579 14 8 14.3358 8 14.75C8 15.1642 8.33579 15.5 8.75 15.5H9.5V16.25C9.5 16.6642 9.83579 17 10.25 17C10.6642 17 11 16.6642 11 16.25V15.5H12.25C12.6642 15.5 13 15.1642 13 14.75C13 14.3358 12.6642 14 12.25 14H11V13Z" fill="black"/>
</svg>
