<svg width="24" height="24" viewBox="0 0 24 24" fill="none" xmlns="http://www.w3.org/2000/svg">
<path fill-rule="evenodd" clip-rule="evenodd" d="M17.0077 7.19366C17.0104 7.46703 17.0131 7.73802 17.0152 8H18.7453C20.2641 8 21.4953 9.23122 21.4953 10.75V12.75C21.4953 15.4948 19.5722 17.7903 16.9998 18.3627V19.25C16.9998 20.7688 15.7686 22 14.2498 22H5.74984C4.23106 22 2.99984 20.7688 2.99984 19.25V9.73483L2.99512 9.76443C2.99853 9.72097 2.9973 8.24289 2.9962 6.92081C2.9957 6.32073 2.99522 5.7528 2.99522 5.36574C2.99522 3.71735 4.52769 2.58465 6.39518 2.60449C6.53392 2.60449 6.67088 2.61241 6.80547 2.62782C7.54122 1.77101 8.70228 1.25 9.96389 1.25C11.2287 1.25 12.3929 1.77378 13.1283 2.6348C13.2811 2.6148 13.6871 2.60449 13.8454 2.60449C15.4629 2.60449 16.9954 3.73719 16.9954 5.38558C16.9954 5.94925 17.0016 6.57805 17.0077 7.19366ZM7.76616 3.84648C8.14898 3.22931 8.96136 2.75 9.96389 2.75C10.9725 2.75 11.7882 3.23499 12.1682 3.85721C12.3451 4.1467 12.6942 4.28146 13.0197 4.18587C13.1974 4.13365 13.6411 4.10449 13.8454 4.10449C14.8788 4.10449 15.4954 4.79049 15.4954 5.38558L15.4998 7L4.49738 7C4.49628 6.48707 4.49524 5.86658 4.49524 5.36574C4.49524 4.77065 5.11175 4.08465 6.39518 4.10449C6.58481 4.10449 6.76526 4.1296 6.93235 4.17495C7.25234 4.2618 7.59138 4.12824 7.76616 3.84648ZM17.0152 9.5C17.0121 9.69807 17.0072 9.87143 16.9998 10.0128V16.8118C18.7347 16.2766 19.9953 14.6605 19.9953 12.75V10.75C19.9953 10.0596 19.4357 9.5 18.7453 9.5H17.0152ZM7.99984 10.75C7.99984 10.3358 7.66406 10 7.24984 10C6.83563 10 6.49984 10.3358 6.49984 10.75V17.75C6.49984 18.1642 6.83563 18.5 7.24984 18.5C7.66406 18.5 7.99984 18.1642 7.99984 17.75V10.75ZM13.4998 10.75C13.4998 10.3358 13.1641 10 12.7498 10C12.3356 10 11.9998 10.3358 11.9998 10.75V17.75C11.9998 18.1642 12.3356 18.5 12.7498 18.5C13.1641 18.5 13.4998 18.1642 13.4998 17.75V10.75Z" fill="black"/>
<path fill-rule="evenodd" clip-rule="evenodd" d="M17.0077 7.19366C17.0104 7.46703 17.0131 7.73802 17.0152 8H18.7453C20.2641 8 21.4953 9.23122 21.4953 10.75V12.75C21.4953 15.4948 19.5722 17.7903 16.9998 18.3627V19.25C16.9998 20.7688 15.7686 22 14.2498 22H5.74984C4.23106 22 2.99984 20.7688 2.99984 19.25V9.73483L2.99512 9.76443C2.99853 9.72097 2.9973 8.24289 2.9962 6.92081C2.9957 6.32073 2.99522 5.7528 2.99522 5.36574C2.99522 3.71735 4.52769 2.58465 6.39518 2.60449C6.53392 2.60449 6.67088 2.61241 6.80547 2.62782C7.54122 1.77101 8.70228 1.25 9.96389 1.25C11.2287 1.25 12.3929 1.77378 13.1283 2.6348C13.2811 2.6148 13.6871 2.60449 13.8454 2.60449C15.4629 2.60449 16.9954 3.73719 16.9954 5.38558C16.9954 5.94925 17.0016 6.57805 17.0077 7.19366ZM7.76616 3.84648C8.14898 3.22931 8.96136 2.75 9.96389 2.75C10.9725 2.75 11.7882 3.23499 12.1682 3.85721C12.3451 4.1467 12.6942 4.28146 13.0197 4.18587C13.1974 4.13365 13.6411 4.10449 13.8454 4.10449C14.8788 4.10449 15.4954 4.79049 15.4954 5.38558L15.4998 7L4.49738 7C4.49628 6.48707 4.49524 5.86658 4.49524 5.36574C4.49524 4.77065 5.11175 4.08465 6.39518 4.10449C6.58481 4.10449 6.76526 4.1296 6.93235 4.17495C7.25234 4.2618 7.59138 4.12824 7.76616 3.84648ZM17.0152 9.5C17.0121 9.69807 17.0072 9.87143 16.9998 10.0128V16.8118C18.7347 16.2766 19.9953 14.6605 19.9953 12.75V10.75C19.9953 10.0596 19.4357 9.5 18.7453 9.5H17.0152ZM7.99984 10.75C7.99984 10.3358 7.66406 10 7.24984 10C6.83563 10 6.49984 10.3358 6.49984 10.75V17.75C6.49984 18.1642 6.83563 18.5 7.24984 18.5C7.66406 18.5 7.99984 18.1642 7.99984 17.75V10.75ZM13.4998 10.75C13.4998 10.3358 13.1641 10 12.7498 10C12.3356 10 11.9998 10.3358 11.9998 10.75V17.75C11.9998 18.1642 12.3356 18.5 12.7498 18.5C13.1641 18.5 13.4998 18.1642 13.4998 17.75V10.75Z" fill="black" fill-opacity="0.2"/>
</svg>
