<svg width="24" height="24" viewBox="0 0 24 24" fill="none" xmlns="http://www.w3.org/2000/svg">
<path fill-rule="evenodd" clip-rule="evenodd" d="M21 11.7504C21 11.7538 21 11.7573 21 11.7608C21 11.7642 21 11.7677 21 11.7712V19.25C21 19.6642 20.6642 20 20.25 20C19.8358 20 19.5 19.6642 19.5 19.25V14.7279C18.4225 15.768 16.8964 16.5215 15.3704 16.5215C13.9677 16.5215 13.3639 16.1652 12.844 15.8584C12.451 15.6265 12.1059 15.4229 11.5 15.4229C10.8941 15.4229 10.5491 15.6265 10.156 15.8584C9.63614 16.1652 9.03229 16.5215 7.62964 16.5215C5.16667 16.5215 2 13.958 2 11.7608C2 9.56349 5.16667 7 7.62964 7C9.03229 7 9.63614 7.35632 10.156 7.66311C10.5491 7.89503 10.8941 8.09864 11.5 8.09864C12.1059 8.09864 12.451 7.89503 12.844 7.66311C13.3639 7.35632 13.9677 7 15.3704 7C18.1766 7 20.9828 9.5478 20.9999 11.7406C21 11.7437 21 11.7468 21 11.75V11.7504ZM4.81507 11.7607C4.81507 11.3945 6.02142 9.92961 7.62989 9.92961C9.23836 9.92961 10.4447 11.3945 10.4447 11.7607C10.4447 12.1269 9.23836 13.5917 7.62989 13.5917C6.02142 13.5917 4.81507 12.1269 4.81507 11.7607ZM15.37 9.92961C13.7615 9.92961 12.5552 11.3945 12.5552 11.7607C12.5552 12.1269 13.7615 13.5917 15.37 13.5917C16.9785 13.5917 18.1848 12.1269 18.1848 11.7607C18.1848 11.3945 16.9785 9.92961 15.37 9.92961Z" fill="black"/>
</svg>
