<svg width="24" height="24" viewBox="0 0 24 24" fill="none" xmlns="http://www.w3.org/2000/svg">
<path fill-rule="evenodd" clip-rule="evenodd" d="M3.78027 2.00977C3.36606 2.00977 3.03027 2.34555 3.03027 2.75977C3.03027 3.17398 3.36606 3.50977 3.78027 3.50977H20.2803C20.6945 3.50977 21.0303 3.17398 21.0303 2.75977C21.0303 2.34555 20.6945 2.00977 20.2803 2.00977H3.78027ZM19 4.99976H5V20.9998C5 21.552 5.44772 21.9998 6 21.9998H18C18.5523 21.9998 19 21.552 19 20.9998V4.99976ZM9.75 10.7598C9.75 9.51713 10.7574 8.50977 12 8.50977C13.2426 8.50977 14.25 9.51713 14.25 10.7598C14.25 12.0024 13.2426 13.0098 12 13.0098C10.7574 13.0098 9.75 12.0024 9.75 10.7598ZM12 7.00977C9.92893 7.00977 8.25 8.6887 8.25 10.7598C8.25 12.8308 9.92893 14.5098 12 14.5098C14.0711 14.5098 15.75 12.8308 15.75 10.7598C15.75 8.6887 14.0711 7.00977 12 7.00977ZM10.25 17.7598C10.25 17.3456 10.5858 17.0098 11 17.0098H13C13.4142 17.0098 13.75 17.3456 13.75 17.7598C13.75 18.174 13.4142 18.5098 13 18.5098H11C10.5858 18.5098 10.25 18.174 10.25 17.7598Z" fill="black"/>
</svg>
