<svg width="24" height="24" viewBox="0 0 24 24" fill="none" xmlns="http://www.w3.org/2000/svg">
<path fill-rule="evenodd" clip-rule="evenodd" d="M8 4.44555C8 3.87671 8.35286 3.36753 8.88548 3.1678C10.8936 2.41477 13.1064 2.41477 15.1145 3.1678C15.6471 3.36753 16 3.87671 16 4.44555V6.25454C14.8662 5.46366 13.4872 4.99985 12 4.99985C10.5128 4.99985 9.13383 5.46366 8 6.25454V4.44555ZM12 18.9998C13.4872 18.9998 14.8662 18.536 16 17.7452V19.5541C16 20.123 15.6471 20.6322 15.1145 20.8319C13.1064 21.5849 10.8936 21.5849 8.88548 20.8319C8.35286 20.6322 8 20.123 8 19.5541V17.7452C9.13383 18.536 10.5128 18.9998 12 18.9998ZM17.5 11.9998C17.5 15.0374 15.0376 17.4998 12 17.4998C8.96243 17.4998 6.5 15.0374 6.5 11.9998C6.5 8.96228 8.96243 6.49985 12 6.49985C15.0376 6.49985 17.5 8.96228 17.5 11.9998ZM13.5 9.74985C13.5 9.33563 13.1642 8.99985 12.75 8.99985C12.3358 8.99985 12 9.33563 12 9.74985V11.9998H10.75C10.3358 11.9998 10 12.3356 10 12.7498C10 13.1641 10.3358 13.4998 10.75 13.4998H12.65C13.1194 13.4998 13.5 13.1193 13.5 12.6498V9.74985ZM20 11.2498C20 10.8356 19.6642 10.4998 19.25 10.4998C18.8358 10.4998 18.5 10.8356 18.5 11.2498V12.7498C18.5 13.1641 18.8358 13.4998 19.25 13.4998C19.6642 13.4998 20 13.1641 20 12.7498V11.2498Z" fill="black"/>
</svg>
