<svg width="24" height="24" viewBox="0 0 24 24" fill="none" xmlns="http://www.w3.org/2000/svg">
<path fill-rule="evenodd" clip-rule="evenodd" d="M3 7.6C3 6.71635 3.71634 6 4.6 6H15.4C16.2837 6 17 6.71634 17 7.6V17.4C17 18.2837 16.2837 19 15.4 19H4.6C3.71635 19 3 18.2837 3 17.4V7.6ZM5 8.75C5 8.33579 5.33579 8 5.75 8H7.75C8.16421 8 8.5 8.33579 8.5 8.75C8.5 9.16421 8.16421 9.5 7.75 9.5H5.75C5.33579 9.5 5 9.16421 5 8.75ZM18.6838 8.77211C18.2754 8.90822 18 9.29036 18 9.72079V15.2793C18 15.7097 18.2754 16.0918 18.6838 16.228L20.3419 16.7807C20.6657 16.8886 21 16.6476 21 16.3063V8.69374C21 8.35246 20.6657 8.11148 20.3419 8.2194L18.6838 8.77211Z" fill="black"/>
</svg>
