<svg width="24" height="24" viewBox="0 0 24 24" fill="none" xmlns="http://www.w3.org/2000/svg">
<path fill-rule="evenodd" clip-rule="evenodd" d="M8 6C7.44772 6 7 6.44772 7 7V11.616L3.90919 9.24261C3.70904 9.10264 3.43706 9.12774 3.26592 9.302L2.20022 10.3871C2.08807 10.5013 2.08531 10.6834 2.19396 10.8009L6.99992 16.0001L7 15.9995V17.5C7 18.3284 7.67157 19 8.5 19H15.5C16.3284 19 17 18.3284 17 17.5V15.9095C19.2822 15.4904 21 13.6648 21 11.4762V10.5238C21 8.02538 18.7614 6 16 6H8ZM17 7.5629V14.4371C18.4015 14.0501 19.4211 12.8709 19.4211 11.4762V10.5238C19.4211 9.12913 18.4015 7.94989 17 7.5629ZM12.25 9.5H10.5V11.25C10.5 11.6642 10.1642 12 9.75 12C9.33579 12 9 11.6642 9 11.25V8.85C9 8.38056 9.38056 8 9.85 8H12.25C12.6642 8 13 8.33579 13 8.75C13 9.16421 12.6642 9.5 12.25 9.5Z" fill="black"/>
</svg>
