<svg width="24" height="24" viewBox="0 0 24 24" fill="none" xmlns="http://www.w3.org/2000/svg">
<path d="M3 4C3 3.44772 3.44772 3 4 3H6.52381C7.07609 3 7.52381 3.44772 7.52381 4V6.52381C7.52381 7.07609 7.07609 7.52381 6.52381 7.52381H4C3.44772 7.52381 3 7.07609 3 6.52381V4Z" fill="black"/>
<path d="M3 10.3333C3 9.78103 3.44772 9.33331 4 9.33331H6.52381C7.07609 9.33331 7.52381 9.78103 7.52381 10.3333V12.8571C7.52381 13.4094 7.07609 13.8571 6.52381 13.8571H4C3.44772 13.8571 3 13.4094 3 12.8571V10.3333Z" fill="black"/>
<path d="M10.7857 9.33331C10.2334 9.33331 9.78571 9.78103 9.78571 10.3333V12.8571C9.78571 13.4094 10.2334 13.8571 10.7857 13.8571H13.3095C13.8618 13.8571 14.3095 13.4094 14.3095 12.8571V10.3333C14.3095 9.78103 13.8618 9.33331 13.3095 9.33331H10.7857Z" fill="black"/>
<path d="M9.78571 4C9.78571 3.44772 10.2334 3 10.7857 3H13.3095C13.8618 3 14.3095 3.44772 14.3095 4V6.52381C14.3095 7.07609 13.8618 7.52381 13.3095 7.52381H10.7857C10.2334 7.52381 9.78571 7.07609 9.78571 6.52381V4Z" fill="black"/>
<path d="M17.5714 3C17.0191 3 16.5714 3.44772 16.5714 4V6.52381C16.5714 7.07609 17.0191 7.52381 17.5714 7.52381H20.0952C20.6475 7.52381 21.0952 7.07609 21.0952 6.52381V4C21.0952 3.44772 20.6475 3 20.0952 3H17.5714Z" fill="black"/>
<path d="M16.5714 10.3333C16.5714 9.78103 17.0191 9.33331 17.5714 9.33331H20.0952C20.6475 9.33331 21.0952 9.78103 21.0952 10.3333V12.8571C21.0952 13.4094 20.6475 13.8571 20.0952 13.8571H17.5714C17.0191 13.8571 16.5714 13.4094 16.5714 12.8571V10.3333Z" fill="black"/>
<path d="M9.07845 18.2885L11.6572 21.512C11.8573 21.7622 12.2379 21.7622 12.4381 21.512L15.0168 18.2885C15.2787 17.9612 15.0456 17.4762 14.6264 17.4762H9.46888C9.04963 17.4762 8.81654 17.9612 9.07845 18.2885Z" fill="black"/>
</svg>
