<svg width="24" height="24" viewBox="0 0 24 24" fill="none" xmlns="http://www.w3.org/2000/svg">
<path d="M7.55227 7.85045C7.23965 7.40272 7 6.80049 7 6.00003C7 4.02901 8.9712 2.72751 10.4357 2.98754C10.475 2.99451 10.5147 2.97919 10.5379 2.94677C10.8418 2.5215 11.4167 1.79597 12.9999 2.00003C15.3837 2.30727 17.3847 4.70564 16.2418 7.41628C16.1772 7.32005 16.1068 7.22484 16.0308 7.13161C15.5134 6.49712 14.7023 5.91739 13.6084 5.75785C13.0904 5.6823 12.674 5.64108 12.3327 5.61076C12.2539 5.60376 12.1811 5.59748 12.1132 5.59162C12.0146 5.58313 11.8829 5.57552 11.7514 5.56793C11.5674 5.5573 11.3837 5.5467 11.2912 5.53367C11.1001 5.50676 10.9802 5.47468 10.8787 5.43056C10.7788 5.38705 10.6634 5.31721 10.5035 5.17897C10.1574 4.87983 9.56072 4.70564 9.03075 5.04615C8.50855 5.38167 8.10397 5.83685 7.84592 6.51233C7.69974 6.89499 7.605 7.33695 7.55227 7.85045Z" fill="black"/>
<path d="M9 9.00002C9.00001 10.6569 10.3432 12 12 12C13.6569 12 15 10.6569 15 9V8.25773C14.9608 8.19887 14.9169 8.13916 14.8683 8.07957C14.5496 7.6887 14.0583 7.33934 13.392 7.24215C12.9122 7.17218 12.5262 7.13386 12.2 7.10488C12.1359 7.09919 12.0726 7.09375 12.0101 7.08838C11.9176 7.08044 11.791 7.07263 11.6587 7.06449C11.4414 7.05112 11.208 7.03676 11.082 7.01902C10.8145 6.98134 10.5499 6.92331 10.2804 6.80603C10.0633 6.71159 9.86469 6.58829 9.66849 6.43425C9.48893 6.58423 9.35289 6.77086 9.24716 7.04763C9.09727 7.44 9 8.03748 9 9.00002Z" fill="black"/>
<path fill-rule="evenodd" clip-rule="evenodd" d="M7.77358 13C5.68949 13 4 14.6895 4 16.7736V20.5C4 21.3284 4.67157 22 5.5 22H18.5C19.3284 22 20 21.3284 20 20.5V16.7736C20 14.6895 18.3105 13 16.2264 13C16.0871 13 15.959 13.0768 15.8935 13.1998L14.374 16.0488L13.5333 13.5764C13.4162 13.2318 13.0926 13 12.7286 13H11.2718C10.9078 13 10.5842 13.2318 10.4671 13.5764L9.62628 16.0493L8.10655 13.1998C8.04097 13.0768 7.91295 13 7.77358 13ZM10.5938 17.8634L11.5588 19.6728C11.7471 20.0257 12.2529 20.0257 12.4412 19.6728L13.4064 17.8629L12.263 14.5H11.7374L10.5938 17.8634Z" fill="black"/>
</svg>
