<svg width="24" height="24" viewBox="0 0 24 24" fill="none" xmlns="http://www.w3.org/2000/svg">
<path fill-rule="evenodd" clip-rule="evenodd" d="M5 9.7472V9.5C5 5.91015 7.91015 3 11.5 3H11.7392C15.1969 3 18 5.80306 18 9.2608V10.2063C18 11.0609 17.8369 11.9077 17.5195 12.7012C17.1741 13.5647 16.74 14.3901 16.224 15.164L15.8257 15.7615C15.2873 16.5691 15 17.5179 15 18.4885C15 20.4278 13.4278 22 11.4885 22H11.3062C9.42395 22 7.84275 20.5848 7.6349 18.7141L7.60297 18.4268C7.53461 17.8115 7.3875 17.2075 7.16527 16.6297L5.44973 12.1693C5.15245 11.3964 5 10.5753 5 9.7472ZM9.75 9.5C9.75 8.62621 10.5554 7.75 11.5 7.75C12.4446 7.75 13.25 8.62621 13.25 9.5C13.25 9.91421 13.5858 10.25 14 10.25C14.4142 10.25 14.75 9.91421 14.75 9.5C14.75 7.84236 13.3169 6.25 11.5 6.25C9.68313 6.25 8.25 7.84236 8.25 9.5C8.25 10.8184 8.75922 11.736 9.46797 12.3776C9.97337 12.8352 10.25 13.2962 10.25 13.7361V15.5C10.25 15.9142 10.5858 16.25 11 16.25C11.4142 16.25 11.75 15.9142 11.75 15.5V13.7361C11.75 12.6609 11.0925 11.825 10.4747 11.2657C10.0646 10.8944 9.75 10.3743 9.75 9.5Z" fill="black"/>
</svg>
