<svg width="24" height="24" viewBox="0 0 24 24" fill="none" xmlns="http://www.w3.org/2000/svg">
<path fill-rule="evenodd" clip-rule="evenodd" d="M18.054 2.49556C17.7806 2.22219 17.3374 2.22218 17.064 2.49555L2.49555 17.064C2.22218 17.3373 2.22219 17.7806 2.49557 18.0539L5.94629 21.5046C6.21967 21.7779 6.66288 21.7779 6.93625 21.5046L21.5048 6.93638C21.7782 6.66301 21.7782 6.21978 21.5048 5.94641L18.054 2.49556ZM6.96503 16.4779L5.80672 15.3198L6.98543 14.1411L8.14362 15.2991C8.46914 15.6246 8.46919 16.1523 8.14374 16.4778C7.81828 16.8033 7.29056 16.8034 6.96503 16.4779ZM9.74327 13.6997L8.58495 12.5416L9.76366 11.3629L10.9218 12.5208C11.2474 12.8463 11.2474 13.374 10.922 13.6996C10.5965 14.0251 10.0688 14.0251 9.74327 13.6997ZM12.5215 10.9215L11.3632 9.76338L12.5419 8.58467L13.7001 9.74264C14.0256 10.0681 14.0257 10.5958 13.7002 10.9213C13.3747 11.2469 12.847 11.2469 12.5215 10.9215ZM15.3002 8.14469L14.1411 6.98541L15.3198 5.80671L16.479 6.96613C16.8044 7.29166 16.8044 7.81938 16.4789 8.14483C16.1533 8.47028 15.6256 8.47022 15.3002 8.14469Z" fill="black"/>
</svg>
