<svg width="24" height="24" viewBox="0 0 24 24" fill="none" xmlns="http://www.w3.org/2000/svg">
<path fill-rule="evenodd" clip-rule="evenodd" d="M15.2927 3.79289C15.6833 3.40237 16.3164 3.40237 16.707 3.79289L18.2499 5.33579L19.7927 3.79289C20.1833 3.40237 20.8164 3.40237 21.207 3.79289C21.5975 4.18342 21.5975 4.81658 21.207 5.20711L19.6641 6.75L21.207 8.29289C21.5975 8.68342 21.5975 9.31658 21.207 9.70711C20.8164 10.0976 20.1833 10.0976 19.7927 9.70711L18.2499 8.16421L16.707 9.70711C16.3164 10.0976 15.6833 10.0976 15.2927 9.70711C14.9022 9.31658 14.9022 8.68342 15.2927 8.29289L16.8356 6.75L15.2927 5.20711C14.9022 4.81658 14.9022 4.18342 15.2927 3.79289ZM3.41316 9.05963C3.73048 13.0707 6.04546 15.9486 7.73039 17.6518C9.41532 19.355 11.8845 21.6082 15.892 21.9688C16.882 22.0578 18.0435 21.9688 19.0213 21.0216L19.9762 20.0769C20.7615 19.3001 20.832 18.0983 20.1337 17.3925L18.2374 15.4755C17.5391 14.7698 16.3366 14.8273 15.5513 15.6041L14.424 16.7194C14.2355 16.9059 13.986 17.0146 13.752 16.9457C13.0714 16.7452 11.7986 16.0767 10.5739 14.8388C9.34922 13.6008 8.69431 12.321 8.50117 11.6383C8.43478 11.4036 8.54623 11.1552 8.73475 10.9687L9.86208 9.85348C10.6473 9.07668 10.7178 7.8748 10.0196 7.16901L8.1232 5.25209C7.42497 4.5463 6.22241 4.60387 5.43719 5.38067L4.48225 6.32538C3.72811 7.07144 3.33476 8.06866 3.41316 9.05963Z" fill="black"/>
</svg>
