<svg width="24" height="24" viewBox="0 0 24 24" fill="none" xmlns="http://www.w3.org/2000/svg">
<path fill-rule="evenodd" clip-rule="evenodd" d="M2.77231 11.2456C3.90549 8.78901 5.64458 6.66081 7.8262 5.06095L11.4086 2.43383C11.7606 2.1757 12.2394 2.1757 12.5914 2.43383L16.1738 5.06095C18.3554 6.66081 20.0945 8.78901 21.2277 11.2456C21.7365 12.3487 22 13.549 22 14.7638V20.5002C22 21.0524 21.5523 21.5002 21 21.5002H3C2.44772 21.5002 2 21.0524 2 20.5002V15.5102H18.5C18.9142 15.5102 19.25 15.1744 19.25 14.7602C19.25 14.346 18.9142 14.0102 18.5 14.0102H2.03387C2.11991 13.0551 2.36907 12.1198 2.77231 11.2456ZM5.5 18.0102C5.08579 18.0102 4.75 18.346 4.75 18.7602C4.75 19.1744 5.08579 19.5102 5.5 19.5102H6.5C6.91421 19.5102 7.25 19.1744 7.25 18.7602C7.25 18.346 6.91421 18.0102 6.5 18.0102H5.5ZM10.75 18.7602C10.75 18.346 11.0858 18.0102 11.5 18.0102H12.5C12.9142 18.0102 13.25 18.346 13.25 18.7602C13.25 19.1744 12.9142 19.5102 12.5 19.5102H11.5C11.0858 19.5102 10.75 19.1744 10.75 18.7602ZM17.5 18.0102C17.0858 18.0102 16.75 18.346 16.75 18.7602C16.75 19.1744 17.0858 19.5102 17.5 19.5102H18.5C18.9142 19.5102 19.25 19.1744 19.25 18.7602C19.25 18.346 18.9142 18.0102 18.5 18.0102H17.5Z" fill="black"/>
</svg>
