<svg width="24" height="24" viewBox="0 0 24 24" fill="none" xmlns="http://www.w3.org/2000/svg">
<path fill-rule="evenodd" clip-rule="evenodd" d="M8 7.75C8 7.33579 8.33579 7 8.75 7H10.75C11.1642 7 11.5 7.33579 11.5 7.75C11.5 8.16421 11.1642 8.5 10.75 8.5H8.75C8.33579 8.5 8 8.16421 8 7.75ZM7 5C6.44772 5 6 5.44772 6 6V12C6 12.5523 6.44772 13 7 13H11.5V15.75C11.5 16.1642 11.1642 16.5 10.75 16.5H4.5V15H3V19.5H4.5V18H10.75C11.9926 18 13 16.9926 13 15.75V13H17C17.5523 13 18 12.5523 18 12V6C18 5.44772 17.5523 5 17 5H7ZM20.5 7.25C20.5 6.83579 20.1642 6.5 19.75 6.5C19.3358 6.5 19 6.83579 19 7.25V10.75C19 11.1642 19.3358 11.5 19.75 11.5C20.1642 11.5 20.5 11.1642 20.5 10.75V7.25Z" fill="black"/>
</svg>
