<svg width="24" height="24" viewBox="0 0 24 24" fill="none" xmlns="http://www.w3.org/2000/svg">
<path fill-rule="evenodd" clip-rule="evenodd" d="M12 5C12.6374 5 13.1633 5.47704 13.2403 6.09356C16.9113 6.65341 19.7562 9.66553 19.985 13.4998C20.0015 13.7755 19.776 14 19.4999 14H4.4999C4.22376 14 3.99831 13.7755 4.01476 13.4998C4.24357 9.66546 7.08856 6.6533 10.7597 6.09353C10.8367 5.47703 11.3626 5 12 5ZM6.26777 18.2678L5 17H4.25C3.83579 17 3.5 16.6642 3.5 16.25C3.5 15.8358 3.83579 15.5 4.25 15.5H19.75C20.1642 15.5 20.5 15.8358 20.5 16.25C20.5 16.6642 20.1642 17 19.75 17H19L17.7322 18.2678C17.2634 18.7366 16.6275 19 15.9645 19H8.03553C7.37249 19 6.73661 18.7366 6.26777 18.2678ZM10.4997 8.52182C10.6303 8.91367 10.4195 9.33711 10.0287 9.46939L10.0243 9.47093C10.0186 9.47298 10.0077 9.47697 9.99206 9.48301C9.96079 9.49509 9.91084 9.51529 9.84594 9.5445C9.71581 9.60306 9.5277 9.69684 9.31067 9.83249C8.87433 10.1052 8.33793 10.5364 7.9122 11.175C7.68244 11.5197 7.21679 11.6128 6.87214 11.383C6.52749 11.1533 6.43436 10.6876 6.66413 10.343C7.2384 9.48156 7.952 8.91279 8.51567 8.56049C8.79863 8.38364 9.04802 8.25868 9.23039 8.17661C9.32175 8.1355 9.3968 8.10493 9.45146 8.08381C9.4844 8.07108 9.51749 8.05867 9.55099 8.04748C9.94395 7.91649 10.3687 8.12886 10.4997 8.52182Z" fill="black"/>
</svg>
