<svg width="24" height="24" viewBox="0 0 24 24" fill="none" xmlns="http://www.w3.org/2000/svg">
<path fill-rule="evenodd" clip-rule="evenodd" d="M5 6.96296C4.17157 6.96296 3.5 7.63453 3.5 8.46296V17.5C3.5 18.3284 4.17157 19 5 19H19C19.8284 19 20.5 18.3284 20.5 17.5V8.46296C20.5 7.63454 19.8284 6.96296 19 6.96296H17.5625C17.2864 6.96296 17.0625 6.73911 17.0625 6.46296V6C17.0625 5.17157 16.3909 4.5 15.5625 4.5H8.4375C7.60907 4.5 6.9375 5.17157 6.9375 6V6.46296C6.9375 6.73911 6.71364 6.96296 6.4375 6.96296H5ZM14.5 12.5C14.5 13.8807 13.3807 15 12 15C10.6193 15 9.5 13.8807 9.5 12.5C9.5 11.1193 10.6193 10 12 10C13.3807 10 14.5 11.1193 14.5 12.5ZM16 12.5C16 14.7091 14.2091 16.5 12 16.5C9.79086 16.5 8 14.7091 8 12.5C8 10.2909 9.79086 8.5 12 8.5C14.2091 8.5 16 10.2909 16 12.5Z" fill="black"/>
</svg>
