<svg width="24" height="24" viewBox="0 0 24 24" fill="none" xmlns="http://www.w3.org/2000/svg">
<path fill-rule="evenodd" clip-rule="evenodd" d="M22.0675 12.6733C22.0803 12.465 22.0869 12.255 22.0869 12.0434C22.0869 6.4966 17.5903 2 12.0434 2C6.4966 2 2 6.4966 2 12.0434C2 17.5903 6.4966 22.0869 12.0434 22.0869C12.2272 22.0869 12.4099 22.0819 12.5913 22.0722C12.8451 20.0217 13.7163 17.5274 15.6218 15.6219C17.6958 13.548 19.9118 12.8019 22.0675 12.6733ZM11.7161 8.83583C11.4573 8.51238 10.9853 8.45994 10.6619 8.7187C10.3384 8.97745 10.286 9.44942 10.5447 9.77287C10.7796 10.0665 11.1728 10.746 11.3022 11.5869C11.4272 12.3998 11.3082 13.3598 10.5447 14.3141C10.286 14.6375 10.3384 15.1095 10.6619 15.3682C10.9853 15.627 11.4573 15.5746 11.7161 15.2511C12.7787 13.9228 12.964 12.5241 12.7847 11.3588C12.6097 10.2214 12.0899 9.30311 11.7161 8.83583ZM7.93476 10.4456C7.58256 10.4456 7.29165 10.6597 7.09922 10.9484C6.90572 11.2386 6.79346 11.6265 6.79346 12.0434C6.79346 12.4604 6.90572 12.8482 7.09922 13.1385C7.29165 13.4271 7.58256 13.6413 7.93476 13.6413C8.28695 13.6413 8.57786 13.4271 8.7703 13.1385C8.9638 12.8482 9.07606 12.4604 9.07606 12.0434C9.07606 11.6265 8.9638 11.2386 8.7703 10.9484C8.57786 10.6597 8.28695 10.4456 7.93476 10.4456ZM15.4282 6.83261C15.0716 6.47604 14.4935 6.47604 14.1369 6.83261C13.7804 7.18917 13.7804 7.76728 14.1369 8.12384C14.2295 8.21643 14.5163 8.64455 14.7863 9.34674C15.044 10.0167 15.2391 10.8163 15.2391 11.5869V11.6909C15.2391 12.0626 15.6302 12.3044 15.9627 12.1381L16.7888 11.7251C16.9581 11.6404 17.0667 11.4672 17.0578 11.278C17.0135 10.3326 16.7731 9.42535 16.4907 8.69122C16.1901 7.90972 15.7921 7.19654 15.4282 6.83261Z" fill="black"/>
<path d="M16.6825 16.6826C18.3146 15.0505 20.0156 14.3865 21.7197 14.2063C19.8314 17.4548 17.1831 19.9384 14.1702 21.8613L14.1352 21.8687C14.4142 20.1568 15.1801 18.1849 16.6825 16.6826Z" fill="black"/>
</svg>
