<svg width="24" height="24" viewBox="0 0 24 24" fill="none" xmlns="http://www.w3.org/2000/svg">
<path d="M6.32922 2.10557C6.668 1.428 7.36053 1 8.11807 1H15.882C16.6395 1 17.3321 1.428 17.6709 2.10557L19.1181 5H20C20.5523 5 21 5.44772 21 6C21 6.55228 20.5523 7 20 7H4C3.44772 7 3 6.55228 3 6C3 5.44772 3.44772 5 4 5H4.88201L6.32922 2.10557Z" fill="black"/>
<path d="M4.85437 9H19.1456L17.6088 20.2702C17.4736 21.2612 16.6272 22 15.6271 22H8.37288C7.37274 22 6.52635 21.2612 6.39122 20.2702L4.85437 9Z" fill="black"/>
</svg>
