<svg width="24" height="24" viewBox="0 0 24 24" fill="none" xmlns="http://www.w3.org/2000/svg">
<path fill-rule="evenodd" clip-rule="evenodd" d="M15 3H4C3.44772 3 3 3.44772 3 4V18.0195L10.9087 10.5271C11.259 10.1952 11.8151 10.2212 12.1329 10.5844L15.0365 13.9028L16.8951 12.0442C17.2395 11.6998 17.8022 11.7146 18.128 12.0766L21 15.2677V9H15.85C15.3806 9 15 8.61944 15 8.15V3ZM20.991 7.5C20.9861 7.4892 20.9793 7.47926 20.9707 7.47071L16.5293 3.02929C16.5207 3.02074 16.5108 3.0139 16.5 3.00898V7.5H20.991ZM4 20.5C3.6189 20.5 3.28758 20.2868 3.11882 19.9732L11.4494 12.0811L14.3652 15.4134C14.689 15.7835 15.2582 15.8024 15.6059 15.4547L17.4714 13.5893L21 17.51V19.5C21 20.0523 20.5523 20.5 20 20.5H4ZM8.5 8C8.5 8.27614 8.27614 8.5 8 8.5C7.72386 8.5 7.5 8.27614 7.5 8C7.5 7.72386 7.72386 7.5 8 7.5C8.27614 7.5 8.5 7.72386 8.5 8ZM10 8C10 9.10457 9.10457 10 8 10C6.89543 10 6 9.10457 6 8C6 6.89543 6.89543 6 8 6C9.10457 6 10 6.89543 10 8Z" fill="black"/>
</svg>
