<svg width="24" height="24" viewBox="0 0 24 24" fill="none" xmlns="http://www.w3.org/2000/svg">
<path fill-rule="evenodd" clip-rule="evenodd" d="M20.756 9.96008L18.5 7.90923V4.50014C18.5 3.94785 18.0523 3.50014 17.5 3.50014C16.9478 3.50014 16.5 3.94785 16.5 4.50014V6.09104L12.8745 2.79511C12.3787 2.34434 11.6214 2.34434 11.1256 2.79511L3.2441 9.96008C2.80449 10.3597 3.08722 11.091 3.68134 11.091H5.63641V19.1819C5.63641 19.7342 6.08412 20.1819 6.63641 20.1819H17.3637C17.916 20.1819 18.3637 19.7342 18.3637 19.1819V11.091H20.3187C20.9129 11.091 21.1956 10.3597 20.756 9.96008ZM8.2858 12.2142C8.42395 13.9605 9.43179 15.2134 10.1653 15.9549C10.8989 16.6964 11.9739 17.6773 13.7185 17.8343C14.1495 17.8731 14.6552 17.8343 15.0809 17.4219L15.4966 17.0107C15.8385 16.6725 15.8692 16.1492 15.5652 15.842L14.7396 15.0074C14.4356 14.7002 13.9121 14.7252 13.5702 15.0634L13.0794 15.5489C12.9974 15.6301 12.8887 15.6775 12.7869 15.6475C12.4906 15.5602 11.9364 15.2691 11.4033 14.7302C10.8701 14.1913 10.585 13.6341 10.5009 13.3368C10.472 13.2347 10.5205 13.1266 10.6026 13.0454L11.0934 12.5598C11.4352 12.2216 11.4659 11.6984 11.1619 11.3911L10.3363 10.5566C10.0324 10.2493 9.50882 10.2744 9.16697 10.6126L8.75123 11.0239C8.42291 11.3487 8.25167 11.7828 8.2858 12.2142Z" fill="black"/>
</svg>
