<svg width="24" height="24" viewBox="0 0 24 24" fill="none" xmlns="http://www.w3.org/2000/svg">
<path fill-rule="evenodd" clip-rule="evenodd" d="M17.3171 3.5668C17.0038 3.25626 16.4983 3.2579 16.187 3.57045L14.5449 5.21943L18.7719 9.44641L20.4334 7.78847C20.7474 7.47518 20.7465 6.96626 20.4315 6.65401L17.3171 3.5668ZM12.6223 5.47073C12.3085 5.15969 11.802 5.16191 11.491 5.4757L5.26269 11.7589C3.32261 13.7161 3.33647 16.8754 5.29366 18.8155C7.25085 20.7556 10.4102 20.7417 12.3503 18.7846L18.5786 12.5014C18.8896 12.1876 18.8874 11.681 18.5736 11.37L12.6223 5.47073ZM12.511 8.45021C12.2181 8.15732 11.7433 8.15732 11.4504 8.45021C11.1575 8.74311 11.1575 9.21798 11.4504 9.51087L14.4696 12.5301C14.7625 12.823 15.2374 12.823 15.5303 12.5301C15.8232 12.2373 15.8232 11.7624 15.5303 11.4695L12.511 8.45021ZM7.8144 16.2052C8.40893 16.7945 9.36863 16.7903 9.95795 16.1958C10.5473 15.6012 10.5431 14.6415 9.94854 14.0522C9.35402 13.4629 8.39432 13.4671 7.80499 14.0616C7.21567 14.6561 7.21988 15.6158 7.8144 16.2052ZM6.75841 17.2705C7.94128 18.443 9.85072 18.4346 11.0233 17.2517C12.1958 16.0689 12.1874 14.1594 11.0045 12.9869C9.82166 11.8144 7.91222 11.8227 6.73969 13.0056C5.56715 14.1885 5.57553 16.0979 6.75841 17.2705Z" fill="black"/>
</svg>
