<svg width="24" height="24" viewBox="0 0 24 24" fill="none" xmlns="http://www.w3.org/2000/svg">
<path d="M3.72171 4.30743C3.00009 4.7404 2.60593 5.26458 2.51867 5.77995C2.5062 5.85358 2.5 5.92703 2.5 6C2.5 6.63287 2.96995 7.30385 3.93466 7.81233C4.17895 7.94109 4.2726 8.2435 4.14384 8.48779C4.01508 8.73208 3.71267 8.82573 3.46838 8.69697C3.11166 8.50895 2.78273 8.28547 2.5 8.03066V9C2.5 9.58378 2.897 10.1977 3.72172 10.6926C4.53648 11.1814 5.69433 11.5 7 11.5C8.30567 11.5 9.46352 11.1814 10.2783 10.6926C11.103 10.1977 11.5 9.58378 11.5 9V8.03089C11.2874 8.22265 11.049 8.39634 10.7928 8.55007C9.7979 9.147 8.45575 9.5 7 9.5C6.63748 9.5 6.28286 9.47813 5.93955 9.43632C5.66543 9.40294 5.47028 9.15366 5.50367 8.87954C5.53705 8.60542 5.78633 8.41027 6.06045 8.44366C6.36336 8.48055 6.67759 8.5 7 8.5C8.30567 8.5 9.46353 8.18143 10.2783 7.69257C11.103 7.19775 11.5 6.5838 11.5 6C11.5 5.4162 11.103 4.80225 10.2783 4.30743C9.46353 3.81857 8.30567 3.5 7 3.5C5.85754 3.5 4.82825 3.74391 4.04295 4.13238C3.93076 4.18787 3.82356 4.24632 3.72171 4.30743Z" fill="black"/>
<path d="M3.72171 14.3074C3.00009 14.7404 2.60593 15.2646 2.51867 15.78C2.5062 15.8536 2.5 15.927 2.5 16C2.5 16.6329 2.96995 17.3038 3.93466 17.8123C4.17895 17.9411 4.2726 18.2435 4.14384 18.4878C4.01508 18.7321 3.71267 18.8257 3.46838 18.697C3.11166 18.5089 2.78273 18.2855 2.5 18.0307V19C2.5 19.5838 2.897 20.1977 3.72172 20.6926C4.53648 21.1814 5.69433 21.5 7 21.5C8.30567 21.5 9.46352 21.1814 10.2783 20.6926C11.103 20.1977 11.5 19.5838 11.5 19V18.0309C11.2874 18.2226 11.049 18.3963 10.7928 18.5501C9.7979 19.147 8.45575 19.5 7 19.5C6.63748 19.5 6.28286 19.4781 5.93955 19.4363C5.66543 19.4029 5.47028 19.1537 5.50367 18.8795C5.53705 18.6054 5.78633 18.4103 6.06045 18.4437C6.36336 18.4805 6.67759 18.5 7 18.5C8.30567 18.5 9.46353 18.1814 10.2783 17.6926C11.103 17.1977 11.5 16.5838 11.5 16C11.5 15.4162 11.103 14.8023 10.2783 14.3074C9.46353 13.8186 8.30567 13.5 7 13.5C5.85754 13.5 4.82825 13.7439 4.04295 14.1324C3.93076 14.1879 3.82356 14.2463 3.72171 14.3074Z" fill="black"/>
<path d="M12.5187 10.78C12.6059 10.2646 13.0001 9.7404 13.7217 9.30743C13.8236 9.24632 13.9308 9.18787 14.0429 9.13238C14.8282 8.74391 15.8575 8.5 17 8.5C18.3057 8.5 19.4635 8.81857 20.2783 9.30743C21.103 9.80225 21.5 10.4162 21.5 11C21.5 11.5838 21.103 12.1977 20.2783 12.6926C19.4635 13.1814 18.3057 13.5 17 13.5C16.6776 13.5 16.3634 13.4805 16.0604 13.4437C15.7863 13.4103 15.5371 13.6054 15.5037 13.8795C15.4703 14.1537 15.6654 14.4029 15.9396 14.4363C16.2829 14.4781 16.6375 14.5 17 14.5C18.4558 14.5 19.7979 14.147 20.7928 13.5501C21.049 13.3963 21.2874 13.2226 21.5 13.0309V14C21.5 14.5838 21.103 15.1977 20.2783 15.6926C19.4635 16.1814 18.3057 16.5 17 16.5C15.6943 16.5 14.5365 16.1814 13.7217 15.6926C12.897 15.1977 12.5 14.5838 12.5 14V13.0307C12.7827 13.2855 13.1117 13.5089 13.4684 13.697C13.7127 13.8257 14.0151 13.7321 14.1438 13.4878C14.2726 13.2435 14.1789 12.9411 13.9347 12.8123C12.97 12.3038 12.5 11.6329 12.5 11C12.5 10.927 12.5062 10.8536 12.5187 10.78Z" fill="black"/>
</svg>
