<svg width="24" height="24" viewBox="0 0 24 24" fill="none" xmlns="http://www.w3.org/2000/svg">
<path d="M12 3C10.6784 3 9.5 3.6428 9.5 4.43574V11.0234L14.5 11.0234V4.43574C14.5 3.6428 13.3216 3 12 3Z" fill="black"/>
<path d="M12 15C10.6271 15 9.5127 13.8933 9.50011 12.5234L14.4999 12.5234C14.4873 13.8933 13.3729 15 12 15Z" fill="black"/>
<path d="M5.60372 14.5202C4.68584 13.2777 4.15527 11.7721 4.15527 10.1799C4.15527 8.58774 4.68582 7.08241 5.60372 5.83989C5.84984 5.50673 5.77928 5.03712 5.44611 4.79101C5.11295 4.54489 4.64335 4.61545 4.39723 4.94861C3.29928 6.43487 2.65527 8.24954 2.65527 10.1799C2.65527 12.1103 3.29926 13.9252 4.39723 15.4115C4.64335 15.7446 5.11295 15.8152 5.44611 15.5691C5.77928 15.323 5.84984 14.8534 5.60372 14.5202Z" fill="black"/>
<path d="M7.5987 12.1344C7.17431 11.5455 6.94263 10.8794 6.94263 10.18C6.94263 9.4806 7.17431 8.81448 7.5987 8.22557C7.84086 7.88952 7.76476 7.42079 7.42871 7.17862C7.09266 6.93646 6.62393 7.01256 6.38176 7.34861C5.7916 8.16756 5.44263 9.13597 5.44263 10.18C5.44263 11.224 5.7916 12.1924 6.38176 13.0114C6.62393 13.3474 7.09266 13.4235 7.42871 13.1813C7.76476 12.9392 7.84086 12.4704 7.5987 12.1344Z" fill="black"/>
<path d="M19.8447 10.2144C19.8447 8.62217 19.3142 7.1166 18.3963 5.87409C18.1502 5.54093 18.2207 5.07133 18.5539 4.82521C18.887 4.57909 19.3567 4.64965 19.6028 4.98281C20.7007 6.46909 21.3447 8.28402 21.3447 10.2144C21.3447 12.1447 20.7007 13.9594 19.6028 15.4457C19.3567 15.7788 18.887 15.8494 18.5539 15.6033C18.2207 15.3572 18.1502 14.8876 18.3963 14.5544C19.3142 13.3119 19.8447 11.8065 19.8447 10.2144Z" fill="black"/>
<path d="M16.3874 8.22498C16.8118 8.81388 17.0435 9.48001 17.0435 10.1794C17.0435 10.8788 16.8118 11.5449 16.3874 12.1338C16.1452 12.4699 16.2213 12.9386 16.5574 13.1808C16.8934 13.4229 17.3622 13.3468 17.6043 13.0108C18.1945 12.1918 18.5435 11.2234 18.5435 10.1794C18.5435 9.13537 18.1945 8.16696 17.6043 7.34801C17.3622 7.01196 16.8934 6.93586 16.5574 7.17803C16.2213 7.42019 16.1452 7.88893 16.3874 8.22498Z" fill="black"/>
<path d="M12.75 17.25C12.75 16.8358 12.4142 16.5 12 16.5C11.5858 16.5 11.25 16.8358 11.25 17.25V19.5H8.75C8.33579 19.5 8 19.8358 8 20.25C8 20.6642 8.33579 21 8.75 21H15.25C15.6642 21 16 20.6642 16 20.25C16 19.8358 15.6642 19.5 15.25 19.5H12.75V17.25Z" fill="black"/>
</svg>
