<svg width="24" height="24" viewBox="0 0 24 24" fill="none" xmlns="http://www.w3.org/2000/svg">
<path fill-rule="evenodd" clip-rule="evenodd" d="M4.5 3.5C4.5 3.22386 4.72386 3 5 3H19C19.2761 3 19.5 3.22386 19.5 3.5V20.5C19.5 20.7761 19.2761 21 19 21H5C4.72386 21 4.5 20.7761 4.5 20.5V3.5ZM17 7.5H7V6H17V7.5ZM17 10.5H7V9H17V10.5ZM11.7835 17.9987L12.7161 14.8899L13.8201 16.8218C13.9714 17.0866 14.2531 17.2501 14.5581 17.2501L16.25 17.25C16.6642 17.25 17 16.9142 17 16.5C17 16.0858 16.6642 15.75 16.25 15.75L14.9353 15.7501L13.2669 12.8303C12.8963 12.1818 11.9294 12.2923 11.7147 13.0078L10.7696 16.1582L10.1723 15.1627C10.0187 14.9067 9.74201 14.7501 9.44343 14.7501L7.75 14.75C7.33579 14.75 7 15.0858 7 15.5C7 15.9142 7.33579 16.25 7.75 16.25L9.07541 16.2501L10.2405 18.1918C10.6203 18.8249 11.5713 18.706 11.7835 17.9987Z" fill="black"/>
</svg>
