<svg width="24" height="24" viewBox="0 0 24 24" fill="none" xmlns="http://www.w3.org/2000/svg">
<path fill-rule="evenodd" clip-rule="evenodd" d="M12.2727 2C8.25611 2 5 5.25611 5 9.27272V10.311C6.12876 9.99295 8.3116 9.45398 10.6626 10.3666C10.9899 10.4937 11.2046 10.8089 11.2046 11.1585V15.9213C11.8994 16.0152 12.9455 16.0585 13.909 15.8177C14.3109 15.7172 14.7181 15.9615 14.8185 16.3634C14.919 16.7652 14.6747 17.1724 14.2728 17.2729C12.722 17.6606 11.0851 17.4593 10.3631 17.2945C9.96416 17.2034 9.70456 16.8494 9.70456 16.4672V11.6214C7.8688 11.0625 6.18193 11.5331 5.20605 11.8119C5.13732 11.8316 5.0681 11.8409 5 11.841V14.7273C5 18.7439 8.25611 22 12.2727 22C16.2893 22 19.5455 18.7439 19.5455 14.7273V11.7201C17.5967 11.0119 15.7795 11.5182 14.7515 11.8119C14.3532 11.9257 13.9381 11.6951 13.8243 11.2968C13.7105 10.8985 13.9412 10.4834 14.3394 10.3696L14.3638 10.3626C15.332 10.0859 17.322 9.51715 19.5455 10.1451V9.27272C19.5455 5.25611 16.2893 2 12.2727 2Z" fill="black"/>
</svg>
