<svg width="24" height="24" viewBox="0 0 24 24" fill="none" xmlns="http://www.w3.org/2000/svg">
<path fill-rule="evenodd" clip-rule="evenodd" d="M5 3C4.72386 3 4.5 3.22386 4.5 3.5V20.5C4.5 20.7761 4.72386 21 5 21H19C19.2761 21 19.5 20.7761 19.5 20.5V3.5C19.5 3.22386 19.2761 3 19 3H5ZM7 13V14.5H17V13H7ZM13 18H7V16.5H13V18ZM8.75 11C8.75 9.20507 10.2051 7.75 12 7.75C12.4636 7.75 12.9027 7.84662 13.2997 8.0201L13.9003 6.64557C13.3174 6.3909 12.6742 6.25 12 6.25C9.37665 6.25 7.25 8.37665 7.25 11H8.75ZM14.275 8.679C14.8776 9.26972 15.25 10.0907 15.25 11H16.75C16.75 9.6714 16.2035 8.46907 15.325 7.60785L14.275 8.679Z" fill="black"/>
</svg>
