<svg width="24" height="24" viewBox="0 0 24 24" fill="none" xmlns="http://www.w3.org/2000/svg">
<path fill-rule="evenodd" clip-rule="evenodd" d="M5.07089 11C5.55612 7.60771 8.47353 5 12 5C15.5265 5 18.4439 7.60771 18.9291 11H16.5C15.8107 11 15.0595 10.8699 14.5721 10.3721L14.0971 9.88708C13.8131 9.59705 13.4744 9.36895 13.1015 9.21662C12.3944 8.92779 11.6056 8.92779 10.8985 9.21662C10.5256 9.36895 10.1869 9.59705 9.90288 9.88708L9.42795 10.3721C8.94051 10.8699 8.18935 11 7.5 11H5.07089ZM5.01805 12.5066C5.26183 15.9153 7.94629 18.6487 11.3333 18.9687V17.2768C11.3333 14.6448 9.07733 12.5 6.5 12.5L5.01805 12.5066ZM12.6667 18.9687C16.0559 18.6485 18.7416 15.9117 18.9824 12.5H17.5C14.9227 12.5 12.6667 14.6448 12.6667 17.2768V18.9687ZM12 3C7.02944 3 3 7.02944 3 12C3 16.9706 7.02944 21 12 21C16.9706 21 21 16.9706 21 12C21 7.02944 16.9706 3 12 3ZM13.3333 11.8304C13.3333 12.5824 12.7364 13.1919 12 13.1919C11.2636 13.1919 10.6667 12.5824 10.6667 11.8304C10.6667 11.0784 11.2636 10.4687 12 10.4687C12.7364 10.4687 13.3333 11.0784 13.3333 11.8304Z" fill="black"/>
</svg>
