<svg width="24" height="24" viewBox="0 0 24 24" fill="none" xmlns="http://www.w3.org/2000/svg">
<path d="M17.4998 6C19.9848 6 21.9994 5.32856 21.9998 4.50024C21.9988 3.67208 19.9845 3 17.4998 3C15.0833 3 13.1117 3.63489 13.0044 4.43154C13.0044 4.45478 13.006 4.47789 13.0092 4.50087C13.0062 4.51037 13.0046 4.52047 13.0046 4.53095L13.0045 4.56977C13.1139 5.36581 15.0846 6 17.4998 6Z" fill="black"/>
<path d="M17.4998 7C18.82 7 20.0567 6.8231 20.998 6.50934C21.3535 6.39082 21.6994 6.24217 22.0002 6.05457V7.49998C22.0002 8.3284 19.9853 8.99998 17.5 8.99998C17.3566 8.99998 17.2148 8.99774 17.0748 8.99337C16.7572 8.78293 16.3833 8.6191 15.998 8.49066C15.2446 8.23953 14.3019 8.07608 13.2787 8.02083C13.1164 7.87477 13.0205 7.71798 13.0029 7.55454L13.0037 6.05732C13.3035 6.24363 13.6477 6.3914 14.0016 6.50934C14.9428 6.8231 16.1796 7 17.4998 7Z" fill="black"/>
<path d="M18.0002 14.9908C20.2499 14.9078 21.9998 14.272 21.9998 13.5L22.0002 12.0548C21.6994 12.2423 21.3537 12.3909 20.9983 12.5093C20.1769 12.7831 19.1305 12.9527 18.0001 12.9914L18.0002 14.9908Z" fill="black"/>
<path d="M18 11.9908C20.25 11.9079 22.0002 11.2721 22.0002 10.5V9.0548C21.6994 9.24228 21.3537 9.39086 20.9983 9.50933C20.1561 9.79004 19.0774 9.9612 17.9141 9.99414C17.9678 10.1474 17.9998 10.316 17.9998 10.5C17.9998 11.2506 17.9998 11.251 17.9998 11.251C17.9998 11.251 18 11.2514 18 11.9908Z" fill="black"/>
<path d="M16.9953 10.567C16.8902 11.3644 14.9177 12 12.4998 12C10.015 12 8.00056 11.3287 7.99976 10.5005L7.99976 10.4988C8.00173 9.67092 10.0157 9 12.4998 9C14.9159 9 16.8873 9.63474 16.9951 10.4313C16.9951 10.454 16.9935 10.4766 16.9904 10.4991C16.9936 10.5088 16.9953 10.5193 16.9953 10.5301L16.9953 10.567Z" fill="black"/>
<path d="M15.998 12.5093C15.0567 12.8231 13.82 13 12.4998 13C11.1795 13 9.94281 12.8231 9.00155 12.5093C8.64634 12.3909 8.30083 12.2425 8.0002 12.0551V13.4857L8 13.5C8 13.7255 8.14934 13.9394 8.41686 14.1314C8.99871 14.2147 9.53419 14.3361 9.99795 14.4907C10.3289 14.601 10.6514 14.7374 10.9371 14.907C11.4239 14.9671 11.9505 15 12.5 15C14.9329 15 16.915 14.3564 16.9975 13.5522L16.9964 12.0569C16.6965 12.2434 16.352 12.3913 15.998 12.5093Z" fill="black"/>
<path d="M12 17.9908C11.9998 17.7438 11.9997 17.4876 11.9997 16.5C11.9997 16.3136 11.9669 16.143 11.9119 15.9882C12.1056 15.996 12.3019 16 12.5 16C13.8202 16 15.057 15.8231 15.9983 15.5093C16.3531 15.3911 16.6982 15.2428 16.9986 15.0558L16.9997 16.5C16.9997 17.2014 15.5554 17.7903 13.6041 17.9545C13.2508 17.9842 12.8809 18 12.5 18C12.331 18 12.1641 17.9969 12 17.9908Z" fill="black"/>
<path d="M9.99796 18.5093C9.0567 18.8231 7.81997 19 6.49976 19C5.17954 19 3.94281 18.8231 3.00155 18.5093C2.64634 18.3909 2.30083 18.2425 2.0002 18.0551V19.4857L2 19.5C2 20.3284 4.01472 21 6.5 21C8.82995 21 10.7465 20.4097 10.977 19.6533C10.9923 19.6029 11.0002 19.5518 11.0002 19.5V18.0546C10.6994 18.2422 10.3535 18.3908 9.99796 18.5093Z" fill="black"/>
<path d="M2.00463 16.5705C2.11502 17.3662 4.08533 18 6.49976 18C8.98504 18 10.9998 17.3284 10.9998 16.5C10.9998 15.6716 8.9851 15 6.49988 15C4.01465 15 2 15.6716 2 16.5C2 16.5234 2.00144 16.5473 2.00463 16.5705Z" fill="black"/>
</svg>
