<svg width="24" height="24" viewBox="0 0 24 24" fill="none" xmlns="http://www.w3.org/2000/svg">
<path fill-rule="evenodd" clip-rule="evenodd" d="M14.8 4C14.6343 4 14.5018 4.13487 14.4845 4.29966C14.3528 5.55827 13.3916 6.5 12 6.5C10.6084 6.5 9.64717 5.55827 9.51548 4.29966C9.49824 4.13487 9.36568 4 9.2 4H6.5C5.67157 4 5 4.67157 5 5.5V13.5H6.25C6.66421 13.5 7 13.8358 7 14.25C7 14.6642 6.66421 15 6.25 15H5V18.5C5 19.3284 5.67157 20 6.5 20H9.2C9.36569 20 9.49824 19.8651 9.51548 19.7003C9.64717 18.4417 10.6084 17.5 12 17.5C13.3916 17.5 14.3528 18.4417 14.4845 19.7003C14.5018 19.8651 14.6343 20 14.8 20H17.5C18.3284 20 19 19.3284 19 18.5V15H17.75C17.3358 15 17 14.6642 17 14.25C17 13.8358 17.3358 13.5 17.75 13.5H19V5.5C19 4.67157 18.3284 4 17.5 4H14.8ZM9.25 13.5C8.83579 13.5 8.5 13.8358 8.5 14.25C8.5 14.6642 8.83579 15 9.25 15H10.5C10.9142 15 11.25 14.6642 11.25 14.25C11.25 13.8358 10.9142 13.5 10.5 13.5H9.25ZM12.75 14.25C12.75 13.8358 13.0858 13.5 13.5 13.5H14.75C15.1642 13.5 15.5 13.8358 15.5 14.25C15.5 14.6642 15.1642 15 14.75 15H13.5C13.0858 15 12.75 14.6642 12.75 14.25Z" fill="black"/>
</svg>
