<svg width="24" height="24" viewBox="0 0 24 24" fill="none" xmlns="http://www.w3.org/2000/svg">
<path fill-rule="evenodd" clip-rule="evenodd" d="M16.5 7.05014L12.3345 3.3012C12.1444 3.13007 11.8557 3.13007 11.6655 3.3012L2.96853 11.1285C2.62792 11.4351 2.84477 12.0002 3.30301 12.0002H4.00003H6.00003V20.5002C6.00003 20.7763 6.22389 21.0002 6.50003 21.0002H17.5C17.7762 21.0002 18 20.7763 18 20.5002V12.0002H20.6971C21.1553 12.0002 21.3721 11.4351 21.0315 11.1285L18 8.40015V5.25024C18 4.83603 17.6642 4.50024 17.25 4.50024C16.8358 4.50024 16.5 4.83603 16.5 5.25024V7.05014ZM11 13.0002C11 13.5525 10.5523 14.0002 10 14.0002C9.44772 14.0002 9 13.5525 9 13.0002C9 12.448 9.44772 12.0002 10 12.0002C10.5523 12.0002 11 12.448 11 13.0002ZM14.5608 12.4396C14.8537 12.7325 14.8537 13.2074 14.5608 13.5003L10.5001 17.561C10.2072 17.8539 9.7323 17.8539 9.4394 17.561C9.1465 17.2681 9.1465 16.7932 9.4394 16.5003L13.5001 12.4396C13.793 12.1467 14.2679 12.1467 14.5608 12.4396ZM14 18.0002C14.5523 18.0002 15 17.5525 15 17.0002C15 16.448 14.5523 16.0002 14 16.0002C13.4477 16.0002 13 16.448 13 17.0002C13 17.5525 13.4477 18.0002 14 18.0002Z" fill="black"/>
</svg>
