<svg width="24" height="24" viewBox="0 0 24 24" fill="none" xmlns="http://www.w3.org/2000/svg">
<path fill-rule="evenodd" clip-rule="evenodd" d="M13 3.25C13 2.83579 13.3358 2.5 13.75 2.5H14.75C15.1642 2.5 15.5 2.83579 15.5 3.25C15.5 3.66421 15.1642 4 14.75 4H13.75C13.3358 4 13 3.66421 13 3.25ZM11.7116 5.26279C11.8426 5.65575 11.6302 6.08049 11.2373 6.21147L10.078 6.59789C9.43708 6.81154 9.08189 7.49581 9.27602 8.14293L10.1331 11H11.6443L9.86968 14.9042C9.64313 15.4026 9.93995 15.9821 10.4768 16.0894L11.8903 16.3721L10.8295 18.4939C10.6442 18.8644 10.7944 19.3149 11.1649 19.5001C11.5354 19.6853 11.9859 19.5352 12.1711 19.1647L13.6126 16.2818C13.8632 15.7805 13.5686 15.1781 13.019 15.0682L11.5742 14.7792L13.292 11H13.8762L14.8055 8.21199C14.9837 7.67722 14.782 7.08932 14.313 6.77664L14.084 6.624C13.7394 6.39423 13.6463 5.92858 13.876 5.58393C14.1058 5.23929 14.5714 5.14616 14.9161 5.37592L15.1451 5.52856C16.1769 6.21646 16.6207 7.50985 16.2285 8.68633L15.4573 11H17.5C18.3284 11 19 11.6716 19 12.5V20.5C19 21.3284 18.3284 22 17.5 22H6.5C5.67157 22 5 21.3284 5 20.5V12.5C5 11.6716 5.67157 11 6.5 11H8.5671L7.83928 8.57395C7.41218 7.15029 8.1936 5.64489 9.60368 5.17487L10.7629 4.78845C11.1559 4.65746 11.5806 4.86983 11.7116 5.26279Z" fill="black"/>
</svg>
