<svg width="24" height="24" viewBox="0 0 24 24" fill="none" xmlns="http://www.w3.org/2000/svg">
<path fill-rule="evenodd" clip-rule="evenodd" d="M12.75 3.25C12.75 2.83579 12.4142 2.5 12 2.5C11.5858 2.5 11.25 2.83579 11.25 3.25V4.02979C6.72075 4.39166 3.254 8.007 3.01338 12.5C2.99861 12.7758 3.22389 13 3.50003 13H11.25V18.15C11.25 18.5259 11.1382 18.7186 11.0389 18.8168C10.936 18.9187 10.7645 19 10.5 19C10.2355 19 10.064 18.9187 9.96108 18.8168L9.94809 18.8041C9.8523 18.71 9.75 18.6096 9.75 18.25C9.75 17.8358 9.41421 17.5 9 17.5C8.58579 17.5 8.25 17.8358 8.25 18.25C8.25 18.9407 8.46633 19.4481 8.9061 19.8832C9.34225 20.3147 9.9208 20.5 10.5 20.5C11.0792 20.5 11.6577 20.3147 12.0939 19.8832C12.5337 19.4481 12.75 18.8407 12.75 18.15V13H20.5C20.7762 13 21.0014 12.7758 20.9867 12.5C20.7461 8.00698 17.2793 4.39163 12.75 4.02979V3.25ZM14.1646 6.0791C13.7503 6.0791 13.4146 6.41489 13.4146 6.8291C13.4146 7.24332 13.7503 7.5791 14.1646 7.5791C14.4537 7.5791 14.9313 7.74166 15.436 8.07814C15.9322 8.4089 16.3212 8.81953 16.4937 9.16451C16.679 9.535 17.1295 9.68516 17.5 9.49992C17.8704 9.31468 18.0206 8.86418 17.8354 8.49369C17.5079 7.83867 16.8969 7.2493 16.2681 6.83006C15.6478 6.41654 14.8754 6.0791 14.1646 6.0791Z" fill="black"/>
</svg>
