<svg width="24" height="24" viewBox="0 0 24 24" fill="none" xmlns="http://www.w3.org/2000/svg">
<path d="M10.5007 11.9794C10.7763 11.9976 10.9998 11.7761 10.9998 11.5V10.5C10.9998 10.2239 10.7718 10.0014 10.5087 9.91734C10.0639 9.7752 9.56232 9.42349 9.56232 8.66667V6.13009C9.56232 6.06441 9.62448 6.01588 9.68966 6.02395C10.2122 6.08865 11.2355 5.86822 11.9195 5.09543C11.9619 5.04751 12.0379 5.04751 12.0805 5.09533C12.7685 5.86875 13.8423 6.08897 14.3725 6.02381C14.4377 6.0158 14.4998 6.06441 14.4998 6.13009V8.66667C14.4998 9.43025 13.9578 9.78146 13.4918 9.9211C13.2272 10.0004 12.9998 10.2239 12.9998 10.5V11.5C12.9998 11.7761 13.2234 11.9976 13.4989 11.9794C14.6328 11.9046 16.7935 11.6335 17.4457 11.2857C18.2157 10.8751 18.0246 10.1835 17.8087 9.69231C17.159 8.2141 16.9998 7.09479 16.9998 5.5C16.9998 2.77679 14.0001 2 11.9999 2C9.99982 2 6.99982 2.77679 6.99982 5.5C6.99982 7.10299 6.81505 8.19757 6.19086 9.69231C5.97495 10.1835 5.78407 10.8751 6.55383 11.2857C7.206 11.6335 9.36677 11.9046 10.5007 11.9794Z" fill="black"/>
<path fill-rule="evenodd" clip-rule="evenodd" d="M10.7603 13.6058C10.8681 13.2462 11.1991 13 11.5744 13H12.4256C12.801 13 13.1319 13.2462 13.2398 13.6058L14.0135 16.1849L15.402 13.2096C15.4617 13.0817 15.59 13 15.7311 13C17.0645 13 18.2267 13.9074 18.5501 15.2009L18.9634 16.8542C19.305 18.2209 19.0543 19.6682 18.2729 20.8404L18.0936 21.1094C17.7226 21.6658 17.0982 22 16.4295 22H7.60228C6.94095 22 6.32238 21.6731 5.94983 21.1267L5.76342 20.8533C4.95961 19.6744 4.69778 18.2082 5.04384 16.8239L5.44959 15.2009C5.77296 13.9074 6.93519 13 8.26851 13C8.40962 13 8.53797 13.0817 8.59764 13.2096L9.98636 16.1854L10.7603 13.6058ZM10.9396 18.2281L11.5467 19.5291C11.7263 19.9138 12.2734 19.9138 12.4529 19.5291L13.0603 18.2276L12 14.6934L10.9396 18.2281Z" fill="black"/>
</svg>
