<svg width="24" height="24" viewBox="0 0 24 24" fill="none" xmlns="http://www.w3.org/2000/svg">
<path fill-rule="evenodd" clip-rule="evenodd" d="M3 16V6C3 5.44772 3.44772 5 4 5H20C20.5523 5 21 5.44772 21 6V16C21 16.5523 20.5523 17 20 17H4C3.44772 17 3 16.5523 3 16ZM8.5 9.9996C8.5 9.72346 8.72386 9.4996 9 9.4996H9.74991C9.88452 9.12596 10.074 8.78185 10.3194 8.48287C10.8787 7.80143 11.7025 7.38889 12.7222 7.38889C13.5446 7.38889 14.3052 7.6565 14.9176 8.10896C15.1397 8.27304 15.1868 8.58611 15.0227 8.80822C14.8586 9.03032 14.5455 9.07735 14.3234 8.91326C13.8782 8.58431 13.3247 8.38889 12.7222 8.38889C11.9947 8.38889 11.4572 8.67279 11.0923 9.11734C10.9979 9.23234 10.9134 9.36025 10.8399 9.4996H12C12.2761 9.4996 12.5 9.72346 12.5 9.9996C12.5 10.2757 12.2761 10.4996 12 10.4996H10.5323C10.511 10.6601 10.5 10.8272 10.5 11C10.5 11.1726 10.511 11.3397 10.5323 11.5H12C12.2761 11.5 12.5 11.7239 12.5 12C12.5 12.2762 12.2761 12.5 12 12.5H10.8397C10.9133 12.6395 10.9979 12.7676 11.0923 12.8826C11.4572 13.3272 11.9947 13.6111 12.7222 13.6111C13.3247 13.6111 13.8782 13.4157 14.3234 13.0867C14.5455 12.9226 14.8586 12.9697 15.0227 13.1918C15.1868 13.4139 15.1397 13.7269 14.9176 13.891C14.3052 14.3435 13.5446 14.6111 12.7222 14.6111C11.7025 14.6111 10.8787 14.1986 10.3194 13.5171C10.0739 13.218 9.8844 12.8738 9.74978 12.5H9C8.72386 12.5 8.5 12.2762 8.5 12C8.5 11.7239 8.72386 11.5 9 11.5H9.52555C9.50849 11.3356 9.5 11.1686 9.5 11C9.5 10.8313 9.50851 10.6641 9.52559 10.4996H9C8.72386 10.4996 8.5 10.2757 8.5 9.9996ZM7 10.25C7 9.83579 6.66421 9.5 6.25 9.5C5.83579 9.5 5.5 9.83579 5.5 10.25V11.75C5.5 12.1642 5.83579 12.5 6.25 12.5C6.66421 12.5 7 12.1642 7 11.75V10.25ZM17.75 9.5C18.1642 9.5 18.5 9.83579 18.5 10.25V11.75C18.5 12.1642 18.1642 12.5 17.75 12.5C17.3358 12.5 17 12.1642 17 11.75V10.25C17 9.83579 17.3358 9.5 17.75 9.5ZM3.75 18.5C3.33579 18.5 3 18.8358 3 19.25C3 19.6642 3.33579 20 3.75 20H20.25C20.6642 20 21 19.6642 21 19.25C21 18.8358 20.6642 18.5 20.25 18.5H3.75Z" fill="black"/>
</svg>
