<svg width="24" height="24" viewBox="0 0 24 24" fill="none" xmlns="http://www.w3.org/2000/svg">
<path fill-rule="evenodd" clip-rule="evenodd" d="M17.9999 14.5882C17.9999 15.1405 18.4476 15.5882 18.9999 15.5882C19.5521 15.5882 19.9999 15.1405 19.9999 14.5882V4C19.9999 3.44772 19.5521 3 18.9999 3C18.4476 3 17.9999 3.44772 17.9999 4V14.5882ZM15.9999 13.4402V4.99978C15.9999 4.4475 15.5521 3.99978 14.9999 3.99978H7.74932C6.81089 3.99978 5.99866 4.65225 5.79635 5.56861L4.5366 11.2745C4.261 12.5228 5.21121 13.7057 6.48957 13.7057H9.14271L8.80305 14.4924C8.78636 14.5311 8.76946 14.5702 8.75238 14.6097C7.83681 16.7283 6.40486 20.0418 8.55056 20.7438C8.91607 20.8634 9.25588 20.5781 9.45547 20.2494L10.304 18.8519C10.9566 17.777 11.6683 16.7154 12.6404 15.9177C13.2915 15.3834 14.0964 14.8888 15.3375 14.3952C15.731 14.2387 15.9999 13.8638 15.9999 13.4402Z" fill="black"/>
</svg>
