<svg width="24" height="24" viewBox="0 0 24 24" fill="none" xmlns="http://www.w3.org/2000/svg">
<path fill-rule="evenodd" clip-rule="evenodd" d="M15 3H4C3.44772 3 3 3.44772 3 4V19.5C3 20.0523 3.44772 20.5 4 20.5H20C20.5523 20.5 21 20.0523 21 19.5V9H15.85C15.3806 9 15 8.61944 15 8.15V3ZM20.991 7.5C20.9861 7.4892 20.9793 7.47926 20.9707 7.47071L16.5293 3.02929C16.5207 3.02074 16.5108 3.0139 16.5 3.00898V7.5H20.991ZM17.5606 12.0017C17.8357 12.3113 17.8079 12.7854 17.4983 13.0606L13.0688 16.9979C12.7324 17.2969 12.2212 17.2819 11.903 16.9637L9.95398 15.0146L7.48014 17.0762C7.16193 17.3413 6.68901 17.2984 6.42384 16.9801C6.15866 16.6619 6.20166 16.189 6.51987 15.9238L9.44971 13.4823C9.78744 13.2009 10.284 13.2234 10.5949 13.5343L12.5303 15.4696L16.5017 11.9395C16.8113 11.6643 17.2854 11.6921 17.5606 12.0017Z" fill="black"/>
</svg>
