<svg width="24" height="24" viewBox="0 0 24 24" fill="none" xmlns="http://www.w3.org/2000/svg">
<path fill-rule="evenodd" clip-rule="evenodd" d="M3.22363 4.97461C3.22363 4.5604 3.55942 4.22461 3.97363 4.22461H6.75003C7.74929 4.22461 8.70722 4.62343 9.41124 5.33256L11.4936 7.43005L11.8782 7.04253C12.2068 6.71147 12.6539 6.52527 13.1203 6.52527H15.1115C15.7625 6.52527 16.3598 6.8867 16.6618 7.46347L19.7081 13.2811C20.1354 14.0971 19.8556 15.0983 19.0827 15.5786C19.1251 15.6515 19.1717 15.7322 19.2231 15.8216C19.5514 16.3929 19.9996 17.2916 19.9996 18.2515V19.75C19.9996 20.1641 19.6638 20.5 19.2496 20.5C18.8354 20.5 18.4996 20.1641 18.4996 19.75V18.2515C18.4996 17.7116 18.2317 17.107 17.9225 16.569C17.8636 16.4665 17.8115 16.3764 17.7656 16.2974C15.4712 17.4546 12.6561 16.5743 11.4379 14.2902L9.6853 11.0041C9.32399 10.3267 9.44645 9.49281 9.98729 8.94785L10.437 8.49475L8.34676 6.38938C7.92434 5.9639 7.34958 5.72461 6.75003 5.72461H3.97363C3.55942 5.72461 3.22363 5.38882 3.22363 4.97461ZM15.9277 13.0421C15.0061 11.4228 13.1469 10.7128 11.4598 11.1439L12.7614 13.5843C13.5849 15.1283 15.4748 15.7348 17.034 14.9857L15.9277 13.0421Z" fill="black"/>
<path d="M3.18633 9.2405L3.18567 9.23938L3.18501 9.23824L4.09514 7.66186C4.28759 7.32852 4.76871 7.32852 4.96116 7.66186L5.87122 9.23812L5.8705 9.23938L5.86976 9.24062C5.98852 9.45793 6.05603 9.70726 6.05603 9.97235C6.05603 10.8163 5.37191 11.5004 4.52802 11.5004C3.68412 11.5004 3 10.8163 3 9.97235C3 9.70721 3.06753 9.45784 3.18633 9.2405Z" fill="black"/>
</svg>
