<svg width="24" height="24" viewBox="0 0 24 24" fill="none" xmlns="http://www.w3.org/2000/svg">
<path fill-rule="evenodd" clip-rule="evenodd" d="M4.22649 19C3.90426 19 3.59404 18.8481 3.4502 18.5597C2.8892 17.4352 2.7246 15.6747 3.71309 14.45C3.21082 13.2833 2.79229 10.6 4.84309 8.15C7.1031 5.45007 10.4935 5 12.0002 5C13.5069 5 16.8969 5.45007 19.1569 8.15C21.2077 10.6 20.7892 13.2833 20.2869 14.45C21.2754 15.6747 21.1108 17.4352 20.5498 18.5597C20.406 18.8481 20.0958 19 19.7735 19H4.22649ZM9.66472 14.8354C8.87589 14.4409 8.12444 14.4409 7.3356 14.8354C6.96512 15.0206 6.51461 14.8705 6.32935 14.5C6.1441 14.1295 6.29425 13.679 6.66473 13.4938C7.87588 12.8882 9.12444 12.8881 10.3356 13.4938C10.7061 13.679 10.8562 14.1295 10.671 14.5C10.4857 14.8705 10.0352 15.0206 9.66472 14.8354ZM14.3356 14.8354C15.1244 14.4409 15.8759 14.4409 16.6647 14.8354C17.0352 15.0206 17.4857 14.8705 17.671 14.5C17.8562 14.1295 17.7061 13.679 17.3356 13.4938C16.1244 12.8882 14.8759 12.8881 13.6647 13.4938C13.2942 13.679 13.1441 14.1295 13.3294 14.5C13.5146 14.8705 13.9651 15.0206 14.3356 14.8354Z" fill="black"/>
</svg>
