<svg width="24" height="24" viewBox="0 0 24 24" fill="none" xmlns="http://www.w3.org/2000/svg">
<path fill-rule="evenodd" clip-rule="evenodd" d="M8.56302 4.41183L5.36808 8.80488H3C1.89543 8.80488 1 9.70031 1 10.8049V12.9202C1 14.0248 1.89543 14.9202 3 14.9202H5.36808L8.56302 19.3132C8.7512 19.572 9.05182 19.7251 9.37176 19.7251H10.9834C11.2595 19.7251 11.4834 19.5012 11.4834 19.2251V4.5C11.4834 4.22386 11.2595 4 10.9834 4H9.37176C9.05182 4 8.7512 4.15308 8.56302 4.41183ZM17.6909 5.21565C17.3973 4.92346 16.9225 4.9246 16.6303 5.2182C16.3381 5.51179 16.3392 5.98666 16.6328 6.27885C17.7877 7.42822 18.9076 9.12197 19.1846 11.0518C19.4551 12.9361 18.9389 15.1512 16.6328 17.4463C16.3392 17.7385 16.3381 18.2133 16.6303 18.5069C16.9225 18.8005 17.3973 18.8017 17.6909 18.5095C20.3006 15.9122 21.0134 13.2351 20.6694 10.8387C20.3319 8.48784 18.9939 6.51241 17.6909 5.21565ZM15.5069 9.14692C15.2133 8.85473 14.7384 8.85587 14.4462 9.14946C14.1541 9.44306 14.1552 9.91793 14.4488 10.2101C14.6864 10.4466 14.9531 11.0327 14.9973 11.7555C15.0405 12.4606 14.8601 13.1056 14.4488 13.515C14.1552 13.8072 14.1541 14.2821 14.4462 14.5757C14.7384 14.8692 15.2133 14.8704 15.5069 14.5782C16.3245 13.7645 16.5538 12.6332 16.4945 11.6639C16.4363 10.7122 16.0885 9.72577 15.5069 9.14692Z" fill="black"/>
</svg>
