<svg width="24" height="24" viewBox="0 0 24 24" fill="none" xmlns="http://www.w3.org/2000/svg">
<path fill-rule="evenodd" clip-rule="evenodd" d="M3.99976 7.0293L15 7.02932V8.75003C15 9.16425 15.3358 9.50003 15.75 9.50003C16.1642 9.50003 16.5 9.16425 16.5 8.75003V7.02932L19.9997 7.02932C20.552 7.02933 20.9997 7.47704 20.9997 8.02933L20.9997 16.5C20.9997 17.0523 20.552 17.5 19.9997 17.5L16.5 17.5V15.25C16.5 14.8358 16.1642 14.5 15.75 14.5C15.3358 14.5 15 14.8358 15 15.25V17.5L3.99976 17.5C3.44748 17.5 2.99976 17.0523 2.99976 16.5L2.99976 8.0293C2.99976 7.47701 3.44747 7.0293 3.99976 7.0293ZM16.5 11.25C16.5 10.8358 16.1642 10.5 15.75 10.5C15.3358 10.5 15 10.8358 15 11.25V12.75C15 13.1642 15.3358 13.5 15.75 13.5C16.1642 13.5 16.5 13.1642 16.5 12.75V11.25ZM5.50002 11.5H10.5V10H5.50002V11.5ZM5.50002 14.5H9.50002V13H5.50002V14.5Z" fill="black"/>
</svg>
