<svg width="24" height="24" viewBox="0 0 24 24" fill="none" xmlns="http://www.w3.org/2000/svg">
<path d="M6 6C6 4.34314 7.34326 3 9 3H18C18.5522 3 19 3.44775 19 4V4.5C19 5.05225 18.5522 5.5 18 5.5C17.4478 5.5 17 5.94775 17 6.5V9.5H12.5V8.75C12.5 8.33582 12.1643 8 11.75 8C11.3357 8 11 8.33582 11 8.75V9.5H9.5V6.75C9.5 6.33582 9.16431 6 8.75 6C8.33569 6 8 6.33582 8 6.75V9.5H6V6Z" fill="black"/>
<path d="M6 11V13C6 13.5522 6.44775 14 7 14H8.5C9.05225 14 9.5 14.4478 9.5 15V19C9.5 20.1046 10.3955 21 11.5 21C12.6045 21 13.5 20.1046 13.5 19V15C13.5 14.4478 13.9478 14 14.5 14H16C16.5522 14 17 13.5522 17 13V11H6Z" fill="black"/>
</svg>
