<svg width="24" height="24" viewBox="0 0 24 24" fill="none" xmlns="http://www.w3.org/2000/svg">
<path fill-rule="evenodd" clip-rule="evenodd" d="M5 7C5 6.44772 5.44772 6 6 6H14C14.5523 6 15 6.44772 15 7V8H16.6842C18.5155 8 20 9.48453 20 11.3158C20 14.3795 17.5762 16.877 14.5416 16.9956C14.4403 17.3514 14.3225 17.6418 14.1881 17.9101C13.7514 18.7822 13.0964 19.0002 12.2777 19.0002V18.9919C12.2182 18.9972 12.158 18.9999 12.0971 18.9999H7.90971C7.84885 18.9999 7.78862 18.9972 7.72914 18.9919V19C6.9104 19 6.2554 18.782 5.81874 17.9099C5.28838 16.8508 5.01569 15.4485 5.00066 11.0366C5.00022 11.0245 5 11.0123 5 11V10.6429V7ZM14.8224 15.4696C16.8944 15.2196 18.5 13.4552 18.5 11.3158C18.5 10.313 17.687 9.5 16.6842 9.5H15V10.6449L15.0068 10.6431C15.0068 12.885 14.9454 14.3903 14.8224 15.4696Z" fill="black"/>
</svg>
