<svg width="24" height="24" viewBox="0 0 24 24" fill="none" xmlns="http://www.w3.org/2000/svg">
<path fill-rule="evenodd" clip-rule="evenodd" d="M2.58977 5.39457C2.78615 5.02987 3.24099 4.89341 3.6057 5.08979L9.5798 8.30662C10.1466 8.61184 10.5001 9.20365 10.5001 9.84744V11H12.0576V5.90765C12.0576 5.43821 12.4381 5.05765 12.9076 5.05765H16.7409C17.0841 5.05765 17.3935 5.26398 17.5255 5.58073L19.7836 11H20.75C21.4404 11 22 11.5597 22 12.25V14.75C22 15.4404 21.4404 16 20.75 16H20C20 17.5188 18.7688 18.75 17.25 18.75C15.7312 18.75 14.5 17.5188 14.5 16H9.5C9.5 17.5188 8.26878 18.75 6.75 18.75C5.23122 18.75 4 17.5188 4 16H2.85C2.38056 16 2 15.6195 2 15.15V11.85C2 11.3806 2.38056 11 2.85 11H9.00012V9.84744C9.00012 9.75547 8.94963 9.67092 8.86865 9.62732L2.89455 6.4105C2.52984 6.21412 2.39339 5.75927 2.58977 5.39457ZM18.1586 11L16.3076 6.55765H13.5576V11H18.1586ZM5.5 16C5.5 15.3097 6.05964 14.75 6.75 14.75C7.44036 14.75 8 15.3097 8 16C8 16.6904 7.44036 17.25 6.75 17.25C6.05964 17.25 5.5 16.6904 5.5 16ZM17.25 14.75C16.5596 14.75 16 15.3097 16 16C16 16.6904 16.5596 17.25 17.25 17.25C17.9404 17.25 18.5 16.6904 18.5 16C18.5 15.3097 17.9404 14.75 17.25 14.75Z" fill="black"/>
</svg>
