<svg width="24" height="24" viewBox="0 0 24 24" fill="none" xmlns="http://www.w3.org/2000/svg">
<path d="M19.89 10.9005C19.9488 11.4892 19.4865 12 18.8949 12H17.25V16.75C17.25 17.1642 16.9142 17.5 16.5 17.5C16.0858 17.5 15.75 17.1642 15.75 16.75V12H14.1049C13.5133 12 13.051 11.4892 13.1099 10.9005L13.9099 2.9005C13.961 2.38929 14.3911 2 14.9049 2H18.0949C18.6087 2 19.0388 2.38929 19.09 2.9005L19.89 10.9005Z" fill="black"/>
<path d="M6 6.5C5.44772 6.5 5 6.94772 5 7.5V10.5C5 11.0523 5.44772 11.5 6 11.5H9C9.55229 11.5 10 11.0523 10 10.5V7.5C10 6.94772 9.55229 6.5 9 6.5H6Z" fill="black"/>
<path d="M4.11731 13C3.52129 13 3.0576 13.5181 3.12342 14.1104L3.9012 21.1104C3.95747 21.6169 4.38553 22 4.89508 22H10.105C10.6145 22 11.0426 21.6169 11.0989 21.1104L11.8767 14.1104C11.9425 13.5181 11.4788 13 10.8828 13H4.11731Z" fill="black"/>
<path d="M17.9027 20.6061C18.1855 21.2659 17.7015 22 16.9835 22H16.0166C15.2987 22 14.8147 21.2659 15.0975 20.6061L15.8031 18.9596C15.9226 18.6808 16.1968 18.5 16.5001 18.5C16.8034 18.5 17.0776 18.6808 17.197 18.9596L17.9027 20.6061Z" fill="black"/>
</svg>
