<svg width="24" height="24" viewBox="0 0 24 24" fill="none" xmlns="http://www.w3.org/2000/svg">
<path d="M10 4C9.44772 4 9 4.44772 9 5V6C9 6.55228 9.44772 7 10 7H18C18.5523 7 19 6.55228 19 6V5C19 4.44772 18.5523 4 18 4H10Z" fill="black"/>
<path d="M10 8H18V12.4024C17.4805 12.5013 16.9047 12.6278 16.4175 12.7394L15.9993 12.8223C15.6012 12.4664 15.0758 12.2501 14.5 12.2501H13.9083C13.507 12.2501 13.1138 12.1428 12.769 11.9404L12.6741 11.8846L12.5496 11.8336C12.226 11.6477 11.8191 11.4226 11.3042 11.2575C10.9083 11.1305 10.4825 11.0491 10 11.0164V8Z" fill="black"/>
<path d="M2 11H3.5C4.05228 11 4.5 11.4477 4.5 12V21C4.5 21.5523 4.05228 22 3.5 22H2V11Z" fill="black"/>
<path d="M11.8067 13.1367C11.8674 13.1716 11.9357 13.204 12.0095 13.2338C12.5841 13.5712 13.2394 13.7501 13.9083 13.7501H14.5C14.9142 13.7501 15.25 14.0859 15.25 14.5001C15.25 14.9143 14.9142 15.2501 14.5 15.2501L12.25 15.25C11.8358 15.25 11.5 15.5858 11.5 16C11.5 16.4142 11.8358 16.75 12.25 16.75L14.5 16.7501C15.7426 16.7501 16.75 15.7427 16.75 14.5001C16.75 14.4006 16.7435 14.3025 16.731 14.2064C17.3651 14.061 18.1235 13.8965 18.6974 13.8011C20 13.5 20.8496 13.8157 21.277 14.8131C21.683 15.7603 21.2802 16.8599 20.3584 17.3208L15.0248 19.9876C13.7322 20.6339 12.2307 20.7202 10.8724 20.2263L8.85829 19.4939C7.95968 19.1672 7.01087 19 6.05469 19C6.02449 19 6 18.9755 6 18.9453V15.0252C6 15.0087 6.00399 14.9925 6.01189 14.978C6.6617 13.7842 8.00915 12.5 9.5 12.5C10.6292 12.5 11.1917 12.7833 11.8067 13.1367Z" fill="black"/>
</svg>
