<svg width="24" height="24" viewBox="0 0 24 24" fill="none" xmlns="http://www.w3.org/2000/svg">
<path fill-rule="evenodd" clip-rule="evenodd" d="M17.7 20.9956L6.30001 20.9957C5.85818 20.9957 5.5 20.6375 5.5 20.1957L5.5 6.1743C5.5 5.20352 6.19714 4.37292 7.15321 4.2046L13.4133 3.10244C13.7195 3.04854 14 3.28404 14 3.59486L14 6.49989H8.74987C8.33566 6.49989 7.99987 6.83567 7.99987 7.24989C7.99987 7.6641 8.33566 7.99989 8.74987 7.99989H16.9999C17.0044 7.99989 17.0088 7.99985 17.0133 7.99977H17.7C18.1418 7.99977 18.5 8.35794 18.5 8.79977L18.5 20.1956C18.5 20.6374 18.1418 20.9956 17.7 20.9956ZM8.8784 14.4882L11.4767 17.4113C11.7551 17.7245 12.2446 17.7245 12.523 17.4113L15.1213 14.4882C15.6463 13.8976 15.7358 13.0378 15.3438 12.3517C14.699 11.2233 13.1196 11.1002 12.3077 12.115L11.9999 12.4999L11.692 12.115C10.8801 11.1002 9.30074 11.2233 8.65595 12.3517C8.26388 13.0378 8.35341 13.8976 8.8784 14.4882Z" fill="black"/>
</svg>
