<svg width="24" height="24" viewBox="0 0 24 24" fill="none" xmlns="http://www.w3.org/2000/svg">
<path fill-rule="evenodd" clip-rule="evenodd" d="M4 4V13.4764C4 14.0215 4.06932 14.5643 4.2063 15.0918C4.64635 16.7866 5.68641 18.2642 7.1334 19.2502L7.5 19.5L11.5144 21.7302C11.8164 21.898 12.1836 21.898 12.4856 21.7302L16.5 19.5L16.8666 19.2502C18.3136 18.2642 19.3537 16.7866 19.7937 15.0918C19.9307 14.5643 20 14.0215 20 13.4764V4C20 3.44771 19.5523 3 19 3H5C4.44772 3 4 3.44772 4 4ZM15.5303 8.53033C15.8232 8.23744 15.8232 7.76256 15.5303 7.46967C15.2374 7.17678 14.7626 7.17678 14.4697 7.46967L8.46967 13.4697C8.17678 13.7626 8.17678 14.2374 8.46967 14.5303C8.76256 14.8232 9.23744 14.8232 9.53033 14.5303L15.5303 8.53033ZM11 8.5C11 9.32843 10.3284 10 9.5 10C8.67157 10 8 9.32843 8 8.5C8 7.67157 8.67157 7 9.5 7C10.3284 7 11 7.67157 11 8.5ZM14.5 15C15.3284 15 16 14.3284 16 13.5C16 12.6716 15.3284 12 14.5 12C13.6716 12 13 12.6716 13 13.5C13 14.3284 13.6716 15 14.5 15Z" fill="black"/>
</svg>
