<svg width="24" height="24" viewBox="0 0 24 24" fill="none" xmlns="http://www.w3.org/2000/svg">
<path fill-rule="evenodd" clip-rule="evenodd" d="M16.0166 5.41599L16.6084 2.16127C16.6805 1.76444 17.1687 1.61196 17.4539 1.89716L22.2393 6.68264C22.5403 6.98364 22.3515 7.49911 21.9273 7.53447L18.4001 7.8284C18.1884 7.44252 17.9191 7.07982 17.5922 6.75291L17.0265 6.1872C16.7182 5.87889 16.378 5.62182 16.0166 5.41599ZM5.4162 16.0161L2.16151 16.6079C1.76469 16.68 1.6122 17.1682 1.8974 17.4534L6.69033 22.2463C6.99009 22.5461 7.50345 22.3602 7.54183 21.938L7.86185 18.4178C7.46359 18.2034 7.08947 17.9281 6.75322 17.5919L6.18751 17.0262C5.87914 16.7178 5.62204 16.3776 5.4162 16.0161ZM15.9658 7.24786C14.6966 5.97866 12.6388 5.97866 11.3696 7.24786L7.24817 11.3693C5.97896 12.6385 5.97896 14.6963 7.24817 15.9655L7.81388 16.5312C9.08308 17.8004 11.1409 17.8004 12.4101 16.5312L16.5315 12.4098C17.8007 11.1406 17.8007 9.08277 16.5315 7.81357L15.9658 7.24786ZM13.7533 9.13667C14.0462 9.42956 14.0462 9.90443 13.7533 10.1973L9.75313 14.1975C9.46024 14.4904 8.98536 14.4904 8.69247 14.1975C8.39958 13.9047 8.39958 13.4298 8.69247 13.1369L12.6927 9.13667C12.9856 8.84377 13.4605 8.84377 13.7533 9.13667Z" fill="black"/>
</svg>
