<svg width="24" height="24" viewBox="0 0 24 24" fill="none" xmlns="http://www.w3.org/2000/svg">
<path fill-rule="evenodd" clip-rule="evenodd" d="M12 24C18.6274 24 24 18.6274 24 12C24 5.37258 18.6274 0 12 0C5.37258 0 0 5.37258 0 12C0 18.6274 5.37258 24 12 24ZM12 6.25C7.90311 6.25 5.62307 8.96164 4.69631 11.2785C4.54248 11.6631 4.106 11.8502 3.72141 11.6964C3.33682 11.5425 3.14976 11.106 3.3036 10.7215C4.37684 8.03836 7.0968 4.75 12 4.75C16.9031 4.75 19.6231 8.03836 20.6963 10.7215C20.8501 11.106 20.6631 11.5425 20.2785 11.6964C19.8939 11.8502 19.4574 11.6631 19.3036 11.2785C18.3768 8.96164 16.0968 6.25 12 6.25ZM16 12C16 14.2091 14.2091 16 12 16C9.79086 16 8 14.2091 8 12C8 9.79086 9.79086 8 12 8C14.2091 8 16 9.79086 16 12ZM7.03033 15.4697C6.73744 15.1768 6.26256 15.1768 5.96967 15.4697C5.67678 15.7626 5.67678 16.2374 5.96967 16.5303L5.97329 16.5339C7.003 17.5637 8.68933 19.25 12 19.25C15.3107 19.25 16.997 17.5637 18.0267 16.5339L18.0303 16.5303C18.3232 16.2374 18.3232 15.7626 18.0303 15.4697C17.7374 15.1768 17.2626 15.1768 16.9697 15.4697C15.9991 16.4403 14.6854 17.75 12 17.75C9.31455 17.75 8.00095 16.4403 7.03033 15.4697ZM12 14C13.1046 14 14 13.1046 14 12C14 11.9181 13.9951 11.8373 13.9855 11.758C13.8104 11.9088 13.5825 12 13.3333 12C12.781 12 12.3333 11.5523 12.3333 11C12.3333 10.6487 12.5144 10.3397 12.7883 10.1614C12.5464 10.0575 12.2799 10 12 10C10.8954 10 10 10.8954 10 12C10 13.1046 10.8954 14 12 14Z" fill="black"/>
</svg>
