<svg width="24" height="24" viewBox="0 0 24 24" fill="none" xmlns="http://www.w3.org/2000/svg">
<path fill-rule="evenodd" clip-rule="evenodd" d="M3 10.25V6C3 5.44772 3.44772 5 4 5H20C20.5523 5 21 5.44772 21 6V10.25H19.2993C19.04 9.80165 18.5552 9.5 18 9.5C17.1716 9.5 16.5 10.1716 16.5 11C16.5 11.8284 17.1716 12.5 18 12.5C18.5552 12.5 19.04 12.1984 19.2993 11.75H21V16C21 16.5523 20.5523 17 20 17H4C3.44772 17 3 16.5523 3 16V11.75H4.70067C4.96003 12.1984 5.44479 12.5 6 12.5C6.82843 12.5 7.5 11.8284 7.5 11C7.5 10.1716 6.82843 9.5 6 9.5C5.44479 9.5 4.96003 9.80165 4.70067 10.25H3ZM15 11C15 12.6569 13.6569 14 12 14C10.3431 14 9 12.6569 9 11C9 9.34315 10.3431 8 12 8C13.6569 8 15 9.34315 15 11ZM3.75 18.5C3.33579 18.5 3 18.8358 3 19.25C3 19.6642 3.33579 20 3.75 20H20.25C20.6642 20 21 19.6642 21 19.25C21 18.8358 20.6642 18.5 20.25 18.5H3.75Z" fill="black"/>
</svg>
