<svg width="24" height="24" viewBox="0 0 24 24" fill="none" xmlns="http://www.w3.org/2000/svg">
<path d="M20 16.5C20 17.3284 19.3284 18 18.5 18C17.6717 18 17.0002 17.3286 17 16.5003C16.9998 17.3286 16.3283 18 15.5 18C14.6716 18 14 17.3284 14 16.5V14L10 14V16.5C10 17.3284 9.32843 18 8.5 18C7.67167 18 7.00016 17.3286 7 16.5003C6.99984 17.3286 6.32833 18 5.5 18C4.67157 18 4 17.3284 4 16.5L4 14H3C2.44772 14 2 13.5523 2 13V11C2 10.4477 2.44772 10 3 10L4 10L4 7.5C4 6.67157 4.67157 6 5.5 6C6.32843 6 7 6.67157 7 7.5C7 6.67157 7.67157 6 8.5 6C9.32843 6 10 6.67157 10 7.5V10L14 10V7.5C14 6.67157 14.6716 6 15.5 6C16.3284 6 17 6.67157 17 7.5C17 6.67157 17.6716 6 18.5 6C19.3284 6 20 6.67157 20 7.5V10H21C21.5523 10 22 10.4477 22 11V13C22 13.5523 21.5523 14 21 14H20V16.5Z" fill="black"/>
</svg>
