<svg width="24" height="24" viewBox="0 0 24 24" fill="none" xmlns="http://www.w3.org/2000/svg">
<path fill-rule="evenodd" clip-rule="evenodd" d="M3 7.5C3 6.94772 3.44772 6.5 4 6.5H10.5C11.0523 6.5 11.5 6.94772 11.5 7.5V8V19C10.8597 18.3597 9.99129 18 9.08579 18H4C3.44772 18 3 17.5523 3 17V7.5ZM9.5 10H5V8.5H9.5V10ZM5 13H9.5V11.5H5V13ZM9.5 16H5V14.5H9.5V16ZM21 7.5C21 6.94772 20.5523 6.5 20 6.5H13.5C12.9477 6.5 12.5 6.94772 12.5 7.5V8V19C13.1403 18.3597 14.0087 18 14.9142 18H20C20.5523 18 21 17.5523 21 17V7.5ZM19 10H14.5V8.5H19V10ZM14.5 13H19V11.5H14.5V13ZM19 16H14.5V14.5H19V16Z" fill="black"/>
</svg>
