<svg width="24" height="24" viewBox="0 0 24 24" fill="none" xmlns="http://www.w3.org/2000/svg">
<path fill-rule="evenodd" clip-rule="evenodd" d="M4.35833 11.7692C4.1712 12.2111 3.93175 12.6335 3.64203 13.027C2.85782 14.0921 2.43481 15.3801 2.43481 16.7028V19C2.43481 20.1046 3.33025 21 4.43481 21H19.5653C20.6698 21 21.5653 20.1046 21.5653 19V16.7028C21.5653 15.3801 21.1422 14.0921 20.358 13.027C20.0683 12.6335 19.8289 12.2111 19.6417 11.7692L17.7826 11.7692C16.678 11.7692 15.7826 10.8738 15.7826 9.76922V7.6349C12.9011 6.93796 9.90532 7.26393 8.21739 7.64393V9.76922C8.21739 10.8738 7.32196 11.7692 6.2174 11.7692L4.35833 11.7692ZM2.57343 5.76867C3.8114 4.56645 6.84171 3 12 3C17.1583 3 20.1886 4.56645 21.4266 5.76867C21.8675 6.19687 22 6.91561 22 8.00175V9.76923L17.7826 9.76922V7.61185C17.7826 6.74518 17.2135 5.92708 16.3079 5.7044C12.9745 4.88468 9.58124 5.27763 7.70848 5.70861C6.78899 5.92022 6.21739 6.74528 6.21739 7.61185V9.76922L2 9.76923V8.00176C2 6.91561 2.1325 6.19687 2.57343 5.76867ZM13.7738 14.1999C13.7738 15.194 12.9679 15.9999 11.9738 15.9999C10.9797 15.9999 10.1738 15.194 10.1738 14.1999C10.1738 13.2058 10.9797 12.3999 11.9738 12.3999C12.9679 12.3999 13.7738 13.2058 13.7738 14.1999ZM15.7738 14.1999C15.7738 16.2986 14.0725 17.9999 11.9738 17.9999C9.87515 17.9999 8.17383 16.2986 8.17383 14.1999C8.17383 12.1012 9.87515 10.3999 11.9738 10.3999C14.0725 10.3999 15.7738 12.1012 15.7738 14.1999Z" fill="black"/>
</svg>
