<svg width="24" height="24" viewBox="0 0 24 24" fill="none" xmlns="http://www.w3.org/2000/svg">
<path fill-rule="evenodd" clip-rule="evenodd" d="M3 15V8C3 5.23858 5.23858 3 8 3H8.75C8.90738 3 9.05557 3.0741 9.15 3.2L11.6001 6.4668V21H7.5C7.22386 21 7 20.7761 7 20.5V17.25V15.5V8.75C7 8.33579 6.66421 8 6.25 8C5.83579 8 5.5 8.33579 5.5 8.75V15.5H3.5C3.22386 15.5 3 15.2761 3 15ZM12.4001 21V6.46654L14.85 3.2C14.9444 3.0741 15.0926 3 15.25 3H16C18.7614 3 21 5.23858 21 8V15C21 15.2761 20.7761 15.5 20.5 15.5H18.5V8.75C18.5 8.33579 18.1642 8 17.75 8C17.3358 8 17 8.33579 17 8.75V15.5V17.25V20.5C17 20.7761 16.7761 21 16.5 21H12.4001ZM8 15.5C8 15.2239 8.22386 15 8.5 15H9.5C9.77614 15 10 15.2239 10 15.5C10 15.7761 9.77614 16 9.5 16H8.5C8.22386 16 8 15.7761 8 15.5ZM14.5 15C14.2239 15 14 15.2239 14 15.5C14 15.7761 14.2239 16 14.5 16H15.5C15.7761 16 16 15.7761 16 15.5C16 15.2239 15.7761 15 15.5 15H14.5Z" fill="black"/>
</svg>
