<svg width="24" height="24" viewBox="0 0 24 24" fill="none" xmlns="http://www.w3.org/2000/svg">
<path fill-rule="evenodd" clip-rule="evenodd" d="M12.8608 3.50008C12.3884 3.49376 12 3.87506 12 4.34934V11.1493C12 11.6188 12.3806 11.9993 12.85 11.9993H19.65C20.1164 11.9993 20.5065 11.6192 20.4992 11.1379C20.4414 7.34239 17.4177 3.56106 12.8608 3.50008ZM13.5 10.4993V5.04204C16.5342 5.39243 18.617 7.84801 18.9524 10.4993H13.5ZM10.5 4.54709C10.5 4.25323 10.2469 4.02145 9.95654 4.0668C5.89772 4.70074 3 8.22726 3 12.4826C3 17.1867 6.81335 21 11.5174 21C15.7727 21 19.2993 18.1023 19.9332 14.0435C19.9786 13.7531 19.7468 13.5 19.4529 13.5H12.5C11.3954 13.5 10.5 12.6046 10.5 11.5V4.54709Z" fill="black"/>
</svg>
