<svg width="24" height="24" viewBox="0 0 24 24" fill="none" xmlns="http://www.w3.org/2000/svg">
<path d="M15 14H12.75V3C12.75 2.58579 12.4142 2.25 12 2.25C11.5858 2.25 11.25 2.58579 11.25 3V14H9C7.89543 14 7 14.8954 7 16H17C17 14.8954 16.1046 14 15 14Z" fill="black"/>
<path d="M7.01957 17.5C6.3481 19.4379 6.62653 21.1357 6.84702 21.6708C6.93757 21.8905 7.14871 22.0001 7.3712 22.0001L19.3022 21.9998C19.7004 21.9869 20.0196 21.6338 20.0196 21.2001C20.0196 20.8831 19.849 20.6091 19.6016 20.4796C19.5919 20.4712 19.5809 20.4639 19.5687 20.4579C18.0056 19.6857 17.4682 18.4959 17.1036 17.6886C17.074 17.6231 17.0456 17.5601 17.0178 17.5H7.01957Z" fill="black"/>
</svg>
