<svg width="24" height="24" viewBox="0 0 24 24" fill="none" xmlns="http://www.w3.org/2000/svg">
<path fill-rule="evenodd" clip-rule="evenodd" d="M9.25 3.5C8.83579 3.5 8.5 3.83579 8.5 4.25C8.5 4.66421 8.83579 5 9.25 5H14.75C15.1642 5 15.5 4.66421 15.5 4.25C15.5 3.83579 15.1642 3.5 14.75 3.5H9.25ZM9 6.5C7.89543 6.5 7 7.39543 7 8.5V15.5C7 16.6046 7.89543 17.5 9 17.5H15C16.1046 17.5 17 16.6046 17 15.5V8.5C17 7.39543 16.1046 6.5 15 6.5H9ZM8.5 19.75C8.5 19.3358 8.83579 19 9.25 19H14.75C15.1642 19 15.5 19.3358 15.5 19.75C15.5 20.1642 15.1642 20.5 14.75 20.5H9.25C8.83579 20.5 8.5 20.1642 8.5 19.75ZM13.5 10.25C13.5 9.83579 13.1642 9.5 12.75 9.5C12.3358 9.5 12 9.83579 12 10.25V12.5H10.75C10.3358 12.5 10 12.8358 10 13.25C10 13.6642 10.3358 14 10.75 14H12.65C13.1194 14 13.5 13.6194 13.5 13.15V10.25Z" fill="black"/>
</svg>
