<svg width="24" height="24" viewBox="0 0 24 24" fill="none" xmlns="http://www.w3.org/2000/svg">
<path d="M3.76348 5.89183C3.50134 5.6293 3.06307 5.73236 3.02198 6.09957C2.90639 7.13208 3.24671 8.20933 4.04152 9.00529C4.87847 9.84344 6.02677 10.1769 7.10618 10.004C7.48592 9.94322 7.88845 10.022 8.16074 10.2936L13.7152 15.8338C13.9879 16.1058 14.0677 16.5089 14.007 16.8893C13.8345 17.9701 14.1675 19.1199 15.0043 19.958C15.7991 20.7539 16.8749 21.0947 17.9059 20.979C18.0533 20.9626 18.1581 20.8821 18.2135 20.7742C18.2961 20.614 18.2702 20.3935 18.1133 20.2364L16.9485 19.0699C16.5587 18.6795 16.5587 18.0471 16.9485 17.6567L17.6585 16.9457C18.0492 16.5545 18.6831 16.5545 19.0737 16.9457L20.2365 18.1101C20.4987 18.3727 20.9369 18.2696 20.978 17.9024C21.0936 16.8699 20.7533 15.7926 19.9585 14.9967C19.1215 14.1585 17.9732 13.825 16.8938 13.9979C16.5141 14.0587 16.1116 13.9799 15.8393 13.7083L13.7828 11.6572L17.2064 8.23356L17.7691 8.34611C18.2442 8.44113 18.7314 8.25304 19.0195 7.86342L20.6532 5.65324L18.7262 3.7253L16.5157 5.35989C16.1262 5.64792 15.9381 6.13507 16.0332 6.6101L16.1457 7.1729L12.7207 10.5979L10.2848 8.1682C10.0121 7.89618 9.93233 7.49308 9.99303 7.1127C10.1655 6.03185 9.83251 4.88206 8.99567 4.044C8.20085 3.24804 7.12515 2.90723 6.09413 3.02299C5.94669 3.03938 5.84188 3.11991 5.78647 3.22776C5.70387 3.38799 5.72982 3.60847 5.88669 3.76556L7.0515 4.93205C7.44134 5.32246 7.44134 5.95484 7.0515 6.34525L6.34149 7.05628C5.95085 7.44748 5.3169 7.44749 4.92626 7.05628L3.76348 5.89183Z" fill="black"/>
<path d="M8.55514 12.5561L11.2107 15.2117L7.47689 19.7802C6.72797 20.6965 5.35154 20.7657 4.51449 19.9291L4.03884 19.4537C3.22821 18.6436 3.26285 17.3193 4.11471 16.5526L8.55514 12.5561Z" fill="black"/>
</svg>
