<svg width="24" height="24" viewBox="0 0 24 24" fill="none" xmlns="http://www.w3.org/2000/svg">
<path fill-rule="evenodd" clip-rule="evenodd" d="M3 5.5C3 4.67157 3.67157 4 4.5 4H19.5C20.3284 4 21 4.67157 21 5.5V15.5C21 16.3284 20.3284 17 19.5 17H4.5C3.67157 17 3 16.3284 3 15.5V5.5ZM13 15C13 15.5523 12.5523 16 12 16C11.4477 16 11 15.5523 11 15C11 14.4477 11.4477 14 12 14C12.5523 14 13 14.4477 13 15ZM8.75 18.5C8.33579 18.5 8 18.8358 8 19.25C8 19.6642 8.33579 20 8.75 20H15.25C15.6642 20 16 19.6642 16 19.25C16 18.8358 15.6642 18.5 15.25 18.5H8.75Z" fill="black"/>
</svg>
