<svg width="24" height="24" viewBox="0 0 24 24" fill="none" xmlns="http://www.w3.org/2000/svg">
<path d="M6.10714 12.3052V15.7857C6.23809 16.8333 7.67856 18.9286 12 18.9286C16.3214 18.9286 17.7619 16.8333 17.8928 15.7857V12.3052L12.5264 14.7968C12.1926 14.9518 11.8074 14.9518 11.4736 14.7968L6.10714 12.3052Z" fill="black"/>
<path d="M12 4.8269L21.219 9.10715L12 13.3874L2.78101 9.10715L12 4.8269Z" fill="black"/>
<path d="M21.0357 11.1071C21.4499 11.1071 21.7857 11.4429 21.7857 11.8571V15C21.7857 15.4142 21.4499 15.75 21.0357 15.75C20.6215 15.75 20.2857 15.4142 20.2857 15V11.8571C20.2857 11.4429 20.6215 11.1071 21.0357 11.1071Z" fill="black"/>
</svg>
