<svg width="24" height="24" viewBox="0 0 24 24" fill="none" xmlns="http://www.w3.org/2000/svg">
<path fill-rule="evenodd" clip-rule="evenodd" d="M19.25 1.5C19.6642 1.5 20 1.83579 20 2.25V9.31297C20.9797 10.1566 21.6 11.4059 21.6 12.8002C21.6 14.3867 20.7969 15.7855 19.575 16.6125C18.7475 18.8271 16.7901 20.4906 14.4042 20.9017C14.1247 21.8266 13.266 22.5 12.25 22.5H10.25C9.00736 22.5 8 21.4926 8 20.25C8 19.0074 9.00736 18 10.25 18H12.25C13.1876 18 13.9913 18.5735 14.3294 19.3889C15.6081 19.1217 16.7159 18.3893 17.4678 17.3767C17.314 17.3922 17.1579 17.4002 17 17.4002C15.3593 17.4002 13.9202 16.5405 13.1072 15.2518C12.651 14.5286 12.1741 14.2002 11.8 14.2002C11.4259 14.2002 10.949 14.5286 10.4928 15.2518C9.67984 16.5405 8.24068 17.4002 6.6 17.4002C4.05949 17.4002 2 15.3407 2 12.8002C2 10.2597 4.05949 8.2002 6.6 8.2002C6.67967 8.2002 6.75896 8.20223 6.83781 8.20626C6.86415 8.20761 6.89962 8.20757 6.96333 8.20566L6.99807 8.20454C7.05214 8.20274 7.12845 8.2002 7.2 8.2002H16.4C16.4716 8.2002 16.5479 8.20274 16.6019 8.20454L16.6367 8.20566C16.7004 8.20757 16.7359 8.20761 16.7622 8.20626C16.841 8.20223 16.9203 8.2002 17 8.2002C17.5252 8.2002 18.0299 8.28821 18.5 8.45031V2.25C18.5 1.83579 18.8358 1.5 19.25 1.5ZM6.75 11.5C6.05964 11.5 5.5 12.0596 5.5 12.75C5.5 13.1642 5.16421 13.5 4.75 13.5C4.33579 13.5 4 13.1642 4 12.75C4 11.2312 5.23122 10 6.75 10C7.16421 10 7.5 10.3358 7.5 10.75C7.5 11.1642 7.16421 11.5 6.75 11.5ZM9.5 20.25C9.5 19.8358 9.83579 19.5 10.25 19.5H12.25C12.6642 19.5 13 19.8358 13 20.25C13 20.6642 12.6642 21 12.25 21H10.25C9.83579 21 9.5 20.6642 9.5 20.25Z" fill="black"/>
</svg>
