<svg width="24" height="24" viewBox="0 0 24 24" fill="none" xmlns="http://www.w3.org/2000/svg">
<path fill-rule="evenodd" clip-rule="evenodd" d="M7.47191 4.41681C7.79401 4.67723 7.84401 5.14947 7.58358 5.47157C7.04544 6.13715 6.27042 8.39289 7.68972 11.7046C9.27424 15.4018 8.5544 18.2708 7.58358 19.4716C7.32315 19.7937 6.85092 19.8437 6.52881 19.5832C6.20671 19.3228 6.15671 18.8506 6.41714 18.5285C6.95557 17.8625 7.73368 15.615 6.311 12.2955C4.7303 8.60716 5.44603 5.72957 6.41714 4.52848C6.67757 4.20638 7.1498 4.15638 7.47191 4.41681ZM12.4719 4.41681C12.794 4.67723 12.844 5.14947 12.5836 5.47157C12.0454 6.13715 11.2704 8.39289 12.6897 11.7046C14.2742 15.4018 13.5544 18.2708 12.5836 19.4716C12.3231 19.7937 11.8509 19.8437 11.5288 19.5832C11.2067 19.3228 11.1567 18.8506 11.4171 18.5285C11.9556 17.8625 12.7337 15.615 11.311 12.2955C9.7303 8.60716 10.446 5.72957 11.4171 4.52848C11.6776 4.20638 12.1498 4.15638 12.4719 4.41681ZM17.5836 5.47157C17.844 5.14947 17.794 4.67723 17.4719 4.41681C17.1498 4.15638 16.6776 4.20638 16.4171 4.52848C15.446 5.72957 14.7303 8.60716 16.311 12.2955C17.7337 15.615 16.9556 17.8625 16.4171 18.5285C16.1567 18.8506 16.2067 19.3228 16.5288 19.5832C16.8509 19.8437 17.3231 19.7937 17.5836 19.4716C18.5544 18.2708 19.2742 15.4018 17.6897 11.7046C16.2704 8.39289 17.0454 6.13715 17.5836 5.47157Z" fill="black"/>
</svg>
