<svg width="24" height="24" viewBox="0 0 24 24" fill="none" xmlns="http://www.w3.org/2000/svg">
<path fill-rule="evenodd" clip-rule="evenodd" d="M16.6639 3.40231L7.1617 12.9215L6.17996 11.9397C5.88707 11.6468 5.41219 11.6468 5.1193 11.9397C4.82641 12.2326 4.82641 12.7075 5.1193 13.0004L11.1193 19.0004C11.4122 19.2933 11.8871 19.2933 12.18 19.0004C12.4729 18.7075 12.4729 18.2326 12.18 17.9397L11.089 16.8488L20.5577 7.29479C20.5739 7.27844 20.5839 7.25701 20.5862 7.23411L20.9879 3.11998C20.994 3.0577 20.942 3.0052 20.8797 3.01064L16.726 3.37334C16.7026 3.37539 16.6806 3.38565 16.6639 3.40231ZM8.41204 18.2213L5.79233 15.6016L2.30119 19.0927C1.91067 19.4832 1.91067 20.1164 2.30119 20.5069L3.50669 21.7124C3.89721 22.1029 4.53038 22.1029 4.9209 21.7124L8.41204 18.2213Z" fill="black"/>
</svg>
