<svg width="24" height="24" viewBox="0 0 24 24" fill="none" xmlns="http://www.w3.org/2000/svg">
<path fill-rule="evenodd" clip-rule="evenodd" d="M17.5 3C18.0523 3 18.5 3.44772 18.5 4V17C18.5 17.5523 18.0523 18 17.5 18H16.5V7C16.5 5.89543 15.6046 5 14.5 5H7V4C7 3.44772 7.44772 3 8 3H17.5ZM4 7.5C4 6.94771 4.44772 6.5 5 6.5H14C14.5523 6.5 15 6.94772 15 7.5V20C15 20.5523 14.5523 21 14 21H5C4.44771 21 4 20.5523 4 20V7.5ZM6 10.5H13V9H6V10.5ZM6 14H13V12.5H6V14ZM13 17.5H6V16H13V17.5Z" fill="black"/>
</svg>
