<svg width="24" height="24" viewBox="0 0 24 24" fill="none" xmlns="http://www.w3.org/2000/svg">
<path d="M13.5306 1.96967C13.8235 2.26256 13.8235 2.73744 13.5306 3.03033C13.4147 3.14617 13.2084 3.49964 13.0311 4.09051C12.863 4.65081 12.7502 5.32824 12.7502 6C12.7502 6.41421 12.4145 6.75 12.0002 6.75C11.586 6.75 11.2502 6.41421 11.2502 6C11.2502 5.17176 11.3875 4.34919 11.5944 3.65949C11.7921 3.00036 12.0858 2.35383 12.4699 1.96967C12.7628 1.67678 13.2377 1.67678 13.5306 1.96967Z" fill="black"/>
<path d="M10.0003 6C9.99521 6.45357 9.58634 6.77994 9.13923 6.70349C8.48204 6.59112 7.82461 6.31792 7.23315 5.8786C6.08142 5.02312 5.4605 3.74618 5.4741 2.52713C5.47916 2.07356 5.88802 1.74718 6.33513 1.82363C6.99232 1.936 7.64975 2.2092 8.24121 2.64852C9.39294 3.504 10.0139 4.78094 10.0003 6Z" fill="black"/>
<path fill-rule="evenodd" clip-rule="evenodd" d="M20.1697 15.8397C19.7807 17.313 19.1004 18.7617 18.2183 19.9061C17.4165 20.9463 16.4739 21.4985 15.5019 21.6916C14.5468 21.8813 13.6289 21.7119 12.8718 21.427C12.2511 21.1934 11.5375 21.1934 10.9168 21.427C10.1598 21.7119 9.24182 21.8814 8.28664 21.6916C7.31469 21.4986 6.37205 20.9464 5.57024 19.9062C4.68816 18.7618 4.00782 17.3131 3.61878 15.8398C3.23103 14.3714 3.11723 12.8191 3.43167 11.4753C3.74995 10.1151 4.52598 8.91876 5.92923 8.34384C7.29815 7.78299 9.10462 7.88153 11.3549 8.71615C11.701 8.84453 12.0874 8.84453 12.4335 8.71615C14.6838 7.88149 16.4903 7.78293 17.8592 8.34376C19.2625 8.91866 20.0386 10.115 20.3568 11.4752C20.6713 12.819 20.5575 14.3713 20.1697 15.8397ZM5.24999 13C5.24999 13.4142 5.58577 13.75 5.99999 13.75C6.4142 13.75 6.74999 13.4142 6.74999 13C6.74999 12.4824 6.90186 12.0214 7.13558 11.7087C7.35914 11.4095 7.6481 11.25 7.99999 11.25C8.4142 11.25 8.74999 10.9142 8.74999 10.5C8.74999 10.0858 8.4142 9.74998 7.99999 9.74998C7.1114 9.74998 6.40036 10.1867 5.93403 10.8108C5.47787 11.4212 5.24999 12.2102 5.24999 13Z" fill="black"/>
</svg>
