<svg width="24" height="24" viewBox="0 0 24 24" fill="none" xmlns="http://www.w3.org/2000/svg">
<path fill-rule="evenodd" clip-rule="evenodd" d="M2.70732 9.64946C2.3168 10.04 2.3168 10.6731 2.70732 11.0637L9.64719 18.0035H17.4949L21.2207 14.2778C21.6112 13.8873 21.6112 13.2541 21.2207 12.8636L11.064 2.70696C10.6735 2.31643 10.0403 2.31643 9.64982 2.70696L2.70732 9.64946ZM1.4502 20.2499C1.4502 19.8357 1.78598 19.4999 2.2002 19.4999H21.2802C21.6944 19.4999 22.0302 19.8357 22.0302 20.2499C22.0302 20.6641 21.6944 20.9999 21.2802 20.9999H2.2002C1.78598 20.9999 1.4502 20.6641 1.4502 20.2499ZM14.5103 10.7599C14.5103 10.3456 14.1745 10.0099 13.7603 10.0099C13.346 10.0099 13.0103 10.3456 13.0103 10.7599V14.0099H11.7603C11.346 14.0099 11.0103 14.3456 11.0103 14.7599C11.0103 15.1741 11.346 15.5099 11.7603 15.5099H13.6603C14.1297 15.5099 14.5103 15.1293 14.5103 14.6599V10.7599Z" fill="black"/>
</svg>
