<svg width="24" height="24" viewBox="0 0 24 24" fill="none" xmlns="http://www.w3.org/2000/svg">
<path fill-rule="evenodd" clip-rule="evenodd" d="M4 7.50895C4 6.94784 4.6761 6.66428 5.07637 7.05752C6.18482 8.14653 7.91999 8.26951 9.17097 7.34774L9.82052 6.86912C10.4366 6.4152 11.313 6.62602 11.6552 7.31045L12 8.00003L12.3448 7.31045C12.687 6.62602 13.5634 6.4152 14.1795 6.86912L14.829 7.34774C16.08 8.26951 17.8152 8.14653 18.9236 7.05752C19.3239 6.66427 20 6.94784 20 7.50895V13C20 15.3334 17.9612 17.3251 16 18.2052C13.4555 19.3469 10.5445 19.3469 8 18.2052C6.03883 17.3251 4 15.3334 4 13V7.50895ZM10.5303 9.96967C10.2374 9.67678 9.76256 9.67678 9.46967 9.96967C9.17678 10.2626 9.17678 10.7374 9.46967 11.0303C10.1421 11.7028 11.1011 12 12 12C12.8989 12 13.8579 11.7028 14.5303 11.0303C14.8232 10.7374 14.8232 10.2626 14.5303 9.96967C14.2374 9.67678 13.7626 9.67678 13.4697 9.96967C13.1421 10.2972 12.6011 10.5 12 10.5C11.3989 10.5 10.8579 10.2972 10.5303 9.96967Z" fill="black"/>
</svg>
