<svg width="24" height="24" viewBox="0 0 24 24" fill="none" xmlns="http://www.w3.org/2000/svg">
<path d="M17.7571 3.55788C18.4913 2.81977 19.6832 2.81105 20.4282 3.53835C21.1831 4.27538 21.192 5.4867 20.4479 6.2347L17.575 9.12261L19.4607 16.6164C19.6319 17.2969 19.434 18.0175 18.939 18.515L18.0216 19.4372C17.8004 19.6596 17.4314 19.6257 17.2544 19.3668L13.234 13.4864L13.2353 13.485L10.077 16.6596L10.4617 19.3499C10.5063 19.6616 10.4013 19.9762 10.1785 20.1988L9.44719 20.9295C9.30626 21.0703 9.06976 21.0372 8.97295 20.8631L6.8887 17.1147L3.13782 15.0324C2.9635 14.9357 2.93033 14.6989 3.07136 14.558L3.80238 13.8273C4.02491 13.6049 4.33913 13.5002 4.6506 13.5447L7.34417 13.9291L10.5179 10.8349L4.53137 6.94355C4.26528 6.77059 4.22557 6.3967 4.44939 6.1717L5.36428 5.25204C5.8563 4.75744 6.57049 4.55498 7.24888 4.71778L14.8004 6.52998L17.7571 3.55788Z" fill="black"/>
</svg>
