<svg width="24" height="24" viewBox="0 0 24 24" fill="none" xmlns="http://www.w3.org/2000/svg">
<path fill-rule="evenodd" clip-rule="evenodd" d="M18.6957 16.6087V2C17.1739 3.13272 14.1304 7.95881 14.1304 16.6087H18.6957ZM6.01805 20.9001L6.34583 14.3446C6.35913 14.0785 6.57877 13.8696 6.8452 13.8696H7.44568C7.44568 13.8696 7.44568 13.8696 7.44568 13.8695V12.554L5.30876 11.6352C4.66632 11.3589 4.25 10.7268 4.25 10.0275V2.90002C4.25 2.48581 4.58579 2.15002 5 2.15002C5.41421 2.15002 5.75 2.48581 5.75 2.90002V10.0275C5.75 10.1274 5.80947 10.2177 5.90125 10.2571L7.44568 10.9212V2.91302C7.44568 2.49881 7.78147 2.16302 8.19568 2.16302C8.60989 2.16302 8.94568 2.49881 8.94568 2.91302V10.9212L10.4901 10.2571C10.5818 10.2177 10.6413 10.1274 10.6413 10.0275V2.90002C10.6413 2.48581 10.9771 2.15002 11.3913 2.15002C11.8055 2.15002 12.1413 2.48581 12.1413 2.90002V10.0275C12.1413 10.7268 11.725 11.3589 11.0825 11.6352L8.94568 12.5539V13.8695C8.94568 13.8696 8.94568 13.8696 8.94568 13.8696H9.54613C9.81256 13.8696 10.0322 14.0785 10.0455 14.3446L10.3733 20.9001C10.4304 22.0425 9.51957 23 8.37577 23H8.01556C6.87176 23 5.96093 22.0425 6.01805 20.9001ZM15.0435 21.1739V18.4348H18.6956V21.1739C18.6956 22.1825 17.8781 23 16.8695 23C15.861 23 15.0435 22.1825 15.0435 21.1739Z" fill="black"/>
</svg>
