<svg width="24" height="24" viewBox="0 0 24 24" fill="none" xmlns="http://www.w3.org/2000/svg">
<path fill-rule="evenodd" clip-rule="evenodd" d="M4 3C3.44772 3 3 3.44772 3 4V19.5C3 20.0523 3.44772 20.5 4 20.5H20C20.5523 20.5 21 20.0523 21 19.5V4C21 3.44772 20.5523 3 20 3H4ZM13.3856 15.4301L10.5 11.3078L7.61443 15.4301C7.37689 15.7694 6.90924 15.852 6.56991 15.6144C6.23057 15.3769 6.14804 14.9092 6.38558 14.5699L9.80366 9.68693C10.142 9.20352 10.858 9.20352 11.1964 9.68693L14.6144 14.5699C14.852 14.9092 14.7694 15.3769 14.4301 15.6144C14.0908 15.852 13.6231 15.7694 13.3856 15.4301ZM13.0699 9.38558C13.4092 9.14804 13.8769 9.23057 14.1144 9.56991L17.6144 14.5699C17.852 14.9092 17.7694 15.3769 17.4301 15.6144C17.0908 15.852 16.6231 15.7694 16.3856 15.4301L12.8856 10.4301C12.648 10.0908 12.7306 9.62312 13.0699 9.38558ZM16 9C16.5523 9 17 8.55228 17 8C17 7.44772 16.5523 7 16 7C15.4477 7 15 7.44772 15 8C15 8.55228 15.4477 9 16 9Z" fill="black"/>
</svg>
