<svg width="24" height="24" viewBox="0 0 24 24" fill="none" xmlns="http://www.w3.org/2000/svg">
<path d="M16.5 5C16.2239 5 16 5.22386 16 5.5V15.5C16 15.7761 16.2239 16 16.5 16H17.5C17.7761 16 18 15.7761 18 15.5V5.5C18 5.22386 17.7761 5 17.5 5H16.5Z" fill="black"/>
<path d="M11.5 8C11.7761 8 12 8.22386 12 8.5V15.5C12 15.7761 11.7761 16 11.5 16H10.5C10.2239 16 10 15.7761 10 15.5V8.5C10 8.22386 10.2239 8 10.5 8H11.5Z" fill="black"/>
<path d="M5.5 11C5.77614 11 6 11.2239 6 11.5V15.5C6 15.7761 5.77614 16 5.5 16H4.5C4.22386 16 4 15.7761 4 15.5V11.5C4 11.2239 4.22386 11 4.5 11H5.5Z" fill="black"/>
<path d="M13.5 10C13.2239 10 13 10.2239 13 10.5V15.5C13 15.7761 13.2239 16 13.5 16H14.5C14.7761 16 15 15.7761 15 15.5V10.5C15 10.2239 14.7761 10 14.5 10H13.5Z" fill="black"/>
<path d="M20.5 10C20.7761 10 21 10.2239 21 10.5V15.5C21 15.7761 20.7761 16 20.5 16H19.5C19.2239 16 19 15.7761 19 15.5V10.5C19 10.2239 19.2239 10 19.5 10H20.5Z" fill="black"/>
<path d="M8.5 12C8.77614 12 9 12.2239 9 12.5V15.5C9 15.7761 8.77614 16 8.5 16H7.5C7.22386 16 7 15.7761 7 15.5V12.5C7 12.2239 7.22386 12 7.5 12H8.5Z" fill="black"/>
<path d="M4.75 17C4.33579 17 4 17.3358 4 17.75C4 18.1642 4.33579 18.5 4.75 18.5H20.25C20.6642 18.5 21 18.1642 21 17.75C21 17.3358 20.6642 17 20.25 17H4.75Z" fill="black"/>
</svg>
