<svg width="24" height="24" viewBox="0 0 24 24" fill="none" xmlns="http://www.w3.org/2000/svg">
<path fill-rule="evenodd" clip-rule="evenodd" d="M4.5 3.5C4.5 3.22386 4.72386 3 5 3H19C19.2761 3 19.5 3.22386 19.5 3.5V20.5C19.5 20.7761 19.2761 21 19 21H5C4.72386 21 4.5 20.7761 4.5 20.5V3.5ZM7 7.5H17V6H7V7.5ZM7 11.5H17V10H7V11.5ZM10 15.5H7V14H10V15.5ZM15.5 16.5C15.5 17.0523 15.0523 17.5 14.5 17.5C13.9477 17.5 13.5 17.0523 13.5 16.5C13.5 15.9477 13.9477 15.5 14.5 15.5C15.0523 15.5 15.5 15.9477 15.5 16.5ZM17 16.5C17 17.8807 15.8807 19 14.5 19C13.1193 19 12 17.8807 12 16.5C12 15.1193 13.1193 14 14.5 14C15.8807 14 17 15.1193 17 16.5Z" fill="black"/>
</svg>
