<svg width="24" height="24" viewBox="0 0 24 24" fill="none" xmlns="http://www.w3.org/2000/svg">
<path fill-rule="evenodd" clip-rule="evenodd" d="M3 9.47368V9.68185C3 10.3792 3.12838 11.0706 3.37872 11.7215L4.82338 15.4776C5.01053 15.9642 5.13441 16.4728 5.19198 16.991L5.21886 17.2329C5.3939 18.8082 6.72544 20 8.31045 20H8.46399C10.0971 20 11.4211 18.6761 11.4211 17.0429C11.4211 16.2256 11.663 15.4266 12.1163 14.7465L12.4518 14.2433C12.8863 13.5916 13.2519 12.8966 13.5428 12.1694C13.81 11.5012 13.9474 10.7881 13.9474 10.0685V9.27226C13.9474 6.36047 11.5869 4 8.67511 4H8.47368C5.45065 4 3 6.45065 3 9.47368ZM8.47367 8.11842C7.74712 8.11842 7.11841 8.79975 7.11841 9.47369C7.11841 10.1102 7.32404 10.4974 7.58891 10.7747C8.12133 11.3323 8.80262 12.1602 8.80262 13.2361V14.5263C8.80262 14.9405 8.46683 15.2763 8.05262 15.2763C7.63841 15.2763 7.30262 14.9405 7.30262 14.5263V13.2361C7.30262 12.7969 7.01807 12.3489 6.50411 11.8107C5.97237 11.2539 5.61841 10.4955 5.61841 9.47369C5.61841 8.01589 6.87481 6.61842 8.47367 6.61842C10.0725 6.61842 11.3289 8.01589 11.3289 9.47369C11.3289 9.8879 10.9931 10.2237 10.5789 10.2237C10.1647 10.2237 9.82893 9.8879 9.82893 9.47369C9.82893 8.79975 9.20022 8.11842 8.47367 8.11842ZM17.004 5.46967C16.7111 5.17678 16.2362 5.17678 15.9433 5.46967C15.6504 5.76256 15.6504 6.23744 15.9433 6.53033L17.9393 8.52632L15.9433 10.5223C15.6504 10.8152 15.6504 11.2901 15.9433 11.583C16.2362 11.8759 16.7111 11.8759 17.004 11.583L18.9999 9.58698L20.9959 11.583C21.2888 11.8759 21.7637 11.8759 22.0566 11.583C22.3495 11.2901 22.3495 10.8152 22.0566 10.5223L20.0606 8.52632L22.0566 6.53033C22.3495 6.23744 22.3495 5.76256 22.0566 5.46967C21.7637 5.17678 21.2888 5.17678 20.9959 5.46967L18.9999 7.46566L17.004 5.46967Z" fill="black"/>
</svg>
