<svg width="24" height="24" viewBox="0 0 24 24" fill="none" xmlns="http://www.w3.org/2000/svg">
<path d="M3 4.25C3 3.55965 3.55963 3 4.25 3H7.75C8.16422 3 8.5 3.33578 8.5 3.75C8.5 4.16422 8.16422 4.5 7.75 4.5H4.5V7.75C4.5 8.16422 4.16422 8.5 3.75 8.5C3.33578 8.5 3 8.16422 3 7.75V4.25Z" fill="black"/>
<path d="M3 19.75C3 20.4404 3.55963 21 4.25 21H7.75C8.16422 21 8.5 20.6642 8.5 20.25C8.5 19.8358 8.16422 19.5 7.75 19.5H4.5V16.25C4.5 15.8358 4.16422 15.5 3.75 15.5C3.33578 15.5 3 15.8358 3 16.25V19.75Z" fill="black"/>
<path d="M19.75 3C20.4404 3 21 3.55965 21 4.25V7.75C21 8.16422 20.6642 8.5 20.25 8.5C19.8358 8.5 19.5 8.16422 19.5 7.75V4.5H16.25C15.8358 4.5 15.5 4.16422 15.5 3.75C15.5 3.33578 15.8358 3 16.25 3H19.75Z" fill="black"/>
<path d="M21 19.75C21 20.4404 20.4404 21 19.75 21H16.25C15.8358 21 15.5 20.6642 15.5 20.25C15.5 19.8358 15.8358 19.5 16.25 19.5H19.5V16.25C19.5 15.8358 19.8358 15.5 20.25 15.5C20.6642 15.5 21 15.8358 21 16.25V19.75Z" fill="black"/>
<path d="M8 7C7.44772 7 7 7.44771 7 8V9.70001C7 9.86569 7.13431 10 7.29999 10H10V14H7.29999C7.13431 14 7 14.1343 7 14.3V16C7.00003 16.5523 7.44772 17 8 17H9.69998C9.86566 17 9.99997 16.8657 9.99997 16.7L10 14H14V16.7C14 16.8657 14.1343 17 14.3 17H16C16.5523 17 17 16.5523 17 16L17 14.3C17 14.1343 16.8657 14 16.7 14H14V10H16.7C16.8657 10 17 9.86569 17 9.7V8C17 7.44771 16.5523 7 16 7H14.3C14.1343 7 14 7.13431 14 7.3V10H10V7.3C10 7.13431 9.86569 7 9.70001 7H8Z" fill="black"/>
</svg>
