<svg width="24" height="24" viewBox="0 0 24 24" fill="none" xmlns="http://www.w3.org/2000/svg">
<path fill-rule="evenodd" clip-rule="evenodd" d="M14.1822 1.54114C14.584 1.64165 14.8283 2.04887 14.7278 2.45071L14.6129 2.90998C19.151 4.12098 21.6427 8.58098 21.1482 13.2799C21.0904 13.8292 20.5606 14.1833 20.0185 14.0779L12.6831 12.6515L10.935 20.5188H19.5C19.9142 20.5188 20.25 20.8546 20.25 21.2688C20.25 21.683 19.9142 22.0188 19.5 22.0188H3C2.58579 22.0188 2.25 21.683 2.25 21.2688C2.25 20.8546 2.58579 20.5188 3 20.5188H9.39839L11.2101 12.3651L3.98177 10.9595C3.43967 10.8541 3.08109 10.3272 3.23559 9.79704C4.53539 5.33657 8.55733 2.19774 13.1336 2.64246L13.2726 2.08676C13.3731 1.68492 13.7804 1.44064 14.1822 1.54114ZM14.6819 5.04111C14.28 4.94064 13.8728 5.18496 13.7724 5.58681C13.6719 5.98866 13.9162 6.39586 14.3181 6.49632C15.9619 6.90728 17.3144 8.61886 17.7724 10.4506C17.8728 10.8525 18.28 11.0968 18.6819 10.9963C19.0837 10.8959 19.3281 10.4887 19.2276 10.0868C18.6855 7.91857 17.038 5.63014 14.6819 5.04111Z" fill="black"/>
</svg>
