<svg width="24" height="24" viewBox="0 0 24 24" fill="none" xmlns="http://www.w3.org/2000/svg">
<path d="M8.96083 2.20906C9.26945 2.05662 9.76378 2.10535 10.3867 2.5431C10.4624 2.59628 10.5383 2.65423 10.6142 2.71678C11.1454 3.15466 11.6734 3.81804 12.0827 4.64662C12.5504 5.59356 12.7525 6.53257 12.7224 7.27182C12.6915 8.03257 12.4297 8.45474 12.1211 8.60719C11.8125 8.75963 11.3181 8.7109 10.6952 8.27315C10.0899 7.84775 9.467 7.11658 8.99926 6.16963C8.88394 5.93616 8.78439 5.70235 8.70041 5.47119C8.60611 5.21165 8.31927 5.07769 8.05972 5.17198C7.80018 5.26628 7.66622 5.55312 7.76052 5.81266C7.85716 6.07869 7.9712 6.34633 8.10267 6.61249C8.62992 7.67993 9.35332 8.55239 10.1202 9.09133C10.2675 9.19477 10.4206 9.28856 10.5777 9.36952L10.1311 9.59012C9.82249 9.74256 9.32816 9.69383 8.70521 9.25608C8.09986 8.83068 7.477 8.09951 7.00926 7.15257C6.54153 6.20563 6.33943 5.26662 6.36952 4.52736C6.40048 3.76661 6.66221 3.34444 6.97083 3.192L7.41777 2.97123C7.37286 3.22243 7.35382 3.48422 7.35693 3.74662C7.3602 4.02275 7.58669 4.24394 7.86281 4.24067C8.13894 4.2374 8.36013 4.01091 8.35686 3.73479C8.34654 2.86266 8.6256 2.37465 8.96083 2.20906Z" fill="black"/>
<path d="M7.26509 11.3025C6.22594 11.0588 5.42099 11.2376 4.95656 11.7158C4.45306 12.2344 4.31385 13.1469 4.68827 14.2959C4.77383 14.5584 4.63034 14.8406 4.36779 14.9262C4.10524 15.0117 3.82304 14.8683 3.73748 14.6057C3.5884 14.1482 3.498 13.6845 3.48007 13.2364L2.65758 14.0834C2.19316 14.5617 2.03818 15.3715 2.31223 16.4031C2.58331 17.4234 3.25836 18.5698 4.29416 19.5756C5.32997 20.5814 6.49569 21.2225 7.52354 21.4634C8.5627 21.707 9.36765 21.5283 9.83207 21.05L10.6544 20.2031C10.3076 20.1996 9.95064 20.153 9.59427 20.0695C8.3619 19.7805 7.03999 19.0358 5.89651 17.9254C5.61185 17.649 5.35011 17.3615 5.11249 17.067C4.93909 16.8521 4.97274 16.5373 5.18765 16.3639C5.40257 16.1905 5.71735 16.2242 5.89075 16.4391C6.10281 16.7019 6.33726 16.9596 6.59314 17.208C7.62896 18.2138 8.79467 18.8549 9.82252 19.0959C10.8617 19.3395 11.6666 19.1608 12.1311 18.6825C12.5955 18.2042 12.7505 17.3943 12.4764 16.3628C12.2053 15.3425 11.5303 14.1961 10.4945 13.1903C9.45866 12.1845 8.29295 11.5434 7.26509 11.3025Z" fill="black"/>
<path d="M13.466 13.4124C13.1464 13.0066 13.0804 12.3545 13.3917 11.5356C13.6989 10.7275 14.3486 9.84498 15.2863 9.10647C16.224 8.36796 17.2342 7.9432 18.0918 7.83397C18.9609 7.72327 19.5798 7.9409 19.8994 8.34672C20.2186 8.75259 20.2844 9.40437 19.9732 10.2229C19.666 11.031 19.0163 11.9135 18.0786 12.652C17.8472 12.8343 17.6106 12.9979 17.3724 13.1427C17.1364 13.286 17.0613 13.5936 17.2047 13.8296C17.348 14.0656 17.6556 14.1407 17.8916 13.9973C18.1646 13.8315 18.4344 13.6447 18.6973 13.4376C19.753 12.6062 20.5261 11.5827 20.908 10.5782C20.9952 10.3488 21.0634 10.1155 21.109 9.88259L21.6044 10.5116C21.924 10.9175 21.99 11.5695 21.6787 12.3885C21.3715 13.1966 20.7218 14.0791 19.7841 14.8176C18.8464 15.5561 17.8362 15.9808 16.9786 16.0901C16.1095 16.2008 15.4911 15.9838 15.1715 15.578L14.6759 14.9487C15.0013 14.9625 15.338 14.9355 15.6737 14.8737C15.9453 14.8237 16.1249 14.563 16.0749 14.2915C16.0249 14.0199 15.7643 13.8402 15.4927 13.8902C14.5143 14.0703 13.8124 13.8523 13.466 13.4124Z" fill="black"/>
</svg>
