<svg width="24" height="24" viewBox="0 0 24 24" fill="none" xmlns="http://www.w3.org/2000/svg">
<path fill-rule="evenodd" clip-rule="evenodd" d="M7.5 3C6.67157 3 6 3.67157 6 4.5V19.5C6 20.3284 6.67157 21 7.5 21H16.5C17.3284 21 18 20.3284 18 19.5V4.5C18 3.67157 17.3284 3 16.5 3H7.5ZM10.25 4C9.83579 4 9.5 4.33579 9.5 4.75C9.5 5.16421 9.83579 5.5 10.25 5.5H13.75C14.1642 5.5 14.5 5.16421 14.5 4.75C14.5 4.33579 14.1642 4 13.75 4H10.25ZM10 19H8V17.5H10V19ZM11.5 17.5V19H16V17.5H11.5ZM12 8C12.4142 8 12.75 8.33579 12.75 8.75V10.5H14.5C14.9142 10.5 15.25 10.8358 15.25 11.25C15.25 11.6642 14.9142 12 14.5 12H12.75V13.75C12.75 14.1642 12.4142 14.5 12 14.5C11.5858 14.5 11.25 14.1642 11.25 13.75V12H9.5C9.08579 12 8.75 11.6642 8.75 11.25C8.75 10.8358 9.08579 10.5 9.5 10.5H11.25V8.75C11.25 8.33579 11.5858 8 12 8Z" fill="black"/>
</svg>
