<svg width="24" height="24" viewBox="0 0 24 24" fill="none" xmlns="http://www.w3.org/2000/svg">
<path fill-rule="evenodd" clip-rule="evenodd" d="M5.39998 6.24995C5.64851 5.91858 6.11861 5.85142 6.44998 6.09995L11.61 9.96995C11.8411 10.1433 12.1589 10.1433 12.39 9.96995L17.55 6.09995C17.8814 5.85142 18.3515 5.91858 18.6 6.24995C18.8485 6.58132 18.7814 7.05142 18.45 7.29995L13.29 11.1699C12.5255 11.7433 11.4744 11.7433 10.71 11.1699L5.54998 7.29995C5.21861 7.05142 5.15145 6.58132 5.39998 6.24995ZM12.7507 13.4533C13.9841 12.6311 15.648 12.9575 16.4802 14.1804L16.4811 14.181L16.4849 14.1847L16.4849 14.1847L16.4849 14.1847C16.5014 14.2007 16.5621 14.26 16.6852 14.3339C16.8589 14.4381 17.0677 14.5163 17.274 14.5458C17.47 14.5738 17.6438 14.5561 17.8027 14.4972C17.9534 14.4413 18.1903 14.3121 18.4742 13.9714C19.112 13.206 20.0837 12.8829 21 13.0375V5C21 4.44772 20.5523 4 20 4H4C3.44772 4 3 4.44772 3 5V16.5C3 17.0523 3.44772 17.5 4 17.5H11.1359C11.2047 17.0907 11.3681 16.6943 11.6261 16.3458C11.3617 15.2725 11.7779 14.1019 12.7507 13.4533ZM14.0296 15.0706C14.3772 14.8453 14.8416 14.9444 15.0669 15.292C15.3766 15.7699 16.1621 16.3364 17.1169 16.4767C18.012 16.6082 19.0583 16.3652 19.9798 15.2278C20.2405 14.906 20.7128 14.8564 21.0347 15.1172C21.3565 15.3779 21.406 15.8502 21.1453 16.1721C21.0161 16.3315 20.8838 16.4791 20.7486 16.6155L21.5377 17.4271C21.8265 17.7241 21.8198 18.1989 21.5228 18.4877C21.2258 18.7764 20.751 18.7697 20.4623 18.4727L19.5368 17.5208C19.1141 17.7414 18.681 17.8809 18.25 17.9518V19.2999C18.25 19.7142 17.9142 20.0499 17.5 20.0499C17.0858 20.0499 16.75 19.7142 16.75 19.2999V17.9364C16.2971 17.8546 15.8646 17.707 15.4707 17.5131L14.5377 18.4727C14.249 18.7697 13.7742 18.7764 13.4772 18.4877C13.1802 18.1989 13.1735 17.7241 13.4623 17.4271L14.2341 16.6332C14.0684 16.4648 13.9251 16.2882 13.8082 16.1079C13.5829 15.7603 13.682 15.2959 14.0296 15.0706Z" fill="black"/>
</svg>
