<svg width="24" height="24" viewBox="0 0 24 24" fill="none" xmlns="http://www.w3.org/2000/svg">
<path fill-rule="evenodd" clip-rule="evenodd" d="M4 13.4764V4C4 3.44772 4.44772 3 5 3H19C19.5523 3 20 3.44771 20 4V13.4764C20 14.0215 19.9307 14.5643 19.7937 15.0918C19.3537 16.7866 18.3136 18.2642 16.8666 19.2502L16.5 19.5L12.4856 21.7302C12.1836 21.898 11.8164 21.898 11.5144 21.7302L7.5 19.5L7.1334 19.2502C5.68641 18.2642 4.64635 16.7866 4.2063 15.0918C4.06932 14.5643 4 14.0215 4 13.4764ZM8.12131 13.0149C8.34389 12.1246 9.14386 11.5 10.0616 11.5H13.9385C14.8562 11.5 15.6562 12.1246 15.8788 13.0149L16.3137 14.7545C16.4083 15.1332 16.1219 15.5 15.7316 15.5H8.26851C7.87817 15.5 7.59175 15.1332 7.68642 14.7545L8.12131 13.0149ZM12 6.5C10.8954 6.5 10 7.39543 10 8.5C10 9.60457 10.8954 10.5 12 10.5C13.1046 10.5 14 9.60457 14 8.5C14 7.39543 13.1046 6.5 12 6.5Z" fill="black"/>
</svg>
