<svg width="24" height="24" viewBox="0 0 24 24" fill="none" xmlns="http://www.w3.org/2000/svg">
<path fill-rule="evenodd" clip-rule="evenodd" d="M16.25 3C16.6642 3 17 3.33579 17 3.75V4.16888C17 5.71559 15.9195 7.05213 14.4071 7.37621L13.804 7.50545C13.335 7.60595 12.75 8.02584 12.75 8.50545V9H16.5C18.9853 9 21 11.0147 21 13.5V13.8283C21 16.1323 19.1323 18 16.8283 18C15.2481 18 13.8036 17.1072 13.097 15.6939L13.0735 15.6471C13.0285 15.5569 12.9363 15.5 12.8356 15.5H11.1644C11.0637 15.5 10.9715 15.5569 10.9265 15.6471L10.903 15.6939C10.1964 17.1072 8.75186 18 7.17173 18C4.86775 18 3 16.1323 3 13.8283V13.5C3 11.0147 5.01472 9 7.5 9H11.25V8.50545C11.25 7.31853 12.3291 6.28744 13.4897 6.03875L14.0929 5.90951C14.9136 5.73363 15.5 5.00829 15.5 4.16888V3.75C15.5 3.33579 15.8358 3 16.25 3ZM7.15625 11.25C7.57046 11.25 7.90625 11.5858 7.90625 12V12.75H8.65625C9.07046 12.75 9.40625 13.0858 9.40625 13.5C9.40625 13.9142 9.07046 14.25 8.65625 14.25H7.90625V15C7.90625 15.4142 7.57046 15.75 7.15625 15.75C6.74204 15.75 6.40625 15.4142 6.40625 15V14.25H5.65625C5.24204 14.25 4.90625 13.9142 4.90625 13.5C4.90625 13.0858 5.24204 12.75 5.65625 12.75H6.40625V12C6.40625 11.5858 6.74204 11.25 7.15625 11.25ZM18.3125 13.5C18.3125 14.3284 17.6409 15 16.8125 15C15.9841 15 15.3125 14.3284 15.3125 13.5C15.3125 12.6716 15.9841 12 16.8125 12C17.6409 12 18.3125 12.6716 18.3125 13.5Z" fill="black"/>
</svg>
