<svg width="24" height="24" viewBox="0 0 24 24" fill="none" xmlns="http://www.w3.org/2000/svg">
<path fill-rule="evenodd" clip-rule="evenodd" d="M14 6C14 7.10457 13.1046 8 12 8C10.8954 8 10 7.10457 10 6C10 4.89543 10.8954 4 12 4C13.1046 4 14 4.89543 14 6ZM3 18C3 16.8954 3.89543 16 5 16H19C20.1046 16 21 16.8954 21 18V19C21 20.1046 20.1046 21 19 21H5C3.89543 21 3 20.1046 3 19V18ZM5.5 14.5C5.5 11.7829 7.16712 9.45524 9.53427 8.48401C10.1669 9.11203 11.0381 9.50002 12 9.50002C12.9619 9.50002 13.8331 9.11203 14.4657 8.48401C16.8329 9.45524 18.5 11.7829 18.5 14.5H5.5Z" fill="black"/>
</svg>
