<svg width="24" height="24" viewBox="0 0 24 24" fill="none" xmlns="http://www.w3.org/2000/svg">
<path d="M9.10004 20.9903C9.32068 21.0012 9.50012 20.8209 9.50012 20.6V17.8166C9.50012 17.6213 9.35583 17.4599 9.17639 17.3828C8.5823 17.1277 8.00012 16.4012 8.00012 14.7633L8.00012 10C8.79969 10.2307 10.6294 10.1607 12.0001 8.5C13.3708 10.1607 15.2006 10.2307 16.0001 10L16.0001 14.7633C16.0001 16.4012 15.4179 17.1277 14.8239 17.3828C14.6444 17.4599 14.5001 17.6213 14.5001 17.8166V20.6C14.5001 20.8209 14.6795 21.0012 14.9002 20.9903C16.7404 20.9 17.8465 20.1905 19.0408 19.5C19.862 19.0253 20.2116 17.8897 19.8531 17.0055C19.3614 15.7926 19.198 15.0002 19.0408 14.2381C18.9829 13.9573 18.9259 13.6806 18.8535 13.3884C18.5794 12.2813 18.5108 9.69797 18.5108 8.5447C18.2367 3.83936 14.0561 3 12.0001 3C9.94411 3 5.76354 3.83036 5.4894 8.53569C5.4894 9.68896 5.42087 12.2723 5.14673 13.3794C5.07439 13.6716 5.01733 13.9483 4.95941 14.2291C4.80225 14.9912 4.63885 15.7836 4.14711 16.9965C3.78864 17.8807 4.17896 19.0253 5.00012 19.5C6.1943 20.1904 7.26481 20.8998 9.10004 20.9903Z" fill="black"/>
</svg>
