<svg width="24" height="24" viewBox="0 0 24 24" fill="none" xmlns="http://www.w3.org/2000/svg">
<path fill-rule="evenodd" clip-rule="evenodd" d="M4 12.9447V13.4764C4 14.0215 4.06932 14.5643 4.2063 15.0918C4.64635 16.7866 5.68641 18.2642 7.1334 19.2502L7.5 19.5L11.5144 21.7302C11.8164 21.898 12.1836 21.898 12.4856 21.7302L16.5 19.5L16.8666 19.2502C18.3136 18.2642 19.3537 16.7866 19.7937 15.0918C19.9307 14.5643 20 14.0215 20 13.4764V12.5049C20 11.537 18.9474 10.9364 18.1141 11.4287L11.9736 15.1744C11.991 15.2804 12 15.3891 12 15.5C12 16.6046 11.1046 17.5 10 17.5C8.89543 17.5 8 16.6046 8 15.5C8 14.3954 8.89543 13.5 10 13.5C10.4468 13.5 10.8594 13.6465 11.1924 13.8941L17.351 10.1373C18.2254 9.62064 19.2097 9.65107 20 10.0553V4C20 3.44771 19.5523 3 19 3H5C4.44772 3 4 3.44772 4 4V8V10.4951C4 11.463 5.05264 12.0636 5.88591 11.5713L12.0264 7.82557C12.009 7.71962 12 7.61086 12 7.5C12 6.39543 12.8954 5.5 14 5.5C15.1046 5.5 16 6.39543 16 7.5C16 8.60457 15.1046 9.5 14 9.5C13.5532 9.5 13.1406 9.35348 12.8077 9.10587L6.64901 12.8627C5.77458 13.3794 4.79033 13.3489 4 12.9447Z" fill="black"/>
</svg>
