<svg width="24" height="24" viewBox="0 0 24 24" fill="none" xmlns="http://www.w3.org/2000/svg">
<path fill-rule="evenodd" clip-rule="evenodd" d="M13.6655 4.34823C14.0009 4.15593 14.4286 4.27192 14.6209 4.6073L15.0711 5.39238C15.2642 5.72919 15.7508 5.72699 15.9408 5.38844L16.3477 4.66364C16.5391 4.32282 16.9724 4.20471 17.3102 4.40133L18.2305 4.93697C18.5679 5.13334 18.6795 5.56771 18.4785 5.90236L18.0781 6.56915C17.8766 6.90457 18.1211 7.33096 18.5123 7.32655L19.2901 7.31778C19.6804 7.31337 19.9989 7.62909 19.998 8.01945L19.9954 9.0843C19.9944 9.47515 19.6736 9.7895 19.2828 9.78246L18.4517 9.76749C18.0635 9.7605 17.8158 10.1793 18.0089 10.5161L18.4591 11.3012C18.6514 11.6366 18.5354 12.0644 18.2 12.2567L17.2603 12.7955C16.9249 12.9878 16.4971 12.8718 16.3048 12.5364L15.8559 11.7534C15.6625 11.4161 15.1751 11.4189 14.9855 11.7584L14.5869 12.4724C14.396 12.8142 13.9619 12.9331 13.6236 12.7361L12.7033 12.2005C12.3665 12.0045 12.2546 11.571 12.4545 11.2365L12.8517 10.5718C13.0519 10.2367 12.8081 9.81172 12.4178 9.81535L11.708 9.82194C11.3182 9.82556 11.0006 9.51006 11.0015 9.12025L11.0041 8.05604C11.0051 7.66439 11.3272 7.34973 11.7188 7.35791L12.4711 7.37363C12.86 7.38175 13.1088 6.9624 12.9153 6.62503L12.4667 5.84251C12.2744 5.50713 12.3904 5.07936 12.7257 4.88706L13.6655 4.34823ZM4.5 6.25007C4.5 5.83586 4.16421 5.50007 3.75 5.50007C3.33579 5.50007 3 5.83586 3 6.25007V17.5001V17.5001L3 17.5025C3.00133 19.4344 4.56782 21.0001 6.5 21.0001C7.88886 21.0001 9.08878 20.1911 9.65428 19.0187L12.931 14.1035L11.6249 13.3572L9.73588 16.1638C9.21083 14.8938 7.95978 14.0001 6.5 14.0001C5.75638 14.0001 5.06692 14.232 4.5 14.6274V6.25007ZM6.5 19.5001C7.60457 19.5001 8.5 18.6046 8.5 17.5001C8.5 16.3955 7.60457 15.5001 6.5 15.5001C5.39543 15.5001 4.5 16.3955 4.5 17.5001C4.5 18.6046 5.39543 19.5001 6.5 19.5001Z" fill="black"/>
</svg>
