<svg width="24" height="24" viewBox="0 0 24 24" fill="none" xmlns="http://www.w3.org/2000/svg">
<path d="M6.25 4C6.66421 4 7 4.33579 7 4.75V7H10.4572C11.1008 7 11.7273 7.20695 12.2442 7.59028L13.4222 8.46387H9.78125C9.36704 8.46387 9.03125 8.79965 9.03125 9.21387C9.03125 9.62808 9.36704 9.96387 9.78125 9.96387H15.4449L17.5164 11.5H11.8137C11.1341 11.5 10.4837 11.7767 10.0124 12.2664L8.30889 14.0363C8.02479 14.3315 7.63232 14.4976 7.22264 14.4961L4.03891 14.4844C4.01331 14.3267 4 14.1649 4 14V13H3.25C2.83579 13 2.5 12.6642 2.5 12.25C2.5 11.8358 2.83579 11.5 3.25 11.5H4V8C4 7.44772 4.44772 7 5 7H5.5L5.5 4.75C5.5 4.33579 5.83579 4 6.25 4Z" fill="black"/>
<path d="M3.00367 15.9807C2.44995 15.9786 2 16.4269 2 16.9806V18C2 18.5523 2.44772 19 3 19L15.9152 19C16.4974 19 17.0506 18.7463 17.4306 18.3052L21.4306 13.661C21.654 13.4018 21.4698 13 21.1276 13H11.8137C11.5418 13 11.2817 13.1107 11.0932 13.3065L9.38963 15.0765C8.82144 15.6669 8.0365 15.9991 7.21714 15.9961L3.00367 15.9807Z" fill="black"/>
</svg>
