<svg width="24" height="24" viewBox="0 0 24 24" fill="none" xmlns="http://www.w3.org/2000/svg">
<path fill-rule="evenodd" clip-rule="evenodd" d="M3 7C3 6.44772 3.44772 6 4 6H20C20.5523 6 21 6.44772 21 7V15C21 15.5523 20.5523 16 20 16H4C3.44772 16 3 15.5523 3 15V7ZM6.25 9.5C6.66421 9.5 7 9.83579 7 10.25V11.75C7 12.1642 6.66421 12.5 6.25 12.5C5.83579 12.5 5.5 12.1642 5.5 11.75V10.25C5.5 9.83579 5.83579 9.5 6.25 9.5ZM18.5 10.25C18.5 9.83579 18.1642 9.5 17.75 9.5C17.3358 9.5 17 9.83579 17 10.25V11.75C17 12.1642 17.3358 12.5 17.75 12.5C18.1642 12.5 18.5 12.1642 18.5 11.75V10.25ZM15 11C15 12.6569 13.6569 14 12 14C10.3431 14 9 12.6569 9 11C9 9.34315 10.3431 8 12 8C13.6569 8 15 9.34315 15 11ZM3.75 17.5C3.33579 17.5 3 17.8358 3 18.25C3 18.6642 3.33579 19 3.75 19H20.25C20.6642 19 21 18.6642 21 18.25C21 17.8358 20.6642 17.5 20.25 17.5H3.75Z" fill="black"/>
</svg>
