<svg width="24" height="24" viewBox="0 0 24 24" fill="none" xmlns="http://www.w3.org/2000/svg">
<path fill-rule="evenodd" clip-rule="evenodd" d="M13.4996 3.58088C13.4998 3.27508 13.7728 3.03987 14.0688 3.11674C17.3196 3.96099 20 7.71166 20 12C20 17.1872 16.5427 20.7433 12.0001 20.9866C11.7244 21.0014 11.5 20.7761 11.5 20.5V19.2905C11.5 18.1711 10.6106 17.8018 9.16637 17.4286C7.72212 17.0555 7 16.6824 7 15.5629C7 14.5555 8.31607 12.9435 9.23732 11.8151C9.33968 11.6897 9.43717 11.5703 9.52743 11.4584C9.91602 10.9765 10.5254 10.1834 11.2196 9.28002C11.6003 8.78445 12.0066 8.25571 12.4159 7.72697C13.5088 6.31515 13.5033 5.23718 13.4995 4.49309L13.4995 4.49289C13.4993 4.4504 13.4991 4.40901 13.4991 4.36871L13.4996 3.58088ZM17 14.25C17 13.8358 16.6642 13.5 16.25 13.5C15.8358 13.5 15.5 13.8358 15.5 14.25C15.5 15.0941 15.1724 15.3849 14.9665 15.4848C14.8404 15.5461 14.7066 15.5644 14.5932 15.5522C14.5373 15.5462 14.4928 15.5334 14.4613 15.52C14.4311 15.5071 14.4194 15.4966 14.4194 15.4966C14.2125 15.2957 14.0461 15.1192 13.8986 14.9611L13.8539 14.9131L13.8538 14.9131C13.7275 14.7774 13.599 14.6395 13.4767 14.5246C13.3355 14.3919 13.1653 14.2533 12.9524 14.1525C12.7288 14.0466 12.4962 14 12.25 14L10.75 14C10.3358 14 10 14.3358 10 14.75C9.99999 15.1642 10.3358 15.5 10.75 15.5L12.25 15.5C12.2948 15.5 12.3071 15.5064 12.3105 15.5082C12.3237 15.5144 12.363 15.5364 12.4497 15.6179C12.5333 15.6963 12.6258 15.7955 12.763 15.9427L12.763 15.9427L12.8018 15.9843C12.9539 16.1474 13.1405 16.3456 13.3747 16.5729C13.939 17.1207 14.8823 17.1932 15.6217 16.8342C16.4453 16.4343 17 15.5471 17 14.25Z" fill="black"/>
</svg>
