<svg width="24" height="24" viewBox="0 0 24 24" fill="none" xmlns="http://www.w3.org/2000/svg">
<path d="M7.5873 5.99946C8.27136 5.9907 9.50912 5.88275 10.7099 5.67102C11.3345 5.56089 11.9296 5.426 12.4195 5.26962C12.9349 5.10511 13.2416 4.94481 13.3712 4.82904C13.5977 4.62664 13.8892 4.57488 14.1352 4.62747C14.3867 4.68121 14.6614 4.86294 14.7717 5.19394L15.0404 6.00004H15.9998C16.5517 5.99959 16.999 5.552 16.999 5C16.999 3.34315 15.6558 2 13.999 2H12.999C10.5234 2 7.5576 2.49027 7.49982 5.89817C7.49894 5.94997 7.537 5.9942 7.5873 5.99946Z" fill="black"/>
<path d="M7.99981 7.48716V8.5C7.99981 10.7091 9.79067 12.5 11.9998 12.5C14.2089 12.5 15.9998 10.7091 15.9998 8.5V7.50004H14.5719C14.206 7.50004 13.8812 7.26593 13.7655 6.91884L13.6008 6.42458C13.368 6.5303 13.1204 6.62046 12.8756 6.6986C12.299 6.88264 11.6328 7.03143 10.9704 7.14824C9.90126 7.33675 8.79093 7.45065 7.99981 7.48716Z" fill="black"/>
<path d="M4.49118 18.7724C3.75148 16.4053 5.51986 14 7.99981 14H11.0361L8.9012 18.2698C8.61861 18.835 9.02959 19.4999 9.66146 19.4999H14.3379C14.9697 19.4999 15.3807 18.835 15.0981 18.2698L12.9632 14H15.9998C18.4798 14 20.2481 16.4053 19.5084 18.7724L18.8287 20.9474C18.633 21.5736 18.0531 22 17.397 22H6.60259C5.94652 22 5.36656 21.5736 5.17087 20.9474L4.49118 18.7724Z" fill="black"/>
<path d="M11.9997 15.427L10.7132 17.9999H13.2861L11.9997 15.427Z" fill="black"/>
</svg>
