<svg width="24" height="24" viewBox="0 0 24 24" fill="none" xmlns="http://www.w3.org/2000/svg">
<path d="M7.0226 8.69377L6.97243 8.8309C6.48432 10.1648 7.58858 11.54 8.95981 11.3058C9.8304 11.1571 10.4685 10.3851 10.4685 9.4806V8.30139C10.4685 7.43456 9.78281 6.73186 8.93699 6.73186H8.12767C7.96515 6.73186 7.85402 6.56364 7.91438 6.409L8.31851 5.37357C8.46936 4.98708 8.76385 4.67783 9.13719 4.51386L10.9024 3.73855C11.0888 3.65671 11.305 3.7379 11.3957 3.92372L11.9192 4.99663C11.9723 5.1056 12 5.22576 12 5.34759C12 5.22576 12.0277 5.1056 12.0808 4.99663L12.6043 3.92372C12.695 3.7379 12.9112 3.65671 13.0976 3.73855L14.8628 4.51386C15.2362 4.67783 15.5306 4.98708 15.6815 5.37357L16.0856 6.409C16.146 6.56364 16.0349 6.73186 15.8723 6.73186H15.063C14.2172 6.73186 13.5315 7.43456 13.5315 8.30139V9.4806C13.5315 10.3851 14.1696 11.1571 15.0402 11.3058C16.4114 11.54 17.5157 10.1648 17.0276 8.8309L16.9774 8.69377L20.8736 2.15985C21.0089 1.93294 21.3361 1.95119 21.4466 2.19179L21.704 2.75232C23.3277 6.28848 23.4301 10.3604 21.9862 13.9776C21.3446 15.585 19.5195 16.3133 17.9862 15.5738L16.1983 14.7116C15.2237 14.2415 14.0752 14.819 13.8415 15.8967C13.6627 16.7209 14.0932 17.5564 14.8582 17.87L16.7733 18.6551C17.0404 18.7646 17.0987 19.1255 16.8803 19.3173L16.715 19.4625C15.4019 20.616 13.7295 21.25 12 21.25C10.2705 21.25 8.59808 20.616 7.28495 19.4625L7.11971 19.3173C6.90131 19.1255 6.95961 18.7646 7.22668 18.6551L9.14181 17.87C9.90677 17.5564 10.3373 16.7209 10.1585 15.8967C9.92485 14.819 8.77633 14.2415 7.80166 14.7116L6.01383 15.5738C4.48046 16.3133 2.65544 15.585 2.01378 13.9776C0.569872 10.3604 0.672252 6.28848 2.29602 2.75232L2.5534 2.19179C2.66389 1.95119 2.99108 1.93294 3.12638 2.15985L7.0226 8.69377Z" fill="black"/>
</svg>
