<svg width="24" height="25" viewBox="0 0 24 25" fill="none" xmlns="http://www.w3.org/2000/svg">
<path d="M7.75044 16.2456C5.95401 14.4297 3.48582 11.3613 3.1475 7.08481C3.06392 6.02827 3.4833 4.96505 4.28735 4.16962L5.30548 3.16239C6.14266 2.33418 7.42481 2.27281 8.16925 3.02531L10.1911 5.06908C10.9356 5.82158 10.8604 7.10299 10.0232 7.9312L8.82126 9.12026C8.62027 9.3191 8.50145 9.58389 8.57223 9.8341C8.77815 10.562 9.4764 11.9265 10.7821 13.2464C12.0878 14.5663 13.4449 15.279 14.1706 15.4928C14.42 15.5663 14.686 15.4503 14.887 15.2515L16.089 14.0624C16.9261 13.2342 18.2083 13.1728 18.9527 13.9253L20.9746 15.9691C21.719 16.7216 21.6439 18.003 20.8067 18.8312L19.7885 19.8384C18.746 20.8482 17.5077 20.9432 16.4521 20.8482C12.1795 20.4639 9.54687 18.0615 7.75044 16.2456Z" fill="black"/>
</svg>
