<svg width="24" height="24" viewBox="0 0 24 24" fill="none" xmlns="http://www.w3.org/2000/svg">
<path fill-rule="evenodd" clip-rule="evenodd" d="M12 2.5C12.4142 2.5 12.75 2.83579 12.75 3.25V5.25C12.75 5.66421 12.4142 6 12 6C11.5858 6 11.25 5.66421 11.25 5.25V3.25C11.25 2.83579 11.5858 2.5 12 2.5ZM7.75 3.5C8.16421 3.5 8.5 3.83579 8.5 4.25V6.25C8.5 6.66421 8.16421 7 7.75 7C7.33579 7 7 6.66421 7 6.25V4.25C7 3.83579 7.33579 3.5 7.75 3.5ZM19 14.5C19 18.366 15.866 21.5 12 21.5C8.13401 21.5 5 18.366 5 14.5C5 10.634 8.13401 7.5 12 7.5C15.866 7.5 19 10.634 19 14.5ZM17 4.25C17 3.83579 16.6642 3.5 16.25 3.5C15.8358 3.5 15.5 3.83579 15.5 4.25V6.25C15.5 6.66421 15.8358 7 16.25 7C16.6642 7 17 6.66421 17 6.25V4.25ZM11.25 11.5V14H13.25C13.9404 14 14.5 13.4404 14.5 12.75C14.5 12.0596 13.9404 11.5 13.25 11.5H11.25ZM16 12.75C16 14.2688 14.7688 15.5 13.25 15.5H11.25V16H12.25C12.6642 16 13 16.3358 13 16.75C13 17.1642 12.6642 17.5 12.25 17.5H11.25V18.25C11.25 18.6642 10.9142 19 10.5 19C10.0858 19 9.75 18.6642 9.75 18.25V17.5H9.25C8.83579 17.5 8.5 17.1642 8.5 16.75C8.5 16.3358 8.83579 16 9.25 16H9.75V15.5H9.3125C8.89829 15.5 8.5625 15.1642 8.5625 14.75C8.5625 14.3358 8.89829 14 9.3125 14H9.75V10.85C9.75 10.3806 10.1306 10 10.6 10H13.25C14.7688 10 16 11.2312 16 12.75Z" fill="black"/>
</svg>
