<svg width="24" height="24" viewBox="0 0 24 24" fill="none" xmlns="http://www.w3.org/2000/svg">
<path d="M20.009 10.875C18.0377 7.35215 15.1445 4.64647 11.861 2.84233C11.4979 2.64286 11.0419 2.77549 10.8424 3.13853C10.643 3.50157 10.7755 3.9575 11.1386 4.15696C14.1946 5.83604 16.876 8.3477 18.7001 11.6075C20.2575 14.3906 21.1409 17.1039 21.2488 20.0257C21.264 20.4396 21.6121 20.7628 22.026 20.7475C22.4398 20.7322 22.7631 20.3843 22.7478 19.9704C22.6293 16.7612 21.6554 13.8172 20.009 10.875Z" fill="black"/>
<path fill-rule="evenodd" clip-rule="evenodd" d="M19.4738 20.064C19.4845 20.6013 19.0398 21.0262 18.5025 21.0262H14.4801C15.0814 20.2455 15.1865 19.1474 14.6603 18.243C13.9661 17.0498 12.436 16.6452 11.2428 17.3395C10.0496 18.0336 9.64503 19.5637 10.3392 20.7569C10.3944 20.8517 10.4548 20.9416 10.5199 21.0262H2.39113C1.61256 21.0271 1.26466 20.258 1.65016 19.6099L3.23658 16.9433C3.24781 16.9642 3.25941 16.9849 3.27137 17.0055C3.82667 17.9601 5.05079 18.2838 6.00538 17.7284C6.95997 17.1731 7.28358 15.949 6.72816 14.9944C6.35499 14.353 5.67994 13.9964 4.98756 14L9.56947 6.2982C9.83717 5.84813 10.4086 5.6782 10.8644 5.93608C13.3733 7.35563 15.5453 9.38804 17.1109 11.9664C18.6644 14.5249 19.4187 17.2974 19.4738 20.064ZM12.0059 13.7229C11.0513 14.2782 9.82716 13.9546 9.27186 13C8.71644 12.0454 9.04005 10.8213 9.99464 10.266C10.9492 9.71061 12.1734 10.0343 12.7287 10.9889C13.2841 11.9435 12.9605 13.1675 12.0059 13.7229Z" fill="black"/>
</svg>
