<svg width="24" height="24" viewBox="0 0 24 24" fill="none" xmlns="http://www.w3.org/2000/svg">
<path d="M18 8C18 5.79086 16.2091 4 14 4H10C7.79086 4 6 5.79086 6 8V10.291C7.04418 10.8066 7.80275 11.8105 7.9873 13H16.0322C16.2156 11.8179 16.9659 10.8191 18 10.3007V8Z" fill="black"/>
<path d="M6.53033 13.888L6.52944 13.8509C6.52783 13.7855 6.52622 13.72 6.52889 13.6547C6.53012 13.6249 6.53074 13.5949 6.53074 13.5647C6.53074 12.3796 5.5764 11.4189 4.39916 11.4189C3.22192 11.4189 2.26758 12.3796 2.26758 13.5647C2.26758 14.3187 2.65382 14.9818 3.23797 15.3645C3.63951 15.6276 4 16.0202 4 16.5003V19.0022C4 19.5545 4.44772 20.0022 5 20.0022H5.53058C6.08287 20.0022 6.53058 19.5545 6.53058 19.0022V13.9108L6.53033 13.888Z" fill="black"/>
<path d="M17.4892 13.8883L17.4901 13.8512C17.4917 13.7857 17.4933 13.7202 17.4906 13.6548C17.4894 13.6249 17.4888 13.5949 17.4888 13.5647C17.4888 12.3796 18.4431 11.4189 19.6204 11.4189C20.7976 11.4189 21.752 12.3796 21.752 13.5647C21.752 14.3229 21.3613 14.9893 20.7716 15.371C20.3656 15.6337 20 16.0283 20 16.5119V19.0019C20 19.5542 19.5523 20.0019 19 20.0019H18.4889C17.9367 20.0019 17.4889 19.5542 17.4889 19.0019V13.9111L17.4892 13.8883Z" fill="black"/>
<path d="M15.9961 15.5C15.9961 14.9477 15.5484 14.5 14.9961 14.5H9.00391C8.45162 14.5 8.00391 14.9477 8.00391 15.5C8.00391 16.0523 8.45162 16.5 9.00391 16.5H14.9961C15.5484 16.5 15.9961 16.0523 15.9961 15.5Z" fill="black"/>
<path d="M14.9961 18C15.5484 18 15.9961 18.4477 15.9961 19C15.9961 19.5523 15.5484 20 14.9961 20H9.00391C8.45162 20 8.00391 19.5523 8.00391 19C8.00391 18.4477 8.45162 18 9.00391 18H14.9961Z" fill="black"/>
</svg>
