<svg width="24" height="24" viewBox="0 0 24 24" fill="none" xmlns="http://www.w3.org/2000/svg">
<path fill-rule="evenodd" clip-rule="evenodd" d="M1.36302 5.00343C1.20036 4.80462 1.21481 4.51489 1.39645 4.33325L3.18091 2.54879C3.36255 2.36715 3.65227 2.3527 3.85108 2.51537L5.97918 4.25654C6.3709 4.57704 6.45263 5.12692 6.20616 5.54108L10.5541 9.88904C12.0151 8.89164 13.5958 8.68918 14.4098 9.50322C14.7338 9.82724 14.9915 10.3674 15.1356 11.0066C15.2478 11.5046 15.7578 11.8557 16.2606 11.7673C17.742 11.5069 19.1789 11.8471 20.1681 12.8363C22.0092 14.6774 21.6022 18.0694 19.259 20.4125C16.9158 22.7557 13.5239 23.1627 11.6828 21.3217C10.6938 20.3326 10.3535 18.8961 10.6137 17.4149C10.702 16.9122 10.3508 16.4023 9.85284 16.2901C9.21332 16.146 8.67297 15.8883 8.34886 15.5642C7.53457 14.7499 7.73741 13.1685 8.73561 11.7071L4.38765 7.35915C3.97362 7.60483 3.42441 7.5229 3.1042 7.13153L1.36302 5.00343ZM14.4104 13.138C15.0799 13.8075 15.0799 14.8929 14.4104 15.5624C13.7409 16.2319 12.6555 16.2319 11.986 15.5624C11.3165 14.8929 11.3165 13.8075 11.986 13.138C12.6555 12.4685 13.7409 12.4685 14.4104 13.138ZM14.4102 19.1995C14.0754 18.8647 14.0754 18.322 14.4102 17.9873L16.8346 15.5629C17.1693 15.2282 17.712 15.2282 18.0467 15.5629C18.3815 15.8976 18.3815 16.4403 18.0467 16.7751L15.6224 19.1995C15.2876 19.5342 14.7449 19.5342 14.4102 19.1995Z" fill="black"/>
</svg>
