<svg width="24" height="24" viewBox="0 0 24 24" fill="none" xmlns="http://www.w3.org/2000/svg">
<path fill-rule="evenodd" clip-rule="evenodd" d="M5.39998 6.24995C5.64851 5.91858 6.11861 5.85142 6.44998 6.09995L11.61 9.96995C11.8411 10.1433 12.1589 10.1433 12.39 9.96995L17.55 6.09995C17.8814 5.85142 18.3515 5.91858 18.6 6.24995C18.8485 6.58132 18.7814 7.05142 18.45 7.29995L13.29 11.1699C12.5255 11.7433 11.4744 11.7433 10.71 11.1699L5.54998 7.29995C5.21861 7.05142 5.15145 6.58132 5.39998 6.24995ZM11.4598 17.5H4C3.44772 17.5 3 17.0523 3 16.5V5C3 4.44772 3.44772 4 4 4H20C20.5523 4 21 4.44772 21 5V12.5496C20.5257 12.5488 20.0452 12.673 19.6089 12.9347L18.8234 13.406C17.1411 12.3238 14.9872 12.2878 13.2676 13.3195L12.4089 13.8347C11.1433 14.5941 10.7241 16.2268 11.4598 17.5ZM21.6382 14.8562C21.8558 15.2086 21.7464 15.6707 21.3939 15.8883L20.5607 16.4025C19.4848 17.0665 18.1185 17.0336 17.0758 16.3186C16.5227 15.9393 15.7979 15.9218 15.2271 16.2741L14.3939 16.7883C14.0414 17.0058 13.5793 16.8964 13.3617 16.5439C13.1442 16.1914 13.2536 15.7293 13.6061 15.5118L14.4393 14.9976C15.5152 14.3336 16.8814 14.3665 17.9241 15.0815C18.4773 15.4608 19.2021 15.4783 19.7729 15.126L20.6061 14.6118C20.9586 14.3943 21.4207 14.5037 21.6382 14.8562ZM21.3939 19.4883C21.7464 19.2708 21.8558 18.8087 21.6382 18.4562C21.4207 18.1037 20.9586 17.9943 20.6061 18.2118L19.7729 18.726C19.2021 19.0783 18.4773 19.0608 17.9241 18.6815C16.8814 17.9665 15.5152 17.9336 14.4393 18.5976L13.6061 19.1118C13.2536 19.3293 13.1442 19.7914 13.3617 20.1439C13.5793 20.4964 14.0414 20.6058 14.3939 20.3883L15.2271 19.8741C15.7979 19.5218 16.5227 19.5393 17.0758 19.9186C18.1185 20.6336 19.4848 20.6665 20.5607 20.0025L21.3939 19.4883Z" fill="black"/>
</svg>
