<svg width="24" height="24" viewBox="0 0 24 24" fill="none" xmlns="http://www.w3.org/2000/svg">
<path fill-rule="evenodd" clip-rule="evenodd" d="M4.5 3.5C4.5 3.22386 4.72386 3 5 3H19C19.2761 3 19.5 3.22386 19.5 3.5V20.5C19.5 20.7761 19.2761 21 19 21H10.8542C11.5667 20.2039 12 19.1525 12 18C12 15.5147 9.98528 13.5 7.5 13.5C6.34747 13.5 5.29613 13.9333 4.5 14.6458V3.5ZM7 7.5H17V6H7V7.5ZM17 11.5H7V10H17V11.5ZM13.5 15.5H17V14H13.5V15.5ZM4.55765 19.3818L3.46967 20.4698C3.17678 20.7627 3.17678 21.2376 3.46967 21.5305C3.76256 21.8234 4.23744 21.8234 4.53033 21.5305L5.49942 20.5614C6.05102 20.9928 6.74553 21.25 7.5001 21.25C9.29503 21.25 10.7501 19.7949 10.7501 18C10.7501 16.2051 9.29503 14.75 7.5001 14.75C5.70518 14.75 4.2501 16.2051 4.2501 18C4.2501 18.4941 4.36038 18.9625 4.55765 19.3818ZM6.10308 19.0541C6.10118 19.0516 6.09927 19.049 6.09733 19.0465C5.87924 18.7546 5.7501 18.3924 5.7501 18C5.7501 17.0335 6.53361 16.25 7.5001 16.25C8.4666 16.25 9.2501 17.0335 9.2501 18C9.2501 18.9665 8.4666 19.75 7.5001 19.75C6.92942 19.75 6.42254 19.4768 6.10308 19.0541Z" fill="black"/>
</svg>
