<svg width="24" height="24" viewBox="0 0 24 24" fill="none" xmlns="http://www.w3.org/2000/svg">
<path fill-rule="evenodd" clip-rule="evenodd" d="M4 10.4545C4 11.6683 4.50854 12.8329 5.33333 13.6364C5.35353 13.656 5.37392 13.6755 5.39449 13.6947L11.6548 19.6705C11.848 19.8549 12.152 19.8549 12.3452 19.6705L18.6667 13.6364C19.531 12.8279 20 11.701 20 10.4545C20 7.99437 18.0773 6 15.5 6C14.1942 6 12.847 6.67492 12 7.5C11.153 6.67492 9.80579 6 8.5 6C5.92267 6 4 7.99437 4 10.4545ZM16.8047 13.1381C17.0651 12.8777 17.0651 12.4556 16.8047 12.1953C16.5444 11.9349 16.1223 11.9349 15.8619 12.1953L13.1953 14.8619C12.9349 15.1223 12.9349 15.5444 13.1953 15.8047C13.4556 16.0651 13.8777 16.0651 14.1381 15.8047L16.8047 13.1381Z" fill="black"/>
</svg>
