<svg width="24" height="24" viewBox="0 0 24 24" fill="none" xmlns="http://www.w3.org/2000/svg">
<path fill-rule="evenodd" clip-rule="evenodd" d="M18.5 11.25C18.5 11.6642 18.8358 12 19.25 12C19.6642 12 20 11.6642 20 11.25V5.25C20 4.55964 19.4404 4 18.75 4H12.75C12.3358 4 12 4.33579 12 4.75C12 5.16421 12.3358 5.5 12.75 5.5H18.5V11.25ZM5.5 12.75C5.5 12.3358 5.16421 12 4.75 12C4.33579 12 4 12.3358 4 12.75V18.75C4 19.4404 4.55964 20 5.25 20H11.25C11.6642 20 12 19.6642 12 19.25C12 18.8358 11.6642 18.5 11.25 18.5H5.5V12.75Z" fill="black"/>
</svg>
