<svg width="24" height="24" viewBox="0 0 24 24" fill="none" xmlns="http://www.w3.org/2000/svg">
<path d="M5.75 5.25C5.75 4.60564 6.32425 4 7 4C7.67575 4 8.25 4.60564 8.25 5.25C8.25 5.66421 8.58579 6 9 6C9.41421 6 9.75 5.66421 9.75 5.25C9.75 3.80673 8.53339 2.5 7 2.5C5.46661 2.5 4.25 3.80673 4.25 5.25C4.25 6.45022 5.08922 7.55166 6.25 7.89222V9.37803C5.37611 9.68691 4.75 10.5203 4.75 11.5C4.75 12.6028 5.54342 13.5203 6.59058 13.7128C6.22347 14.2271 5.70848 15.0166 5.28279 15.8889C4.8619 16.7515 4.5 17.7512 4.5 18.6665C4.5 19.5743 4.78628 20.2909 5.26758 20.7829C5.7454 21.2713 6.37855 21.4999 7 21.4999C7.62145 21.4999 8.2546 21.2713 8.73242 20.7829C9.21372 20.2909 9.5 19.5743 9.5 18.6665C9.5 17.7512 9.1381 16.7515 8.71721 15.8889C8.29152 15.0166 7.77653 14.2271 7.40942 13.7128C8.45658 13.5203 9.25 12.6028 9.25 11.5C9.25 10.5203 8.62389 9.68691 7.75 9.37803V7.35C7.75 6.87083 7.3674 6.52087 6.93931 6.49841C6.28844 6.46427 5.75 5.87212 5.75 5.25Z" fill="black"/>
<path d="M14.75 11.5C14.75 10.5203 15.3761 9.68691 16.25 9.37803V7.35C16.25 6.87083 16.6326 6.52087 17.0607 6.49841C17.7116 6.46427 18.25 5.87212 18.25 5.25C18.25 4.60564 17.6758 4 17 4C16.3242 4 15.75 4.60564 15.75 5.25C15.75 5.66421 15.4142 6 15 6C14.5858 6 14.25 5.66421 14.25 5.25C14.25 3.80673 15.4666 2.5 17 2.5C18.5334 2.5 19.75 3.80673 19.75 5.25C19.75 6.45022 18.9108 7.55166 17.75 7.89222V9.37803C18.6239 9.68691 19.25 10.5203 19.25 11.5C19.25 12.6028 18.4566 13.5203 17.4094 13.7128C17.7765 14.2271 18.2915 15.0166 18.7172 15.8889C19.1381 16.7515 19.5 17.7512 19.5 18.6665C19.5 19.5743 19.2137 20.2909 18.7324 20.7829C18.2546 21.2713 17.6215 21.4999 17 21.4999C16.3785 21.4999 15.7454 21.2713 15.2676 20.7829C14.7863 20.2909 14.5 19.5743 14.5 18.6665C14.5 17.7512 14.8619 16.7515 15.2828 15.8889C15.7085 15.0166 16.2235 14.2271 16.5906 13.7128C15.5434 13.5203 14.75 12.6028 14.75 11.5Z" fill="black"/>
</svg>
