<svg width="24" height="24" viewBox="0 0 24 24" fill="none" xmlns="http://www.w3.org/2000/svg">
<path fill-rule="evenodd" clip-rule="evenodd" d="M15.5119 6.82998C15.5119 5.25597 16.7879 3.97998 18.3619 3.97998C19.9359 3.97998 21.2119 5.25597 21.2119 6.82998C21.2119 8.40399 19.9359 9.67998 18.3619 9.67998C16.7879 9.67998 15.5119 8.40399 15.5119 6.82998ZM14.4069 5.0162C14.1533 5.5683 14.0119 6.18262 14.0119 6.82998C14.0119 9.23242 15.9595 11.18 18.3619 11.18C18.5787 11.18 18.7917 11.1641 19 11.1335V15.9999C19 18.7613 16.7614 20.9999 14 20.9999H8C5.23858 20.9999 3 18.7613 3 15.9999V9.99988C3 7.23845 5.23858 4.99988 8 4.99988H14C14.137 4.99988 14.2727 5.00539 14.4069 5.0162Z" fill="black"/>
</svg>
