<svg width="24" height="24" viewBox="0 0 24 24" fill="none" xmlns="http://www.w3.org/2000/svg">
<path fill-rule="evenodd" clip-rule="evenodd" d="M19.5303 5.53033C19.8232 5.23744 19.8232 4.76256 19.5303 4.46967C19.2374 4.17678 18.7626 4.17678 18.4697 4.46967L13.3232 9.61612L11.3841 7.67698L7.67688 11.384L9.61612 13.3232L4.46967 18.4697C4.17678 18.7626 4.17678 19.2374 4.46967 19.5303C4.76256 19.8232 5.23744 19.8232 5.53033 19.5303L19.5303 5.53033ZM7.29288 4.99999C7.6834 4.60946 8.31657 4.60946 8.70709 4.99999L10.3234 6.61632L6.61622 10.3233L4.99999 8.70709C4.60946 8.31657 4.60946 7.6834 4.99999 7.29288L7.29288 4.99999ZM19.8243 16.1172L15.5 11.7929L11.7929 15.5L16.1172 19.8243C16.2297 19.9368 16.3823 20 16.5414 20H19.4C19.7314 20 20 19.7314 20 19.4V16.5414C20 16.3823 19.9368 16.2297 19.8243 16.1172Z" fill="black"/>
</svg>
