<svg width="24" height="24" viewBox="0 0 24 24" fill="none" xmlns="http://www.w3.org/2000/svg">
<path fill-rule="evenodd" clip-rule="evenodd" d="M7 6C6.44772 6 6 6.44772 6 7V8.5H10.25C10.6642 8.5 11 8.83579 11 9.25C11 9.66421 10.6642 10 10.25 10H2.75C2.33579 10 2 10.3358 2 10.75C2 11.1642 2.33579 11.5 2.75 11.5H6V13.5H8.25C8.66421 13.5 9 13.8358 9 14.25C9 14.6642 8.66421 15 8.25 15H3.75C3.33579 15 3 15.3358 3 15.75C3 16.1642 3.33579 16.5 3.75 16.5H6V18C6 18.5523 6.44772 19 7 19H21C21.5523 19 22 18.5523 22 18V7C22 6.44772 21.5523 6 21 6H7ZM16.75 8C16.3358 8 16 8.33579 16 8.75C16 9.16421 16.3358 9.5 16.75 9.5H19.25C19.6642 9.5 20 9.16421 20 8.75C20 8.33579 19.6642 8 19.25 8H16.75Z" fill="black"/>
</svg>
