<svg width="24" height="24" viewBox="0 0 24 24" fill="none" xmlns="http://www.w3.org/2000/svg">
<path fill-rule="evenodd" clip-rule="evenodd" d="M16.7841 15.0991C21.1478 10.5618 20.7234 6.29575 17.5888 3.64162C16.812 2.98392 15.8768 2.52468 14.8899 2.27607C8.80527 0.743461 4.9736 5.89519 5.32263 10.25L4.25348 13.1011C4.1309 13.428 4.37254 13.7766 4.72164 13.7766H6.20428V16.3032C6.20428 16.8555 6.65199 17.3032 7.20428 17.3032H9.73089L11.121 21.1261C11.3216 21.6777 11.9519 21.9388 12.4837 21.6906L17.299 19.4434C17.7593 19.2286 17.9854 18.7029 17.8248 18.221L16.7841 15.0991ZM12.3756 7.03249C11.5725 7.03249 10.9215 7.68352 10.9215 8.48662V8.5496C10.9215 8.96381 10.5857 9.2996 10.1715 9.2996C9.7573 9.2996 9.42151 8.96381 9.42151 8.5496V8.48662C9.42151 6.8551 10.7441 5.53249 12.3756 5.53249H12.5753C14.0966 5.53249 15.3298 6.76571 15.3298 8.28696C15.3298 9.21439 14.8631 10.0796 14.088 10.5889L13.2383 11.1472C13.168 11.1935 13.1256 11.272 13.1256 11.3562V11.9999C13.1256 12.4141 12.7899 12.7499 12.3756 12.7499C11.9614 12.7499 11.6256 12.4141 11.6256 11.9999V11.3562C11.6256 10.7669 11.9222 10.2173 12.4146 9.89367L13.2642 9.33533C13.6172 9.10337 13.8298 8.70934 13.8298 8.28696C13.8298 7.59413 13.2681 7.03249 12.5753 7.03249H12.3756ZM13.1256 15.5C13.1256 15.0858 12.7898 14.75 12.3756 14.75C11.9614 14.75 11.6256 15.0858 11.6256 15.5V16C11.6256 16.4142 11.9614 16.75 12.3756 16.75C12.7898 16.75 13.1256 16.4142 13.1256 16V15.5Z" fill="black"/>
</svg>
