<svg width="24" height="24" viewBox="0 0 24 24" fill="none" xmlns="http://www.w3.org/2000/svg">
<path fill-rule="evenodd" clip-rule="evenodd" d="M4 4V13.4764C4 14.0215 4.06932 14.5643 4.2063 15.0918C4.64635 16.7866 5.68641 18.2642 7.1334 19.2502L7.5 19.5L11.5144 21.7302C11.8164 21.898 12.1836 21.898 12.4856 21.7302L16.5 19.5L16.8666 19.2502C18.3136 18.2642 19.3537 16.7866 19.7937 15.0918C19.9307 14.5643 20 14.0215 20 13.4764V4C20 3.44771 19.5523 3 19 3H5C4.44772 3 4 3.44772 4 4ZM16 10.0225C16 11.6669 14.6669 13 13.0225 13H11V14H12.25C12.6642 14 13 14.3358 13 14.75C13 15.1642 12.6642 15.5 12.25 15.5H11V16.25C11 16.6642 10.6642 17 10.25 17C9.83579 17 9.5 16.6642 9.5 16.25V15.5H8.75C8.33579 15.5 8 15.1642 8 14.75C8 14.3358 8.33579 14 8.75 14H9.5V13H8.75C8.33579 13 8 12.6642 8 12.25C8 11.8358 8.33579 11.5 8.75 11.5H9.5V7.84804C9.5 7.37968 9.87968 7 10.348 7H13.0225C14.6669 7 16 8.37807 16 10.0225ZM11 8.5V11.5H13.0225C13.8385 11.5 14.5 10.8385 14.5 10.0225C14.5 9.2065 13.8385 8.5 13.0225 8.5H11Z" fill="black"/>
</svg>
