<svg width="24" height="24" viewBox="0 0 24 24" fill="none" xmlns="http://www.w3.org/2000/svg">
<path fill-rule="evenodd" clip-rule="evenodd" d="M2 7.25C2.41421 7.25 2.75 7.58579 2.75 8V9.30688L3.93906 8.26299C4.44081 7.8225 5.08568 7.57959 5.75335 7.57959H10.9228C11.4958 7.57959 12.0545 7.75858 12.5209 8.09155L16.3944 10.8573C16.4247 10.8742 16.4554 10.8901 16.4866 10.9049C16.5506 10.9219 16.6103 10.9453 16.6657 10.9741C16.7005 10.9844 16.7362 10.9931 16.7727 11H17.9966L18 10.9999C19.5577 10.9999 20.2246 11.3032 20.7448 11.5398C20.8926 11.6069 21.0284 11.6687 21.1695 11.7166L22.5067 12.3011C22.7463 12.4477 22.8839 12.716 22.8632 12.9961L22.748 14.5552C22.7224 14.9008 22.4634 15.1839 22.1214 15.24L20.9489 15.4323C20.9749 15.2882 20.9884 15.1397 20.9884 14.9881C20.9884 13.614 19.8745 12.5 18.5003 12.5C17.1262 12.5 16.0122 13.614 16.0122 14.9881C16.0122 15.3484 16.0888 15.6909 16.2266 16.0001H7.79072C7.92523 15.694 7.99989 15.3557 7.99989 14.9999C7.99989 13.6258 6.88593 12.5118 5.51179 12.5118C4.13764 12.5118 3.02368 13.6258 3.02368 14.9999C3.02368 15.1145 3.03142 15.2272 3.04641 15.3377H2.9881C2.90749 15.3377 2.82741 15.3247 2.75093 15.2992L1.76283 14.9698C1.45657 14.8677 1.25 14.5811 1.25 14.2583V8C1.25 7.58579 1.58579 7.25 2 7.25ZM6.25 11H3.09504L4.92867 9.39023C5.15674 9.19 5.44986 9.07959 5.75335 9.07959H6.25V11ZM7.75 11H13.9719L11.6492 9.3123C11.4372 9.16095 11.1833 9.07959 10.9228 9.07959H7.75V11Z" fill="black"/>
<path d="M19.4884 14.9881C19.4884 15.2511 19.3857 15.49 19.2182 15.6671C19.067 15.8269 18.8628 15.9362 18.6339 15.9672C18.5902 15.9731 18.5456 15.9762 18.5003 15.9762C17.9546 15.9762 17.5122 15.5338 17.5122 14.9881C17.5122 14.4424 17.9546 14 18.5003 14C19.046 14 19.4884 14.4424 19.4884 14.9881Z" fill="black"/>
<path d="M6.49989 14.9999C6.49989 15.5457 6.0575 15.9881 5.51179 15.9881C4.96607 15.9881 4.52368 15.5457 4.52368 14.9999C4.52368 14.4542 4.96607 14.0118 5.51179 14.0118C6.0575 14.0118 6.49989 14.4542 6.49989 14.9999Z" fill="black"/>
</svg>
