<svg width="24" height="24" viewBox="0 0 24 24" fill="none" xmlns="http://www.w3.org/2000/svg">
<path d="M16 2.5C18.2091 2.5 20 4.29086 20 6.5V19.01H21C21.4142 19.01 21.75 19.3458 21.75 19.76C21.75 20.1742 21.4142 20.51 21 20.51H12C11.5858 20.51 11.25 20.1742 11.25 19.76C11.25 19.3458 11.5858 19.01 12 19.01H13V13.08H7C6.72386 13.08 6.5 13.3038 6.5 13.58V15.58C6.5 15.8561 6.27614 16.08 6 16.08H2.5C2.22386 16.08 2 15.8561 2 15.58V14.08C2 11.3186 4.23858 9.07999 7 9.07999H13V5.5H16C16.4142 5.5 16.75 5.16421 16.75 4.75C16.75 4.33579 16.4142 4 16 4H6C5.58579 4 5.25 3.66421 5.25 3.25C5.25 2.83579 5.58579 2.5 6 2.5H16Z" fill="black"/>
</svg>
