<svg width="24" height="24" viewBox="0 0 24 24" fill="none" xmlns="http://www.w3.org/2000/svg">
<path fill-rule="evenodd" clip-rule="evenodd" d="M3 4C3 3.44772 3.44772 3 4 3H6V5H8V7H6V9H8V7H10V5H8V3H20C20.5523 3 21 3.44772 21 4V19.5C21 20.0523 20.5523 20.5 20 20.5H4C3.44772 20.5 3 20.0523 3 19.5V4ZM14.2911 12.3764C14.1642 12.3813 14.0203 12.3862 13.8593 12.3911V17.4998H15.0596V16.0433C15.1572 16.0531 15.245 16.0604 15.3231 16.0653H15.5865C16.3623 16.0653 16.9283 15.9091 17.2845 15.5968C17.6407 15.2846 17.8188 14.7966 17.8188 14.133C17.8188 13.8061 17.7773 13.5304 17.6944 13.306C17.6163 13.0766 17.4894 12.8912 17.3138 12.7497C17.1381 12.6082 16.9088 12.5057 16.6258 12.4423C16.3477 12.374 16.0061 12.3398 15.6012 12.3398C15.4109 12.3398 15.2425 12.3423 15.0962 12.3472C14.9547 12.3472 14.8181 12.3496 14.6863 12.3545C14.5546 12.3594 14.4228 12.3667 14.2911 12.3764ZM15.3157 15.0772C15.2425 15.0723 15.1572 15.065 15.0596 15.0552V13.3499C15.1572 13.3401 15.2425 13.3352 15.3157 13.3352C15.3938 13.3304 15.4816 13.3279 15.5792 13.3279C15.7744 13.3279 15.9354 13.345 16.0623 13.3792C16.194 13.4133 16.2989 13.467 16.377 13.5402C16.455 13.6134 16.5087 13.7036 16.538 13.811C16.5673 13.9183 16.5819 14.0452 16.5819 14.1916C16.5819 14.4892 16.5087 14.7112 16.3623 14.8576C16.216 15.004 15.9574 15.0772 15.5865 15.0772H15.3157ZM11.1871 12.3764H12.3801V17.4998H11.1871V12.3764ZM6 16.8194L8.42987 13.416H6.08783V12.3767H10.0327V13.0574L7.60283 16.4608H10.0766V17.5001H6V16.8194Z" fill="black"/>
</svg>
