<svg width="24" height="24" viewBox="0 0 24 24" fill="none" xmlns="http://www.w3.org/2000/svg">
<path d="M6 7C6 4.79086 7.79086 3 10 3C12.2091 3 14 4.79086 14 7V8C14 10.2091 12.2091 12 10 12C7.79086 12 6 10.2091 6 8V7Z" fill="black"/>
<path d="M15.5195 10.1085C15.8488 9.84401 16.5 10.1164 16.5 10.5423V12.5039C16.5 13.0561 16.9477 13.5039 17.5 13.5039H18.5C19.0523 13.5039 19.5 13.0561 19.5 12.5039V10.5039C19.5 10.0605 20.1704 9.85885 20.4805 10.1085C21.4062 10.8522 22 12.0026 22 13.2941C22 14.9141 20.8516 16.3525 19.5 17.0039V21.5039C19.5 21.78 19.2761 22.0039 19 22.0039H17C16.7239 22.0039 16.5 21.78 16.5 21.5039V17.0039C15.1484 16.3525 14 14.9141 14 13.2941C14 12.0026 14.5938 10.8522 15.5195 10.1085Z" fill="black"/>
<path d="M15 18C12.913 16.8074 12.363 15.1705 12.3563 14H7C4.23858 14 2 16.2386 2 19V20C2 21.1046 2.89543 22 4 22H15L15 18Z" fill="black"/>
</svg>
