<svg width="24" height="24" viewBox="0 0 24 24" fill="none" xmlns="http://www.w3.org/2000/svg">
<path fill-rule="evenodd" clip-rule="evenodd" d="M6 4.5C6 3.67157 6.67157 3 7.5 3H16.5C17.3284 3 18 3.67157 18 4.5V19.5C18 20.3284 17.3284 21 16.5 21H7.5C6.67157 21 6 20.3284 6 19.5V4.5ZM9.5 4.75C9.5 4.33579 9.83579 4 10.25 4H13.75C14.1642 4 14.5 4.33579 14.5 4.75C14.5 5.16421 14.1642 5.5 13.75 5.5H10.25C9.83579 5.5 9.5 5.16421 9.5 4.75ZM12 19C12.5523 19 13 18.5523 13 18C13 17.4477 12.5523 17 12 17C11.4477 17 11 17.4477 11 18C11 18.5523 11.4477 19 12 19Z" fill="black"/>
</svg>
