<svg width="24" height="24" viewBox="0 0 24 24" fill="none" xmlns="http://www.w3.org/2000/svg">
<path fill-rule="evenodd" clip-rule="evenodd" d="M15 3H4C3.44772 3 3 3.44772 3 4V19.5C3 20.0523 3.44772 20.5 4 20.5H20C20.5523 20.5 21 20.0523 21 19.5V9H15.85C15.3806 9 15 8.61944 15 8.15V3ZM20.991 7.5C20.9861 7.4892 20.9793 7.47926 20.9707 7.47071L16.5293 3.02929C16.5207 3.02074 16.5108 3.0139 16.5 3.00898V7.5H20.991ZM17.2474 16.0763C17.2474 15.925 17.1848 15.8104 17.0596 15.7325C16.9343 15.6545 16.7766 15.5857 16.5864 15.5261C16.4008 15.4665 16.199 15.4069 15.981 15.3473C15.7629 15.2877 15.5588 15.2029 15.3686 15.0928C15.183 14.9782 15.0276 14.8292 14.9024 14.6458C14.7771 14.4578 14.7145 14.2079 14.7145 13.8961C14.7145 13.6807 14.7493 13.4881 14.8189 13.3184C14.8885 13.1442 15.0021 12.9975 15.1599 12.8783C15.3176 12.7545 15.5217 12.6605 15.7722 12.5963C16.0227 12.5321 16.3289 12.5 16.6908 12.5C17.0155 12.5 17.3124 12.5206 17.5815 12.5619C17.8505 12.6032 18.0732 12.6628 18.2495 12.7407V13.848C18.0639 13.7242 17.8412 13.6233 17.5815 13.5454C17.3217 13.4674 17.0526 13.4285 16.7743 13.4285C16.598 13.4285 16.4518 13.4399 16.3359 13.4629C16.2199 13.4858 16.1271 13.5179 16.0575 13.5591C15.9926 13.6004 15.9462 13.6486 15.9183 13.7036C15.8905 13.7586 15.8766 13.8182 15.8766 13.8824C15.8766 14.0154 15.9415 14.1185 16.0714 14.1919C16.2013 14.2607 16.3637 14.3249 16.5585 14.3845C16.7534 14.4395 16.9621 14.4991 17.1848 14.5633C17.4121 14.6275 17.6232 14.7169 17.8181 14.8315C18.0129 14.9461 18.1753 15.0997 18.3052 15.2923C18.4351 15.4803 18.5 15.7279 18.5 16.0351C18.5 16.2689 18.4606 16.4775 18.3817 16.6609C18.3028 16.8398 18.1799 16.9911 18.0129 17.1149C17.8459 17.2387 17.6302 17.3349 17.3657 17.4037C17.106 17.4679 16.7928 17.5 16.4263 17.5C16.0923 17.5 15.7722 17.4702 15.466 17.4106C15.1645 17.351 14.9209 17.2707 14.7354 17.1699V16.0213C14.8003 16.0763 14.8815 16.1359 14.9789 16.2001C15.081 16.2643 15.1993 16.3239 15.3338 16.379C15.473 16.434 15.6261 16.4798 15.7931 16.5165C15.9647 16.5532 16.1526 16.5715 16.3567 16.5715C16.6722 16.5715 16.8995 16.5257 17.0387 16.434C17.1779 16.3423 17.2474 16.2231 17.2474 16.0763ZM5.61134 12.5963L6.92652 14.9416L5.5 17.4107H6.82214L7.76852 15.6362L8.7636 17.4107H10.1205L8.64531 14.921L10.037 12.5963H8.73577L7.81723 14.2745L6.94044 12.5963H5.61134ZM10.6101 12.5963H11.7514V16.3721H14.2425V17.4107H10.6101V12.5963Z" fill="black"/>
</svg>
