<svg width="24" height="24" viewBox="0 0 24 24" fill="none" xmlns="http://www.w3.org/2000/svg">
<path d="M7.25 3C9.04492 3 10.5 4.45507 10.5 6.25V14.0359C9.65035 13.2384 8.50721 12.75 7.25 12.75C5.99279 12.75 4.84965 13.2384 4 14.0359V6.25C4 4.45507 5.45507 3 7.25 3Z" fill="black"/>
<path d="M12 17.5C12 18.8851 11.4072 20.1317 10.4614 20.9999L20 20.9998C20.5522 20.9998 21 20.5521 21 19.9998L21 10C21 9.73479 20.8946 9.48043 20.7071 9.29289C20.5196 9.10536 20.2652 9 20 9L12 9V17.5Z" fill="black"/>
<path fill-rule="evenodd" clip-rule="evenodd" d="M4.06543 17.5C4.06543 19.2949 5.5205 20.75 7.31543 20.75C9.11036 20.75 10.5654 19.2949 10.5654 17.5C10.5654 15.7051 9.11035 14.25 7.31543 14.25C5.5205 14.25 4.06543 15.7051 4.06543 17.5ZM7.31543 19.25C6.34893 19.25 5.56543 18.4665 5.56543 17.5C5.56543 16.5335 6.34893 15.75 7.31543 15.75C8.28193 15.75 9.06543 16.5335 9.06543 17.5C9.06543 18.4665 8.28193 19.25 7.31543 19.25Z" fill="black"/>
</svg>
