<svg width="24" height="24" viewBox="0 0 24 24" fill="none" xmlns="http://www.w3.org/2000/svg">
<path fill-rule="evenodd" clip-rule="evenodd" d="M12.0001 2.5C12.5403 2.5 13.0388 2.79049 13.3051 3.26049L21.805 18.2605C22.0682 18.7249 22.0647 19.2941 21.796 19.7552C21.5273 20.2164 21.0337 20.5 20.5 20.5H3.5C2.96626 20.5 2.47272 20.2164 2.20399 19.7552C1.93526 19.2941 1.93183 18.7248 2.19497 18.2605L10.6951 3.26047C10.9614 2.79048 11.4599 2.5 12.0001 2.5ZM10.7592 18.5C10.3852 18.5 9.98916 18.434 9.69216 18.3131V16.5641C9.84616 16.6961 10.1432 16.8171 10.4292 16.8171C10.7042 16.8171 10.9902 16.7621 11.1552 16.3881L8.15216 10.701H10.2752L12.1452 14.5841L13.6192 10.701H15.5002L13.0142 16.6521C12.4202 18.0821 11.8812 18.5 10.7592 18.5Z" fill="black"/>
</svg>
