<svg width="24" height="24" viewBox="0 0 24 24" fill="none" xmlns="http://www.w3.org/2000/svg">
<path fill-rule="evenodd" clip-rule="evenodd" d="M20.363 3.74213C20.6559 4.03502 20.6559 4.50989 20.3631 4.80279L13.9995 11.1664C13.7066 11.4593 13.2317 11.4593 12.9388 11.1664C12.6459 10.8735 12.6459 10.3987 12.9388 10.1058L19.3024 3.74213C19.5953 3.44924 20.0702 3.44924 20.363 3.74213ZM12.9091 16.5452C12.9091 19.5577 10.467 21.9998 7.45453 21.9998C4.44208 21.9998 2 19.5577 2 16.5452C2 13.5328 4.44208 11.0907 7.45453 11.0907C10.467 11.0907 12.9091 13.5328 12.9091 16.5452ZM14.9085 5.71203C15.2014 5.41913 15.2014 4.94426 14.9085 4.65137C14.6156 4.35848 14.1407 4.35848 13.8478 4.65138L10.2115 8.28773C9.91866 8.58063 9.91866 9.0555 10.2116 9.34839C10.5045 9.64128 10.9793 9.64128 11.2722 9.34838L14.9085 5.71203ZM19.4539 10.2575C19.7468 9.96457 19.7468 9.4897 19.4539 9.19681C19.161 8.90392 18.6862 8.90393 18.3933 9.19682L14.757 12.8332C14.4641 13.1261 14.4641 13.6009 14.757 13.8938C15.0499 14.1867 15.5248 14.1867 15.8177 13.8938L19.4539 10.2575Z" fill="black"/>
</svg>
