<svg width="24" height="24" viewBox="0 0 24 24" fill="none" xmlns="http://www.w3.org/2000/svg">
<path fill-rule="evenodd" clip-rule="evenodd" d="M6 4.5C6 3.67157 6.67163 3 7.5 3H16.5C17.3284 3 18 3.67157 18 4.5V6.55023C17.5354 6.64459 17.0925 6.87192 16.7322 7.23224C16.502 7.46249 16.326 7.7265 16.2043 8.00833C15.4983 7.95074 14.7725 8.19205 14.2322 8.73224C13.3408 9.62363 13.2633 11.0206 13.9996 12C13.2633 12.9794 13.3408 14.3764 14.2322 15.2678C14.7725 15.808 15.4983 16.0493 16.2043 15.9917C16.326 16.2735 16.502 16.5375 16.7322 16.7678C17.0925 17.1281 17.5354 17.3554 18 17.4498V19.5C18 20.3284 17.3284 21 16.5 21H7.5C6.67163 21 6 20.3284 6 19.5V4.5ZM13 18C13 18.5523 12.5522 19 12 19C11.4478 19 11 18.5523 11 18C11 17.4477 11.4478 17 12 17C12.5522 17 13 17.4477 13 18ZM14.5 4.75C14.5 4.33578 14.1642 4 13.75 4H10.25C9.83582 4 9.5 4.33578 9.5 4.75C9.5 5.16422 9.83582 5.5 10.25 5.5H13.75C14.1642 5.5 14.5 5.16422 14.5 4.75Z" fill="black"/>
<path d="M18 8.1337C17.9259 8.17648 17.8562 8.22955 17.7928 8.29291C17.7087 8.37711 17.6427 8.4726 17.5947 8.57449C17.5316 8.70889 17.5 8.85443 17.5 9C17.5 9.25592 17.5977 9.51184 17.7928 9.70709C17.83 9.74417 17.8685 9.78769 17.9078 9.83716L17.9097 9.83939C17.9366 9.87357 17.9642 9.91058 17.9918 9.95023C18.2631 10.3399 18.5479 10.9861 18.6311 11.7354C18.7208 12.5425 18.5675 13.3697 18 14.0641C17.9363 14.1422 17.8673 14.2185 17.7928 14.2929C17.5977 14.4882 17.5 14.7441 17.5 15C17.5 15.1456 17.5316 15.2911 17.5947 15.4255C17.6427 15.5274 17.7087 15.6229 17.7928 15.7071C17.8149 15.7292 17.8378 15.75 17.8613 15.7696C17.8805 15.7856 17.9001 15.8007 17.9202 15.815C17.933 15.8241 17.9459 15.8329 17.959 15.8413C17.9696 15.8481 17.9802 15.8547 17.991 15.861C18.3746 16.0882 18.8773 16.0369 19.2072 15.7071C20.47 14.4442 20.7692 12.8668 20.6189 11.5146C20.4731 10.2027 19.8932 8.97903 19.2072 8.29291C18.8799 7.96573 18.3824 7.91266 18 8.1337Z" fill="black"/>
<path d="M15.2928 14.2071C15.501 14.4152 15.778 14.5124 16.0505 14.4987C16.2893 14.4867 16.5247 14.3895 16.7072 14.2071C16.8846 14.0296 17.0303 13.8418 17.1482 13.6482C17.5049 13.0623 17.6074 12.4229 17.5698 11.8534C17.5691 11.842 17.5682 11.8307 17.5674 11.8194C17.5643 11.7799 17.5607 11.7408 17.5564 11.7021C17.5033 11.2241 17.3499 10.7566 17.1326 10.3675C17.009 10.1465 16.8651 9.95087 16.7072 9.79291C16.5247 9.61047 16.2893 9.51328 16.0505 9.50128C15.778 9.48758 15.501 9.58478 15.2928 9.79291C14.9023 10.1834 14.9023 10.8166 15.2928 11.2071C15.3568 11.271 15.5269 11.5473 15.5686 11.9229C15.6058 12.2582 15.53 12.5558 15.2928 12.7929C14.9023 13.1834 14.9023 13.8166 15.2928 14.2071Z" fill="black"/>
</svg>
