<svg width="24" height="24" viewBox="0 0 24 24" fill="none" xmlns="http://www.w3.org/2000/svg">
<path d="M12 6.5C12 4.567 13.567 3 15.5 3C17.433 3 19 4.567 19 6.5V7.25C19 7.66421 18.6642 8 18.25 8C17.8358 8 17.5 7.66421 17.5 7.25V6.5C17.5 5.39543 16.6046 4.5 15.5 4.5C14.3954 4.5 13.5 5.39543 13.5 6.5V14.25C13.5 14.6642 13.1642 15 12.75 15C12.3358 15 12 14.6642 12 14.25V11.5001H9.24972C8.83566 11.5001 8.5 11.1644 8.5 10.7503C8.5 10.3361 8.836 10.0003 9.25028 10.0006L12 10.0026V6.5Z" fill="black"/>
<path d="M16.25 10C15.8358 10 15.5 10.3358 15.5 10.75C15.5 11.1642 15.8358 11.5 16.25 11.5H20.25C20.6642 11.5 21 11.1642 21 10.75C21 10.3358 20.6642 10 20.25 10H16.25Z" fill="black"/>
<path d="M3.75 10.0049C3.33579 10.0049 3 10.3407 3 10.7549C3 11.1691 3.33579 11.5049 3.75 11.5049H5.5V14.25C5.5 14.6642 5.83579 15 6.25 15C6.66421 15 7 14.6642 7 14.25V6.5C7 5.39543 7.89543 4.5 9 4.5C9.48417 4.5 9.92638 4.67109 10.2724 4.95687C10.5918 5.22063 11.0645 5.17554 11.3283 4.85616C11.592 4.53679 11.547 4.06406 11.2276 3.8003C10.6227 3.30073 9.84546 3 9 3C7.067 3 5.5 4.567 5.5 6.5V10.0049H3.75Z" fill="black"/>
<path d="M16.3609 16.0735C17.0395 16.3655 17.8032 16.3913 18.5 16.1458L19.989 15.7291C20.0352 15.7119 20.0832 15.6992 20.1324 15.6914C20.3006 15.6644 20.4689 15.6965 20.6122 15.7753C20.7679 15.8611 20.8939 16.0021 20.9576 16.183C20.9895 16.2736 21.003 16.3663 21 16.4568V20.6819C21 21.0961 20.6642 21.4319 20.25 21.4319L3.77637 21.4565C3.36215 21.4565 3.02637 21.1207 3.02637 20.7065V16.4568C3.02637 16.3027 3.07351 16.1564 3.15653 16.0346C3.18027 15.9997 3.20673 15.9672 3.23549 15.9372C3.30848 15.8612 3.39806 15.8 3.50015 15.7595C3.53759 15.7447 3.57571 15.7331 3.61417 15.7245C3.74692 15.695 3.88931 15.7011 4.02696 15.7499L5.46862 16.1275C6.18175 16.3801 6.71343 16.3663 7.41095 16.0733L7.46231 16.0518C8.55394 15.5933 9.78411 15.5933 10.8757 16.0518C11.5895 16.3515 12.3934 16.3543 13.1093 16.0594L13.1397 16.0469C14.2451 15.5914 15.2626 15.6011 16.3609 16.0735Z" fill="black"/>
</svg>
