<svg width="24" height="24" viewBox="0 0 24 24" fill="none" xmlns="http://www.w3.org/2000/svg">
<path fill-rule="evenodd" clip-rule="evenodd" d="M3 4V7.4857C3 7.7794 3.12912 8.05825 3.35308 8.24826L9.64692 13.5876C9.87088 13.7776 10 14.0565 10 14.3502V21.0224C10 21.672 10.6096 22.1492 11.2402 21.9931L13.2402 21.4983C13.6865 21.3878 14 20.9873 14 20.5275V14.3502C14 14.0565 14.1291 13.7776 14.3531 13.5876L19.7608 9H12.75C12.3358 9 12 8.66421 12 8.25C12 7.83579 12.3358 7.5 12.75 7.5H20.9999C21 7.49524 21 7.49047 21 7.4857V4C21 3.44772 20.5523 3 20 3H4C3.44772 3 3 3.44772 3 4Z" fill="black"/>
</svg>
