<svg width="24" height="24" viewBox="0 0 24 24" fill="none" xmlns="http://www.w3.org/2000/svg">
<path fill-rule="evenodd" clip-rule="evenodd" d="M3.76756 10C4.11337 9.4022 4.75972 9 5.5 9H9C9.74028 9 10.3866 9.4022 10.7324 10H13.2676C13.6134 9.4022 14.2597 9 15 9H18.5C19.2403 9 19.8866 9.4022 20.2324 10H20.75C21.1642 10 21.5 10.3358 21.5 10.75C21.5 11.1642 21.1642 11.5 20.75 11.5H20.5V13.5C20.5 14.8807 19.3807 16 18 16H15.5C14.1193 16 13 14.8807 13 13.5V11.5H11V13.5C11 14.8807 9.88071 16 8.5 16H6C4.61929 16 3.5 14.8807 3.5 13.5V11.5H3.25C2.83579 11.5 2.5 11.1642 2.5 10.75C2.5 10.3358 2.83579 10 3.25 10H3.76756Z" fill="black"/>
</svg>
