<svg width="24" height="24" viewBox="0 0 24 24" fill="none" xmlns="http://www.w3.org/2000/svg">
<path fill-rule="evenodd" clip-rule="evenodd" d="M7.06335 4.48016C7.32852 4.16195 7.28553 3.68903 6.96732 3.42385C6.64911 3.15868 6.17619 3.20167 5.91101 3.51988L4.25729 5.50434L3.53033 4.77738C3.23744 4.48449 2.76256 4.48449 2.46967 4.77738C2.17678 5.07027 2.17678 5.54515 2.46967 5.83804L3.69993 7.0683C4.05336 7.42173 4.63398 7.3954 4.95396 7.01142L7.06335 4.48016ZM10.05 6.5C10.05 6.08579 10.3858 5.75 10.8 5.75H20.2897C20.7039 5.75 21.0397 6.08579 21.0397 6.5C21.0397 6.91421 20.7039 7.25 20.2897 7.25H10.8C10.3858 7.25 10.05 6.91421 10.05 6.5ZM4.25 10.5385C3.55964 10.5385 3 11.0981 3 11.7885C3 12.4788 3.55964 13.0385 4.25 13.0385C4.94036 13.0385 5.5 12.4788 5.5 11.7885C5.5 11.0981 4.94036 10.5385 4.25 10.5385ZM4.25 15.7692C3.55964 15.7692 3 16.3289 3 17.0192C3 17.7096 3.55964 18.2692 4.25 18.2692C4.94036 18.2692 5.5 17.7096 5.5 17.0192C5.5 16.3289 4.94036 15.7692 4.25 15.7692ZM8.8 11.0962C8.38579 11.0962 8.05 11.432 8.05 11.8462C8.05 12.2604 8.38579 12.5962 8.8 12.5962H20.3C20.7142 12.5962 21.05 12.2604 21.05 11.8462C21.05 11.432 20.7142 11.0962 20.3 11.0962H8.8ZM8.05002 17C8.05002 16.5858 8.3858 16.25 8.80002 16.25H20.3C20.7142 16.25 21.05 16.5858 21.05 17C21.05 17.4142 20.7142 17.75 20.3 17.75H8.80002C8.3858 17.75 8.05002 17.4142 8.05002 17Z" fill="black"/>
</svg>
