<svg width="24" height="24" viewBox="0 0 24 24" fill="none" xmlns="http://www.w3.org/2000/svg">
<path fill-rule="evenodd" clip-rule="evenodd" d="M8.75 6C8.17373 6 7.64807 6.21664 7.25 6.57292C6.85193 6.21664 6.32627 6 5.75 6C4.50736 6 3.5 7.00736 3.5 8.25L3.5 10H3C2.17157 10 1.5 10.6716 1.5 11.5V13C1.5 13.8284 2.17157 14.5 3 14.5H3.5L3.5 15.75C3.5 16.9926 4.50736 18 5.75 18C6.32627 18 6.85193 17.7834 7.25 17.4271C7.64807 17.7834 8.17373 18 8.75 18C9.99264 18 11 16.9926 11 15.75V14.5H13V15.75C13 16.9926 14.0074 18 15.25 18C15.8263 18 16.3519 17.7834 16.75 17.4271C17.1481 17.7834 17.6737 18 18.25 18C19.4926 18 20.5 16.9926 20.5 15.75V14.5H21C21.8284 14.5 22.5 13.8284 22.5 13V11.5C22.5 10.6716 21.8284 10 21 10H20.5V8.25C20.5 7.00736 19.4926 6 18.25 6C17.6737 6 17.1481 6.21664 16.75 6.57292C16.3519 6.21664 15.8263 6 15.25 6C14.0074 6 13 7.00736 13 8.25V10H11V8.25C11 7.00736 9.99264 6 8.75 6ZM8 15.7507C8.0004 16.1646 8.33603 16.5 8.75 16.5C9.16421 16.5 9.5 16.1642 9.5 15.75L9.5 8.25C9.5 7.83579 9.16421 7.5 8.75 7.5C8.33579 7.5 8 7.83579 8 8.25V15.7507ZM13 11.5H11L11 13H13L13 11.5ZM16 8.25C16 7.83579 15.6642 7.5 15.25 7.5C14.8358 7.5 14.5 7.83579 14.5 8.25L14.5 15.75C14.5 16.1642 14.8358 16.5 15.25 16.5C15.6642 16.5 16 16.1642 16 15.75L16 8.25ZM17.5 15.75C17.5 16.1642 17.8358 16.5 18.25 16.5C18.6642 16.5 19 16.1642 19 15.75V8.25C19 7.83579 18.6642 7.5 18.25 7.5C17.8358 7.5 17.5 7.83579 17.5 8.25V15.75ZM3 11.5H3.5V13H3L3 11.5ZM5.75 7.5C6.16387 7.5 6.49944 7.83522 6.5 8.24895L6.5 15.75C6.5 16.1642 6.16421 16.5 5.75 16.5C5.33579 16.5 5 16.1642 5 15.75L5 8.25C5 7.83579 5.33579 7.5 5.75 7.5ZM20.5 13V11.5H21V13H20.5Z" fill="black"/>
</svg>
