<svg width="24" height="24" viewBox="0 0 24 24" fill="none" xmlns="http://www.w3.org/2000/svg">
<path fill-rule="evenodd" clip-rule="evenodd" d="M11.7735 3.0498C8.33624 3.0498 5.5498 5.83624 5.5498 9.27349V9.4998C5.5498 9.91402 5.88559 10.2498 6.2998 10.2498C6.71402 10.2498 7.0498 9.91402 7.0498 9.4998V9.27349C7.0498 6.66467 9.16467 4.5498 11.7735 4.5498H11.9749C14.4725 4.5498 16.4972 6.57449 16.4972 9.07206V9.86828C16.4972 10.4925 16.3781 11.1111 16.1462 11.6907C15.8746 12.3697 15.5332 13.0186 15.1276 13.6271L14.7921 14.1303C14.2566 14.9336 13.9709 15.8773 13.9709 16.8427C13.9709 18.0617 12.9827 19.0498 11.7638 19.0498H11.6102C10.4074 19.0498 9.39691 18.1454 9.26408 16.9499L9.15048 15.9275C9.10474 15.5158 8.73392 15.2192 8.32224 15.2649C7.91056 15.3107 7.61391 15.6815 7.65966 16.0932L7.77325 17.1155C7.99049 19.0707 9.64308 20.5498 11.6102 20.5498H11.7638C13.8111 20.5498 15.4709 18.8901 15.4709 16.8427C15.4709 16.1735 15.669 15.5192 16.0402 14.9624L16.3757 14.4592C16.8389 13.7643 17.2288 13.0232 17.5389 12.2477C17.8416 11.491 17.9972 10.6834 17.9972 9.86828V9.07206C17.9972 5.74606 15.3009 3.0498 11.9749 3.0498H11.7735ZM10.4182 9.27348C10.4182 8.59954 11.0469 7.91821 11.7735 7.91821C12.5 7.91821 13.1287 8.59954 13.1287 9.27348C13.1287 9.68769 13.4645 10.0235 13.8787 10.0235C14.293 10.0235 14.6287 9.68769 14.6287 9.27348C14.6287 7.81568 13.3723 6.41821 11.7735 6.41821C10.1746 6.41821 8.91821 7.81568 8.91821 9.27348C8.91821 10.2953 9.27217 11.0537 9.80392 11.6105C10.3179 12.1487 10.6024 12.5967 10.6024 13.0359V14.3261C10.6024 14.7403 10.9382 15.0761 11.3524 15.0761C11.7666 15.0761 12.1024 14.7403 12.1024 14.3261V13.0359C12.1024 11.9599 11.4211 11.132 10.8887 10.5745C10.6238 10.2972 10.4182 9.90999 10.4182 9.27348Z" fill="black"/>
</svg>
