<svg width="24" height="24" viewBox="0 0 24 24" fill="none" xmlns="http://www.w3.org/2000/svg">
<path d="M5.04805 7.948C7.28553 4.98538 10.5188 4.5 12 4.5C13.4813 4.5 16.7144 4.98539 18.9519 7.948C20.729 10.3011 20.7524 12.8958 20.3894 14.404C20.3542 14.5501 20.3743 14.7174 20.452 14.8654C20.8771 15.676 21.0552 16.6003 20.9964 17.4601C20.938 18.3131 20.6396 19.1711 20.0303 19.7803C19.7374 20.0732 19.2626 20.0732 18.9697 19.7803C18.6768 19.4874 18.6768 19.0126 18.9697 18.7197C19.2551 18.4343 19.4589 17.9574 19.4999 17.3577C19.5405 16.7647 19.4152 16.1182 19.1236 15.5622C18.885 15.1072 18.8069 14.5688 18.931 14.053C19.2134 12.8798 19.2045 10.7713 17.7549 8.852C15.9142 6.41474 13.2376 6 12 6C10.7624 6 8.08574 6.41475 6.24503 8.852C4.7955 10.7713 4.78659 12.8798 5.069 14.053C5.19316 14.5688 5.11503 15.1072 4.87644 15.5622C4.5848 16.1182 4.45953 16.7647 4.50011 17.3577C4.54114 17.9574 4.74492 18.4343 5.03032 18.7197C5.32321 19.0126 5.3232 19.4874 5.03031 19.7803C4.73741 20.0732 4.26254 20.0732 3.96965 19.7803C3.36044 19.1711 3.06198 18.3131 3.00361 17.4601C2.94478 16.6003 3.12295 15.676 3.54806 14.8654C3.6257 14.7174 3.64583 14.5501 3.61065 14.404C3.24759 12.8958 3.27091 10.3011 5.04805 7.948Z" fill="black"/>
<path d="M9.10466 14.491C8.71239 14.4474 8.33296 14.5355 8.03018 14.8381C7.73721 15.131 7.26233 15.1308 6.96952 14.8379C6.67671 14.5449 6.67684 14.07 6.96982 13.7772C7.66704 13.0804 8.53761 12.9188 9.27034 13.0002C9.9729 13.0783 10.6404 13.388 11.03 13.777C11.3231 14.0697 11.3234 14.5446 11.0307 14.8376C10.738 15.1307 10.2631 15.1311 9.97003 14.8384C9.85956 14.728 9.5271 14.538 9.10466 14.491Z" fill="black"/>
<path d="M14.0303 14.8383C14.1406 14.728 14.4729 14.5379 14.8953 14.491C15.2874 14.4475 15.6669 14.5356 15.9698 14.8384C16.2627 15.1312 16.7376 15.1311 17.0304 14.8382C17.3233 14.5452 17.3232 14.0703 17.0302 13.7775C16.3331 13.0806 15.4626 12.9188 14.7297 13.0002C14.0271 13.0782 13.3594 13.388 12.9697 13.7775C12.6768 14.0704 12.6768 14.5453 12.9696 14.8382C13.2625 15.1311 13.7374 15.1312 14.0303 14.8383Z" fill="black"/>
</svg>
