<svg width="24" height="24" viewBox="0 0 24 24" fill="none" xmlns="http://www.w3.org/2000/svg">
<path fill-rule="evenodd" clip-rule="evenodd" d="M13.3899 2.06351C13.0111 2.0094 12.5921 1.96969 12.1574 1.99999C10.9134 2.08671 9.63921 2.46128 8.65661 3.29364C7.6511 4.14539 7.02638 5.41373 7.0001 7.11668C6.99302 7.57539 7.3594 7.97989 7.84877 7.97959L8 7.97933V9.25C8 11.3211 9.92893 13 12 13C14.0711 13 16 11.3211 16 9.25V7.95447C16.5702 7.83836 16.9993 7.33384 16.9992 6.72937L16.9993 6.22536C16.9994 4.1332 15.461 2.35938 13.3899 2.06351ZM14.5 7.97961H13.8213C13.4554 7.97961 13.1306 7.7455 13.0149 7.39841L12.8991 7.0509C12.2294 7.45626 11.4235 7.66835 10.7038 7.78937C10.2972 7.85776 9.88789 7.90155 9.5 7.92959V9.25C9.5 10.4926 10.7574 11.5 12 11.5C13.2426 11.5 14.5 10.4926 14.5 9.25V7.97961ZM12.2617 3.49636C12.5444 3.47665 12.8447 3.50086 13.1777 3.54844C14.5099 3.73873 15.4993 4.87964 15.4993 6.22529L15.4992 6.47961H14.2898L14.0254 5.68642C13.7922 4.9867 12.9368 4.95004 12.5508 5.41296C12.1918 5.84356 11.445 6.14365 10.455 6.31015C9.80086 6.42016 9.12648 6.45882 8.55276 6.47236C8.69358 5.52976 9.10005 4.88383 9.62614 4.43819C10.2911 3.87492 11.2234 3.56874 12.2617 3.49636Z" fill="black"/>
<path fill-rule="evenodd" clip-rule="evenodd" d="M11.2508 15.0934C11.5641 14.4669 12.4581 14.4669 12.7713 15.0934L14.1095 17.7698C14.3921 18.335 13.9811 18.9999 13.3493 18.9999H10.6729C10.041 18.9999 9.63003 18.335 9.91261 17.7698L11.2508 15.0934ZM12.0111 16.927L11.7246 17.4999H12.2975L12.0111 16.927Z" fill="black"/>
<path d="M6.58612 18.9615C6.10047 17.5046 7.18491 16 8.72068 16H9.55841C9.97262 16 10.3084 15.6642 10.3084 15.25C10.3084 14.8358 9.97262 14.5 9.55841 14.5H8.72068C6.16107 14.5 4.35367 17.0076 5.16309 19.4359L5.39101 20.1196C5.76533 21.2426 6.81622 22 7.99991 22H15.9536C17.1373 22 18.1882 21.2426 18.5625 20.1196L18.7905 19.4359C19.5999 17.0076 17.7925 14.5 15.2329 14.5H14.4375C14.0232 14.5 13.6875 14.8358 13.6875 15.25C13.6875 15.6642 14.0232 16 14.4375 16H15.2329C16.7686 16 17.8531 17.5046 17.3674 18.9615L17.1395 19.6453C16.9694 20.1557 16.4917 20.5 15.9536 20.5H7.99991C7.46187 20.5 6.98419 20.1557 6.81405 19.6453L6.58612 18.9615Z" fill="black"/>
</svg>
