<svg width="24" height="24" viewBox="0 0 24 24" fill="none" xmlns="http://www.w3.org/2000/svg">
<path fill-rule="evenodd" clip-rule="evenodd" d="M10.4859 4.83514C10.5334 4.78103 10.6019 4.75 10.6739 4.75H11.9972V19.25H10.6739C10.6019 19.25 10.5334 19.219 10.4859 19.1649L6.3501 14.45H3.7998C3.10945 14.45 2.5498 13.8904 2.5498 13.2V10.8C2.5498 10.1096 3.10945 9.55 3.7998 9.55H6.3501L10.4859 4.83514ZM10.6739 3.25C10.17 3.25 9.69057 3.46719 9.3583 3.84598L5.67057 8.05H3.7998C2.28102 8.05 1.0498 9.28122 1.0498 10.8V13.2C1.0498 14.7188 2.28102 15.95 3.7998 15.95H5.67057L9.3583 20.154C9.69057 20.5328 10.17 20.75 10.6739 20.75H12.2472C12.9375 20.75 13.4972 20.1904 13.4972 19.5V4.5C13.4972 3.80964 12.9375 3.25 12.2472 3.25H10.6739ZM19.0102 5.17404C18.7284 4.87045 18.2539 4.85278 17.9503 5.13457C17.6467 5.41636 17.6291 5.89091 17.9108 6.1945C19.0105 7.37925 20.0879 9.13656 20.3551 11.1513C20.6174 13.1293 20.1112 15.435 17.9108 17.8056C17.6291 18.1092 17.6467 18.5837 17.9503 18.8655C18.2539 19.1473 18.7284 19.1297 19.0102 18.8261C21.4997 16.144 22.166 13.3971 21.8421 10.9541C21.523 8.54776 20.2555 6.5156 19.0102 5.17404ZM16.6653 9.38456C16.3835 9.08098 15.909 9.06331 15.6054 9.3451C15.3018 9.62689 15.2841 10.1014 15.5659 10.405C15.8116 10.6697 16.0589 11.2273 16.0998 11.8885C16.1398 12.5338 15.9759 13.1534 15.5659 13.5951C15.2841 13.8987 15.3018 14.3732 15.6054 14.655C15.909 14.9368 16.3835 14.9191 16.6653 14.6156C17.4278 13.7941 17.6547 12.7295 17.597 11.7958C17.5402 10.8781 17.2012 9.96196 16.6653 9.38456Z" fill="black"/>
</svg>
