<svg width="24" height="24" viewBox="0 0 24 24" fill="none" xmlns="http://www.w3.org/2000/svg">
<path fill-rule="evenodd" clip-rule="evenodd" d="M7.04698 4.70225L13.5024 3.62893L13.5024 5.99958L8.75236 6.0002C8.33815 6.0002 8.00236 6.33598 8.00236 6.7502C8.00236 7.16441 8.33815 7.5002 8.75236 7.5002L18.002 7.49958L18.0002 20.4996L6.00024 20.4996L6.002 5.93532C6.002 5.32409 6.44402 4.8025 7.04698 4.70225ZM15.0024 2.86193L15.0024 5.99958H18.652C19.1214 5.99958 19.5019 6.38013 19.5019 6.84958L19.5002 21.1496C19.5002 21.619 19.1196 21.9996 18.6502 21.9996L5.35024 21.9996C4.8808 21.9996 4.50024 21.6191 4.50024 21.1496L4.502 5.93532C4.502 4.59061 5.47445 3.44311 6.80096 3.22256L14.013 2.02344C14.531 1.93731 15.0024 2.33681 15.0024 2.86193ZM12.7302 12.3309C13.2871 11.7739 14.2212 11.899 14.612 12.5829C14.8793 13.0506 14.8004 13.6393 14.4195 14.0202L12.0001 16.4397L9.58063 14.0202C9.19973 13.6393 9.12089 13.0506 9.38815 12.5829C9.77893 11.899 10.713 11.7739 11.27 12.3309L12.0001 13.061L12.7302 12.3309ZM12.0001 10.988C13.2685 10.0696 15.1063 10.4246 15.9144 11.8387C16.5172 12.8937 16.3394 14.2217 15.4802 15.0809L13.0254 17.5357C12.4591 18.1019 11.541 18.1019 10.9748 17.5357L8.51997 15.0809C7.66076 14.2216 7.48292 12.8937 8.08578 11.8387C8.89383 10.4246 10.7317 10.0696 12.0001 10.988Z" fill="black"/>
</svg>
