<svg width="24" height="24" viewBox="0 0 24 24" fill="none" xmlns="http://www.w3.org/2000/svg">
<path fill-rule="evenodd" clip-rule="evenodd" d="M12.75 3C12.75 2.58579 12.4142 2.25 12 2.25C11.5858 2.25 11.25 2.58579 11.25 3V4.5C11.25 4.91421 11.5858 5.25 12 5.25C12.4142 5.25 12.75 4.91421 12.75 4.5V3ZM5 4C5.41421 4 5.75 4.33579 5.75 4.75V19.7222C5.75 20.1364 5.41421 20.4722 5 20.4722C4.58579 20.4722 4.25 20.1364 4.25 19.7222V4.75C4.25 4.33579 4.58579 4 5 4ZM19 4C19.4142 4 19.75 4.33579 19.75 4.75V19.7222C19.75 20.1364 19.4142 20.4722 19 20.4722C18.5858 20.4722 18.25 20.1364 18.25 19.7222V4.75C18.25 4.33579 18.5858 4 19 4ZM12 19.3611C12.4142 19.3611 12.75 19.6969 12.75 20.1111V21.6666C12.75 22.0809 12.4142 22.4166 12 22.4166C11.5858 22.4166 11.25 22.0809 11.25 21.6666V20.1111C11.25 19.6969 11.5858 19.3611 12 19.3611ZM16 10.5225C16 12.1669 14.6669 13.5 13.0225 13.5H11V14.5H12.25C12.6642 14.5 13 14.8358 13 15.25C13 15.6642 12.6642 16 12.25 16H11V16.75C11 17.1642 10.6642 17.5 10.25 17.5C9.83579 17.5 9.5 17.1642 9.5 16.75V16H8.75C8.33579 16 8 15.6642 8 15.25C8 14.8358 8.33579 14.5 8.75 14.5H9.5V13.5H8.75C8.33579 13.5 8 13.1642 8 12.75C8 12.3358 8.33579 12 8.75 12H9.5V8.34804C9.5 7.87968 9.87968 7.5 10.348 7.5H13.0225C14.6669 7.5 16 8.87807 16 10.5225ZM11 9V12H13.0225C13.8385 12 14.5 11.3385 14.5 10.5225C14.5 9.7065 13.8385 9 13.0225 9H11Z" fill="black"/>
</svg>
