<svg width="24" height="24" viewBox="0 0 24 24" fill="none" xmlns="http://www.w3.org/2000/svg">
<path fill-rule="evenodd" clip-rule="evenodd" d="M6.53027 8.53003C4.82932 8.53003 3.53027 9.87561 3.53027 11.5695C3.53027 13.2634 4.82932 14.609 6.53027 14.609C7.48465 14.609 8.41768 14.1923 8.97235 13.5749L8.99062 13.5545L9.01032 13.5356C9.30791 13.2493 10.1875 12.3378 11.1987 11.0959C12.2258 9.83455 13.1319 8.8891 13.4911 8.54096C14.3508 7.59737 15.6904 7.03003 17.0303 7.03003C19.5898 7.03003 21.5303 9.07765 21.5303 11.5695C21.5303 14.0614 19.5898 16.109 17.0303 16.109C15.8094 16.109 14.4863 15.6034 13.0833 13.9494C12.8154 13.6335 12.8542 13.1602 13.1701 12.8923C13.486 12.6243 13.9593 12.6632 14.2272 12.9791C15.3957 14.3567 16.3226 14.609 17.0303 14.609C18.7312 14.609 20.0303 13.2634 20.0303 11.5695C20.0303 9.87561 18.7312 8.53003 17.0303 8.53003C16.0759 8.53003 15.1429 8.94674 14.5882 9.56416L14.5699 9.58449L14.5502 9.60344C14.2526 9.88972 13.373 10.8012 12.3619 12.0431C11.3347 13.3045 10.4286 14.2499 10.0694 14.598C9.20975 15.5416 7.87015 16.109 6.53027 16.109C3.97075 16.109 2.03027 14.0614 2.03027 11.5695C2.03027 9.07765 3.97075 7.03003 6.53027 7.03003C8.10492 7.03003 9.43241 7.81934 10.5014 9.21967C10.7528 9.54891 10.6896 10.0196 10.3604 10.2709C10.0311 10.5223 9.56047 10.4591 9.30913 10.1299C8.44956 9.00388 7.52706 8.53003 6.53027 8.53003Z" fill="black"/>
</svg>
