<svg width="24" height="24" viewBox="0 0 24 24" fill="none" xmlns="http://www.w3.org/2000/svg">
<path fill-rule="evenodd" clip-rule="evenodd" d="M4.78027 3.05029C4.36606 3.05029 4.03027 3.38608 4.03027 3.80029V7.42529C4.03027 7.64424 4.12595 7.85225 4.29218 7.99474L9.66916 12.6036V19.2303C9.66916 19.4622 9.77643 19.681 9.95971 19.8231C10.143 19.9651 10.3817 20.0144 10.6062 19.9566L13.8285 19.1266C14.1598 19.0412 14.3914 18.7424 14.3914 18.4003V12.6036L19.7684 7.99474C19.9346 7.85225 20.0303 7.64424 20.0303 7.42529V7.31319C20.0303 7.3089 20.0304 7.3046 20.0304 7.30029C20.0304 7.29598 20.0303 7.29168 20.0303 7.28739V3.80029C20.0303 3.38608 19.6945 3.05029 19.2803 3.05029H4.78027ZM18.5303 6.55029V4.55029H5.53027V7.08034L10.9073 11.6892C11.0735 11.8317 11.1692 12.0397 11.1692 12.2586V18.2626L12.8914 17.819V12.2586C12.8914 12.0397 12.9871 11.8317 13.1533 11.6892L17.3987 8.05029H12.8359C12.4217 8.05029 12.0859 7.71451 12.0859 7.30029C12.0859 6.88608 12.4217 6.55029 12.8359 6.55029H18.5303Z" fill="black"/>
</svg>
