<svg width="24" height="24" viewBox="0 0 24 24" fill="none" xmlns="http://www.w3.org/2000/svg">
<path fill-rule="evenodd" clip-rule="evenodd" d="M12 3.5C9.95988 3.5 8 4.96455 8 7.25V10.3083C8 11.6717 8.61683 12.7814 9.60268 13.4338C9.68649 13.4892 9.77115 13.5392 9.85505 13.5843L8.28271 15.1566C7.54894 14.5555 7.00297 13.7911 6.70711 12.9564C6.56873 12.566 6.14006 12.3617 5.74964 12.5001C5.35923 12.6385 5.15492 13.0671 5.2933 13.4576C5.67001 14.5204 6.34153 15.4715 7.21798 16.2214L3.96967 19.4697C3.67678 19.7626 3.67678 20.2374 3.96967 20.5303C4.26256 20.8232 4.73744 20.8232 5.03033 20.5303L20.0303 5.53033C20.3232 5.23744 20.3232 4.76256 20.0303 4.46967C19.7374 4.17678 19.2626 4.17678 18.9697 4.46967L16 7.43934V7.25008C16 4.96466 14.2902 3.5 12 3.5ZM14.5 8.93934V7.25008C14.5 5.8536 13.2736 5 12 5C10.7264 5 9.5 5.85355 9.5 7.25V10.3083C9.5 11.1917 9.88349 11.8209 10.4304 12.1828C10.5988 12.2942 10.7962 12.3768 10.992 12.4423C10.9933 12.4427 10.9945 12.4432 10.9958 12.4436L14.5 8.93934ZM18.7071 13.4576C18.8455 13.0671 18.6412 12.6385 18.2508 12.5001C17.8604 12.3617 17.4317 12.566 17.2933 12.9564C16.6036 14.9023 14.553 16.457 12.0003 16.457C11.5861 16.457 11.2503 16.7928 11.2503 17.207L11.2505 17.2227C11.2502 17.2318 11.25 17.2409 11.25 17.25V20.25C11.25 20.6642 11.5858 21 12 21C12.4142 21 12.75 20.6642 12.75 20.25V17.9204C15.5698 17.6435 17.8683 15.8242 18.7071 13.4576Z" fill="black"/>
</svg>
