<svg width="24" height="24" viewBox="0 0 24 24" fill="none" xmlns="http://www.w3.org/2000/svg">
<path fill-rule="evenodd" clip-rule="evenodd" d="M2.74902 3.5C2.33481 3.5 1.99902 3.83579 1.99902 4.25C1.99902 4.66421 2.33481 5 2.74902 5H5.75789C6.34191 5 6.90306 5.22709 7.32271 5.63326L8.9246 7.1837L8.30345 7.80502C7.74146 8.36716 7.62892 9.23745 8.02944 9.92406L10.4576 14.0866C12.0186 16.7626 15.4191 17.7208 18.1477 16.2535L18.3354 16.1525C18.5266 16.4837 18.7277 16.8326 18.9346 17.1929C19.3822 17.9719 19.5043 18.7013 19.5002 19.3185L19.4943 20.2274C19.4915 20.6416 19.8251 20.9796 20.2393 20.9824C20.6535 20.9851 20.9915 20.6515 20.9942 20.2373L21.0002 19.3283C21.0057 18.4912 20.8362 17.4915 20.2352 16.4456C20.0341 16.0956 19.8387 15.7563 19.6523 15.4334C20.4007 14.9242 20.6441 13.9122 20.1803 13.111L15.99 5.87319C15.6771 5.33276 15.0999 5 14.4755 5H11.8327C11.3685 5 10.9233 5.18444 10.5951 5.51273L9.98525 6.12275L8.36592 4.55543C7.6665 3.87848 6.73126 3.5 5.75789 3.5H2.74902ZM11.6559 6.57325C11.7028 6.52635 11.7664 6.5 11.8327 6.5H14.4755C14.5647 6.5 14.6471 6.54754 14.6918 6.62474L18.8822 13.8626C18.9529 13.9847 18.9085 14.1412 18.7842 14.208L17.6758 14.8041L15.942 11.758C14.7116 9.59631 11.9717 8.89852 9.87716 10.1146L9.32511 9.16825C9.26789 9.07016 9.28397 8.94584 9.36425 8.86553L11.6559 6.57325ZM14.6384 12.5L16.2643 15.3565C14.5269 15.7072 12.691 14.9383 11.7532 13.3308L10.6331 11.4105C12.0174 10.6103 13.8257 11.0723 14.6384 12.5Z" fill="black"/>
<path d="M2.18692 8.24019L2.18622 8.23901L2.18553 8.23782L3.09563 6.66149C3.28808 6.32816 3.7692 6.32816 3.96165 6.66149L4.87174 8.23781L4.87105 8.23901L4.87034 8.2402C4.98912 8.45752 5.05664 8.70687 5.05664 8.97198C5.05664 9.81588 4.37252 10.5 3.52863 10.5C2.68473 10.5 2.00061 9.81588 2.00061 8.97198C2.00061 8.70686 2.06813 8.45751 2.18692 8.24019Z" fill="black"/>
</svg>
