<svg width="24" height="24" viewBox="0 0 24 24" fill="none" xmlns="http://www.w3.org/2000/svg">
<path fill-rule="evenodd" clip-rule="evenodd" d="M3.5 6.75C3.5 6.61193 3.61193 6.5 3.75 6.5H10C10.6904 6.5 11.25 7.05964 11.25 7.75V17.4276C10.6366 17.1496 9.96825 17.0039 9.2889 17.0039H3.75C3.61193 17.0039 3.5 16.892 3.5 16.7539V6.75ZM12.0159 19.4101C11.8219 19.4377 11.6148 19.3985 11.4285 19.2743L11.0917 19.0497C10.5578 18.6938 9.93053 18.5039 9.2889 18.5039H3.75C2.7835 18.5039 2 17.7204 2 16.7539V6.75C2 5.7835 2.7835 5 3.75 5H10C10.788 5 11.4986 5.33145 12 5.86253C12.5014 5.33145 13.212 5 14 5H20.25C21.2165 5 22 5.7835 22 6.75V16.75C22 17.7165 21.2165 18.5 20.25 18.5H14.7111C14.0695 18.5 13.4422 18.6899 12.9083 19.0458L12.5715 19.2704C12.3954 19.3878 12.2006 19.4293 12.0159 19.4101ZM12.75 17.4237C13.3634 17.1457 14.0317 17 14.7111 17H20.25C20.3881 17 20.5 16.8881 20.5 16.75V6.75C20.5 6.61193 20.3881 6.5 20.25 6.5H14C13.3096 6.5 12.75 7.05964 12.75 7.75V17.4237ZM19 10H15V8.5H19V10ZM5 10H9V8.5H5V10ZM19 12.5H15V11H19V12.5ZM5 12.5H9V11H5V12.5ZM19 15H15V13.5H19V15ZM5 15H9V13.5H5V15Z" fill="black"/>
</svg>
