<svg width="24" height="24" viewBox="0 0 24 24" fill="none" xmlns="http://www.w3.org/2000/svg">
<path fill-rule="evenodd" clip-rule="evenodd" d="M19 5.5H5C4.72386 5.5 4.5 5.72386 4.5 6V15C4.5 15.2761 4.72386 15.5 5 15.5H19C19.2761 15.5 19.5 15.2761 19.5 15V6C19.5 5.72386 19.2761 5.5 19 5.5ZM5 4C3.89543 4 3 4.89543 3 6V15C3 16.1046 3.89543 17 5 17H19C20.1046 17 21 16.1046 21 15V6C21 4.89543 20.1046 4 19 4H5ZM13 13C13 13.5523 12.5523 14 12 14C11.4477 14 11 13.5523 11 13C11 12.4477 11.4477 12 12 12C12.5523 12 13 12.4477 13 13ZM8.75 18.5C8.33579 18.5 8 18.8358 8 19.25C8 19.6642 8.33579 20 8.75 20H15.25C15.6642 20 16 19.6642 16 19.25C16 18.8358 15.6642 18.5 15.25 18.5H8.75Z" fill="black"/>
</svg>
