<svg width="24" height="24" viewBox="0 0 24 24" fill="none" xmlns="http://www.w3.org/2000/svg">
<path fill-rule="evenodd" clip-rule="evenodd" d="M16.25 2.49463C16.6642 2.49463 17 2.83042 17 3.24463V3.66351C17 5.21022 15.9195 6.54676 14.4071 6.87084L13.804 7.00008C13.3351 7.10057 12.7501 7.52042 12.75 8H16.3514C19.471 8 22 10.529 22 13.6486V13.8366C22 16.6883 19.6883 19 16.8366 19C15.0981 19 13.5089 18.0178 12.7314 16.4629L12.5882 16.1765C12.5342 16.0683 12.4236 16 12.3027 16H11.6973C11.5764 16 11.4658 16.0683 11.4118 16.1765L11.2686 16.4629C10.4911 18.0178 8.90186 19 7.16341 19C4.31174 19 2 16.6883 2 13.8366V13.6486C2 10.529 4.52899 8 7.64865 8H11.25C11.25 6.81312 12.3292 5.78207 13.4897 5.53338L14.0929 5.40413C14.9136 5.22826 15.5 4.50291 15.5 3.66351V3.24463C15.5 2.83042 15.8358 2.49463 16.25 2.49463ZM16.3514 9.5C18.6426 9.5 20.5 11.3574 20.5 13.6486V13.8366C20.5 15.8598 18.8598 17.5 16.8366 17.5C15.6663 17.5 14.5964 16.8388 14.0731 15.7921L13.9299 15.5056C13.6217 14.8893 12.9918 14.5 12.3027 14.5H11.6973C11.0082 14.5 10.3783 14.8893 10.0701 15.5056L9.92692 15.7921C9.40355 16.8388 8.3337 17.5 7.16341 17.5C5.14016 17.5 3.5 15.8598 3.5 13.8366V13.6486C3.5 11.3574 5.35741 9.5 7.64865 9.5H16.3514ZM7.8125 12.1562C7.8125 11.742 7.47671 11.4062 7.0625 11.4062C6.64829 11.4062 6.3125 11.742 6.3125 12.1562V12.9062H5.5625C5.14829 12.9062 4.8125 13.242 4.8125 13.6562C4.8125 14.0705 5.14829 14.4062 5.5625 14.4062H6.3125V15.1562C6.3125 15.5705 6.64829 15.9062 7.0625 15.9062C7.47671 15.9062 7.8125 15.5705 7.8125 15.1562V14.4062H8.5625C8.97671 14.4062 9.3125 14.0705 9.3125 13.6562C9.3125 13.242 8.97671 12.9062 8.5625 12.9062H7.8125V12.1562ZM16.8438 15.1562C17.6722 15.1562 18.3438 14.4847 18.3438 13.6562C18.3438 12.8278 17.6722 12.1562 16.8438 12.1562C16.0153 12.1562 15.3438 12.8278 15.3438 13.6562C15.3438 14.4847 16.0153 15.1562 16.8438 15.1562Z" fill="black"/>
</svg>
