<svg width="24" height="24" viewBox="0 0 24 24" fill="none" xmlns="http://www.w3.org/2000/svg">
<path fill-rule="evenodd" clip-rule="evenodd" d="M6.33301 5.5C5.22844 5.5 4.33301 6.39543 4.33301 7.5V11.5001C4.33301 11.5167 4.33317 11.5332 4.3335 11.5498C4.3465 15.1195 4.60444 16.6702 5.41768 17.9342C6.27801 19.2715 7.6048 19.4995 8.65352 19.4995L12.1792 19.4995C13.2279 19.4995 14.5547 19.2715 15.415 17.9342C15.6066 17.6364 15.7675 17.3226 15.9015 16.9702C18.7656 16.677 21 14.2573 21 11.3158C21 9.48453 19.5155 8 17.6842 8H16.4997V7.5C16.4997 6.39543 15.6042 5.5 14.4997 5.5H6.33301ZM14.9997 7.5C14.9997 7.22386 14.7758 7 14.4997 7H6.33301C6.05687 7 5.83301 7.22386 5.83301 7.5V11.5001C5.83301 11.51 5.83315 11.5198 5.83344 11.5296C5.84584 15.1292 6.12775 16.2656 6.67916 17.1227C7.13044 17.8241 7.80737 17.9995 8.65352 17.9995L12.1792 17.9995C13.0253 17.9995 13.7022 17.8241 14.1535 17.1227C14.188 17.0691 14.2214 17.0144 14.2538 16.9582C14.465 16.5907 14.6313 16.1541 14.7528 15.5C14.9105 14.651 14.9927 13.4356 14.9992 11.5296C14.9995 11.5198 14.9997 11.51 14.9997 11.5001V7.5ZM16.2922 15.3855C16.4345 14.4258 16.4932 13.2048 16.4992 11.5498C16.4995 11.5332 16.4997 11.5166 16.4997 11.5001V9.5H17.6842C18.687 9.5 19.5 10.313 19.5 11.3158C19.5 13.2904 18.1321 14.9456 16.2922 15.3855Z" fill="black"/>
</svg>
