<svg width="24" height="24" viewBox="0 0 24 24" fill="none" xmlns="http://www.w3.org/2000/svg">
<path fill-rule="evenodd" clip-rule="evenodd" d="M5 6.5H19C19.2761 6.5 19.5 6.72386 19.5 7V7.42823L12.0001 12.1157L4.5 7.4281V7C4.5 6.72386 4.72386 6.5 5 6.5ZM4.5 9.19697V17C4.5 17.2761 4.72386 17.5 5 17.5H19C19.2761 17.5 19.5 17.2761 19.5 17V9.1971L12.4506 13.603C12.175 13.7752 11.8252 13.7752 11.5496 13.603L4.5 9.19697ZM3 7C3 5.89543 3.89543 5 5 5H19C20.1046 5 21 5.89543 21 7V17C21 18.1046 20.1046 19 19 19H5C3.89543 19 3 18.1046 3 17V7Z" fill="black"/>
</svg>
