<svg width="24" height="24" viewBox="0 0 24 24" fill="none" xmlns="http://www.w3.org/2000/svg">
<path fill-rule="evenodd" clip-rule="evenodd" d="M13.5 6V7C13.5 8.38071 12.3807 9.5 11 9.5C9.61929 9.5 8.5 8.38071 8.5 7V6C8.5 4.61929 9.61929 3.5 11 3.5C12.3807 3.5 13.5 4.61929 13.5 6ZM7 6C7 3.79086 8.79086 2 11 2C13.2091 2 15 3.79086 15 6V7C15 9.20914 13.2091 11 11 11C8.79086 11 7 9.20914 7 7V6ZM3.5 18.25C3.5 16.4551 4.95508 15 6.75 15H8.74216C9.15637 15 9.49216 14.6642 9.49216 14.25C9.49216 13.8358 9.15637 13.5 8.74216 13.5H6.75C4.12665 13.5 2 15.6266 2 18.25V20.25C2 21.2165 2.7835 22 3.75 22H13.75H14.75H20.75C21.7165 22 22.5 21.2165 22.5 20.25V13.25C22.5 12.2835 21.7165 11.5 20.75 11.5H13.75C12.7835 11.5 12 12.2835 12 13.25V20.25C12 20.3349 12.006 20.4183 12.0177 20.5H3.75C3.61193 20.5 3.5 20.3881 3.5 20.25V18.25ZM14.75 20.5H13.75C13.6119 20.5 13.5 20.3881 13.5 20.25V13.25C13.5 13.1119 13.6119 13 13.75 13H20.75C20.8881 13 21 13.1119 21 13.25V20.25C21 20.3881 20.8881 20.5 20.75 20.5H14.75ZM19.5 14.75C19.5 14.3358 19.1642 14 18.75 14H16.25C15.8358 14 15.5 14.3358 15.5 14.75C15.5 15.1642 15.8358 15.5 16.25 15.5H18.75C19.1642 15.5 19.5 15.1642 19.5 14.75Z" fill="black"/>
</svg>
