<svg width="24" height="24" viewBox="0 0 24 24" fill="none" xmlns="http://www.w3.org/2000/svg">
<path fill-rule="evenodd" clip-rule="evenodd" d="M20 7.19109C20 6.4508 19.1032 6.08207 18.5825 6.60826L18.2536 6.94056C17.3411 7.86265 15.643 7.98271 14.5911 7.22346C13.7871 6.64315 12.7175 6.71504 12 7.32379C11.2825 6.71504 10.2129 6.64315 9.40889 7.22346C8.35702 7.98271 6.65886 7.86265 5.74637 6.94056L5.41754 6.60826C4.89683 6.08207 4 6.4508 4 7.19109V13C4 14.2291 4.54739 15.3224 5.28689 16.1858C6.02659 17.0493 6.99589 17.7295 7.9482 18.1481C10.3709 19.213 13.6291 19.213 16.0518 18.1481C17.0041 17.7295 17.9734 17.0493 18.7131 16.1858C19.4526 15.3224 20 14.2291 20 13V7.19109ZM13.7132 8.43972C15.0759 9.42331 17.1123 9.46678 18.5 8.63829V13C18.5 13.7708 18.1554 14.5311 17.5739 15.21C16.9926 15.8886 16.2119 16.4392 15.4482 16.7749C13.4102 17.6707 10.5898 17.6707 8.5518 16.7749C7.78808 16.4392 7.00739 15.8886 6.42609 15.21C5.84459 14.5311 5.5 13.7708 5.5 13V8.63829C6.88773 9.46678 8.92411 9.42331 10.2868 8.43972C10.5663 8.23798 10.9577 8.31107 11.1456 8.60008L11.3029 8.84215C11.6308 9.34655 12.3692 9.34655 12.6971 8.84215L12.8544 8.60008C13.0423 8.31107 13.4337 8.23798 13.7132 8.43972ZM10.5303 10.9697C10.2374 10.6768 9.76256 10.6768 9.46967 10.9697C9.17678 11.2626 9.17678 11.7374 9.46967 12.0303C10.1421 12.7028 11.1011 13 12 13C12.8989 13 13.8579 12.7028 14.5303 12.0303C14.8232 11.7374 14.8232 11.2626 14.5303 10.9697C14.2374 10.6768 13.7626 10.6768 13.4697 10.9697C13.1421 11.2972 12.6011 11.5 12 11.5C11.3989 11.5 10.8579 11.2972 10.5303 10.9697Z" fill="black"/>
</svg>
