<svg width="24" height="24" viewBox="0 0 24 24" fill="none" xmlns="http://www.w3.org/2000/svg">
<path fill-rule="evenodd" clip-rule="evenodd" d="M10.6821 3.38423C11.1526 2.12974 12.927 2.12973 13.3975 3.38423L15.0864 7.88813C15.1195 7.97631 15.1993 8.03842 15.2929 8.04882L20.7523 8.65542C22.0153 8.79575 22.4997 10.3774 21.5318 11.2009L17.6849 14.474C17.6134 14.5348 17.582 14.6305 17.6036 14.7218L18.7884 19.7393C19.0832 20.9877 17.7311 21.9758 16.6312 21.3159L12.1684 18.6382C12.0892 18.5907 11.9903 18.5907 11.9112 18.6382L7.44838 21.3159C6.34849 21.9759 4.99639 20.9877 5.29117 19.7393L6.476 14.7218C6.49756 14.6305 6.46617 14.5348 6.39469 14.474L2.5478 11.2009C1.57993 10.3774 2.06429 8.79575 3.32729 8.65542L8.78668 8.04882C8.88028 8.03842 8.96009 7.97631 8.99316 7.88813L10.6821 3.38423ZM12.0398 4.03576L10.3976 8.41482C10.1662 9.03205 9.60751 9.46685 8.95233 9.53965L3.60796 10.1335L7.36671 13.3315C7.86703 13.7572 8.08682 14.4272 7.93585 15.0665L6.77826 19.9687L11.1394 17.352C11.6936 17.0195 12.386 17.0195 12.9402 17.352L17.3013 19.9687L16.1437 15.0665C15.9928 14.4272 16.2126 13.7572 16.7129 13.3315L20.4716 10.1335L15.1273 9.53965C14.4721 9.46685 13.9134 9.03205 13.6819 8.41482L12.0398 4.03576Z" fill="black"/>
</svg>
