<svg width="24" height="24" viewBox="0 0 24 24" fill="none" xmlns="http://www.w3.org/2000/svg">
<path d="M15 13H12.25V3C12.25 2.58579 11.9142 2.25 11.5 2.25C11.0858 2.25 10.75 2.58579 10.75 3V13H8C6.89543 13 6 13.8954 6 15H17C17 13.8954 16.1046 13 15 13Z" fill="black"/>
<path fill-rule="evenodd" clip-rule="evenodd" d="M16.9795 16H5.96591L5.79112 16.5044C5.06307 18.6056 5.33813 20.49 5.63222 21.2037C5.86134 21.7597 6.38818 21.9973 6.84985 21.9973L18.7929 21.9969L18.805 21.9965C19.6581 21.969 20.2482 21.2335 20.2482 20.4473C20.2482 19.8847 19.9561 19.3667 19.4839 19.0931C19.4504 19.0705 19.4155 19.0503 19.3795 19.0326C18.6288 18.6618 18.3085 18.3838 18 18C17.7372 17.6731 17.4724 17.0831 17.2836 16.6625C17.2461 16.5789 17.2116 16.502 17.1807 16.4352L16.9795 16ZM6.97167 20.4973C6.84098 20.0693 6.69209 18.8383 7.05298 17.5H16.026C16.0498 17.5475 16.0776 17.6042 16.1086 17.6676C16.2881 18.0341 16.5772 18.6241 16.8309 18.9398C17.27 19.486 17.7448 19.8866 18.6463 20.343L18.6556 20.351L18.7301 20.39C18.7301 20.39 18.7336 20.3937 18.7366 20.3986C18.7422 20.4081 18.7482 20.424 18.7482 20.4473C18.7482 20.4715 18.7416 20.4878 18.736 20.4969L6.97167 20.4973Z" fill="black"/>
</svg>
