<svg width="24" height="24" viewBox="0 0 24 24" fill="none" xmlns="http://www.w3.org/2000/svg">
<path d="M10.0001 6.00006C9.99372 6.45361 9.58512 6.77976 9.13783 6.70439C8.46845 6.5916 7.79848 6.3142 7.19605 5.86673C6.02565 4.99738 5.39615 3.69855 5.41356 2.46006C5.41993 2.00651 5.82853 1.68035 6.27582 1.75572C6.9452 1.86851 7.61517 2.14591 8.21761 2.59339C9.38801 3.46273 10.0175 4.76157 10.0001 6.00006Z" fill="black"/>
<path d="M6.25 13.5001C6.25 13.9143 6.58579 14.2501 7 14.2501C7.41421 14.2501 7.75 13.9143 7.75 13.5001C7.75 12.9715 7.88761 12.6909 8.03865 12.5396C8.18944 12.3885 8.46964 12.2501 9 12.2501C9.41421 12.2501 9.75 11.9143 9.75 11.5001C9.75 11.0858 9.41421 10.7501 9 10.7501C8.21786 10.7501 7.49806 10.9579 6.97698 11.48C6.45614 12.0018 6.25 12.7212 6.25 13.5001Z" fill="black"/>
<path fill-rule="evenodd" clip-rule="evenodd" d="M11.4608 8.56419C9.17908 7.71605 7.34936 7.61506 5.96381 8.1807C4.54369 8.76045 3.75748 9.9693 3.43461 11.3458C3.11561 12.7059 3.23033 14.2778 3.62292 15.7654C4.01679 17.2579 4.7059 18.7255 5.59923 19.8845C6.41402 20.9415 7.37199 21.4998 8.35856 21.6926C9.32803 21.8821 10.2592 21.7065 11.026 21.4148C11.6441 21.1797 12.3558 21.1797 12.974 21.4148C13.7407 21.7065 14.6719 21.8821 15.6414 21.6926C16.6279 21.4998 17.5859 20.9415 18.4007 19.8845C19.294 18.7255 19.9831 17.2579 20.377 15.7654C20.7696 14.2778 20.8843 12.7059 20.5653 11.3458C20.2425 9.9693 19.4562 8.76045 18.0361 8.1807C16.6506 7.61506 14.8209 7.71605 12.5391 8.56419C12.1934 8.69269 11.8065 8.69269 11.4608 8.56419ZM6.78726 18.9687C6.03074 17.9873 5.42264 16.7066 5.07326 15.3827C4.72259 14.0539 4.64801 12.7413 4.89497 11.6884C5.13806 10.652 5.67307 9.91957 6.53075 9.56943C7.423 9.20518 8.82765 9.18569 10.9382 9.9702C11.621 10.224 12.3789 10.224 13.0618 9.9702C15.1723 9.18569 16.5769 9.20518 17.4692 9.56943C18.3269 9.91957 18.8619 10.652 19.105 11.6884C19.3519 12.7413 19.2773 14.0539 18.9267 15.3827C18.5773 16.7066 17.9692 17.9873 17.2127 18.9687C16.6029 19.7598 15.9552 20.1029 15.3536 20.2205C14.7349 20.3414 14.0954 20.2365 13.5072 20.0128C12.5456 19.6471 11.4544 19.6471 10.4927 20.0128C9.90455 20.2365 9.26501 20.3414 8.6463 20.2205C8.0447 20.1029 7.39707 19.7598 6.78726 18.9687Z" fill="black"/>
<path d="M13.3859 1.85693C13.7411 2.07004 13.8562 2.53074 13.6431 2.88592C13.623 2.91945 13.6012 2.95493 13.5782 2.99254C13.2764 3.48424 12.75 4.34209 12.75 6.00005C12.75 6.41427 12.4142 6.75005 12 6.75005C11.5858 6.75005 11.25 6.41427 11.25 6.00005C11.25 3.92411 11.9504 2.77923 12.2932 2.21895L12.2937 2.21808C12.3164 2.1809 12.3376 2.1463 12.3569 2.11418C12.57 1.759 13.0307 1.64382 13.3859 1.85693Z" fill="black"/>
</svg>
