<svg width="24" height="24" viewBox="0 0 24 24" fill="none" xmlns="http://www.w3.org/2000/svg">
<path fill-rule="evenodd" clip-rule="evenodd" d="M9.05957 7.9502V5.9502H18.5596V7.9502H9.05957ZM9.05957 9.4502V17.2002C9.05957 17.3209 9.03106 17.4349 8.98041 17.5359C8.74828 18.9618 7.51101 20.0502 6.01953 20.0502C4.36268 20.0502 3.01953 18.7071 3.01953 17.0502C3.01953 15.3933 4.36268 14.0502 6.01953 14.0502C6.58257 14.0502 7.10938 14.2053 7.55957 14.4751V5.3002C7.55957 4.83076 7.94012 4.4502 8.40957 4.4502H19.2096C19.679 4.4502 20.0596 4.83075 20.0596 5.3002V17.2002C20.0596 17.3423 20.02 17.4752 19.9513 17.5885C19.6977 18.9885 18.4726 20.0502 16.9995 20.0502C15.3427 20.0502 13.9995 18.7071 13.9995 17.0502C13.9995 15.3933 15.3427 14.0502 16.9995 14.0502C17.5709 14.0502 18.105 14.21 18.5596 14.4872V9.4502H9.05957ZM4.51953 17.0502C4.51953 16.2218 5.1911 15.5502 6.01953 15.5502C6.84796 15.5502 7.51953 16.2218 7.51953 17.0502C7.51953 17.8786 6.84796 18.5502 6.01953 18.5502C5.1911 18.5502 4.51953 17.8786 4.51953 17.0502ZM16.9995 15.5502C16.1711 15.5502 15.4995 16.2218 15.4995 17.0502C15.4995 17.8786 16.1711 18.5502 16.9995 18.5502C17.8279 18.5502 18.4995 17.8786 18.4995 17.0502C18.4995 16.2218 17.8279 15.5502 16.9995 15.5502Z" fill="black"/>
</svg>
