<svg width="24" height="24" viewBox="0 0 24 24" fill="none" xmlns="http://www.w3.org/2000/svg">
<path fill-rule="evenodd" clip-rule="evenodd" d="M3.79987 4.05029C2.83337 4.05029 2.04987 4.8338 2.04987 5.80029V6.79002C2.04978 6.7964 2.04978 6.80279 2.04987 6.80917V17.3003C2.04987 18.2668 2.83337 19.0503 3.79987 19.0503H10.4665C10.8807 19.0503 11.2165 18.7145 11.2165 18.3003C11.2165 17.8861 10.8807 17.5503 10.4665 17.5503H3.79987C3.66179 17.5503 3.54987 17.4384 3.54987 17.3003V8.18481L11.5902 13.4285C11.8392 13.5909 12.1606 13.5909 12.4096 13.4285L20.4499 8.18484V12.8003C20.4499 13.2145 20.7857 13.5503 21.1999 13.5503C21.6141 13.5503 21.9499 13.2145 21.9499 12.8003V6.8125C21.95 6.8039 21.95 6.7953 21.9499 6.78669V5.80029C21.9499 4.8338 21.1664 4.05029 20.1999 4.05029H3.79987ZM20.4499 6.39403V5.80029C20.4499 5.66222 20.3379 5.55029 20.1999 5.55029H3.79987C3.66179 5.55029 3.54987 5.66222 3.54987 5.80029V6.394L11.9999 11.9049L20.4499 6.39403ZM22.1562 16.7103C22.5207 16.5135 22.6566 16.0584 22.4598 15.694C22.263 15.3295 21.808 15.1936 21.4435 15.3904L20.4827 15.9092C19.7616 16.2987 18.8885 16.2789 18.1858 15.8572C17.0288 15.163 15.5915 15.1305 14.4043 15.7716L13.4435 16.2904C13.0791 16.4872 12.9431 16.9422 13.14 17.3067C13.3368 17.6712 13.7918 17.8071 14.1562 17.6103L15.117 17.0914C15.8382 16.702 16.7112 16.7218 17.414 17.1435C18.571 17.8376 20.0083 17.8702 21.1955 17.2291L22.1562 16.7103ZM22.4598 19.2941C22.6566 19.6585 22.5207 20.1136 22.1562 20.3104L21.1955 20.8292C20.0083 21.4703 18.571 21.4377 17.414 20.7436C16.7112 20.3219 15.8382 20.3021 15.117 20.6915L14.1562 21.2104C13.7918 21.4072 13.3368 21.2713 13.14 20.9068C12.9431 20.5423 13.0791 20.0873 13.4435 19.8905L14.4043 19.3717C15.5915 18.7306 17.0288 18.7631 18.1858 19.4573C18.8885 19.879 19.7616 19.8988 20.4827 19.5093L21.4435 18.9905C21.808 18.7937 22.263 18.9296 22.4598 19.2941Z" fill="black"/>
</svg>
