<svg width="24" height="24" viewBox="0 0 24 24" fill="none" xmlns="http://www.w3.org/2000/svg">
<path d="M7.5 5.75C7.5 5.33579 7.83579 5 8.25 5H15.75C16.1642 5 16.5 5.33579 16.5 5.75V7.25C16.5 7.66421 16.8358 8 17.25 8C17.6642 8 18 7.66421 18 7.25V5.75C18 4.50736 16.9926 3.5 15.75 3.5H8.25C7.00736 3.5 6 4.50736 6 5.75V7.25C6 7.66421 6.33579 8 6.75 8C7.16421 8 7.5 7.66421 7.5 7.25V5.75Z" fill="black"/>
<path d="M4.5 10.7539C4.5 10.6158 4.61193 10.5039 4.75 10.5039H19.25C19.3881 10.5039 19.5 10.6158 19.5 10.7539V16.75C19.5 17.1642 19.8358 17.5 20.25 17.5C20.6642 17.5 21 17.1642 21 16.75V10.7539C21 9.78741 20.2165 9.00391 19.25 9.00391H4.75C3.7835 9.00391 3 9.78741 3 10.7539V16.75C3 17.1642 3.33579 17.5 3.75 17.5C4.16421 17.5 4.5 17.1642 4.5 16.75V10.7539Z" fill="black"/>
<path d="M14.5 12.25C14.5 11.8358 14.8358 11.5 15.25 11.5H17.25C17.6642 11.5 18 11.8358 18 12.25C18 12.6642 17.6642 13 17.25 13H15.25C14.8358 13 14.5 12.6642 14.5 12.25Z" fill="black"/>
<path fill-rule="evenodd" clip-rule="evenodd" d="M6.85 15C6.38056 15 6 15.3806 6 15.85V18.75C6 19.9926 7.00736 21 8.25 21H15.75C16.9927 21 18 19.9926 18 18.75V15.85C18 15.3806 17.6195 15 17.15 15H6.85ZM7.5 18.75V16.5H16.5V18.75C16.5 19.1642 16.1642 19.5 15.75 19.5H8.25C7.83579 19.5 7.5 19.1642 7.5 18.75Z" fill="black"/>
</svg>
