<svg width="24" height="24" viewBox="0 0 24 24" fill="none" xmlns="http://www.w3.org/2000/svg">
<path fill-rule="evenodd" clip-rule="evenodd" d="M8.75 3.5C8.33579 3.5 8 3.83579 8 4.25C8 4.66421 8.33579 5 8.75 5H15.25C15.6642 5 16 4.66421 16 4.25C16 3.83579 15.6642 3.5 15.25 3.5H8.75ZM8.5 7.5H15.5C15.7761 7.5 16 7.72386 16 8V16C16 16.2761 15.7761 16.5 15.5 16.5H8.5C8.22386 16.5 8 16.2761 8 16V8C8 7.72386 8.22386 7.5 8.5 7.5ZM6.5 8C6.5 6.89543 7.39543 6 8.5 6H15.5C16.6046 6 17.5 6.89543 17.5 8V16C17.5 17.1046 16.6046 18 15.5 18H8.5C7.39543 18 6.5 17.1046 6.5 16V8ZM8 19.75C8 19.3358 8.33579 19 8.75 19H15.25C15.6642 19 16 19.3358 16 19.75C16 20.1642 15.6642 20.5 15.25 20.5H8.75C8.33579 20.5 8 20.1642 8 19.75ZM13.5 10.25C13.5 9.83579 13.1642 9.5 12.75 9.5C12.3358 9.5 12 9.83579 12 10.25V12.5H10.75C10.3358 12.5 10 12.8358 10 13.25C10 13.6642 10.3358 14 10.75 14H12.65C13.1194 14 13.5 13.6194 13.5 13.15V10.25Z" fill="black"/>
</svg>
