<svg width="24" height="24" viewBox="0 0 24 24" fill="none" xmlns="http://www.w3.org/2000/svg">
<path d="M4.25 3C3.55964 3 3 3.55964 3 4.25V7.75C3 8.16421 3.33579 8.5 3.75 8.5C4.16421 8.5 4.5 8.16421 4.5 7.75V4.5H7.75C8.16421 4.5 8.5 4.16421 8.5 3.75C8.5 3.33579 8.16421 3 7.75 3H4.25Z" fill="black"/>
<path d="M19.75 3C20.4404 3 21 3.55964 21 4.25V7.75C21 8.16421 20.6642 8.5 20.25 8.5C19.8358 8.5 19.5 8.16421 19.5 7.75V4.5H16.25C15.8358 4.5 15.5 4.16421 15.5 3.75C15.5 3.33579 15.8358 3 16.25 3H19.75Z" fill="black"/>
<path fill-rule="evenodd" clip-rule="evenodd" d="M9.91674 6.4767C10.5512 5.87877 11.8153 5.23867 13.6105 5.5C15.0062 5.70317 16.3204 6.76911 17 8.21022C17.6959 9.68598 17.7425 11.5782 16.5859 13.4421C16.4795 13.6137 16.3365 13.7093 16.1907 13.7548V14.3515C16.1907 16.6095 14.3944 18.4399 12.1785 18.4399C9.96263 18.4399 8.16629 16.6095 8.16629 14.3515V13.9105C8.12054 13.8914 8.07569 13.867 8.0324 13.8371C7.36515 13.3758 6.49453 12.0579 6.49453 10.263C6.49453 9.24827 6.88578 8.23932 7.53426 7.51797C8.12291 6.86318 8.95773 6.41531 9.91674 6.4767ZM13.4214 6.84912C11.8272 6.61706 10.9346 7.31751 10.7188 7.59051C10.5473 7.80754 10.275 7.90759 10.0117 7.85913C9.4577 7.75714 8.9353 7.97705 8.52043 8.43853C8.09828 8.90812 7.83194 9.58847 7.83194 10.263C7.83194 10.7635 7.92108 11.1971 8.0475 11.5557C8.36957 10.327 8.99865 9.53783 9.55949 9.15005C10.0752 8.79347 10.6191 9.07928 10.855 9.38115C11.0629 9.64717 11.2703 9.78439 11.6907 9.89933C12.0719 10.0036 12.5641 10.0733 13.3084 10.1788C13.5024 10.2063 13.714 10.2363 13.9448 10.2699C14.9075 10.41 15.5801 10.8253 16.0038 11.3842L16.0257 11.4135C16.2808 10.442 16.1437 9.54089 15.7945 8.80046C15.2772 7.70332 14.3086 6.97827 13.4214 6.84912ZM13.7557 11.619C14.3234 11.7016 14.6547 11.9028 14.8533 12.1096V14.3515C14.8533 15.8568 13.6558 17.0771 12.1785 17.0771C10.7013 17.0771 9.5037 15.8568 9.5037 14.3515V11.4078C9.66955 10.9972 9.87255 10.7029 10.0532 10.5072C10.4122 10.8652 10.8225 11.073 11.3441 11.2156C11.8133 11.3439 12.4158 11.4289 13.1741 11.536L13.1758 11.5362C13.3598 11.5622 13.5531 11.5895 13.7557 11.619Z" fill="black"/>
<path d="M4.25 21C3.55964 21 3 20.4404 3 19.75V16.25C3 15.8358 3.33579 15.5 3.75 15.5C4.16421 15.5 4.5 15.8358 4.5 16.25V19.5H7.75C8.16421 19.5 8.5 19.8358 8.5 20.25C8.5 20.6642 8.16421 21 7.75 21H4.25Z" fill="black"/>
<path d="M21 19.75C21 20.4404 20.4404 21 19.75 21H16.25C15.8358 21 15.5 20.6642 15.5 20.25C15.5 19.8358 15.8358 19.5 16.25 19.5H19.5V16.25C19.5 15.8358 19.8358 15.5 20.25 15.5C20.6642 15.5 21 15.8358 21 16.25V19.75Z" fill="black"/>
</svg>
