<svg width="24" height="24" viewBox="0 0 24 24" fill="none" xmlns="http://www.w3.org/2000/svg">
<path fill-rule="evenodd" clip-rule="evenodd" d="M18.3004 1.55029C18.216 1.5502 18.1345 1.56425 18.0581 1.59034C17.8493 1.66139 17.6845 1.82102 17.604 2.02131C17.5751 2.09328 17.5571 2.17049 17.5519 2.25073C17.5099 2.7262 17.3122 3.45158 16.8745 4.04041C16.4552 4.60454 15.8166 5.05034 14.8004 5.05034C14.4121 5.05034 14.0927 5.34546 14.0543 5.72365C14.0517 5.74887 14.0504 5.77445 14.0504 5.80034C14.0504 6.21455 14.3862 6.55034 14.8004 6.55034C15.8166 6.55034 16.4552 6.99613 16.8745 7.56026C17.3122 8.14909 17.5099 8.87447 17.5519 9.34995C17.5571 9.43018 17.5751 9.5074 17.604 9.57936C17.6385 9.66541 17.6883 9.74318 17.7498 9.80959C17.8334 9.90013 17.9395 9.97033 18.0601 10.011C18.1359 10.0367 18.2168 10.0505 18.3004 10.0504C18.384 10.0505 18.4649 10.0367 18.5406 10.011C18.7504 9.94028 18.916 9.78028 18.9967 9.57936C19.0256 9.50739 19.0436 9.43018 19.0489 9.34994C19.0909 8.87446 19.2885 8.14909 19.7262 7.56026C20.1456 6.99613 20.7841 6.55034 21.8004 6.55033C22.2146 6.55033 22.5504 6.21455 22.5504 5.80033C22.5504 5.38612 22.2146 5.05034 21.8004 5.05034C20.7841 5.05034 20.1456 4.60454 19.7262 4.04041C19.2885 3.45158 19.0909 2.72621 19.0489 2.25073C19.0436 2.17049 19.0256 2.09328 18.9967 2.02131C18.9623 1.93526 18.9125 1.85749 18.851 1.79108C18.7678 1.70104 18.6624 1.63111 18.5426 1.59034C18.4663 1.56425 18.3847 1.5502 18.3004 1.55029ZM19.3886 5.80034C19.0466 5.5505 18.7592 5.25388 18.5224 4.93526C18.4428 4.82813 18.3689 4.71865 18.3004 4.60773C18.2319 4.71865 18.158 4.82813 18.0784 4.93526C17.8415 5.25388 17.5541 5.5505 17.2121 5.80033C17.5541 6.05017 17.8415 6.34679 18.0784 6.66541C18.158 6.77254 18.2319 6.88202 18.3004 6.99294C18.3689 6.88202 18.4428 6.77254 18.5224 6.66541C18.7592 6.34679 19.0466 6.05018 19.3886 5.80034ZM7.92716 16.2839C9.6635 18.039 12.0857 20.2292 16.0012 20.5815C16.9441 20.6663 17.8901 20.5684 18.684 19.8013L19.6802 18.8157C20.2623 18.2399 20.2271 17.4594 19.8393 17.0674L17.855 15.0616C17.4672 14.6696 16.6872 14.626 16.1051 15.2019L14.9255 16.3688C14.6254 16.6657 14.0933 16.9717 13.4829 16.7919C12.631 16.541 11.1925 15.7663 9.83617 14.3953C8.47988 13.0243 7.72057 11.5777 7.47882 10.7231C7.30561 10.1108 7.61736 9.58204 7.91745 9.28517L9.09706 8.1182C9.67912 7.54237 9.64395 6.76188 9.25615 6.36988L7.27183 4.36407C6.88403 3.97207 6.10397 3.9285 5.5219 4.50432L4.52268 5.49284C3.87656 6.13204 3.5611 6.96386 3.62421 7.76156C3.93536 11.6947 6.20859 14.5467 7.92716 16.2839ZM15.8668 22.0755C11.3959 21.6732 8.65059 19.148 6.8608 17.3388C5.05325 15.5117 2.4818 12.3409 2.12888 7.87986C2.02792 6.60371 2.53564 5.34861 3.46774 4.42649L4.46697 3.43797C5.52816 2.38814 7.26477 2.2241 8.33818 3.30914L10.3225 5.31495C11.3959 6.39999 11.2132 8.13473 10.152 9.18455L8.97238 10.3515C8.96034 10.3634 8.95065 10.3746 8.94311 10.3845C9.13293 10.9845 9.74267 12.168 10.9025 13.3404C12.0623 14.5128 13.2393 15.1351 13.8373 15.3314C13.8472 15.324 13.8585 15.3144 13.8705 15.3025L15.0502 14.1355C16.1113 13.0857 17.848 12.9216 18.9214 14.0067L20.9057 16.0125C21.9791 17.0975 21.7964 18.8323 20.7352 19.8821L19.7303 20.8762C18.4784 22.0888 16.9949 22.1769 15.8668 22.0755Z" fill="black"/>
</svg>
