<svg width="24" height="24" viewBox="0 0 24 24" fill="none" xmlns="http://www.w3.org/2000/svg">
<path fill-rule="evenodd" clip-rule="evenodd" d="M13.5 3.24959C13.4998 2.83538 13.1638 2.49977 12.7496 2.5C12.3354 2.50023 11.9998 2.8362 12 3.25041V4.48766L12.0003 4.60209C12.0014 4.91719 12.0023 5.18376 11.9213 5.51308C11.8334 5.87037 11.6366 6.33558 11.1591 6.94444C10.7749 7.43439 10.3965 7.92055 10.0437 8.37379C9.40802 9.19044 8.85552 9.90023 8.50218 10.3328C8.40264 10.4546 8.28862 10.591 8.16577 10.738L8.16575 10.738C7.80423 11.1704 7.36623 11.6943 6.99553 12.2088C6.74376 12.5583 6.50363 12.929 6.32403 13.295C6.14999 13.6498 6 14.0649 6 14.4873C6 15.1959 6.24837 15.7761 6.77783 16.205C7.24736 16.5854 7.8873 16.8013 8.56438 16.974C9.22552 17.1426 9.58575 17.2925 9.78314 17.4494C9.91643 17.5553 10 17.6775 10 17.9873V20.2372C10 20.6514 10.3358 20.9872 10.75 20.9872C11.1642 20.9872 11.5 20.6514 11.5 20.2372V17.9873C11.5 17.277 11.25 16.6992 10.7164 16.2751C10.247 15.902 9.60708 15.6919 8.93507 15.5205C8.279 15.3532 7.91907 15.1991 7.72204 15.0395C7.58491 14.9284 7.5 14.7986 7.5 14.4873C7.5 14.3996 7.53748 14.2272 7.67069 13.9557C7.79834 13.6955 7.98524 13.4012 8.21257 13.0857C8.54876 12.619 8.93139 12.1613 9.28477 11.7386L9.28479 11.7385C9.41651 11.581 9.54417 11.4282 9.66385 11.2817C10.0279 10.836 10.6006 10.1004 11.2463 9.27095L11.2464 9.27073C11.5965 8.82101 11.9681 8.3437 12.3395 7.87007C12.9285 7.11894 13.2321 6.46413 13.3779 5.87142C13.5056 5.35221 13.5026 4.9059 13.5005 4.59367C13.5002 4.55623 13.5 4.52032 13.5 4.48684V3.24959ZM17.5 13.75C17.5 13.3358 17.1642 13 16.75 13C16.3358 13 16 13.3358 16 13.75C16 14.5941 15.6724 14.8849 15.4665 14.9848C15.3404 15.0461 15.2066 15.0644 15.0932 15.0522C15.0373 15.0462 14.9928 15.0334 14.9613 15.02C14.9311 15.0071 14.9194 14.9966 14.9194 14.9966C14.7125 14.7957 14.5461 14.6192 14.3986 14.4611L14.3539 14.4131L14.3538 14.413C14.2275 14.2774 14.099 14.1395 13.9767 14.0246C13.8355 13.8919 13.6653 13.7533 13.4524 13.6525C13.2288 13.5466 12.9962 13.5 12.75 13.5L11.25 13.5C10.8358 13.5 10.5 13.8358 10.5 14.25C10.5 14.6642 10.8358 15 11.25 15L12.75 15C12.7948 15 12.8071 15.0064 12.8105 15.0082C12.8237 15.0144 12.863 15.0364 12.9497 15.1179C13.0333 15.1963 13.1258 15.2955 13.263 15.4427L13.263 15.4427L13.3018 15.4843C13.4539 15.6474 13.6405 15.8456 13.8747 16.0729C14.439 16.6207 15.3823 16.6932 16.1217 16.3342C16.9453 15.9343 17.5 15.0471 17.5 13.75Z" fill="black"/>
</svg>
