<svg width="24" height="24" viewBox="0 0 24 24" fill="none" xmlns="http://www.w3.org/2000/svg">
<path fill-rule="evenodd" clip-rule="evenodd" d="M12.0805 3.95284L8.786 6.53382C6.98868 7.94188 5.55783 9.763 4.61501 11.8424C4.30305 12.5305 4.10342 13.2623 4.02212 14.0101H17.4888C17.903 14.0101 18.2388 14.3459 18.2388 14.7601C18.2388 15.1743 17.903 15.5101 17.4888 15.5101H3.98047V20.5501H20.1805V14.7786C20.1805 13.7658 19.9641 12.7648 19.5459 11.8424C18.6031 9.763 17.1723 7.94188 15.3749 6.53382L12.0805 3.95284ZM11.3096 2.65126C11.7623 2.29659 12.3986 2.29658 12.8514 2.65126L16.3 5.35303C18.2874 6.91 19.8695 8.92369 20.9121 11.223C21.4185 12.34 21.6805 13.5522 21.6805 14.7786V20.8001C21.6805 21.4904 21.1208 22.0501 20.4305 22.0501H3.73047C3.04011 22.0501 2.48047 21.4904 2.48047 20.8001V14.7786C2.48047 13.5522 2.74245 12.34 3.24887 11.223C4.29139 8.92369 5.87356 6.90999 7.86094 5.35303L11.3096 2.65126ZM6.53162 17.2501C6.1174 17.2501 5.78162 17.5859 5.78162 18.0001C5.78162 18.4143 6.1174 18.7501 6.53162 18.7501H7.37447C7.78869 18.7501 8.12447 18.4143 8.12447 18.0001C8.12447 17.5859 7.78869 17.2501 7.37447 17.2501H6.53162ZM10.8387 18.0001C10.8387 17.5859 11.1745 17.2501 11.5887 17.2501H12.4316C12.8458 17.2501 13.1816 17.5859 13.1816 18.0001C13.1816 18.4143 12.8458 18.7501 12.4316 18.7501H11.5887C11.1745 18.7501 10.8387 18.4143 10.8387 18.0001ZM16.646 17.2501C16.2318 17.2501 15.896 17.5859 15.896 18.0001C15.896 18.4143 16.2318 18.7501 16.646 18.7501H17.4889C17.9031 18.7501 18.2389 18.4143 18.2389 18.0001C18.2389 17.5859 17.9031 17.2501 17.4889 17.2501H16.646Z" fill="black"/>
</svg>
