<svg width="24" height="24" viewBox="0 0 24 24" fill="none" xmlns="http://www.w3.org/2000/svg">
<path fill-rule="evenodd" clip-rule="evenodd" d="M8.75 4.5C8.61193 4.5 8.5 4.61193 8.5 4.75V6H15.25C16.2165 6 17 6.7835 17 7.75V16.5H18.25C18.3881 16.5 18.5 16.3881 18.5 16.25V4.75C18.5 4.61193 18.3881 4.5 18.25 4.5L8.75 4.5ZM7 4.75V6H5.75C4.7835 6 4 6.7835 4 7.75V19.25C4 20.2165 4.7835 21 5.75 21H15.25C16.2165 21 17 20.2165 17 19.25V18H18.25C19.2165 18 20 17.2165 20 16.25V4.75C20 3.7835 19.2165 3 18.25 3H8.75C7.7835 3 7 3.7835 7 4.75ZM5.75 7.5C5.61193 7.5 5.5 7.61193 5.5 7.75L5.5 19.25C5.5 19.3881 5.61193 19.5 5.75 19.5H15.25C15.3881 19.5 15.5 19.3881 15.5 19.25V7.75C15.5 7.61193 15.3881 7.5 15.25 7.5H5.75ZM7 11H14V9.5H7V11ZM14 14H7V12.5H14V14ZM7 17H14V15.5H7V17Z" fill="black"/>
</svg>
