<svg width="24" height="24" viewBox="0 0 24 24" fill="none" xmlns="http://www.w3.org/2000/svg">
<path fill-rule="evenodd" clip-rule="evenodd" d="M11.5644 3.33048C6.61778 3.45701 4.36424 6.23777 3.36717 7.89969C2.71292 8.99021 2.43989 10.2063 2.42643 11.1926C2.42077 11.6067 2.75194 11.9471 3.16611 11.9527C3.58029 11.9584 3.92063 11.6272 3.92629 11.213C3.93654 10.4619 4.15002 9.5105 4.65344 8.67139C5.49298 7.27203 7.34669 4.93886 11.6027 4.82999C13.9692 4.76946 16.2886 5.35629 17.9821 5.97921C18.5016 6.17026 18.9559 6.36242 19.3283 6.53634C18.5358 7.08115 17.8241 7.87865 17.1825 8.7262C16.3714 9.79752 15.58 11.0801 14.816 12.3184L14.816 12.3185L14.8155 12.3193C14.6225 12.6321 14.4312 12.9421 14.2418 13.2452C12.7766 15.5894 11.2701 16.367 9.957 16.4848C8.59419 16.6071 7.24769 16.0389 6.09704 15.306C6.05556 15.2796 6.00695 15.2489 5.9533 15.2149L5.9527 15.2146L5.95263 15.2145C5.82352 15.1329 5.66531 15.0329 5.50716 14.9302C5.47281 14.9079 5.43974 14.8862 5.40814 14.8654C6.61202 13.1598 8.46183 11.4916 11.1463 10.481C11.5339 10.3351 11.7299 9.90253 11.5839 9.51488C11.438 9.12723 11.0054 8.93128 10.6178 9.07722C7.18634 10.3691 4.95663 12.6357 3.6379 14.8369C2.97974 15.9355 2.54493 17.0234 2.29946 17.9756C2.05899 18.9083 1.98379 19.7753 2.11091 20.4109C2.19215 20.817 2.58727 21.0804 2.99344 20.9992C3.39961 20.918 3.66302 20.5229 3.58178 20.1167C3.51757 19.7957 3.53803 19.1799 3.75196 18.35C3.92246 17.6887 4.20577 16.9313 4.6224 16.144C4.64532 16.159 4.66792 16.1737 4.69001 16.1881C4.85651 16.2962 5.0304 16.4061 5.16144 16.489C5.21206 16.521 5.25629 16.5489 5.29123 16.5712C6.55116 17.3736 8.24195 18.1447 10.091 17.9788C11.9899 17.8084 13.8699 16.6704 15.5138 14.0402C15.7153 13.7177 15.9149 13.3944 16.1132 13.0731C16.8733 11.8416 17.6149 10.6401 18.3784 9.6316C19.363 8.33105 20.245 7.54905 21.0498 7.36171C21.1769 7.33213 21.521 7.20813 21.626 6.80486C21.7101 6.48155 21.5585 6.23792 21.5256 6.18588C21.4339 6.04101 21.3053 5.94018 21.2508 5.8981C21.1018 5.78288 20.8892 5.65271 20.6448 5.51948C20.1437 5.24641 19.4033 4.90367 18.4999 4.57142C16.6982 3.9087 14.1826 3.26351 11.5644 3.33048Z" fill="black"/>
</svg>
