<svg width="24" height="24" viewBox="0 0 24 24" fill="none" xmlns="http://www.w3.org/2000/svg">
<path fill-rule="evenodd" clip-rule="evenodd" d="M12.75 5.25C12.75 4.83579 12.4142 4.5 12 4.5C11.5858 4.5 11.25 4.83579 11.25 5.25V6.04024C7.22868 6.39054 4.27479 9.53167 3.75763 13.1517C3.69905 13.5618 3.98398 13.9417 4.39403 14.0003C4.80408 14.0589 5.18398 13.7739 5.24256 13.3639C5.69375 10.2055 8.40078 7.50781 12.0001 7.50781C15.5994 7.50781 18.3064 10.2055 18.7576 13.3639C18.8162 13.7739 19.1961 14.0589 19.6062 14.0003C20.0162 13.9417 20.3011 13.5618 20.2426 13.1517C19.7254 9.53162 16.7714 6.39044 12.75 6.04022V5.25ZM2 16.25C2 15.8358 2.33579 15.5 2.75 15.5H21.25C21.6642 15.5 22 15.8358 22 16.25C22 16.6642 21.6642 17 21.25 17H2.75C2.33579 17 2 16.6642 2 16.25ZM4.71118 18.4148C4.89642 18.0443 5.34693 17.8941 5.71741 18.0793L6.55906 18.5002L17.4876 18.5002L18.3292 18.0793C18.6997 17.8941 19.1502 18.0443 19.3354 18.4148C19.5207 18.7852 19.3705 19.2357 19 19.421L18.1056 19.8682C17.932 19.955 17.7406 20.0002 17.5466 20.0002L6.50004 20.0002C6.30598 20.0002 6.11459 19.955 5.94102 19.8682L5.04659 19.421C4.67611 19.2357 4.52594 18.7852 4.71118 18.4148ZM10.567 10.8888C10.9375 10.7035 11.0877 10.253 10.9024 9.88253C10.7172 9.51204 10.2667 9.36188 9.8962 9.54712C9.35096 9.81974 8.90122 10.1127 8.51378 10.5001C8.12634 10.8875 7.83341 11.3373 7.56079 11.8825C7.37555 12.253 7.52572 12.7035 7.8962 12.8888C8.26668 13.074 8.71719 12.9238 8.90243 12.5533C9.12981 12.0986 9.33688 11.7983 9.57444 11.5608C9.812 11.3232 10.1123 11.1161 10.567 10.8888Z" fill="black"/>
</svg>
