<svg width="24" height="24" viewBox="0 0 24 24" fill="none" xmlns="http://www.w3.org/2000/svg">
<path fill-rule="evenodd" clip-rule="evenodd" d="M8.5 16.5V6.5H16.5V16.5C16.5 17.0523 16.0523 17.5 15.5 17.5H9.5C8.94772 17.5 8.5 17.0523 8.5 16.5ZM7 5.5C7 5.22386 7.22386 5 7.5 5H17.25H17.5C17.5407 5 17.5803 5.00487 17.6182 5.01406C20.0695 5.20201 22 7.25056 22 9.75V10.75C22 13.1182 20.267 15.0815 18 15.4411V16.5C18 17.8807 16.8807 19 15.5 19H9.5C8.11929 19 7 17.8807 7 16.5V15.9999L2.25621 10.2793C1.951 9.94359 1.96329 9.42734 2.28412 9.10651L3.65679 7.73383C3.95061 7.44002 4.41377 7.40169 4.75189 7.6432L7 9.5616V5.5ZM7 13.6411L3.78303 9.72892L4.3281 9.18385L7 11.5247V13.6411ZM18 13.913V6.58697C19.4333 6.92555 20.5 8.21321 20.5 9.75V10.75C20.5 12.2868 19.4333 13.5745 18 13.913ZM12.75 9.5H11.5V10.75C11.5 11.1642 11.1642 11.5 10.75 11.5C10.3358 11.5 10 11.1642 10 10.75V8.85C10 8.38056 10.3806 8 10.85 8H12.75C13.1642 8 13.5 8.33579 13.5 8.75C13.5 9.16421 13.1642 9.5 12.75 9.5Z" fill="black"/>
</svg>
