<svg width="24" height="24" viewBox="0 0 24 24" fill="none" xmlns="http://www.w3.org/2000/svg">
<path fill-rule="evenodd" clip-rule="evenodd" d="M6.24976 3C6.66397 3 6.99976 3.33579 6.99976 3.75L6.99976 6.5H10.2575C11.4511 6.5 12.5957 6.97415 13.4396 7.81812L17.8712 12.25H20C20.4524 12.2501 20.7717 12.5458 20.9002 12.8601C21.023 13.1601 21.0062 13.5482 20.7622 13.8574L17.3595 18.6649C17.3452 18.6852 17.3298 18.7047 17.3135 18.7235C16.7515 19.3705 15.9503 19.75 15.0981 19.75H3.5C2.80964 19.75 2.25 19.1904 2.25 18.5V16C2.25 15.3096 2.80964 14.75 3.5 14.75H4.00024V13H3.25C2.83579 13 2.5 12.6642 2.5 12.25C2.5 11.8358 2.83579 11.5 3.25 11.5H4.00024V8C4.00024 7.17174 4.67155 6.50026 5.49976 6.5L5.49976 3.75C5.49976 3.33579 5.83554 3 6.24976 3ZM5.50024 13H6.75C7.16421 13 7.5 12.6642 7.5 12.25C7.5 11.8358 7.16421 11.5 6.75 11.5H5.50024V8H10.2575C11.0532 8 11.8163 8.3161 12.3789 8.87875L13.0001 9.5H9.25C8.83579 9.5 8.5 9.83579 8.5 10.25C8.5 10.6642 8.83579 11 9.25 11H14.5C14.5 11 14.5 11 14.5 11L15.75 12.25H12.0254C11.0585 12.25 10.1626 12.7579 9.6659 13.5875L9.44781 13.9519C9.05902 14.6014 8.40072 14.75 7.24871 14.75H5.50024V13ZM12.0254 13.75C11.5859 13.75 11.1787 13.9808 10.9529 14.358L10.7348 14.7223C9.88414 16.1434 8.39905 16.25 7.24871 16.25H3.75V18.25L15.0981 18.25C15.4877 18.25 15.8719 18.0816 16.1587 17.765L19.0005 13.75H12.0254Z" fill="black"/>
</svg>
