<svg width="24" height="24" viewBox="0 0 24 24" fill="none" xmlns="http://www.w3.org/2000/svg">
<path d="M6.84082 18.4706C7.48096 18.4706 7.99976 17.9515 7.99976 17.3114C7.99976 16.6713 7.48096 16.1523 6.84082 16.1523C6.20068 16.1523 5.68164 16.6713 5.68164 17.3114C5.68164 17.9515 6.20068 18.4706 6.84082 18.4706Z" fill="black"/>
<path fill-rule="evenodd" clip-rule="evenodd" d="M2.54541 17.3113C2.54541 19.646 4.43799 21.5386 6.77271 21.5386C6.96729 21.5386 7.15869 21.5254 7.34619 21.5H17.75C18.4404 21.5 19 20.9403 19 20.25V8.25C19 7.55969 18.4404 7 17.75 7H11V5.72034C11 3.38574 9.10742 1.49316 6.77271 1.49316C4.43799 1.49316 2.54541 3.38574 2.54541 5.72034V17.3113ZM17.5 20H10.0349C10.6379 19.2693 11 18.3326 11 17.3113V8.5H17.5V20ZM9.5 5.72034V14.0813C8.76392 13.4591 7.81201 13.084 6.77271 13.084C5.7334 13.084 4.78149 13.4591 4.04541 14.0813V5.72034C4.04541 4.21411 5.26636 2.99316 6.77271 2.99316C8.27881 2.99316 9.5 4.21411 9.5 5.72034ZM6.77271 20.0386C5.26636 20.0386 4.04541 18.8175 4.04541 17.3113C4.04541 15.8051 5.26636 14.584 6.77271 14.584C8.27881 14.584 9.5 15.8051 9.5 17.3113C9.5 18.8175 8.27881 20.0386 6.77271 20.0386Z" fill="black"/>
</svg>
