<svg width="24" height="24" viewBox="0 0 24 24" fill="none" xmlns="http://www.w3.org/2000/svg">
<path fill-rule="evenodd" clip-rule="evenodd" d="M7.56154 7.5H16.4384C16.6679 7.5 16.8679 7.65615 16.9235 7.87873L19.0788 16.5H4.92115L7.07647 7.87873C7.13212 7.65615 7.33211 7.5 7.56154 7.5ZM5.62126 7.51493C5.84384 6.62459 6.64381 6 7.56154 6H16.4384C17.3562 6 18.1561 6.62459 18.3787 7.51493L20.6894 16.7575C20.8471 17.3886 20.3698 18 19.7192 18H4.28077C3.6302 18 3.15284 17.3886 3.31062 16.7575L5.62126 7.51493ZM10.7502 10.5225H9.33576L8.97778 11.9544C8.87732 12.3562 8.47012 12.6005 8.06828 12.5001C7.66643 12.3996 7.42211 11.9924 7.52257 11.5906L8.00363 9.66631C8.09823 9.28791 8.43822 9.02246 8.82826 9.02246H10.7502C11.1644 9.02246 11.5002 9.35825 11.5002 9.77246C11.5002 10.1867 11.1644 10.5225 10.7502 10.5225Z" fill="black"/>
</svg>
