<svg width="24" height="24" viewBox="0 0 24 24" fill="none" xmlns="http://www.w3.org/2000/svg">
<path fill-rule="evenodd" clip-rule="evenodd" d="M20 20H4C3.72386 20 3.5 19.7761 3.5 19.5V4C3.5 3.72386 3.72386 3.5 4 3.5H6V5.5H8V7.5H6V9.5H8V7.5H10V5.5H8V3.5H20C20.2761 3.5 20.5 3.72386 20.5 4V19.5C20.5 19.7761 20.2761 20 20 20ZM2 4C2 2.89543 2.89543 2 4 2H20C21.1046 2 22 2.89543 22 4V19.5C22 20.6046 21.1046 21.5 20 21.5H4C2.89543 21.5 2 20.6046 2 19.5V4ZM14.4189 12.6296V17.5H15.5649V15.8509H16.1729L17.235 17.5H18.4998L17.3119 15.7251C17.4609 15.6599 17.5867 15.5807 17.6892 15.4876C17.7917 15.3944 17.8732 15.2849 17.9338 15.1591C17.999 15.0334 18.0456 14.8913 18.0735 14.7329C18.1015 14.5745 18.1154 14.3952 18.1154 14.1949C18.1154 13.9247 18.0805 13.6894 18.0106 13.4891C17.9454 13.2841 17.8336 13.1141 17.6752 12.979C17.5215 12.8439 17.3142 12.7438 17.0533 12.6785C16.7924 12.6087 16.4687 12.5737 16.082 12.5737C15.8025 12.5737 15.5323 12.5807 15.2714 12.5947C15.0106 12.6087 14.7264 12.6203 14.4189 12.6296ZM16.7459 14.7888C16.6294 14.8959 16.4081 14.9495 16.082 14.9495H15.544V13.6219C15.6371 13.6126 15.721 13.6056 15.7955 13.6009C15.8701 13.5963 15.9586 13.5939 16.0611 13.5939C16.2334 13.5939 16.3755 13.6079 16.4873 13.6358C16.5991 13.6591 16.6876 13.6987 16.7528 13.7546C16.8181 13.8059 16.8623 13.8734 16.8856 13.9573C16.9136 14.0411 16.9275 14.1413 16.9275 14.2577C16.9275 14.5 16.867 14.677 16.7459 14.7888ZM5.41895 17.5001V12.6297C5.7264 12.6204 6.01057 12.6087 6.27144 12.5948C6.53232 12.5808 6.80251 12.5738 7.08202 12.5738C7.46867 12.5738 7.79243 12.6087 8.05331 12.6786C8.31418 12.7438 8.52148 12.844 8.67521 12.9791C8.8336 13.1142 8.94541 13.2842 9.01062 13.4892C9.0805 13.6895 9.11544 13.9247 9.11544 14.1949C9.11544 14.3952 9.10146 14.5746 9.07351 14.733C9.04556 14.8914 8.99898 15.0334 8.93376 15.1592C8.8732 15.285 8.79168 15.3945 8.68919 15.4876C8.5867 15.5808 8.46093 15.66 8.31185 15.7252L9.49976 17.5001H8.23499L7.17286 15.851H6.56493V17.5001H5.41895ZM7.08202 14.9496C7.40811 14.9496 7.62939 14.896 7.74585 14.7889C7.86697 14.6771 7.92753 14.5 7.92753 14.2578C7.92753 14.1413 7.91355 14.0412 7.8856 13.9573C7.86231 13.8735 7.81806 13.8059 7.75284 13.7547C7.68762 13.6988 7.59911 13.6592 7.48731 13.6359C7.3755 13.608 7.23342 13.594 7.06106 13.594C6.95857 13.594 6.87006 13.5963 6.79552 13.601C6.72099 13.6056 6.63713 13.6126 6.54397 13.6219V14.9496H7.08202ZM12.5254 16.48H10.9392L10.6388 17.5002H9.49977L11.079 12.6089H12.4416L14.0138 17.5002H12.8329L12.5254 16.48ZM11.2187 15.5297H12.2459L11.7288 13.7968L11.2187 15.5297Z" fill="black"/>
</svg>
