<svg width="24" height="24" viewBox="0 0 24 24" fill="none" xmlns="http://www.w3.org/2000/svg">
<path fill-rule="evenodd" clip-rule="evenodd" d="M2.2998 19.53C1.88559 19.53 1.5498 19.1942 1.5498 18.78V4.78003C1.5498 4.36582 1.88559 4.03003 2.2998 4.03003H21.2998C21.714 4.03003 22.0498 4.36582 22.0498 4.78003V18.78C22.0498 19.1942 21.714 19.53 21.2998 19.53H2.2998ZM3.0498 18.03H20.5498V5.53003H3.0498V18.03ZM9.89978 10.6654L13.6645 15.936C13.9052 16.273 14.3736 16.3511 14.7107 16.1103C15.0478 15.8696 15.1258 15.4012 14.8851 15.0641L10.5915 9.05303C10.2525 8.57844 9.5471 8.57843 9.2081 9.05303L4.91448 15.0641C4.67372 15.4012 4.75179 15.8696 5.08885 16.1103C5.42591 16.3511 5.89432 16.273 6.13508 15.936L9.89978 10.6654ZM13.8336 10.081C14.1686 9.83736 14.6377 9.91142 14.8813 10.2464L18.3813 15.0589C18.625 15.3939 18.5509 15.863 18.2159 16.1066C17.8809 16.3502 17.4119 16.2762 17.1682 15.9412L13.6682 11.1287C13.4246 10.7937 13.4987 10.3246 13.8336 10.081ZM16.8998 8.63132C16.8998 8.22056 17.2328 7.88757 17.6435 7.88757C18.0543 7.88757 18.3873 8.22056 18.3873 8.63132C18.3873 9.04209 18.0543 9.37507 17.6435 9.37507C17.2328 9.37507 16.8998 9.04209 16.8998 8.63132Z" fill="black"/>
</svg>
