<svg width="24" height="24" viewBox="0 0 24 24" fill="none" xmlns="http://www.w3.org/2000/svg">
<path fill-rule="evenodd" clip-rule="evenodd" d="M18 8.5C18.8284 8.5 19.5 7.82843 19.5 7C19.5 6.17157 18.8284 5.5 18 5.5C17.1716 5.5 16.5 6.17157 16.5 7C16.5 7.82843 17.1716 8.5 18 8.5ZM18 10C19.6569 10 21 8.65685 21 7C21 5.34315 19.6569 4 18 4C16.6021 4 15.4275 4.95608 15.0945 6.25H11.85C11.3806 6.25 11 6.63056 11 7.1V11.25H8.90549C8.57245 9.95608 7.39788 9 6 9C4.34315 9 3 10.3431 3 12C3 13.6569 4.34315 15 6 15C7.39788 15 8.57245 14.0439 8.90549 12.75H11V16.9C11 17.3694 11.3806 17.75 11.85 17.75H15.0945C15.4275 19.0439 16.6021 20 18 20C19.6569 20 21 18.6569 21 17C21 15.3431 19.6569 14 18 14C16.6021 14 15.4275 14.9561 15.0945 16.25H12.5V7.75H15.0945C15.4275 9.04392 16.6021 10 18 10ZM6 13.5C6.82843 13.5 7.5 12.8284 7.5 12C7.5 11.1716 6.82843 10.5 6 10.5C5.17157 10.5 4.5 11.1716 4.5 12C4.5 12.8284 5.17157 13.5 6 13.5ZM19.5 17C19.5 17.8284 18.8284 18.5 18 18.5C17.1716 18.5 16.5 17.8284 16.5 17C16.5 16.1716 17.1716 15.5 18 15.5C18.8284 15.5 19.5 16.1716 19.5 17Z" fill="black"/>
</svg>
