<svg width="24" height="24" viewBox="0 0 24 24" fill="none" xmlns="http://www.w3.org/2000/svg">
<path fill-rule="evenodd" clip-rule="evenodd" d="M4.19182 2.81001C4.45726 2.33688 4.95749 2.04395 5.5 2.04395H18.5C19.0425 2.04395 19.5427 2.33688 19.8082 2.81001L22.3082 7.26607C22.5688 7.73055 22.5635 8.2984 22.2944 8.75799C22.0253 9.21758 21.5326 9.5 21 9.5H20V20.25C20 20.6642 19.6642 21 19.25 21C18.8358 21 18.5 20.6642 18.5 20.25V9.5H5.5V20.25C5.5 20.6642 5.16421 21 4.75 21C4.33579 21 4 20.6642 4 20.25V9.5H3C2.4674 9.5 1.97474 9.21758 1.70561 8.75799C1.43647 8.2984 1.43122 7.73055 1.69182 7.26607L4.19182 2.81001ZM5.5 3.54395H18.5L21 8H17.5V6C17.5 5.44772 17.0523 5 16.5 5C15.9477 5 15.5 5.44772 15.5 6V8H13V6C13 5.44772 12.5523 5 12 5C11.4477 5 11 5.44772 11 6V8H8.5V6C8.5 5.44772 8.05228 5 7.5 5C6.94772 5 6.5 5.44772 6.5 6V8H3L5.5 3.54395Z" fill="black"/>
<path d="M8 11C7.44772 11 7 11.4477 7 12V14C7 14.5523 7.44772 15 8 15C8.55228 15 9 14.5523 9 14V12C9 11.4477 8.55228 11 8 11Z" fill="black"/>
<path d="M11 12C11 11.4477 11.4477 11 12 11C12.5523 11 13 11.4477 13 12V14C13 14.5523 12.5523 15 12 15C11.4477 15 11 14.5523 11 14V12Z" fill="black"/>
<path d="M16 11C15.4477 11 15 11.4477 15 12V14C15 14.5523 15.4477 15 16 15C16.5523 15 17 14.5523 17 14V12C17 11.4477 16.5523 11 16 11Z" fill="black"/>
<path d="M7 18C7 17.4477 7.44772 17 8 17C8.55228 17 9 17.4477 9 18V20C9 20.5523 8.55228 21 8 21C7.44772 21 7 20.5523 7 20V18Z" fill="black"/>
<path d="M12 17C11.4477 17 11 17.4477 11 18V20C11 20.5523 11.4477 21 12 21C12.5523 21 13 20.5523 13 20V18C13 17.4477 12.5523 17 12 17Z" fill="black"/>
<path d="M15 18C15 17.4477 15.4477 17 16 17C16.5523 17 17 17.4477 17 18V20C17 20.5523 16.5523 21 16 21C15.4477 21 15 20.5523 15 20V18Z" fill="black"/>
</svg>
