<svg width="24" height="24" viewBox="0 0 24 24" fill="none" xmlns="http://www.w3.org/2000/svg">
<path d="M8.5 10.25C8.5 9.83579 8.16421 9.5 7.75 9.5C7.33579 9.5 7 9.83579 7 10.25V16.75C7 17.1642 7.33579 17.5 7.75 17.5C8.16421 17.5 8.5 17.1642 8.5 16.75V10.25Z" fill="black"/>
<path d="M13 10.25C13 9.83579 12.6642 9.5 12.25 9.5C11.8358 9.5 11.5 9.83579 11.5 10.25V16.75C11.5 17.1642 11.8358 17.5 12.25 17.5C12.6642 17.5 13 17.1642 13 16.75V10.25Z" fill="black"/>
<path fill-rule="evenodd" clip-rule="evenodd" d="M16.9748 6.75C16.9748 6.71703 16.9726 6.68457 16.9685 6.65272C16.9727 6.26472 16.9748 5.84308 16.9748 5.38558C16.9748 3.73719 15.2176 2.60449 13.6002 2.60449C13.4418 2.60449 13.2858 2.6148 13.133 2.6348C12.3976 1.77378 11.2335 1.25 9.96865 1.25C8.70705 1.25 7.546 1.77101 6.81026 2.62782C6.67567 2.61241 6.5387 2.60449 6.39997 2.60449C4.7825 2.60449 3.0459 3.73719 3.0459 5.38558C3.0459 5.84076 3.04977 6.25052 3.05739 6.6185C3.04984 6.6612 3.0459 6.70514 3.0459 6.75L3.06072 18.25C3.06072 20.3211 4.73966 22 6.81072 22H13.2491C15.2819 22 16.9369 20.3825 16.9974 18.3643C19.5733 17.7946 21.5 15.4973 21.5 12.75V10.75C21.5 9.23122 20.2688 8 18.75 8H16.9774L16.9748 6.75ZM7.77093 3.84648C8.15375 3.22931 8.96612 2.75 9.96865 2.75C10.9772 2.75 11.7929 3.23499 12.173 3.85721C12.3498 4.1467 12.6989 4.28146 13.0244 4.18587C13.2022 4.13365 13.3958 4.10449 13.6002 4.10449C14.6336 4.10449 15.4748 4.79049 15.4748 5.38558C15.4748 5.59842 15.4743 5.80315 15.4734 6H9.18158C8.76737 6 8.43158 6.33579 8.43158 6.75C8.43158 7.16421 8.76737 7.5 9.18158 7.5H15.4761L15.4991 18.25C15.4991 19.4926 14.4917 20.5 13.2491 20.5H6.81072C5.56808 20.5 4.56072 19.4926 4.56072 18.25L4.54669 7.5H6.24981C6.66402 7.5 6.99981 7.16421 6.99981 6.75C6.99981 6.33579 6.66402 6 6.24981 6H4.54853C4.54678 5.80603 4.5459 5.60138 4.5459 5.38558C4.5459 4.79049 5.36656 4.10449 6.39997 4.10449C6.58959 4.10449 6.77004 4.1296 6.93714 4.17495C7.25712 4.2618 7.59616 4.12824 7.77093 3.84648ZM16.9806 9.5L16.996 16.8144C18.7352 16.2819 20 14.6636 20 12.75V10.75C20 10.0596 19.4404 9.5 18.75 9.5H16.9806Z" fill="black"/>
</svg>
