<svg width="24" height="24" viewBox="0 0 24 24" fill="none" xmlns="http://www.w3.org/2000/svg">
<path fill-rule="evenodd" clip-rule="evenodd" d="M6.41406 6.48731C6.34776 6.48731 6.28417 6.51364 6.23729 6.56053L3.53449 9.49988H6.24999C6.66421 9.49988 7 9.83566 7 10.2499C7 10.6641 6.66421 10.9999 6.24999 10.9999H4.04391L11.8231 18.9392C11.9207 19.0368 12.079 19.0368 12.1766 18.9392L19.9558 10.9999H9.75C9.33579 10.9999 9 10.6641 9 10.2499C9 9.83566 9.33579 9.49988 9.75 9.49988H20.4652L17.7624 6.56053C17.7155 6.51364 17.6519 6.48731 17.5856 6.48731H6.41406ZM5.17663 5.49987C5.50482 5.17168 5.94993 4.9873 6.41406 4.9873H17.5856C18.0498 4.9873 18.4949 5.17168 18.8231 5.49987L21.8231 8.76244C22.5065 9.44586 22.5065 10.5539 21.8231 11.2373L13.2373 19.9999C12.5539 20.6833 11.4458 20.6833 10.7624 19.9999L2.17663 11.2373C1.49321 10.5539 1.49321 9.44585 2.17663 8.76244L5.17663 5.49987Z" fill="black"/>
</svg>
