<svg width="24" height="24" viewBox="0 0 24 24" fill="none" xmlns="http://www.w3.org/2000/svg">
<path fill-rule="evenodd" clip-rule="evenodd" d="M5 5.5H19C19.2761 5.5 19.5 5.72386 19.5 6V13H15.0721C14.7014 13 14.3942 13.2355 14.2743 13.5526C14.0889 14.0431 13.401 15 12 15C10.599 15 9.91112 14.0431 9.72568 13.5526C9.60582 13.2355 9.29855 13 8.92792 13H4.5V6C4.5 5.72386 4.72386 5.5 5 5.5ZM4.5 14.5V18C4.5 18.2761 4.72386 18.5 5 18.5H19C19.2761 18.5 19.5 18.2761 19.5 18V14.5H15.4815C14.9934 15.3757 13.8896 16.5 12 16.5C10.1104 16.5 9.00656 15.3757 8.51847 14.5H4.5ZM3 6C3 4.89543 3.89543 4 5 4H19C20.1046 4 21 4.89543 21 6V18C21 19.1046 20.1046 20 19 20H5C3.89543 20 3 19.1046 3 18V6ZM18 8.5H6V7H18V8.5ZM6 11.5H18V10H6V11.5Z" fill="black"/>
</svg>
