<svg width="24" height="24" viewBox="0 0 24 24" fill="none" xmlns="http://www.w3.org/2000/svg">
<path fill-rule="evenodd" clip-rule="evenodd" d="M14.5192 6.02854C14.3222 5.53589 14.685 5 15.2156 5H18.7845C19.3151 5 19.6779 5.53589 19.4809 6.02854L18.4923 8.5H15.5078L14.5192 6.02854ZM14.25 9.39432L13.1265 6.58563C12.5353 5.10769 13.6238 3.5 15.2156 3.5H18.7845C20.3763 3.5 21.4647 5.10768 20.8736 6.58563L19.75 9.39456V18.25C19.75 19.7688 18.5188 21 17 21C15.4812 21 14.25 19.7688 14.25 18.25V9.39432ZM8.26987 3.688C8.83503 3.40542 9.5 3.81639 9.5 4.44827V9.07513C9.79491 9.20851 10.0001 9.50529 10.0001 9.85V15H10.15C10.6194 15 11 15.3806 11 15.85V20.15C11 20.6194 10.6194 21 10.15 21H3.85C3.38056 21 3 20.6194 3 20.15V15.85C3 15.3806 3.38056 15 3.85 15H4V9.85C4 9.50533 4.20515 9.20858 4.5 9.07518V5.84827C4.5 5.52631 4.6819 5.23199 4.96987 5.088L8.26987 3.688ZM5.50002 15H8.50007V10.5H5.50002V15ZM8 5.49999V9H6V6.24999L8 5.49999ZM4.5 19.5L4.5 16.5H9.5V19.5H4.5ZM15.75 10V18.25C15.75 18.9404 16.3096 19.5 17 19.5C17.6904 19.5 18.25 18.9404 18.25 18.25V10H15.75Z" fill="black"/>
</svg>
