<svg width="24" height="24" viewBox="0 0 24 24" fill="none" xmlns="http://www.w3.org/2000/svg">
<path fill-rule="evenodd" clip-rule="evenodd" d="M9.075 2.25C6.96251 2.25 5.25 3.96251 5.25 6.075V6.95357C5.25 9.06606 6.96251 10.7786 9.075 10.7786C11.1875 10.7786 12.9 9.06607 12.9 6.95358V6.075C12.9 3.96251 11.1875 2.25 9.075 2.25ZM6.75 6.075C6.75 4.79094 7.79094 3.75 9.075 3.75C10.3591 3.75 11.4 4.79094 11.4 6.075V6.95358C11.4 8.23764 10.3591 9.27857 9.075 9.27857C7.79094 9.27857 6.75 8.23764 6.75 6.95357V6.075ZM16.704 7.23528C16.4117 7.52871 16.4126 8.00358 16.706 8.29594C16.9994 8.5883 17.4743 8.58744 17.7666 8.29401L19.0019 7.05423L20.2416 8.28939C20.535 8.58175 21.0099 8.58089 21.3022 8.28746C21.5946 7.99404 21.5937 7.51917 21.3003 7.22681L20.0606 5.99164L21.2957 4.75205C21.5881 4.45863 21.5872 3.98375 21.2938 3.69139C21.0004 3.39903 20.5255 3.3999 20.2331 3.69332L18.9981 4.93291L17.7584 3.69771C17.4649 3.40535 16.9901 3.40621 16.6977 3.69964C16.4053 3.99306 16.4062 4.46794 16.6996 4.7603L17.9393 5.9955L16.704 7.23528ZM1.25 17.3999C1.25 14.7766 3.37665 12.6499 6 12.6499H13C15.6234 12.6499 17.75 14.7766 17.75 17.3999V18.3999C17.75 19.9187 16.5188 21.1499 15 21.1499H4C2.48122 21.1499 1.25 19.9187 1.25 18.3999V17.3999ZM6 14.1499C4.20507 14.1499 2.75 15.605 2.75 17.3999V18.3999C2.75 19.0903 3.30964 19.6499 4 19.6499H15C15.6904 19.6499 16.25 19.0903 16.25 18.3999V17.3999C16.25 15.605 14.7949 14.1499 13 14.1499H6Z" fill="black"/>
</svg>
