<svg width="24" height="24" viewBox="0 0 24 24" fill="none" xmlns="http://www.w3.org/2000/svg">
<path fill-rule="evenodd" clip-rule="evenodd" d="M12 2C12.4142 2 12.75 2.33579 12.75 2.75V4.75C12.75 5.16421 12.4142 5.5 12 5.5C11.5858 5.5 11.25 5.16421 11.25 4.75V2.75C11.25 2.33579 11.5858 2 12 2ZM8.5 3.75C8.5 3.33579 8.16421 3 7.75 3C7.33579 3 7 3.33579 7 3.75V5.75C7 6.16421 7.33579 6.5 7.75 6.5C8.16421 6.5 8.5 6.16421 8.5 5.75V3.75ZM17 3.75C17 3.33579 16.6642 3 16.25 3C15.8358 3 15.5 3.33579 15.5 3.75V5.75C15.5 6.16421 15.8358 6.5 16.25 6.5C16.6642 6.5 17 6.16421 17 5.75V3.75ZM11 14V11.5H13C13.6904 11.5 14.25 12.0596 14.25 12.75C14.25 13.4404 13.6904 14 13 14H11ZM13 15.5C14.5188 15.5 15.75 14.2688 15.75 12.75C15.75 11.2312 14.5188 10 13 10H10.35C9.88056 10 9.5 10.3806 9.5 10.85V14H9.25C8.83579 14 8.5 14.3358 8.5 14.75C8.5 15.1642 8.83579 15.5 9.25 15.5H9.5V16.25H9.25C8.83579 16.25 8.5 16.5858 8.5 17C8.5 17.4142 8.83579 17.75 9.25 17.75H9.5V18.3438C9.5 18.758 9.83579 19.0938 10.25 19.0938C10.6642 19.0938 11 18.758 11 18.3438V17.75H12.25C12.6642 17.75 13 17.4142 13 17C13 16.5858 12.6642 16.25 12.25 16.25H11V15.5H13ZM18 14.5C18 17.8137 15.3137 20.5 12 20.5C8.68629 20.5 6 17.8137 6 14.5C6 11.1863 8.68629 8.5 12 8.5C15.3137 8.5 18 11.1863 18 14.5ZM19.5 14.5C19.5 18.6421 16.1421 22 12 22C7.85786 22 4.5 18.6421 4.5 14.5C4.5 10.3579 7.85786 7 12 7C16.1421 7 19.5 10.3579 19.5 14.5Z" fill="black"/>
</svg>
