<svg width="24" height="24" viewBox="0 0 24 24" fill="none" xmlns="http://www.w3.org/2000/svg">
<path fill-rule="evenodd" clip-rule="evenodd" d="M6.86037 4.18809C7.49354 3.7404 8.24991 3.5 9.02536 3.5H14.9756C15.751 3.5 16.5074 3.7404 17.1406 4.18809L22.1489 7.72936C23.1444 8.43319 22.6464 10 21.4273 10H21.0005V21.25C21.0005 21.6642 20.6647 22 20.2505 22C19.8362 22 19.5005 21.6642 19.5005 21.25V15.5H6.75C6.33579 15.5 6 15.1642 6 14.75C6 14.3358 6.33579 14 6.75 14H19.5005V10H18.0003V12.1786C18.0003 12.6322 17.6326 13 17.1789 13C16.7252 13 16.3575 12.6322 16.3575 12.1786V10H15.0006V12.1786C15.0006 12.6322 14.6328 13 14.1792 13C13.7255 13 13.3577 12.6322 13.3577 12.1786V10H10.6433V12.1784C10.6433 12.6321 10.2756 12.9999 9.82189 12.9999C9.36823 12.9999 9.00046 12.6321 9.00046 12.1784V10H7.64332V12.1784C7.64332 12.6321 7.27555 12.9999 6.82189 12.9999C6.36823 12.9999 6.00046 12.6321 6.00046 12.1784V10H4.50046V21.25C4.50046 21.6642 4.16467 22 3.75046 22C3.33625 22 3.00046 21.6642 3.00046 21.25V10H2.57366C1.35455 10 0.856576 8.43319 1.852 7.72936L6.86037 4.18809ZM20.6407 8.5H3.36026L7.72637 5.41285C8.10627 5.14424 8.56009 5 9.02536 5H14.9756C15.4408 5 15.8947 5.14424 16.2746 5.41285L20.6407 8.5Z" fill="black"/>
<path d="M10.5 18.25C10.5 17.2835 9.7165 16.5 8.75 16.5C7.7835 16.5 7 17.2835 7 18.25V21.25C7 21.6642 7.33579 22 7.75 22H9.75C10.1642 22 10.5 21.6642 10.5 21.25V18.25Z" fill="black"/>
<path d="M15.25 16.5C16.2165 16.5 17 17.2835 17 18.25V21.25C17 21.6642 16.6642 22 16.25 22H14.25C13.8358 22 13.5 21.6642 13.5 21.25V18.25C13.5 17.2835 14.2835 16.5 15.25 16.5Z" fill="black"/>
</svg>
