<svg width="24" height="24" viewBox="0 0 24 24" fill="none" xmlns="http://www.w3.org/2000/svg">
<path fill-rule="evenodd" clip-rule="evenodd" d="M6.15 6.8C7.06127 6.8 7.8 6.06127 7.8 5.15C7.8 4.23873 7.06127 3.5 6.15 3.5C5.23873 3.5 4.5 4.23873 4.5 5.15C4.5 6.06127 5.23873 6.8 6.15 6.8ZM6.15 8.3C7.8897 8.3 9.3 6.8897 9.3 5.15C9.3 3.4103 7.8897 2 6.15 2C4.4103 2 3 3.4103 3 5.15C3 6.8897 4.4103 8.3 6.15 8.3ZM11.25 4.69998C11.25 4.28576 11.5858 3.94998 12 3.94998H16.275C18.8017 3.94998 20.85 5.99828 20.85 8.52498C20.85 11.0517 18.8017 13.1 16.275 13.1H7.72501C6.02673 13.1 4.65001 14.4767 4.65001 16.175C4.65001 17.8733 6.02673 19.25 7.72501 19.25H12C12.4142 19.25 12.75 19.5858 12.75 20C12.75 20.4142 12.4142 20.75 12 20.75H7.72501C5.19831 20.75 3.15001 18.7017 3.15001 16.175C3.15001 13.6483 5.1983 11.6 7.72501 11.6H16.275C17.9733 11.6 19.35 10.2233 19.35 8.52498C19.35 6.8267 17.9733 5.44998 16.275 5.44998H12C11.5858 5.44998 11.25 5.11419 11.25 4.69998ZM21.5303 17.8304C21.8232 17.5375 21.8232 17.0626 21.5303 16.7697C21.2374 16.4768 20.7626 16.4768 20.4697 16.7697L17.4 19.8394L16.1303 18.5697C15.8374 18.2768 15.3626 18.2768 15.0697 18.5697C14.7768 18.8626 14.7768 19.3375 15.0697 19.6304L16.799 21.3596C17.1309 21.6916 17.6691 21.6916 18.001 21.3596L21.5303 17.8304Z" fill="black"/>
</svg>
