<svg width="24" height="24" viewBox="0 0 24 24" fill="none" xmlns="http://www.w3.org/2000/svg">
<path fill-rule="evenodd" clip-rule="evenodd" d="M9.95367 4.09723C10.5356 3.69696 11.0753 3.5 12 3.5C12.9247 3.5 13.4644 3.69696 14.0463 4.09723C14.6483 4.51126 15 5.13013 15 5.83824V13.25C15 15.0449 13.7949 16.5 12 16.5C10.2051 16.5 9 15.0449 9 13.25V5.83824C9 5.13013 9.35168 4.51126 9.95367 4.09723ZM13.5 5.83824V10.5H10.5V5.83824C10.5 5.66918 10.5699 5.49394 10.8037 5.33314L10.8236 5.3194C11.0689 5.15034 11.2871 5 12 5C12.7129 5 12.9311 5.15036 13.1764 5.31943L13.1963 5.33314C13.4301 5.49394 13.5 5.66918 13.5 5.83824ZM10.5 12V13.25C10.5 14.2165 11.0335 15 12 15C12.9665 15 13.5 14.2165 13.5 13.25V12H10.5Z" fill="black"/>
<path d="M19.9688 11.1795C19.9688 9.58726 19.4382 8.08169 18.5203 6.83918C18.2742 6.50602 18.3447 6.03642 18.6779 5.7903C19.0111 5.54418 19.4807 5.61474 19.7268 5.9479C20.8248 7.43418 21.4688 9.24911 21.4688 11.1795C21.4688 13.1098 20.8247 14.9245 19.7268 16.4108C19.4807 16.7439 19.0111 16.8145 18.6779 16.5684C18.3447 16.3223 18.2742 15.8526 18.5203 15.5195C19.4382 14.277 19.9688 12.7716 19.9688 11.1795Z" fill="black"/>
<path d="M5.4797 15.5202C4.56182 14.2777 4.03125 12.7721 4.03125 11.1799C4.03125 9.58774 4.5618 8.08241 5.4797 6.83989C5.72582 6.50673 5.65525 6.03712 5.32209 5.79101C4.98893 5.54489 4.51933 5.61545 4.27321 5.94861C3.17526 7.43487 2.53125 9.24954 2.53125 11.1799C2.53125 13.1103 3.17524 14.9252 4.27321 16.4115C4.51933 16.7446 4.98893 16.8152 5.32209 16.5691C5.65525 16.323 5.72582 15.8534 5.4797 15.5202Z" fill="black"/>
<path d="M7.59674 13.1344C7.17236 12.5455 6.94067 11.8794 6.94067 11.18C6.94067 10.4806 7.17236 9.81448 7.59674 9.22557C7.83891 8.88952 7.7628 8.42079 7.42676 8.17862C7.09071 7.93646 6.62197 8.01256 6.37981 8.34861C5.78965 9.16756 5.44067 10.136 5.44067 11.18C5.44067 12.224 5.78965 13.1924 6.37981 14.0114C6.62197 14.3474 7.09071 14.4235 7.42676 14.1813C7.7628 13.9392 7.83891 13.4704 7.59674 13.1344Z" fill="black"/>
<path d="M16.391 9.22491C16.8154 9.81382 17.0471 10.4799 17.0471 11.1793C17.0471 11.8787 16.8154 12.5448 16.391 13.1337C16.1489 13.4698 16.225 13.9385 16.561 14.1807C16.8971 14.4229 17.3658 14.3468 17.608 14.0107C18.1981 13.1918 18.5471 12.2233 18.5471 11.1793C18.5471 10.1353 18.1981 9.1669 17.608 8.34795C17.3658 8.0119 16.8971 7.9358 16.561 8.17796C16.225 8.42013 16.1489 8.88887 16.391 9.22491Z" fill="black"/>
<path d="M12.75 18.75C12.75 18.3358 12.4142 18 12 18C11.5858 18 11.25 18.3358 11.25 18.75V20.5H8.75C8.33579 20.5 8 20.8358 8 21.25C8 21.6642 8.33579 22 8.75 22H15.25C15.6642 22 16 21.6642 16 21.25C16 20.8358 15.6642 20.5 15.25 20.5H12.75V18.75Z" fill="black"/>
</svg>
