<svg width="24" height="24" viewBox="0 0 24 24" fill="none" xmlns="http://www.w3.org/2000/svg">
<path fill-rule="evenodd" clip-rule="evenodd" d="M5.20466 6.46113C5.3465 6.07196 5.146 5.64149 4.75683 5.49965C4.36766 5.35781 3.93719 5.55831 3.79534 5.94747C3.76579 6.02856 3.72849 6.11675 3.68734 6.21408C3.50611 6.64261 3.25 7.24824 3.25 8.20428C3.25 9.66288 3.78197 10.6948 4.58333 11.6145V13.7164C4.58333 15.9139 5.77145 17.8331 7.65152 18.8196L8.46696 19.2372C10.6853 20.3734 13.3147 20.3734 15.533 19.2372L16.3419 18.823L16.3485 18.8195C18.2285 17.8331 19.4167 15.9139 19.4167 13.7164V11.6145C20.218 10.6948 20.75 9.66288 20.75 8.20428C20.75 7.24825 20.4937 6.64228 20.3125 6.21375L20.3125 6.21374C20.2714 6.11654 20.2342 6.02846 20.2047 5.94747C20.0628 5.55831 19.6323 5.35781 19.2432 5.49965C18.854 5.64149 18.6535 6.07196 18.7953 6.46112C18.8514 6.61485 18.9064 6.7473 18.9578 6.8708C19.1229 7.26798 19.25 7.57361 19.25 8.20428C19.25 8.7961 19.1338 9.28176 18.9099 9.72829L18.8708 9.79601C18.8655 9.8037 18.8568 9.81632 18.8447 9.83317C18.8206 9.86694 18.7837 9.91726 18.7361 9.97856C18.6397 10.1024 18.5041 10.2648 18.3446 10.4243C18.1827 10.5862 18.0123 10.7288 17.8484 10.8271C17.6805 10.9279 17.5655 10.9546 17.4999 10.9546C17.0857 10.9546 16.7499 11.2904 16.7499 11.7046C16.7499 12.1188 17.0857 12.4546 17.4999 12.4546C17.6448 12.4546 17.7841 12.4367 17.9167 12.4062V13.7164C17.9167 15.3525 17.0414 16.7606 15.6547 17.4896L14.8492 17.9022C13.0602 18.8185 10.9398 18.8185 9.15078 17.9022L8.34532 17.4896C6.95859 16.7606 6.08333 15.3525 6.08333 13.7164V12.4063C6.21589 12.4369 6.35523 12.4547 6.50006 12.4547C6.91427 12.4547 7.25006 12.1189 7.25006 11.7047C7.25006 11.2905 6.91427 10.9547 6.50006 10.9547C6.43447 10.9547 6.31947 10.928 6.15156 10.8272C5.98765 10.7289 5.81729 10.5863 5.65539 10.4244C5.49587 10.2649 5.36026 10.1025 5.26395 9.97866C5.21627 9.91737 5.17941 9.86704 5.15528 9.83327C5.14324 9.81642 5.13446 9.8038 5.12916 9.79611L5.09051 9.72903C4.86629 9.2823 4.75 8.79643 4.75 8.20428C4.75 7.57361 4.87707 7.26798 5.04221 6.87079C5.09357 6.74727 5.14861 6.61489 5.20466 6.46113ZM9.61424 8.60675C9.96943 8.39364 10.4301 8.50881 10.6432 8.864L10.9733 9.4141C11.0569 9.4698 11.1554 9.49987 11.2567 9.49987H12.7435C12.8448 9.49987 12.9433 9.4698 13.0269 9.4141L13.357 8.864C13.5701 8.50881 14.0308 8.39364 14.386 8.60675C14.7412 8.81986 14.8563 9.28056 14.6432 9.63574L14.2762 10.2474C14.2111 10.3559 14.1282 10.4527 14.031 10.5337C13.6696 10.8349 13.214 10.9999 12.7435 10.9999H11.2567C10.7862 10.9999 10.3306 10.8349 9.96921 10.5337C9.87201 10.4527 9.78912 10.3559 9.72402 10.2474L9.35699 9.63574C9.14388 9.28056 9.25906 8.81986 9.61424 8.60675ZM9 14.2498C9 13.8355 9.33579 13.4998 9.75 13.4998H14.25C14.6642 13.4998 15 13.8355 15 14.2498C15 14.664 14.6642 14.9998 14.25 14.9998H9.75C9.33579 14.9998 9 14.664 9 14.2498Z" fill="black"/>
</svg>
