<svg width="24" height="24" viewBox="0 0 24 24" fill="none" xmlns="http://www.w3.org/2000/svg">
<path fill-rule="evenodd" clip-rule="evenodd" d="M7.37793 2.05029C7.79214 2.05029 8.12793 2.38608 8.12793 2.80029V4.10596H15.9717V2.80029C15.9717 2.38608 16.3075 2.05029 16.7217 2.05029C17.1359 2.05029 17.4717 2.38608 17.4717 2.80029V4.10596H20.2998C21.2663 4.10596 22.0498 4.88946 22.0498 5.85596V9.43408V18.2448C22.0498 19.2113 21.2663 19.9948 20.2998 19.9948H3.79981C2.83331 19.9948 2.0498 19.2113 2.0498 18.2448V9.43408V5.85596C2.0498 4.88946 2.83331 4.10596 3.7998 4.10596H6.62793V2.80029C6.62793 2.38608 6.96372 2.05029 7.37793 2.05029ZM20.5498 5.85596V8.68408H3.5498V5.85596C3.5498 5.71789 3.66173 5.60596 3.7998 5.60596H6.62793V6.40029C6.62793 6.8145 6.96372 7.15029 7.37793 7.15029C7.79214 7.15029 8.12793 6.8145 8.12793 6.40029V5.60596H15.9717V6.40029C15.9717 6.8145 16.3075 7.15029 16.7217 7.15029C17.1359 7.15029 17.4717 6.8145 17.4717 6.40029V5.60596H20.2998C20.4379 5.60596 20.5498 5.71789 20.5498 5.85596ZM20.5498 10.1841H3.5498V18.2448C3.5498 18.3829 3.66173 18.4948 3.79981 18.4948H20.2998C20.4379 18.4948 20.5498 18.3829 20.5498 18.2448V10.1841ZM17.155 12.7338C17.4497 12.4427 17.4526 11.9679 17.1615 11.6732C16.8705 11.3785 16.3956 11.3755 16.1009 11.6666L12.4197 15.3023L10.2367 13.5056C9.90034 13.2288 9.40916 13.251 9.09923 13.5571L6.8509 15.7777C6.5562 16.0688 6.55325 16.5436 6.84432 16.8383C7.13538 17.133 7.61025 17.136 7.90496 16.8449L9.73614 15.0363L11.9192 16.8331C12.2555 17.1099 12.7467 17.0876 13.0566 16.7815L17.155 12.7338Z" fill="black"/>
</svg>
