<svg width="24" height="24" viewBox="0 0 24 24" fill="none" xmlns="http://www.w3.org/2000/svg">
<path fill-rule="evenodd" clip-rule="evenodd" d="M8.68628 5.05005C8.27207 5.05005 7.93628 5.38584 7.93628 5.80005V9.80005C7.93628 10.2143 8.27207 10.55 8.68628 10.55H21.2999C21.7141 10.55 22.0499 10.2143 22.0499 9.80005V5.80005C22.0499 5.38584 21.7141 5.05005 21.2999 5.05005H8.68628ZM9.43628 9.05005V6.55005H20.5499V9.05005H9.43628ZM8.68628 12.55C8.27207 12.55 7.93628 12.8858 7.93628 13.3V17.3C7.93628 17.7142 8.27207 18.05 8.68628 18.05H21.2999C21.7141 18.05 22.0499 17.7142 22.0499 17.3V13.3C22.0499 12.8858 21.7141 12.55 21.2999 12.55H8.68628ZM9.43628 16.55V14.05H20.5499V16.55H9.43628ZM4.85361 9.65015C4.17222 10.7059 4.03015 11.6572 4.12274 12.4391C4.25475 13.5538 4.87862 14.4461 5.40036 14.9099C5.70995 15.1851 5.73784 15.6591 5.46265 15.9687C5.18746 16.2783 4.71341 16.3062 4.40382 16.031C3.6642 15.3736 2.81648 14.1636 2.63315 12.6155C2.49983 11.4897 2.72467 10.2426 3.51345 8.96417L2.92322 9.06254C2.51464 9.13064 2.12822 8.85462 2.06013 8.44604C1.99203 8.03747 2.26804 7.65104 2.67662 7.58295L5.10071 7.17893C5.1175 7.17613 5.13427 7.17385 5.15098 7.17206C5.39519 7.11493 5.66248 7.18156 5.85288 7.37195C5.97995 7.49902 6.05189 7.66035 6.0687 7.8262C6.07259 7.84313 6.07599 7.86027 6.07888 7.87763L6.4829 10.3017C6.55099 10.7103 6.27498 11.0967 5.8664 11.1648C5.45782 11.2329 5.0714 10.9569 5.00331 10.5483L4.85361 9.65015Z" fill="black"/>
</svg>
