<svg width="24" height="24" viewBox="0 0 24 24" fill="none" xmlns="http://www.w3.org/2000/svg">
<path fill-rule="evenodd" clip-rule="evenodd" d="M5.75 5.25C5.75 4.60564 6.32425 4 7 4C7.67575 4 8.25 4.60564 8.25 5.25C8.25 5.66421 8.58579 6 9 6C9.41421 6 9.75 5.66421 9.75 5.25C9.75 3.80673 8.53339 2.5 7 2.5C5.46661 2.5 4.25 3.80673 4.25 5.25C4.25 6.45022 5.08922 7.55166 6.25 7.89222V9.12803C5.37611 9.43691 4.75 10.2703 4.75 11.25C4.75 12.1568 5.28646 12.9383 6.05933 13.2945C5.72494 13.7992 5.33877 14.4397 5.01048 15.1281C4.60559 15.9772 4.25 16.9778 4.25 17.9167C4.25 18.8782 4.55442 19.6615 5.08887 20.2078C5.61811 20.7488 6.31782 21 7 21C7.68218 21 8.38189 20.7488 8.91113 20.2078C9.44558 19.6615 9.75 18.8782 9.75 17.9167C9.75 16.9778 9.39441 15.9772 8.98952 15.1281C8.66123 14.4397 8.27506 13.7992 7.94067 13.2945C8.71354 12.9383 9.25 12.1568 9.25 11.25C9.25 10.2703 8.62389 9.43691 7.75 9.12803V7.35C7.75 6.87083 7.3674 6.52087 6.93931 6.49841C6.28844 6.46427 5.75 5.87212 5.75 5.25ZM5.75 17.9167C5.75 17.314 5.9911 16.5566 6.36441 15.7738C6.56052 15.3626 6.78254 14.9659 7 14.6098C7.21746 14.9659 7.43948 15.3626 7.63559 15.7738C8.0089 16.5566 8.25 17.314 8.25 17.9167C8.25 18.5551 8.05442 18.9385 7.83887 19.1589C7.61811 19.3845 7.31782 19.5 7 19.5C6.68218 19.5 6.38189 19.3845 6.16113 19.1589C5.94558 18.9385 5.75 18.5551 5.75 17.9167ZM7 10.5C6.58579 10.5 6.25 10.8358 6.25 11.25C6.25 11.6642 6.58579 12 7 12C7.41421 12 7.75 11.6642 7.75 11.25C7.75 10.8358 7.41421 10.5 7 10.5Z" fill="black"/>
<path fill-rule="evenodd" clip-rule="evenodd" d="M17.75 7.89222V9.12803C18.6239 9.43691 19.25 10.2703 19.25 11.25C19.25 12.1568 18.7135 12.9383 17.9407 13.2945C18.2751 13.7992 18.6612 14.4397 18.9895 15.1281C19.3944 15.9772 19.75 16.9778 19.75 17.9167C19.75 18.8782 19.4456 19.6615 18.9111 20.2078C18.3819 20.7488 17.6822 21 17 21C16.3178 21 15.6181 20.7488 15.0889 20.2078C14.5544 19.6615 14.25 18.8782 14.25 17.9167C14.25 16.9778 14.6056 15.9772 15.0105 15.1281C15.3388 14.4397 15.7249 13.7992 16.0593 13.2945C15.2865 12.9383 14.75 12.1568 14.75 11.25C14.75 10.2703 15.3761 9.43691 16.25 9.12803V7.35C16.25 6.87083 16.6326 6.52087 17.0607 6.49841C17.7116 6.46427 18.25 5.87212 18.25 5.25C18.25 4.60564 17.6758 4 17 4C16.3242 4 15.75 4.60564 15.75 5.25C15.75 5.66421 15.4142 6 15 6C14.5858 6 14.25 5.66421 14.25 5.25C14.25 3.80673 15.4666 2.5 17 2.5C18.5334 2.5 19.75 3.80673 19.75 5.25C19.75 6.45022 18.9108 7.55166 17.75 7.89222ZM16.25 11.25C16.25 10.8358 16.5858 10.5 17 10.5C17.4142 10.5 17.75 10.8358 17.75 11.25C17.75 11.6642 17.4142 12 17 12C16.5858 12 16.25 11.6642 16.25 11.25ZM18.25 17.9167C18.25 17.314 18.0089 16.5566 17.6356 15.7738C17.4395 15.3626 17.2175 14.9659 17 14.6098C16.7825 14.9659 16.5605 15.3626 16.3644 15.7738C15.9911 16.5566 15.75 17.314 15.75 17.9167C15.75 18.5551 15.9456 18.9385 16.1611 19.1589C16.3819 19.3845 16.6822 19.5 17 19.5C17.3178 19.5 17.6181 19.3845 17.8389 19.1589C18.0544 18.9385 18.25 18.5551 18.25 17.9167Z" fill="black"/>
</svg>
