<svg width="24" height="24" viewBox="0 0 24 24" fill="none" xmlns="http://www.w3.org/2000/svg">
<path fill-rule="evenodd" clip-rule="evenodd" d="M5.34824 2.48152C5.33222 2.4805 5.31607 2.47998 5.2998 2.47998C4.88559 2.47998 4.5498 2.81577 4.5498 3.22998V3.32998V14.13V20.23C4.5498 20.6442 4.88559 20.98 5.2998 20.98C5.71402 20.98 6.0498 20.6442 6.0498 20.23V14.98H9.92285C10.3202 14.98 10.7058 15.1152 11.0161 15.3635L12.1465 16.2678C12.7228 16.7288 13.4388 16.98 14.1768 16.98H19.1998C19.6692 16.98 20.0498 16.5994 20.0498 16.13V5.32998C20.0498 4.86054 19.6693 4.47998 19.1998 4.47998H14.1768C13.7794 4.47998 13.3938 4.34474 13.0835 4.0965L11.9531 3.19216C11.3768 2.73114 10.6608 2.47998 9.92285 2.47998H5.3998C5.38249 2.47998 5.36529 2.4805 5.34824 2.48152ZM6.0498 3.97998V13.48H9.92285C10.6608 13.48 11.3768 13.7311 11.9531 14.1922L13.0835 15.0965C13.3938 15.3447 13.7794 15.48 14.1768 15.48H18.5498V5.97998H14.1768C13.4388 5.97998 12.7228 5.72882 12.1465 5.2678L11.0161 4.36346C10.7058 4.11522 10.3202 3.97998 9.92285 3.97998H6.0498Z" fill="black"/>
</svg>
