<svg width="24" height="24" viewBox="0 0 24 24" fill="none" xmlns="http://www.w3.org/2000/svg">
<path fill-rule="evenodd" clip-rule="evenodd" d="M4.5 9.47282V4.5H9.47282V9.47282H4.5ZM3 4C3 3.44771 3.44772 3 4 3H9.97282C10.5251 3 10.9728 3.44772 10.9728 4V9.97282C10.9728 10.5251 10.5251 10.9728 9.97282 10.9728H4C3.44771 10.9728 3 10.5251 3 9.97282V4ZM4.5 19.5V14.5272H9.47282V19.5H4.5ZM3 14.0272C3 13.4749 3.44772 13.0272 4 13.0272H9.97282C10.5251 13.0272 10.9728 13.4749 10.9728 14.0272V20C10.9728 20.5523 10.5251 21 9.97282 21H4C3.44771 21 3 20.5523 3 20V14.0272ZM14.5483 14.5272V19.5H19.5211V14.5272H14.5483ZM14.0483 13.0272C13.496 13.0272 13.0483 13.4749 13.0483 14.0272V20C13.0483 20.5523 13.496 21 14.0483 21H20.0211C20.5734 21 21.0211 20.5523 21.0211 20V14.0272C21.0211 13.4749 20.5734 13.0272 20.0211 13.0272H14.0483ZM14.5483 9.47282V4.5H19.5211V9.47282H14.5483ZM13.0483 4C13.0483 3.44771 13.496 3 14.0483 3H20.0211C20.5734 3 21.0211 3.44772 21.0211 4V9.97282C21.0211 10.5251 20.5734 10.9728 20.0211 10.9728H14.0483C13.496 10.9728 13.0483 10.5251 13.0483 9.97282V4Z" fill="black"/>
</svg>
