<svg width="24" height="24" viewBox="0 0 24 24" fill="none" xmlns="http://www.w3.org/2000/svg">
<path d="M11.2543 13.7963C10.5384 14.2128 9.62035 13.9701 9.20383 13.2541C8.78731 12.5382 9.03004 11.6201 9.74598 11.2036C10.4619 10.7871 11.38 11.0298 11.7965 11.7458C12.213 12.4617 11.9703 13.3797 11.2543 13.7963Z" fill="black"/>
<path fill-rule="evenodd" clip-rule="evenodd" d="M4.65154 20.4999L4.65049 20.4999C3.77151 20.5003 3.04531 20.0006 2.70688 19.2741C2.38853 18.5908 2.45067 17.8103 2.80358 17.176L8.82276 6.35757C8.70883 5.80121 8.78344 5.20264 9.07991 4.6625C9.74698 3.44714 11.2688 3.01732 12.473 3.67318C15.2252 5.17216 17.6041 7.43323 19.2506 10.35C20.7995 13.0939 21.512 16.0847 21.4652 19.0235C21.4521 19.8425 20.7844 20.4995 19.9653 20.4995L4.65154 20.4999ZM16.4586 18.9999C16.4586 18.9904 16.4587 18.9808 16.4588 18.9713C16.4982 16.884 15.9969 14.7573 14.8892 12.7949C13.7182 10.7205 12.0329 9.11931 10.079 8.05512C9.95256 7.98627 9.83433 7.908 9.72472 7.82164L6.27811 14.0163C6.8678 13.9282 7.47837 14.199 7.79645 14.7458C8.21298 15.4617 7.97025 16.3797 7.2543 16.7963C6.53836 17.2128 5.62031 16.9701 5.20379 16.2541C5.17317 16.2015 5.14611 16.1478 5.12255 16.0932L4.11435 17.9053C3.83567 18.4062 4.08708 19.0006 4.64985 18.9999H10.7741C10.2232 18.0462 10.5474 16.8258 11.5002 16.2715C12.4548 15.7161 13.6788 16.0398 14.2342 16.9944C14.6075 17.6361 14.5836 18.3997 14.2378 18.9999H16.4586ZM19.9653 18.9995C19.968 18.8344 19.968 18.6692 19.9653 18.5038C19.96 18.1693 19.9439 17.8344 19.9168 17.4995C19.7398 15.3126 19.0956 13.1268 17.9444 11.0874C16.4405 8.42328 14.2693 6.35958 11.7555 4.99046C11.2689 4.72541 10.6597 4.90171 10.3949 5.38424C10.13 5.86676 10.3098 6.47279 10.7964 6.73784C11.0735 6.88873 11.3458 7.04929 11.6127 7.21934C13.458 8.39492 15.0478 10.0246 16.1954 12.0575C17.3479 14.0992 17.9174 16.3049 17.9586 18.4879C17.9618 18.6586 17.9618 18.8292 17.9586 18.9995L19.9653 18.9995Z" fill="black"/>
</svg>
