<svg width="24" height="24" viewBox="0 0 24 24" fill="none" xmlns="http://www.w3.org/2000/svg">
<path fill-rule="evenodd" clip-rule="evenodd" d="M3.5 16.5H20.5V5.5H3.5V16.5ZM2 5V17C2 17.5523 2.44772 18 3 18H21C21.5523 18 22 17.5523 22 17V5C22 4.44772 21.5523 4 21 4H3C2.44772 4 2 4.44772 2 5ZM11 11V8.5H12.75C13.4404 8.5 14 9.05964 14 9.75C14 10.4404 13.4404 11 12.75 11H11ZM12.75 12C13.9926 12 15 10.9926 15 9.75C15 8.50736 13.9926 7.5 12.75 7.5H10.6C10.2686 7.5 10 7.76863 10 8.1V11H9.5C9.22386 11 9 11.2239 9 11.5C9 11.7761 9.22386 12 9.5 12H10V12.4998H9.5C9.22386 12.4998 9 12.7237 9 12.9998C9 13.276 9.22386 13.4998 9.5 13.4998H10V14C10 14.2761 10.2239 14.5 10.5 14.5C10.7761 14.5 11 14.2761 11 14V13.4998H12C12.2761 13.4998 12.5 13.276 12.5 12.9998C12.5 12.7237 12.2761 12.4998 12 12.4998H11V12H12.75ZM6.25 9.5C6.66421 9.5 7 9.83579 7 10.25V11.75C7 12.1642 6.66421 12.5 6.25 12.5C5.83579 12.5 5.5 12.1642 5.5 11.75V10.25C5.5 9.83579 5.83579 9.5 6.25 9.5ZM18.5 10.25C18.5 9.83579 18.1642 9.5 17.75 9.5C17.3358 9.5 17 9.83579 17 10.25V11.75C17 12.1642 17.3358 12.5 17.75 12.5C18.1642 12.5 18.5 12.1642 18.5 11.75V10.25ZM2.75 19.5C2.33579 19.5 2 19.8358 2 20.25C2 20.6642 2.33579 21 2.75 21H21.25C21.6642 21 22 20.6642 22 20.25C22 19.8358 21.6642 19.5 21.25 19.5H2.75Z" fill="black"/>
</svg>
