<svg width="24" height="24" viewBox="0 0 24 24" fill="none" xmlns="http://www.w3.org/2000/svg">
<path fill-rule="evenodd" clip-rule="evenodd" d="M14.5 7.50011V10.5C14.5 12.0656 13.4426 13 12 13C10.5574 13 9.5 12.0656 9.5 10.5V7.5C9.5 5.93439 10.5574 5 12 5C13.4425 5 14.5 5.93445 14.5 7.50011ZM8 7.5C8 5.0454 9.79086 3.5 12 3.5C14.2091 3.5 16 5.04551 16 7.50011V10.5C16 12.9546 14.2091 14.5 12 14.5C9.79086 14.5 8 12.9546 8 10.5V7.5ZM5.74964 12.5001C6.14006 12.3617 6.56873 12.566 6.70711 12.9564C7.39682 14.9023 9.44765 16.457 12.0003 16.457C14.553 16.457 16.6036 14.9023 17.2933 12.9564C17.4317 12.566 17.8604 12.3617 18.2508 12.5001C18.6412 12.6385 18.8455 13.0671 18.7071 13.4576C17.8683 15.8242 15.5698 17.6435 12.75 17.9204V20.25C12.75 20.6642 12.4142 21 12 21C11.5858 21 11.25 20.6642 11.25 20.25V17.9203C8.43052 17.6433 6.13208 15.824 5.2933 13.4576C5.15492 13.0671 5.35923 12.6385 5.74964 12.5001Z" fill="black"/>
</svg>
