<svg width="24" height="24" viewBox="0 0 24 24" fill="none" xmlns="http://www.w3.org/2000/svg">
<path d="M15.5303 8.96973C15.8232 9.26257 15.8232 9.73743 15.5303 10.0303L11.6011 13.9596C11.269 14.2915 10.731 14.2916 10.3989 13.9596L8.46973 12.0303C8.17676 11.7374 8.17676 11.2626 8.46973 10.9697C8.76245 10.6768 9.23755 10.6768 9.53027 10.9697L11 12.4393L14.4697 8.96973C14.7625 8.67676 15.2375 8.67676 15.5303 8.96973Z" fill="black"/>
<path fill-rule="evenodd" clip-rule="evenodd" d="M16.3999 19.625C18.1785 18.6194 19.4326 16.8912 19.8372 14.8888L19.8696 14.7285C19.9563 14.2994 20 13.8628 20 13.425V4C20 3.44775 19.5522 3 19 3H5C4.44775 3 4 3.44775 4 4V13.425C4 13.8628 4.0437 14.2994 4.13037 14.7285L4.16284 14.8888C4.56738 16.8912 5.82153 18.6194 7.6001 19.625L11.5249 21.7437C11.8215 21.9036 12.1785 21.9036 12.4751 21.7437L16.3999 19.625ZM5.63306 14.5916C5.95068 16.1631 6.93311 17.52 8.32617 18.3125L12 20.2954L15.6738 18.3125C17.0669 17.52 18.0493 16.1631 18.3669 14.5916L18.3994 14.4314C18.4663 14.1001 18.5 13.7631 18.5 13.425V4.5H5.5V13.425C5.5 13.7631 5.53369 14.1001 5.60059 14.4314L5.63306 14.5916Z" fill="black"/>
</svg>
