<svg width="24" height="24" viewBox="0 0 24 24" fill="none" xmlns="http://www.w3.org/2000/svg">
<path fill-rule="evenodd" clip-rule="evenodd" d="M12 5.56C8.58546 5.56 5.54839 8.34888 5.54839 11.93C5.54839 13.2262 5.94071 14.6797 6.8106 15.7164C7.08663 16.0454 7.0457 16.5376 6.71916 16.8157C6.39262 17.0938 5.90414 17.0525 5.62811 16.7235C4.46437 15.3366 4 13.4938 4 11.93C4 7.42267 7.79592 4 12 4C16.2008 4 20 7.37485 20 11.93C20 13.4938 19.5356 15.3366 18.3719 16.7235C18.0959 17.0525 17.6074 17.0938 17.2808 16.8157C16.9543 16.5376 16.9134 16.0454 17.1894 15.7164C18.0593 14.6797 18.4516 13.2262 18.4516 11.93C18.4516 8.30733 15.4178 5.56 12 5.56ZM11.5 8.75C11.5 8.33579 11.8358 8 12.25 8C12.8483 8 13.7651 8.14506 14.5551 8.69808C15.3884 9.28142 16 10.265 16 11.75C16 12.1642 15.6642 12.5 15.25 12.5C14.8358 12.5 14.5 12.1642 14.5 11.75C14.5 10.735 14.1116 10.2186 13.6949 9.92692C13.2349 9.60494 12.6517 9.5 12.25 9.5C11.8358 9.5 11.5 9.16421 11.5 8.75ZM3.75 18.5C3.33579 18.5 3 18.8358 3 19.25C3 19.6642 3.33579 20 3.75 20H20.25C20.6642 20 21 19.6642 21 19.25C21 18.8358 20.6642 18.5 20.25 18.5H3.75Z" fill="black"/>
</svg>
