<svg width="24" height="24" viewBox="0 0 24 24" fill="none" xmlns="http://www.w3.org/2000/svg">
<path fill-rule="evenodd" clip-rule="evenodd" d="M3.5354 11.3283C2.8635 10.643 2.86893 9.54434 3.54758 8.8657L9.23665 3.17663C9.92007 2.49321 11.0281 2.49321 11.7115 3.17663L20.123 11.5881C20.8064 12.2715 20.8064 13.3796 20.123 14.063L16.6478 17.5382H19.7798C20.194 17.5382 20.5298 17.874 20.5298 18.2882C20.5298 18.7024 20.194 19.0382 19.7798 19.0382H3.77979C3.36557 19.0382 3.02979 18.7024 3.02979 18.2882C3.02979 17.874 3.36557 17.5382 3.77979 17.5382H9.62372L3.5354 11.3283ZM14.5317 17.533L14.5369 17.5382H11.7244L4.6065 10.2782C4.51051 10.1803 4.51129 10.0233 4.60824 9.92636L10.2973 4.23729C10.3949 4.13966 10.5532 4.13965 10.6509 4.23729L19.0623 12.6488C19.16 12.7464 19.16 12.9047 19.0623 13.0023L14.5317 17.533ZM14.2281 10.4386C14.2281 10.0244 13.8924 9.68865 13.4781 9.68865C13.0639 9.68865 12.7281 10.0244 12.7281 10.4386V13.0854H11.7798C11.3656 13.0854 11.0298 13.4211 11.0298 13.8354C11.0298 14.2496 11.3656 14.5854 11.7798 14.5854H13.3781C13.8476 14.5854 14.2281 14.2048 14.2281 13.7354V10.4386Z" fill="black"/>
</svg>
