<svg width="24" height="24" viewBox="0 0 24 24" fill="none" xmlns="http://www.w3.org/2000/svg">
<path fill-rule="evenodd" clip-rule="evenodd" d="M4 5.25C4 4.00736 5.00736 3 6.25 3H9.2C9.7982 3 10.2095 3.47518 10.2614 3.97161C10.354 4.85645 11.0005 5.5 12 5.5C12.9995 5.5 13.646 4.85645 13.7386 3.97161C13.7905 3.47518 14.2018 3 14.8 3H17.75C18.9926 3 20 4.00736 20 5.25V18.75C20 19.9926 18.9926 21 17.75 21H14.8C14.2018 21 13.7905 20.5248 13.7386 20.0284C13.646 19.1435 12.9995 18.5 12 18.5C11.0005 18.5 10.354 19.1435 10.2614 20.0284C10.2095 20.5248 9.79821 21 9.2 21H6.25C5.00736 21 4 19.9926 4 18.75V5.25ZM6.25 4.5C5.83579 4.5 5.5 4.83579 5.5 5.25V13.5H6.25C6.66421 13.5 7 13.8358 7 14.25C7 14.6642 6.66421 15 6.25 15H5.5V18.75C5.5 19.1642 5.83579 19.5 6.25 19.5H8.82895C9.1413 18.0551 10.3546 17 12 17C13.6454 17 14.8587 18.0551 15.171 19.5H17.75C18.1642 19.5 18.5 19.1642 18.5 18.75V15H17.75C17.3358 15 17 14.6642 17 14.25C17 13.8358 17.3358 13.5 17.75 13.5H18.5V5.25C18.5 4.83579 18.1642 4.5 17.75 4.5H15.171C14.8587 5.94495 13.6454 7 12 7C10.3546 7 9.1413 5.94495 8.82895 4.5H6.25ZM9.25 13.5C8.83579 13.5 8.5 13.8358 8.5 14.25C8.5 14.6642 8.83579 15 9.25 15H10.5C10.9142 15 11.25 14.6642 11.25 14.25C11.25 13.8358 10.9142 13.5 10.5 13.5H9.25ZM12.75 14.25C12.75 13.8358 13.0858 13.5 13.5 13.5H14.75C15.1642 13.5 15.5 13.8358 15.5 14.25C15.5 14.6642 15.1642 15 14.75 15H13.5C13.0858 15 12.75 14.6642 12.75 14.25Z" fill="black"/>
</svg>
