<svg width="24" height="24" viewBox="0 0 24 24" fill="none" xmlns="http://www.w3.org/2000/svg">
<path fill-rule="evenodd" clip-rule="evenodd" d="M3 4.25C3 3.55964 3.55964 3 4.25 3H7.75C8.16421 3 8.5 3.33579 8.5 3.75C8.5 4.16421 8.16421 4.5 7.75 4.5H4.5V7.75C4.5 8.16421 4.16421 8.5 3.75 8.5C3.33579 8.5 3 8.16421 3 7.75V4.25ZM3 19.75C3 20.4404 3.55964 21 4.25 21H7.75C8.16421 21 8.5 20.6642 8.5 20.25C8.5 19.8358 8.16421 19.5 7.75 19.5H4.5V16.25C4.5 15.8358 4.16421 15.5 3.75 15.5C3.33579 15.5 3 15.8358 3 16.25V19.75ZM19.75 3C20.4404 3 21 3.55964 21 4.25V7.75C21 8.16421 20.6642 8.5 20.25 8.5C19.8358 8.5 19.5 8.16421 19.5 7.75V4.5H16.25C15.8358 4.5 15.5 4.16421 15.5 3.75C15.5 3.33579 15.8358 3 16.25 3H19.75ZM21 19.75C21 20.4404 20.4404 21 19.75 21H16.25C15.8358 21 15.5 20.6642 15.5 20.25C15.5 19.8358 15.8358 19.5 16.25 19.5H19.5V16.25C19.5 15.8358 19.8358 15.5 20.25 15.5C20.6642 15.5 21 15.8358 21 16.25V19.75ZM8 7C7.44772 7 7 7.44771 7 8V9.70001C7 9.86569 7.13431 10 7.3 10H10L10 14H7.3C7.13431 14 7 14.1343 7 14.3L7.00001 16C7.00002 16.5523 7.44773 17 8 17H9.69998C9.86567 17 9.99998 16.8657 9.99998 16.7L10 14H14V16.7C14 16.8657 14.1343 17 14.3 17H16C16.5523 17 17 16.5523 17 16L17 14.3C17 14.1343 16.8657 14 16.7 14H14V10H16.7C16.8657 10 17 9.86569 17 9.7V8C17 7.44772 16.5523 7 16 7H14.3C14.1343 7 14 7.13431 14 7.3V10H10L10 7.3C10 7.13431 9.86569 7 9.7 7H8Z" fill="black"/>
</svg>
