<svg width="24" height="24" viewBox="0 0 24 24" fill="none" xmlns="http://www.w3.org/2000/svg">
<path fill-rule="evenodd" clip-rule="evenodd" d="M6.5 4.5H17.5C17.7761 4.5 18 4.72386 18 5V19C18 19.2761 17.7761 19.5 17.5 19.5H6.5C6.22386 19.5 6 19.2761 6 19V5C6 4.72386 6.22386 4.5 6.5 4.5ZM4.5 5C4.5 3.89543 5.39543 3 6.5 3H17.5C18.6046 3 19.5 3.89543 19.5 5V19C19.5 20.1046 18.6046 21 17.5 21H6.5C5.39543 21 4.5 20.1046 4.5 19V5ZM12 8.75C10.7574 8.75 9.75 9.75736 9.75 11H8.25C8.25 8.92893 9.92893 7.25 12 7.25C12.5319 7.25 13.0399 7.36121 13.5003 7.56236L12.8997 8.93689C12.6252 8.81693 12.3214 8.75 12 8.75ZM14.25 11C14.25 10.3704 13.9924 9.80237 13.575 9.39314L14.625 8.322C15.3184 9.00172 15.75 9.95113 15.75 11H14.25ZM16 14V12.5H8V14H16ZM8 17H13V15.5H8V17Z" fill="black"/>
</svg>
