<svg width="24" height="24" viewBox="0 0 24 24" fill="none" xmlns="http://www.w3.org/2000/svg">
<path d="M9.375 13.5C9.09886 13.5 8.875 13.7239 8.875 14C8.875 14.2761 9.09886 14.5 9.375 14.5H10C10.2761 14.5 10.5 14.2761 10.5 14C10.5 13.7239 10.2761 13.5 10 13.5H9.375Z" fill="black"/>
<path d="M14 13.5C13.7239 13.5 13.5 13.7239 13.5 14C13.5 14.2761 13.7239 14.5 14 14.5H14.625C14.9011 14.5 15.125 14.2761 15.125 14C15.125 13.7239 14.9011 13.5 14.625 13.5H14Z" fill="black"/>
<path fill-rule="evenodd" clip-rule="evenodd" d="M17.5001 20.15V16H20.15C20.6194 16 21 15.6194 21 15.15V9.25C21 6.07436 18.1757 3.5 15.0001 3.5H14.5516C14.2771 3.5 14.0194 3.63257 13.8599 3.85595L12.0001 6.45965L10.1403 3.85595C9.98075 3.63257 9.72314 3.5 9.44864 3.5H9.0001C5.82446 3.5 3 6.07436 3 9.25V15.15C3 15.6194 3.38055 16 3.85 16H6.5001V20.15C6.5001 20.6194 6.88066 21 7.3501 21H16.6501C17.1195 21 17.5001 20.6194 17.5001 20.15ZM4.5 9.25C4.5 6.90279 6.65289 5 9.0001 5H9.11413L11.2501 7.99035V19.5H8.0001V9.75C8.0001 9.33579 7.66431 9 7.2501 9C6.83588 9 6.5001 9.33579 6.5001 9.75V14.5H4.5V9.25ZM12.7501 19.5V7.99035L14.8861 5H15.0001C17.3473 5 19.5 6.90279 19.5 9.25V14.5H17.5001V9.75C17.5001 9.33579 17.1643 9 16.7501 9C16.3359 9 16.0001 9.33579 16.0001 9.75V19.5H12.7501Z" fill="black"/>
</svg>
