<svg width="24" height="24" viewBox="0 0 24 24" fill="none" xmlns="http://www.w3.org/2000/svg">
<path fill-rule="evenodd" clip-rule="evenodd" d="M4.34211 5C3.60088 5 3 5.60088 3 6.34211C3 7.08333 3.60088 7.68421 4.34211 7.68421C5.08333 7.68421 5.68421 7.08333 5.68421 6.34211C5.68421 5.60088 5.08333 5 4.34211 5ZM4.34211 10.3684C3.60088 10.3684 3 10.9693 3 11.7105C3 12.4517 3.60088 13.0526 4.34211 13.0526C5.08333 13.0526 5.68421 12.4517 5.68421 11.7105C5.68421 10.9693 5.08333 10.3684 4.34211 10.3684ZM3 17.0789C3 16.3377 3.60088 15.7368 4.34211 15.7368C5.08333 15.7368 5.68421 16.3377 5.68421 17.0789C5.68421 17.8201 5.08333 18.421 4.34211 18.421C3.60088 18.421 3 17.8201 3 17.0789ZM8.78 5.5921C8.36579 5.5921 8.03 5.92789 8.03 6.3421C8.03 6.75632 8.36579 7.0921 8.78 7.0921H20.28C20.6942 7.0921 21.03 6.75632 21.03 6.3421C21.03 5.92789 20.6942 5.5921 20.28 5.5921H8.78ZM8.03 11.7105C8.03 11.2963 8.36579 10.9605 8.78 10.9605H20.28C20.6942 10.9605 21.03 11.2963 21.03 11.7105C21.03 12.1247 20.6942 12.4605 20.28 12.4605H8.78C8.36579 12.4605 8.03 12.1247 8.03 11.7105ZM8.78003 16.5C8.36582 16.5 8.03003 16.8358 8.03003 17.25C8.03003 17.6642 8.36582 18 8.78003 18H20.28C20.6942 18 21.03 17.6642 21.03 17.25C21.03 16.8358 20.6942 16.5 20.28 16.5H8.78003Z" fill="black"/>
</svg>
