<svg width="24" height="24" viewBox="0 0 24 24" fill="none" xmlns="http://www.w3.org/2000/svg">
<path fill-rule="evenodd" clip-rule="evenodd" d="M9.49986 5.11498C9.1453 3.51942 10.3594 2.00586 11.9939 2.00586C13.6284 2.00586 14.8425 3.51942 14.488 5.11498L14.1501 6.63549C13.9721 7.43618 13.262 8.00586 12.4417 8.00586H11.5461C10.7259 8.00586 10.0157 7.43618 9.83776 6.63549L9.49986 5.11498ZM11.9939 3.50586C11.3191 3.50586 10.8177 4.13079 10.9641 4.78958L11.302 6.31009C11.3275 6.42448 11.4289 6.50586 11.5461 6.50586H12.4417C12.5589 6.50586 12.6604 6.42448 12.6858 6.31009L13.0237 4.78958C13.1701 4.13079 12.6688 3.50586 11.9939 3.50586ZM10.8578 10.5C9.53565 12.0857 7.47442 13.4543 5.45549 13.903L4.78558 14.0519C4.61872 14.0889 4.5 14.2369 4.5 14.4079V14.5812C4.5 14.8035 4.64578 14.9994 4.85865 15.0633C7.67894 15.9093 10.3658 17.6986 11.9998 20.1479C13.6339 17.6986 16.3211 15.9093 19.1413 15.0633C19.3542 14.9994 19.5 14.8035 19.5 14.5812V14.4079C19.5 14.2369 19.3813 14.0889 19.2144 14.0519L18.5445 13.903C16.5256 13.4543 14.464 12.0857 13.1418 10.5H10.8578ZM9.80661 9.41596C10.0169 9.15305 10.3354 9 10.6721 9H13.3276C13.6643 9 13.9828 9.15305 14.1931 9.41596C15.311 10.8133 17.123 12.0505 18.8699 12.4387L19.5398 12.5876C20.393 12.7772 21 13.5339 21 14.4079V14.5812C21 15.4659 20.4197 16.2458 19.5724 16.5C17.0851 17.2462 14.6859 18.823 13.2455 20.9836L12.7798 21.6822C12.4087 22.2387 11.591 22.2387 11.2199 21.6822L10.7542 20.9836C9.31376 18.823 6.91488 17.2462 4.42763 16.5C3.58028 16.2458 3 15.4659 3 14.5812V14.4079C3 13.5339 3.60702 12.7772 4.46019 12.5876L5.13009 12.4387C6.87702 12.0505 8.6887 10.8133 9.80661 9.41596ZM12.25 14C11.8358 14 11.5 14.3358 11.5 14.75C11.5 15.1642 11.8358 15.5 12.25 15.5H14.25C14.6642 15.5 15 15.1642 15 14.75C15 14.3358 14.6642 14 14.25 14H12.25Z" fill="black"/>
</svg>
