<svg width="24" height="24" viewBox="0 0 24 24" fill="none" xmlns="http://www.w3.org/2000/svg">
<path fill-rule="evenodd" clip-rule="evenodd" d="M2 5.05C2 4.4701 2.4701 4 3.05 4H20.95C21.5299 4 22 4.4701 22 5.05V7.5C22 7.91421 21.6642 8.25 21.25 8.25C20.8358 8.25 20.5 7.91421 20.5 7.5V5.5H3.5V10.25H4.70067C4.96003 9.80165 5.44479 9.5 6 9.5C6.82843 9.5 7.5 10.1716 7.5 11C7.5 11.8284 6.82843 12.5 6 12.5C5.44479 12.5 4.96003 12.1984 4.70067 11.75H3.05C2.4701 11.75 2 11.2799 2 10.7V5.05ZM18 12.5C18.5552 12.5 19.04 12.1984 19.2993 11.75H20.5V16.5H3.5V14.5C3.5 14.0858 3.16421 13.75 2.75 13.75C2.33579 13.75 2 14.0858 2 14.5V16.95C2 17.5299 2.4701 18 3.05 18H20.95C21.5299 18 22 17.5299 22 16.95V11.3C22 10.7201 21.5299 10.25 20.95 10.25H19.2993C19.04 9.80165 18.5552 9.5 18 9.5C17.1716 9.5 16.5 10.1716 16.5 11C16.5 11.8284 17.1716 12.5 18 12.5ZM12 12.5C12.8284 12.5 13.5 11.8284 13.5 11C13.5 10.1716 12.8284 9.5 12 9.5C11.1716 9.5 10.5 10.1716 10.5 11C10.5 11.8284 11.1716 12.5 12 12.5ZM12 14C13.6569 14 15 12.6569 15 11C15 9.34315 13.6569 8 12 8C10.3431 8 9 9.34315 9 11C9 12.6569 10.3431 14 12 14ZM2.75 19.5C2.33579 19.5 2 19.8358 2 20.25C2 20.6642 2.33579 21 2.75 21H21.25C21.6642 21 22 20.6642 22 20.25C22 19.8358 21.6642 19.5 21.25 19.5H2.75Z" fill="black"/>
</svg>
