<svg width="24" height="24" viewBox="0 0 24 24" fill="none" xmlns="http://www.w3.org/2000/svg">
<path fill-rule="evenodd" clip-rule="evenodd" d="M9.40527 4.65527C9.40527 2.92938 10.8044 1.53027 12.5303 1.53027C14.2297 1.53027 15.6122 2.88674 15.6543 4.57599H16.3003C16.7145 4.57599 17.0503 4.91178 17.0503 5.32599C17.0503 5.7402 16.7145 6.07599 16.3003 6.07599H15.6553V6.95105H16.3003C16.7145 6.95105 17.0503 7.28684 17.0503 7.70105C17.0503 8.11526 16.7145 8.45105 16.3003 8.45105H15.6553V9.32599H16.3003C16.7145 9.32599 17.0503 9.66178 17.0503 10.076C17.0503 10.4902 16.7145 10.826 16.3003 10.826H15.6553V12.0038C17.0889 12.9953 18.0303 14.6525 18.0303 16.5303C18.0303 19.5678 15.5678 22.0303 12.5303 22.0303C9.49271 22.0303 7.03027 19.5678 7.03027 16.5303C7.03027 14.6525 7.97164 12.9953 9.40527 12.0038V4.65527ZM14.1553 7.78811V9.98893C14.152 10.0175 14.1503 10.0465 14.1503 10.076C14.1503 10.1054 14.152 10.1345 14.1553 10.163V12.3581C14.1553 12.6635 14.3183 12.9388 14.5716 13.0895C15.746 13.7881 16.5303 15.068 16.5303 16.5303C16.5303 18.7394 14.7394 20.5303 12.5303 20.5303C10.3211 20.5303 8.53027 18.7394 8.53027 16.5303C8.53027 15.068 9.3145 13.7881 10.4889 13.0895C10.7423 12.9388 10.9053 12.6635 10.9053 12.3581V4.65527C10.9053 3.75781 11.6328 3.03027 12.5303 3.03027C13.4277 3.03027 14.1553 3.75781 14.1553 4.65527V5.23893C14.152 5.26749 14.1503 5.29654 14.1503 5.32599C14.1503 5.35543 14.152 5.38448 14.1553 5.41304V7.61399C14.152 7.64256 14.1503 7.6716 14.1503 7.70105C14.1503 7.7305 14.152 7.75954 14.1553 7.78811ZM11.1504 16.4003C11.1504 15.9861 10.8146 15.6503 10.4004 15.6503C9.98618 15.6503 9.65039 15.9861 9.65039 16.4003C9.65039 17.1442 10.0148 17.8253 10.4951 18.3056C10.9753 18.7859 11.6565 19.1503 12.4004 19.1503C12.8146 19.1503 13.1504 18.8145 13.1504 18.4003C13.1504 17.9861 12.8146 17.6503 12.4004 17.6503C12.1443 17.6503 11.8255 17.5147 11.5557 17.2449C11.286 16.9752 11.1504 16.6563 11.1504 16.4003Z" fill="black"/>
</svg>
