<svg width="24" height="24" viewBox="0 0 24 24" fill="none" xmlns="http://www.w3.org/2000/svg">
<path fill-rule="evenodd" clip-rule="evenodd" d="M12 6.5C12 4.567 13.567 3 15.5 3C17.433 3 19 4.567 19 6.5V7.25C19 7.66421 18.6642 8 18.25 8C17.8358 8 17.5 7.66421 17.5 7.25V6.5C17.5 5.39543 16.6046 4.5 15.5 4.5C14.3954 4.5 13.5 5.39543 13.5 6.5V10.7516V14.25C13.5 14.6642 13.1642 15 12.75 15C12.3358 15 12 14.6642 12 14.25V11.5001H9.24972C8.83566 11.5001 8.5 11.1644 8.5 10.7503C8.5 10.3361 8.836 10.0003 9.25028 10.0006L12 10.0026V6.5ZM16.25 10C15.8358 10 15.5 10.3358 15.5 10.75C15.5 11.1642 15.8358 11.5 16.25 11.5H20.25C20.6642 11.5 21 11.1642 21 10.75C21 10.3358 20.6642 10 20.25 10H16.25ZM3.75 10.0049C3.33579 10.0049 3 10.3407 3 10.7549C3 11.1691 3.33579 11.5049 3.75 11.5049H5.5V14.25C5.5 14.6642 5.83579 15 6.25 15C6.66421 15 7 14.6642 7 14.25V6.5C7 5.39543 7.89543 4.5 9 4.5C9.48417 4.5 9.92638 4.67109 10.2724 4.95687C10.5918 5.22063 11.0645 5.17554 11.3283 4.85616C11.592 4.53679 11.547 4.06406 11.2276 3.8003C10.6227 3.30073 9.84546 3 9 3C7.067 3 5.5 4.567 5.5 6.5V10.0049H3.75ZM18.9014 16.3192C18.138 16.5882 17.3034 16.5738 16.5497 16.2788L16.2813 16.1738C15.2452 15.7682 14.0901 15.7923 13.0717 16.2407C12.3831 16.544 11.5987 16.544 10.9101 16.2407C9.89175 15.7923 8.73668 15.7682 7.70052 16.1738L7.43218 16.2788C6.67847 16.5738 5.84384 16.5882 5.08044 16.3192L4.17422 15.9999C3.78354 15.8623 3.35526 16.0674 3.21762 16.4581C3.07999 16.8488 3.28512 17.2771 3.6758 17.4147L4.58203 17.734C5.68469 18.1224 6.89024 18.1017 7.97891 17.6756L8.24725 17.5706C8.91176 17.3105 9.65252 17.3259 10.3056 17.6135C11.3794 18.0863 12.6024 18.0863 13.6762 17.6135C14.3293 17.3259 15.0701 17.3105 15.7346 17.5706L16.0029 17.6756C17.0916 18.1017 18.2972 18.1224 19.3998 17.734L20.3061 17.4147C20.6967 17.2771 20.9019 16.8488 20.7642 16.4581C20.6266 16.0674 20.1983 15.8623 19.8076 15.9999L18.9014 16.3192ZM18.9014 19.8192C18.138 20.0882 17.3034 20.0738 16.5497 19.7788L16.2813 19.6738C15.2452 19.2682 14.0901 19.2923 13.0717 19.7407C12.3831 20.0439 11.5987 20.0439 10.9101 19.7407C9.89175 19.2923 8.73668 19.2682 7.70052 19.6738L7.43218 19.7788C6.67847 20.0738 5.84384 20.0882 5.08044 19.8192L4.17422 19.4999C3.78354 19.3623 3.35526 19.5674 3.21762 19.9581C3.07999 20.3488 3.28512 20.7771 3.6758 20.9147L4.58203 21.234C5.68469 21.6224 6.89024 21.6017 7.97891 21.1756L8.24725 21.0706C8.91176 20.8105 9.65252 20.8259 10.3056 21.1135C11.3794 21.5863 12.6024 21.5863 13.6762 21.1135C14.3293 20.8259 15.0701 20.8105 15.7346 21.0706L16.0029 21.1756C17.0916 21.6017 18.2972 21.6224 19.3998 21.234L20.3061 20.9147C20.6967 20.7771 20.9019 20.3488 20.7642 19.9581C20.6266 19.5674 20.1983 19.3623 19.8076 19.4999L18.9014 19.8192Z" fill="black"/>
</svg>
