<svg width="24" height="24" viewBox="0 0 24 24" fill="none" xmlns="http://www.w3.org/2000/svg">
<path fill-rule="evenodd" clip-rule="evenodd" d="M9.5 5.0225C9.5 6.66693 8.16693 8 6.5225 8L5 8.02247V9.02247H6.25C6.66421 9.02247 7 9.35826 7 9.77247C7 10.1867 6.66421 10.5225 6.25 10.5225H5V11.2725C5 11.6867 4.66421 12.0225 4.25 12.0225C3.83579 12.0225 3.5 11.6867 3.5 11.2725V10.5225H2.75C2.33579 10.5225 2 10.1867 2 9.77247C2 9.35826 2.33579 9.02247 2.75 9.02247H3.5V8.02247H2.75C2.33579 8.02247 2 7.68668 2 7.27247C2 6.85825 2.33579 6.52247 2.75 6.52247H3.5V2.8705C3.5 2.40215 3.87968 2.02246 4.34804 2.02246L6.5225 2C8.16693 2 9.5 3.37807 9.5 5.0225ZM5 3.52247V6.52247L6.5225 6.5C7.3385 6.5 8 5.8385 8 5.0225C8 4.2065 7.3385 3.5 6.5225 3.5L5 3.52247ZM16.4435 4.3952C16.7775 4.64015 16.8497 5.1095 16.6048 5.44352L5.60479 20.4435C5.35984 20.7775 4.89049 20.8498 4.55647 20.6048C4.22244 20.3599 4.15023 19.8905 4.39519 19.5565L15.3952 4.55648C15.6401 4.22245 16.1095 4.15025 16.4435 4.3952ZM17.9999 10.75C18.4141 10.75 18.7499 11.0858 18.7499 11.5V12.2499H20C20.4142 12.2499 20.75 12.5857 20.75 12.9999C20.75 13.4142 20.4142 13.7499 20 13.7499H16.75C16.1977 13.7499 15.75 14.1977 15.75 14.7499C15.75 15.3022 16.1977 15.7499 16.75 15.7499H19.2502C20.6309 15.7499 21.7502 16.8692 21.7502 18.2499C21.7502 19.6307 20.6309 20.7499 19.2502 20.7499H18.7499V21.5001C18.7499 21.9143 18.4141 22.2501 17.9999 22.2501C17.5857 22.2501 17.2499 21.9143 17.2499 21.5001V20.7499H16C15.5858 20.7499 15.25 20.4142 15.25 19.9999C15.25 19.5857 15.5858 19.2499 16 19.2499H19.2502C19.8025 19.2499 20.2502 18.8022 20.2502 18.2499C20.2502 17.6977 19.8025 17.2499 19.2502 17.2499H16.75C15.3693 17.2499 14.25 16.1307 14.25 14.7499C14.25 13.3692 15.3693 12.2499 16.75 12.2499H17.2499V11.5C17.2499 11.0858 17.5857 10.75 17.9999 10.75Z" fill="black"/>
</svg>
