<svg width="24" height="24" viewBox="0 0 24 24" fill="none" xmlns="http://www.w3.org/2000/svg">
<path fill-rule="evenodd" clip-rule="evenodd" d="M3.69631 11.2785C4.64281 8.91231 7.44199 5.25 12 5.25C16.5579 5.25 19.3571 8.91231 20.3036 11.2785C20.4574 11.6631 20.8939 11.8502 21.2785 11.6964C21.6631 11.5425 21.8501 11.106 21.6963 10.7215C20.6428 8.08769 17.442 3.75 12 3.75C6.55792 3.75 3.3571 8.08769 2.3036 10.7215C2.14976 11.106 2.33682 11.5425 2.72141 11.6964C3.106 11.8502 3.54248 11.6631 3.69631 11.2785ZM15.5 12C15.5 13.933 13.933 15.5 12 15.5C10.067 15.5 8.5 13.933 8.5 12C8.5 10.067 10.067 8.5 12 8.5C13.933 8.5 15.5 10.067 15.5 12ZM17 12C17 14.7614 14.7614 17 12 17C9.23858 17 7 14.7614 7 12C7 9.23858 9.23858 7 12 7C14.7614 7 17 9.23858 17 12ZM5.5071 15.9347C5.8193 15.6625 6.29307 15.6949 6.56529 16.0071C7.29271 16.8413 9.06268 18.75 12 18.75C14.9373 18.75 16.7073 16.8413 17.4347 16.0071C17.707 15.6949 18.1807 15.6625 18.4929 15.9347C18.8051 16.207 18.8375 16.6807 18.5653 16.9929C17.7979 17.873 15.6398 20.25 12 20.25C8.36018 20.25 6.20212 17.873 5.43473 16.9929C5.16251 16.6807 5.19491 16.207 5.5071 15.9347ZM14 12C14 13.1046 13.1046 14 12 14C10.8954 14 10 13.1046 10 12C10 10.8954 10.8954 10 12 10C12.2799 10 12.5464 10.0575 12.7883 10.1614C12.5144 10.3397 12.3333 10.6487 12.3333 11C12.3333 11.5523 12.781 12 13.3333 12C13.5825 12 13.8104 11.9088 13.9855 11.758C13.9951 11.8373 14 11.9181 14 12Z" fill="black"/>
</svg>
