<svg width="24" height="24" viewBox="0 0 24 24" fill="none" xmlns="http://www.w3.org/2000/svg">
<path fill-rule="evenodd" clip-rule="evenodd" d="M11.4736 4.19754C11.8074 4.04255 12.1926 4.04255 12.5264 4.19754L22.1205 8.65194C22.7765 8.95654 22.7765 9.88925 22.1205 10.1939L18.1071 12.0572V15.541L18.1013 15.5873C17.9193 17.0431 16.1617 19.1015 12 19.1015C7.83827 19.1015 6.08059 17.0431 5.89861 15.5873L5.89282 15.541V12.0572L1.87951 10.1939C1.22343 9.88924 1.22344 8.95654 1.87951 8.65194L11.4736 4.19754ZM12.5264 14.6482L16.6071 12.7536V15.4376C16.5117 15.9372 15.6025 17.6015 12 17.6015C8.39743 17.6015 7.48825 15.9372 7.39282 15.4376V12.7536L11.4736 14.6482C11.8074 14.8032 12.1926 14.8032 12.5264 14.6482ZM3.78099 9.42289L12 13.2389L20.219 9.42289L12 5.60693L3.78099 9.42289ZM20.9643 13.2C20.9643 12.7858 20.6285 12.45 20.2143 12.45C19.8001 12.45 19.4643 12.7858 19.4643 13.2V16.0572C19.4643 16.4714 19.8001 16.8072 20.2143 16.8072C20.6285 16.8072 20.9643 16.4714 20.9643 16.0572V13.2Z" fill="black"/>
</svg>
