<svg width="24" height="24" viewBox="0 0 24 24" fill="none" xmlns="http://www.w3.org/2000/svg">
<path d="M6.75 11.5C6.05964 11.5 5.5 12.0596 5.5 12.75C5.5 13.1642 5.16421 13.5 4.75 13.5C4.33579 13.5 4 13.1642 4 12.75C4 11.2312 5.23122 10 6.75 10C7.16421 10 7.5 10.3358 7.5 10.75C7.5 11.1642 7.16421 11.5 6.75 11.5Z" fill="black"/>
<path fill-rule="evenodd" clip-rule="evenodd" d="M19.25 1.5C19.6642 1.5 20 1.83579 20 2.25V8.47524C21.2728 9.40256 22.1 10.9047 22.1 12.6C22.1 14.565 20.9887 16.2705 19.3602 17.1222C18.4383 19.0799 16.6033 20.5228 14.4042 20.9017C14.1247 21.8266 13.266 22.5 12.25 22.5H10.25C9.00736 22.5 8 21.4926 8 20.25C8 19.0074 9.00736 18 10.25 18H12.25C13.1876 18 13.9913 18.5735 14.3294 19.3889C15.4695 19.1507 16.4739 18.5425 17.2111 17.6957C17.1411 17.6986 17.0707 17.7 17 17.7C15.1806 17.7 13.585 16.7462 12.6843 15.3184C12.4968 15.0212 12.2979 14.7913 12.1152 14.6488C11.9403 14.5123 11.8409 14.5 11.8 14.5C11.7591 14.5 11.6597 14.5123 11.4848 14.6488C11.3021 14.7913 11.1032 15.0212 10.9157 15.3184C10.015 16.7462 8.41944 17.7 6.6 17.7C3.78335 17.7 1.5 15.4167 1.5 12.6C1.5 9.78335 3.78335 7.5 6.6 7.5C6.68819 7.5 6.77598 7.50225 6.86333 7.50672C6.86848 7.50698 6.88724 7.50752 6.94833 7.50569L6.97716 7.50475C7.03016 7.50297 7.1188 7.5 7.2 7.5H16.4C16.4812 7.5 16.5698 7.50297 16.6228 7.50475L16.6517 7.50569C16.7128 7.50752 16.7315 7.50698 16.7367 7.50672C16.824 7.50225 16.9118 7.5 17 7.5C17.522 7.5 18.0257 7.57843 18.5 7.72416V2.25C18.5 1.83579 18.8358 1.5 19.25 1.5ZM18.5 9.32643C18.0434 9.11685 17.5353 9 17 9C16.9374 9 16.8751 9.0016 16.8132 9.00476C16.7287 9.00908 16.6439 9.00629 16.5592 9.0035C16.5061 9.00175 16.453 9 16.4 9H7.2C7.14702 9 7.09394 9.00175 7.04086 9.00349C6.95609 9.00629 6.87126 9.00908 6.78677 9.00476C6.72491 9.0016 6.66264 9 6.6 9C4.61177 9 3 10.6118 3 12.6C3 14.5882 4.61177 16.2 6.6 16.2C7.88315 16.2 9.00951 15.5287 9.64701 14.5181C10.1396 13.7372 10.8767 13 11.8 13C12.7233 13 13.4604 13.7372 13.953 14.5181C14.5905 15.5287 15.7168 16.2 17 16.2C17.422 16.2 17.8271 16.1274 18.2034 15.9939C18.9383 15.7334 19.5635 15.2408 19.9909 14.6044C20.3756 14.0315 20.6 13.3419 20.6 12.6C20.6 11.864 20.3791 11.1795 20 10.6093C19.6308 10.054 19.1115 9.60707 18.5 9.32643ZM9.5 20.25C9.5 19.8358 9.83579 19.5 10.25 19.5H12.25C12.6642 19.5 13 19.8358 13 20.25C13 20.6642 12.6642 21 12.25 21H10.25C9.83579 21 9.5 20.6642 9.5 20.25Z" fill="black"/>
</svg>
