<svg width="24" height="24" viewBox="0 0 24 24" fill="none" xmlns="http://www.w3.org/2000/svg">
<path fill-rule="evenodd" clip-rule="evenodd" d="M3.90045 4.05029C2.93395 4.05029 2.15045 4.8338 2.15045 5.80029V6.79002C2.15037 6.7964 2.15037 6.80279 2.15045 6.80917V17.3003C2.15045 18.2668 2.93395 19.0503 3.90045 19.0503H10.5671C10.9813 19.0503 11.3171 18.7145 11.3171 18.3003C11.3171 17.8861 10.9813 17.5503 10.5671 17.5503H3.90045C3.76238 17.5503 3.65045 17.4384 3.65045 17.3003V8.18481L11.6908 13.4285C11.9398 13.5909 12.2612 13.5909 12.5102 13.4285L20.5505 8.18484V12.8003C20.5505 13.2145 20.8862 13.5503 21.3005 13.5503C21.7147 13.5503 22.0505 13.2145 22.0505 12.8003V6.8125C22.0506 6.8039 22.0506 6.7953 22.0505 6.78669V5.80029C22.0505 4.8338 21.267 4.05029 20.3005 4.05029H3.90045ZM20.5505 6.39403V5.80029C20.5505 5.66222 20.4385 5.55029 20.3005 5.55029H3.90045C3.76238 5.55029 3.65045 5.66222 3.65045 5.80029V6.394L12.1005 11.9049L20.5505 6.39403ZM14.8985 15.3924C14.6732 15.0448 14.2088 14.9456 13.8612 15.1709C13.5136 15.3962 13.4145 15.8606 13.6398 16.2082C13.7716 16.4117 13.9356 16.6108 14.1264 16.7998L13.2626 17.6883C12.9739 17.9853 12.9806 18.4601 13.2775 18.7488C13.5745 19.0376 14.0494 19.0309 14.3381 18.7339L15.365 17.6777C15.8044 17.8979 16.2905 18.0642 16.8004 18.1515V19.6573C16.8004 20.0715 17.1361 20.4073 17.5504 20.4073C17.9646 20.4073 18.3004 20.0715 18.3004 19.6573V18.1674C18.7833 18.0929 19.2694 17.9375 19.743 17.6852L20.7626 18.7339C21.0513 19.0309 21.5262 19.0376 21.8232 18.7488C22.1202 18.4601 22.1268 17.9853 21.8381 17.6883L20.9558 16.7807C21.1122 16.6256 21.2653 16.4564 21.4144 16.2724C21.6751 15.9506 21.6256 15.4783 21.3038 15.2175C20.9819 14.9568 20.5096 15.0063 20.2489 15.3282C19.2493 16.562 18.1092 16.8291 17.1321 16.6855C16.0952 16.5331 15.2395 15.9184 14.8985 15.3924Z" fill="black"/>
</svg>
