<svg width="24" height="24" viewBox="0 0 24 24" fill="none" xmlns="http://www.w3.org/2000/svg">
<path fill-rule="evenodd" clip-rule="evenodd" d="M4.77295 2.0498C3.25417 2.0498 2.02295 3.28102 2.02295 4.7998V13.2998C2.02295 14.8186 3.25417 16.0498 4.77295 16.0498H8.03015V19.2798C8.03015 20.7986 9.26137 22.0298 10.7802 22.0298H19.2802C20.7989 22.0298 22.0302 20.7986 22.0302 19.2798V10.7798C22.0302 9.26103 20.7989 8.02982 19.2802 8.02982H16.0229V4.7998C16.0229 3.28102 14.7917 2.0498 13.2729 2.0498H4.77295ZM14.5229 8.02982V4.7998C14.5229 4.10945 13.9633 3.5498 13.2729 3.5498H4.77295C4.08259 3.5498 3.52295 4.10945 3.52295 4.7998V13.2998C3.52295 13.9902 4.08259 14.5498 4.77295 14.5498H8.03015V10.7798C8.03015 9.26103 9.26137 8.02982 10.7802 8.02982H14.5229ZM9.53015 14.5498V10.7798C9.53015 10.0895 10.0898 9.52982 10.7802 9.52982H14.5229V13.2998C14.5229 13.9902 13.9633 14.5498 13.2729 14.5498H9.53015ZM9.53015 16.0498H13.2729C14.7917 16.0498 16.0229 14.8186 16.0229 13.2998V9.52982H19.2802C19.9705 9.52982 20.5302 10.0895 20.5302 10.7798V19.2798C20.5302 19.9702 19.9705 20.5298 19.2802 20.5298H10.7802C10.0898 20.5298 9.53015 19.9702 9.53015 19.2798V16.0498Z" fill="black"/>
</svg>
