<svg width="24" height="24" viewBox="0 0 24 24" fill="none" xmlns="http://www.w3.org/2000/svg">
<path fill-rule="evenodd" clip-rule="evenodd" d="M4 4.009C4 3.452 4.443 3 5.009 3H6.991C7.548 3 8 3.443 8 4.009V5.99C8 6.548 7.557 7 6.991 7H5.009C4.452 7 4 6.556 4 5.99V4.009ZM12.376 20.5695L14.774 17.8285C14.956 17.6215 14.935 17.3055 14.728 17.1235C14.636 17.0435 14.519 16.9995 14.398 16.9995H9.601C9.325 16.9995 9.101 17.2235 9.101 17.4995C9.101 17.6205 9.145 17.7375 9.225 17.8285L11.624 20.5695C11.806 20.7775 12.122 20.7985 12.329 20.6165C12.346 20.6025 12.362 20.5865 12.376 20.5695ZM11.009 3C10.443 3 10 3.452 10 4.009V5.99C10 6.556 10.452 7 11.009 7H12.991C13.557 7 14 6.548 14 5.99V4.009C14 3.443 13.548 3 12.991 3H11.009ZM16 4.009C16 3.452 16.443 3 17.009 3H18.991C19.548 3 20 3.443 20 4.009V5.99C20 6.548 19.557 7 18.991 7H17.009C16.452 7 16 6.556 16 5.99V4.009ZM5.009 9C4.443 9 4 9.452 4 10.009V11.99C4 12.556 4.452 13 5.009 13H6.991C7.557 13 8 12.548 8 11.99V10.009C8 9.443 7.548 9 6.991 9H5.009ZM10 10.009C10 9.452 10.443 9 11.009 9H12.991C13.548 9 14 9.443 14 10.009V11.99C14 12.548 13.557 13 12.991 13H11.009C10.452 13 10 12.556 10 11.99V10.009ZM17.009 9C16.443 9 16 9.452 16 10.009V11.99C16 12.556 16.452 13 17.009 13H18.991C19.557 13 20 12.548 20 11.99V10.009C20 9.443 19.548 9 18.991 9H17.009Z" fill="black"/>
</svg>
