<svg width="24" height="24" viewBox="0 0 24 24" fill="none" xmlns="http://www.w3.org/2000/svg">
<path fill-rule="evenodd" clip-rule="evenodd" d="M14.9082 6.36305L16.2105 5.06075L18.9393 7.78956L17.6535 9.07539L14.9082 6.36305ZM13.8412 5.30879L15.1852 3.96473C15.7515 3.39847 16.6696 3.39848 17.2358 3.96473L20.0354 6.76426C20.6016 7.33052 20.6016 8.24861 20.0354 8.81487L18.7206 10.1296L19.0359 10.4412C19.6001 10.9986 19.6118 11.906 19.062 12.4777L12.6117 19.186C10.5508 21.3294 7.14863 21.4145 4.98311 19.3768C2.75966 17.2847 2.69966 13.7706 4.85038 11.6037L11.4373 4.96741C12.0005 4.39996 12.9168 4.39549 13.4855 4.9574L13.8412 5.30879ZM11.5305 18.1463C10.0394 19.6971 7.57782 19.7587 6.01103 18.2844C4.40232 16.7707 4.3589 14.2282 5.91499 12.6604L12.4668 6.05951L17.9466 11.4736L11.5305 18.1463ZM13.0303 8.96973C12.7374 8.67684 12.2626 8.67684 11.9697 8.96973C11.6768 9.26262 11.6768 9.7375 11.9697 10.0304L13.9697 12.0304C14.2626 12.3233 14.7374 12.3233 15.0303 12.0304C15.3232 11.7375 15.3232 11.2626 15.0303 10.9697L13.0303 8.96973ZM9 13.7501C8.30964 13.7501 7.75 14.3097 7.75 15.0001C7.75 15.6904 8.30964 16.2501 9 16.2501C9.69036 16.2501 10.25 15.6904 10.25 15.0001C10.25 14.3097 9.69036 13.7501 9 13.7501ZM6.25 15.0001C6.25 13.4813 7.48122 12.2501 9 12.2501C10.5188 12.2501 11.75 13.4813 11.75 15.0001C11.75 16.5188 10.5188 17.7501 9 17.7501C7.48122 17.7501 6.25 16.5188 6.25 15.0001Z" fill="black"/>
</svg>
