<svg width="24" height="24" viewBox="0 0 24 24" fill="none" xmlns="http://www.w3.org/2000/svg">
<path d="M17.0842 7.22291C16.5935 6.73727 15.8021 6.74134 15.3164 7.23201C15.115 7.43556 14.9985 7.68888 14.965 7.95183C14.8958 8.49436 14.2966 8.89615 13.7312 8.60987L10.9673 7.21032C10.0958 6.76898 9.03898 6.9405 8.35174 7.63486L5.19956 10.8197C4.90817 11.1141 4.43331 11.1165 4.13891 10.8251C3.84451 10.5337 3.84207 10.0589 4.13345 9.76447L7.28563 6.57967C8.43104 5.42242 10.1924 5.13654 11.645 5.87211L13.7235 6.9246C13.8526 6.65451 14.0283 6.40113 14.2503 6.17682C15.3187 5.09736 17.0599 5.0884 18.1394 6.1568C19.2188 7.2252 19.2278 8.96638 18.1594 10.0458C17.9374 10.2701 17.6858 10.4484 17.4171 10.5803L18.4909 12.6479C19.2414 14.0929 18.9736 15.857 17.8282 17.0143L14.676 20.1991C14.3847 20.4935 13.9098 20.4959 13.6154 20.2046C13.321 19.9132 13.3186 19.4383 13.6099 19.1439L16.7621 15.9591C17.4494 15.2648 17.61 14.2063 17.1597 13.3393L15.7318 10.5899C15.4397 10.0276 15.8353 9.42424 16.3771 9.34951C16.6397 9.31329 16.8918 9.19421 17.0933 8.99065C17.5789 8.49999 17.5748 7.70854 17.0842 7.22291Z" fill="black"/>
<path d="M9.43431 9.26615C9.72871 9.55754 9.73115 10.0324 9.43977 10.3268L7.09491 12.6959C6.80353 12.9903 6.32866 12.9928 6.03426 12.7014C5.73987 12.41 5.73742 11.9351 6.0288 11.6407L8.37366 9.27161C8.66505 8.97722 9.13991 8.97477 9.43431 9.26615Z" fill="black"/>
<path d="M15.1258 15.954C15.4172 15.6596 15.4147 15.1847 15.1203 14.8934C14.8259 14.602 14.3511 14.6044 14.0597 14.8988L11.7148 17.2679C11.4235 17.5623 11.4259 18.0372 11.7203 18.3286C12.0147 18.62 12.4896 18.6175 12.7809 18.3231L15.1258 15.954Z" fill="black"/>
<path d="M13.2248 13.0179C13.5192 13.3092 13.5217 13.7841 13.2303 14.0785L10.8854 16.4476C10.5941 16.742 10.1192 16.7445 9.82479 16.4531C9.53039 16.1617 9.52795 15.6868 9.81933 15.3924L12.1642 13.0233C12.4556 12.7289 12.9304 12.7265 13.2248 13.0179Z" fill="black"/>
<path d="M11.3353 12.2025C11.6267 11.9081 11.6242 11.4333 11.3298 11.1419C11.0354 10.8505 10.5606 10.8529 10.2692 11.1473L7.92431 13.5165C7.63293 13.8109 7.63537 14.2857 7.92977 14.5771C8.22417 14.8685 8.69904 14.8661 8.99042 14.5717L11.3353 12.2025Z" fill="black"/>
</svg>
