<svg width="24" height="24" viewBox="0 0 24 24" fill="none" xmlns="http://www.w3.org/2000/svg">
<path fill-rule="evenodd" clip-rule="evenodd" d="M18.4406 6.31706L16.0998 6.4815L8.73304 13.8618L10.9129 16.0417L18.254 8.63211L18.4406 6.31706ZM19.0897 4.76777C19.6087 4.73131 20.0383 5.16541 19.9965 5.68397L19.7301 8.98925C19.714 9.18908 19.6278 9.37679 19.4867 9.5192L11.8724 17.2045L12.8353 18.2055C13.1225 18.504 13.1133 18.9788 12.8147 19.266C12.5162 19.5531 12.0414 19.5439 11.7543 19.2454L10.4161 17.8542L7.22746 21.0428C6.83694 21.4333 6.20377 21.4333 5.81325 21.0428L3.85246 19.082C3.46194 18.6914 3.46194 18.0583 3.85246 17.6678L7.10658 14.4136L5.90016 13.1595C5.61301 12.8609 5.62222 12.3862 5.92075 12.099C6.21927 11.8118 6.69405 11.8211 6.98121 12.1196L7.65426 12.8193L15.21 5.24966C15.3549 5.10449 15.5474 5.01661 15.752 5.00223L19.0897 4.76777ZM8.18512 15.5349L8.14588 15.4957L5.26668 18.3749L6.52036 19.6285L9.37599 16.7729L8.18512 15.5349Z" fill="black"/>
</svg>
