<svg width="24" height="24" viewBox="0 0 24 24" fill="none" xmlns="http://www.w3.org/2000/svg">
<path fill-rule="evenodd" clip-rule="evenodd" d="M4 20H20C20.2761 20 20.5 19.7761 20.5 19.5V9H15.85C15.3806 9 15 8.61944 15 8.15V3.5H4C3.72386 3.5 3.5 3.72386 3.5 4V19.5C3.5 19.7761 3.72386 20 4 20ZM16.5 3.60864V7.5H20.4824L16.5 3.60864ZM4 2C2.89543 2 2 2.89543 2 4V19.5C2 20.6046 2.89543 21.5 4 21.5H20C21.1046 21.5 22 20.6046 22 19.5V7.43302C22 7.08302 21.8589 6.74782 21.6086 6.50321L17.3789 2.3702C17.136 2.13287 16.8099 2 16.4703 2H4ZM17.5606 12.0017C17.8357 12.3113 17.8079 12.7854 17.4983 13.0606L13.0688 16.9979C12.7324 17.2969 12.2212 17.2819 11.903 16.9637L9.95398 15.0146L7.48014 17.0762C7.16193 17.3413 6.68901 17.2984 6.42384 16.9801C6.15866 16.6619 6.20166 16.189 6.51987 15.9238L9.44971 13.4823C9.78744 13.2009 10.284 13.2234 10.5949 13.5343L12.5303 15.4696L16.5017 11.9395C16.8113 11.6643 17.2854 11.6921 17.5606 12.0017Z" fill="black"/>
</svg>
