<svg width="24" height="24" viewBox="0 0 24 24" fill="none" xmlns="http://www.w3.org/2000/svg">
<path fill-rule="evenodd" clip-rule="evenodd" d="M2.00244 7.25C2.41665 7.25 2.75244 7.58579 2.75244 8V9.69712L4.08953 8.35416C4.79326 7.64735 5.74957 7.25 6.74698 7.25H10.7527C11.3665 7.25 11.9708 7.40064 12.5128 7.68869L16.3233 9.71409C16.7879 9.96104 17.3055 10.0915 17.8315 10.0942H18.5672C18.9032 10.0942 19.2359 10.161 19.5459 10.2906L21.1036 10.942C22.1011 11.3591 22.7505 12.3345 22.7505 13.4157L22.7505 13.8792C22.7504 14.394 22.6418 14.9029 22.4316 15.3728C22.0055 16.3255 21.0677 16.9442 20.0274 16.9637C19.5732 17.5915 18.8346 18 18.0005 18C17.1666 18 16.4281 17.5918 15.9739 16.9642H8.02705C7.57286 17.5918 6.83435 18 6.00049 18C5.16663 18 4.42812 17.5918 3.97393 16.9642H3.1544C2.94885 16.9642 2.75231 16.8799 2.61072 16.7309L1.45681 15.5166C1.32435 15.3772 1.25049 15.1922 1.25049 14.9999V10.8442C1.25049 10.8259 1.25115 10.8077 1.25244 10.7897L1.25244 8C1.25244 7.58579 1.58823 7.25 2.00244 7.25ZM5.00112 15.4642C5.00078 15.4739 5.00057 15.4836 5.00051 15.4933C5.0005 15.4955 5.00049 15.4978 5.00049 15.5C5.00049 16.0523 5.4482 16.5 6.00049 16.5C6.55277 16.5 7.00049 16.0523 7.00049 15.5C7.00049 15.4909 7.00037 15.4819 7.00013 15.4729C7.00005 15.47 6.99996 15.4671 6.99986 15.4642C6.98102 14.9285 6.5408 14.5 6.00049 14.5C5.46018 14.5 5.01995 14.9285 5.00112 15.4642ZM8.50024 15.4642C8.4811 14.1 7.36926 13 6.00049 13C4.63172 13 3.51987 14.1 3.50074 15.4642H3.47632L2.75049 14.7004V11.5942H17.8278L17.8482 11.5943L18.0004 11.5943L18.0102 11.5942H18.5672C18.7046 11.5942 18.8405 11.6215 18.9673 11.6745L20.525 12.3259C20.9644 12.5096 21.2505 12.9393 21.2505 13.4156L21.2505 13.8791C21.2504 14.1828 21.1863 14.4832 21.0623 14.7604C20.9458 15.021 20.7426 15.2251 20.4958 15.3449C20.4157 14.0365 19.3291 13 18.0005 13C16.6317 13 15.5199 14.1 15.5007 15.4642H8.50024ZM17.0005 15.5C17.0005 15.488 17.0007 15.4761 17.0011 15.4642C17.02 14.9285 17.4602 14.5 18.0005 14.5C18.5441 14.5 18.9865 14.9338 19.0002 15.4742C19.0004 15.4827 19.0005 15.4914 19.0005 15.5C19.0005 16.0523 18.5528 16.5 18.0005 16.5C17.4482 16.5 17.0005 16.0523 17.0005 15.5ZM13.8426 10.0942L11.8088 9.01322C11.4836 8.84039 11.121 8.75 10.7527 8.75H8.24973L8.25031 10.0942H13.8426ZM6.74973 8.75H6.74698C6.14853 8.75 5.57474 8.98841 5.15251 9.4125L4.47374 10.0942H6.75031L6.74973 8.75Z" fill="black"/>
</svg>
