<svg width="24" height="24" viewBox="0 0 24 24" fill="none" xmlns="http://www.w3.org/2000/svg">
<path fill-rule="evenodd" clip-rule="evenodd" d="M15 6.5C15 6.92629 14.9111 7.33181 14.7508 7.69903C16.4758 8.80729 18 10.9702 18 13.3335V13.5112C19.4016 13.6375 20.5 14.8155 20.5 16.25V17.75C20.5 19.2688 19.2688 20.5 17.75 20.5H6.25C4.73122 20.5 3.5 19.2688 3.5 17.75V16.25C3.5 14.8155 4.59838 13.6375 6 13.5112V13.3335C6 10.9702 7.52421 8.80729 9.2492 7.69903C9.08891 7.33181 9 6.92629 9 6.5C9 4.84315 10.3431 3.5 12 3.5C13.6569 3.5 15 4.84315 15 6.5ZM7.5 13.5H16.5V13.3335C16.5 11.5056 15.2239 9.72526 13.8195 8.88544C13.3148 9.27099 12.6842 9.5 12 9.5C11.3158 9.5 10.6852 9.27099 10.1805 8.88544C8.77611 9.72526 7.5 11.5056 7.5 13.3335V13.5ZM12 8C12.8284 8 13.5 7.32843 13.5 6.5C13.5 5.67157 12.8284 5 12 5C11.1716 5 10.5 5.67157 10.5 6.5C10.5 7.32843 11.1716 8 12 8ZM5 16.25C5 15.5596 5.55964 15 6.25 15H17.75C18.4404 15 19 15.5596 19 16.25V17.75C19 18.4404 18.4404 19 17.75 19H6.25C5.55964 19 5 18.4404 5 17.75V16.25Z" fill="black"/>
</svg>
