<svg width="24" height="24" viewBox="0 0 24 24" fill="none" xmlns="http://www.w3.org/2000/svg">
<path fill-rule="evenodd" clip-rule="evenodd" d="M11.9784 7.5V9H10.4784H6.5H5H4.25C3.83579 9 3.5 9.33579 3.5 9.75C3.5 10.1642 3.83579 10.5 4.25 10.5H5.02054C5.27461 13.5798 7.85467 16 11 16H12.8824C16.261 16 19 13.261 19 9.88235V9.65205C19 5.97822 16.0218 3 12.348 3C12.1439 3 11.9784 3.16546 11.9784 3.36956V7.5ZM6.52746 10.5C6.77619 12.75 8.68372 14.5 11 14.5H12.8824C15.2232 14.5 17.1572 12.7582 17.4591 10.5H13.4784H11.9784H6.52746ZM13.4784 9H17.4591C17.1861 6.83792 15.5731 5.09335 13.4784 4.62441V9ZM7 18.75C7 18.3358 7.33579 18 7.75 18C8.16421 18 8.5 18.3358 8.5 18.75C8.5 19.1642 8.16421 19.5 7.75 19.5C7.33579 19.5 7 19.1642 7 18.75ZM7.75 16.5C6.50736 16.5 5.5 17.5074 5.5 18.75C5.5 19.9926 6.50736 21 7.75 21C8.99264 21 10 19.9926 10 18.75C10 17.5074 8.99264 16.5 7.75 16.5ZM15.5 18.75C15.5 18.3358 15.8358 18 16.25 18C16.6642 18 17 18.3358 17 18.75C17 19.1642 16.6642 19.5 16.25 19.5C15.8358 19.5 15.5 19.1642 15.5 18.75ZM16.25 16.5C15.0074 16.5 14 17.5074 14 18.75C14 19.9926 15.0074 21 16.25 21C17.4926 21 18.5 19.9926 18.5 18.75C18.5 17.5074 17.4926 16.5 16.25 16.5Z" fill="black"/>
</svg>
