<svg width="24" height="24" viewBox="0 0 24 24" fill="none" xmlns="http://www.w3.org/2000/svg">
<path fill-rule="evenodd" clip-rule="evenodd" d="M11.0977 6.12243C12.5689 4.4551 14.6853 3.5 16.9089 3.5H19.65C20.1195 3.5 20.5 3.88056 20.5 4.35V7.09112C20.5 9.31471 19.5449 11.4312 17.8776 12.9024L16.4918 14.1252L17.4581 17.9905C17.5547 18.377 17.3699 18.7787 17.0136 18.9569L13.1202 20.9036C12.9299 20.9987 12.711 21.0191 12.5065 20.9606L9.04391 19.9713C8.64563 19.8575 8.41501 19.4424 8.52881 19.0441L8.52967 19.0411C8.57333 18.8901 8.66462 18.7516 8.80004 18.65L10.1082 17.6689L6.33119 13.8918L5.35822 15.1891C5.26312 15.3211 5.12459 15.4232 4.95604 15.4714C4.55776 15.5852 4.14265 15.3545 4.02886 14.9563L3.03954 11.4937C2.98112 11.2892 3.00147 11.0702 3.09657 10.88L5.0433 6.98656C5.22147 6.63023 5.62322 6.44545 6.00972 6.54207L9.87482 7.50834L11.0977 6.12243ZM11.7239 18.3321L15.225 15.2429L15.8764 17.8484L12.6755 19.4489L10.9081 18.9439L11.7239 18.3321ZM5.66794 12.2761L5.05618 13.0918L4.55129 11.3247L6.15176 8.12374L8.75711 8.77508L5.66794 12.2761ZM7.27859 12.7179L11.2822 16.7215L16.8852 11.7776C18.2298 10.5912 19 8.88434 19 7.09112V5H16.9089C15.1157 5 13.4089 5.77024 12.2224 7.11486L7.27859 12.7179ZM15 9.5C15.2761 9.5 15.5 9.27614 15.5 9C15.5 8.72386 15.2761 8.5 15 8.5C14.7239 8.5 14.5 8.72386 14.5 9C14.5 9.27614 14.7239 9.5 15 9.5ZM15 11C16.1046 11 17 10.1046 17 9C17 7.89543 16.1046 7 15 7C13.8954 7 13 7.89543 13 9C13 10.1046 13.8954 11 15 11ZM5.03033 16.9697C5.32322 17.2626 5.32322 17.7374 5.03033 18.0303L3.53033 19.5303C3.23744 19.8232 2.76256 19.8232 2.46967 19.5303C2.17678 19.2374 2.17678 18.7626 2.46967 18.4697L3.96967 16.9697C4.26256 16.6768 4.73744 16.6768 5.03033 16.9697ZM7.03033 18.9697C7.32322 19.2626 7.32322 19.7374 7.03033 20.0303L6.03033 21.0303C5.73744 21.3232 5.26256 21.3232 4.96967 21.0303C4.67678 20.7374 4.67678 20.2626 4.96967 19.9697L5.96967 18.9697C6.26256 18.6768 6.73744 18.6768 7.03033 18.9697Z" fill="black"/>
</svg>
