<svg width="24" height="24" viewBox="0 0 24 24" fill="none" xmlns="http://www.w3.org/2000/svg">
<path fill-rule="evenodd" clip-rule="evenodd" d="M10.8535 11.1258L12.0498 6.67148L13.2461 11.1258C13.3459 11.4972 13.6825 11.7553 14.0671 11.7553H21.2998C21.714 11.7553 22.0498 11.4195 22.0498 11.0053C22.0498 10.5911 21.714 10.2553 21.2998 10.2553H14.5655L12.7838 3.62146C12.5822 2.87102 11.5174 2.87092 11.3158 3.62146L9.5341 10.2553H2.7998C2.38559 10.2553 2.0498 10.5911 2.0498 11.0053C2.0498 11.4195 2.38559 11.7553 2.7998 11.7553H10.0326C10.4171 11.7553 10.7537 11.4972 10.8535 11.1258ZM5.88318 13.3274C5.46897 13.3274 5.13318 13.6632 5.13318 14.0774C5.13318 14.4916 5.46897 14.8274 5.88318 14.8274H8.18248L6.53706 19.3745C6.25184 20.1627 7.15893 20.8442 7.83661 20.3509L12.0791 17.2624L16.9867 20.371C17.7209 20.8361 18.5974 20.0296 18.1949 19.2593L15.879 14.8274H18.2165C18.6307 14.8274 18.9665 14.4916 18.9665 14.0774C18.9665 13.6632 18.6307 13.3274 18.2165 13.3274H14.8059C14.1674 13.3274 13.7568 14.0051 14.0526 14.5711L15.7442 17.8084L12.5086 15.7588C12.214 15.5722 11.8354 15.5845 11.5535 15.7897L8.6698 17.889L9.90822 14.4666C10.1087 13.9125 9.69825 13.3274 9.10894 13.3274H5.88318Z" fill="black"/>
</svg>
