<svg width="24" height="24" viewBox="0 0 24 24" fill="none" xmlns="http://www.w3.org/2000/svg">
<path fill-rule="evenodd" clip-rule="evenodd" d="M20 20H4C3.73472 20 3.5177 19.7934 3.50103 19.5323L3.51402 19.5462L11.4477 12.0792L14.3652 15.4134C14.689 15.7835 15.2582 15.8024 15.6059 15.4548L17.4635 13.5972L20.4356 16.9939L20.5 16.9375V19.5C20.5 19.7761 20.2761 20 20 20ZM20.5 14.7896L18.1348 12.0866C17.811 11.7165 17.2418 11.6976 16.8941 12.0453L15.0365 13.9028L12.1327 10.5842C11.8156 10.2218 11.2611 10.1949 10.9105 10.5249L3.5 17.4995V4C3.5 3.72386 3.72386 3.5 4 3.5H15V8.15C15 8.61944 15.3806 9 15.85 9H20.5V14.7896ZM20.4824 7.5L16.5 3.60864V7.5H20.4824ZM2 4C2 2.89543 2.89543 2 4 2H16.4703C16.8099 2 17.136 2.13287 17.3789 2.3702L21.6086 6.50321C21.8589 6.74782 22 7.08302 22 7.43302V19.5C22 20.6046 21.1046 21.5 20 21.5H4C2.89543 21.5 2 20.6046 2 19.5V4ZM8 8.5C8.27614 8.5 8.5 8.27614 8.5 8C8.5 7.72386 8.27614 7.5 8 7.5C7.72386 7.5 7.5 7.72386 7.5 8C7.5 8.27614 7.72386 8.5 8 8.5ZM8 10C9.10457 10 10 9.10457 10 8C10 6.89543 9.10457 6 8 6C6.89543 6 6 6.89543 6 8C6 9.10457 6.89543 10 8 10Z" fill="black"/>
</svg>
