<svg width="24" height="24" viewBox="0 0 24 24" fill="none" xmlns="http://www.w3.org/2000/svg">
<path fill-rule="evenodd" clip-rule="evenodd" d="M16.7077 5.72086C16.7077 4.52182 17.6797 3.5498 18.8788 3.5498C20.0778 3.5498 21.0498 4.52182 21.0498 5.72086C21.0498 6.9199 20.0778 7.89191 18.8788 7.89191C17.6797 7.89191 16.7077 6.9199 16.7077 5.72086ZM15.2144 5.49719C15.21 5.57118 15.2077 5.64575 15.2077 5.72086C15.2077 7.74832 16.8513 9.39191 18.8788 9.39191C18.9539 9.39191 19.0284 9.38965 19.1024 9.38521V18.2998C19.1024 19.5425 18.0951 20.5498 16.8524 20.5498H6.2998C5.05716 20.5498 4.0498 19.5425 4.0498 18.2998V7.74719C4.0498 6.50455 5.05716 5.49719 6.2998 5.49719H15.2144ZM15.6367 3.99719H6.2998C4.22874 3.99719 2.5498 5.67612 2.5498 7.74719V18.2998C2.5498 20.3709 4.22874 22.0498 6.2998 22.0498H16.8524C18.9235 22.0498 20.6024 20.3709 20.6024 18.2998V8.96291C21.7611 8.3456 22.5498 7.12534 22.5498 5.72086C22.5498 3.69339 20.9062 2.0498 18.8788 2.0498C17.4743 2.0498 16.254 2.83852 15.6367 3.99719Z" fill="black"/>
</svg>
