<svg width="24" height="24" viewBox="0 0 24 24" fill="none" xmlns="http://www.w3.org/2000/svg">
<path fill-rule="evenodd" clip-rule="evenodd" d="M12.0001 22.0499C10.1658 22.0499 8.39025 21.4023 6.98675 20.2211L6.86431 20.1181C6.21258 19.5696 6.38421 18.5237 7.17712 18.2123L8.99163 17.4997C9.37591 17.3488 9.59246 16.9398 9.50134 16.5371C9.3839 16.0184 8.81829 15.7397 8.33544 15.9628L7.03783 16.5624C4.9508 17.5267 2.49017 16.4505 1.78136 14.2634C0.761223 11.1154 0.815056 7.71777 1.9345 4.60363L2.23882 3.75701C2.55431 2.87945 3.74322 2.75317 4.23602 3.54486L8.06695 9.6997L7.90276 10.1296C7.63519 10.8302 8.22796 11.5572 8.96813 11.4361C9.43829 11.3592 9.7835 10.9529 9.7835 10.4765V8.99371C9.7835 8.45037 9.34301 8.00994 8.79974 8.00994H8.66247C7.7976 8.00994 7.20843 7.13366 7.53472 6.3327L7.69292 5.94439C7.96819 5.26879 8.5006 4.73022 9.17309 4.44726L10.1189 4.04925C10.7747 3.77337 11.5093 3.92645 12.0001 4.39038C12.491 3.92645 13.2256 3.77337 13.8813 4.04925L14.8271 4.44726C15.4996 4.73022 16.032 5.26879 16.3073 5.94439L16.4655 6.3327C16.7918 7.13366 16.2026 8.00994 15.3378 8.00994H15.2006C14.6572 8.00994 14.2167 8.45037 14.2167 8.99371V10.4765C14.2167 10.9529 14.5619 11.3592 15.0321 11.4361C15.7723 11.5572 16.365 10.8302 16.0975 10.1296L15.9333 9.6997L19.7642 3.54486C20.257 2.75317 21.4459 2.87945 21.7614 3.75701L22.0657 4.60363C23.1852 7.71777 23.239 11.1154 22.2189 14.2634C21.5101 16.4505 19.0494 17.5267 16.9624 16.5624L15.6648 15.9628C15.1819 15.7397 14.6163 16.0184 14.4989 16.5371C14.4078 16.9398 14.6243 17.3488 15.0086 17.4997L16.8231 18.2123C17.616 18.5237 17.7877 19.5696 17.1359 20.1181L17.0135 20.2211C15.61 21.4023 13.8345 22.0499 12.0001 22.0499ZM3.34606 5.11102L3.38195 5.01129L6.41137 9.87841C5.98223 11.5661 7.42834 13.208 9.21038 12.9164C10.4058 12.7208 11.2835 11.6879 11.2835 10.4765V8.99371C11.2835 7.71533 10.3177 6.66259 9.07604 6.52514L9.08202 6.51037C9.20715 6.20324 9.44921 5.95843 9.75488 5.82983L10.7007 5.43182C10.8215 5.38104 10.9609 5.43206 11.0204 5.54882L11.3318 6.16027C11.4066 6.30719 11.5232 6.41888 11.6597 6.48828L11.6725 6.49462C11.8766 6.5935 12.1229 6.59906 12.3405 6.48828C12.4874 6.41345 12.599 6.29675 12.6684 6.16027L12.9798 5.54882C13.0393 5.43206 13.1788 5.38104 13.2996 5.43182L14.2454 5.82983C14.551 5.95843 14.7931 6.20324 14.9182 6.51037L14.9242 6.52514C13.6825 6.66259 12.7167 7.71533 12.7167 8.99371V10.4765C12.7167 11.6879 13.5944 12.7208 14.7898 12.9164C16.5719 13.208 18.018 11.5661 17.5889 9.87841L20.6183 5.01129L20.6542 5.11102C21.6612 7.91253 21.7096 10.9691 20.7919 13.801C20.3603 15.1326 18.8622 15.7878 17.5915 15.2007L16.2939 14.6012C14.9447 13.9778 13.364 14.7563 13.0359 16.206C12.7812 17.3314 13.3863 18.4741 14.4603 18.8959L15.6668 19.3697C14.6016 20.1348 13.3197 20.5499 12.0001 20.5499C10.6805 20.5499 9.39867 20.1348 8.33343 19.3697L9.53991 18.8959C10.6139 18.4741 11.219 17.3314 10.9643 16.206C10.6362 14.7563 9.05553 13.9778 7.70629 14.6012L6.40868 15.2007C5.13799 15.7878 3.63988 15.1326 3.20831 13.801C2.29058 10.9691 2.33898 7.91253 3.34606 5.11102Z" fill="black"/>
</svg>
