<svg width="24" height="24" viewBox="0 0 24 24" fill="none" xmlns="http://www.w3.org/2000/svg">
<path fill-rule="evenodd" clip-rule="evenodd" d="M2.03027 9.27349C2.03027 5.83624 4.81671 3.0498 8.25396 3.0498H8.45538C11.7814 3.0498 14.4776 5.74606 14.4776 9.07206V9.86828C14.4776 10.6834 14.3221 11.491 14.0194 12.2477C13.7092 13.0232 13.3194 13.7643 12.8561 14.4592L12.5207 14.9624C12.1494 15.5192 11.9513 16.1735 11.9513 16.8427C11.9513 18.8901 10.2916 20.5498 8.24426 20.5498H8.09072C6.12354 20.5498 4.47096 19.0707 4.25372 17.1155L4.14012 16.0932C4.09438 15.6815 4.39103 15.3107 4.80271 15.2649C5.21439 15.2192 5.58521 15.5158 5.63095 15.9275L5.74455 16.9499C5.87738 18.1454 6.88787 19.0498 8.09072 19.0498H8.24426C9.46319 19.0498 10.4513 18.0617 10.4513 16.8427C10.4513 15.8773 10.7371 14.9336 11.2726 14.1303L11.6081 13.6271C12.0137 13.0186 12.3551 12.3697 12.6267 11.6907C12.8585 11.1111 12.9776 10.4925 12.9776 9.86828V9.07206C12.9776 6.57449 10.953 4.5498 8.45538 4.5498H8.25396C5.64514 4.5498 3.53027 6.66467 3.53027 9.27349V9.4998C3.53027 9.91402 3.19449 10.2498 2.78027 10.2498C2.36606 10.2498 2.03027 9.91402 2.03027 9.4998V9.27349ZM8.25394 7.91821C7.52739 7.91821 6.89868 8.59954 6.89868 9.27348C6.89868 9.90999 7.10431 10.2972 7.36919 10.5745C7.90161 11.132 8.58289 11.9599 8.58289 13.0359V14.3261C8.58289 14.7403 8.24711 15.0761 7.83289 15.0761C7.41868 15.0761 7.08289 14.7403 7.08289 14.3261V13.0359C7.08289 12.5967 6.79835 12.1487 6.28439 11.6105C5.75264 11.0537 5.39868 10.2953 5.39868 9.27348C5.39868 7.81568 6.65509 6.41821 8.25394 6.41821C9.8528 6.41821 11.1092 7.81568 11.1092 9.27348C11.1092 9.68769 10.7734 10.0235 10.3592 10.0235C9.94499 10.0235 9.60921 9.68769 9.60921 9.27348C9.60921 8.59954 8.9805 7.91821 8.25394 7.91821ZM16.7842 5.26947C16.4913 4.97658 16.0165 4.97658 15.7236 5.26947C15.4307 5.56237 15.4307 6.03724 15.7236 6.33013L17.7196 8.32612L15.7236 10.3221C15.4307 10.615 15.4307 11.0899 15.7236 11.3828C16.0165 11.6757 16.4913 11.6757 16.7842 11.3828L18.7802 9.38678L20.7762 11.3828C21.0691 11.6757 21.544 11.6757 21.8369 11.3828C22.1298 11.0899 22.1298 10.615 21.8369 10.3221L19.8409 8.32612L21.8369 6.33013C22.1298 6.03724 22.1298 5.56237 21.8369 5.26947C21.544 4.97658 21.0691 4.97658 20.7762 5.26947L18.7802 7.26546L16.7842 5.26947Z" fill="black"/>
</svg>
