<svg width="24" height="24" viewBox="0 0 24 24" fill="none" xmlns="http://www.w3.org/2000/svg">
<path fill-rule="evenodd" clip-rule="evenodd" d="M18.5 4.5H5.5C4.94772 4.5 4.5 4.94772 4.5 5.5V18.5C4.5 19.0523 4.94772 19.5 5.5 19.5H18.5C19.0523 19.5 19.5 19.0523 19.5 18.5V5.5C19.5 4.94772 19.0523 4.5 18.5 4.5ZM5.5 3C4.11929 3 3 4.11929 3 5.5V18.5C3 19.8807 4.11929 21 5.5 21H18.5C19.8807 21 21 19.8807 21 18.5V5.5C21 4.11929 19.8807 3 18.5 3H5.5ZM11 9V11.5H13C13.6904 11.5 14.25 10.9404 14.25 10.25C14.25 9.55964 13.6904 9 13 9H11ZM11 13H13C14.5188 13 15.75 11.7688 15.75 10.25C15.75 8.73122 14.5188 7.5 13 7.5H10.35C9.88056 7.5 9.5 7.88056 9.5 8.35V11.5H8.75C8.33579 11.5 8 11.8358 8 12.25C8 12.6642 8.33579 13 8.75 13H9.5V14H8.75C8.33579 14 8 14.3358 8 14.75C8 15.1642 8.33579 15.5 8.75 15.5H9.5V16.25C9.5 16.6642 9.83579 17 10.25 17C10.6642 17 11 16.6642 11 16.25V15.5H12.25C12.6642 15.5 13 15.1642 13 14.75C13 14.3358 12.6642 14 12.25 14H11V13Z" fill="black"/>
</svg>
