<svg width="24" height="24" viewBox="0 0 24 24" fill="none" xmlns="http://www.w3.org/2000/svg">
<path fill-rule="evenodd" clip-rule="evenodd" d="M4.5 6.5V14.5H19.5V6.5H4.5ZM4 5C3.44772 5 3 5.44771 3 6V15C3 15.5523 3.44772 16 4 16H20C20.5523 16 21 15.5523 21 15V6C21 5.44772 20.5523 5 20 5H4ZM3 18.75C3 18.3358 3.33579 18 3.75 18H20.25C20.6642 18 21 18.3358 21 18.75C21 19.1642 20.6642 19.5 20.25 19.5H3.75C3.33579 19.5 3 19.1642 3 18.75ZM8 9.75C8 9.33579 7.66421 9 7.25 9C6.83579 9 6.5 9.33579 6.5 9.75V11.25C6.5 11.6642 6.83579 12 7.25 12C7.66421 12 8 11.6642 8 11.25V9.75ZM16.75 9C17.1642 9 17.5 9.33579 17.5 9.75V11.25C17.5 11.6642 17.1642 12 16.75 12C16.3358 12 16 11.6642 16 11.25V9.75C16 9.33579 16.3358 9 16.75 9ZM10.8636 10.5C10.8636 9.8724 11.3724 9.36364 12 9.36364C12.6276 9.36364 13.1364 9.8724 13.1364 10.5C13.1364 11.1276 12.6276 11.6364 12 11.6364C11.3724 11.6364 10.8636 11.1276 10.8636 10.5ZM12 8C10.6193 8 9.5 9.11929 9.5 10.5C9.5 11.8807 10.6193 13 12 13C13.3807 13 14.5 11.8807 14.5 10.5C14.5 9.11929 13.3807 8 12 8Z" fill="black"/>
</svg>
