<svg width="24" height="24" viewBox="0 0 24 24" fill="none" xmlns="http://www.w3.org/2000/svg">
<path fill-rule="evenodd" clip-rule="evenodd" d="M6.5 4.5H17.5C17.7761 4.5 18 4.72386 18 5V19C18 19.2761 17.7761 19.5 17.5 19.5H6.5C6.22386 19.5 6 19.2761 6 19V5C6 4.72386 6.22386 4.5 6.5 4.5ZM4.5 5C4.5 3.89543 5.39543 3 6.5 3H17.5C18.6046 3 19.5 3.89543 19.5 5V19C19.5 20.1046 18.6046 21 17.5 21H6.5C5.39543 21 4.5 20.1046 4.5 19V5ZM16 8.5H8V7H16V8.5ZM12.8712 13.604L12.0379 16.1041C11.7984 16.8225 10.8099 16.8928 10.4712 16.2155L9.78648 15.0265L8.75 15.0267C8.33579 15.0267 8 14.6909 8 14.2767C8 13.8625 8.33579 13.5267 8.75 13.5267L10.1882 13.5265C10.5102 13.5265 10.8045 13.7084 10.9485 13.9964L11.1111 14.3216L11.9598 11.5949C12.202 10.8682 13.2064 10.8076 13.5343 11.4999L14.7246 14.0127H15.25C15.6642 14.0127 16 14.3485 16 14.7627C16 15.1769 15.6642 15.5127 15.25 15.5127H14.3133C13.9848 15.5127 13.6857 15.3234 13.5451 15.0265L12.8712 13.604Z" fill="black"/>
</svg>
