<svg width="24" height="24" viewBox="0 0 24 24" fill="none" xmlns="http://www.w3.org/2000/svg">
<path fill-rule="evenodd" clip-rule="evenodd" d="M17.5 2.5H16.5C15.3954 2.5 14.5 3.39543 14.5 4.5V7.5H13.5C13.5 6.39543 12.6046 5.5 11.5 5.5H10.5C9.39543 5.5 8.5 6.39543 8.5 7.5V9.5H7.5C7.41253 9.5 7.32638 9.50561 7.24188 9.5165C6.89848 8.90961 6.24707 8.5 5.5 8.5H4.5C3.39543 8.5 2.5 9.39543 2.5 10.5V14.5C2.5 15.6046 3.39543 16.5 4.5 16.5H20.5C21.6046 16.5 22.5 15.6046 22.5 14.5V9.5C22.5 8.39543 21.6046 7.5 20.5 7.5H19.5V4.5C19.5 3.39543 18.6046 2.5 17.5 2.5ZM16.438 14.9962C16.1911 14.9656 16 14.7551 16 14.5V4.5C16 4.22386 16.2239 4 16.5 4H17.5C17.7761 4 18 4.22386 18 4.5V14.5C18 14.7551 17.8089 14.9656 17.562 14.9962C17.5417 14.9987 17.521 15 17.5 15H16.5C16.479 15 16.4583 14.9987 16.438 14.9962ZM13.5 9H14.5C14.7761 9 15 9.22386 15 9.5V14.5C15 14.7551 14.8089 14.9656 14.562 14.9962C14.5417 14.9987 14.521 15 14.5 15H13.5C13.479 15 13.4583 14.9987 13.438 14.9962C13.1911 14.9656 13 14.7551 13 14.5V9.5C13 9.22386 13.2239 9 13.5 9ZM11.5 7C11.7761 7 12 7.22386 12 7.5V14.5C12 14.7551 11.8089 14.9656 11.562 14.9962C11.5417 14.9987 11.521 15 11.5 15H10.5C10.479 15 10.4583 14.9987 10.438 14.9962C10.1911 14.9656 10 14.7551 10 14.5V7.5C10 7.22386 10.2239 7 10.5 7H11.5ZM7.5 11H8.5C8.77614 11 9 11.2239 9 11.5V14.5C9 14.7551 8.8089 14.9656 8.56203 14.9962C8.54171 14.9987 8.52101 15 8.5 15H7.5C7.47899 15 7.45829 14.9987 7.43797 14.9962C7.1911 14.9656 7 14.7551 7 14.5V11.5C7 11.2239 7.22386 11 7.5 11ZM5.5 10C5.68674 10 5.84956 10.1024 5.93542 10.254C5.97653 10.3267 6 10.4106 6 10.5V14.5C6 14.7551 5.8089 14.9656 5.56203 14.9962C5.54171 14.9987 5.52101 15 5.5 15H4.5C4.22386 15 4 14.7761 4 14.5V10.5C4 10.2239 4.22386 10 4.5 10H5.5ZM19.5 15C19.479 15 19.4583 14.9987 19.438 14.9962C19.1911 14.9656 19 14.7551 19 14.5V9.5C19 9.22386 19.2239 9 19.5 9H20.5C20.7761 9 21 9.22386 21 9.5V14.5C21 14.7761 20.7761 15 20.5 15H19.5Z" fill="black"/>
<path d="M2.5 18.75C2.5 18.3358 2.83579 18 3.25 18H21.75C22.1642 18 22.5 18.3358 22.5 18.75C22.5 19.1642 22.1642 19.5 21.75 19.5H3.25C2.83579 19.5 2.5 19.1642 2.5 18.75Z" fill="black"/>
</svg>
