<svg width="24" height="24" viewBox="0 0 24 24" fill="none" xmlns="http://www.w3.org/2000/svg">
<path fill-rule="evenodd" clip-rule="evenodd" d="M14.7499 12.119L9.8985 14.5446C9.59889 14.6944 9.25595 14.75 8.95386 14.75C8.65177 14.75 8.30883 14.6944 8.00922 14.5446L1.91694 11.4985C1.64258 11.3613 1.25 11.0518 1.25 10.5231C1.25 9.99437 1.64258 9.68482 1.91694 9.54764L14.1015 3.45535C14.4011 3.30555 14.7441 3.25 15.0461 3.25C15.3482 3.25 15.6912 3.30555 15.9908 3.45535L22.0831 6.5015C22.3574 6.63868 22.75 6.94823 22.75 7.47694C22.75 8.00563 22.3574 8.31518 22.0831 8.45236L16.2499 11.369V13.1447L21.654 10.3346C22.0215 10.1435 22.4743 10.2865 22.6654 10.654C22.8565 11.0215 22.7135 11.4743 22.346 11.6654L16.2499 14.8354V16.6447L21.654 13.8346C22.0215 13.6435 22.4743 13.7865 22.6654 14.154C22.8565 14.5215 22.7135 14.9743 22.346 15.1654L9.84934 21.6637C9.51508 21.8411 9.07474 21.8855 8.74992 21.8855C8.42718 21.8855 7.99038 21.8416 7.65692 21.6671L1.66451 18.6709C1.29403 18.4856 1.14386 18.0351 1.3291 17.6646C1.51434 17.2941 1.96485 17.144 2.33533 17.3292L8.34501 20.3341L8.35097 20.3372L8.35359 20.3381C8.36248 20.341 8.39446 20.3518 8.45711 20.3626C8.53884 20.3768 8.64083 20.3855 8.74992 20.3855C8.85901 20.3855 8.96101 20.3768 9.04273 20.3626C9.10552 20.3517 9.13778 20.3408 9.14669 20.3378L9.14929 20.337L9.15388 20.3346L14.7499 17.4247V15.6154L9.84934 18.1637C9.51508 18.3411 9.07474 18.3855 8.74992 18.3855C8.42718 18.3855 7.99038 18.3416 7.65692 18.1671L1.66451 15.1709C1.29403 14.9856 1.14386 14.5351 1.3291 14.1646C1.51434 13.7941 1.96485 13.644 2.33533 13.8292L8.34501 16.8341L8.35097 16.8372L8.35359 16.8381C8.36248 16.841 8.39446 16.8518 8.45711 16.8626C8.53884 16.8768 8.64083 16.8855 8.74992 16.8855C8.85901 16.8855 8.96101 16.8768 9.04273 16.8626C9.1055 16.8517 9.13777 16.8408 9.14668 16.8378L9.14929 16.837L9.15388 16.8346L14.7499 13.9247V12.119ZM14.7723 4.797C14.8092 4.77857 14.9072 4.75 15.0461 4.75C15.185 4.75 15.2831 4.77857 15.32 4.797L20.6798 7.47693L15.9053 9.86419L10.2716 7.04735L14.7723 4.797ZM8.59457 7.88587L3.32017 10.5231L8.68004 13.203C8.7169 13.2214 8.81495 13.25 8.95386 13.25C9.09277 13.25 9.19082 13.2214 9.22768 13.203L14.2283 10.7027L8.59457 7.88587Z" fill="black"/>
</svg>
