<svg width="24" height="24" viewBox="0 0 24 24" fill="none" xmlns="http://www.w3.org/2000/svg">
<path fill-rule="evenodd" clip-rule="evenodd" d="M8.4248 6.22183C8.4248 4.17232 10.0584 2.53027 12.0498 2.53027C14.0412 2.53027 15.6748 4.17232 15.6748 6.22183C15.6748 6.44554 15.6553 6.664 15.6182 6.87571L15.4831 7.64685L16.2593 7.7488C18.3888 8.0285 20.0498 9.88224 20.0498 12.1439C20.0498 14.6023 18.0897 16.5757 15.6956 16.5757C15.2814 16.5757 14.9456 16.9115 14.9456 17.3257C14.9456 17.7399 15.2814 18.0757 15.6956 18.0757C18.9394 18.0757 21.5498 15.4092 21.5498 12.1439C21.5498 9.39156 19.6969 7.06678 17.1718 6.40237C17.1738 6.34242 17.1748 6.28223 17.1748 6.22183C17.1748 3.36533 14.8909 1.03027 12.0498 1.03027C9.20871 1.03027 6.9248 3.36533 6.9248 6.22183C6.9248 6.28223 6.92583 6.34242 6.92785 6.40237C4.40273 7.06678 2.5498 9.39156 2.5498 12.1439C2.5498 15.4092 5.16017 18.0757 8.40397 18.0757C8.81819 18.0757 9.15397 17.7399 9.15397 17.3257C9.15397 16.9115 8.81819 16.5757 8.40397 16.5757C6.00987 16.5757 4.0498 14.6023 4.0498 12.1439C4.0498 9.88224 5.7108 8.0285 7.8403 7.7488L8.61654 7.64685L8.48137 6.87571C8.44426 6.664 8.4248 6.44554 8.4248 6.22183ZM9.53794 12.2579C9.24945 11.9607 8.77463 11.9536 8.4774 12.2421C8.18017 12.5306 8.17308 13.0054 8.46157 13.3026L11.2498 16.1753V21.2803C11.2498 21.6945 11.5855 22.0303 11.9998 22.0303C12.414 22.0303 12.7498 21.6945 12.7498 21.2803V15.8749C12.7498 15.8724 12.7498 15.8699 12.7498 15.8673V14.8825L16.0861 12.3803C16.4175 12.1317 16.4846 11.6616 16.2361 11.3303C15.9876 10.9989 15.5175 10.9317 15.1861 11.1803L12.7498 13.0075V9.78027C12.7498 9.36606 12.414 9.03027 11.9998 9.03027C11.5855 9.03027 11.2498 9.36606 11.2498 9.78027V14.0216L9.53794 12.2579Z" fill="black"/>
</svg>
