<svg width="24" height="24" viewBox="0 0 24 24" fill="none" xmlns="http://www.w3.org/2000/svg">
<path d="M7 7.03125C7 4.80485 8.80485 3 11.0312 3C12.8431 3 14.3739 4.19474 14.8826 5.83757C15.0052 6.23325 14.7837 6.65334 14.388 6.77586C13.9924 6.89838 13.5723 6.67694 13.4498 6.28127C13.13 5.24868 12.1671 4.5 11.0312 4.5C9.63328 4.5 8.5 5.63328 8.5 7.03125V8.03125C8.5 9.2784 9.40269 10.3162 10.5904 10.5244C10.9984 10.5959 11.2712 10.9846 11.1997 11.3926C11.1282 11.8006 10.7395 12.0734 10.3315 12.0019C8.43857 11.6701 7 10.0195 7 8.03125V7.03125Z" fill="black"/>
<path d="M6.75 15.5C4.95507 15.5 3.5 16.9551 3.5 18.75V19.75C3.5 19.8881 3.61193 20 3.75 20H13.2486C13.6629 20 13.9986 20.3358 13.9986 20.75C13.9986 21.1642 13.6629 21.5 13.2486 21.5H3.75C2.7835 21.5 2 20.7165 2 19.75V18.75C2 16.1266 4.12665 14 6.75 14H10.75C11.1642 14 11.5 14.3358 11.5 14.75C11.5 15.1642 11.1642 15.5 10.75 15.5H6.75Z" fill="black"/>
<path fill-rule="evenodd" clip-rule="evenodd" d="M20.0216 7.91136C19.8984 7.8141 19.7339 7.70902 19.5371 7.64844C19.3361 7.58654 19.0485 7.55756 18.7582 7.70287C18.4673 7.84848 18.3073 8.10224 18.2248 8.33132C18.1441 8.55511 18.1167 8.80613 18.1167 9.06232V11.4039H15.8833V9.06232C15.8833 8.56582 15.7418 7.93908 15.1369 7.70954C14.8738 7.60966 14.6249 7.63588 14.4499 7.68443C14.275 7.73299 14.1213 7.81731 14.0026 7.91076C12.8279 8.83589 12.25 10.0368 12.25 11.6085C12.25 13.4889 13.4727 15.0378 14.9167 15.8783V20.335C14.9167 20.7492 15.2525 21.085 15.6667 21.085H18.3333C18.7475 21.085 19.0833 20.7492 19.0833 20.335V15.8783C20.5273 15.0378 21.75 13.4889 21.75 11.6085C21.75 10.0424 21.1688 8.81721 20.0216 7.91136ZM19.6167 11.6085V9.60333C20.0364 10.1266 20.25 10.771 20.25 11.6085C20.25 12.9318 19.2739 14.1524 18.0129 14.7482L17.5833 14.9512V19.585H16.4167V14.9512L15.9871 14.7482C14.7261 14.1524 13.75 12.9318 13.75 11.6085C13.75 10.7778 13.9559 10.147 14.3833 9.6206V11.6085C14.3833 12.308 14.9422 12.9039 15.6667 12.9039H18.3333C19.0578 12.9039 19.6167 12.308 19.6167 11.6085Z" fill="black"/>
</svg>
