<svg width="24" height="24" viewBox="0 0 24 24" fill="none" xmlns="http://www.w3.org/2000/svg">
<path fill-rule="evenodd" clip-rule="evenodd" d="M3.12858 9C3.63298 8.38925 4.39603 8 5.25 8H8.75C9.60397 8 10.367 8.38925 10.8714 9H13.1286C13.633 8.38925 14.396 8 15.25 8H18.75C19.604 8 20.367 8.38925 20.8714 9H21.75C22.1642 9 22.5 9.33579 22.5 9.75C22.5 10.1642 22.1642 10.5 21.75 10.5H21.4888C21.4962 10.5823 21.5 10.6657 21.5 10.75V12.75C21.5 14.8211 19.8211 16.5 17.75 16.5H16.25C14.1789 16.5 12.5 14.8211 12.5 12.75V10.75C12.5 10.6657 12.5038 10.5823 12.5112 10.5H11.4888C11.4962 10.5823 11.5 10.6657 11.5 10.75V12.75C11.5 14.8211 9.82107 16.5 7.75 16.5H6.25C4.17893 16.5 2.5 14.8211 2.5 12.75V10.75C2.5 10.6657 2.50379 10.5823 2.51121 10.5H2.25C1.83579 10.5 1.5 10.1642 1.5 9.75C1.5 9.33579 1.83579 9 2.25 9H3.12858ZM5.25 9.5C4.55964 9.5 4 10.0596 4 10.75V12.75C4 13.9926 5.00736 15 6.25 15H7.75C8.99264 15 10 13.9926 10 12.75V10.75C10 10.0596 9.44036 9.5 8.75 9.5H5.25ZM15.25 9.5C14.5596 9.5 14 10.0596 14 10.75V12.75C14 13.9926 15.0074 15 16.25 15H17.75C18.9926 15 20 13.9926 20 12.75V10.75C20 10.0596 19.4404 9.5 18.75 9.5H15.25Z" fill="black"/>
</svg>
