<svg width="24" height="24" viewBox="0 0 24 24" fill="none" xmlns="http://www.w3.org/2000/svg">
<path fill-rule="evenodd" clip-rule="evenodd" d="M19.5303 5.53033C19.8232 5.23744 19.8232 4.76256 19.5303 4.46967C19.2374 4.17678 18.7626 4.17678 18.4697 4.46967L13.5 9.43934L9.10103 5.04038C8.76908 4.70843 8.23089 4.70844 7.89895 5.04038L5.04037 7.89896C4.70842 8.23091 4.70843 8.7691 5.04037 9.10104L9.43934 13.5L4.46967 18.4697C4.17678 18.7626 4.17678 19.2374 4.46967 19.5303C4.76256 19.8232 5.23744 19.8232 5.53033 19.5303L19.5303 5.53033ZM10.5 12.4393L12.4393 10.5L11.25 9.31066L9.31065 11.25L10.5 12.4393ZM8.24999 10.1893L10.1893 8.25L8.49999 6.56066L6.56065 8.5L8.24999 10.1893ZM16.2803 12.2197C15.9874 11.9268 15.5126 11.9268 15.2197 12.2197C14.9268 12.5126 14.9268 12.9874 15.2197 13.2803L17.5 15.5607V17.5H15.5607L13.2803 15.2197C12.9874 14.9268 12.5126 14.9268 12.2197 15.2197C11.9268 15.5126 11.9268 15.9874 12.2197 16.2803L14.6904 18.751C14.8498 18.9104 15.066 19 15.2914 19H18.15C18.6194 19 19 18.6194 19 18.15V15.2914C19 15.066 18.9104 14.8498 18.751 14.6904L16.2803 12.2197Z" fill="black"/>
</svg>
