<svg width="24" height="24" viewBox="0 0 24 24" fill="none" xmlns="http://www.w3.org/2000/svg">
<path fill-rule="evenodd" clip-rule="evenodd" d="M4.5 4.25C4.5 3.83579 4.16421 3.5 3.75 3.5C3.33579 3.5 3 3.83579 3 4.25V20.15C3 20.6194 3.38055 21 3.85 21H19.75C20.1642 21 20.5 20.6642 20.5 20.25C20.5 19.8358 20.1642 19.5 19.75 19.5H4.5V4.25ZM19.9999 6.52311C20.2054 6.16347 20.0805 5.70533 19.7208 5.49982C19.3612 5.29432 18.903 5.41926 18.6975 5.7789L15.245 11.8208L14.0242 10.2947C13.6542 9.83218 12.9364 9.88046 12.6316 10.3884L10.1998 14.4414L9.4653 13.7069C9.08601 13.3276 8.45455 13.3902 8.15701 13.8365L6.22467 16.735C5.99491 17.0796 6.08804 17.5453 6.43269 17.775C6.77733 18.0048 7.24299 17.9117 7.47275 17.567L8.96528 15.3282L9.72782 16.0908C10.1188 16.4818 10.7732 16.4012 11.0577 15.927L13.4369 11.9618L14.6711 13.5046C15.046 13.9732 15.7752 13.9163 16.0729 13.3954L19.9999 6.52311Z" fill="black"/>
</svg>
