<svg width="24" height="24" viewBox="0 0 24 24" fill="none" xmlns="http://www.w3.org/2000/svg">
<path fill-rule="evenodd" clip-rule="evenodd" d="M6.01684 17.0239C6.83672 17.5308 7.83844 18.0425 8.93108 18.4951H3.77637C3.6383 18.4951 3.52637 18.3832 3.52637 18.2451V17C3.52637 16.5858 3.19058 16.25 2.77637 16.25C2.36215 16.25 2.02637 16.5858 2.02637 17V18.2451C2.02637 19.2116 2.80987 19.9951 3.77637 19.9951H15.252C15.3351 19.9971 15.4177 19.998 15.4999 19.998H17.9999C19.1539 19.998 20.1615 19.8402 20.9032 19.3887C21.3017 19.1461 21.6619 18.7938 21.8743 18.312C22.0879 17.8273 22.0959 17.3382 22.0035 16.9225C21.8324 16.153 21.3154 15.5694 20.8691 15.2146C20.69 15.0722 20.4725 14.9271 20.2264 14.805C20.1321 14.5949 20.0221 14.4027 19.9109 14.2329C19.5947 13.75 19.1712 13.2983 18.6958 12.912C17.7667 12.1571 16.4432 11.498 14.9999 11.498H11.1026L9.07181 5.00031L11.229 5.00025C11.6432 5.00027 11.979 4.66446 11.979 4.2502C11.979 3.83594 11.6433 3.5001 11.2291 3.50007L7.55908 3.50018C7.53941 3.49941 7.51967 3.49902 7.49986 3.49902H6.49986C6.47963 3.49902 6.45949 3.49942 6.43946 3.50022L2.75004 3.50033C2.33582 3.50031 2.00002 3.83611 2 4.25038C1.99998 4.66464 2.33575 5.00048 2.74996 5.0005L4.99986 5.00043V11.6648C4.77231 11.7267 4.55496 11.8097 4.35469 11.9197C4.01312 12.1073 3.64661 12.4159 3.43302 12.8968C3.21597 13.3856 3.23747 13.8705 3.3428 14.2543C3.52887 14.9325 4.01862 15.4718 4.41325 15.8379C4.85448 16.2473 5.40926 16.6483 6.01684 17.0239ZM6.49986 12.998C1.08384 12.998 9.5717 18.3518 15.2696 18.4951H17.4999C17.5224 18.4951 17.5446 18.4961 17.5666 18.498H17.9999C22.2748 18.498 20.1633 15.998 18.9998 15.998L18.9998 15.9961H16.2578C15.8436 15.9961 15.5078 15.6603 15.5078 15.2461C15.5078 14.8319 15.8436 14.4961 16.2578 14.4961H18.2067C17.4407 13.6962 16.2204 12.998 14.9999 12.998H9.99986L7.50027 5.00036L6.49986 5.00039V12.998Z" fill="black"/>
</svg>
