<svg width="24" height="24" viewBox="0 0 24 24" fill="none" xmlns="http://www.w3.org/2000/svg">
<path fill-rule="evenodd" clip-rule="evenodd" d="M6.5 4.5V19.5H17.5V4.5H6.5ZM5.5 3C5.22386 3 5 3.22386 5 3.5V20.5C5 20.7761 5.22386 21 5.5 21H18.5C18.7761 21 19 20.7761 19 20.5V3.5C19 3.22386 18.7761 3 18.5 3H5.5ZM15.5 15V16.5H8.5V15H15.5ZM14 10C14 11.1046 13.1046 12 12 12C10.8954 12 10 11.1046 10 10C10 8.89543 10.8954 8 12 8C13.1046 8 14 8.89543 14 10ZM15.5 10C15.5 11.933 13.933 13.5 12 13.5C10.067 13.5 8.5 11.933 8.5 10C8.5 8.067 10.067 6.5 12 6.5C13.933 6.5 15.5 8.067 15.5 10Z" fill="black"/>
</svg>
