<svg width="24" height="24" viewBox="0 0 24 24" fill="none" xmlns="http://www.w3.org/2000/svg">
<path d="M10.9391 16.0605L7.93909 13.0605L8.99975 12L11.9998 15L10.9391 16.0605Z" fill="black"/>
<path d="M14.9999 10C15.5521 10 15.9999 9.55225 15.9999 9C15.9999 8.44775 15.5521 8 14.9999 8C14.4476 8 13.9999 8.44775 13.9999 9C13.9999 9.55225 14.4476 10 14.9999 10Z" fill="black"/>
<path fill-rule="evenodd" clip-rule="evenodd" d="M16.7494 5.00049C17.992 5.00049 18.9993 6.00781 18.9994 7.25L18.9997 12.1289C18.9997 12.7256 18.7626 13.2979 18.3406 13.7197L11.3501 20.71C11.0182 21.042 10.48 21.042 10.1481 20.71L3.28946 13.8516C2.95755 13.5195 2.95755 12.9814 3.28946 12.6494L10.2798 5.65918C10.7018 5.2373 11.2741 5 11.8709 5L16.7494 5.00049ZM17.4994 7.25049C17.4994 6.83594 17.1636 6.50049 16.7494 6.50049L11.8709 6.5C11.7698 6.5 11.6708 6.52051 11.5795 6.55908C11.491 6.59619 11.4097 6.65039 11.3405 6.71973L4.80984 13.2505L10.7491 19.1899L17.2799 12.6592C17.314 12.625 17.3445 12.5879 17.3711 12.5483C17.4544 12.4253 17.4997 12.2793 17.4997 12.1289L17.4994 7.25049Z" fill="black"/>
</svg>
