<svg width="24" height="24" viewBox="0 0 24 24" fill="none" xmlns="http://www.w3.org/2000/svg">
<path fill-rule="evenodd" clip-rule="evenodd" d="M11.959 5.75C8.06554 5.75 4.94556 8.81326 4.94556 12.5478C4.94556 14.3657 5.68104 16.0187 6.88631 17.242C6.93769 17.2941 6.98994 17.3455 7.04306 17.3961C7.34296 17.6818 7.35446 18.1565 7.06874 18.4564C6.78303 18.7563 6.30829 18.7678 6.00839 18.4821C5.9439 18.4207 5.88037 18.3582 5.81784 18.2948C4.35153 16.8066 3.44556 14.7812 3.44556 12.5478C3.44556 7.94528 7.27722 4.25 11.959 4.25C16.6408 4.25 20.4725 7.94528 20.4725 12.5478C20.4725 14.7812 19.5665 16.8066 18.1002 18.2948C17.8095 18.5898 17.3346 18.5933 17.0396 18.3026C16.7445 18.0119 16.741 17.537 17.0317 17.242C18.237 16.0187 18.9725 14.3657 18.9725 12.5478C18.9725 8.81326 15.8525 5.75 11.959 5.75ZM3.03027 20.726C3.03027 20.3118 3.36606 19.976 3.78027 19.976H20.2803C20.6945 19.976 21.0303 20.3118 21.0303 20.726C21.0303 21.1402 20.6945 21.476 20.2803 21.476H3.78027C3.36606 21.476 3.03027 21.1402 3.03027 20.726ZM8.92688 13.0779C8.92688 12.3615 9.54562 11.7219 10.3832 11.7219C10.7249 11.7219 11.105 11.9224 11.4358 12.2446L11.9591 12.7543L12.4824 12.2446C12.8131 11.9224 13.1932 11.7219 13.535 11.7219C14.3725 11.7219 14.9913 12.3615 14.9913 13.0779C14.9913 13.4742 14.8452 13.8037 14.5986 14.0344L12.2698 16.2573C12.0959 16.4233 11.8223 16.4233 11.6484 16.2573L9.35404 14.0672L9.3485 14.062L9.33057 14.0449C9.08434 13.8051 8.92688 13.4477 8.92688 13.0779ZM10.3832 10.2219C8.78372 10.2219 7.42688 11.4681 7.42688 13.0779C7.42688 13.8557 7.75027 14.5996 8.28392 15.1194C8.29612 15.1313 8.30843 15.1431 8.32083 15.1547L10.6127 17.3424C11.3662 18.0616 12.552 18.0616 13.3055 17.3424L15.6262 15.1271C16.1949 14.5936 16.4913 13.8588 16.4913 13.0779C16.4913 11.4681 15.1344 10.2219 13.535 10.2219C12.9249 10.2219 12.388 10.4508 11.9591 10.7418C11.5302 10.4508 10.9933 10.2219 10.3832 10.2219Z" fill="black"/>
</svg>
