<svg width="24" height="24" viewBox="0 0 24 24" fill="none" xmlns="http://www.w3.org/2000/svg">
<path d="M10 5.5C10 4.94772 10.4477 4.5 11 4.5H12C12.5523 4.5 13 4.94772 13 5.5C13 6.05228 12.5523 6.5 12 6.5H11C10.4477 6.5 10 6.05228 10 5.5Z" fill="black"/>
<path fill-rule="evenodd" clip-rule="evenodd" d="M8.5 2C8.11281 2 7.78926 2.29473 7.75325 2.68025L7.28334 8.21089C7.26722 8.35358 7.25685 8.4979 7.25244 8.64359L7.25186 8.65171C7.24997 8.67852 7.24953 8.70528 7.2505 8.73187C7.25017 8.75609 7.25 8.78034 7.25 8.80463C7.25 11.4298 9.25532 13.5808 11.75 13.9455V20H8.75C8.33579 20 8 20.3358 8 20.75C8 21.1642 8.33579 21.5 8.75 21.5H16.25C16.6642 21.5 17 21.1642 17 20.75C17 20.3358 16.6642 20 16.25 20H13.25V13.9455C15.7447 13.5808 17.75 11.4298 17.75 8.80463C17.75 8.78034 17.7498 8.7561 17.7495 8.73189C17.7505 8.70449 17.75 8.67692 17.748 8.64929L17.7476 8.64408C17.7428 8.48707 17.7312 8.33164 17.7129 8.17814L17.2468 2.68036C17.2108 2.2948 16.8872 2 16.5 2H8.5ZM8.75092 8.72091L8.75107 8.71099L8.7514 8.70108C8.7544 8.59045 8.76218 8.4812 8.77451 8.3735L8.77614 8.3579L9.18321 3.5H15.8167L16.2203 8.32743L16.2225 8.3482C16.2366 8.46452 16.2454 8.58268 16.2486 8.70244L16.2489 8.71165L16.2491 8.72091C16.2497 8.74874 16.25 8.77665 16.25 8.80463C16.25 10.8311 14.531 12.5 12.5 12.5C10.469 12.5 8.75 10.8311 8.75 8.80463C8.75 8.77664 8.75031 8.74873 8.75092 8.72091Z" fill="black"/>
</svg>
