<svg width="24" height="24" viewBox="0 0 24 24" fill="none" xmlns="http://www.w3.org/2000/svg">
<path fill-rule="evenodd" clip-rule="evenodd" d="M2.5 3.75C2.5 3.33579 2.83579 3 3.25 3H4.75C5.99264 3 7 4.00736 7 5.25V13H16.75C17.7165 13 18.5 12.2165 18.5 11.25V6.5H10.25C9.83579 6.5 9.5 6.16421 9.5 5.75C9.5 5.33579 9.83579 5 10.25 5H19.15C19.6194 5 20 5.38056 20 5.85V11.25C20 13.0449 18.5449 14.5 16.75 14.5H7V17.25C7 17.6642 7.33579 18 7.75 18H19.25C19.6642 18 20 18.3358 20 18.75C20 19.1642 19.6642 19.5 19.25 19.5H18V20.25C18 20.6642 17.6642 20.9999 17.25 20.9999C16.8358 20.9999 16.5 20.6642 16.5 20.25V19.5H9V20.2501C9 20.6643 8.66421 21.0001 8.25 21.0001C7.83579 21.0001 7.5 20.6643 7.5 20.2501V19.4863C6.37501 19.3619 5.5 18.4081 5.5 17.25V5.25C5.5 4.83579 5.16421 4.5 4.75 4.5H3.25C2.83579 4.5 2.5 4.16421 2.5 3.75Z" fill="black"/>
</svg>
