<svg width="24" height="24" viewBox="0 0 24 24" fill="none" xmlns="http://www.w3.org/2000/svg">
<path fill-rule="evenodd" clip-rule="evenodd" d="M3.5 5.5V16.5H20.5V5.5H3.5ZM2 5V17C2 17.5523 2.44772 18 3 18H21C21.5523 18 22 17.5523 22 17V5C22 4.44772 21.5523 4 21 4H3C2.44772 4 2 4.44772 2 5ZM2 20.25C2 19.8358 2.33579 19.5 2.75 19.5H21.25C21.6642 19.5 22 19.8358 22 20.25C22 20.6642 21.6642 21 21.25 21H2.75C2.33579 21 2 20.6642 2 20.25ZM9 9.49963C8.72386 9.49963 8.5 9.72349 8.5 9.99963C8.5 10.2758 8.72386 10.4996 9 10.4996H9.52559C9.50851 10.6642 9.5 10.8313 9.5 11C9.5 11.1687 9.50849 11.3357 9.52555 11.5001H9C8.72386 11.5001 8.5 11.7239 8.5 12.0001C8.5 12.2762 8.72386 12.5001 9 12.5001H9.74978C9.8844 12.8738 10.0739 13.2181 10.3194 13.5172C10.8787 14.1986 11.7025 14.6111 12.7222 14.6111C13.5446 14.6111 14.3052 14.3435 14.9176 13.8911C15.1397 13.727 15.1868 13.4139 15.0227 13.1918C14.8586 12.9697 14.5455 12.9227 14.3234 13.0868C13.8782 13.4157 13.3247 13.6111 12.7222 13.6111C11.9947 13.6111 11.4572 13.3272 11.0923 12.8827C10.9979 12.7676 10.9133 12.6396 10.8397 12.5001H12C12.2761 12.5001 12.5 12.2762 12.5 12.0001C12.5 11.7239 12.2761 11.5001 12 11.5001H10.5323C10.511 11.3397 10.5 11.1727 10.5 11C10.5 10.8273 10.511 10.6601 10.5323 10.4996H12C12.2761 10.4996 12.5 10.2758 12.5 9.99963C12.5 9.72349 12.2761 9.49963 12 9.49963H10.8399C10.9134 9.36028 10.9979 9.23237 11.0923 9.11738C11.4572 8.67282 11.9947 8.38892 12.7222 8.38892C13.3247 8.38892 13.8782 8.58434 14.3234 8.91329C14.5455 9.07738 14.8586 9.03035 15.0227 8.80825C15.1868 8.58614 15.1397 8.27307 14.9176 8.10899C14.3052 7.65653 13.5446 7.38892 12.7222 7.38892C11.7025 7.38892 10.8787 7.80146 10.3194 8.4829C10.074 8.78188 9.88452 9.12599 9.74991 9.49963H9ZM6.25 9.5C6.66421 9.5 7 9.83579 7 10.25V11.75C7 12.1642 6.66421 12.5 6.25 12.5C5.83579 12.5 5.5 12.1642 5.5 11.75V10.25C5.5 9.83579 5.83579 9.5 6.25 9.5ZM18.5 10.25C18.5 9.83579 18.1642 9.5 17.75 9.5C17.3358 9.5 17 9.83579 17 10.25V11.75C17 12.1642 17.3358 12.5 17.75 12.5C18.1642 12.5 18.5 12.1642 18.5 11.75V10.25Z" fill="black"/>
</svg>
