<svg width="24" height="24" viewBox="0 0 24 24" fill="none" xmlns="http://www.w3.org/2000/svg">
<path fill-rule="evenodd" clip-rule="evenodd" d="M11.9999 4.25C12.4141 4.25 12.7499 4.58579 12.7499 5V20.2308C12.7499 20.645 12.4141 20.9808 11.9999 20.9808C11.5857 20.9808 11.2499 20.645 11.2499 20.2308V5C11.2499 4.58579 11.5857 4.25 11.9999 4.25ZM2.64067 5.86475C3.15304 5.37161 3.83653 5.09613 4.54766 5.09613H8.33322C9.02358 5.09613 9.58322 5.65577 9.58322 6.34613V10.0461C9.58322 10.7365 9.02358 11.2961 8.33322 11.2961H4.54766C3.83653 11.2961 3.15304 11.0207 2.64067 10.5275L1.5284 9.45701C0.813122 8.76859 0.813125 7.62367 1.5284 6.93525L2.64067 5.86475ZM4.54766 6.59613C4.22442 6.59613 3.91374 6.72135 3.68084 6.9455L2.56858 8.016C2.4664 8.11435 2.4664 8.27791 2.56858 8.37626L3.68084 9.44676C3.91374 9.67091 4.22442 9.79613 4.54766 9.79613H8.08322V6.59613H4.54766ZM19.4521 8.48077C20.1632 8.48077 20.8467 8.75625 21.3591 9.24939L22.4714 10.3199C23.1866 11.0083 23.1866 12.1532 22.4714 12.8417L21.3591 13.9122C20.8467 14.4053 20.1632 14.6808 19.4521 14.6808H15.6665C14.9762 14.6808 14.4165 14.1211 14.4165 13.4308V9.73077C14.4165 9.04042 14.9762 8.48077 15.6665 8.48077H19.4521ZM20.3189 10.3301C20.086 10.106 19.7753 9.98077 19.4521 9.98077H15.9165V13.1808H19.4521C19.7753 13.1808 20.086 13.0556 20.3189 12.8314L21.4312 11.7609C21.5334 11.6626 21.5334 11.499 21.4312 11.4006L20.3189 10.3301Z" fill="black"/>
</svg>
