<svg width="24" height="24" viewBox="0 0 24 24" fill="none" xmlns="http://www.w3.org/2000/svg">
<path fill-rule="evenodd" clip-rule="evenodd" d="M15.6821 2.56215C15.2417 2.42501 14.8388 2.54107 14.5461 2.7208C14.2636 2.89425 14.0494 3.14315 13.9038 3.37898L13.0126 4.82235C12.3548 5.88775 11.685 6.85269 10.8095 7.56448C10.2009 8.05934 9.43409 8.531 8.195 9.01426C7.52696 9.2748 7.0498 9.91779 7.0498 10.6695V19.2303C7.0498 20.1968 7.83331 20.9803 8.7998 20.9803H16.3615C17.6385 20.9803 18.7475 20.1012 19.0389 18.8578L20.4042 13.033C20.8087 11.3074 19.4992 9.65542 17.7268 9.65542H16.007C16.4573 8.62775 17.0361 7.26724 17.2613 6.04428C17.3841 5.37769 17.4211 4.65982 17.2075 4.02366C16.9768 3.33676 16.4733 2.8086 15.6821 2.56215ZM15.2641 4.05644C15.2796 4.04008 15.2934 4.02741 15.3051 4.01783C15.5854 4.1221 15.7129 4.28506 15.7855 4.50118C15.8809 4.78507 15.8901 5.20787 15.7861 5.77261C15.5784 6.90056 14.9957 8.22758 14.5138 9.32525L14.1719 10.1039C14.0701 10.3358 14.0922 10.6035 14.2307 10.8155C14.3692 11.0276 14.6053 11.1554 14.8586 11.1554H17.7268C18.5324 11.1554 19.1277 11.9063 18.9438 12.6907L17.5785 18.5155C17.446 19.0807 16.9419 19.4803 16.3615 19.4803H8.7998C8.66173 19.4803 8.5498 19.3683 8.5498 19.2303V10.6695C8.5498 10.5701 8.61524 10.4604 8.74003 10.4117C10.1037 9.8799 11.0104 9.33441 11.7558 8.72832C12.8402 7.84662 13.6197 6.69424 14.2889 5.6104L15.1801 4.16703C15.2061 4.12501 15.2351 4.08716 15.2641 4.05644ZM5.5498 8.80032C5.5498 8.38611 5.21402 8.05032 4.7998 8.05032C4.38559 8.05032 4.0498 8.38611 4.0498 8.80032V20.8003C4.0498 21.2145 4.38559 21.5503 4.7998 21.5503C5.21402 21.5503 5.5498 21.2145 5.5498 20.8003V8.80032Z" fill="black"/>
</svg>
