<svg width="24" height="24" viewBox="0 0 24 24" fill="none" xmlns="http://www.w3.org/2000/svg">
<path d="M15.5303 8.53027C15.8232 8.23743 15.8232 7.76257 15.5303 7.46973C15.2375 7.17676 14.7625 7.17676 14.4697 7.46973L8.46973 13.4697C8.17676 13.7626 8.17676 14.2374 8.46973 14.5303C8.76245 14.8232 9.23755 14.8232 9.53027 14.5303L15.5303 8.53027Z" fill="black"/>
<path d="M11 8.5C11 9.32837 10.3284 10 9.5 10C8.67163 10 8 9.32837 8 8.5C8 7.67163 8.67163 7 9.5 7C10.3284 7 11 7.67163 11 8.5Z" fill="black"/>
<path d="M14.5 15C15.3284 15 16 14.3284 16 13.5C16 12.6716 15.3284 12 14.5 12C13.6716 12 13 12.6716 13 13.5C13 14.3284 13.6716 15 14.5 15Z" fill="black"/>
<path fill-rule="evenodd" clip-rule="evenodd" d="M19.8372 14.8888C19.4326 16.8912 18.1785 18.6194 16.3999 19.625L12.4751 21.7437C12.1785 21.9036 11.8215 21.9036 11.5249 21.7437L7.6001 19.625C5.82153 18.6194 4.56738 16.8912 4.16284 14.8888C4.06488 14.4052 4 13.9195 4 13.425V4C4 3.44775 4.44775 3 5 3H19C19.5522 3 20 3.44775 20 4V13.425C20 13.9178 19.9348 14.407 19.8372 14.8888ZM8.32617 18.3125C6.93311 17.52 5.95068 16.1631 5.63306 14.5916C5.59102 14.3842 5.55147 14.1769 5.52905 13.9663C5.50977 13.7866 5.5 13.606 5.5 13.425V4.5H18.5V13.425C18.5 13.8196 18.4451 14.206 18.3669 14.5916C18.0493 16.1631 17.0669 17.52 15.6738 18.3125L12 20.2954L8.32617 18.3125Z" fill="black"/>
</svg>
