<svg width="24" height="24" viewBox="0 0 24 24" fill="none" xmlns="http://www.w3.org/2000/svg">
<path fill-rule="evenodd" clip-rule="evenodd" d="M9.25 3C8.83579 3 8.5 3.33579 8.5 3.75C8.5 4.16421 8.83579 4.5 9.25 4.5H17.5V19.5H9.25C8.83579 19.5 8.5 19.8358 8.5 20.25C8.5 20.6642 8.83579 21 9.25 21H17.75C18.4404 21 19 20.4404 19 19.75V4.25C19 3.55964 18.4404 3 17.75 3H9.25ZM9.47008 6.46967C9.17718 6.76256 9.17718 7.23744 9.47008 7.53033L13.9397 12L9.47008 16.4697C9.17718 16.7626 9.17718 17.2374 9.47008 17.5303C9.76297 17.8232 10.2378 17.8232 10.5307 17.5303L15.46 12.601C15.792 12.2691 15.792 11.7309 15.46 11.399L10.5307 6.46967C10.2378 6.17678 9.76297 6.17678 9.47008 6.46967ZM6.71973 9.53033C6.42683 9.23744 6.42683 8.76256 6.71973 8.46967C7.01262 8.17678 7.48749 8.17678 7.78039 8.46967L10.7097 11.399C11.0416 11.7309 11.0416 12.2691 10.7097 12.601L7.78039 15.5303C7.48749 15.8232 7.01262 15.8232 6.71973 15.5303C6.42683 15.2374 6.42683 14.7626 6.71973 14.4697L8.4394 12.75H4.25C3.83579 12.75 3.5 12.4142 3.5 12C3.5 11.5858 3.83579 11.25 4.25 11.25H8.4394L6.71973 9.53033Z" fill="black"/>
</svg>
