<svg width="24" height="24" viewBox="0 0 24 24" fill="none" xmlns="http://www.w3.org/2000/svg">
<path fill-rule="evenodd" clip-rule="evenodd" d="M3 4.25C3 3.55964 3.55964 3 4.25 3H7.75C8.16421 3 8.5 3.33579 8.5 3.75C8.5 4.16421 8.16421 4.5 7.75 4.5H4.5V7.75C4.5 8.16421 4.16421 8.5 3.75 8.5C3.33579 8.5 3 8.16421 3 7.75V4.25ZM8.75 8.5C9.16421 8.5 9.5 8.83579 9.5 9.25V10.75C9.5 11.1642 9.16421 11.5 8.75 11.5C8.33579 11.5 8 11.1642 8 10.75V9.25C8 8.83579 8.33579 8.5 8.75 8.5ZM15.25 8.5C15.6642 8.5 16 8.83579 16 9.25V10.75C16 11.1642 15.6642 11.5 15.25 11.5C14.8358 11.5 14.5 11.1642 14.5 10.75V9.25C14.5 8.83579 14.8358 8.5 15.25 8.5ZM10.0945 14.4741C9.81122 14.1719 9.33659 14.1566 9.03441 14.4399C8.73223 14.7232 8.71692 15.1978 9.00021 15.5C9.79462 16.3474 10.9467 16.7371 12.0474 16.7371C13.148 16.7371 14.3001 16.3474 15.0945 15.5C15.3778 15.1978 15.3625 14.7232 15.0603 14.4399C14.7581 14.1566 14.2835 14.1719 14.0002 14.4741C13.5446 14.9601 12.8217 15.2371 12.0474 15.2371C11.273 15.2371 10.5501 14.9601 10.0945 14.4741ZM4.25 21C3.55964 21 3 20.4404 3 19.75V16.25C3 15.8358 3.33579 15.5 3.75 15.5C4.16421 15.5 4.5 15.8358 4.5 16.25V19.5H7.75C8.16421 19.5 8.5 19.8358 8.5 20.25C8.5 20.6642 8.16421 21 7.75 21H4.25ZM21 4.25C21 3.55964 20.4404 3 19.75 3H16.25C15.8358 3 15.5 3.33579 15.5 3.75C15.5 4.16421 15.8358 4.5 16.25 4.5H19.5V7.75C19.5 8.16421 19.8358 8.5 20.25 8.5C20.6642 8.5 21 8.16421 21 7.75V4.25ZM19.75 21C20.4404 21 21 20.4404 21 19.75V16.25C21 15.8358 20.6642 15.5 20.25 15.5C19.8358 15.5 19.5 15.8358 19.5 16.25V19.5H16.25C15.8358 19.5 15.5 19.8358 15.5 20.25C15.5 20.6642 15.8358 21 16.25 21H19.75Z" fill="black"/>
</svg>
