<svg width="24" height="24" viewBox="0 0 24 24" fill="none" xmlns="http://www.w3.org/2000/svg">
<path fill-rule="evenodd" clip-rule="evenodd" d="M7.77883 19.3894C8.781 19.4979 10.0917 19.5 12 19.5C13.9083 19.5 15.219 19.4979 16.2212 19.3894C17.1953 19.2838 17.6984 19.0923 18.0572 18.8316C18.3544 18.6157 18.6157 18.3544 18.8316 18.0572C19.0923 17.6984 19.2838 17.1953 19.3894 16.2212C19.4979 15.219 19.5 13.9083 19.5 12C19.5 10.0917 19.4979 8.781 19.3894 7.77883C19.2838 6.80473 19.0923 6.3016 18.8316 5.94275C18.6157 5.64562 18.3544 5.38432 18.0572 5.16844C17.6984 4.90772 17.1953 4.71617 16.2212 4.61064C15.219 4.50206 13.9083 4.5 12 4.5C10.0917 4.5 8.781 4.50206 7.77883 4.61064C6.80473 4.71617 6.3016 4.90772 5.94275 5.16844C5.64562 5.38432 5.38432 5.64562 5.16844 5.94275C4.90772 6.3016 4.71617 6.80473 4.61064 7.77883C4.50206 8.781 4.5 10.0917 4.5 12C4.5 13.9083 4.50206 15.219 4.61064 16.2212C4.71617 17.1953 4.90772 17.6984 5.16844 18.0572C5.38432 18.3544 5.64562 18.6157 5.94275 18.8316C6.3016 19.0923 6.80473 19.2838 7.77883 19.3894ZM3.95492 5.06107C3 6.3754 3 8.25027 3 12C3 15.7497 3 17.6246 3.95492 18.9389C4.26331 19.3634 4.6366 19.7367 5.06107 20.0451C6.3754 21 8.25027 21 12 21C15.7497 21 17.6246 21 18.9389 20.0451C19.3634 19.7367 19.7367 19.3634 20.0451 18.9389C21 17.6246 21 15.7497 21 12C21 8.25027 21 6.3754 20.0451 5.06107C19.7367 4.6366 19.3634 4.26331 18.9389 3.95492C17.6246 3 15.7497 3 12 3C8.25027 3 6.3754 3 5.06107 3.95492C4.6366 4.26331 4.26331 4.6366 3.95492 5.06107ZM11 9V11.5H13C13.6904 11.5 14.25 10.9404 14.25 10.25C14.25 9.55964 13.6904 9 13 9H11ZM11 13H13C14.5188 13 15.75 11.7688 15.75 10.25C15.75 8.73122 14.5188 7.5 13 7.5H10.35C9.88056 7.5 9.5 7.88056 9.5 8.35V11.5H8.75C8.33579 11.5 8 11.8358 8 12.25C8 12.6642 8.33579 13 8.75 13H9.5V14H8.75C8.33579 14 8 14.3358 8 14.75C8 15.1642 8.33579 15.5 8.75 15.5H9.5V16.25C9.5 16.6642 9.83579 17 10.25 17C10.6642 17 11 16.6642 11 16.25V15.5H12.25C12.6642 15.5 13 15.1642 13 14.75C13 14.3358 12.6642 14 12.25 14H11V13Z" fill="black"/>
</svg>
