<svg width="24" height="24" viewBox="0 0 24 24" fill="none" xmlns="http://www.w3.org/2000/svg">
<path fill-rule="evenodd" clip-rule="evenodd" d="M20 20H4C3.72386 20 3.5 19.7761 3.5 19.5V4C3.5 3.72386 3.72386 3.5 4 3.5H20C20.2761 3.5 20.5 3.72386 20.5 4V19.5C20.5 19.7761 20.2761 20 20 20ZM2 4C2 2.89543 2.89543 2 4 2H20C21.1046 2 22 2.89543 22 4V19.5C22 20.6046 21.1046 21.5 20 21.5H4C2.89543 21.5 2 20.6046 2 19.5V4ZM13.3856 15.4301L10.5 11.3079L7.61443 15.4301C7.37689 15.7695 6.90924 15.852 6.56991 15.6144C6.23057 15.3769 6.14804 14.9093 6.38558 14.5699L9.80366 9.68696C10.142 9.20355 10.858 9.20355 11.1964 9.68696L14.6144 14.5699C14.852 14.9093 14.7694 15.3769 14.4301 15.6144C14.0908 15.852 13.6231 15.7695 13.3856 15.4301ZM13.0699 9.38558C13.4092 9.14804 13.8769 9.23057 14.1144 9.56991L17.6144 14.5699C17.852 14.9092 17.7694 15.3769 17.4301 15.6144C17.0908 15.852 16.6231 15.7694 16.3856 15.4301L12.8856 10.4301C12.648 10.0908 12.7306 9.62312 13.0699 9.38558ZM16 9C16.5523 9 17 8.55228 17 8C17 7.44772 16.5523 7 16 7C15.4477 7 15 7.44772 15 8C15 8.55228 15.4477 9 16 9Z" fill="black"/>
</svg>
