<svg width="24" height="24" viewBox="0 0 24 24" fill="none" xmlns="http://www.w3.org/2000/svg">
<path fill-rule="evenodd" clip-rule="evenodd" d="M17.1804 2.2998C17.1804 1.88559 17.5162 1.5498 17.9304 1.5498C20.2683 1.5498 22.6804 3.55583 22.6804 6.29979C22.6804 6.714 22.3446 7.04979 21.9304 7.04979C21.5162 7.04979 21.1804 6.714 21.1804 6.29979C21.1804 4.46194 19.5198 3.0498 17.9304 3.0498C17.5162 3.0498 17.1804 2.71402 17.1804 2.2998ZM5.0502 6.80695C5.0502 6.65782 5.13545 6.45955 5.35747 6.27294C5.58103 6.08503 5.85231 5.98981 6.0502 5.98981L15.0002 5.98986C15.4144 5.98986 15.7502 5.65408 15.7502 5.23987C15.7502 4.82565 15.4144 4.48986 15.0002 4.48986L6.0502 4.48981C5.44727 4.48981 4.84355 4.74541 4.39232 5.12469C3.93954 5.50526 3.5502 6.09057 3.5502 6.80695V14.6427C3.5502 15.359 3.93954 15.9443 4.39232 16.3249C4.84355 16.7042 5.44727 16.9598 6.0502 16.9598H17.5002C18.0996 16.9598 18.7119 16.707 19.1727 16.3335C19.6333 15.9602 20.0502 15.3738 20.0502 14.6427V9.15772C20.0502 8.74351 19.7144 8.40772 19.3002 8.40772C18.886 8.40772 18.5502 8.74351 18.5502 9.15772V14.6427C18.5502 14.777 18.4675 14.9742 18.2283 15.1681C17.9893 15.3618 17.7016 15.4598 17.5002 15.4598H6.0502C5.85231 15.4598 5.58103 15.3646 5.35747 15.1767C5.13545 14.9901 5.0502 14.7918 5.0502 14.6427V6.80695ZM3.7002 18.5498C3.28598 18.5498 2.9502 18.8856 2.9502 19.2998C2.9502 19.714 3.28598 20.0498 3.7002 20.0498H20.3829C20.7972 20.0498 21.1329 19.714 21.1329 19.2998C21.1329 18.8856 20.7972 18.5498 20.3829 18.5498H3.7002ZM17.9302 4.34983C17.516 4.34983 17.1802 4.68561 17.1802 5.09983C17.1802 5.51404 17.516 5.84983 17.9302 5.84983C18.1023 5.84983 18.2097 5.90342 18.2663 5.95585C18.3137 5.99965 18.3802 6.09125 18.3802 6.29982C18.3802 6.71403 18.716 7.04982 19.1302 7.04982C19.5444 7.04982 19.8802 6.71403 19.8802 6.29982C19.8802 5.72294 19.6739 5.21455 19.2849 4.8547C18.9052 4.5035 18.4126 4.34983 17.9302 4.34983Z" fill="black"/>
</svg>
