<svg width="24" height="24" viewBox="0 0 24 24" fill="none" xmlns="http://www.w3.org/2000/svg">
<path fill-rule="evenodd" clip-rule="evenodd" d="M12.4275 1.66684C12.1819 1.51112 11.8683 1.51147 11.623 1.66773L1.89695 7.86339C1.5476 8.08593 1.4448 8.54954 1.66734 8.89889C1.88988 9.24825 2.3535 9.35105 2.70285 9.1285L12.027 3.18891L21.3984 9.1294C21.7482 9.35116 22.2116 9.24733 22.4334 8.89749C22.6551 8.54764 22.5513 8.08426 22.2014 7.86249L20.0272 6.48423C20.042 6.42538 20.0499 6.36375 20.0499 6.30029V3.12638C20.0499 2.71217 19.7141 2.37638 19.2999 2.37638C18.8857 2.37638 18.5499 2.71217 18.5499 3.12638V5.54779L12.4275 1.66684ZM5.5299 10.7803C5.5299 10.3661 5.19411 10.0303 4.7799 10.0303C4.36568 10.0303 4.0299 10.3661 4.0299 10.7803V19.3003C4.0299 20.8191 5.26111 22.0503 6.7799 22.0503H17.2999C18.8187 22.0503 20.0499 20.8191 20.0499 19.3003V10.7803C20.0499 10.3661 19.7141 10.0303 19.2999 10.0303C18.8857 10.0303 18.5499 10.3661 18.5499 10.7803V19.3003C18.5499 19.9906 17.9902 20.5503 17.2999 20.5503H6.7799C6.08954 20.5503 5.5299 19.9906 5.5299 19.3003V10.7803ZM9.00316 11.1913C8.98216 11.5355 9.06467 11.8588 9.18167 12.1753C9.42242 12.8285 9.79368 13.4128 10.2474 13.9423C10.8527 14.6645 11.5817 15.2353 12.4277 15.6478C12.8057 15.8338 13.2047 15.9778 13.6315 15.9988C13.927 16.0123 14.1813 15.9373 14.3875 15.71C14.486 15.5971 14.5944 15.4914 14.7035 15.3851C14.7472 15.3424 14.7911 15.2997 14.8345 15.2563C15.055 15.0358 15.055 14.7613 14.8345 14.5408C14.6602 14.3615 14.4826 14.1856 14.3061 14.0107C14.2183 13.9237 14.1307 13.837 14.044 13.7503C13.831 13.5365 13.5557 13.5365 13.342 13.7503C13.3146 13.7778 13.2872 13.8053 13.2597 13.8328C13.1227 13.9703 12.9856 14.1078 12.8537 14.2453C12.8057 14.2933 12.772 14.3 12.7165 14.2723C12.6853 14.2568 12.654 14.2418 12.623 14.2269C12.5444 14.1893 12.4669 14.1521 12.3932 14.108C11.9185 13.805 11.5127 13.4203 11.1625 12.9868C10.9832 12.767 10.8324 12.5398 10.7222 12.278C10.7012 12.2233 10.7087 12.1888 10.7499 12.1475L10.7739 12.1246C10.9309 11.974 11.0876 11.8238 11.2382 11.666C11.4647 11.4395 11.4647 11.171 11.2382 10.9438C11.1616 10.8635 11.0822 10.7855 11.0019 10.7067C10.9523 10.658 10.9025 10.6091 10.8527 10.559C10.8095 10.5158 10.7655 10.4718 10.7212 10.4274C10.6319 10.3379 10.5415 10.2473 10.4537 10.16C10.2407 9.94704 9.96543 9.94704 9.75243 10.16C9.66993 10.2392 9.58742 10.3217 9.50492 10.4042C9.42242 10.4867 9.33992 10.5692 9.25742 10.6483C9.09917 10.7998 9.01666 10.9783 9.00316 11.1913Z" fill="black"/>
</svg>
