<svg width="24" height="24" viewBox="0 0 24 24" fill="none" xmlns="http://www.w3.org/2000/svg">
<path fill-rule="evenodd" clip-rule="evenodd" d="M12.4902 4.65674V10.4447L16.1093 7.54065L12.4902 4.65674ZM10.9902 10.4206V3.30765C10.9902 2.59567 11.8131 2.19919 12.3699 2.64289L17.6798 6.87412C18.1059 7.21368 18.107 7.86084 17.6821 8.20183L12.9536 11.9961L17.6822 15.7904C18.1069 16.1312 18.1061 16.7779 17.6805 17.1176L12.3705 21.3566C11.8138 21.801 10.9902 21.4046 10.9902 20.6923V13.5715L6.66961 17.0385C6.34654 17.2977 5.8745 17.246 5.61526 16.9229C5.35603 16.5998 5.40777 16.1278 5.73084 15.8686L10.5568 11.9961L5.73084 8.12357C5.40777 7.86433 5.35603 7.39229 5.61526 7.06922C5.8745 6.74616 6.34654 6.69441 6.66961 6.95365L10.9902 10.4206ZM12.4902 13.5474V19.3417L16.11 16.452L12.4902 13.5474Z" fill="black"/>
</svg>
