<svg width="24" height="24" viewBox="0 0 24 24" fill="none" xmlns="http://www.w3.org/2000/svg">
<path fill-rule="evenodd" clip-rule="evenodd" d="M5.5 5.25781C5.5 4.01517 6.50736 3.00781 7.75 3.00781H16.25C17.4926 3.00781 18.5 4.01517 18.5 5.25781V18.75C18.5 19.9926 17.4926 21 16.25 21H7.75C6.50736 21 5.5 19.9926 5.5 18.75V5.25781ZM7.75 4.50781C7.33579 4.50781 7 4.8436 7 5.25781V18.75C7 19.1642 7.33579 19.5 7.75 19.5H16.25C16.6642 19.5 17 19.1642 17 18.75V5.25781C17 4.8436 16.6642 4.50781 16.25 4.50781H7.75ZM14.5 6.25C14.5 5.83579 14.1642 5.5 13.75 5.5H10.25C9.83579 5.5 9.5 5.83579 9.5 6.25C9.5 6.66421 9.83579 7 10.25 7H13.75C14.1642 7 14.5 6.66421 14.5 6.25ZM12 17.5C12.5523 17.5 13 17.0523 13 16.5C13 15.9477 12.5523 15.5 12 15.5C11.4477 15.5 11 15.9477 11 16.5C11 17.0523 11.4477 17.5 12 17.5Z" fill="black"/>
</svg>
