<svg width="24" height="24" viewBox="0 0 24 24" fill="none" xmlns="http://www.w3.org/2000/svg">
<path fill-rule="evenodd" clip-rule="evenodd" d="M8 4.75C8 3.7835 8.7835 3 9.75 3H14.25C15.2165 3 16 3.7835 16 4.75V8L19.25 8C20.2165 8 21 8.7835 21 9.75V13.8C21 14.7665 20.2165 15.55 19.25 15.55L16 15.55L16 19.25C16 20.2165 15.2165 21 14.25 21H9.75C8.7835 21 8 20.2165 8 19.25L8 15.55L4.75 15.55C3.7835 15.55 3 14.7665 3 13.8L3 9.75C3 8.7835 3.7835 8 4.75 8H8L8 4.75ZM9.75 4.5C9.61193 4.5 9.5 4.61193 9.5 4.75L9.5 9.5H4.75C4.61193 9.5 4.5 9.61193 4.5 9.75L4.5 13.8C4.5 13.9381 4.61193 14.05 4.75 14.05L9.5 14.05L9.5 19.25C9.5 19.3881 9.61193 19.5 9.75 19.5H14.25C14.3881 19.5 14.5 19.3881 14.5 19.25L14.5 14.05L19.25 14.05C19.3881 14.05 19.5 13.9381 19.5 13.8V9.75C19.5 9.61193 19.3881 9.5 19.25 9.5L14.5 9.5V4.75C14.5 4.61193 14.3881 4.5 14.25 4.5H9.75Z" fill="black"/>
</svg>
