<svg width="24" height="24" viewBox="0 0 24 24" fill="none" xmlns="http://www.w3.org/2000/svg">
<path fill-rule="evenodd" clip-rule="evenodd" d="M8 3.5C8 2.39539 8.89551 1.5 10 1.5H11C12.1045 1.5 13 2.39539 13 3.5V11C13 11.3723 12.8982 11.7208 12.7212 12.0193C12.8123 12.0066 12.9053 12 13 12H21C22.1045 12 23 12.8954 23 14V18.5C23 19.6046 22.1045 20.5 21 20.5H20C19.8274 20.5 19.6599 20.4781 19.5 20.437V20.5C19.5 21.6046 18.6045 22.5 17.5 22.5H16.5C15.3955 22.5 14.5 21.6046 14.5 20.5V17.437C14.3401 17.4781 14.1726 17.5 14 17.5H13C11.8955 17.5 11 16.6046 11 15.5V14C11 13.6277 11.1018 13.2792 11.2788 12.9807C11.2239 12.9884 11.1682 12.9939 11.1121 12.9969C11.075 12.999 11.0376 13 11 13H3C1.89551 13 1 12.1046 1 11V6.5C1 5.39539 1.89551 4.5 3 4.5H4C4.95874 4.5 5.76001 5.17468 5.95483 6.0752C6.03394 6.05286 6.11523 6.03528 6.198 6.02271C6.25488 6.01416 6.3125 6.00793 6.37085 6.00415C6.41357 6.00134 6.45654 6 6.5 6H7.5C7.6084 6 7.7146 6.00854 7.81836 6.02515C7.87988 6.03491 7.94043 6.04761 8 6.06299V3.5ZM14.5 15.501V14C14.4995 13.7242 14.2759 13.5 14 13.5H13C12.886 13.5 12.781 13.5381 12.697 13.6023C12.5774 13.6937 12.5 13.8379 12.5 14V15.5C12.5 15.7761 12.7239 16 13 16H14C14.2759 16 14.4995 15.7767 14.5 15.501ZM16 20.5C16 20.7761 16.2239 21 16.5 21H17.5C17.7761 21 18 20.7761 18 20.5V14C17.9998 13.8867 17.9619 13.7822 17.8984 13.6982C17.8071 13.5779 17.6626 13.5 17.5 13.5H16.5C16.3784 13.5 16.2668 13.5435 16.1802 13.6157C16.0701 13.7074 16 13.8456 16 14V20.5ZM19.5 14V18.5C19.5 18.7761 19.7239 19 20 19H21C21.1531 19 21.29 18.9313 21.3818 18.8231C21.4556 18.736 21.5 18.6232 21.5 18.5V14C21.5 13.7239 21.2761 13.5 21 13.5H20C19.7239 13.5 19.5 13.7239 19.5 14ZM10 3C9.72388 3 9.5 3.22388 9.5 3.5V11C9.5 11.2761 9.72388 11.5 10 11.5H11C11.2761 11.5 11.5 11.2761 11.5 11V3.5C11.5 3.22388 11.2761 3 11 3H10ZM8 11C8 11.2761 7.77612 11.5 7.5 11.5H6.5C6.22388 11.5 6 11.2761 6 11V8C6 7.72388 6.22388 7.5 6.5 7.5H7.5C7.77612 7.5 8 7.72388 8 8V11ZM4.5 11C4.5 11.2761 4.27612 11.5 4 11.5H3C2.72388 11.5 2.5 11.2761 2.5 11V6.5C2.5 6.22388 2.72388 6 3 6H4C4.27612 6 4.5 6.22388 4.5 6.5V11Z" fill="black"/>
</svg>
