<svg width="24" height="24" viewBox="0 0 24 24" fill="none" xmlns="http://www.w3.org/2000/svg">
<path fill-rule="evenodd" clip-rule="evenodd" d="M16.6323 9.49358C16.5999 9.49781 16.5668 9.5 16.5328 9.5H8.45769C8.42375 9.5 8.39056 9.49781 8.35821 9.49358C7.89001 9.46989 7.42044 9.33581 6.98847 9.08255C5.53136 8.22825 5.03212 6.33618 5.87338 4.85649C6.61793 3.54691 8.16296 2.99925 9.51849 3.48287C9.79773 2.06682 11.029 1 12.5056 1C13.9798 1 15.2095 2.06339 15.4914 3.47605C16.8422 3.00447 18.3761 3.55313 19.1171 4.85649C19.9584 6.33618 19.4591 8.22825 18.002 9.08255C17.5701 9.33581 17.1005 9.46989 16.6323 9.49358ZM12.5056 2.52324C11.6515 2.52324 10.9591 3.22635 10.9591 4.09369C10.9591 4.362 11.0248 4.61256 11.1401 4.83187L12.4953 7.21544L13.8644 4.8072C13.8826 4.77516 13.9026 4.74514 13.924 4.71714L13.9288 4.70974C14.0081 4.52123 14.0521 4.31342 14.0521 4.09369C14.0521 3.22635 13.3597 2.52324 12.5056 2.52324ZM9.82936 5.58036L9.83736 5.59478L11.1916 7.97676L8.52589 7.97676C8.50863 7.97517 8.49114 7.97416 8.47344 7.97374C8.22385 7.9678 7.97195 7.90027 7.73847 7.76338C6.9988 7.32971 6.74537 6.36925 7.17242 5.61811C7.59947 4.86698 8.54528 4.60962 9.28495 5.04329C9.51696 5.17931 9.69965 5.36556 9.82936 5.58036ZM16.4646 7.97676L13.8193 7.97676L15.1736 5.59464C15.191 5.56411 15.206 5.53313 15.2187 5.50185L15.235 5.46904C15.3571 5.30117 15.5146 5.15522 15.7056 5.04329C16.4452 4.60962 17.391 4.86698 17.8181 5.61811C18.2451 6.36925 17.9917 7.32971 17.252 7.76338C17.0186 7.90027 16.7667 7.9678 16.5171 7.97374C16.4994 7.97416 16.4819 7.97517 16.4646 7.97676Z" fill="black"/>
<path d="M16.9997 14C16.9997 14.4141 16.664 14.7499 16.2499 14.7499C15.8357 14.7499 15.5 14.4141 15.5 14C15.5 13.5859 15.8357 13.2501 16.2499 13.2501C16.664 13.2501 16.9997 13.5859 16.9997 14Z" fill="black"/>
<path d="M14.7495 16.9997C15.1637 16.9997 15.4994 16.664 15.4994 16.2499C15.4994 15.8357 15.1637 15.5 14.7495 15.5C14.3354 15.5 13.9997 15.8357 13.9997 16.2499C13.9997 16.664 14.3354 16.9997 14.7495 16.9997Z" fill="black"/>
<path d="M13.9995 14C13.9995 14.4141 13.6638 14.7499 13.2496 14.7499C12.8355 14.7499 12.4998 14.4141 12.4998 14C12.4998 13.5859 12.8355 13.2501 13.2496 13.2501C13.6638 13.2501 13.9995 13.5859 13.9995 14Z" fill="black"/>
<path fill-rule="evenodd" clip-rule="evenodd" d="M17.4871 10.9648C18.7753 11.5331 19.7206 12.6559 19.9843 14.2381C20.1773 15.3965 19.9878 16.3452 19.5131 17.1467C19.0544 17.921 18.3626 18.4996 17.6644 18.9928C17.336 19.2248 16.9894 19.449 16.6519 19.6673L16.5803 19.7136C16.2153 19.9498 15.859 20.182 15.5143 20.4294C14.8253 20.9241 14.218 21.4559 13.763 22.1198C13.4428 22.5869 12.9049 22.7397 12.4937 22.7395C12.0825 22.7393 11.5448 22.5861 11.225 22.1189C10.7707 21.4553 10.1641 20.9237 9.47558 20.4291C9.13117 20.1817 8.77505 19.9496 8.41022 19.7134L8.33846 19.667C8.00118 19.4487 7.65477 19.2246 7.32664 18.9927C6.62864 18.4996 5.93699 17.9211 5.4784 17.1469C5.00378 16.3456 4.81429 15.397 5.00732 14.2388C5.27115 12.6559 6.21879 11.5331 7.50844 10.965C8.77451 10.4074 10.3184 10.4025 11.8155 10.9046C12.2576 11.0528 12.7422 11.0528 13.1842 10.9045C14.6805 10.4025 16.2226 10.407 17.4871 10.9648ZM16.8817 12.3372C16.024 11.9589 14.8766 11.9189 13.6614 12.3266C12.9097 12.5788 12.0902 12.5788 11.3386 12.3267C10.1227 11.919 8.97305 11.959 8.1131 12.3378C7.27673 12.7062 6.66589 13.4115 6.48691 14.4854C6.34663 15.3271 6.49054 15.9123 6.769 16.3825C7.0635 16.8797 7.54464 17.3102 8.19212 17.7676C8.49431 17.9811 8.81624 18.1894 9.16005 18.412L9.22539 18.4542C9.58877 18.6895 9.97315 18.9396 10.3507 19.2108C11.0946 19.7452 11.8459 20.3844 12.4359 21.2326C12.4391 21.2334 12.4428 21.2343 12.4469 21.2351C12.4607 21.2378 12.4769 21.2395 12.4943 21.2395C12.5118 21.2395 12.528 21.2378 12.5418 21.2351C12.5459 21.2343 12.5495 21.2335 12.5527 21.2326C13.1434 20.3846 13.8952 19.7453 14.6395 19.2109C15.0173 18.9398 15.4018 18.6896 15.7654 18.4543L15.8299 18.4126C16.1741 18.1898 16.4965 17.9813 16.799 17.7676C17.4467 17.3102 17.928 16.8795 18.2225 16.3822C18.501 15.912 18.645 15.3266 18.5047 14.4847C18.3256 13.4101 17.7158 12.7051 16.8817 12.3372Z" fill="black"/>
</svg>
