<svg width="24" height="24" viewBox="0 0 24 24" fill="none" xmlns="http://www.w3.org/2000/svg">
<path fill-rule="evenodd" clip-rule="evenodd" d="M12.4071 4.06902C12.0098 3.13369 11.4186 2.34531 10.7469 1.83898C10.0936 1.34649 9.2239 1.03098 8.39011 1.38513L6.64313 2.12716C5.80934 2.48131 5.43255 3.32627 5.33337 4.13837C5.23141 4.97329 5.38825 5.9462 5.78553 6.88152C6.18281 7.81685 6.77407 8.60523 7.44573 9.11156C8.09903 9.60405 8.96873 9.91956 9.80252 9.56541L11.5495 8.82338C12.3833 8.46923 12.7601 7.62427 12.8593 6.81217C12.9612 5.97725 12.8044 5.00435 12.4071 4.06902ZM8.97653 2.76575C9.10757 2.71009 9.39934 2.70159 9.84395 3.03676C10.2702 3.35808 10.7132 3.918 11.0265 4.65544C11.3397 5.39288 11.435 6.10049 11.3703 6.63034C11.3028 7.18302 11.0941 7.3871 10.9631 7.44276L10.4563 7.65803C10.3013 7.60316 10.1301 7.51078 9.94521 7.37143C9.47807 7.01927 9.01031 6.42128 8.68307 5.65086C8.62153 5.50596 8.56764 5.36124 8.52122 5.21775C8.43624 4.95501 8.15435 4.81091 7.89161 4.8959C7.62887 4.98088 7.48477 5.26276 7.56976 5.52551C7.62532 5.69729 7.68959 5.86977 7.76266 6.0418C8.13924 6.92839 8.69276 7.66821 9.31027 8.14479L9.2161 8.18479C9.08507 8.24045 8.79329 8.24895 8.34868 7.91378C7.92244 7.59246 7.47938 7.03254 7.16615 6.29511C6.85292 5.55767 6.7576 4.85006 6.82231 4.3202C6.88981 3.76751 7.09851 3.56344 7.22954 3.50778L7.32377 3.46776L7.32127 3.49103C7.29263 3.76569 7.49207 4.01155 7.76673 4.04018C8.04138 4.06882 8.28724 3.86938 8.31588 3.59472C8.34205 3.34367 8.39696 3.14083 8.46983 2.98097L8.97653 2.76575Z" fill="black"/>
<path fill-rule="evenodd" clip-rule="evenodd" d="M8.26278 10.9979C9.36798 11.3368 10.5006 12.0903 11.4371 13.1479C12.3737 14.2056 12.9846 15.421 13.1872 16.5591C13.3872 17.6823 13.2016 18.8643 12.3382 19.6288L10.1882 21.5327C9.32481 22.2972 8.12906 22.3384 7.03829 22.004C5.93309 21.6652 4.80049 20.9117 3.86394 19.854C2.92739 18.7964 2.31647 17.5809 2.11385 16.4428C1.91387 15.3196 2.0995 14.1376 2.96285 13.3731L5.11291 11.4692C5.97626 10.7047 7.17201 10.6635 8.26278 10.9979ZM7.82309 12.432C7.00812 12.1822 6.43142 12.3053 6.10733 12.5922L5.51759 13.1145C5.42031 13.4637 5.40988 13.8933 5.50776 14.3906C5.56109 14.6615 5.38468 14.9244 5.11373 14.9777C4.84279 15.0311 4.57991 14.8547 4.52658 14.5837C4.49195 14.4078 4.46725 14.2316 4.4534 14.0568L3.95727 14.4961C3.63318 14.7831 3.44121 15.3407 3.59062 16.1799C3.73739 17.0043 4.20288 17.9741 4.98694 18.8596C5.771 19.745 6.67743 20.3245 7.47798 20.5699C8.29296 20.8198 8.86965 20.6967 9.19374 20.4097L9.68983 19.9704C9.54681 19.9414 9.40375 19.9047 9.26157 19.8611C8.20715 19.5378 7.11225 18.8133 6.20111 17.7844C6.02776 17.5886 5.86649 17.388 5.71762 17.1841C5.55478 16.9611 5.60357 16.6483 5.8266 16.4854C6.04962 16.3226 6.36242 16.3714 6.52525 16.5944C6.65556 16.7729 6.79715 16.9491 6.94978 17.1214C7.75926 18.0356 8.70338 18.644 9.5547 18.905C10.0091 19.0444 10.413 19.0797 10.754 19.028L11.3438 18.5058C11.6679 18.2188 11.8599 17.6613 11.7105 16.822C11.5637 15.9977 11.0982 15.0278 10.3141 14.1424C9.53006 13.2569 8.62363 12.6775 7.82309 12.432Z" fill="black"/>
<path fill-rule="evenodd" clip-rule="evenodd" d="M12.831 10.5237C13.1397 9.62344 13.7866 8.72057 14.6696 7.98898C15.5526 7.25738 16.56 6.78961 17.5019 6.65366C18.4289 6.51986 19.4272 6.69969 20.0592 7.46251L21.5159 9.22065C22.1479 9.98347 22.139 10.9978 21.8352 11.8838C21.5265 12.784 20.8796 13.6869 19.9966 14.4185C19.1136 15.1501 18.1062 15.6178 17.1643 15.7538C16.2373 15.8876 15.2389 15.7077 14.6069 14.9449L13.1503 13.1868C12.5182 12.424 12.5272 11.4096 12.831 10.5237ZM14.2499 11.0102C14.0396 11.6233 14.1328 12.0216 14.3053 12.2298L14.7304 12.7428C14.9663 12.7969 15.2516 12.8041 15.5838 12.75C15.8563 12.7056 16.1133 12.8905 16.1577 13.1631C16.2021 13.4356 16.0171 13.6926 15.7446 13.737C15.6878 13.7462 15.6309 13.7543 15.5739 13.761L15.762 13.9879C15.9345 14.1961 16.3085 14.3617 16.95 14.2692C17.5765 14.1787 18.3337 13.8483 19.0396 13.2634C19.7455 12.6786 20.211 11.996 20.4163 11.3972C20.6265 10.7841 20.5333 10.3858 20.3609 10.1776L20.1729 9.9508C20.163 9.98211 20.1528 10.0134 20.1421 10.0445C19.8506 10.8945 19.234 11.7606 18.3805 12.4678C18.2179 12.6024 18.0517 12.7273 17.8831 12.8421C17.6549 12.9975 17.3439 12.9384 17.1884 12.7102C17.033 12.4819 17.0921 12.1709 17.3203 12.0155C17.4628 11.9184 17.604 11.8125 17.7425 11.6977C18.4779 11.0884 18.9736 10.3692 19.1962 9.72012C19.2975 9.42465 19.338 9.1609 19.3294 8.93273L18.9042 8.41951C18.7317 8.21134 18.3577 8.04569 17.7162 8.13827C17.0896 8.22871 16.3325 8.55918 15.6266 9.14403C14.9207 9.72889 14.4552 10.4114 14.2499 11.0102Z" fill="black"/>
</svg>
