<svg width="24" height="24" viewBox="0 0 24 24" fill="none" xmlns="http://www.w3.org/2000/svg">
<path fill-rule="evenodd" clip-rule="evenodd" d="M8.58345 9.11116C8.22161 9.34612 7.89223 9.63272 7.7089 9.81604L7.48336 10.0416L7.47896 10.046L7.41138 10.1136L7.40509 10.1199L7.37531 10.1496C7.3792 10.1457 7.38062 10.1443 7.36955 10.1554L7.20846 10.3165L7.2072 10.3177L7.20144 10.3235L7.20079 10.3242L7.19434 10.3306L7.19307 10.3319L7.16145 10.3635L7.14799 10.377L7.08527 10.4397C7.06966 10.4553 7.07189 10.4531 7.07747 10.4475L7.05041 10.4745C7.05041 10.4745 7.07766 10.4473 7.04889 10.4761L7.03403 10.4909L7.01899 10.506L6.10176 11.4232C4.93541 12.5895 3.63152 12.9286 3 12.9286C2.58579 12.9286 2.25 12.5928 2.25 12.1786C2.25 11.7644 2.58579 11.4286 3 11.4286C3.22563 11.4286 4.1503 11.2533 5.0411 10.3625L6.64824 8.75538C6.89348 8.51014 7.30339 8.15388 7.76655 7.85312C8.19971 7.57185 8.81202 7.25 9.42857 7.25C10.0424 7.25 10.4862 7.45024 10.8149 7.59858L10.8149 7.5986L10.8151 7.59869C10.8437 7.6116 10.8715 7.62411 10.8984 7.63607C11.218 7.77813 11.5083 7.89286 12 7.89286C12.466 7.89286 12.6654 7.79309 12.9381 7.65672L12.9503 7.65061C13.3142 7.46867 13.7586 7.25 14.5714 7.25C15.8514 7.25 16.7044 8.10538 17.5616 8.96504L17.6732 9.07681L18.9589 10.3625C19.131 10.5347 19.4658 10.8153 19.8663 11.048C20.2773 11.287 20.6771 11.4286 21 11.4286C21.4142 11.4286 21.75 11.7644 21.75 12.1786C21.75 12.5928 21.4142 12.9286 21 12.9286C20.2944 12.9286 19.6227 12.6415 19.1123 12.3448C18.5913 12.0419 18.1547 11.6796 17.8982 11.4232L16.6125 10.1375C15.5796 9.10454 15.1645 8.75 14.5714 8.75C14.1054 8.75 13.906 8.84977 13.6334 8.98613L13.6211 8.99225C13.2572 9.17419 12.8128 9.39286 12 9.39286C11.206 9.39286 10.6927 9.18616 10.2891 9.00679L10.239 8.98448C9.88612 8.82738 9.71229 8.75 9.42857 8.75C9.27369 8.75 8.97529 8.85672 8.58345 9.11116ZM4.13844 13.5217C4.46189 13.2629 4.93386 13.3154 5.19261 13.6388C5.3437 13.8277 5.78735 14.2541 6.4097 14.6309C7.02945 15.0062 7.75058 15.2859 8.4641 15.2859C9.80454 15.2859 10.8024 14.9751 11.4226 14.7819C11.5784 14.7334 11.7103 14.6923 11.8179 14.6654L11.9998 14.62L12.1817 14.6654C12.2893 14.6923 12.4212 14.7334 12.5769 14.7819L12.577 14.7819L12.577 14.7819C13.1973 14.9751 14.1951 15.2859 15.5355 15.2859C16.2491 15.2859 16.9702 15.0062 17.5899 14.6309C18.2123 14.2541 18.6559 13.8277 18.807 13.6388C19.0658 13.3154 19.5378 13.2629 19.8612 13.5217C20.1846 13.7804 20.2371 14.2524 19.9783 14.5758C19.7008 14.9227 19.1159 15.4605 18.3668 15.9141C17.6152 16.3692 16.622 16.7859 15.5355 16.7859C13.9187 16.7859 12.6196 16.3724 12.0561 16.193L11.9998 16.1751L11.9436 16.193C11.3801 16.3724 10.0809 16.7859 8.4641 16.7859C7.37763 16.7859 6.38447 16.3692 5.6328 15.9141C4.88371 15.4605 4.29879 14.9227 4.02131 14.5758C3.76255 14.2524 3.81499 13.7804 4.13844 13.5217ZM7.5 13.5713C8.12794 13.5713 8.64536 13.3641 9.03026 13.2099L9.06426 13.1963C9.47961 13.0301 9.75377 12.9285 10.0714 12.9285C10.3265 12.9285 10.4148 12.9874 10.6158 13.1214L10.6197 13.1239C10.8981 13.3096 11.2924 13.5713 12 13.5713C12.7076 13.5713 13.1019 13.3096 13.3803 13.1239L13.3842 13.1214C13.5852 12.9874 13.6735 12.9285 13.9286 12.9285C14.2123 12.9285 14.3861 13.0059 14.739 13.1629L14.7891 13.1853C15.1927 13.3646 15.706 13.5713 16.5 13.5713C16.9142 13.5713 17.25 13.2355 17.25 12.8213C17.25 12.4071 16.9142 12.0713 16.5 12.0713C16.0083 12.0713 15.718 11.9566 15.3984 11.8145C15.3714 11.8025 15.3436 11.79 15.3149 11.777C14.9862 11.6287 14.5424 11.4285 13.9286 11.4285C13.221 11.4285 12.8267 11.6902 12.5483 11.8759L12.5444 11.8784C12.3434 12.0124 12.2551 12.0713 12 12.0713C11.7449 12.0713 11.6566 12.0124 11.4556 11.8784L11.4517 11.8759C11.1733 11.6902 10.779 11.4285 10.0714 11.4285C9.44348 11.4285 8.92607 11.6357 8.54116 11.7899L8.50717 11.8035C8.09181 11.9697 7.81766 12.0713 7.5 12.0713C7.08579 12.0713 6.75 12.4071 6.75 12.8213C6.75 13.2355 7.08579 13.5713 7.5 13.5713Z" fill="black"/>
</svg>
