<svg width="24" height="24" viewBox="0 0 24 24" fill="none" xmlns="http://www.w3.org/2000/svg">
<path fill-rule="evenodd" clip-rule="evenodd" d="M4.50088 8L4.50027 16.5L15.0001 16.5V15.25C15.0001 14.8358 15.3359 14.5 15.7501 14.5C16.1643 14.5 16.5001 14.8358 16.5001 15.25V16.5H19.5002L19.5008 8.00003L16.5001 8.00002V8.75003C16.5001 9.16425 16.1643 9.50003 15.7501 9.50003C15.3359 9.50003 15.0001 9.16425 15.0001 8.75003V8.00002L4.50088 8ZM4.2009 6.5C3.53819 6.5 3.00095 7.03721 3.0009 7.69991L3.00024 16.7999C3.0002 17.4627 3.53747 18 4.20025 18H19.8002C20.4629 18 21.0001 17.4628 21.0002 16.8001L21.0008 7.70011C21.0009 7.03734 20.4636 6.50003 19.8008 6.50003L4.2009 6.5ZM16.5001 11.25C16.5001 10.8358 16.1643 10.5 15.7501 10.5C15.3359 10.5 15.0001 10.8358 15.0001 11.25V12.75C15.0001 13.1642 15.3359 13.5 15.7501 13.5C16.1643 13.5 16.5001 13.1642 16.5001 12.75V11.25ZM6.00009 11.5H11.0001V10H6.00009V11.5ZM6.00009 14.5H10.0001V13H6.00009V14.5Z" fill="black"/>
</svg>
