<svg width="24" height="24" viewBox="0 0 24 24" fill="none" xmlns="http://www.w3.org/2000/svg">
<path fill-rule="evenodd" clip-rule="evenodd" d="M5.5 17.5001H7.50368L13.9715 11.0323L11.9678 9.02858L5.5 15.4964V17.5001ZM16.8787 8.12509L15.0322 9.9716L13.0285 7.96792L14.875 6.12141L16.8787 8.12509ZM4 15.165V18.3001C4 18.6867 4.3134 19.0001 4.7 19.0001H7.83505C8.0207 19.0001 8.19875 18.9263 8.33003 18.7951L18.505 8.62006C18.7784 8.3467 18.7784 7.90348 18.505 7.63012L15.37 4.49506C15.0966 4.2217 14.6534 4.2217 14.38 4.49506L4.20503 14.6701C4.07375 14.8013 4 14.9794 4 15.165ZM13.25 17.5C12.8358 17.5 12.5 17.8358 12.5 18.25C12.5 18.6642 12.8358 19 13.25 19H19.25C19.6642 19 20 18.6642 20 18.25C20 17.8358 19.6642 17.5 19.25 17.5H13.25Z" fill="black"/>
</svg>
