<svg width="24" height="24" viewBox="0 0 24 24" fill="none" xmlns="http://www.w3.org/2000/svg">
<path fill-rule="evenodd" clip-rule="evenodd" d="M15.8489 15.9143C15.3643 16.3989 14.6231 16.5166 14.0125 16.2065C13.0717 15.7289 11.9295 14.7984 10.9987 13.8676C9.99668 12.8656 9.10334 11.5467 8.66268 10.6788C8.35263 10.0681 8.47036 9.32688 8.95492 8.8423L10.1196 7.67763C10.3528 7.44447 10.3527 7.0742 10.1196 6.84104L8.03022 4.75167C7.78658 4.50803 7.38359 4.50803 7.13994 4.75168L5.64494 6.24668C5.23813 6.6535 4.95483 7.21581 4.99718 7.69166C5.1108 8.96839 5.8245 10.5313 6.80831 12.0567C7.7705 13.5487 8.87606 14.8299 9.55276 15.5066C10.2082 16.162 11.3788 17.1201 12.7684 17.9425C14.1729 18.7737 15.6692 19.3874 16.9973 19.5056C17.8498 19.5815 18.3249 19.3438 18.4605 19.2082L19.9395 17.7292C20.1831 17.4856 20.1831 17.0826 19.9395 16.8389L17.8502 14.7496C17.617 14.5165 17.2467 14.5165 17.0136 14.7496L15.8489 15.9143ZM3.50308 7.82462C3.79578 11.1136 6.99975 15.0749 8.49211 16.5673C9.98446 18.0597 13.5754 20.707 16.8644 20.9997C17.9607 21.0973 18.9536 20.8365 19.5212 20.2688L21.0002 18.7899C21.8296 17.9605 21.8296 16.6077 21.0001 15.7783L18.9108 13.689C18.0919 12.87 16.7719 12.87 15.9529 13.689L14.7882 14.8536C14.7627 14.8791 14.7236 14.8853 14.6915 14.869C13.9536 14.4944 12.9411 13.6887 12.0593 12.807C11.1775 11.9252 10.3748 10.7376 10.0002 9.99969C9.98388 9.9676 9.99007 9.92848 10.0156 9.90296L11.1803 8.73829C11.9992 7.91935 11.9992 6.59933 11.1802 5.78038L9.09088 3.69102C8.26145 2.86158 6.9087 2.86159 6.07927 3.69102L4.58427 5.18602C4.01666 5.75364 3.40552 6.72828 3.50308 7.82462Z" fill="black"/>
</svg>
