<svg width="24" height="24" viewBox="0 0 24 24" fill="none" xmlns="http://www.w3.org/2000/svg">
<path fill-rule="evenodd" clip-rule="evenodd" d="M17 17.25C17 16.8358 17.3358 16.5 17.75 16.5C18.1642 16.5 18.5 16.8358 18.5 17.25V18.5C18.5 19.8807 17.3807 21 16 21H8C6.61929 21 5.5 19.8807 5.5 18.5V5.5C5.5 4.11929 6.61929 3 8 3H16C17.3807 3 18.5 4.11929 18.5 5.5V6.25C18.5 6.66421 18.1642 7 17.75 7C17.3358 7 17 6.66421 17 6.25V5.5C17 4.94772 16.5523 4.5 16 4.5H8C7.44772 4.5 7 4.94772 7 5.5V18.5C7 19.0523 7.44772 19.5 8 19.5H16C16.5523 19.5 17 19.0523 17 18.5V17.25ZM12 17.5C12.5523 17.5 13 17.0523 13 16.5C13 15.9477 12.5523 15.5 12 15.5C11.4477 15.5 11 15.9477 11 16.5C11 17.0523 11.4477 17.5 12 17.5ZM14.5 6.25C14.5 5.83579 14.1642 5.5 13.75 5.5H10.25C9.83579 5.5 9.5 5.83579 9.5 6.25C9.5 6.66421 9.83579 7 10.25 7H13.75C14.1642 7 14.5 6.66421 14.5 6.25ZM17.75 8.5C18.1642 8.5 18.5 8.83579 18.5 9.25V11H20.25C20.6642 11 21 11.3358 21 11.75C21 12.1642 20.6642 12.5 20.25 12.5H18.5V14.25C18.5 14.6642 18.1642 15 17.75 15C17.3358 15 17 14.6642 17 14.25V12.5H15.25C14.8358 12.5 14.5 12.1642 14.5 11.75C14.5 11.3358 14.8358 11 15.25 11H17V9.25C17 8.83579 17.3358 8.5 17.75 8.5Z" fill="black"/>
</svg>
