<svg width="24" height="24" viewBox="0 0 24 24" fill="none" xmlns="http://www.w3.org/2000/svg">
<path fill-rule="evenodd" clip-rule="evenodd" d="M13 3.25C13 2.83579 13.3358 2.5 13.75 2.5H14.75C15.1642 2.5 15.5 2.83579 15.5 3.25C15.5 3.66421 15.1642 4 14.75 4H13.75C13.3358 4 13 3.66421 13 3.25ZM11.7116 5.26279C11.8426 5.65575 11.6302 6.08049 11.2373 6.21147L10.078 6.59789C9.43708 6.81154 9.08189 7.49581 9.27602 8.14293L10.1331 11H13.8762L14.8055 8.21199C14.9837 7.67722 14.782 7.08932 14.313 6.77664L14.084 6.624C13.7394 6.39423 13.6463 5.92858 13.876 5.58393C14.1058 5.23929 14.5714 5.14616 14.9161 5.37592L15.1451 5.52856C16.1769 6.21646 16.6207 7.50985 16.2285 8.68633L15.4573 11H17C18.1046 11 19 11.8954 19 13V20C19 21.1046 18.1046 22 17 22H7C5.89543 22 5 21.1046 5 20V13C5 11.8954 5.89543 11 7 11H8.5671L7.83928 8.57395C7.41218 7.15029 8.1936 5.64489 9.60368 5.17487L10.7629 4.78845C11.1559 4.65746 11.5806 4.86983 11.7116 5.26279ZM10.9114 12.5L9.88767 14.5475C9.63702 15.0488 9.93165 15.6512 10.4812 15.7612L11.89 16.0429L11.3291 17.1646C11.1439 17.5351 11.294 17.9856 11.6645 18.1709C12.035 18.3561 12.4855 18.2059 12.6708 17.8355L13.6122 15.9526C13.8629 15.4513 13.5682 14.8488 13.0186 14.7389L11.6099 14.4572L12.5885 12.5H17C17.2761 12.5 17.5 12.7239 17.5 13V20C17.5 20.2761 17.2761 20.5 17 20.5H7C6.72386 20.5 6.5 20.2761 6.5 20V13C6.5 12.7239 6.72386 12.5 7 12.5H10.9114Z" fill="black"/>
</svg>
