<svg width="24" height="24" viewBox="0 0 24 24" fill="none" xmlns="http://www.w3.org/2000/svg">
<path fill-rule="evenodd" clip-rule="evenodd" d="M18.5496 14.7803C18.5496 15.1945 18.8854 15.5303 19.2996 15.5303C19.7138 15.5303 20.0496 15.1945 20.0496 14.7803V3.28027C20.0496 2.86606 19.7138 2.53027 19.2996 2.53027C18.8854 2.53027 18.5496 2.86606 18.5496 3.28027V14.7803ZM8.77332 21.0296C9.18071 21.1298 9.55025 21.0194 9.8209 20.8613C10.088 20.7054 10.3007 20.4821 10.4491 20.2563L11.4326 18.7606C11.9973 17.9018 12.5674 17.119 13.2689 16.4975C13.9407 15.9025 14.7805 15.3495 16.3097 14.7768C16.7917 14.5963 17.1297 14.1341 17.1297 13.5998V4.50604C17.1297 3.70523 16.4805 3.05604 15.6797 3.05604H7.32587C6.50474 3.05604 5.79404 3.62695 5.61702 4.42876L4.04991 11.5269C3.73986 12.9312 4.80883 14.262 6.247 14.262H8.38185C7.95981 15.2401 7.38166 16.6004 7.17278 17.8055C7.06484 18.4282 7.03585 19.1088 7.25436 19.7066C7.49395 20.362 8.00402 20.8404 8.77332 21.0296ZM9.12694 19.5163C9.10776 19.5352 9.09055 19.5489 9.07682 19.5582C8.82334 19.4833 8.72354 19.3567 8.66318 19.1916C8.57758 18.9574 8.56003 18.585 8.65074 18.0616C8.83126 17.0202 9.36288 15.774 9.80619 14.7472L10.2111 13.8093C10.3112 13.5775 10.2879 13.3109 10.1492 13.0999C10.0106 12.889 9.77503 12.762 9.52256 12.762H6.247C5.76761 12.762 5.41128 12.3184 5.51463 11.8503L7.08175 4.75214C7.10704 4.6376 7.20856 4.55604 7.32587 4.55604H15.6297V13.4305C14.0431 14.0405 13.0752 14.6652 12.2743 15.3747C11.4173 16.1338 10.7584 17.0557 10.1792 17.9365L9.1958 19.4322C9.1759 19.4624 9.15213 19.4915 9.12694 19.5163Z" fill="black"/>
</svg>
