<svg width="24" height="24" viewBox="0 0 24 24" fill="none" xmlns="http://www.w3.org/2000/svg">
<path fill-rule="evenodd" clip-rule="evenodd" d="M13.0225 13C14.6669 13 16 11.6669 16 10.0225C16 8.37807 14.6669 7 13.0225 7H10.348C9.87968 7 9.5 7.37968 9.5 7.84804V11.5H8.75C8.33579 11.5 8 11.8358 8 12.25C8 12.6642 8.33579 13 8.75 13H9.5V14H8.75C8.33579 14 8 14.3358 8 14.75C8 15.1642 8.33579 15.5 8.75 15.5H9.5V16.25C9.5 16.6642 9.83579 17 10.25 17C10.6642 17 11 16.6642 11 16.25V15.5H12.25C12.6642 15.5 13 15.1642 13 14.75C13 14.3358 12.6642 14 12.25 14H11V13H13.0225ZM11 11.5V8.5H13.0225C13.8385 8.5 14.5 9.2065 14.5 10.0225C14.5 10.8385 13.8385 11.5 13.0225 11.5H11Z" fill="black"/>
<path fill-rule="evenodd" clip-rule="evenodd" d="M16.4 19.625C18.1783 18.6194 19.4325 16.8912 19.8372 14.8887L19.8696 14.7285C19.9563 14.2995 20 13.8628 20 13.4251V4C20 3.44771 19.5523 3 19 3H5C4.44772 3 4 3.44772 4 4V13.4251C4 13.8628 4.04368 14.2995 4.1304 14.7285L4.16278 14.8887C4.56749 16.8912 5.82165 18.6194 7.6 19.625L11.525 21.7436C11.8215 21.9036 12.1785 21.9036 12.475 21.7436L16.4 19.625ZM5.63305 14.5916C5.95067 16.1631 6.933 17.52 8.32627 18.3125L12 20.2954L15.6738 18.3124C17.067 17.52 18.0493 16.1631 18.3669 14.5916L18.3993 14.4314C18.4663 14.1001 18.5 13.763 18.5 13.4251V4.5H5.5V13.4251C5.5 13.763 5.53372 14.1001 5.60067 14.4314L5.63305 14.5916Z" fill="black"/>
</svg>
