<svg width="24" height="24" viewBox="0 0 24 24" fill="none" xmlns="http://www.w3.org/2000/svg">
<path fill-rule="evenodd" clip-rule="evenodd" d="M13.5 7.5H4.5C3.94772 7.5 3.5 7.94772 3.5 8.5V16.5C3.5 17.0523 3.94772 17.5 4.5 17.5H13.5C14.0523 17.5 14.5 17.0523 14.5 16.5V8.5C14.5 7.94772 14.0523 7.5 13.5 7.5ZM4.5 6C3.11929 6 2 7.11929 2 8.5V16.5C2 17.8807 3.11929 19 4.5 19H13.5C14.8807 19 16 17.8807 16 16.5V8.5C16 7.11929 14.8807 6 13.5 6H4.5ZM20.5 9.45313L18.5 9.95312V14.9531L20.5 15.4531V9.45313ZM20.7569 7.5001C21.3685 7.30542 22 7.74014 22 8.35579V16.5505C22 17.1661 21.3685 17.6008 20.7569 17.4061L17.6458 16.4157C17.2601 16.293 17 15.9483 17 15.5601V9.34618C17 8.95795 17.2601 8.61327 17.6458 8.4905L20.7569 7.5001ZM5.75 9.5C5.33579 9.5 5 9.83579 5 10.25C5 10.6642 5.33579 11 5.75 11H7.75C8.16421 11 8.5 10.6642 8.5 10.25C8.5 9.83579 8.16421 9.5 7.75 9.5H5.75Z" fill="black"/>
</svg>
