<svg width="24" height="24" viewBox="0 0 24 24" fill="none" xmlns="http://www.w3.org/2000/svg">
<path fill-rule="evenodd" clip-rule="evenodd" d="M4.25 2.78027C4.25 2.36606 4.58579 2.03027 5 2.03027H19C19.4142 2.03027 19.75 2.36606 19.75 2.78027C19.75 3.19449 19.4142 3.53027 19 3.53027H18.5V9.03027H19C19.4142 9.03027 19.75 9.36606 19.75 9.78027C19.75 10.1945 19.4142 10.5303 19 10.5303H18.5V20.5002H19C19.4142 20.5002 19.75 20.836 19.75 21.2502C19.75 21.6645 19.4142 22.0002 19 22.0002H5C4.58579 22.0002 4.25 21.6645 4.25 21.2502C4.25 20.836 4.58579 20.5002 5 20.5002H5.5V10.5303H5C4.58579 10.5303 4.25 10.1945 4.25 9.78027C4.25 9.36606 4.58579 9.03027 5 9.03027H5.5V3.53027H5C4.58579 3.53027 4.25 3.19449 4.25 2.78027ZM17 3.55029V9.03027H7V3.55029H17ZM7 20.4503V10.5303H17V20.4503H7ZM11.8931 13.4389L12 13.2941L12.1069 13.4389L12.1976 13.5616C12.4429 13.894 12.6734 14.2105 12.8744 14.5203C13.2923 15.1644 13.5 15.6596 13.5 16.0502C13.5 16.5154 13.3395 16.8836 13.0956 17.1325C12.8539 17.3791 12.4897 17.5502 12 17.5502C11.5103 17.5502 11.1461 17.3791 10.9044 17.1325C10.6605 16.8836 10.5 16.5154 10.5 16.0502C10.5 15.6596 10.7077 15.1644 11.1256 14.5203C11.3266 14.2105 11.5571 13.894 11.8024 13.5616L11.8931 13.4389ZM12.703 11.7011C12.3649 11.2068 11.6351 11.2068 11.297 11.7011C11.1089 11.9762 10.9035 12.2541 10.6877 12.546L10.6877 12.546L10.5955 12.6709C10.3505 13.0029 10.0956 13.352 9.86731 13.7038C9.42661 14.3829 9 15.1945 9 16.0502C9 16.871 9.28953 17.6278 9.8331 18.1824C10.3789 18.7393 11.1397 19.0502 12 19.0502C12.8603 19.0502 13.6211 18.7393 14.1669 18.1824C14.7105 17.6278 15 16.871 15 16.0502C15 15.1945 14.5734 14.3829 14.1327 13.7038C13.9044 13.352 13.6495 13.0029 13.4045 12.6709L13.3123 12.546C13.0966 12.2541 12.8912 11.9762 12.703 11.7011Z" fill="black"/>
</svg>
