<svg width="24" height="24" viewBox="0 0 24 24" fill="none" xmlns="http://www.w3.org/2000/svg">
<path fill-rule="evenodd" clip-rule="evenodd" d="M5.50004 8.3088C5.49843 11.2379 5.18892 14.059 4.08684 16.8616L4.08196 16.874C3.81708 17.514 4.02092 18.1208 4.43903 18.3576C5.01232 18.6823 6.2518 19.087 7.28966 19.4184C8.0051 19.6468 8.44534 19.8248 8.99988 19.9209V17.6974C8.66262 17.5004 8.25375 17.2158 7.89493 16.8004C7.38108 16.2056 6.99988 15.3789 6.99988 14.25V9.88217C6.99988 9.31345 7.52976 8.93564 8.04148 9.05034C8.68726 9.19509 10.2823 9.15203 11.3443 7.86813C11.6775 7.46542 12.2946 7.45306 12.6426 7.847C13.7537 9.10499 15.3409 9.18556 15.9618 9.05034C16.469 8.93986 16.9991 9.31338 16.9991 9.88355V14.2514C16.9991 15.3799 16.6181 16.2064 16.1046 16.8012C15.7475 17.2147 15.3408 17.4987 15.0044 17.6956L15.031 19.9241C15.5822 19.8292 16.0181 19.6511 16.7286 19.4235C17.7558 19.0946 18.9868 18.6918 19.5611 18.3666C19.9792 18.1298 20.1831 17.523 19.9183 16.883C18.765 14.0967 18.5014 11.2114 18.5001 8.30879C18.3718 6.26571 17.0797 5.10035 15.8216 4.41117C14.518 3.69701 12.9761 3.5 11.9998 3.5C11.0235 3.5 9.29286 3.69701 7.98921 4.41117C6.73117 5.10035 5.62834 6.26571 5.50004 8.3088ZM7.26854 3.09564C8.87017 2.21823 10.8771 2 11.9998 2C13.1224 2 14.9407 2.21823 16.5423 3.09564C18.1851 3.99561 19.8412 5.59239 19.9987 8.24128L20 8.26353V8.28581C20 11.1167 20.2579 13.7814 21.3042 16.3093C21.7713 17.4377 21.5587 18.9591 20.3002 19.6719C19.5998 20.0685 18.2605 20.508 17.1861 20.8521C16.1226 21.1926 15.2227 21.4736 14.4126 21.4994C13.9143 21.5152 13.5451 21.1122 13.5397 20.6615L13.4999 17.3225C13.496 17.0005 13.6743 16.7036 13.9614 16.5561C14.2898 16.3874 14.6681 16.1696 14.9693 15.8208C15.2546 15.4904 15.4991 15.0093 15.4991 14.2514V10.5974C14.5613 10.6019 13.1024 10.3001 12.0158 9.33885C10.9309 10.3482 9.44456 10.6245 8.49988 10.6053V14.25C8.49988 15.0082 8.74452 15.4894 9.02999 15.8198C9.33135 16.1686 9.70979 16.3864 10.0382 16.5551C10.3223 16.701 10.4999 16.9932 10.4999 17.3113V20.65C10.4999 21.1044 10.1293 21.5142 9.62649 21.498C8.81558 21.4717 7.90622 21.1898 6.83343 20.8473C5.74998 20.5014 4.40089 20.0598 3.69987 19.6628C2.44384 18.9515 2.22969 17.4347 2.69311 16.307C3.70236 13.7377 4.00005 11.1171 4.00005 8.28581V8.26353L4.00137 8.24128C4.15892 5.59239 5.62571 3.99561 7.26854 3.09564Z" fill="black"/>
</svg>
