<svg width="24" height="24" viewBox="0 0 24 24" fill="none" xmlns="http://www.w3.org/2000/svg">
<path fill-rule="evenodd" clip-rule="evenodd" d="M3.0498 11.55C3.0498 6.57949 7.07924 2.55005 12.0498 2.55005C17.0204 2.55005 21.0498 6.57949 21.0498 11.55C21.0498 11.6272 21.0466 11.7041 21.0402 11.781C19.5465 11.8438 16.9368 12.4274 14.932 14.4322C12.8719 16.4923 12.5082 19.0616 12.3524 20.5343C12.2518 20.5447 12.1509 20.55 12.0498 20.55C7.07924 20.55 3.0498 16.5206 3.0498 11.55ZM15.9926 15.4929C17.4137 14.0718 19.2327 13.5021 20.4991 13.3334C20.399 13.5029 20.2857 13.6746 20.1597 13.8495C19.5739 14.6626 18.768 15.4712 17.857 16.3822C17.5596 16.6796 17.2687 16.9841 16.9782 17.288C16.3385 17.9576 15.7015 18.6243 15.0052 19.205C14.6457 19.5048 14.2906 19.763 13.937 19.9708C14.1339 18.6125 14.5708 16.9147 15.9926 15.4929ZM12.0498 1.05005C6.25081 1.05005 1.5498 5.75106 1.5498 11.55C1.5498 17.349 6.25081 22.05 12.0498 22.05C13.5685 22.05 14.8731 21.2682 15.9658 20.357C16.7296 19.7201 17.467 18.9488 18.1331 18.2521L18.1331 18.2521C18.4078 17.9648 18.6704 17.6901 18.9176 17.4429L18.9449 17.4156C19.8241 16.5364 20.713 15.6476 21.3768 14.7263C22.0535 13.787 22.5498 12.7433 22.5498 11.55C22.5498 5.75106 17.8488 1.05005 12.0498 1.05005ZM14.1414 7.13241C13.8661 6.76535 13.3453 6.69096 12.9783 6.96625C12.6112 7.24154 12.5368 7.76227 12.8121 8.12933C13.5293 9.08556 13.8921 10.295 13.8921 11.7847C13.8921 12.0704 14.2337 12.2563 14.4753 12.1038C14.7374 11.9384 15.0104 11.7888 15.2931 11.6563C15.4473 11.5841 15.5491 11.4294 15.5405 11.2593C15.4585 9.65178 14.9942 8.2695 14.1414 7.13241ZM9.69283 8.60116C10.0746 8.34666 10.5904 8.44982 10.8449 8.83158C11.4857 9.79281 11.8152 10.7812 11.8152 11.7847C11.8152 12.7882 11.4857 13.7766 10.8449 14.7378C10.5904 15.1196 10.0746 15.2228 9.69283 14.9683C9.31107 14.7138 9.20791 14.198 9.46242 13.8162C9.92929 13.1159 10.1537 12.4428 10.1537 11.7847C10.1537 11.1267 9.92929 10.4535 9.46242 9.75323C9.20791 9.37147 9.31107 8.85567 9.69283 8.60116ZM7.03828 13.2386C7.6118 13.2386 8.07674 12.5876 8.07674 11.7847C8.07674 10.9818 7.6118 10.3309 7.03828 10.3309C6.46475 10.3309 5.99982 10.9818 5.99982 11.7847C5.99982 12.5876 6.46475 13.2386 7.03828 13.2386Z" fill="black"/>
</svg>
