<svg width="24" height="24" viewBox="0 0 24 24" fill="none" xmlns="http://www.w3.org/2000/svg">
<path fill-rule="evenodd" clip-rule="evenodd" d="M16.6312 6.73722C12.9324 5.36927 9.37037 5.98606 7.35468 6.72468L11.9998 10.9827L16.6312 6.73722ZM5.32036 6.18224C5.38699 6.03962 5.4989 5.91672 5.64875 5.83739C7.68425 4.75977 12.9835 3.29431 18.3207 5.82246C18.4844 5.89998 18.607 6.02909 18.6784 6.18114C18.6905 6.19905 18.7021 6.21759 18.713 6.23674L20.6243 9.58157C20.7653 9.82833 20.7737 10.1292 20.6466 10.3834L17.7258 16.2249C17.4838 16.7089 16.8572 16.8466 16.4346 16.5085L11.9998 12.9607L7.56492 16.5085C7.14236 16.8466 6.51568 16.7089 6.27367 16.2249L3.35292 10.3834C3.22582 10.1292 3.23417 9.82833 3.37518 9.58157L5.28651 6.23674C5.29723 6.21798 5.30853 6.19981 5.32036 6.18224ZM6.18515 7.68747L4.85013 10.0237L7.25573 14.8349L10.8476 11.9614L6.18515 7.68747ZM17.8144 7.68747L19.1494 10.0237L16.7438 14.8349L13.1519 11.9614L17.8144 7.68747ZM11 16.0002H13V18.0002H11V16.0002ZM13 19.0002H11V21.0002H13V19.0002Z" fill="black"/>
</svg>
