<svg width="24" height="24" viewBox="0 0 24 24" fill="none" xmlns="http://www.w3.org/2000/svg">
<path fill-rule="evenodd" clip-rule="evenodd" d="M12 1.50049C11.3891 1.50049 10.1469 1.5708 9.02965 2.03716C8.46433 2.27314 7.89241 2.62636 7.45901 3.16012C7.01554 3.70629 6.74987 4.40221 6.74987 5.25049C6.74987 6.72218 6.46805 7.71833 5.90675 9.16597C5.7739 9.49399 5.66244 9.96531 5.71235 10.4532C5.76506 10.9684 6.00924 11.5465 6.62655 11.9009C6.89645 12.0559 7.23143 12.1554 7.54147 12.2252C7.86466 12.298 8.22113 12.3512 8.56835 12.3903C9.26296 12.4686 9.9684 12.4961 10.3939 12.5C10.8777 12.5044 11.25 12.1108 11.25 11.6505V9.81144C11.25 9.49558 11.0738 9.19871 10.7816 9.05239C10.5697 8.94632 10.4724 8.89394 10.3961 8.80673C10.3445 8.74778 10.25 8.61109 10.25 8.25045L10.2499 7.15116C10.4109 7.1632 10.5827 7.16594 10.7597 7.15328C11.1563 7.12494 11.6037 7.01666 12.014 6.74747C12.4189 7.0002 12.8542 7.10616 13.2415 7.1375C13.4182 7.1518 13.5893 7.15111 13.7499 7.14111L13.75 8.25053C13.75 8.61113 13.6555 8.74778 13.6039 8.80673C13.5276 8.89394 13.4302 8.94632 13.2184 9.05239C12.9262 9.19871 12.75 9.49558 12.75 9.81144V11.6505C12.75 12.1108 13.1223 12.5044 13.6061 12.5C14.0316 12.4961 14.737 12.4686 15.4316 12.3903C15.7788 12.3512 16.1353 12.298 16.4585 12.2252C16.7685 12.1554 17.1035 12.0559 17.3734 11.9009C18.0018 11.5402 18.2542 10.9087 18.3344 10.3968C18.414 9.88857 18.3513 9.35156 18.1943 8.96698L18.1603 8.88356C17.5764 7.4542 17.2499 6.65471 17.2499 5.25049C17.2499 4.40223 16.9842 3.70631 16.5408 3.16015C16.1074 2.62638 15.5355 2.27316 14.9703 2.03717C13.8531 1.5708 12.6109 1.50049 12 1.50049ZM8.24987 5.25049C8.24987 4.73716 8.40292 4.37728 8.62348 4.10564C8.85411 3.82161 9.19154 3.59502 9.60747 3.4214C10.4527 3.06857 11.4606 3.00049 12 3.00049C12.5394 3.00049 13.5472 3.06857 14.3924 3.4214C14.8083 3.59501 15.1457 3.82159 15.3763 4.10562C15.5968 4.37725 15.7499 4.73714 15.7499 5.25049C15.7499 6.95173 16.1747 7.99083 16.7475 9.39186L16.8056 9.534C16.8492 9.64063 16.8942 9.89832 16.8524 10.1647C16.8113 10.4273 16.7134 10.5502 16.6266 10.6C16.5537 10.6419 16.3938 10.7022 16.129 10.7618C15.8774 10.8185 15.5791 10.8642 15.2635 10.8998C14.9162 10.9389 14.5625 10.9643 14.25 10.9797V10.1989C14.4047 10.102 14.5782 9.97113 14.7326 9.79475C15.0598 9.42099 15.25 8.91557 15.25 8.25045L15.2499 6.38311C15.2499 5.81596 14.7149 5.42441 14.188 5.55794C13.9718 5.61275 13.6666 5.667 13.3625 5.64239C13.0664 5.61842 12.8159 5.52489 12.625 5.32524C12.2783 4.96256 11.6956 4.9734 11.3619 5.34542C11.1829 5.54488 10.9449 5.63622 10.6528 5.6571C10.3501 5.67874 10.0422 5.61891 9.81738 5.56002C9.28538 5.42066 8.74987 5.8174 8.7499 6.3832L8.75 8.25053C8.75 8.91563 8.94024 9.421 9.26743 9.79475C9.42183 9.97113 9.59529 10.102 9.75 10.1989V10.9797C9.43744 10.9643 9.08374 10.9389 8.73644 10.8998C8.42085 10.8642 8.12249 10.8185 7.87087 10.7618C7.60611 10.7022 7.44628 10.6419 7.37335 10.6001C7.27544 10.5438 7.22125 10.4637 7.20456 10.3005C7.18541 10.1134 7.23175 9.88928 7.29827 9.72635L7.30305 9.71404C7.89999 8.17522 8.24987 6.98289 8.24987 5.25049Z" fill="black"/>
<path fill-rule="evenodd" clip-rule="evenodd" d="M9.15273 14.2291C9.05732 14.086 8.8967 14 8.7247 14C7.39614 14 6.21664 14.8501 5.79651 16.1105L5.34284 17.4715C4.83643 18.9907 5.33074 20.6646 6.58122 21.665C6.85232 21.8818 7.18916 22 7.53633 22H16.4637C16.8109 22 17.1477 21.8818 17.4188 21.665C18.6693 20.6646 19.1636 18.9907 18.6572 17.4715L18.2035 16.1105C17.7834 14.8501 16.6039 14 15.2753 14C15.1033 14 14.9427 14.086 14.8473 14.2291L13.8497 15.7255L13.3906 14.5515C13.2662 14.2198 12.9491 14 12.5947 14H11.4147C11.0604 14 10.7432 14.2198 10.6188 14.5515L10.1564 15.7346L9.15273 14.2291ZM8.24638 15.5737C7.77096 15.7241 7.38318 16.0939 7.21953 16.5849L6.76586 17.9459C6.45819 18.8689 6.75851 19.8859 7.51826 20.4937C7.52339 20.4978 7.52976 20.5 7.53633 20.5H16.4637C16.4703 20.5 16.4766 20.4978 16.4818 20.4937C17.2415 19.8859 17.5418 18.8689 17.2342 17.9459L16.7805 16.5849C16.6169 16.0939 16.2291 15.7241 15.7537 15.5737L13.3313 19.2072C12.698 20.1572 11.302 20.1572 10.6687 19.2072L8.24638 15.5737ZM12.1443 15.5L12.8341 17.2488L12.0832 18.3752C12.0436 18.4346 11.9564 18.4346 11.9168 18.3752L11.1721 17.2581L11.8651 15.5H12.1443Z" fill="black"/>
</svg>
