<svg width="24" height="24" viewBox="0 0 24 24" fill="none" xmlns="http://www.w3.org/2000/svg">
<path fill-rule="evenodd" clip-rule="evenodd" d="M2.78027 3.25C2.36606 3.25 2.03027 3.58579 2.03027 4C2.03027 4.41421 2.36606 4.75 2.78027 4.75H4.05029V19.54C4.05029 20.3408 4.69948 20.99 5.50029 20.99H18.6003C19.4011 20.99 20.0503 20.3408 20.0503 19.54V4.75H21.2803C21.6945 4.75 22.0303 4.41421 22.0303 4C22.0303 3.58579 21.6945 3.25 21.2803 3.25H20.0503H4.05029H2.78027ZM18.5503 4.75H5.55029V19.49H18.5503V4.75ZM12.0503 8.54999C10.9457 8.54999 10.0503 9.44542 10.0503 10.55C10.0503 11.6546 10.9457 12.55 12.0503 12.55C13.1549 12.55 14.0503 11.6546 14.0503 10.55C14.0503 9.44542 13.1549 8.54999 12.0503 8.54999ZM8.55029 10.55C8.55029 8.61699 10.1173 7.04999 12.0503 7.04999C13.9833 7.04999 15.5503 8.61699 15.5503 10.55C15.5503 12.483 13.9833 14.05 12.0503 14.05C10.1173 14.05 8.55029 12.483 8.55029 10.55ZM11.0002 15.45C10.586 15.45 10.2502 15.7858 10.2502 16.2C10.2502 16.6142 10.586 16.95 11.0002 16.95H13.0002C13.4145 16.95 13.7502 16.6142 13.7502 16.2C13.7502 15.7858 13.4145 15.45 13.0002 15.45H11.0002Z" fill="black"/>
</svg>
