<svg width="24" height="24" viewBox="0 0 24 24" fill="none" xmlns="http://www.w3.org/2000/svg">
<path fill-rule="evenodd" clip-rule="evenodd" d="M12.75 21C12.3358 21 12 20.6642 12 20.25C12 19.8358 12.3358 19.5 12.75 19.5H17.5C17.7761 19.5 18 19.2761 18 19V5C18 4.72386 17.7761 4.5 17.5 4.5H6.5C6.22386 4.5 6 4.72386 6 5V12.25C6 12.6642 5.66421 13 5.25 13C4.83579 13 4.5 12.6642 4.5 12.25V5C4.5 3.89543 5.39543 3 6.5 3H17.5C18.6046 3 19.5 3.89543 19.5 5V19C19.5 20.1046 18.6046 21 17.5 21H12.75ZM8 8.5H16V7H8V8.5ZM16 12H8V10.5H16V12ZM13 15.5H16V14H13V15.5ZM4.55764 18.8818L3.46967 19.9698C3.17678 20.2627 3.17678 20.7376 3.46967 21.0305C3.76256 21.3233 4.23744 21.3233 4.53033 21.0305L5.49941 20.0614C6.051 20.4928 6.74552 20.75 7.5001 20.75C9.29503 20.75 10.7501 19.2949 10.7501 17.5C10.7501 15.7051 9.29503 14.25 7.5001 14.25C5.70518 14.25 4.2501 15.7051 4.2501 17.5C4.2501 17.9941 4.36037 18.4625 4.55764 18.8818ZM6.10431 18.5558C6.10168 18.5522 6.099 18.5486 6.0963 18.5451C5.87883 18.2534 5.7501 17.8918 5.7501 17.5C5.7501 16.5335 6.53361 15.75 7.5001 15.75C8.4666 15.75 9.2501 16.5335 9.2501 17.5C9.2501 18.4665 8.4666 19.25 7.5001 19.25C6.93016 19.25 6.42384 18.9775 6.10431 18.5558Z" fill="black"/>
</svg>
