<svg width="24" height="24" viewBox="0 0 24 24" fill="none" xmlns="http://www.w3.org/2000/svg">
<path fill-rule="evenodd" clip-rule="evenodd" d="M8.62131 13.5149C8.84389 12.6246 9.64386 12 10.5616 12H13.4385C14.3562 12 15.1562 12.6246 15.3788 13.5149L15.8137 15.2545C15.9083 15.6332 15.6219 16 15.2316 16H8.76851C8.37817 16 8.09175 15.6332 8.18642 15.2545L8.62131 13.5149ZM10.5616 13.5H13.4385C13.6679 13.5 13.8679 13.6561 13.9236 13.8787L14.0789 14.5H9.92121L10.0765 13.8787C10.1322 13.6561 10.3322 13.5 10.5616 13.5Z" fill="black"/>
<path fill-rule="evenodd" clip-rule="evenodd" d="M12 6C10.6193 6 9.5 7.11929 9.5 8.5C9.5 9.88071 10.6193 11 12 11C13.3807 11 14.5 9.88071 14.5 8.5C14.5 7.11929 13.3807 6 12 6ZM11 8.5C11 9.05228 11.4477 9.5 12 9.5C12.5523 9.5 13 9.05228 13 8.5C13 7.94772 12.5523 7.5 12 7.5C11.4477 7.5 11 7.94772 11 8.5Z" fill="black"/>
<path fill-rule="evenodd" clip-rule="evenodd" d="M19.8372 14.8887C19.4325 16.8912 18.1783 18.6194 16.4 19.625L12.475 21.7436C12.1785 21.9036 11.8215 21.9036 11.525 21.7436L7.6 19.625C5.82165 18.6194 4.56749 16.8912 4.16278 14.8887L4.1304 14.7285C4.04368 14.2995 4 13.8628 4 13.4251V4C4 3.44772 4.44772 3 5 3H19C19.5523 3 20 3.44771 20 4V13.4251C20 13.8628 19.9563 14.2995 19.8696 14.7285L19.8372 14.8887ZM8.32627 18.3125C6.933 17.52 5.95067 16.1631 5.63305 14.5916L5.60067 14.4314C5.53372 14.1001 5.5 13.763 5.5 13.4251V4.5H18.5V13.4251C18.5 13.763 18.4663 14.1001 18.3993 14.4314L18.3669 14.5916C18.0493 16.1631 17.067 17.52 15.6738 18.3124L12 20.2954L8.32627 18.3125Z" fill="black"/>
</svg>
