<svg width="24" height="24" viewBox="0 0 24 24" fill="none" xmlns="http://www.w3.org/2000/svg">
<path fill-rule="evenodd" clip-rule="evenodd" d="M8 4.5H16C16.5523 4.5 17 4.94772 17 5.5V18.5C17 19.0523 16.5523 19.5 16 19.5H8C7.44772 19.5 7 19.0523 7 18.5V5.5C7 4.94772 7.44772 4.5 8 4.5ZM5.5 5.5C5.5 4.11929 6.61929 3 8 3H16C17.3807 3 18.5 4.11929 18.5 5.5V18.5C18.5 19.8807 17.3807 21 16 21H8C6.61929 21 5.5 19.8807 5.5 18.5V5.5ZM13.75 5.5C14.1642 5.5 14.5 5.83579 14.5 6.25C14.5 6.66421 14.1642 7 13.75 7H10.25C9.83579 7 9.5 6.66421 9.5 6.25C9.5 5.83579 9.83579 5.5 10.25 5.5H13.75ZM10 18H8V16.5H10V18ZM11.5 16.5V18H16V16.5H11.5ZM12 8.5C12.4142 8.5 12.75 8.83579 12.75 9.25V11H14.5C14.9142 11 15.25 11.3358 15.25 11.75C15.25 12.1642 14.9142 12.5 14.5 12.5H12.75V14.25C12.75 14.6642 12.4142 15 12 15C11.5858 15 11.25 14.6642 11.25 14.25V12.5H9.5C9.08579 12.5 8.75 12.1642 8.75 11.75C8.75 11.3358 9.08579 11 9.5 11H11.25V9.25C11.25 8.83579 11.5858 8.5 12 8.5Z" fill="black"/>
</svg>
