<svg width="24" height="24" viewBox="0 0 24 24" fill="none" xmlns="http://www.w3.org/2000/svg">
<path d="M3.55087 8.38641C3.55029 8.42419 3.54999 8.46204 3.54999 8.5H3.565C3.63449 8.84229 3.93716 9.09998 4.29999 9.09998C4.66281 9.09998 4.96548 8.84229 5.03497 8.5H5.04999C5.04999 5.32434 7.62436 2.75 10.8 2.75H11.5727C15.1751 2.75 18.0955 5.67035 18.0955 9.27271V10.1528C16.2709 9.81714 14.624 10.0883 13.6394 10.3695C13.2411 10.4833 13.0105 10.8984 13.1243 11.2967C13.2381 11.6949 13.6532 11.9256 14.0515 11.8118C15.0254 11.5336 16.7667 11.2722 18.5875 11.8101C18.9847 11.9275 19.4019 11.7006 19.5193 11.3033C19.5493 11.2017 19.5568 11.0989 19.5447 11H19.5955V9.27271C19.5955 4.84192 16.0035 1.25 11.5727 1.25H10.8C6.86978 1.25 3.66998 4.37732 3.55328 8.27924C3.55109 8.30255 3.54999 8.32611 3.54999 8.34998C3.54999 8.36218 3.55029 8.37433 3.55087 8.38641Z" fill="black"/>
<path d="M3.55533 11C3.59082 10.7099 3.79523 10.455 4.09396 10.3696L4.11856 10.3626C5.18213 10.0587 7.47849 9.40228 9.96259 10.3666C10.2899 10.4937 10.5045 10.8089 10.5045 11.1585V15.9213C11.1994 16.0152 12.2455 16.0585 13.209 15.8177C13.6108 15.7172 14.0181 15.9615 14.1185 16.3633C14.219 16.7652 13.9746 17.1724 13.5728 17.2729C12.022 17.6606 10.3851 17.4593 9.66309 17.2944C9.26416 17.2034 9.00455 16.8494 9.00455 16.4672V11.6214C7.47443 11.1556 6.04773 11.4049 5.04999 11.6624V14.7273C5.04999 18.3297 7.97034 21.25 11.5727 21.25C15.1751 21.25 18.0955 18.3297 18.0955 14.7273V14C18.0955 13.5858 18.4312 13.25 18.8455 13.25C19.2597 13.25 19.5955 13.5858 19.5955 14V14.7273C19.5955 19.1581 16.0035 22.75 11.5727 22.75C7.14191 22.75 3.54999 19.1581 3.54999 14.7273V11.1069C3.54974 11.0959 3.54974 11.0849 3.54999 11.0739V11H3.55533Z" fill="black"/>
</svg>
