<svg width="24" height="24" viewBox="0 0 24 24" fill="none" xmlns="http://www.w3.org/2000/svg">
<path fill-rule="evenodd" clip-rule="evenodd" d="M6.78027 3.53028H12.5502V7.05027H6.78027C4.15692 7.05027 2.03027 9.17692 2.03027 11.8003V14.3003C2.03027 14.9906 2.58992 15.5503 3.28027 15.5503H6.78027C7.47063 15.5503 8.03027 14.9906 8.03027 14.3003V12.5503H12.5502V18.5103H11.7703C11.3561 18.5103 11.0203 18.8461 11.0203 19.2603C11.0203 19.6745 11.3561 20.0103 11.7703 20.0103H22.2703C22.6845 20.0103 23.0203 19.6745 23.0203 19.2603C23.0203 18.8461 22.6845 18.5103 22.2703 18.5103H21.5303V6.28027C21.5303 3.93306 19.6275 2.03027 17.2803 2.03027H13.3002L13.2985 2.03028H6.78027C6.36606 2.03028 6.03027 2.36606 6.03027 2.78028C6.03027 3.19449 6.36606 3.53028 6.78027 3.53028ZM14.0502 7.80027V3.53027L15.7803 3.53028L15.782 3.53027H17.2803C18.7991 3.53027 20.0303 4.76149 20.0303 6.28027V18.5003H14.0502V11.8003C14.0502 11.3861 13.7145 11.0503 13.3002 11.0503H7.78027C7.08992 11.0503 6.53027 11.6099 6.53027 12.3003V14.0503H3.53027V11.8003C3.53027 10.0053 4.98535 8.55027 6.78027 8.55027H13.3002C13.7145 8.55027 14.0502 8.21449 14.0502 7.80027Z" fill="black"/>
</svg>
