<svg width="24" height="24" viewBox="0 0 24 24" fill="none" xmlns="http://www.w3.org/2000/svg">
<path fill-rule="evenodd" clip-rule="evenodd" d="M7.96378 13.5L10.1456 5.5H13.8542L16.036 13.5H7.96378ZM8.79894 4.73688C8.91759 4.30182 9.31275 4 9.76371 4H14.2361C14.6871 4 15.0822 4.30182 15.2009 4.73688L17.6554 13.7369C17.8289 14.373 17.35 15 16.6907 15H7.30916C6.64979 15 6.1709 14.373 6.3444 13.7369L8.79894 4.73688ZM12.75 17.25C12.75 16.8358 12.4142 16.5 12 16.5C11.5858 16.5 11.25 16.8358 11.25 17.25V19.5H9.25C8.83579 19.5 8.5 19.8358 8.5 20.25C8.5 20.6642 8.83579 21 9.25 21H14.75C15.1642 21 15.5 20.6642 15.5 20.25C15.5 19.8358 15.1642 19.5 14.75 19.5H12.75V17.25Z" fill="black"/>
</svg>
