<svg width="24" height="24" viewBox="0 0 24 24" fill="none" xmlns="http://www.w3.org/2000/svg">
<path fill-rule="evenodd" clip-rule="evenodd" d="M5.5 4.75045C5.5 4.74437 5.51059 4.67552 5.59283 4.59328C5.67507 4.51104 5.74392 4.50045 5.75 4.50045L18.25 4.49609C18.2561 4.49609 18.3249 4.50667 18.4072 4.58891C18.4894 4.67115 18.5 4.74001 18.5 4.74608V6.75033C18.5 7.16454 18.8358 7.50033 19.25 7.50033C19.6642 7.50033 20 7.16454 20 6.75033V4.74608C20 4.25216 19.7606 3.82102 19.4678 3.52826C19.1751 3.2355 18.7439 2.99609 18.25 2.99609L5.75 3.00046C5.25608 3.00046 4.82493 3.23987 4.53217 3.53262C4.23941 3.82538 4 4.25653 4 4.75045V12.3256C4 12.983 4.71432 13.3915 5.28097 13.0582L12.7438 8.79595C12.9658 8.92582 13.2242 9.00024 13.5 9.00024C14.3284 9.00024 15 8.32867 15 7.50024C15 6.67182 14.3284 6.00024 13.5 6.00024C12.6747 6.00024 12.005 6.66683 12 7.49101L5.5 11.1891V4.75045ZM20 10.6709C20 10.0135 19.2857 9.60494 18.719 9.93825L11.256 14.2044C11.034 14.0746 10.7757 14.0002 10.5 14.0002C9.67157 14.0002 9 14.6718 9 15.5002C9 16.3287 9.67157 17.0002 10.5 17.0002C11.3255 17.0002 11.9952 16.3335 12 15.5091L18.5 11.8074V13.496C18.5 13.8217 18.4701 14.0573 18.4018 14.4054L18.3603 14.6167C18.0477 16.2084 17.2162 17.5339 15.8845 18.3139L12.0251 20.2404L12.0134 20.2469C12.0051 20.2515 11.9949 20.2515 11.9865 20.2469L11.9788 20.2426L8.26757 18.3331C6.95943 17.452 6.53436 16.6034 6.05422 15.6431C5.86898 15.2726 5.41847 15.1225 5.04799 15.3077C4.67751 15.493 4.52734 15.9435 4.71258 16.3139L4.71364 16.3161C5.22935 17.3475 5.80165 18.4921 7.46738 19.6025L7.5 19.6243L11.267 21.563C11.7245 21.8132 12.2781 21.8128 12.7352 21.5618L16.615 19.6243L16.6273 19.6172C18.4034 18.5834 19.4512 16.8458 19.8322 14.9058L19.8737 14.6944C19.9547 14.2818 20 13.9456 20 13.496V10.6709Z" fill="black"/>
</svg>
