<svg width="24" height="24" viewBox="0 0 24 24" fill="none" xmlns="http://www.w3.org/2000/svg">
<path fill-rule="evenodd" clip-rule="evenodd" d="M11.171 3.49996C11.2398 3.36239 11.5135 3.16455 12.0002 3.16455C12.4868 3.16455 12.7606 3.36238 12.8293 3.49996C13.0146 3.87045 13.4651 4.02062 13.8356 3.83538C14.2061 3.65013 14.3562 3.19963 14.171 2.82915C13.7398 1.96672 12.7635 1.66455 12.0002 1.66455C11.2368 1.66455 10.2606 1.96672 9.82934 2.82914C9.6441 3.19963 9.79427 3.65013 10.1648 3.83537C10.5352 4.02062 10.9857 3.87045 11.171 3.49996ZM5.48383 8.12686C5.67553 6.20986 7.28865 4.75 9.21522 4.75H14.7853C16.7119 4.75 18.325 6.20985 18.5167 8.12686L19.5266 18.4764C19.6885 20.0952 18.4172 21.5 16.7903 21.5H7.21023C5.58327 21.5 4.31199 20.0953 4.47388 18.4764L5.48383 8.12686ZM5.96643 18.6256L6.51872 12.9661C6.97342 13.3011 7.53589 13.5 8.1476 13.5H9V14C9 14.5523 9.44772 15 10 15H14C14.5523 15 15 14.5523 15 14V13.5H15.8517C16.4639 13.5 17.0268 13.3007 17.4817 12.9652L18.0341 18.6256C18.1077 19.3615 17.5298 20 16.7903 20H7.21023C6.4707 20 5.89285 19.3615 5.96643 18.6256ZM15 12H15.8517C16.5771 12 17.1502 11.3845 17.0985 10.6609L16.9506 8.58969C16.8665 7.41226 15.8867 6.5 14.7063 6.5H9.29301C8.11257 6.5 7.13283 7.41226 7.04873 8.58969L6.90078 10.6609C6.84909 11.3845 7.42218 12 8.1476 12H9C9 11.4477 9.44772 11 10 11H14C14.5523 11 15 11.4477 15 12ZM10.5 13.5V12.5H13.5V13.5H10.5ZM8.5 16.75C8.5 16.3358 8.83579 16 9.25 16H14.75C15.1642 16 15.5 16.3358 15.5 16.75C15.5 17.1642 15.1642 17.5 14.75 17.5H9.25C8.83579 17.5 8.5 17.1642 8.5 16.75Z" fill="black"/>
</svg>
