<svg width="24" height="24" viewBox="0 0 24 24" fill="none" xmlns="http://www.w3.org/2000/svg">
<path fill-rule="evenodd" clip-rule="evenodd" d="M11.7502 6C10.9218 6 10.2502 6.67157 10.2502 7.5V7.75C10.2502 8.16421 9.9144 8.5 9.50019 8.5C9.08598 8.5 8.75019 8.16421 8.75019 7.75V7.5C8.75019 5.84315 10.0933 4.5 11.7502 4.5C13.407 4.5 14.7502 5.84315 14.7502 7.5V7.55278C14.7502 8.15547 14.5718 8.74468 14.2375 9.24615L13.0178 11.0757L20.2102 16.47C20.8637 16.9601 20.5171 18 19.7002 18H4.28527C3.48179 18 3.12687 16.9882 3.75428 16.4863L8.53167 12.5887C8.85512 12.3299 9.32709 12.3823 9.58584 12.7058C9.8446 13.0292 9.79216 13.5012 9.46871 13.76L6.13828 16.5H17.7502L11.9286 12.1338C11.3979 11.7357 11.2705 10.9924 11.6385 10.4404L12.9894 8.4141C13.1594 8.15903 13.2502 7.85933 13.2502 7.55278V7.5C13.2502 6.67157 12.5786 6 11.7502 6Z" fill="black"/>
</svg>
