<svg width="24" height="24" viewBox="0 0 24 24" fill="none" xmlns="http://www.w3.org/2000/svg">
<path fill-rule="evenodd" clip-rule="evenodd" d="M19 10.5C20.933 10.5 22.5 12.067 22.5 14C22.5 15.1894 21.9067 16.2402 21 16.8727V19.3333C21 20.53 20.0299 21.5 18.8333 21.5H5.16667C3.97005 21.5 3 20.53 3 19.3333V16.8727C2.09326 16.2402 1.5 15.1894 1.5 14C1.5 12.067 3.067 10.5 5 10.5V9C5 5.96243 7.46243 3.5 10.5 3.5H13.5C16.5376 3.5 19 5.96243 19 9V10.5ZM6.5 10.8368C7.38818 11.2587 8.07046 12.0437 8.35506 13H15.6449C15.9295 12.0437 16.6118 11.2587 17.5 10.8368V9C17.5 6.79086 15.7091 5 13.5 5H10.5C8.29086 5 6.5 6.79086 6.5 9V10.8368ZM9.5 20C8.94772 20 8.5 19.5523 8.5 19C8.5 18.4477 8.94772 18 9.5 18H14.5C15.0523 18 15.5 18.4477 15.5 19C15.5 19.5523 15.0523 20 14.5 20H9.5ZM17 19.3333V14C17 13.4077 17.2575 12.8755 17.6667 12.5093C17.9817 12.2273 18.3867 12.0437 18.8333 12.0068C18.8883 12.0023 18.9439 12 19 12C20.1046 12 21 12.8954 21 14C21 14.9319 20.3626 15.715 19.5 15.937V19.3333C19.5 19.7015 19.2015 20 18.8333 20H17.6667C17.2985 20 17 19.7015 17 19.3333ZM14.5 14.5C15.0523 14.5 15.5 14.9477 15.5 15.5C15.5 16.0523 15.0523 16.5 14.5 16.5H9.5C8.94772 16.5 8.5 16.0523 8.5 15.5C8.5 14.9477 8.94772 14.5 9.5 14.5H14.5ZM7 14V19.3333C7 19.7015 6.70152 20 6.33333 20H5.16667C4.79848 20 4.5 19.7015 4.5 19.3333V15.937C3.63739 15.715 3 14.9319 3 14C3 12.8954 3.89543 12 5 12C5.05613 12 5.11171 12.0023 5.16667 12.0068C5.61327 12.0437 6.01827 12.2273 6.33333 12.5093C6.7425 12.8755 7 13.4077 7 14Z" fill="black"/>
</svg>
