<svg width="24" height="24" viewBox="0 0 24 24" fill="none" xmlns="http://www.w3.org/2000/svg">
<path fill-rule="evenodd" clip-rule="evenodd" d="M16.7619 6.3943L17.2436 3.74458L20.7449 7.24583L17.8543 7.48672L16.7619 6.3943ZM21.4066 8.69589L18.838 8.90994C19.3669 10.2563 19.0873 11.8468 17.9992 12.9349L13.3524 17.5816C12.3359 18.5982 10.881 18.9091 9.59627 18.5144L9.17218 21.1537C9.01036 22.1608 7.77542 22.5606 7.05413 21.8393L2.76401 17.5492C2.05102 16.8362 2.43222 15.6158 3.42428 15.4354L5.84007 14.9962C5.25281 13.6279 5.51775 11.9813 6.6349 10.8641L11.2816 6.21738C12.3988 5.10018 14.0456 4.83526 15.4139 5.42263L15.8532 3.0068C16.0335 2.01474 17.2539 1.63354 17.9669 2.34653L22.1867 6.56632C22.9392 7.31883 22.4671 8.60751 21.4066 8.69589ZM16.9385 8.69228L16.941 8.69476C17.8172 9.57364 17.8164 10.9964 16.9385 11.8743L12.2918 16.521C11.4131 17.3997 9.98848 17.3997 9.1098 16.521L7.69556 15.1068C6.81688 14.2281 6.81688 12.8035 7.69556 11.9248L12.3423 7.27804C13.2201 6.4002 14.6429 6.39936 15.5218 7.27555L15.5243 7.27804L16.9385 8.69228ZM6.80833 16.3448L4.16206 16.8259L7.76881 20.4326L8.19891 17.7559L6.80833 16.3448ZM14.0594 10.4093C14.3523 10.1164 14.3523 9.64152 14.0594 9.34863C13.7665 9.05573 13.2916 9.05573 12.9987 9.34863L9.36216 12.9852C9.06927 13.2781 9.06927 13.753 9.36216 14.0458C9.65505 14.3387 10.1299 14.3387 10.4228 14.0458L14.0594 10.4093Z" fill="black"/>
</svg>
