<svg width="24" height="24" viewBox="0 0 24 24" fill="none" xmlns="http://www.w3.org/2000/svg">
<path fill-rule="evenodd" clip-rule="evenodd" d="M12.1875 10.8592L7.70696 15.3397C7.41406 15.6326 6.93919 15.6326 6.6463 15.3397L3.47969 12.1731C1.72878 10.4222 1.72878 7.58341 3.47968 5.8325C5.23059 4.08159 8.06937 4.08159 9.82028 5.8325L12.1875 8.19968L14.5566 5.8305C16.3072 4.07994 19.1454 4.07994 20.896 5.83051C22.6466 7.58107 22.6466 10.4193 20.896 12.1699L17.7274 15.3385C17.4345 15.6313 16.9597 15.6313 16.6668 15.3385L12.1875 10.8592ZM12.9993 9.54966L17.1971 13.7475L19.8353 11.1092C21.0001 9.94444 21.0001 8.05595 19.8353 6.89117C18.6706 5.72638 16.7821 5.72638 15.6173 6.89117L12.9993 9.50916C12.9995 9.52266 12.9995 9.53616 12.9993 9.54966ZM11.3757 9.50919L8.75962 6.89316C7.5945 5.72804 5.70547 5.72804 4.54034 6.89316C3.37522 8.05828 3.37522 9.94732 4.54035 11.1124L7.17663 13.7487L11.3757 9.54969C11.3754 9.53619 11.3754 9.52269 11.3757 9.50919ZM12.9391 15.7032C12.9391 16.0916 12.6243 16.4064 12.236 16.4064C11.8477 16.4064 11.5329 16.0916 11.5329 15.7032C11.5329 15.3149 11.8477 15.0001 12.236 15.0001C12.6243 15.0001 12.9391 15.3149 12.9391 15.7032ZM9.65327 18.5587C10.0416 18.5587 10.3564 18.2439 10.3564 17.8555C10.3564 17.4672 10.0416 17.1524 9.65327 17.1524C9.26494 17.1524 8.95013 17.4672 8.95013 17.8555C8.95013 18.2439 9.26494 18.5587 9.65327 18.5587ZM12.9391 20.0078C12.9391 20.3961 12.6243 20.7109 12.236 20.7109C11.8477 20.7109 11.5329 20.3961 11.5329 20.0078C11.5329 19.6195 11.8477 19.3047 12.236 19.3047C12.6243 19.3047 12.9391 19.6195 12.9391 20.0078ZM14.747 18.5587C15.1353 18.5587 15.4501 18.2439 15.4501 17.8555C15.4501 17.4672 15.1353 17.1524 14.747 17.1524C14.3587 17.1524 14.0439 17.4672 14.0439 17.8555C14.0439 18.2439 14.3587 18.5587 14.747 18.5587Z" fill="black"/>
</svg>
