<svg width="24" height="24" viewBox="0 0 24 24" fill="none" xmlns="http://www.w3.org/2000/svg">
<path fill-rule="evenodd" clip-rule="evenodd" d="M4.5 11.75C4.5 7.51089 8.16808 4.5 12 4.5C15.8319 4.5 19.5 7.51089 19.5 11.75V13H15.8C15.3582 13 15 13.3582 15 13.8V20.2C15 20.6418 15.3582 21 15.8 21H18C19.6569 21 21 19.6569 21 18V13.75V13V11.75C21 6.62623 16.603 3 12 3C7.39702 3 3 6.62623 3 11.75V13V13.75V18C3 19.6569 4.34315 21 6 21H8.2C8.64183 21 9 20.6418 9 20.2V13.8C9 13.3582 8.64183 13 8.2 13H4.5V11.75ZM7.5 14.5H4.5V18C4.5 18.8284 5.17157 19.5 6 19.5H7.5V14.5ZM16.5 14.5H19.5V18C19.5 18.8284 18.8284 19.5 18 19.5H16.5V14.5Z" fill="black"/>
</svg>
