<svg width="24" height="24" viewBox="0 0 24 24" fill="none" xmlns="http://www.w3.org/2000/svg">
<path fill-rule="evenodd" clip-rule="evenodd" d="M19.6026 9.73917L12.0001 4.9876L4.3976 9.73917C4.04635 9.9587 3.58363 9.85192 3.3641 9.50067C3.14457 9.14942 3.25135 8.6867 3.6026 8.46717L11.5496 3.5003C11.8252 3.32803 12.175 3.32803 12.4506 3.5003L17 6.34367V4.25C17 3.83579 17.3358 3.5 17.75 3.5C18.1642 3.5 18.5 3.83579 18.5 4.25V7.28117L20.3976 8.46717C20.7488 8.6867 20.8556 9.14942 20.6361 9.50067C20.4166 9.85192 19.9539 9.9587 19.6026 9.73917ZM6.25 10.75C6.66421 10.75 7 11.0858 7 11.5V18.75C7 18.8881 7.11193 19 7.25 19H16.75C16.8881 19 17 18.8881 17 18.75V11.5C17 11.0858 17.3358 10.75 17.75 10.75C18.1642 10.75 18.5 11.0858 18.5 11.5V18.75C18.5 19.7165 17.7165 20.5 16.75 20.5H7.25C6.2835 20.5 5.5 19.7165 5.5 18.75V11.5C5.5 11.0858 5.83579 10.75 6.25 10.75ZM14.5607 12.5001C14.8536 12.2072 14.8536 11.7323 14.5607 11.4394C14.2678 11.1465 13.7929 11.1465 13.5 11.4394L9.46967 15.4697C9.17678 15.7626 9.17678 16.2375 9.46967 16.5304C9.76256 16.8233 10.2374 16.8233 10.5303 16.5304L14.5607 12.5001ZM11 12C11 12.5523 10.5523 13 10 13C9.44772 13 9 12.5523 9 12C9 11.4477 9.44772 11 10 11C10.5523 11 11 11.4477 11 12ZM14 17C14.5523 17 15 16.5523 15 16C15 15.4477 14.5523 15 14 15C13.4477 15 13 15.4477 13 16C13 16.5523 13.4477 17 14 17Z" fill="black"/>
</svg>
