<svg width="24" height="24" viewBox="0 0 24 24" fill="none" xmlns="http://www.w3.org/2000/svg">
<path fill-rule="evenodd" clip-rule="evenodd" d="M3.39154 5.74841C3.14093 5.99868 3.00012 6.33827 3.00012 6.69239C3.00012 7.4825 3.32529 8.51363 4.09905 9.28714C4.89146 10.0793 5.95552 10.3982 6.98134 10.2816L13.7219 17.02C13.6053 18.0455 13.9242 19.1093 14.7166 19.9014C15.4904 20.6749 16.5219 21 17.3122 21C17.6664 21 18.0061 20.8592 18.2565 20.6087C18.857 20.0078 19.4579 19.4073 20.0588 18.8069L20.6154 18.2507C20.9479 17.9184 21.0628 17.4368 20.9682 16.9838C20.959 16.94 20.946 16.8802 20.9288 16.8083C20.8947 16.6658 20.8428 16.4686 20.7705 16.2492C20.6461 15.8711 20.3899 15.1945 19.903 14.7078C19.1088 13.9138 18.047 13.5997 17.0246 13.7173L14.2455 10.939L16.7155 8.49787C16.7493 8.50712 16.7835 8.51522 16.8181 8.52215L17.4988 8.65829C18.2466 8.80785 19.0144 8.51913 19.4784 7.91388L20.8526 6.12108C21.3103 5.52402 21.2549 4.68029 20.7231 4.14818L20.0162 3.44086C19.5092 2.93353 18.714 2.85614 18.1186 3.25618L16.2642 4.5023C15.5456 4.98517 15.2193 5.87556 15.4557 6.70842L15.6609 7.43125L13.1847 9.87852L10.2851 6.97988C10.4027 5.9578 10.0886 4.89637 9.29434 4.1024C8.80746 3.61568 8.13062 3.35957 7.75239 3.23514C7.53296 3.16296 7.33569 3.11103 7.19315 3.07696C7.10937 3.05694 7.02522 3.03817 6.94056 3.0222C6.51073 2.94233 6.05964 3.0809 5.7503 3.39024L5.19407 3.94651C4.59357 4.5471 3.9931 5.14765 3.39154 5.74841ZM7.63834 6.2208L6.22246 4.80535L6.69423 4.33358C6.69423 4.33358 7.33691 4.45201 7.87099 4.71895C8.05353 4.81018 8.22338 4.91876 8.35055 5.04589C8.9768 5.67194 9.13014 6.58601 8.81867 7.40085L16.6035 15.1833C17.4186 14.8719 18.333 15.0252 18.9592 15.6512C19.0864 15.7784 19.195 15.9482 19.2863 16.1307C19.5533 16.6646 19.6718 17.307 19.6718 17.307L19.1998 17.7787L17.7839 16.3633L16.3677 17.7788L17.81 19.1677L17.3122 19.6657C17.1126 19.6657 16.8758 19.6284 16.6311 19.5476C16.2971 19.4373 15.9486 19.246 15.6604 18.9579C15.0342 18.3319 14.8764 17.4133 15.1878 16.5985L7.40299 8.81609C6.5879 9.12746 5.66908 8.9697 5.04283 8.34365C4.75467 8.05557 4.56328 7.70716 4.45296 7.37328C4.40807 7.23743 4.37661 7.10398 4.3575 6.97798C4.34221 6.87715 4.33484 6.78109 4.33484 6.69239L4.82431 6.20345L6.22261 7.63649L7.63834 6.2208ZM17.1008 5.74731C16.9212 5.86803 16.8396 6.09063 16.8987 6.29885L17.1123 7.05128L17.793 7.18742C17.98 7.22481 18.1719 7.15263 18.2879 7.00132L19.6622 5.20852L18.9553 4.5012L17.1008 5.74731Z" fill="black"/>
<path d="M9.99563 15.4955L11.0563 16.5561L7.30623 20.3138C6.30965 21.3123 4.69201 21.3132 3.69443 20.3156C2.68759 19.3087 2.69914 17.6728 3.7201 16.6803L7.50296 13.0028L8.56373 14.0636L4.76568 17.7558C4.34466 18.1651 4.3399 18.8397 4.75509 19.2549C5.16646 19.6663 5.83354 19.666 6.2445 19.2542L9.99563 15.4955Z" fill="black"/>
</svg>
