<svg width="24" height="24" viewBox="0 0 24 24" fill="none" xmlns="http://www.w3.org/2000/svg">
<path d="M15.1239 4.92948L18.2867 8.09168C18.5643 8.36922 19.0143 8.36917 19.2919 8.09158C19.5695 7.81398 19.5693 7.36395 19.2917 7.08641L16.129 3.92427L16.0267 3.82835C15.1892 3.09297 13.9132 3.12495 13.1139 3.92432L12.8627 4.17553C12.7239 4.31432 12.7239 4.53933 12.8627 4.67812L13.3652 5.1807C13.504 5.31948 13.729 5.31948 13.8678 5.1807L14.119 4.92948L14.186 4.87036C14.4647 4.65359 14.8677 4.6733 15.1239 4.92948Z" fill="black"/>
<path fill-rule="evenodd" clip-rule="evenodd" d="M2.68701 8.98401C2.35498 9.31595 2.35498 9.85414 2.68701 10.1861L4.69189 12.191C5.0238 12.523 5.56201 12.523 5.89404 12.191L11.1954 6.88959L15.2261 10.9203C15.519 11.2132 15.9939 11.2132 16.2867 10.9203C16.5797 10.6274 16.5797 10.1525 16.2867 9.85961L10.9937 4.56645C9.91968 3.49251 8.17847 3.49251 7.10449 4.56645L2.68701 8.98401ZM9.93298 5.62711L10.1348 5.82892L5.29297 10.6708L4.20728 9.58505L8.16516 5.62711C8.65332 5.13895 9.44482 5.13895 9.93298 5.62711Z" fill="black"/>
<path fill-rule="evenodd" clip-rule="evenodd" d="M21.3136 15.0154C21.6456 14.6835 21.6456 14.1453 21.3136 13.8134L19.3087 11.8084C18.9768 11.4765 18.4386 11.4765 18.1066 11.8084L12.8052 17.1099L8.77454 13.0792C8.48157 12.7863 8.00671 12.7863 7.71387 13.0792C7.4209 13.3721 7.4209 13.847 7.71387 14.1398L13.007 19.433C14.0809 20.5069 15.8221 20.5069 16.8961 19.433L21.3136 15.0154ZM14.0676 18.3723L13.8658 18.1705L18.7076 13.3287L19.7933 14.4144L15.8354 18.3723C15.3473 18.8605 14.5558 18.8605 14.0676 18.3723Z" fill="black"/>
<path d="M6.21326 16.2079L9.3761 19.3701C9.63232 19.6263 10.0353 19.646 10.314 19.4293L10.381 19.3701L10.6322 19.1189C10.771 18.9801 10.996 18.9801 11.1348 19.1189L11.6373 19.6215C11.7761 19.7603 11.7761 19.9853 11.6373 20.1241L11.3861 20.3753C10.5868 21.1747 9.31079 21.2066 8.47327 20.4713L8.37097 20.3754L5.20825 17.2132C4.93066 16.9357 4.93054 16.4856 5.20813 16.208C5.48572 15.9304 5.93567 15.9304 6.21326 16.2079Z" fill="black"/>
</svg>
