<svg width="24" height="24" viewBox="0 0 24 24" fill="none" xmlns="http://www.w3.org/2000/svg">
<path fill-rule="evenodd" clip-rule="evenodd" d="M21.803 2.64252C22.0959 2.93541 22.0959 3.41028 21.803 3.70318L15.4394 10.0668C15.1465 10.3597 14.6717 10.3597 14.3788 10.0668C14.0859 9.77392 14.0859 9.29904 14.3788 9.00615L20.7423 2.64252C21.0352 2.34963 21.5101 2.34963 21.803 2.64252ZM8.70453 10.8411C6.10629 10.8411 4 12.9474 4 15.5456C4 18.1439 6.10629 20.2502 8.70453 20.2502C11.3028 20.2502 13.4091 18.1439 13.4091 15.5456C13.4091 12.9474 11.3028 10.8411 8.70453 10.8411ZM2.5 15.5456C2.5 12.119 5.27786 9.34109 8.70453 9.34109C12.1312 9.34109 14.9091 12.119 14.9091 15.5456C14.9091 18.9723 12.1312 21.7502 8.70453 21.7502C5.27786 21.7502 2.5 18.9723 2.5 15.5456ZM16.3484 4.61242C16.6413 4.31952 16.6413 3.84465 16.3484 3.55176C16.0555 3.25887 15.5807 3.25887 15.2878 3.55177L11.6515 7.18812C11.3586 7.48102 11.3586 7.95589 11.6515 8.24878C11.9444 8.54167 12.4193 8.54167 12.7122 8.24877L16.3484 4.61242ZM20.8939 9.15786C21.1868 8.86496 21.1868 8.39009 20.8939 8.0972C20.601 7.80431 20.1261 7.80432 19.8332 8.09721L16.1969 11.7336C15.904 12.0265 15.9041 12.5013 16.1969 12.7942C16.4898 13.0871 16.9647 13.0871 17.2576 12.7942L20.8939 9.15786Z" fill="black"/>
</svg>
