<svg width="24" height="24" viewBox="0 0 24 24" fill="none" xmlns="http://www.w3.org/2000/svg">
<path fill-rule="evenodd" clip-rule="evenodd" d="M9.25 2C8.83579 2 8.5 2.33579 8.5 2.75C8.5 3.16421 8.83579 3.5 9.25 3.5H14.75C15.1642 3.5 15.5 3.16421 15.5 2.75C15.5 2.33579 15.1642 2 14.75 2H9.25ZM18.5 6.5H5.5V20.5H18.5V6.5ZM5.5 5C4.67157 5 4 5.67157 4 6.5V20.5C4 21.3284 4.67157 22 5.5 22H18.5C19.3284 22 20 21.3284 20 20.5V6.5C20 5.67157 19.3284 5 18.5 5H5.5ZM7.99991 8.50015C8.41404 8.49201 8.75636 8.82113 8.76451 9.23526C8.80302 11.1939 10.2527 12.5 12.015 12.5C13.7771 12.5 15.2263 11.1941 15.2648 9.23526C15.2729 8.82113 15.6153 8.49201 16.0294 8.50015C16.4435 8.50829 16.7726 8.85061 16.7645 9.26475C16.7097 12.0524 14.5819 14 12.015 14C9.4482 14 7.31961 12.0526 7.2648 9.26475C7.25665 8.85061 7.58577 8.50829 7.99991 8.50015Z" fill="black"/>
</svg>
