<svg width="24" height="24" viewBox="0 0 24 24" fill="none" xmlns="http://www.w3.org/2000/svg">
<path fill-rule="evenodd" clip-rule="evenodd" d="M8.75019 12.3108L7.31086 13.7501L8.52984 14.9688C8.82277 15.2616 8.82284 15.7365 8.52998 16.0294C8.23713 16.3223 7.76226 16.3224 7.46932 16.0296L6.25021 14.8108L4.56074 16.5003L7.49994 19.4395L19.4394 7.50008L16.5001 4.56075L14.8106 6.25026L16.0303 7.46968C16.3233 7.76253 16.3233 8.23741 16.0305 8.53034C15.7376 8.82327 15.2627 8.82334 14.9698 8.53048L13.7499 7.31093L12.3108 8.75006L13.5298 9.96875C13.8228 10.2616 13.8228 10.7365 13.53 11.0294C13.2371 11.3223 12.7623 11.3224 12.4693 11.0296L11.2502 9.81073L9.81084 11.2501L11.0298 12.4688C11.3228 12.7616 11.3228 13.2365 11.03 13.5294C10.7371 13.8223 10.2623 13.8224 9.96932 13.5296L8.75019 12.3108ZM17.1011 3.04046L20.9597 6.89904C21.2916 7.23099 21.2916 7.76918 20.9597 8.10112L8.10098 20.9598C7.76904 21.2917 7.23085 21.2917 6.8989 20.9598L3.04046 17.1013C2.70852 16.7694 2.70852 16.2312 3.04046 15.8993L15.899 3.04047C16.231 2.70852 16.7691 2.70852 17.1011 3.04046Z" fill="black"/>
</svg>
