<svg width="24" height="24" viewBox="0 0 24 24" fill="none" xmlns="http://www.w3.org/2000/svg">
<path fill-rule="evenodd" clip-rule="evenodd" d="M6.9227 10.2048C7.38192 10.5816 7.92645 10.8317 8.4426 10.9395C8.93994 12.4275 10.3447 13.5 12 13.5C13.6553 13.5 15.0601 12.4275 15.5574 10.9395C16.0735 10.8317 16.6181 10.5816 17.0773 10.2048C17.7284 9.67057 18.25 8.84441 18.25 7.75C18.25 6.43982 17.8326 4.89076 16.8335 3.65375C15.814 2.39155 14.2233 1.5 12 1.5C9.77672 1.5 8.18601 2.39155 7.16654 3.65375C6.16742 4.89076 5.75 6.43982 5.75 7.75C5.75 8.84441 6.2716 9.67057 6.9227 10.2048ZM8.33346 4.59625C7.58258 5.52591 7.25 6.72685 7.25 7.75C7.25 8.32226 7.50965 8.7461 7.87418 9.0452C7.99481 9.14418 8.12267 9.22572 8.25 9.29105V6.85C8.25 6.38148 8.62748 6.00475 9.09114 5.99946C9.57582 5.99393 10.4575 5.94384 11.2748 5.75171C11.6836 5.65562 12.0461 5.53082 12.3264 5.37736C12.6102 5.22192 12.7544 5.06788 12.8173 4.93926C13.159 4.24047 14.25 4.44872 14.25 5.27075V5.33824C14.25 5.70372 14.5463 6 14.9118 6C15.3747 6 15.75 6.37529 15.75 6.83824V9.29105C15.8773 9.22572 16.0052 9.14418 16.1258 9.0452C16.4903 8.7461 16.75 8.32226 16.75 7.75C16.75 6.72685 16.4174 5.52591 15.6665 4.59625C14.936 3.69179 13.7767 3 12 3C10.2233 3 9.06399 3.69179 8.33346 4.59625ZM12 12C10.7574 12 9.75 10.9926 9.75 9.75L9.75 7.4748C10.2844 7.44111 10.9597 7.36667 11.6181 7.21191C12.1013 7.09832 12.6055 6.93466 13.0468 6.69304C13.0886 6.67015 13.1303 6.64629 13.1718 6.62139C13.4382 6.98193 13.8139 7.25675 14.25 7.39683V9.75C14.25 10.9926 13.2426 12 12 12Z" fill="black"/>
<path d="M6.57293 18.9615C6.08728 17.5046 7.17171 16 8.70747 16H9.25C9.66421 16 10 15.6642 10 15.25C10 14.8358 9.66421 14.5 9.25 14.5H8.70747C6.14787 14.5 4.34049 17.0076 5.1499 19.4359L5.37783 20.1196C5.75214 21.2426 6.80302 22 7.98671 22H16.0583C17.2419 22 18.2928 21.2426 18.6671 20.1196L18.8951 19.4359C19.7045 17.0076 17.8971 14.5 15.3375 14.5H14.75C14.3358 14.5 14 14.8358 14 15.25C14 15.6642 14.3358 16 14.75 16H15.3375C16.8733 16 17.9577 17.5046 17.472 18.9615L17.2441 19.6453C17.074 20.1557 16.5963 20.5 16.0583 20.5H7.98671C7.44867 20.5 6.97099 20.1557 6.80085 19.6453L6.57293 18.9615Z" fill="black"/>
<path d="M12.7536 15.1725C12.4403 14.546 11.5463 14.546 11.2331 15.1725L9.82251 17.9936C9.63727 18.3641 9.78743 18.8146 10.1579 18.9999C10.5284 19.1851 10.9789 19.0349 11.1641 18.6644L11.9933 17.0061L12.8225 18.6644C13.0077 19.0349 13.4583 19.1851 13.8287 18.9999C14.1992 18.8146 14.3494 18.3641 14.1641 17.9936L12.7536 15.1725Z" fill="black"/>
</svg>
