<svg width="24" height="24" viewBox="0 0 24 24" fill="none" xmlns="http://www.w3.org/2000/svg">
<path fill-rule="evenodd" clip-rule="evenodd" d="M9.75509 4.60532C9.35359 4.27074 8.76321 4.29752 8.39365 4.66708C7.97348 5.08725 8.00479 5.7775 8.46127 6.15791L9.94678 7.5H14.0535L15.539 6.15791C15.9955 5.7775 16.0268 5.08725 15.6066 4.66708C15.2371 4.29752 14.6467 4.27074 14.2452 4.60532L12.5443 6.02273C12.2291 6.28542 11.7712 6.28542 11.456 6.02273L9.75509 4.60532ZM7.501 7.31024L7.72871 7.5H5.25C4.00736 7.5 3 8.50736 3 9.75V10.75C3 11.9081 3.87501 12.8619 5 12.9863V19.75C5 20.9926 6.00736 22 7.25 22H16.75C17.9926 22 19 20.9926 19 19.75V12.9863C20.125 12.8619 21 11.9081 21 10.75V9.75C21 8.50736 19.9926 7.5 18.75 7.5H16.2716L16.4993 7.31024C17.6334 6.36516 17.7112 4.65029 16.6673 3.60642C15.7492 2.68828 14.2824 2.62175 13.2849 3.45299L12.0001 4.52364L10.7154 3.45299C9.71788 2.62175 8.25112 2.68828 7.33299 3.60642C6.28911 4.65029 6.3669 6.36516 7.501 7.31024ZM18.75 11.5C19.1642 11.5 19.5 11.1642 19.5 10.75V9.75C19.5 9.33579 19.1642 9 18.75 9H12.75V11.5H17.75H18.75ZM12.75 13V20.5H16.75C17.1642 20.5 17.5 20.1642 17.5 19.75V13H12.75ZM11.25 20.5H7.25C6.83579 20.5 6.5 20.1642 6.5 19.75V13H8.25C8.66421 13 9 12.6642 9 12.25C9 11.8358 8.66421 11.5 8.25 11.5H6.25H5.25C4.83579 11.5 4.5 11.1642 4.5 10.75V9.75C4.5 9.33579 4.83579 9 5.25 9H11.25V20.5Z" fill="black"/>
</svg>
