<svg width="24" height="24" viewBox="0 0 24 24" fill="none" xmlns="http://www.w3.org/2000/svg">
<path fill-rule="evenodd" clip-rule="evenodd" d="M20 20H4C3.72386 20 3.5 19.7761 3.5 19.5V4C3.5 3.72386 3.72386 3.5 4 3.5H20C20.2761 3.5 20.5 3.72386 20.5 4V19.5C20.5 19.7761 20.2761 20 20 20ZM2 4C2 2.89543 2.89543 2 4 2H20C21.1046 2 22 2.89543 22 4V19.5C22 20.6046 21.1046 21.5 20 21.5H4C2.89543 21.5 2 20.6046 2 19.5V4ZM9.5 15.0442V8.69348L14.7923 11.8688L9.5 15.0442ZM9.89312 7.18006C9.05997 6.68017 8 7.28031 8 8.25193V15.4857C8 16.4574 9.05997 17.0575 9.89312 16.5576L15.9213 12.9407C16.7305 12.4552 16.7305 11.2825 15.9213 10.797L9.89312 7.18006Z" fill="black"/>
</svg>
