<svg width="24" height="24" viewBox="0 0 24 24" fill="none" xmlns="http://www.w3.org/2000/svg">
<path fill-rule="evenodd" clip-rule="evenodd" d="M1.5498 3.2998C1.5498 2.60945 2.10945 2.0498 2.7998 2.0498H13.7998C14.4902 2.0498 15.0498 2.60945 15.0498 3.2998V6.2998C15.0498 6.99016 14.4902 7.5498 13.7998 7.5498H12.0498V12.0498H16.5498V10.2998C16.5498 9.60945 17.1094 9.0498 17.7998 9.0498H20.7998C21.4902 9.0498 22.0498 9.60945 22.0498 10.2998V21.2998C22.0498 21.9902 21.4902 22.5498 20.7998 22.5498H17.7998C17.1094 22.5498 16.5498 21.9902 16.5498 21.2998V19.5498H9.2998C6.67645 19.5498 4.5498 17.4232 4.5498 14.7998V7.5498H2.7998C2.10945 7.5498 1.5498 6.99016 1.5498 6.2998V3.2998ZM3.0498 3.5498V6.0498H6.0498V14.7998C6.0498 16.5947 7.50488 18.0498 9.2998 18.0498H18.0498V21.0498H20.5498V10.5498H18.0498V13.5498H11.7998C11.1094 13.5498 10.5498 12.9902 10.5498 12.2998V6.0498H13.5498V3.5498H3.0498ZM9.3008 12.5946C9.4567 13.1244 9.15358 13.6803 8.62376 13.8362C8.09394 13.9921 7.53804 13.689 7.38214 13.1591C7.22624 12.6293 7.52936 12.0734 8.05918 11.9175C8.58901 11.7616 9.1449 12.0647 9.3008 12.5946ZM10.6238 16.8362C11.1536 16.6803 11.4567 16.1244 11.3008 15.5946C11.1449 15.0647 10.589 14.7616 10.0592 14.9175C9.52937 15.0734 9.22625 15.6293 9.38215 16.1591C9.53806 16.689 10.0939 16.9921 10.6238 16.8362Z" fill="black"/>
</svg>
