<svg width="24" height="24" viewBox="0 0 24 24" fill="none" xmlns="http://www.w3.org/2000/svg">
<path fill-rule="evenodd" clip-rule="evenodd" d="M5 7.5H19C19.2761 7.5 19.5 7.72386 19.5 8V17C19.5 17.2761 19.2761 17.5 19 17.5H5C4.72386 17.5 4.5 17.2761 4.5 17V8C4.5 7.72386 4.72386 7.5 5 7.5ZM3 8C3 6.89543 3.89543 6 5 6H19C20.1046 6 21 6.89543 21 8V17C21 18.1046 20.1046 19 19 19H5C3.89543 19 3 18.1046 3 17V8ZM11.3294 15.3938L8.60628 12.9323C7.74133 12.1504 7.72873 10.7965 8.57896 9.99862C9.50415 9.13045 10.9941 9.33554 11.6503 10.4214L12 11L12.3013 10.4754C12.9384 9.36619 14.4395 9.13351 15.3825 9.99778C16.2501 10.793 16.2454 12.1623 15.3723 12.9516L12.6706 15.3938C12.2898 15.738 11.7102 15.738 11.3294 15.3938Z" fill="black"/>
</svg>
