<svg width="24" height="24" viewBox="0 0 24 24" fill="none" xmlns="http://www.w3.org/2000/svg">
<path fill-rule="evenodd" clip-rule="evenodd" d="M20 20H4C3.72386 20 3.5 19.7761 3.5 19.5V4C3.5 3.72386 3.72386 3.5 4 3.5H20C20.2761 3.5 20.5 3.72386 20.5 4V19.5C20.5 19.7761 20.2761 20 20 20ZM2 4C2 2.89543 2.89543 2 4 2H20C21.1046 2 22 2.89543 22 4V19.5C22 20.6046 21.1046 21.5 20 21.5H4C2.89543 21.5 2 20.6046 2 19.5V4ZM11 14.75V8.5H16V12.628C15.7654 12.5451 15.513 12.5 15.25 12.5C14.0074 12.5 13 13.5074 13 14.75C13 15.9926 14.0074 17 15.25 17C16.4926 17 17.5 15.9926 17.5 14.75V7.85C17.5 7.38056 17.1194 7 16.65 7H10.35C9.88056 7 9.5 7.38056 9.5 7.85V12.628C9.26542 12.5451 9.01298 12.5 8.75 12.5C7.50736 12.5 6.5 13.5074 6.5 14.75C6.5 15.9926 7.50736 17 8.75 17C9.99264 17 11 15.9926 11 14.75ZM15.25 14C15.6642 14 16 14.3358 16 14.75C16 15.1642 15.6642 15.5 15.25 15.5C14.8358 15.5 14.5 15.1642 14.5 14.75C14.5 14.3358 14.8358 14 15.25 14ZM9.5 14.75C9.5 14.3358 9.16421 14 8.75 14C8.33579 14 8 14.3358 8 14.75C8 15.1642 8.33579 15.5 8.75 15.5C9.16421 15.5 9.5 15.1642 9.5 14.75Z" fill="black"/>
</svg>
