<svg width="24" height="24" viewBox="0 0 24 24" fill="none" xmlns="http://www.w3.org/2000/svg">
<path fill-rule="evenodd" clip-rule="evenodd" d="M15.77 2.26947C16.0629 1.97658 16.5378 1.97658 16.8307 2.26947L18.5504 3.98914L20.27 2.26947C20.5629 1.97658 21.0378 1.97658 21.3307 2.26947C21.6236 2.56237 21.6236 3.03724 21.3307 3.33013L19.611 5.0498L21.3307 6.76947C21.6236 7.06237 21.6236 7.53724 21.3307 7.83013C21.0378 8.12303 20.5629 8.12303 20.27 7.83013L18.5504 6.11046L16.8307 7.83013C16.5378 8.12303 16.0629 8.12303 15.77 7.83013C15.4772 7.53724 15.4772 7.06237 15.77 6.76947L17.4897 5.0498L15.77 3.33013C15.4772 3.03724 15.4772 2.56237 15.77 2.26947ZM15.9143 20.581C11.9987 20.2287 9.57658 18.0385 7.84024 16.2833C6.12167 14.5462 3.84845 11.6942 3.53729 7.76103C3.47418 6.96333 3.78965 6.13151 4.43576 5.49231L5.43499 4.50379C6.01705 3.92797 6.79712 3.97154 7.18491 4.36354L9.16924 6.36935C9.55704 6.76135 9.59221 7.54184 9.01015 8.11766L7.83053 9.28464C7.53044 9.58151 7.2187 10.1102 7.39191 10.7225C7.63366 11.5771 8.39297 13.0238 9.74926 14.3948C11.1056 15.7658 12.5441 16.5405 13.396 16.7914C14.0064 16.9712 14.5385 16.6652 14.8386 16.3683L16.0182 15.2013C16.6002 14.6255 17.3803 14.6691 17.7681 15.0611L19.7524 17.0669C20.1402 17.4589 20.1754 18.2394 19.5933 18.8152L18.5971 19.8008C17.8032 20.5679 16.8572 20.6658 15.9143 20.581ZM6.77389 17.3383C8.56368 19.1474 11.309 21.6727 15.7799 22.0749C16.908 22.1764 18.3915 22.0882 19.6434 20.8757L20.6483 19.8816C21.7094 18.8317 21.8922 17.097 20.8188 16.012L18.8345 14.0061C17.761 12.9211 16.0244 13.0852 14.9632 14.135L13.7836 15.302C13.7716 15.3139 13.7603 15.3234 13.7503 15.3309C13.1524 15.1346 11.9754 14.5122 10.8156 13.3398C9.65576 12.1674 9.04601 10.984 8.8562 10.384C8.86374 10.3741 8.87342 10.3629 8.88546 10.351L10.0651 9.18402C11.1263 8.1342 11.309 6.39946 10.2356 5.31442L8.25127 3.30861C7.17785 2.22357 5.44125 2.38761 4.38006 3.43743L3.38083 4.42596C2.44872 5.34808 1.94101 6.60318 2.04196 7.87932C2.39488 12.3404 4.96633 15.5111 6.77389 17.3383Z" fill="black"/>
</svg>
