<svg width="24" height="24" viewBox="0 0 24 24" fill="none" xmlns="http://www.w3.org/2000/svg">
<path fill-rule="evenodd" clip-rule="evenodd" d="M9.3748 2.25C7.26232 2.25 5.5498 3.96251 5.5498 6.075V6.95357C5.5498 9.06606 7.26232 10.7786 9.3748 10.7786C11.4873 10.7786 13.1998 9.06607 13.1998 6.95358V6.075C13.1998 3.96251 11.4873 2.25 9.3748 2.25ZM7.0498 6.075C7.0498 4.79094 8.09074 3.75 9.3748 3.75C10.6589 3.75 11.6998 4.79094 11.6998 6.075V6.95358C11.6998 8.23764 10.6589 9.27857 9.3748 9.27857C8.09074 9.27857 7.0498 8.23764 7.0498 6.95357V6.075ZM20.0498 3.69995C20.0498 3.28574 19.714 2.94995 19.2998 2.94995C18.8856 2.94995 18.5498 3.28574 18.5498 3.69995V5.44995H16.7998C16.3856 5.44995 16.0498 5.78574 16.0498 6.19995C16.0498 6.61416 16.3856 6.94995 16.7998 6.94995H18.5498V8.69995C18.5498 9.11416 18.8856 9.44995 19.2998 9.44995C19.714 9.44995 20.0498 9.11416 20.0498 8.69995V6.94995H21.7998C22.214 6.94995 22.5498 6.61416 22.5498 6.19995C22.5498 5.78574 22.214 5.44995 21.7998 5.44995H20.0498V3.69995ZM1.5498 17.3999C1.5498 14.7766 3.67645 12.6499 6.2998 12.6499H13.2998C15.9232 12.6499 18.0498 14.7766 18.0498 17.3999V18.3999C18.0498 19.9187 16.8186 21.1499 15.2998 21.1499H4.2998C2.78102 21.1499 1.5498 19.9187 1.5498 18.3999V17.3999ZM6.2998 14.1499C4.50488 14.1499 3.0498 15.605 3.0498 17.3999V18.3999C3.0498 19.0903 3.60945 19.6499 4.2998 19.6499H15.2998C15.9902 19.6499 16.5498 19.0903 16.5498 18.3999V17.3999C16.5498 15.605 15.0947 14.1499 13.2998 14.1499H6.2998Z" fill="black"/>
</svg>
