<svg width="24" height="24" viewBox="0 0 24 24" fill="none" xmlns="http://www.w3.org/2000/svg">
<path d="M9 9.5C8.44772 9.5 8 9.94772 8 10.5C8 11.0523 8.44772 11.5 9 11.5H15C15.5523 11.5 16 11.0523 16 10.5C16 9.94772 15.5523 9.5 15 9.5H9Z" fill="black"/>
<path d="M8 14C8 13.4477 8.44772 13 9 13C9.55228 13 10 13.4477 10 14C10 14.5523 9.55228 15 9 15C8.44772 15 8 14.5523 8 14Z" fill="black"/>
<path d="M11 14C11 13.4477 11.4477 13 12 13C12.5523 13 13 13.4477 13 14C13 14.5523 12.5523 15 12 15C11.4477 15 11 14.5523 11 14Z" fill="black"/>
<path d="M12 16C11.4477 16 11 16.4477 11 17C11 17.5523 11.4477 18 12 18C12.5523 18 13 17.5523 13 17C13 16.4477 12.5523 16 12 16Z" fill="black"/>
<path d="M14 17C14 16.4477 14.4477 16 15 16C15.5523 16 16 16.4477 16 17C16 17.5523 15.5523 18 15 18C14.4477 18 14 17.5523 14 17Z" fill="black"/>
<path d="M9 16C8.44772 16 8 16.4477 8 17C8 17.5523 8.44772 18 9 18C9.55228 18 10 17.5523 10 17C10 16.4477 9.55228 16 9 16Z" fill="black"/>
<path d="M14 14C14 13.4477 14.4477 13 15 13C15.5523 13 16 13.4477 16 14C16 14.5523 15.5523 15 15 15C14.4477 15 14 14.5523 14 14Z" fill="black"/>
<path fill-rule="evenodd" clip-rule="evenodd" d="M7 3C7 2.44772 7.44772 2 8 2H16C16.5523 2 17 2.44772 17 3V4.54148C18.4189 4.77952 19.5 6.0135 19.5 7.5V14.3824C19.5 14.4343 19.4987 14.4861 19.496 14.5376C19.4524 17.5833 19.0558 19.0952 17.8524 20.2801C16.767 21.3489 15.2779 21.4942 14.0588 21.4989C14.0393 21.4993 14.0196 21.4996 14 21.4996H10C9.98035 21.4996 9.96074 21.4993 9.94116 21.4989C8.72214 21.4942 7.23304 21.3489 6.14757 20.2801C4.94425 19.0952 4.54756 17.5833 4.50398 14.5376C4.50133 14.4861 4.5 14.4343 4.5 14.3824V7.5C4.5 6.0135 5.58114 4.77952 7 4.54148V3ZM8.5 6.5V3.5H15.5V6.5H8.5ZM17 6.08535V7C17 7.55228 16.5523 8 16 8H8C7.44772 8 7 7.55228 7 7V6.08535C6.4174 6.29127 6 6.84689 6 7.5V14.3824C6 14.4165 6.00114 14.4504 6.00338 14.4839C6.04361 17.4841 6.44249 18.4654 7.2 19.2113C7.83367 19.8352 8.78104 19.9958 9.96446 19.9989C9.97626 19.9993 9.9881 19.9996 10 19.9996H14C14.0053 19.9996 14.0105 19.9995 14.0158 19.9994C14.0224 19.9993 14.029 19.9992 14.0355 19.9989C15.219 19.9958 16.1663 19.8352 16.8 19.2113C17.5575 18.4654 17.9564 17.4841 17.9966 14.4839C17.9989 14.4504 18 14.4165 18 14.3824V7.5C18 6.84689 17.5826 6.29127 17 6.08535Z" fill="black"/>
</svg>
