<svg width="24" height="24" viewBox="0 0 24 24" fill="none" xmlns="http://www.w3.org/2000/svg">
<path fill-rule="evenodd" clip-rule="evenodd" d="M20.1391 3.86098C18.9912 2.71301 17.1301 2.71301 15.9822 3.86098L13.7303 6.11301L6.52474 4.31149C5.91425 4.15885 5.26844 4.33774 4.82348 4.78274L3.27422 6.33211C2.88594 6.72041 2.94996 7.36689 3.40683 7.67149L8.66589 11.1778L6.54923 13.2946L4.86749 12.95C4.44626 12.8636 4.00983 12.9947 3.70578 13.2987L2.25493 14.7497C1.85464 15.15 1.93711 15.8199 2.42253 16.1112L5.60779 18.0225L7.52978 21.5464C7.80422 22.0496 8.48168 22.1546 8.89557 21.7581L10.2443 20.4662C10.4963 20.2248 10.6388 19.8909 10.6388 19.542V17.5191L12.8082 15.3495L15.8088 20.0651C16.1077 20.5347 16.7646 20.6068 17.1582 20.2132L18.728 18.6433C19.1515 18.2197 19.3354 17.6125 19.2179 17.0251L17.8704 10.287L20.1391 8.01817C21.287 6.87019 21.287 5.00896 20.1391 3.86098ZM17.068 4.94686C17.6162 4.39859 18.5051 4.39859 19.0533 4.94686C19.6015 5.49512 19.6015 6.38403 19.0533 6.9323L16.6877 9.29801C16.6496 9.33612 16.6142 9.37631 16.5817 9.41828L12.0679 13.932C12.0264 13.9643 11.9864 13.9997 11.948 14.038L9.47804 16.5082C9.23807 16.7482 9.10325 17.0737 9.10325 17.4131V19.4327L8.46141 20.0475L6.92252 17.226C6.81341 17.026 6.65288 16.8587 6.4575 16.7415L3.94335 15.2329L4.69418 14.482L6.37591 14.8266C6.79715 14.913 7.23357 14.7819 7.53762 14.4779L9.97244 12.0429C10.5434 11.4719 10.4493 10.5212 9.77741 10.0732L4.93395 6.84401L5.90927 5.86862C5.97284 5.80505 6.0651 5.77949 6.15231 5.80129L13.4985 7.63796C13.9345 7.74698 14.3958 7.61921 14.7136 7.30135L17.068 4.94686ZM13.9057 14.2155C13.9148 14.2287 13.9237 14.2422 13.9324 14.2559L16.659 18.5407L17.6422 17.5574C17.7027 17.4969 17.7289 17.4102 17.7122 17.3263L16.5594 11.5619L13.9057 14.2155Z" fill="black"/>
</svg>
