<svg width="24" height="24" viewBox="0 0 24 24" fill="none" xmlns="http://www.w3.org/2000/svg">
<path fill-rule="evenodd" clip-rule="evenodd" d="M11.3333 19.4708V17.2768C11.3333 14.6448 9.07733 12.5 6.5 12.5L4.51699 12.5088C4.7638 16.1928 7.67067 19.1482 11.3333 19.4708ZM4.56609 11C5.05498 7.33064 8.19692 4.5 12 4.5C15.8031 4.5 18.945 7.33064 19.4339 11H16.5C15.8107 11 15.0595 10.8699 14.5721 10.3721L14.0971 9.88708C13.8131 9.59705 13.4744 9.36895 13.1015 9.21662C12.3944 8.92779 11.6056 8.92779 10.8985 9.21662C10.5256 9.36895 10.1869 9.59705 9.90288 9.88708L9.42795 10.3721C8.94051 10.8699 8.18935 11 7.5 11H4.56609ZM19.4836 12.5H17.5C14.9227 12.5 12.6667 14.6448 12.6667 17.2768V19.4708C16.3323 19.1479 19.2408 16.188 19.4836 12.5ZM21 12C21 16.9706 16.9706 21 12 21C7.02944 21 3 16.9706 3 12C3 7.02944 7.02944 3 12 3C16.9706 3 21 7.02944 21 12ZM13.3333 11.8304C13.3333 12.5824 12.7364 13.1919 12 13.1919C11.2636 13.1919 10.6667 12.5824 10.6667 11.8304C10.6667 11.0784 11.2636 10.4687 12 10.4687C12.7364 10.4687 13.3333 11.0784 13.3333 11.8304Z" fill="black"/>
</svg>
