<svg width="24" height="24" viewBox="0 0 24 24" fill="none" xmlns="http://www.w3.org/2000/svg">
<path fill-rule="evenodd" clip-rule="evenodd" d="M8.18795 4.37856C6.68355 5.85399 5.90543 7.99418 6.06042 9.92807L6.07378 10.0948L5.08258 12.738H6.18781C6.60202 12.738 6.93781 13.0737 6.93781 13.488V15.9879C6.93781 16.126 7.04974 16.2379 7.18781 16.2379H9.68777C10.0031 16.2379 10.2848 16.4352 10.3926 16.7316L11.8627 20.7744L17.0773 18.3409L15.9762 15.0376C15.888 14.7731 15.9538 14.4815 16.1471 14.2805C18.2264 12.1185 19.0849 10.1057 19.1277 8.40087C19.17 6.71294 18.4165 5.20323 17.0097 4.00874C16.3288 3.4306 15.4993 3.02084 14.6141 2.79898C11.8585 2.10834 9.66716 2.92783 8.18795 4.37856ZM7.13765 3.30764C8.97878 1.50197 11.7023 0.522811 14.9788 1.34399C16.0681 1.61701 17.1097 2.12593 17.9805 2.86531C19.6766 4.30543 20.6827 6.22806 20.6272 8.43849C20.5748 10.5278 19.5774 12.7606 17.5406 14.9874L18.7117 18.5007C18.8321 18.8621 18.6625 19.2564 18.3173 19.4175L11.7549 22.48C11.5643 22.5689 11.3451 22.5737 11.1507 22.4932C10.9564 22.4127 10.8048 22.2543 10.7329 22.0566L9.16245 17.7379H7.18781C6.22131 17.7379 5.43781 16.9544 5.43781 15.9879V14.238H4.72183C3.84908 14.238 3.24498 13.3662 3.55142 12.5491L4.55348 9.8769C4.41975 7.54024 5.36502 5.04614 7.13765 3.30764ZM12.3128 6.80058C11.5189 6.80058 10.8753 7.44416 10.8753 8.23805V8.30055C10.8753 8.71477 10.5395 9.05055 10.1253 9.05055C9.71109 9.05055 9.37531 8.71477 9.37531 8.30055V8.23805C9.37531 6.61573 10.6905 5.30058 12.3128 5.30058H12.5109C14.0238 5.30058 15.2503 6.52702 15.2503 8.0399C15.2503 8.96223 14.7861 9.82264 14.0153 10.3292L13.1755 10.8811C13.1051 10.9273 13.0628 11.0058 13.0628 11.09V11.7248C13.0628 12.139 12.727 12.4748 12.3128 12.4748C11.8986 12.4748 11.5628 12.139 11.5628 11.7248V11.09C11.5628 10.5008 11.8593 9.95108 12.3517 9.62749L13.1915 9.07561C13.5403 8.84645 13.7503 8.45718 13.7503 8.0399C13.7503 7.35544 13.1954 6.80058 12.5109 6.80058H12.3128ZM13.0628 15.1983C13.0628 14.7841 12.727 14.4483 12.3128 14.4483C11.8986 14.4483 11.5628 14.7841 11.5628 15.1983V15.6945C11.5628 16.1087 11.8986 16.4445 12.3128 16.4445C12.727 16.4445 13.0628 16.1087 13.0628 15.6945V15.1983Z" fill="black"/>
</svg>
