<svg width="24" height="24" viewBox="0 0 24 24" fill="none" xmlns="http://www.w3.org/2000/svg">
<path d="M8.1405 3.74911C9.20252 3.12145 10.5059 2.75 11.8969 2.75C13.288 2.75 14.5911 3.12144 15.6532 3.74911C16.0098 3.95986 16.4697 3.84164 16.6804 3.48504C16.8912 3.12845 16.773 2.66853 16.4164 2.45778C15.119 1.69103 13.5516 1.25 11.8969 1.25C10.2423 1.25 8.67468 1.69102 7.37731 2.45778C7.02072 2.66853 6.90249 3.12845 7.11324 3.48504C7.32399 3.84164 7.78391 3.95986 8.1405 3.74911Z" fill="black"/>
<path fill-rule="evenodd" clip-rule="evenodd" d="M15 12.5C15 14.1569 13.6569 15.5 12 15.5C10.3431 15.5 9 14.1569 9 12.5C9 10.8431 10.3431 9.5 12 9.5C13.6569 9.5 15 10.8431 15 12.5ZM13.5 12.5C13.5 13.3284 12.8284 14 12 14C11.1716 14 10.5 13.3284 10.5 12.5C10.5 11.6716 11.1716 11 12 11C12.8284 11 13.5 11.6716 13.5 12.5Z" fill="black"/>
<path fill-rule="evenodd" clip-rule="evenodd" d="M8.25 7.01758L15.724 7.01758C16.5995 7.01758 17.3249 7.66053 17.4537 8.50003H18.25C19.2165 8.50003 20 9.28354 20 10.25V16.25C20 17.2165 19.2165 18 18.25 18H5.75C4.7835 18 4 17.2165 4 16.25V10.25C4 9.28354 4.7835 8.50003 5.75 8.50003L6.52032 8.50003C6.64911 7.66053 7.37447 7.01758 8.25 7.01758ZM15.724 8.51758H8.25C8.11193 8.51758 8 8.62951 8 8.76758V10L5.75 10C5.61193 10 5.5 10.112 5.5 10.25V16.25C5.5 16.3881 5.61193 16.5 5.75 16.5L18.25 16.5C18.3881 16.5 18.5 16.3881 18.5 16.25V10.25C18.5 10.112 18.3881 10 18.25 10L15.974 10V8.76758C15.974 8.62951 15.8621 8.51758 15.724 8.51758Z" fill="black"/>
<path d="M14.1744 19H9.81231L7.8998 21.55C7.65127 21.8814 7.71843 22.3515 8.0498 22.6C8.38117 22.8485 8.85127 22.7814 9.0998 22.45L11.2495 19.5838L11.2497 22.0001C11.2497 22.4143 11.5855 22.75 11.9998 22.75C12.414 22.75 12.7497 22.4142 12.7497 21.9999L12.7495 19.602L14.9012 22.4519C15.1508 22.7825 15.6211 22.8481 15.9517 22.5985C16.2822 22.349 16.3479 21.8786 16.0983 21.5481L14.1744 19Z" fill="black"/>
<path d="M11.897 5.41992C11.2781 5.41992 10.7003 5.58448 10.2026 5.8714C9.84376 6.07828 9.38514 5.95509 9.17826 5.59625C8.97137 5.2374 9.09456 4.77878 9.45341 4.5719C10.173 4.15703 11.0084 3.91992 11.897 3.91992C12.7855 3.91992 13.6209 4.15703 14.3405 4.5719C14.6994 4.77878 14.8226 5.2374 14.6157 5.59625C14.4088 5.95509 13.9502 6.07828 13.5913 5.8714C13.0937 5.58448 12.5158 5.41992 11.897 5.41992Z" fill="black"/>
</svg>
