<svg width="24" height="24" viewBox="0 0 24 24" fill="none" xmlns="http://www.w3.org/2000/svg">
<path fill-rule="evenodd" clip-rule="evenodd" d="M17 6.5H5C4.72386 6.5 4.5 6.72386 4.5 7V15C4.5 15.2761 4.72386 15.5 5 15.5H17C17.2761 15.5 17.5 15.2761 17.5 15V7C17.5 6.72386 17.2761 6.5 17 6.5ZM5 5C3.89543 5 3 5.89543 3 7V15C3 16.1046 3.89543 17 5 17H17C18.1046 17 19 16.1046 19 15V7C19 5.89543 18.1046 5 17 5H5ZM21.0431 17.3177C21.3852 17.5512 21.4732 18.0178 21.2397 18.36C20.9858 18.732 20.67 18.9882 20.3604 19.1578C19.9971 19.3568 19.5413 19.2236 19.3423 18.8604C19.1432 18.4971 19.2764 18.0413 19.6397 17.8423C19.7674 17.7723 19.8956 17.6684 20.0008 17.5143C20.2343 17.1722 20.701 17.0842 21.0431 17.3177ZM21.5 14.25C21.5 13.8358 21.1642 13.5 20.75 13.5C20.3358 13.5 20 13.8358 20 14.25V15.25C20 15.6642 20.3358 16 20.75 16C21.1642 16 21.5 15.6642 21.5 15.25V14.25ZM20.75 9.5C21.1642 9.5 21.5 9.83579 21.5 10.25V11.25C21.5 11.6642 21.1642 12 20.75 12C20.3358 12 20 11.6642 20 11.25V10.25C20 9.83579 20.3358 9.5 20.75 9.5ZM15.25 18C14.8358 18 14.5 18.3358 14.5 18.75C14.5 19.1642 14.8358 19.5 15.25 19.5H17.25C17.6642 19.5 18 19.1642 18 18.75C18 18.3358 17.6642 18 17.25 18H15.25ZM10.5 18.75C10.5 18.3358 10.8358 18 11.25 18H12.25C12.6642 18 13 18.3358 13 18.75C13 19.1642 12.6642 19.5 12.25 19.5H11.25C10.8358 19.5 10.5 19.1642 10.5 18.75ZM7.25 18C6.83579 18 6.5 18.3358 6.5 18.75C6.5 19.1642 6.83579 19.5 7.25 19.5H8.25C8.66421 19.5 9 19.1642 9 18.75C9 18.3358 8.66421 18 8.25 18H7.25Z" fill="black"/>
</svg>
