<svg width="24" height="24" viewBox="0 0 24 24" fill="none" xmlns="http://www.w3.org/2000/svg">
<path fill-rule="evenodd" clip-rule="evenodd" d="M4 20H20C20.2761 20 20.5 19.7761 20.5 19.5V9H15.85C15.3806 9 15 8.61944 15 8.15V3.5H4C3.72386 3.5 3.5 3.72386 3.5 4V19.5C3.5 19.7761 3.72386 20 4 20ZM16.5 3.60864L20.4824 7.5H16.5V3.60864ZM4 2C2.89543 2 2 2.89543 2 4V19.5C2 20.6046 2.89543 21.5 4 21.5H20C21.1046 21.5 22 20.6046 22 19.5V7.43302C22 7.08302 21.8589 6.74782 21.6086 6.50321L17.3789 2.3702C17.136 2.13287 16.8099 2 16.4703 2H4ZM5.5 12.5496C5.65477 12.5449 5.79312 12.5402 5.91505 12.5355C6.04168 12.526 6.1683 12.5189 6.29493 12.5142C6.42156 12.5095 6.55287 12.5071 6.68888 12.5071C6.82957 12.5024 6.99137 12.5 7.17428 12.5C7.59168 12.5 7.94342 12.5331 8.2295 12.5993C8.52027 12.6655 8.75476 12.7719 8.93298 12.9184C9.11588 13.0603 9.2472 13.247 9.32692 13.4787C9.40665 13.7057 9.44651 13.9822 9.44651 14.3085C9.44651 14.9751 9.26361 15.4669 8.8978 15.7836C8.53199 16.0957 7.9528 16.2517 7.16021 16.2517H6.90696C6.83192 16.247 6.7475 16.2399 6.65371 16.2304V17.4999H5.5V12.5496ZM6.65371 15.2659C6.75219 15.2754 6.83661 15.2825 6.90696 15.2872H7.16021C7.36656 15.2872 7.54009 15.2683 7.68078 15.2305C7.82148 15.1926 7.93404 15.1359 8.01845 15.0602C8.10287 14.9799 8.16384 14.8829 8.20136 14.7695C8.23888 14.656 8.25764 14.5212 8.25764 14.3652C8.25764 14.2139 8.24122 14.0815 8.20839 13.9681C8.17556 13.8546 8.11694 13.7624 8.03252 13.6915C7.94811 13.6158 7.83555 13.5591 7.69485 13.5213C7.55416 13.4834 7.37594 13.4645 7.16021 13.4645C7.06641 13.4645 6.982 13.4669 6.90696 13.4716C6.83192 13.4716 6.7475 13.4763 6.65371 13.4858V15.2659ZM15.862 13.5426H14.3776V12.5355H18.5V13.5426H17.0157V17.5H15.862V13.5426ZM10.5057 12.5355C10.3838 12.5402 10.2455 12.5449 10.0907 12.5496V17.4999H11.2444V16.2304C11.3382 16.2399 11.4226 16.247 11.4976 16.2517H11.7509C12.5435 16.2517 13.1227 16.0957 13.4885 15.7836C13.8543 15.4669 14.0372 14.9751 14.0372 14.3085C14.0372 13.9822 13.9973 13.7057 13.9176 13.4787C13.8379 13.247 13.7066 13.0603 13.5237 12.9184C13.3454 12.7719 13.111 12.6655 12.8202 12.5993C12.5341 12.5331 12.1824 12.5 11.765 12.5C11.5821 12.5 11.4203 12.5024 11.2796 12.5071C11.1436 12.5071 11.0122 12.5095 10.8856 12.5142C10.759 12.5189 10.6324 12.526 10.5057 12.5355ZM11.4976 15.2872C11.4273 15.2825 11.3429 15.2754 11.2444 15.2659V13.4858C11.3382 13.4763 11.4226 13.4716 11.4976 13.4716C11.5727 13.4669 11.6571 13.4645 11.7509 13.4645C11.9666 13.4645 12.1448 13.4834 12.2855 13.5213C12.4262 13.5591 12.5388 13.6158 12.6232 13.6915C12.7076 13.7624 12.7663 13.8546 12.7991 13.9681C12.8319 14.0815 12.8483 14.2139 12.8483 14.3652C12.8483 14.5212 12.8296 14.656 12.792 14.7695C12.7545 14.8829 12.6936 14.9799 12.6091 15.0602C12.5247 15.1359 12.4122 15.1926 12.2715 15.2305C12.1308 15.2683 11.9573 15.2872 11.7509 15.2872H11.4976Z" fill="black"/>
</svg>
