<svg width="24" height="24" viewBox="0 0 24 24" fill="none" xmlns="http://www.w3.org/2000/svg">
<path fill-rule="evenodd" clip-rule="evenodd" d="M5.2659 9.02635C4.28959 9.82321 3.75 10.7367 3.75 11.421C3.75 12.1053 4.28959 13.0188 5.2659 13.8157C6.22156 14.5957 7.39257 15.092 8.33333 15.092C8.93355 15.092 9.33023 15.0176 9.61558 14.9265C9.90204 14.835 10.107 14.7183 10.3513 14.577L10.3658 14.5686C10.7519 14.3452 11.2244 14.0718 12 14.0718C12.7756 14.0718 13.2481 14.3452 13.6342 14.5686L13.6487 14.577C13.893 14.7183 14.098 14.835 14.3844 14.9265C14.6698 15.0176 15.0665 15.092 15.6667 15.092C16.5391 15.092 17.2887 14.9625 17.9581 14.5765C18.317 14.3696 18.7756 14.4928 18.9825 14.8516C19.1894 15.2105 19.0662 15.6691 18.7074 15.876C17.7251 16.4423 16.6827 16.592 15.6667 16.592C14.938 16.592 14.3843 16.501 13.9283 16.3554C13.4801 16.2124 13.1558 16.0247 12.9088 15.8819L12.8977 15.8754C12.5419 15.6696 12.3627 15.5718 12 15.5718C11.6373 15.5718 11.4581 15.6696 11.1023 15.8754L11.0912 15.8819C10.8442 16.0247 10.5199 16.2124 10.0717 16.3554C9.61571 16.501 9.06195 16.592 8.33333 16.592C6.94077 16.592 5.4451 15.8981 4.31743 14.9777C3.21041 14.0742 2.25 12.7772 2.25 11.421C2.25 10.0648 3.21041 8.76783 4.31743 7.8643C5.4451 6.9439 6.94077 6.25 8.33333 6.25C9.06195 6.25 9.61571 6.341 10.0717 6.48658C10.5199 6.62965 10.8443 6.81729 11.0912 6.96016L11.1023 6.96657C11.4581 7.1724 11.6373 7.27023 12 7.27023C12.3627 7.27023 12.5419 7.1724 12.8977 6.96657L12.9088 6.96016C13.1557 6.81729 13.4801 6.62965 13.9283 6.48658C14.3843 6.341 14.938 6.25 15.6667 6.25C17.2137 6.25 18.7134 6.93386 19.8191 7.87393C20.9076 8.79937 21.5 10.4054 21.5 11.7317V19.3106C21.5 19.7248 21.1642 20.0606 20.75 20.0606C20.3358 20.0606 20 19.7248 20 19.3106V11.7317C20 11.0176 19.759 9.79167 18.8475 9.01672C17.9532 8.25639 16.7863 7.74999 15.6667 7.74999C15.0665 7.74999 14.6698 7.82443 14.3844 7.91552C14.098 8.00697 13.893 8.12372 13.6487 8.26499L13.6342 8.27341C13.2481 8.49682 12.7756 8.77022 12 8.77022C11.2244 8.77022 10.7519 8.49682 10.3658 8.27341L10.3513 8.26499C10.107 8.12372 9.90204 8.00697 9.61557 7.91552C9.33023 7.82443 8.93355 7.74999 8.33333 7.74999C7.39257 7.74999 6.22156 8.24636 5.2659 9.02635ZM6.52636 11.421C6.61261 11.3273 6.73009 11.2185 6.87572 11.1103C7.26255 10.8231 7.776 10.5921 8.33333 10.5921C8.89067 10.5921 9.40412 10.8231 9.79094 11.1103C9.93658 11.2185 10.0541 11.3273 10.1403 11.421C10.0541 11.5148 9.93658 11.6235 9.79094 11.7317C9.40412 12.0189 8.89067 12.2499 8.33333 12.2499C7.776 12.2499 7.26255 12.0189 6.87572 11.7317C6.73009 11.6235 6.61261 11.5148 6.52636 11.421ZM5.98142 9.90609C6.54698 9.4861 7.36686 9.09208 8.33333 9.09208C9.2998 9.09208 10.1197 9.4861 10.6852 9.90609C10.97 10.1176 11.2082 10.3485 11.3829 10.5666C11.4698 10.675 11.5503 10.7919 11.613 10.912C11.6647 11.0112 11.75 11.1971 11.75 11.421C11.75 11.6449 11.6647 11.8308 11.613 11.93C11.5503 12.0501 11.4698 12.167 11.3829 12.2754C11.2082 12.4935 10.97 12.7245 10.6852 12.9359C10.1197 13.3559 9.2998 13.7499 8.33333 13.7499C7.36686 13.7499 6.54698 13.3559 5.98142 12.9359C5.69666 12.7245 5.4585 12.4935 5.28374 12.2754C5.19691 12.167 5.11634 12.0501 5.05369 11.93C5.00201 11.8308 4.91667 11.6449 4.91667 11.421C4.91667 11.1971 5.00201 11.0112 5.05369 10.912C5.11634 10.7919 5.19691 10.675 5.28374 10.5666C5.4585 10.3485 5.69666 10.1176 5.98142 9.90609ZM13.3145 9.90603C13.8802 9.48609 14.7002 9.09208 15.6667 9.09208C16.6332 9.09208 17.4529 9.48612 18.0184 9.90616C18.3031 10.1176 18.5412 10.3486 18.7159 10.5667C18.8027 10.6751 18.8832 10.792 18.9458 10.9122C18.9975 11.0113 19.0827 11.1972 19.0827 11.421C19.0827 11.6448 18.9975 11.8307 18.9458 11.9298C18.8832 12.05 18.8027 12.1669 18.7159 12.2753C18.5412 12.4934 18.3031 12.7244 18.0184 12.9358C17.4529 13.3559 16.6332 13.7499 15.6667 13.7499C14.7002 13.7499 13.8802 13.3559 13.3145 12.936C13.0297 12.7245 12.7915 12.4936 12.6167 12.2755C12.5298 12.1672 12.4492 12.0503 12.3865 11.9301C12.3348 11.831 12.2494 11.645 12.2494 11.421C12.2494 11.197 12.3348 11.011 12.3865 10.9119C12.4492 10.7917 12.5298 10.6749 12.6167 10.5665C12.7915 10.3484 13.0297 10.1175 13.3145 9.90603ZM13.8592 11.421C13.9455 11.3273 14.063 11.2185 14.2087 11.1104C14.5957 10.8231 15.1093 10.5921 15.6667 10.5921C16.224 10.5921 16.7373 10.8231 17.1239 11.1103C17.2695 11.2184 17.387 11.3272 17.4732 11.421C17.387 11.5148 17.2695 11.6236 17.1239 11.7317C16.7373 12.019 16.224 12.2499 15.6667 12.2499C15.1093 12.2499 14.5957 12.0189 14.2087 11.7316C14.063 11.6235 13.9455 11.5147 13.8592 11.421Z" fill="black"/>
</svg>
