<svg width="24" height="24" viewBox="0 0 24 24" fill="none" xmlns="http://www.w3.org/2000/svg">
<path fill-rule="evenodd" clip-rule="evenodd" d="M8 2.5C6.067 2.5 4.5 4.067 4.5 6V12C4.5 13.3807 5.61929 14.5 7 14.5H8.5V18.5C8.5 20.1569 9.84315 21.5 11.5 21.5C13.1569 21.5 14.5 20.1569 14.5 18.5V14.5H16C17.3807 14.5 18.5 13.3807 18.5 12V7.44999C19.6411 7.21836 20.5 6.20948 20.5 5C20.5 3.61929 19.3807 2.5 18 2.5H8ZM6 6C6 4.89543 6.89543 4 8 4H18C18.5523 4 19 4.44772 19 5C19 5.55228 18.5523 6 18 6C17.4477 6 17 6.44772 17 7V9H12V8C12 7.58579 11.6642 7.25 11.25 7.25C10.8358 7.25 10.5 7.58579 10.5 8V9H9V6C9 5.58579 8.66421 5.25 8.25 5.25C7.83579 5.25 7.5 5.58579 7.5 6V9H6V6ZM6 10.5V12C6 12.5523 6.44772 13 7 13H9C9.55228 13 10 13.4477 10 14V18.5C10 19.3284 10.6716 20 11.5 20C12.3284 20 13 19.3284 13 18.5V14C13 13.4477 13.4477 13 14 13H16C16.5523 13 17 12.5523 17 12V10.5H6Z" fill="black"/>
</svg>
