<svg width="24" height="24" viewBox="0 0 24 24" fill="none" xmlns="http://www.w3.org/2000/svg">
<path fill-rule="evenodd" clip-rule="evenodd" d="M17.5 4.5H6.5C6.22386 4.5 6 4.72386 6 5V19C6 19.2761 6.22386 19.5 6.5 19.5H17.5C17.7761 19.5 18 19.2761 18 19V5C18 4.72386 17.7761 4.5 17.5 4.5ZM6.5 3C5.39543 3 4.5 3.89543 4.5 5V19C4.5 20.1046 5.39543 21 6.5 21H17.5C18.6046 21 19.5 20.1046 19.5 19V5C19.5 3.89543 18.6046 3 17.5 3H6.5ZM13.5 16.5C14.0523 16.5 14.5 16.0523 14.5 15.5C14.5 14.9477 14.0523 14.5 13.5 14.5C12.9477 14.5 12.5 14.9477 12.5 15.5C12.5 16.0523 12.9477 16.5 13.5 16.5ZM13.5 18C14.8807 18 16 16.8807 16 15.5C16 14.1193 14.8807 13 13.5 13C12.1193 13 11 14.1193 11 15.5C11 16.8807 12.1193 18 13.5 18ZM8 8.5H16V7H8V8.5ZM16 11.5H8V10H16V11.5ZM8 14.5H9.5V13H8V14.5Z" fill="black"/>
</svg>
