<svg width="24" height="24" viewBox="0 0 24 24" fill="none" xmlns="http://www.w3.org/2000/svg">
<path fill-rule="evenodd" clip-rule="evenodd" d="M5.16528 12.5478C5.16528 8.81326 8.28526 5.75 12.1787 5.75C16.0722 5.75 19.1922 8.81326 19.1922 12.5478C19.1922 14.3657 18.4567 16.0187 17.2515 17.242C16.9607 17.537 16.9643 18.0119 17.2593 18.3026C17.5544 18.5933 18.0292 18.5898 18.3199 18.2948C19.7862 16.8066 20.6922 14.7812 20.6922 12.5478C20.6922 7.94528 16.8605 4.25 12.1787 4.25C7.49695 4.25 3.66528 7.94528 3.66528 12.5478C3.66528 14.7812 4.57126 16.8066 6.03756 18.2948C6.1001 18.3582 6.16362 18.4207 6.22812 18.4821C6.52802 18.7678 7.00275 18.7563 7.28847 18.4564C7.57418 18.1565 7.56268 17.6818 7.26278 17.3961C7.20967 17.3455 7.15742 17.2941 7.10604 17.242C5.90076 16.0187 5.16528 14.3657 5.16528 12.5478ZM4 19.976C3.58579 19.976 3.25 20.3117 3.25 20.726C3.25 21.1402 3.58579 21.476 4 21.476H20.5C20.9142 21.476 21.25 21.1402 21.25 20.726C21.25 20.3117 20.9142 19.976 20.5 19.976H4ZM12 9.25C12.4142 9.25 12.75 9.58579 12.75 10V14.6893L14.4697 12.9697C14.7626 12.6768 15.2374 12.6768 15.5303 12.9697C15.8232 13.2626 15.8232 13.7374 15.5303 14.0303L12.601 16.9596C12.2691 17.2916 11.7309 17.2916 11.399 16.9596L8.46967 14.0303C8.17678 13.7374 8.17678 13.2626 8.46967 12.9697C8.76256 12.6768 9.23744 12.6768 9.53033 12.9697L11.25 14.6893V10C11.25 9.58579 11.5858 9.25 12 9.25Z" fill="black"/>
</svg>
