<svg width="24" height="24" viewBox="0 0 24 24" fill="none" xmlns="http://www.w3.org/2000/svg">
<path d="M11.1898 18.0899C10.8498 18.0899 10.4898 18.0299 10.2198 17.9199V16.3299C10.3598 16.4499 10.6298 16.5599 10.8898 16.5599C11.1398 16.5599 11.3998 16.5099 11.5498 16.1699L8.81982 10.9999H10.7498L12.4498 14.5299L13.7898 10.9999H15.4998L13.2398 16.4099C12.6998 17.7099 12.2098 18.0899 11.1898 18.0899Z" fill="black"/>
<path fill-rule="evenodd" clip-rule="evenodd" d="M21.8318 17.4709L13.715 3.9427C12.9382 2.64801 11.0618 2.64801 10.285 3.94268L2.16799 17.4709C1.36815 18.8039 2.32838 20.4999 3.88297 20.4999H20.1168C21.6714 20.4999 22.6316 18.8039 21.8318 17.4709ZM12.4287 4.71443C12.2345 4.39076 11.7654 4.39076 11.5712 4.71443L3.45423 18.2426C3.25427 18.5759 3.49432 18.9999 3.88297 18.9999H20.1168C20.5054 18.9999 20.7455 18.5759 20.5455 18.2426L12.4287 4.71443Z" fill="black"/>
</svg>
