<svg width="24" height="24" viewBox="0 0 24 24" fill="none" xmlns="http://www.w3.org/2000/svg">
<path fill-rule="evenodd" clip-rule="evenodd" d="M11 3.5C9.84906 3.5 8.86088 3.75324 8.33926 4.00589C8.15204 4.09657 8 4.32428 8 4.62048V5.67363C8.90926 5.24169 9.9264 5 11 5C12.0736 5 13.0907 5.24169 14 5.67363V4.62048C14 4.32428 13.848 4.09657 13.6607 4.00589C13.1391 3.75324 12.1509 3.5 11 3.5ZM6.5 4.62048V6.63789C4.97153 7.92196 4 9.84752 4 12C4 14.1525 4.97153 16.078 6.5 17.3621V19.3795C6.5 20.1599 6.90371 20.9655 7.6854 21.3441C8.38992 21.6853 9.60041 22 11 22C12.3996 22 13.6101 21.6853 14.3146 21.3441C15.0963 20.9655 15.5 20.1599 15.5 19.3795V17.3621C17.0285 16.078 18 14.1525 18 12C18 9.84752 17.0285 7.92196 15.5 6.63789V4.62048C15.5 3.84012 15.0963 3.03451 14.3146 2.6559C13.6101 2.31467 12.3996 2 11 2C9.60041 2 8.38992 2.31467 7.6854 2.6559C6.90371 3.03451 6.5 3.84012 6.5 4.62048ZM14 18.3264C13.0907 18.7583 12.0736 19 11 19C9.9264 19 8.90926 18.7583 8 18.3264V19.3795C8 19.6757 8.15204 19.9034 8.33926 19.9941C8.86088 20.2468 9.84906 20.5 11 20.5C12.1509 20.5 13.1391 20.2468 13.6607 19.9941C13.848 19.9034 14 19.6757 14 19.3795V18.3264ZM11 17.5C14.0376 17.5 16.5 15.0376 16.5 12C16.5 8.96243 14.0376 6.5 11 6.5C7.96243 6.5 5.5 8.96243 5.5 12C5.5 15.0376 7.96243 17.5 11 17.5ZM19.75 10.5C20.1642 10.5 20.5 10.8358 20.5 11.25V12.75C20.5 13.1642 20.1642 13.5 19.75 13.5C19.3358 13.5 19 13.1642 19 12.75V11.25C19 10.8358 19.3358 10.5 19.75 10.5ZM12.5 9.75C12.5 9.33579 12.1642 9 11.75 9C11.3358 9 11 9.33579 11 9.75V12H9.75C9.33579 12 9 12.3358 9 12.75C9 13.1642 9.33579 13.5 9.75 13.5H11.65C12.1194 13.5 12.5 13.1194 12.5 12.65V9.75Z" fill="black"/>
</svg>
