<svg width="24" height="24" viewBox="0 0 24 24" fill="none" xmlns="http://www.w3.org/2000/svg">
<path fill-rule="evenodd" clip-rule="evenodd" d="M6 1.3501C6.41421 1.3501 6.75 1.68588 6.75 2.1001V8.53653C6.75 8.62295 6.79463 8.70324 6.86803 8.74886L7.75 9.29703V2.1001C7.75 1.68588 8.08579 1.3501 8.5 1.3501C8.91421 1.3501 9.25 1.68588 9.25 2.1001V9.29704L10.132 8.74886C10.2054 8.70324 10.25 8.62295 10.25 8.53653V2.1001C10.25 1.68588 10.5858 1.3501 11 1.3501C11.4142 1.3501 11.75 1.68588 11.75 2.1001V8.53653C11.75 9.14146 11.4376 9.7035 10.9238 10.0228L9.25 11.0632V11.8386H9.83219C10.2895 11.8386 10.6648 12.2004 10.6816 12.6574L10.9696 20.4881C11.0211 21.8876 9.90045 23.0501 8.50001 23.0501C7.09956 23.0501 5.97896 21.8876 6.03043 20.4881L6.3184 12.6574C6.33521 12.2004 6.71054 11.8386 7.16783 11.8386H7.75V11.0632L6.0762 10.0228C5.56242 9.7035 5.25 9.14146 5.25 8.53653V2.1001C5.25 1.68588 5.58579 1.3501 6 1.3501ZM18.6324 1.68944C19.203 1.16964 20.05 1.61589 20.05 2.31783V16.1116V16.7616V20.8C20.05 22.0427 19.0426 23.05 17.8 23.05C16.5574 23.05 15.55 22.0427 15.55 20.8V17.6116H14.9C14.4139 17.6116 14.0492 17.2121 14.0501 16.7583C14.0703 7.17662 16.9049 3.26337 18.6324 1.68944ZM18.55 4.03616V16.1116H15.556C15.6649 9.39196 17.2311 5.86055 18.55 4.03616ZM18.55 17.6116H17.05V20.8C17.05 21.2142 17.3858 21.55 17.8 21.55C18.2142 21.55 18.55 21.2142 18.55 20.8V17.6116ZM7.52941 20.5432L7.79436 13.3386H9.20565L9.4706 20.5432C9.49083 21.0932 9.05041 21.5501 8.50001 21.5501C7.9496 21.5501 7.50919 21.0932 7.52941 20.5432Z" fill="black"/>
</svg>
