<svg width="24" height="24" viewBox="0 0 24 24" fill="none" xmlns="http://www.w3.org/2000/svg">
<path fill-rule="evenodd" clip-rule="evenodd" d="M4.89999 6.78003C4.89999 5.26125 6.13121 4.03003 7.64999 4.03003H16.65C18.1688 4.03003 19.4 5.26125 19.4 6.78003V15.78C19.4 17.2988 18.1688 18.53 16.65 18.53H7.64999C6.13121 18.53 4.89999 17.2988 4.89999 15.78V6.78003ZM7.64999 5.53003C6.95964 5.53003 6.39999 6.08967 6.39999 6.78003V15.78C6.39999 16.4704 6.95964 17.03 7.64999 17.03H16.65C17.3404 17.03 17.9 16.4704 17.9 15.78V6.78003C17.9 6.08967 17.3404 5.53003 16.65 5.53003H7.64999ZM3.77901 6.995C3.97632 7.3592 3.84102 7.8144 3.47682 8.0117L3 8.27002V15.1859L3.45498 15.4134C3.82546 15.5986 3.97563 16.0491 3.79039 16.4196C3.60514 16.7901 3.15464 16.9403 2.78415 16.755L2.19098 16.4584C1.7675 16.2467 1.5 15.8139 1.5 15.3404V8.12113C1.5 7.66241 1.75125 7.24055 2.15458 7.02205L2.76231 6.69281C3.12651 6.4955 3.58171 6.6308 3.77901 6.995ZM20.688 8.10705C20.3114 7.93449 20.1461 7.48934 20.3186 7.11279C20.4912 6.73623 20.9363 6.57085 21.3129 6.74341L21.8907 7.00822C22.3351 7.21184 22.62 7.65579 22.62 8.14458V15.3408C22.62 15.8142 22.3525 16.2471 21.929 16.4588L21.3358 16.7554C20.9654 16.9406 20.5149 16.7905 20.3296 16.42C20.1444 16.0495 20.2945 15.599 20.665 15.4138L21.12 15.1863V8.30502L20.688 8.10705Z" fill="black"/>
</svg>
