<svg width="24" height="24" viewBox="0 0 24 24" fill="none" xmlns="http://www.w3.org/2000/svg">
<path d="M9.94047 8.50035C9.96029 8.50012 9.98014 8.5 10 8.5C10.0199 8.5 10.0397 8.50012 10.0595 8.50035C10.6118 8.50682 11.0542 8.95975 11.0477 9.51199C11.0413 10.0642 10.5883 10.5067 10.0361 10.5002L10 10.5L9.9639 10.5002C9.41165 10.5067 8.95872 10.0642 8.95226 9.51199C8.94579 8.95975 9.38823 8.50682 9.94047 8.50035Z" fill="black"/>
<path d="M12.0791 9.93942C12.465 9.5443 13.0981 9.53681 13.4933 9.92269C13.5216 9.95037 13.5496 9.97839 13.5773 10.0067C13.9632 10.4019 13.9557 11.035 13.5606 11.4209C13.1655 11.8067 12.5323 11.7992 12.1465 11.4041C12.1298 11.3871 12.1129 11.3702 12.0959 11.3535C11.7008 10.9677 11.6933 10.3345 12.0791 9.93942Z" fill="black"/>
<path d="M7.92085 9.93942C8.30673 10.3345 8.29924 10.9677 7.90413 11.3535C7.88706 11.3702 7.8702 11.3871 7.85353 11.4041C7.46765 11.7992 6.83453 11.8067 6.43942 11.4209C6.0443 11.035 6.03681 10.4019 6.42269 10.0067C6.45037 9.97839 6.47839 9.95038 6.50674 9.92269C6.90185 9.53681 7.53497 9.5443 7.92085 9.93942Z" fill="black"/>
<path d="M13.988 12.4523C14.5403 12.4458 14.9932 12.8882 14.9997 13.4405C14.9999 13.4603 15 13.4801 15 13.5C15 13.5199 14.9999 13.5397 14.9997 13.5595C14.9932 14.1118 14.5403 14.5542 13.988 14.5477C13.4358 14.5413 12.9933 14.0883 12.9998 13.5361L13 13.5L12.9998 13.4639C12.9933 12.9117 13.4358 12.4587 13.988 12.4523Z" fill="black"/>
<path d="M6.01199 12.4523C6.56424 12.4587 7.00668 12.9117 7.00021 13.4639L7 13.5L7.00021 13.5361C7.00668 14.0883 6.56424 14.5413 6.01199 14.5477C5.45975 14.5542 5.00682 14.1118 5.00035 13.5595C5.00012 13.5397 5 13.5199 5 13.5C5 13.4801 5.00012 13.4603 5.00035 13.4405C5.00682 12.8882 5.45975 12.4458 6.01199 12.4523Z" fill="black"/>
<path d="M13.5606 15.5791C13.9557 15.965 13.9632 16.5981 13.5773 16.9933C13.5496 17.0216 13.5216 17.0496 13.4933 17.0773C13.0981 17.4632 12.465 17.4557 12.0791 17.0606C11.6933 16.6655 11.7008 16.0323 12.0959 15.6465C12.1129 15.6298 12.1298 15.6129 12.1465 15.5959C12.5323 15.2008 13.1655 15.1933 13.5606 15.5791Z" fill="black"/>
<path d="M6.43942 15.5791C6.83453 15.1933 7.46765 15.2008 7.85353 15.5959C7.8702 15.6129 7.88706 15.6298 7.90413 15.6465C8.29924 16.0323 8.30673 16.6655 7.92085 17.0606C7.53497 17.4557 6.90185 17.4632 6.50674 17.0773C6.47839 17.0496 6.45038 17.0216 6.42269 16.9933C6.03681 16.5981 6.0443 15.965 6.43942 15.5791Z" fill="black"/>
<path d="M8.95226 17.488C8.95872 16.9358 9.41165 16.4933 9.9639 16.4998L10 16.5L10.0361 16.4998C10.5883 16.4933 11.0413 16.9358 11.0477 17.488C11.0542 18.0403 10.6118 18.4932 10.0595 18.4997C10.0397 18.4999 10.0199 18.5 10 18.5C9.98014 18.5 9.96029 18.4999 9.94047 18.4997C9.38823 18.4932 8.94579 18.0403 8.95226 17.488Z" fill="black"/>
<path fill-rule="evenodd" clip-rule="evenodd" d="M4 2C2.89543 2 2 2.89543 2 4V19.5C2 20.6046 2.89543 21.5 4 21.5H20C21.1046 21.5 22 20.6046 22 19.5V7.43302C22 7.08302 21.8589 6.74782 21.6086 6.50321L17.3789 2.3702C17.136 2.13287 16.8099 2 16.4703 2H4ZM4 20H20C20.2761 20 20.5 19.7761 20.5 19.5V9H15.85C15.3806 9 15 8.61944 15 8.15V3.5H4C3.72386 3.5 3.5 3.72386 3.5 4V19.5C3.5 19.7761 3.72386 20 4 20ZM16.5 3.60864V7.5H20.4824L16.5 3.60864Z" fill="black"/>
</svg>
