<svg width="24" height="24" viewBox="0 0 24 24" fill="none" xmlns="http://www.w3.org/2000/svg">
<path fill-rule="evenodd" clip-rule="evenodd" d="M4.75 5.5C5.16421 5.5 5.5 5.83579 5.5 6.25V14.5C5.5 15.9046 6.38119 17.2376 7.85841 17.904L9.42989 18.5002C11.064 19.2374 12.936 19.2374 14.5701 18.5002L16.1416 17.904C17.6188 17.2376 18.5 15.9046 18.5 14.5V6.25C18.5 5.83579 18.8358 5.5 19.25 5.5C19.6642 5.5 20 5.83579 20 6.25V14.5C20 16.5575 18.7132 18.3894 16.7584 19.2713L15.187 19.8675C13.1607 20.7816 10.8394 20.7816 8.81307 19.8675L7.24159 19.2713C5.28676 18.3894 4 16.5575 4 14.5V6.25C4 5.83579 4.33579 5.5 4.75 5.5ZM9.61424 8.60699C9.96943 8.39388 10.4301 8.50906 10.6432 8.86424L10.9395 9.35799C11.118 9.45128 11.3166 9.50011 11.5184 9.50011H12.4819C12.6836 9.50011 12.8822 9.45128 13.0607 9.35799L13.357 8.86424C13.5701 8.50906 14.0308 8.39388 14.386 8.60699C14.7412 8.8201 14.8563 9.2808 14.6432 9.63598L14.3259 10.1649C14.204 10.368 14.0309 10.5354 13.8239 10.6504L13.8174 10.654C13.4088 10.881 12.9492 11.0001 12.4819 11.0001H11.5184C11.051 11.0001 10.5914 10.881 10.1828 10.654L10.1763 10.6504C9.9693 10.5354 9.79618 10.368 9.67433 10.1649L9.35699 9.63599C9.14388 9.2808 9.25906 8.8201 9.61424 8.60699ZM9.75 13.5C9.33579 13.5 9 13.8358 9 14.25C9 14.6642 9.33579 15 9.75 15H14.25C14.6642 15 15 14.6642 15 14.25C15 13.8358 14.6642 13.5 14.25 13.5H9.75Z" fill="black"/>
</svg>
