<svg width="24" height="24" viewBox="0 0 24 24" fill="none" xmlns="http://www.w3.org/2000/svg">
<path fill-rule="evenodd" clip-rule="evenodd" d="M6.5 12.8082V4.50896H17.5V12.8082C17.5 14.9105 16.3802 16.8516 14.5658 17.8946L12 19.3695L9.43424 17.8946C7.61978 16.8516 6.5 14.9105 6.5 12.8082ZM5 4.00597C5 3.45039 5.44772 3 6 3H18C18.5523 3 19 3.45039 19 4.00597V12.8082C19 15.452 17.5918 17.8931 15.31 19.2048L12.3493 20.9067C12.1328 21.0311 11.8672 21.0311 11.6507 20.9067L8.69003 19.2048C6.40821 17.8931 5 15.452 5 12.8082V4.00597ZM11.75 7.5H9.5V9.75C9.5 10.1642 9.16421 10.5 8.75 10.5C8.33579 10.5 8 10.1642 8 9.75V6.85C8 6.38056 8.38056 6 8.85 6H11.75C12.1642 6 12.5 6.33579 12.5 6.75C12.5 7.16421 12.1642 7.5 11.75 7.5Z" fill="black"/>
</svg>
