<svg width="24" height="24" viewBox="0 0 24 24" fill="none" xmlns="http://www.w3.org/2000/svg">
<path fill-rule="evenodd" clip-rule="evenodd" d="M3.53846 9.02131C3.53846 6.52243 5.3752 4.54633 7.89744 4.54633C8.46083 4.54633 9.09471 4.74852 9.73085 5.09208C10.361 5.4324 10.9449 5.88547 11.3936 6.32038C11.7321 6.64844 12.2679 6.64844 12.6064 6.32038C13.0551 5.88547 13.639 5.4324 14.2691 5.09208C14.9053 4.74852 15.5392 4.54633 16.1026 4.54633C18.6248 4.54633 20.4615 6.52243 20.4615 9.02131C20.4615 10.2949 19.9951 11.4142 19.1624 12.2095L12 19.1904L4.91378 12.2837L4.90813 12.2783C4.06846 11.4763 3.53846 10.2753 3.53846 9.02131ZM7.89744 3C4.47199 3 2 5.72325 2 9.02131C2 10.6959 2.70055 12.3014 3.84542 13.3964L11.3931 20.7528C11.7313 21.0824 12.2687 21.0824 12.6069 20.7528L20.2252 13.3276C21.3852 12.218 22 10.6833 22 9.02131C22 5.72325 19.528 3 16.1026 3C15.1959 3 14.3065 3.31649 13.541 3.72993C12.9755 4.03531 12.4506 4.40812 12 4.78956C11.5494 4.40812 11.0245 4.03531 10.459 3.72993C9.69351 3.31649 8.80409 3 7.89744 3ZM17.7637 11.7637C18.0566 11.4708 18.0566 10.996 17.7637 10.7031C17.4708 10.4102 16.996 10.4102 16.7031 10.7031L13.7031 13.7031C13.4102 13.996 13.4102 14.4708 13.7031 14.7637C13.996 15.0566 14.4708 15.0566 14.7637 14.7637L17.7637 11.7637Z" fill="black"/>
</svg>
