<svg width="24" height="24" viewBox="0 0 24 24" fill="none" xmlns="http://www.w3.org/2000/svg">
<path fill-rule="evenodd" clip-rule="evenodd" d="M5.9284 3.00001C6.22897 2.9985 6.50141 3.17659 6.62064 3.4525L9.86148 10.9525C10.0258 11.3327 9.85074 11.7742 9.4705 11.9385C9.09027 12.1028 8.64883 11.9277 8.48453 11.5475L7.76815 9.88965H4.16546L3.47165 11.5406C3.31117 11.9224 2.87151 12.1019 2.48965 11.9414C2.10779 11.7809 1.92832 11.3413 2.0888 10.9594L5.24074 3.45942C5.35719 3.18233 5.62783 3.00152 5.9284 3.00001ZM4.79585 8.38965H7.11999L5.94176 5.66298L4.79585 8.38965ZM16.6687 3.4525C16.5495 3.17659 16.277 2.9985 15.9765 3.00001C15.6759 3.00152 15.4053 3.18233 15.2888 3.45942L9.19506 17.9594C9.03458 18.3413 9.21405 18.7809 9.59591 18.9414C9.97777 19.1019 10.4174 18.9224 10.5779 18.5406L12.0995 14.92H19.9802L19.9899 14.9199L21.5574 18.5475C21.7217 18.9277 22.1631 19.1028 22.5434 18.9385C22.9236 18.7742 23.0986 18.3327 22.9343 17.9525L16.6687 3.4525ZM19.3417 13.42L15.9898 5.66298L12.7299 13.42H19.3417Z" fill="black"/>
</svg>
