<svg width="24" height="24" viewBox="0 0 24 24" fill="none" xmlns="http://www.w3.org/2000/svg">
<path fill-rule="evenodd" clip-rule="evenodd" d="M9.99979 3.98737C10.1308 3.59442 9.9184 3.16968 9.52545 3.03869C9.13249 2.90771 8.70776 3.12008 8.57677 3.51303L7.08112 8H4.1655C3.55261 8 3.08393 8.5463 3.17713 9.15206L4.86943 20.1521C4.94449 20.6399 5.36423 21 5.85781 21H18.142C18.6355 21 19.0553 20.6399 19.1303 20.1521L20.8226 9.15206C20.9158 8.5463 20.4472 8 19.8343 8H16.9955L15.4998 3.51303C15.3688 3.12008 14.9441 2.90771 14.5511 3.03869C14.1582 3.16968 13.9458 3.59442 14.0768 3.98737L15.4143 8H8.66225L9.99979 3.98737ZM6.28677 19.5L4.7483 9.5H19.2515L17.713 19.5H6.28677ZM8.75 12.5C8.33579 12.5 8 12.8358 8 13.25C8 13.6642 8.33579 14 8.75 14H15.25C15.6642 14 16 13.6642 16 13.25C16 12.8358 15.6642 12.5 15.25 12.5H8.75ZM8 16.25C8 15.8358 8.33579 15.5 8.75 15.5H15.25C15.6642 15.5 16 15.8358 16 16.25C16 16.6642 15.6642 17 15.25 17H8.75C8.33579 17 8 16.6642 8 16.25Z" fill="black"/>
</svg>
