<svg width="24" height="24" viewBox="0 0 24 24" fill="none" xmlns="http://www.w3.org/2000/svg">
<path fill-rule="evenodd" clip-rule="evenodd" d="M12.8618 3.50008C12.3894 3.49376 12.001 3.87506 12.001 4.34934V11.1493C12.001 11.6188 12.3815 11.9993 12.851 11.9993H19.651C20.1174 11.9993 20.5074 11.6192 20.5001 11.1379C20.4424 7.34239 17.4187 3.56106 12.8618 3.50008ZM13.501 10.4993V5.04204C16.5352 5.39243 18.618 7.84801 18.9534 10.4993H13.501ZM9.49397 5.09369C9.88565 4.95895 10.094 4.5322 9.95921 4.14051C9.82447 3.74883 9.39772 3.54053 9.00603 3.67527C5.51222 4.87714 3 8.19244 3 12.0964C3 17.0137 6.98621 20.9999 11.9035 20.9999C15.8075 20.9999 19.1228 18.4877 20.3246 14.9939C20.4594 14.6022 20.2511 14.1754 19.8594 14.0407C19.4677 13.9059 19.0409 14.1142 18.9062 14.5059C17.9062 17.4128 15.1476 19.4999 11.9035 19.4999C7.81464 19.4999 4.5 16.1853 4.5 12.0964C4.5 8.85229 6.58706 6.09367 9.49397 5.09369Z" fill="black"/>
</svg>
