<svg width="24" height="24" viewBox="0 0 24 24" fill="none" xmlns="http://www.w3.org/2000/svg">
<path fill-rule="evenodd" clip-rule="evenodd" d="M8.05829 6.69577C8.0837 6.58138 8.18516 6.5 8.30233 6.5H15.698C15.8152 6.5 15.9166 6.58138 15.942 6.69577L16.5652 9.50001L7.43512 9.5L8.05829 6.69577ZM6.48544 11C6.49575 11.0002 6.50603 11.0002 6.51628 11L17.4846 11C17.4945 11.0002 17.5044 11.0002 17.5144 11L18.55 11C18.7985 11 19 11.2015 19 11.45V15.55C19 15.7985 18.7985 16 18.55 16L17.5048 16L17.5 16L17.4952 16L6.50143 16L6.5 16L6.49858 16L5.45 16C5.20147 16 5 15.7985 5 15.55V11.45C5 11.2015 5.20147 11 5.45 11L6.48544 11ZM5.89853 9.5L6.59401 6.37037C6.77194 5.56968 7.48211 5 8.30233 5H15.698C16.5182 5 17.2284 5.56968 17.4063 6.37037L18.1018 9.50001L18.55 9.50001C19.6269 9.50001 20.5 10.3731 20.5 11.45V15.55C20.5 16.627 19.6269 17.5 18.55 17.5H18.5V18C18.5 18.5523 18.0523 19 17.5 19C16.9477 19 16.5 18.5523 16.5 18V17.5L7.5 17.5V18C7.5 18.5523 7.05228 19 6.5 19C5.94772 19 5.5 18.5523 5.5 18V17.5H5.45C4.37304 17.5 3.5 16.627 3.5 15.55V11.45C3.5 10.373 4.37305 9.5 5.45 9.5L5.89853 9.5ZM3.25 7.5C2.83579 7.5 2.5 7.83579 2.5 8.25C2.5 8.66421 2.83579 9 3.25 9H4.25C4.66421 9 5 8.66421 5 8.25C5 7.83579 4.66421 7.5 4.25 7.5H3.25ZM7.25 13C6.83579 13 6.5 13.3358 6.5 13.75C6.5 14.1642 6.83579 14.5 7.25 14.5H9.25C9.66421 14.5 10 14.1642 10 13.75C10 13.3358 9.66421 13 9.25 13H7.25ZM14 13.75C14 13.3358 14.3358 13 14.75 13H16.75C17.1642 13 17.5 13.3358 17.5 13.75C17.5 14.1642 17.1642 14.5 16.75 14.5H14.75C14.3358 14.5 14 14.1642 14 13.75ZM19 8.25C19 7.83579 19.3358 7.5 19.75 7.5H20.75C21.1642 7.5 21.5 7.83579 21.5 8.25C21.5 8.66421 21.1642 9 20.75 9H19.75C19.3358 9 19 8.66421 19 8.25Z" fill="black"/>
</svg>
