<svg width="24" height="24" viewBox="0 0 24 24" fill="none" xmlns="http://www.w3.org/2000/svg">
<path fill-rule="evenodd" clip-rule="evenodd" d="M12.9322 3.86469L11.7768 4.53505C11.0047 4.98308 10.6442 5.86843 10.827 6.69593C10.0536 6.97314 9.49948 7.71373 9.50182 8.58464L9.50537 9.90767C9.50768 10.7701 10.0552 11.5025 10.8194 11.7816C10.7051 12.4512 10.94 13.1465 11.456 13.608L9.73588 16.1637C9.21082 14.8936 7.95978 13.9999 6.5 13.9999C5.75638 13.9999 5.06692 14.2318 4.5 14.6273V6.24992C4.5 5.8357 4.16421 5.49992 3.75 5.49992C3.33579 5.49992 3 5.8357 3 6.24992V17.4999C3 19.4329 4.567 20.9999 6.5 20.9999C7.8889 20.9999 9.08884 20.1909 9.65432 19.0184L12.7369 14.3945L12.9411 14.5119C13.696 14.9461 14.614 14.8325 15.2384 14.2987C15.8661 14.868 16.8137 14.9944 17.5858 14.5464L18.7411 13.876C19.5226 13.4226 19.8824 12.5211 19.6841 11.6851C20.452 11.4058 21.0004 10.6695 21.0004 9.80499V8.50748C21.0004 7.64971 20.4609 6.91954 19.7046 6.63492C19.8467 5.82979 19.4829 4.98514 18.7317 4.55307L17.5848 3.89341C16.827 3.45759 15.9048 3.57358 15.2801 4.11293C14.6524 3.54315 13.7045 3.41652 12.9322 3.86469ZM12.5296 5.83246C12.2908 5.97105 12.2095 6.27702 12.3481 6.51587L13.0047 7.6475C13.1218 7.84926 12.9739 8.10157 12.7407 8.09803L11.5094 8.07933C11.2298 8.07509 11.0011 8.30098 11.0018 8.58062L11.0054 9.90364C11.0061 10.172 11.2179 10.3899 11.4825 10.4018C11.4924 10.4022 11.5024 10.4024 11.5124 10.4023L12.7044 10.3853C12.9386 10.382 13.0861 10.6362 12.967 10.8379L12.3608 11.8643C12.3557 11.873 12.3509 11.8817 12.3463 11.8906C12.2253 12.1262 12.3094 12.4182 12.5421 12.552L13.6889 13.2116C13.9313 13.3511 14.2409 13.2646 14.376 13.0197L14.9708 11.9415C15.0835 11.7372 15.3759 11.734 15.493 11.9358L16.1496 13.0674C16.2882 13.3063 16.5942 13.3876 16.833 13.249L17.9883 12.5786C18.2272 12.44 18.3084 12.134 18.1699 11.8952L17.5086 10.7556C17.3925 10.5556 17.5368 10.305 17.7681 10.305H19.0004C19.2766 10.305 19.5004 10.0811 19.5004 9.80499V8.50748C19.5004 8.24362 19.2962 8.02805 19.0381 8.00887C19.0232 8.00776 19.0081 8.00731 18.9929 8.00754L17.8155 8.02524C17.5809 8.02876 17.4333 7.77385 17.553 7.57214L18.1645 6.54198C18.1689 6.53459 18.173 6.52714 18.177 6.51963C18.3016 6.28329 18.2181 5.98807 17.9838 5.85334L16.8369 5.19368C16.5949 5.05449 16.2858 5.14044 16.1504 5.38459L15.5475 6.47146C15.4346 6.67517 15.1426 6.67799 15.0257 6.47651L14.3684 5.34363C14.2298 5.10479 13.9238 5.02351 13.685 5.1621L12.5296 5.83246ZM6.5 19.4999C5.39543 19.4999 4.5 18.6045 4.5 17.4999C4.5 16.3953 5.39543 15.4999 6.5 15.4999C7.60457 15.4999 8.5 16.3953 8.5 17.4999C8.5 18.6045 7.60457 19.4999 6.5 19.4999Z" fill="black"/>
</svg>
