<svg width="24" height="24" viewBox="0 0 24 24" fill="none" xmlns="http://www.w3.org/2000/svg">
<path fill-rule="evenodd" clip-rule="evenodd" d="M9.57631 7.27975C10.6691 5.78807 12.7142 5.30079 14.3752 6.19291L16.5954 7.38536C17.0666 7.63846 17.3962 8.09317 17.4902 8.61976L18.6525 15.1362C18.7371 15.6105 18.6639 16.0994 18.444 16.5281L18.4213 16.5725C17.9188 17.5523 16.7889 17.9673 15.8063 17.6338C14.744 18.5018 13.2488 18.6341 12.0473 17.9808C10.6487 18.954 8.72811 18.8642 7.42221 17.6889L4.92847 15.4446C4.46293 15.0256 4.2568 14.3897 4.38798 13.7773L5.4434 8.84977C5.60601 8.09056 6.24944 7.52926 7.0237 7.47119L9.57631 7.27975ZM10.6571 8.36228C10.6404 8.39244 10.6214 8.42181 10.6002 8.45017L9.52845 9.87914C9.27193 10.2212 9.34716 10.7073 9.69505 10.9558C10.0051 11.1772 10.4311 11.1355 10.6923 10.858L12.1008 9.36144C12.5841 8.84792 13.3963 8.83562 13.8949 9.33427L16.5713 12.0107L16.0135 8.88316C16.0001 8.80794 15.953 8.74298 15.8856 8.70682L13.6655 7.51437C12.6082 6.94651 11.2884 7.31077 10.67 8.34149C10.6658 8.3485 10.6615 8.35543 10.6571 8.36228ZM17.0305 14.585C17.0096 14.5681 16.9893 14.55 16.9698 14.5305L13.0165 10.5771L11.7846 11.8861C11.0091 12.71 9.74395 12.8341 8.82319 12.1764C7.79007 11.4384 7.56669 9.99482 8.32845 8.97914L8.40918 8.8715L7.13589 8.96699C7.02528 8.97529 6.93336 9.05547 6.91013 9.16393L5.85471 14.0914C5.83597 14.1789 5.86541 14.2698 5.93192 14.3296L8.42565 16.574C9.11126 17.191 10.0802 17.3077 10.8725 16.9333L9.46967 15.5305C9.17678 15.2376 9.17678 14.7627 9.46967 14.4698C9.76256 14.1769 10.2374 14.1769 10.5303 14.4698L12.6668 16.6063C13.2601 16.9761 14.0024 16.9821 14.5916 16.6524L12.9697 15.0305C12.6768 14.7376 12.6768 14.2627 12.9697 13.9698C13.2626 13.6769 13.7374 13.6769 14.0303 13.9698L16.2647 16.2042C16.5701 16.3206 16.9291 16.195 17.0865 15.888L17.1093 15.8436C17.1794 15.7069 17.2028 15.5509 17.1758 15.3996L17.0305 14.585Z" fill="black"/>
<path d="M4.23558 7.64723C4.31681 7.24106 4.0534 6.84594 3.64723 6.76471C3.24106 6.68348 2.84594 6.94689 2.76471 7.35306L1.76471 12.3531C1.68348 12.7592 1.94689 13.1543 2.35306 13.2356C2.75923 13.3168 3.15435 13.0534 3.23558 12.6472L4.23558 7.64723Z" fill="black"/>
<path d="M18.7665 8.1573C18.6797 7.75228 18.9377 7.35359 19.3427 7.2668C19.7477 7.18001 20.1464 7.43799 20.2332 7.84301L21.7332 14.843C21.82 15.248 21.562 15.6467 21.157 15.7335C20.752 15.8203 20.3533 15.5623 20.2665 15.1573L18.7665 8.1573Z" fill="black"/>
</svg>
