<svg width="24" height="24" viewBox="0 0 24 24" fill="none" xmlns="http://www.w3.org/2000/svg">
<path fill-rule="evenodd" clip-rule="evenodd" d="M6.5498 5.30005C6.5498 4.60969 7.10945 4.05005 7.7998 4.05005H16.3893C16.4515 4.05005 16.5114 4.07323 16.5575 4.11506L20.4158 7.62265C20.4679 7.67003 20.4976 7.7372 20.4976 7.80764V11.8696C20.4976 12.56 19.938 13.1196 19.2476 13.1196H7.7998C7.10945 13.1196 6.5498 12.56 6.5498 11.8696V5.30005ZM7.7998 2.55005C6.28102 2.55005 5.0498 3.78126 5.0498 5.30005V6.00232H4.29981C3.05717 6.00232 2.0498 7.00968 2.0498 8.25232V15.8219C2.0498 17.0645 3.05716 18.0719 4.2998 18.0719H16.7476C17.9903 18.0719 18.9976 17.0645 18.9976 15.8219V14.6196H19.2476C20.7664 14.6196 21.9976 13.3884 21.9976 11.8696V7.80764C21.9976 7.31458 21.7896 6.84441 21.4248 6.51274L17.5665 3.00515C17.2443 2.71231 16.8246 2.55005 16.3893 2.55005H7.7998ZM17.4976 14.6196H7.7998C6.28102 14.6196 5.0498 13.3884 5.0498 11.8696V7.50232H4.29981C3.88559 7.50232 3.5498 7.83811 3.5498 8.25232V15.8219C3.5498 16.2361 3.88559 16.5719 4.2998 16.5719H16.7476C17.1619 16.5719 17.4976 16.2361 17.4976 15.8219V14.6196ZM8.23895 7.30231H13.9303V5.80231H8.23895V7.30231ZM13.9303 10.5543H8.23895V9.05432H13.9303V10.5543Z" fill="black"/>
</svg>
