<svg width="24" height="24" viewBox="0 0 24 24" fill="none" xmlns="http://www.w3.org/2000/svg">
<path fill-rule="evenodd" clip-rule="evenodd" d="M17.3019 5.42938C17.6827 5.06863 18.2815 5.07673 18.6524 5.44762C19.0523 5.84754 19.0257 6.50364 18.5948 6.86993L11.4197 12.9687C10.9235 13.3904 10.1867 13.3606 9.72626 12.9001L9.57531 12.7492L17.3019 5.42938ZM19.713 4.38697C18.7675 3.44146 17.241 3.42084 16.2702 4.34046L7.98366 12.1908L2.56189 17.1607C1.85059 17.8127 2.32142 18.9781 3.2624 18.9899C3.47382 18.9926 3.67991 18.9963 3.88109 19C5.95266 19.0376 7.50325 19.0658 8.98577 17.8063C9.86647 17.058 10.3298 16.156 10.4868 15.3353C10.5238 15.1419 10.5442 14.9508 10.5484 14.7655C11.2006 14.7802 11.8589 14.564 12.3912 14.1116L19.5663 8.01282C20.6648 7.07906 20.7325 5.40647 19.713 4.38697ZM8.47765 13.7728L8.6656 13.9608C8.73311 14.0283 8.80331 14.0916 8.87588 14.1507C8.90286 14.1911 8.93418 14.2294 8.96984 14.2651L8.96582 14.2612L8.96715 14.2636C8.97402 14.2752 9.00581 14.3288 9.02844 14.4505C9.05629 14.6002 9.06055 14.8077 9.01354 15.0534C8.92058 15.5391 8.63387 16.137 8.01457 16.6631C7.0848 17.453 6.21308 17.5223 4.40626 17.5049L8.47765 13.7728ZM12.5 18.25C12.5 17.8358 12.8358 17.5 13.25 17.5H15.25C15.6642 17.5 16 17.8358 16 18.25C16 18.6642 15.6642 19 15.25 19H13.25C12.8358 19 12.5 18.6642 12.5 18.25ZM18.25 17.5C17.8358 17.5 17.5 17.8358 17.5 18.25C17.5 18.6642 17.8358 19 18.25 19H20.25C20.6642 19 21 18.6642 21 18.25C21 17.8358 20.6642 17.5 20.25 17.5H18.25Z" fill="black"/>
</svg>
