<svg width="24" height="24" viewBox="0 0 24 24" fill="none" xmlns="http://www.w3.org/2000/svg">
<path fill-rule="evenodd" clip-rule="evenodd" d="M13.7213 7.43453L17.0347 4.12117L20.348 7.43453L17.0347 10.7479L13.7213 7.43453ZM16.3276 2.70696C16.7181 2.31643 17.3513 2.31643 17.7418 2.70696L21.7623 6.72742C22.1528 7.11795 22.1528 7.75111 21.7623 8.14164L17.7418 12.1621C17.3513 12.5526 16.7181 12.5526 16.3276 12.1621L12.3071 8.14164C11.9166 7.75111 11.9166 7.11795 12.3071 6.72742L16.3276 2.70696ZM14.5483 19.4998V14.527H19.5211V19.4998H14.5483ZM13.0483 14.027C13.0483 13.4747 13.496 13.027 14.0483 13.027H20.0211C20.5734 13.027 21.0211 13.4747 21.0211 14.027V19.9998C21.0211 20.5521 20.5734 20.9998 20.0211 20.9998H14.0483C13.496 20.9998 13.0483 20.5521 13.0483 19.9998V14.027ZM5 14.527V19.4998H9.97282V14.527H5ZM4.5 13.027C3.94772 13.027 3.5 13.4747 3.5 14.027V19.9998C3.5 20.5521 3.94771 20.9998 4.5 20.9998H10.4728C11.0251 20.9998 11.4728 20.5521 11.4728 19.9998V14.027C11.4728 13.4747 11.0251 13.027 10.4728 13.027H4.5ZM5 9.93245V4.95963H9.97282V9.93245H5ZM3.5 4.45963C3.5 3.90734 3.94772 3.45963 4.5 3.45963H10.4728C11.0251 3.45963 11.4728 3.90734 11.4728 4.45963V10.4324C11.4728 10.9847 11.0251 11.4324 10.4728 11.4324H4.5C3.94771 11.4324 3.5 10.9847 3.5 10.4324V4.45963Z" fill="black"/>
</svg>
