<svg width="24" height="24" viewBox="0 0 24 24" fill="none" xmlns="http://www.w3.org/2000/svg">
<path fill-rule="evenodd" clip-rule="evenodd" d="M14.1786 1.54114C14.5804 1.64165 14.8247 2.04887 14.7242 2.45071L14.3402 3.98593C18.9106 5.31578 21.18 10.0809 20.2755 14.7342C20.2376 14.9295 20.1236 15.1017 19.9587 15.2129C19.7938 15.3241 19.5914 15.3653 19.3961 15.3273L12.4095 13.9687L11.0239 20.0502H19.3945C19.8087 20.0502 20.1445 20.386 20.1445 20.8002C20.1445 21.2144 19.8087 21.5502 19.3945 21.5502H3.2002C2.78598 21.5502 2.4502 21.2144 2.4502 20.8002C2.4502 20.386 2.78598 20.0502 3.2002 20.0502H9.48545L10.9363 13.6823L3.65374 12.2662C3.24716 12.1871 2.98165 11.7934 3.06068 11.3868C3.97603 6.67779 8.08679 3.14616 12.8679 3.69049L13.269 2.08676C13.3695 1.68492 13.7767 1.44064 14.1786 1.54114ZM4.70728 10.9429L18.9169 13.706C19.3677 9.70081 17.1382 6.02082 13.2717 5.26926C9.38744 4.51423 5.80322 7.08204 4.70728 10.9429ZM12.8997 6.18458C12.4978 6.08411 12.0906 6.32843 11.9902 6.73028C11.8897 7.13213 12.134 7.53933 12.5359 7.63979C14.1426 8.04149 15.4674 9.71601 15.916 11.5107C16.0165 11.9126 16.4237 12.1569 16.8256 12.0564C17.2274 11.956 17.4717 11.5488 17.3713 11.1469C16.8385 9.01572 15.2188 6.76435 12.8997 6.18458Z" fill="black"/>
</svg>
