<svg width="24" height="24" viewBox="0 0 24 24" fill="none" xmlns="http://www.w3.org/2000/svg">
<path fill-rule="evenodd" clip-rule="evenodd" d="M2.58979 5.39457C2.78617 5.02987 3.24102 4.89341 3.60572 5.08979L9.57982 8.30662C10.1467 8.61184 10.5001 9.20365 10.5001 9.84744V11.5H12V6.34999C12 5.88055 12.3806 5.49999 12.85 5.49999H16.7879C17.1311 5.49999 17.4406 5.70632 17.5725 6.02307L19.9549 11.5H20.25C20.9404 11.5 21.5 12.0596 21.5 12.75V15.75C21.5 16.4403 20.9404 17 20.25 17H19.5C19.5 18.5188 18.2688 19.75 16.75 19.75C15.2312 19.75 14 18.5188 14 17H10C10 18.5188 8.76881 19.75 7.25002 19.75C5.73124 19.75 4.50002 18.5188 4.50002 17H3.35002C2.88058 17 2.50002 16.6194 2.50002 16.15V12.35C2.50002 11.8805 2.88058 11.5 3.35002 11.5H9.00015V9.84744C9.00015 9.75547 8.94965 9.67092 8.86867 9.62732L2.89457 6.4105C2.52987 6.21412 2.39341 5.75927 2.58979 5.39457ZM18.3182 11.5L16.3546 6.99999H13.5V11.5H18.3182ZM20 15.5H19.0553C18.5646 14.7474 17.7154 14.25 16.75 14.25C15.7846 14.25 14.9354 14.7474 14.4448 15.5H9.55529C9.06461 14.7474 8.21541 14.25 7.25002 14.25C6.28463 14.25 5.43543 14.7474 4.94476 15.5H4.00002V13H20V15.5ZM6.00002 17C6.00002 17.6903 6.55967 18.25 7.25002 18.25C7.94038 18.25 8.50002 17.6903 8.50002 17C8.50002 16.3096 7.94038 15.75 7.25002 15.75C6.55967 15.75 6.00002 16.3096 6.00002 17ZM16.75 15.75C16.0597 15.75 15.5 16.3096 15.5 17C15.5 17.6903 16.0597 18.25 16.75 18.25C17.4404 18.25 18 17.6903 18 17C18 16.3096 17.4404 15.75 16.75 15.75Z" fill="black"/>
</svg>
