<svg width="24" height="24" viewBox="0 0 24 24" fill="none" xmlns="http://www.w3.org/2000/svg">
<path fill-rule="evenodd" clip-rule="evenodd" d="M19.8949 12C20.4865 12 20.9488 11.4892 20.89 10.9005L20.09 2.9005C20.0388 2.38929 19.6087 2 19.0949 2H15.9049C15.3911 2 14.961 2.38929 14.9099 2.9005L14.1099 10.9005C14.051 11.4892 14.5133 12 15.1049 12H16.75V16.75C16.75 17.1642 17.0858 17.5 17.5 17.5C17.9142 17.5 18.25 17.1642 18.25 16.75V12H19.8949ZM19.3424 10.5L18.6424 3.5L16.3574 3.5L15.6574 10.5H19.3424Z" fill="black"/>
<path d="M18.9027 20.6061C19.1855 21.2659 18.7015 22 17.9835 22H17.0166C16.2987 22 15.8147 21.2659 16.0975 20.6061L16.8031 18.9596C16.9226 18.6808 17.1968 18.5 17.5001 18.5C17.8034 18.5 18.0776 18.6808 18.197 18.9596L18.9027 20.6061Z" fill="black"/>
<path fill-rule="evenodd" clip-rule="evenodd" d="M5.12915 12.0387C4.07886 12.0387 3.26514 12.9574 3.39195 14L4.14865 20.4838C4.25548 21.3621 5.00107 22.0225 5.88585 22.0225H11.1144C11.9991 22.0225 12.7447 21.3621 12.8516 20.4838L13.6084 14C13.7352 12.9574 12.9214 12.0387 11.8712 12.0387H11.5L11.5 7.25C11.5 6.55965 10.9404 6 10.25 6H6.75C6.05964 6 5.5 6.55964 5.5 7.25L5.5 12.0387H5.12915ZM4.88098 13.8189C4.86286 13.6699 4.97911 13.5387 5.12915 13.5387H11.8712C12.0212 13.5387 12.1374 13.6699 12.1193 13.8189L11.3625 20.3027C11.3473 20.4282 11.2408 20.5225 11.1144 20.5225H5.88585C5.75945 20.5225 5.65294 20.4282 5.63768 20.3027L4.88098 13.8189ZM7 12L7 7.5H10L10 12H7Z" fill="black"/>
</svg>
