<svg width="24" height="24" viewBox="0 0 24 24" fill="none" xmlns="http://www.w3.org/2000/svg">
<path fill-rule="evenodd" clip-rule="evenodd" d="M7.3335 2.5835C6.11392 2.5835 4.97379 2.88406 4.11398 3.4095C3.26705 3.92707 2.5835 4.74278 2.5835 5.77794V8.22239C2.5835 9.25755 3.26705 10.0733 4.11398 10.5908C4.97379 11.1163 6.11392 11.4168 7.3335 11.4168C8.55307 11.4168 9.69321 11.1163 10.553 10.5908C11.3999 10.0733 12.0835 9.25755 12.0835 8.22239V5.77794C12.0835 4.74278 11.3999 3.92707 10.553 3.4095C9.69321 2.88406 8.55307 2.5835 7.3335 2.5835ZM4.0835 5.77794C4.0835 5.46307 4.29538 5.05656 4.89616 4.68942C5.48407 4.33014 6.34393 4.0835 7.3335 4.0835C8.32306 4.0835 9.18292 4.33014 9.77084 4.68942C10.3716 5.05656 10.5835 5.46307 10.5835 5.77794V6.47952C10.4307 6.68946 10.2054 6.89389 9.9012 7.07979C9.26797 7.46676 8.3614 7.72239 7.3335 7.72239C7.13985 7.72239 6.95001 7.7133 6.76508 7.69586C6.49016 7.66991 6.24627 7.87175 6.22032 8.14667C6.19438 8.42159 6.39622 8.66549 6.67114 8.69143C6.88741 8.71184 7.1086 8.72239 7.3335 8.72239C8.51474 8.72239 9.60816 8.43082 10.4226 7.93307C10.4772 7.89972 10.5309 7.86519 10.5835 7.82953V8.22239C10.5835 8.53725 10.3716 8.94376 9.77083 9.31091C9.18292 9.67019 8.32306 9.91684 7.3335 9.91684C6.34394 9.91684 5.48407 9.67019 4.89616 9.31091C4.29537 8.94376 4.0835 8.53725 4.0835 8.22239V7.82944C4.15747 7.87961 4.23353 7.92755 4.31133 7.97317C4.54953 8.11287 4.85587 8.03301 4.99557 7.79481C5.13526 7.55661 5.05541 7.25026 4.8172 7.11057C4.48709 6.91697 4.24494 6.70135 4.0835 6.47944V5.77794Z" fill="black"/>
<path fill-rule="evenodd" clip-rule="evenodd" d="M4.11398 13.4095C4.97379 12.8841 6.11392 12.5835 7.3335 12.5835C8.55307 12.5835 9.69321 12.8841 10.553 13.4095C11.3999 13.9271 12.0835 14.7428 12.0835 15.7779V18.2224C12.0835 19.2575 11.3999 20.0732 10.553 20.5908C9.69321 21.1163 8.55307 21.4168 7.3335 21.4168C6.11392 21.4168 4.97379 21.1163 4.11398 20.5908C3.26705 20.0732 2.5835 19.2575 2.5835 18.2224V15.7779C2.5835 14.7428 3.26705 13.9271 4.11398 13.4095ZM4.89616 14.6894C4.29537 15.0566 4.0835 15.4631 4.0835 15.7779V16.4794C4.24494 16.7013 4.48709 16.917 4.8172 17.1106C5.05541 17.2503 5.13526 17.5566 4.99557 17.7948C4.85587 18.033 4.54953 18.1129 4.31133 17.9732C4.23353 17.9275 4.15747 17.8796 4.0835 17.8294V18.2224C4.0835 18.5372 4.29537 18.9438 4.89616 19.3109C5.48407 19.6702 6.34394 19.9168 7.3335 19.9168C8.32306 19.9168 9.18292 19.6702 9.77083 19.3109C10.3716 18.9438 10.5835 18.5372 10.5835 18.2224V17.8295C10.5309 17.8652 10.4772 17.8997 10.4226 17.9331C9.60816 18.4308 8.51474 18.7224 7.3335 18.7224C7.1086 18.7224 6.88741 18.7118 6.67114 18.6914C6.39622 18.6655 6.19438 18.4216 6.22032 18.1467C6.24627 17.8717 6.49016 17.6699 6.76508 17.6958C6.95001 17.7133 7.13985 17.7224 7.3335 17.7224C8.3614 17.7224 9.26797 17.4668 9.9012 17.0798C10.2054 16.8939 10.4307 16.6895 10.5835 16.4795V15.7779C10.5835 15.4631 10.3716 15.0566 9.77084 14.6894C9.18293 14.3301 8.32306 14.0835 7.3335 14.0835C6.34393 14.0835 5.48407 14.3301 4.89616 14.6894Z" fill="black"/>
<path fill-rule="evenodd" clip-rule="evenodd" d="M14.114 8.74275C14.9738 8.21731 16.1139 7.91675 17.3335 7.91675C18.5531 7.91675 19.6932 8.21731 20.553 8.74275C21.3999 9.26032 22.0835 10.076 22.0835 11.1112V13.5556C22.0835 14.5908 21.3999 15.4065 20.553 15.9241C19.6932 16.4495 18.5531 16.7501 17.3335 16.7501C16.1139 16.7501 14.9738 16.4495 14.114 15.9241C13.2671 15.4065 12.5835 14.5908 12.5835 13.5556V11.1112C12.5835 10.076 13.267 9.26032 14.114 8.74275ZM14.8962 10.0227C14.2954 10.3898 14.0835 10.7963 14.0835 11.1112V11.8127C14.2449 12.0346 14.4871 12.2502 14.8172 12.4438C15.0554 12.5835 15.1353 12.8899 14.9956 13.1281C14.8559 13.3663 14.5495 13.4461 14.3113 13.3064C14.2335 13.2608 14.1575 13.2129 14.0835 13.1627V13.5556C14.0835 13.8705 14.2954 14.277 14.8962 14.6442C15.4841 15.0034 16.3439 15.2501 17.3335 15.2501C18.3231 15.2501 19.1829 15.0034 19.7708 14.6442C20.3716 14.277 20.5835 13.8705 20.5835 13.5556V13.1628C20.5309 13.1984 20.4772 13.233 20.4226 13.2663C19.6082 13.7641 18.5147 14.0556 17.3335 14.0556C17.1086 14.0556 16.8874 14.0451 16.6711 14.0247C16.3962 13.9987 16.1944 13.7548 16.2203 13.4799C16.2463 13.205 16.4902 13.0032 16.7651 13.0291C16.95 13.0465 17.1398 13.0556 17.3335 13.0556C18.3614 13.0556 19.268 12.8 19.9012 12.413C20.2054 12.2271 20.4307 12.0227 20.5835 11.8128V11.1112C20.5835 10.7963 20.3716 10.3898 19.7708 10.0227C19.1829 9.66339 18.3231 9.41675 17.3335 9.41675C16.3439 9.41675 15.4841 9.66339 14.8962 10.0227Z" fill="black"/>
</svg>
