<svg width="24" height="24" viewBox="0 0 24 24" fill="none" xmlns="http://www.w3.org/2000/svg">
<path fill-rule="evenodd" clip-rule="evenodd" d="M8.29939 4.05005C8.19716 4.05005 8.10523 4.11229 8.06727 4.2072L6.8354 7.28687H16.9356L15.7038 4.2072C15.6658 4.11229 15.5739 4.05005 15.4716 4.05005H8.29939ZM18.5512 7.28687L17.0965 3.65012C16.8307 2.98571 16.1872 2.55005 15.4716 2.55005H8.29939C7.5838 2.55005 6.94031 2.98571 6.67455 3.65012L5.21985 7.28687H5.2002C4.78598 7.28687 4.4502 7.62265 4.4502 8.03687C4.4502 8.45108 4.78598 8.78687 5.2002 8.78687H5.70906C5.7213 8.78717 5.73352 8.78717 5.74571 8.78687H18.0253C18.0375 8.78717 18.0497 8.78717 18.062 8.78687H18.7502C19.1644 8.78687 19.5002 8.45108 19.5002 8.03687C19.5002 7.62265 19.1644 7.28687 18.7502 7.28687H18.5512ZM6.09993 10.1359C6.51034 10.0799 6.88842 10.3672 6.94438 10.7777L8.2475 20.3338C8.26439 20.4577 8.37019 20.55 8.4952 20.55H15.2757C15.4008 20.55 15.5066 20.4577 15.5234 20.3338L16.8266 10.7777C16.8825 10.3672 17.2606 10.0799 17.671 10.1359C18.0814 10.1918 18.3688 10.5699 18.3128 10.9803L17.0097 20.5365C16.8915 21.4036 16.1509 22.05 15.2757 22.05H8.4952C7.62008 22.05 6.87949 21.4036 6.76125 20.5365L5.45814 10.9803C5.40217 10.5699 5.68951 10.1918 6.09993 10.1359Z" fill="black"/>
</svg>
