<svg width="24" height="24" viewBox="0 0 24 24" fill="none" xmlns="http://www.w3.org/2000/svg">
<path d="M8 7.5H20C20.2761 7.5 20.5 7.72386 20.5 8V17C20.5 17.2761 20.2761 17.5 20 17.5H8C7.72386 17.5 7.5 17.2761 7.5 17V16.5H8.25C8.66421 16.5 9 16.1642 9 15.75C9 15.3358 8.66421 15 8.25 15H3.75C3.33579 15 3 15.3358 3 15.75C3 16.1642 3.33579 16.5 3.75 16.5H6V17C6 18.1046 6.89543 19 8 19H20C21.1046 19 22 18.1046 22 17V8C22 6.89543 21.1046 6 20 6H8C6.89543 6 6 6.89543 6 8V9H7.5V8C7.5 7.72386 7.72386 7.5 8 7.5Z" fill="black"/>
<path d="M6 13.5V12H2.75C2.33579 12 2 11.6642 2 11.25C2 10.8358 2.33579 10.5 2.75 10.5H9.25C9.66421 10.5 10 10.8358 10 11.25C10 11.6642 9.66421 12 9.25 12H7.5V13.5H6Z" fill="black"/>
<path d="M15.75 9C15.3358 9 15 9.33579 15 9.75C15 10.1642 15.3358 10.5 15.75 10.5H18.25C18.6642 10.5 19 10.1642 19 9.75C19 9.33579 18.6642 9 18.25 9H15.75Z" fill="black"/>
</svg>
