<svg width="24" height="24" viewBox="0 0 24 24" fill="none" xmlns="http://www.w3.org/2000/svg">
<path fill-rule="evenodd" clip-rule="evenodd" d="M3 4.25C3 3.55964 3.55964 3 4.25 3H7.75C8.16421 3 8.5 3.33579 8.5 3.75C8.5 4.16421 8.16421 4.5 7.75 4.5H4.5V7.75C4.5 8.16421 4.16421 8.5 3.75 8.5C3.33579 8.5 3 8.16421 3 7.75V4.25ZM9 8.75C9 8.33579 8.66421 8 8.25 8C7.83579 8 7.5 8.33579 7.5 8.75V9.75C7.5 10.1642 7.83579 10.5 8.25 10.5C8.66421 10.5 9 10.1642 9 9.75V8.75ZM17 8.75C17 8.33579 16.6642 8 16.25 8C15.8358 8 15.5 8.33579 15.5 8.75V9.75C15.5 10.1642 15.8358 10.5 16.25 10.5C16.6642 10.5 17 10.1642 17 9.75V8.75ZM12.75 9C13.1642 9 13.5 9.33579 13.5 9.75V12.45C13.5 13.0299 13.0299 13.5 12.45 13.5H11.25C10.8358 13.5 10.5 13.1642 10.5 12.75C10.5 12.3358 10.8358 12 11.25 12H12V9.75C12 9.33579 12.3358 9 12.75 9ZM10.2972 15.237C10.0139 14.9349 9.53923 14.9196 9.23705 15.2028C8.93486 15.4861 8.91955 15.9608 9.20285 16.263C9.99726 17.1103 11.1494 17.5 12.25 17.5C13.3506 17.5 14.5027 17.1103 15.2972 16.263C15.5805 15.9608 15.5651 15.4861 15.263 15.2028C14.9608 14.9196 14.4861 14.9349 14.2028 15.237C13.7473 15.723 13.0244 16 12.25 16C11.4756 16 10.7527 15.723 10.2972 15.237ZM4.25 21C3.55964 21 3 20.4404 3 19.75V16.25C3 15.8358 3.33579 15.5 3.75 15.5C4.16421 15.5 4.5 15.8358 4.5 16.25V19.5H7.75C8.16421 19.5 8.5 19.8358 8.5 20.25C8.5 20.6642 8.16421 21 7.75 21H4.25ZM21 4.25C21 3.55964 20.4404 3 19.75 3H16.25C15.8358 3 15.5 3.33579 15.5 3.75C15.5 4.16421 15.8358 4.5 16.25 4.5H19.5V7.75C19.5 8.16421 19.8358 8.5 20.25 8.5C20.6642 8.5 21 8.16421 21 7.75V4.25ZM19.75 21C20.4404 21 21 20.4404 21 19.75V16.25C21 15.8358 20.6642 15.5 20.25 15.5C19.8358 15.5 19.5 15.8358 19.5 16.25V19.5H16.25C15.8358 19.5 15.5 19.8358 15.5 20.25C15.5 20.6642 15.8358 21 16.25 21H19.75Z" fill="black"/>
</svg>
