<svg width="24" height="24" viewBox="0 0 24 24" fill="none" xmlns="http://www.w3.org/2000/svg">
<path fill-rule="evenodd" clip-rule="evenodd" d="M7.5 6.5V11.5H16.5V6.5H7.5ZM7 5C6.44772 5 6 5.44772 6 6V12C6 12.5523 6.44772 13 7 13H11.5V15.25C11.5 15.9404 10.9404 16.5 10.25 16.5H4.5V15H3V19.5H4.5V18H10.25C11.7688 18 13 16.7688 13 15.25V13H17C17.5523 13 18 12.5523 18 12V6C18 5.44772 17.5523 5 17 5H7ZM19.75 6.5C20.1642 6.5 20.5 6.83579 20.5 7.25V10.75C20.5 11.1642 20.1642 11.5 19.75 11.5C19.3358 11.5 19 11.1642 19 10.75V7.25C19 6.83579 19.3358 6.5 19.75 6.5ZM9.75 8C9.33579 8 9 8.33579 9 8.75C9 9.16421 9.33579 9.5 9.75 9.5H11.75C12.1642 9.5 12.5 9.16421 12.5 8.75C12.5 8.33579 12.1642 8 11.75 8H9.75Z" fill="black"/>
</svg>
