<svg width="24" height="24" viewBox="0 0 24 24" fill="none" xmlns="http://www.w3.org/2000/svg">
<path fill-rule="evenodd" clip-rule="evenodd" d="M4.5 17.5V7.5H19.5V17.5H4.5ZM3 7C3 6.44772 3.44772 6 4 6H20C20.5523 6 21 6.44772 21 7V18C21 18.5523 20.5523 19 20 19H4C3.44772 19 3 18.5523 3 18V7ZM8.5 9C7.39543 9 6.5 9.89543 6.5 11V11.5C6.5 12.6046 7.39543 13.5 8.5 13.5C9.60457 13.5 10.5 12.6046 10.5 11.5V11C10.5 9.89543 9.60457 9 8.5 9ZM7.5 11C7.5 10.4477 7.94772 10 8.5 10C9.05228 10 9.5 10.4477 9.5 11V11.5C9.5 12.0523 9.05228 12.5 8.5 12.5C7.94772 12.5 7.5 12.0523 7.5 11.5V11ZM6 15.5C6 14.6716 6.67157 14 7.5 14H9.5C10.3284 14 11 14.6716 11 15.5H6ZM12.5 12.5H18V11H12.5V12.5ZM12.5 15.5H16.5V14H12.5V15.5Z" fill="black"/>
</svg>
