<svg width="24" height="24" viewBox="0 0 24 24" fill="none" xmlns="http://www.w3.org/2000/svg">
<path fill-rule="evenodd" clip-rule="evenodd" d="M15.6979 20.5H18.5858C20.1953 20.5 21.5 19.1953 21.5 17.5858C21.5 16.8129 21.193 16.0717 20.6465 15.5252L17.6465 12.5252C17.5527 12.4314 17.5 12.3042 17.5 12.1716V7.50005C17.5 6.11934 16.3807 5.00005 15 5.00005H14.1754C13.7213 5.00005 13.2807 5.15461 12.926 5.43831L11.8947 6.26334C11.6495 6.45956 11.3044 6.46844 11.0497 6.28701L11.0561 6.18797C11.2035 3.92573 8.3714 2.79488 6.92008 4.53646L6.821 4.65536L4.02901 7.77671C3.12797 8.78404 3.19063 10.3251 4.17047 11.2559L12.5985 19.2625C13.4348 20.0571 14.5443 20.5 15.6979 20.5ZM5.14701 8.77675L7.95652 5.63581L8.07241 5.49674C8.59415 4.87065 9.61228 5.27719 9.55929 6.09045L9.55169 6.20721C9.51946 6.70185 9.73909 7.17934 10.1356 7.47676C10.9388 8.07914 12.0478 8.06182 12.8318 7.43464L13.8631 6.60961C13.9517 6.53869 14.0619 6.50005 14.1754 6.50005H15C15.5523 6.50005 16 6.94776 16 7.50005V8.58331H14.2083C13.8171 8.58331 13.5 8.90045 13.5 9.29165C13.5 9.68286 13.8171 10 14.2083 10H16V11.0001H14.2083C13.8171 11.0001 13.5 11.3172 13.5 11.7084C13.5 12.0996 13.8171 12.4167 14.2083 12.4167H16.0151C16.0694 12.8568 16.269 13.269 16.5858 13.5858L19.5858 16.5858C19.851 16.851 20 17.2108 20 17.5858C20 18.3669 19.3669 19 18.5858 19H15.6979C14.9288 19 14.1892 18.7047 13.6316 18.175L5.2036 10.1684C4.81166 9.79609 4.7866 9.17968 5.14701 8.77675Z" fill="black"/>
<path d="M2.0166 14.227C2.0166 13.8358 2.33374 13.5186 2.72494 13.5186H4.30966C4.70087 13.5186 5.01801 13.8358 5.01801 14.227C5.01801 14.6182 4.70087 14.9353 4.30966 14.9353H2.72494C2.33374 14.9353 2.0166 14.6182 2.0166 14.227Z" fill="black"/>
<path d="M2.72494 16.3067C2.33374 16.3067 2.0166 16.6238 2.0166 17.015C2.0166 17.4062 2.33374 17.7234 2.72494 17.7234H6.88663C7.27784 17.7234 7.59497 17.4062 7.59497 17.015C7.59497 16.6238 7.27784 16.3067 6.88663 16.3067H2.72494Z" fill="black"/>
<path d="M2.72494 19.0948C2.33374 19.0948 2.0166 19.4119 2.0166 19.8031C2.0166 20.1943 2.33374 20.5115 2.72494 20.5115H10.3067C10.6979 20.5115 11.015 20.1943 11.015 19.8031C11.015 19.4119 10.6979 19.0948 10.3067 19.0948H2.72494Z" fill="black"/>
</svg>
