<svg width="24" height="24" viewBox="0 0 24 24" fill="none" xmlns="http://www.w3.org/2000/svg">
<path fill-rule="evenodd" clip-rule="evenodd" d="M10.5451 12.5281C10.4119 12.5328 10.2692 12.5398 10.1169 12.5492V17.4438C10.3976 17.4625 10.657 17.4766 10.8949 17.486C11.1376 17.4953 11.4136 17.5 11.7229 17.5C12.627 17.5 13.2837 17.287 13.6929 16.861C14.1069 16.4349 14.3139 15.7748 14.3139 14.8806C14.3139 14.4967 14.2735 14.1573 14.1926 13.8624C14.1164 13.5674 13.9832 13.3193 13.7929 13.118C13.6025 12.9167 13.3479 12.7645 13.0291 12.6615C12.7103 12.5538 12.3129 12.5 11.8371 12.5C11.661 12.5 11.5016 12.5023 11.3589 12.507C11.2161 12.507 11.0781 12.5094 10.9449 12.514C10.8116 12.514 10.6784 12.5187 10.5451 12.5281ZM11.5302 16.4958C11.4588 16.4911 11.3779 16.4841 11.2875 16.4747V13.5253C11.3874 13.5159 11.4802 13.5089 11.5659 13.5042C11.6515 13.4995 11.7491 13.4972 11.8585 13.4972C12.3106 13.4972 12.6318 13.6119 12.8221 13.8413C13.0125 14.066 13.1076 14.4335 13.1076 14.9438C13.1076 15.4963 13.0029 15.8942 12.7936 16.1376C12.5842 16.3811 12.2463 16.5028 11.78 16.5028C11.6848 16.5028 11.6015 16.5005 11.5302 16.4958Z" fill="black"/>
<path fill-rule="evenodd" clip-rule="evenodd" d="M5.92113 12.5421C5.79741 12.5468 5.65703 12.5515 5.5 12.5561V17.4578H6.6706V16.2008C6.76577 16.2102 6.85143 16.2172 6.92756 16.2219H7.18453C7.98872 16.2219 8.5764 16.0674 8.94757 15.7584C9.31873 15.4447 9.50432 14.9578 9.50432 14.2977C9.50432 13.9747 9.46387 13.7008 9.38297 13.4761C9.30208 13.2467 9.16884 13.0618 8.98326 12.9213C8.80243 12.7762 8.5645 12.6708 8.26947 12.6053C7.9792 12.5397 7.62231 12.507 7.1988 12.507C7.01322 12.507 6.84905 12.5093 6.70629 12.514C6.56829 12.514 6.43505 12.5163 6.30657 12.521C6.17809 12.5257 6.04961 12.5327 5.92113 12.5421ZM6.92756 15.2668C6.85619 15.2621 6.77053 15.2551 6.6706 15.2457V13.4831C6.76577 13.4737 6.85143 13.4691 6.92756 13.4691C7.0037 13.4644 7.08935 13.462 7.18453 13.462C7.40342 13.462 7.58424 13.4808 7.727 13.5182C7.86976 13.5557 7.98396 13.6118 8.06961 13.6868C8.15527 13.757 8.21475 13.8483 8.24806 13.9606C8.28137 14.073 8.29803 14.2041 8.29803 14.3539C8.29803 14.5084 8.27899 14.6418 8.24092 14.7542C8.20285 14.8665 8.14099 14.9625 8.05534 15.0421C7.96969 15.117 7.85548 15.1732 7.71272 15.2106C7.56997 15.2481 7.3939 15.2668 7.18453 15.2668H6.92756Z" fill="black"/>
<path d="M18.5 12.5421H14.9382V17.4578H16.1088V15.632H18.4001V14.6277H16.1088V13.5463H18.5V12.5421Z" fill="black"/>
<path fill-rule="evenodd" clip-rule="evenodd" d="M4 2C2.89543 2 2 2.89543 2 4V19.5C2 20.6046 2.89543 21.5 4 21.5H20C21.1046 21.5 22 20.6046 22 19.5V7.43302C22 7.08302 21.8589 6.74782 21.6086 6.50321L17.3789 2.3702C17.136 2.13287 16.8099 2 16.4703 2H4ZM4 20H20C20.2761 20 20.5 19.7761 20.5 19.5V9H15.85C15.3806 9 15 8.61944 15 8.15V3.5H4C3.72386 3.5 3.5 3.72386 3.5 4V19.5C3.5 19.7761 3.72386 20 4 20ZM16.5 3.60864V7.5H20.4824L16.5 3.60864Z" fill="black"/>
</svg>
