<svg width="24" height="24" viewBox="0 0 24 24" fill="none" xmlns="http://www.w3.org/2000/svg">
<path fill-rule="evenodd" clip-rule="evenodd" d="M12.4677 4.25H12.5303C13.068 4.25 13.8185 4.44728 14.4427 5.01791C15.0896 5.60937 15.5303 6.53667 15.5303 7.85714V17.1429C15.5303 18.4633 15.0896 19.3906 14.4427 19.9821C13.8185 20.5527 13.068 20.75 12.5303 20.75H12.4677L12.406 20.7396C10.2849 20.3831 5.65001 19.5958 4.14 19.3082C3.17485 19.1243 2.58374 18.6253 2.2856 17.9722C2.02931 17.4109 2.02994 16.8061 2.0303 16.4652V8.53481C2.02994 8.19392 2.02931 7.58911 2.2856 7.02775C2.58374 6.37472 3.17485 5.87566 4.14 5.69182C5.65001 5.4042 10.2849 4.61687 12.406 4.26037L12.4677 4.25ZM12.583 5.75167C10.4239 6.11473 5.89415 6.88466 4.42066 7.16533C3.88587 7.26719 3.72698 7.48237 3.65011 7.65073C3.54082 7.89011 3.53034 8.18995 3.53033 8.57135V16.4287C3.53034 16.8101 3.54082 17.1099 3.65011 17.3493C3.72698 17.5176 3.88587 17.7328 4.42066 17.8347C5.89415 18.1153 10.4239 18.8853 12.583 19.2483C12.8008 19.235 13.1416 19.1392 13.4305 18.875C13.7211 18.6094 14.0303 18.1081 14.0303 17.1429V7.85714C14.0303 6.8919 13.7211 6.39063 13.4305 6.12495C13.1416 5.86083 12.8008 5.76504 12.583 5.75167ZM16.7117 5.44002C16.9683 5.11491 17.4399 5.05943 17.7651 5.31609C18.6663 6.02759 18.9551 6.86924 18.9551 7.50139V17.8795C18.9551 19.0543 18.0861 19.8114 17.7651 20.0648C17.4399 20.3215 16.9683 20.266 16.7117 19.9409C16.455 19.6158 16.5105 19.1442 16.8356 18.8875C17.1177 18.6648 17.4551 18.3014 17.4551 17.8795V7.50139C17.4551 7.33523 17.382 6.92478 16.8356 6.49342C16.5105 6.23675 16.455 5.76513 16.7117 5.44002ZM20.2046 6.35396C20.4562 6.02493 20.9269 5.96217 21.2559 6.21378C22.1643 6.90843 22.4551 7.75091 22.4551 8.3778V17.0032C22.4551 18.169 21.5803 18.9192 21.2559 19.1672C20.9269 19.4188 20.4562 19.3561 20.2046 19.027C19.9529 18.698 20.0157 18.2273 20.3447 17.9757C20.462 17.886 20.6252 17.7423 20.7545 17.5604C20.8821 17.3809 20.9551 17.1956 20.9551 17.0032V8.3778C20.9551 8.22057 20.884 7.81766 20.3447 7.40532C20.0157 7.1537 19.9529 6.68299 20.2046 6.35396Z" fill="black"/>
</svg>
