<svg width="24" height="24" viewBox="0 0 24 24" fill="none" xmlns="http://www.w3.org/2000/svg">
<path fill-rule="evenodd" clip-rule="evenodd" d="M19 6.5H5C4.72386 6.5 4.5 6.72386 4.5 7V17C4.5 17.2761 4.72386 17.5 5 17.5H19C19.2761 17.5 19.5 17.2761 19.5 17V7C19.5 6.72386 19.2761 6.5 19 6.5ZM5 5C3.89543 5 3 5.89543 3 7V17C3 18.1046 3.89543 19 5 19H19C20.1046 19 21 18.1046 21 17V7C21 5.89543 20.1046 5 19 5H5ZM6 8.75C6 8.33579 6.33579 8 6.75 8H17.25C17.6642 8 18 8.33579 18 8.75C18 9.16421 17.6642 9.5 17.25 9.5H6.75C6.33579 9.5 6 9.16421 6 8.75ZM6.75 11C6.33579 11 6 11.3358 6 11.75C6 12.1642 6.33579 12.5 6.75 12.5H9.62454C10.8626 13.9574 13.1374 13.9574 14.3755 12.5H17.25C17.6642 12.5 18 12.1642 18 11.75C18 11.3358 17.6642 11 17.25 11H14.0424C13.7651 11 13.5062 11.1386 13.3525 11.3692C12.7091 12.3343 11.2909 12.3343 10.6475 11.3692C10.4938 11.1386 10.2349 11 9.95762 11H6.75Z" fill="black"/>
</svg>
