<svg width="24" height="24" viewBox="0 0 24 24" fill="none" xmlns="http://www.w3.org/2000/svg">
<path fill-rule="evenodd" clip-rule="evenodd" d="M16.4 19.625C18.1783 18.6194 19.4325 16.8912 19.8372 14.8887L19.8696 14.7285C19.9563 14.2995 20 13.8628 20 13.4251V4C20 3.44771 19.5523 3 19 3H5C4.44772 3 4 3.44772 4 4V13.4251C4 13.8628 4.04368 14.2995 4.1304 14.7285L4.16278 14.8887C4.56749 16.8912 5.82165 18.6194 7.6 19.625L11.525 21.7436C11.8215 21.9036 12.1785 21.9036 12.475 21.7436L16.4 19.625ZM5.63305 14.5916C5.74822 15.1614 5.95077 15.703 6.22861 16.1997L17.4603 4.5H5.5V13.4251C5.5 13.763 5.53372 14.1001 5.60067 14.4314L5.63305 14.5916ZM8.32627 18.3125C7.88942 18.064 7.49297 17.76 7.14475 17.4114L18.5 5.58298V13.4251C18.5 13.763 18.4663 14.1001 18.3993 14.4314L18.3669 14.5916C18.0493 16.1631 17.067 17.52 15.6738 18.3124L12 20.2954L8.32627 18.3125Z" fill="black"/>
</svg>
