<svg width="24" height="24" viewBox="0 0 24 24" fill="none" xmlns="http://www.w3.org/2000/svg">
<path fill-rule="evenodd" clip-rule="evenodd" d="M6.19502 15.9803C4.8037 14.5884 3.92922 12.9079 3.58355 11.6833C4.16448 10.5735 5.16915 9.04866 6.55878 7.79024C8.02434 6.46307 9.83685 5.5 12.0001 5.5C14.1633 5.5 15.9758 6.46307 17.4414 7.79024C18.831 9.04865 19.8356 10.5735 20.4166 11.6833C20.0709 12.9079 19.1964 14.5884 17.8051 15.9803C16.3521 17.4338 14.414 18.5 12.0001 18.5C9.58611 18.5 7.648 17.4338 6.19502 15.9803ZM12.0001 4C6.71389 4 3.37787 8.73853 2.13998 11.2115C2.04616 11.3989 2.01853 11.6107 2.0676 11.8144C2.7955 14.8372 6.20636 20 12.0001 20C17.7938 20 21.2046 14.8372 21.9325 11.8144C21.9816 11.6107 21.954 11.3989 21.8602 11.2115C20.6223 8.73853 17.2862 4 12.0001 4ZM6.12823 11.5238C6.36914 11.1869 6.83759 11.109 7.17454 11.3499C7.76384 11.7712 8.58009 12.0652 9.47488 12.2505C10.3607 12.4339 11.2695 12.4999 12 12.4999C12.7304 12.4999 13.6393 12.4339 14.5251 12.2505C15.4199 12.0652 16.2362 11.7712 16.8255 11.3499C17.1624 11.109 17.6309 11.1869 17.8718 11.5238C18.1127 11.8608 18.0348 12.3292 17.6979 12.5701C17.2622 12.8816 16.7667 13.1263 16.2498 13.3184L16.6066 13.8089C16.8502 14.1439 16.7762 14.613 16.4412 14.8566C16.1062 15.1002 15.6371 15.0262 15.3935 14.6912L14.7049 13.7444C14.0319 13.8763 13.3592 13.9485 12.7501 13.9801V15.2501C12.7501 15.6643 12.4143 16.0001 12.0001 16.0001C11.5858 16.0001 11.2501 15.6643 11.2501 15.2501V13.9801C10.6409 13.9485 9.96823 13.8763 9.29516 13.7444L8.60661 14.6912C8.36298 15.0262 7.89391 15.1002 7.55892 14.8566C7.22393 14.613 7.14987 14.1439 7.3935 13.8089L7.75024 13.3184C7.2333 13.1263 6.73779 12.8816 6.30214 12.5701C5.96519 12.3292 5.88733 11.8608 6.12823 11.5238Z" fill="black"/>
</svg>
