<svg width="24" height="24" viewBox="0 0 24 24" fill="none" xmlns="http://www.w3.org/2000/svg">
<path fill-rule="evenodd" clip-rule="evenodd" d="M18 8H18.25C18.6642 8 19 7.66421 19 7.25V3.75C19 3.33579 18.6642 3 18.25 3H8.75C8.33579 3 8 3.33579 8 3.75V7.25C8 7.66421 8.33579 8 8.75 8H9V10.0036C9.54554 10.0195 10.0379 10.0882 10.5 10.2105V8H16.5V11.8775L16.7708 11.7509L16.7837 11.7452C17.1807 11.5688 17.5903 11.4589 18 11.4108V8ZM9.5 4.5V6.5H17.5V4.5H9.5Z" fill="black"/>
<path fill-rule="evenodd" clip-rule="evenodd" d="M3.25 11C2.83579 11 2.5 11.3358 2.5 11.75C2.5 12.1642 2.83579 12.5 3.25 12.5H4.5V20.0229H3.25C2.83579 20.0229 2.5 20.3587 2.5 20.7729C2.5 21.1872 2.83579 21.5229 3.25 21.5229H5.15C5.61944 21.5229 6 21.1424 6 20.6729V19.5564C6.56322 19.6296 7.11773 19.7644 7.65338 19.9592L9.61614 20.6729C11.1679 21.2372 12.8834 21.1386 14.3603 20.4001L19.6939 17.9917C20.9709 17.3533 21.5288 15.8301 20.9664 14.5178C20.3743 13.1361 18.7666 12.5054 17.3929 13.1159L15.8143 13.8534C15.4679 13.0569 14.674 12.5 13.75 12.5H12.4418C12.0801 12.5 11.7326 12.4101 11.4304 12.2364C11.1144 12.0549 10.7631 11.8621 10.3252 11.7217C9.88222 11.5796 9.38073 11.5 8.75 11.5C7.78165 11.5 6.90948 11.9175 6.21716 12.4594C6.1313 12.5266 6.0599 12.5903 6 12.6516V11.85C6 11.3806 5.61944 11 5.15 11H3.25ZM8.166 18.5495C7.4657 18.2949 6.7384 18.126 6 18.0459V14.9471C6.277 14.4808 6.67516 14.0058 7.14171 13.6406C7.66311 13.2325 8.21835 13 8.75 13C9.24846 13 9.59281 13.0621 9.86715 13.15C10.1465 13.2396 10.384 13.3652 10.6831 13.537C11.2239 13.8478 11.8311 14 12.4418 14H13.75C14.1642 14 14.5 14.3358 14.5 14.75C14.5 15.1642 14.1642 15.5 13.75 15.5H12.25C11.8358 15.5 11.5 15.8358 11.5 16.25C11.5 16.6642 11.8358 17 12.25 17H13.75C14.7586 17 15.6123 16.3363 15.898 15.4218L18.0021 14.4866C18.6116 14.2157 19.325 14.4956 19.5877 15.1087C19.8373 15.6909 19.5897 16.3668 19.0231 16.6501L13.6894 19.0585C12.581 19.6127 11.2934 19.6868 10.1288 19.2632L8.166 18.5495Z" fill="black"/>
</svg>
