<svg width="24" height="24" viewBox="0 0 24 24" fill="none" xmlns="http://www.w3.org/2000/svg">
<path fill-rule="evenodd" clip-rule="evenodd" d="M3.30234 5.50383C4.81001 4.25356 7.70453 3.05029 12.0498 3.05029C16.3951 3.05029 19.2896 4.25356 20.7973 5.50384C21.9397 6.45124 22.0498 7.95104 22.0498 9.04869V9.97512C22.0498 10.9416 21.2663 11.7251 20.2998 11.7251L19.1857 11.7251C20.2623 13.2152 20.8433 15.0081 20.8433 16.8496V17.3457C20.8433 18.8645 19.6121 20.0957 18.0933 20.0957H6.00635C4.48757 20.0957 3.25635 18.8645 3.25635 17.3457V16.8496C3.25635 15.0081 3.83734 13.2152 4.91398 11.7251L3.79981 11.7251C2.83331 11.7251 2.0498 10.9416 2.0498 9.97511V9.0487C2.0498 7.95104 2.15989 6.45124 3.30234 5.50383ZM17.0715 11.7251L17.3073 11.7251L17.8746 12.4748C18.8276 13.7342 19.3433 15.2703 19.3433 16.8496V17.3457C19.3433 18.0361 18.7837 18.5957 18.0933 18.5957H6.00635C5.31599 18.5957 4.75635 18.0361 4.75635 17.3457V16.8496C4.75635 15.2703 5.27205 13.7342 6.22505 12.4748L6.79238 11.7251L7.02807 11.7251C7.99456 11.7251 8.77807 10.9416 8.77807 9.97511V8.53224C8.77807 8.41007 8.8521 8.35074 8.90694 8.33904C10.3346 8.03452 12.7974 7.78385 15.183 8.32843C15.2457 8.34274 15.3215 8.4105 15.3215 8.53224V9.97511C15.3215 10.9416 16.105 11.7251 17.0715 11.7251ZM12.0498 4.55029C7.96037 4.55029 5.43403 5.68474 4.25985 6.65846C3.70275 7.12045 3.5498 7.93845 3.5498 9.0487V9.97511C3.5498 10.1132 3.66173 10.2251 3.79981 10.2251L7.02807 10.2251C7.16614 10.2251 7.27807 10.1132 7.27807 9.97511V8.53224C7.27807 7.76938 7.78331 7.04496 8.59403 6.87204C10.1546 6.53917 12.8508 6.25746 15.5168 6.86605C16.317 7.0487 16.8215 7.76895 16.8215 8.53224V9.97511C16.8215 10.1132 16.9335 10.2251 17.0715 10.2251L20.2998 10.2251C20.4379 10.2251 20.5498 10.1132 20.5498 9.97512V9.04869C20.5498 7.93845 20.3969 7.12045 19.8398 6.65847C18.6656 5.68474 16.1392 4.55029 12.0498 4.55029ZM13.7234 13.7822C13.7234 14.6324 13.0034 15.3913 12.028 15.3913C11.0526 15.3913 10.3325 14.6324 10.3325 13.7822C10.3325 12.932 11.0526 12.1731 12.028 12.1731C13.0034 12.1731 13.7234 12.932 13.7234 13.7822ZM15.2234 13.7822C15.2234 15.4993 13.7928 16.8913 12.028 16.8913C10.2632 16.8913 8.83252 15.4993 8.83252 13.7822C8.83252 12.0651 10.2632 10.6731 12.028 10.6731C13.7928 10.6731 15.2234 12.0651 15.2234 13.7822Z" fill="black"/>
</svg>
