<svg width="24" height="24" viewBox="0 0 24 24" fill="none" xmlns="http://www.w3.org/2000/svg">
<path fill-rule="evenodd" clip-rule="evenodd" d="M17.2503 2C15.9495 2 14.7407 2.17465 13.8311 2.47783C13.3803 2.62811 12.9613 2.82359 12.6397 3.07707C12.3265 3.3239 12.0003 3.71459 12.0003 4.25C12.0003 4.26928 12.0007 4.28838 12.0015 4.30729C12.0008 4.32144 12.0005 4.33568 12.0005 4.35V7.22759L12.0003 7.25C12.0003 7.26928 12.0007 7.28838 12.0015 7.30729C12.0008 7.32144 12.0005 7.33568 12.0005 7.35V8.00216C10.7952 8.023 9.68217 8.19415 8.83114 8.47783C8.38029 8.62811 7.96134 8.82359 7.63969 9.07707C7.3265 9.3239 7.00029 9.71459 7.00029 10.25C7.00029 10.2693 7.00071 10.2884 7.00154 10.3073C7.00084 10.3214 7.00049 10.3357 7.00049 10.35V13.2276L7.00029 13.25C7.00029 13.2693 7.00071 13.2884 7.00154 13.3073C7.00084 13.3214 7.00049 13.3357 7.00049 13.35V14.5197C6.75487 14.5067 6.50419 14.5 6.25 14.5C4.94918 14.5 3.74038 14.6747 2.83085 14.9778C2.38 15.1281 1.96105 15.3236 1.6394 15.5771C1.32621 15.8239 1 16.2146 1 16.75C1 16.7702 1.00046 16.7901 1.00137 16.8099C1.00076 16.8232 1.00044 16.8366 1.00044 16.85V19.7276L1.00024 19.75C1.00024 20.2854 1.32645 20.6761 1.63965 20.9229C1.96129 21.1764 2.38025 21.3719 2.83109 21.5222C3.74062 21.8253 4.94942 22 6.25024 22C7.55106 22 8.75991 21.8253 9.66948 21.5222C10.1203 21.3719 10.5393 21.1764 10.861 20.9229C11.1742 20.6761 11.5004 20.2854 11.5004 19.75V18.4804C11.7459 18.4933 11.9963 18.5 12.2503 18.5C13.5511 18.5 14.76 18.3253 15.6695 18.0222C16.1204 17.8719 16.5394 17.6764 16.861 17.4229C17.1742 17.1761 17.5005 16.7854 17.5005 16.25V15.4978C18.7056 15.477 19.8185 15.3058 20.6695 15.0222C21.1204 14.8719 21.5394 14.6764 21.861 14.4229C22.1742 14.1761 22.5005 13.7854 22.5005 13.25V10.35C22.5005 10.335 22.5001 10.32 22.4993 10.3052C22.5001 10.287 22.5005 10.2686 22.5005 10.25V7.35C22.5005 7.33496 22.5001 7.32001 22.4993 7.30516C22.5001 7.28695 22.5005 7.26856 22.5005 7.25V4.35C22.5005 4.33425 22.5001 4.3186 22.4992 4.30306C22.4999 4.28553 22.5003 4.26785 22.5003 4.25C22.5003 3.71459 22.1741 3.3239 21.8609 3.07707C21.5392 2.82359 21.1203 2.62811 20.6694 2.47783C19.7599 2.17465 18.5511 2 17.2503 2ZM17.5005 13.9976C18.5811 13.9767 19.5271 13.8218 20.1952 13.5991C20.5587 13.478 20.7988 13.3502 20.9326 13.2448C20.9658 13.2186 20.9872 13.1984 21.0005 13.1842V11.9009C20.8928 11.9443 20.7822 11.9846 20.6695 12.0222C19.8185 12.3058 18.7056 12.477 17.5005 12.4978V13.25C17.5005 13.2686 17.5001 13.287 17.4993 13.3052C17.5001 13.32 17.5005 13.335 17.5005 13.35V13.9976ZM17.5005 10.9976C18.5811 10.9767 19.5271 10.8218 20.1952 10.5991C20.5587 10.478 20.7988 10.3502 20.9326 10.2448C20.9658 10.2186 20.9872 10.1984 21.0005 10.1842V8.90087C20.8928 8.94426 20.7822 8.98463 20.6695 9.02218C19.7627 9.32442 18.5585 9.49893 17.2622 9.5C17.4023 9.70663 17.5003 9.95658 17.5003 10.25C17.5003 10.2678 17.4999 10.2855 17.4992 10.3031C17.5001 10.3186 17.5005 10.3342 17.5005 10.35V10.9976ZM14.3055 3.90085C13.9479 4.02004 13.7098 4.14559 13.5748 4.25C13.7098 4.35441 13.9479 4.47996 14.3055 4.59915C15.0246 4.83886 16.0658 5 17.2503 5C18.4348 5 19.476 4.83886 20.1951 4.59915C20.5526 4.47997 20.7908 4.35441 20.9258 4.25C20.7908 4.14559 20.5526 4.02003 20.1951 3.90085C19.476 3.66114 18.4348 3.5 17.2503 3.5C16.0658 3.5 15.0246 3.66114 14.3055 3.90085ZM21.0005 5.90082C20.8928 5.94423 20.7821 5.98461 20.6694 6.02217C19.7599 6.32535 18.5511 6.5 17.2503 6.5C15.9495 6.5 14.7407 6.32535 13.8311 6.02217C13.7186 5.98466 13.608 5.94433 13.5005 5.90098V7.18446C13.5138 7.19861 13.5351 7.2188 13.5682 7.24481C13.7019 7.35024 13.942 7.47798 14.3055 7.59915C15.0246 7.83886 16.0658 8 17.2503 8C18.4347 8 19.476 7.83886 20.1952 7.59914C20.5587 7.47798 20.7988 7.35023 20.9326 7.24479C20.9658 7.21865 20.9872 7.19839 21.0005 7.18423V5.90082ZM21.0168 7.16488C21.0183 7.1628 21.0196 7.16059 21.0196 7.16059C21.0196 7.16059 21.0186 7.16154 21.0168 7.16488ZM12.2503 17C11.993 17 11.7424 16.9924 11.5004 16.978V16.85C11.5004 16.8334 11.5 16.8169 11.499 16.8005C11.4997 16.7838 11.5 16.767 11.5 16.75C11.5 16.2146 11.1738 15.8239 10.8606 15.5771C10.7829 15.5158 10.6995 15.458 10.6114 15.4034C11.1284 15.4665 11.6805 15.5 12.2503 15.5C13.5511 15.5 14.76 15.3253 15.6695 15.0222C15.7822 14.9846 15.8928 14.9443 16.0005 14.9009V16.1842C15.9872 16.1984 15.9658 16.2186 15.9326 16.2448C15.7988 16.3502 15.5587 16.478 15.1952 16.5991C14.476 16.8389 13.4348 17 12.2503 17ZM8.5748 10.25C8.70981 10.1456 8.94793 10.02 9.30548 9.90085C10.0246 9.66114 11.0658 9.5 12.2503 9.5C13.4348 9.5 14.476 9.66114 15.1951 9.90085C15.5526 10.02 15.7908 10.1456 15.9258 10.25C15.7908 10.3544 15.5526 10.48 15.1951 10.5991C14.476 10.8389 13.4348 11 12.2503 11C11.0658 11 10.0246 10.8389 9.30548 10.5991C8.94793 10.48 8.70981 10.3544 8.5748 10.25ZM15.6694 12.0222C15.7821 11.9846 15.8928 11.9442 16.0005 11.9008V13.1842C15.9872 13.1984 15.9658 13.2186 15.9326 13.2448C15.7988 13.3502 15.5587 13.478 15.1952 13.5991C14.476 13.8389 13.4348 14 12.2503 14C11.0658 14 10.0246 13.8389 9.30548 13.5991C8.94199 13.478 8.70193 13.3502 8.56815 13.2448C8.53514 13.2188 8.5138 13.1986 8.50049 13.1845V11.901C8.60804 11.9443 8.71859 11.9847 8.83114 12.0222C9.74067 12.3253 10.9495 12.5 12.2503 12.5C13.5511 12.5 14.7599 12.3253 15.6694 12.0222ZM16.0183 13.1628L16.0168 13.1649C16.0186 13.1615 16.0196 13.1606 16.0196 13.1606L16.0183 13.1628ZM3.30519 16.4009C2.94764 16.52 2.70953 16.6456 2.57451 16.75C2.70953 16.8544 2.94764 16.98 3.30519 17.0991C4.02434 17.3389 5.06554 17.5 6.25 17.5C7.43446 17.5 8.47566 17.3389 9.19481 17.0991C9.55236 16.98 9.79047 16.8544 9.92549 16.75C9.79047 16.6456 9.55236 16.52 9.19481 16.4009C8.47566 16.1611 7.43446 16 6.25 16C5.06554 16 4.02434 16.1611 3.30519 16.4009ZM10.0004 18.4007C9.89269 18.4442 9.78192 18.4846 9.66915 18.5222C8.75962 18.8253 7.55082 19 6.25 19C4.94918 19 3.74038 18.8253 2.83085 18.5222C2.71839 18.4847 2.60792 18.4444 2.50044 18.4011V19.6845C2.51376 19.6986 2.5351 19.7188 2.56811 19.7448C2.70188 19.8502 2.94194 19.978 3.30543 20.0991C4.02458 20.3389 5.06578 20.5 6.25024 20.5C7.43471 20.5 8.47596 20.3389 9.19517 20.0991C9.55869 19.978 9.79878 19.8502 9.93257 19.7448C9.96575 19.7186 9.98714 19.6984 10.0004 19.6842V18.4007Z" fill="black"/>
</svg>
