<svg width="24" height="24" viewBox="0 0 24 24" fill="none" xmlns="http://www.w3.org/2000/svg">
<path fill-rule="evenodd" clip-rule="evenodd" d="M19.5 9V18C19.5 18.2761 19.2761 18.5 19 18.5H5C4.72386 18.5 4.5 18.2761 4.5 18V9C4.5 8.72386 4.72386 8.5 5 8.5H6.9C7.78366 8.5 8.5 7.78365 8.5 6.9V6C8.5 5.72386 8.72386 5.5 9 5.5H15C15.2761 5.5 15.5 5.72386 15.5 6V6.9C15.5 7.78366 16.2163 8.5 17.1 8.5H19C19.2761 8.5 19.5 8.72386 19.5 9ZM3 9C3 7.89543 3.89543 7 5 7H6.9C6.95523 7 7 6.95523 7 6.9V6C7 4.89543 7.89543 4 9 4H15C16.1046 4 17 4.89543 17 6V6.9C17 6.95523 17.0448 7 17.1 7H19C20.1046 7 21 7.89543 21 9V18C21 19.1046 20.1046 20 19 20H5C3.89543 20 3 19.1046 3 18V9ZM14.5 13C14.5 14.3807 13.3807 15.5 12 15.5C10.6193 15.5 9.5 14.3807 9.5 13C9.5 11.6193 10.6193 10.5 12 10.5C13.3807 10.5 14.5 11.6193 14.5 13ZM16 13C16 15.2091 14.2091 17 12 17C9.79086 17 8 15.2091 8 13C8 10.7909 9.79086 9 12 9C14.2091 9 16 10.7909 16 13Z" fill="black"/>
</svg>
