<svg width="24" height="24" viewBox="0 0 24 24" fill="none" xmlns="http://www.w3.org/2000/svg">
<path fill-rule="evenodd" clip-rule="evenodd" d="M20.5 16.5V5.5H3.5V16.5H20.5ZM2 5V17C2 17.5523 2.44772 18 3 18H21C21.5523 18 22 17.5523 22 17V5C22 4.44772 21.5523 4 21 4H3C2.44772 4 2 4.44772 2 5ZM12 7C12.2761 7 12.5 7.22386 12.5 7.5V8H14C14.2761 8 14.5 8.22386 14.5 8.5C14.5 8.77614 14.2761 9 14 9H12H11.25C10.8358 9 10.5 9.33579 10.5 9.75C10.5 10.1642 10.8358 10.5 11.25 10.5L13.25 10.5C14.2165 10.5 15 11.2835 15 12.25C15 13.2165 14.2165 14 13.25 14L12.5 14V14.5C12.5 14.7761 12.2761 15 12 15C11.7239 15 11.5 14.7761 11.5 14.5V14L10.5 14C10.2239 14 10 13.7762 10 13.5C10 13.2239 10.2239 13 10.5 13L11.9965 13L12 13L12.0035 13L13.25 13C13.6642 13 14 12.6642 14 12.25C14 11.8358 13.6642 11.5 13.25 11.5L11.25 11.5C10.2835 11.5 9.5 10.7165 9.5 9.75C9.5 8.7835 10.2835 8 11.25 8H11.5V7.5C11.5 7.22386 11.7239 7 12 7ZM6.25 9.5C6.66421 9.5 7 9.83579 7 10.25V11.75C7 12.1642 6.66421 12.5 6.25 12.5C5.83579 12.5 5.5 12.1642 5.5 11.75V10.25C5.5 9.83579 5.83579 9.5 6.25 9.5ZM18.5 10.25C18.5 9.83579 18.1642 9.5 17.75 9.5C17.3358 9.5 17 9.83579 17 10.25V11.75C17 12.1642 17.3358 12.5 17.75 12.5C18.1642 12.5 18.5 12.1642 18.5 11.75V10.25ZM2.75 19.5C2.33579 19.5 2 19.8358 2 20.25C2 20.6642 2.33579 21 2.75 21H21.25C21.6642 21 22 20.6642 22 20.25C22 19.8358 21.6642 19.5 21.25 19.5H2.75Z" fill="black"/>
</svg>
