<svg width="24" height="24" viewBox="0 0 24 24" fill="none" xmlns="http://www.w3.org/2000/svg">
<path fill-rule="evenodd" clip-rule="evenodd" d="M4.13346 16.5989C3.30674 15.2933 2.82129 13.6978 2.82129 12C2.82129 10.3022 3.30673 8.70696 4.13346 7.40133C4.35505 7.05137 4.25099 6.58804 3.90103 6.36644C3.55108 6.14485 3.08775 6.24891 2.86615 6.59887C1.88768 8.14415 1.32129 10.0176 1.32129 12C1.32129 13.9824 1.88766 15.856 2.86615 17.4013C3.08775 17.7513 3.55108 17.8553 3.90103 17.6337C4.25099 17.4122 4.35505 16.9488 4.13346 16.5989ZM6.13761 14.106C5.75317 13.4836 5.53527 12.7654 5.53527 12.0001C5.53527 11.2348 5.75317 10.5166 6.13761 9.89423C6.35529 9.54183 6.24607 9.07968 5.89366 8.86201C5.54126 8.64433 5.07911 8.75355 4.86144 9.10596C4.33735 9.95444 4.03527 10.9439 4.03527 12.0001C4.03527 13.0563 4.33735 14.0458 4.86144 14.8942C5.07911 15.2466 5.54126 15.3559 5.89366 15.1382C6.24607 14.9205 6.35529 14.4584 6.13761 14.106ZM21.178 12.0002C21.178 10.3024 20.6925 8.70695 19.8658 7.40134C19.6442 7.05138 19.7483 6.58805 20.0982 6.36645C20.4482 6.14486 20.9115 6.24892 21.1331 6.59888C22.1116 8.14418 22.678 10.0179 22.678 12.0002C22.678 13.9826 22.1116 15.8561 21.1331 17.4013C20.9115 17.7513 20.4482 17.8554 20.0982 17.6338C19.7483 17.4122 19.6442 16.9488 19.8658 16.5989C20.6925 15.2932 21.178 13.698 21.178 12.0002ZM17.8617 9.89424C18.2461 10.5166 18.464 11.2348 18.464 12.0001C18.464 12.7654 18.2461 13.4836 17.8617 14.106C17.644 14.4584 17.7532 14.9205 18.1056 15.1382C18.458 15.3559 18.9202 15.2466 19.1378 14.8942C19.6619 14.0458 19.964 13.0563 19.964 12.0001C19.964 10.944 19.6619 9.95444 19.1378 9.10597C18.9202 8.75356 18.458 8.64434 18.1056 8.86202C17.7532 9.07969 17.644 9.54184 17.8617 9.89424ZM15.4995 12.0001C15.4995 10.0671 13.9325 8.50013 11.9995 8.50013C10.0665 8.50013 8.49951 10.0671 8.49951 12.0001C8.49951 13.9331 10.0665 15.5001 11.9995 15.5001C13.9325 15.5001 15.4995 13.9331 15.4995 12.0001ZM16.9995 12.0001C16.9995 9.23871 14.7609 7.00013 11.9995 7.00013C9.23809 7.00013 6.99951 9.23871 6.99951 12.0001C6.99951 14.7616 9.23809 17.0001 11.9995 17.0001C14.7609 17.0001 16.9995 14.7616 16.9995 12.0001ZM13.8214 12.4241C14.1347 12.2283 14.1347 11.7719 13.8214 11.5761L11.2648 9.97824C10.9318 9.7701 10.4998 10.0095 10.4998 10.4022V13.598C10.4998 13.9907 10.9318 14.2301 11.2648 14.022L13.8214 12.4241Z" fill="#EFEFEF"/>
<path fill-rule="evenodd" clip-rule="evenodd" d="M4.13346 16.5989C3.30674 15.2933 2.82129 13.6978 2.82129 12C2.82129 10.3022 3.30673 8.70696 4.13346 7.40133C4.35505 7.05137 4.25099 6.58804 3.90103 6.36644C3.55108 6.14485 3.08775 6.24891 2.86615 6.59887C1.88768 8.14415 1.32129 10.0176 1.32129 12C1.32129 13.9824 1.88766 15.856 2.86615 17.4013C3.08775 17.7513 3.55108 17.8553 3.90103 17.6337C4.25099 17.4122 4.35505 16.9488 4.13346 16.5989ZM6.13761 14.106C5.75317 13.4836 5.53527 12.7654 5.53527 12.0001C5.53527 11.2348 5.75317 10.5166 6.13761 9.89423C6.35529 9.54183 6.24607 9.07968 5.89366 8.86201C5.54126 8.64433 5.07911 8.75355 4.86144 9.10596C4.33735 9.95444 4.03527 10.9439 4.03527 12.0001C4.03527 13.0563 4.33735 14.0458 4.86144 14.8942C5.07911 15.2466 5.54126 15.3559 5.89366 15.1382C6.24607 14.9205 6.35529 14.4584 6.13761 14.106ZM21.178 12.0002C21.178 10.3024 20.6925 8.70695 19.8658 7.40134C19.6442 7.05138 19.7483 6.58805 20.0982 6.36645C20.4482 6.14486 20.9115 6.24892 21.1331 6.59888C22.1116 8.14418 22.678 10.0179 22.678 12.0002C22.678 13.9826 22.1116 15.8561 21.1331 17.4013C20.9115 17.7513 20.4482 17.8554 20.0982 17.6338C19.7483 17.4122 19.6442 16.9488 19.8658 16.5989C20.6925 15.2932 21.178 13.698 21.178 12.0002ZM17.8617 9.89424C18.2461 10.5166 18.464 11.2348 18.464 12.0001C18.464 12.7654 18.2461 13.4836 17.8617 14.106C17.644 14.4584 17.7532 14.9205 18.1056 15.1382C18.458 15.3559 18.9202 15.2466 19.1378 14.8942C19.6619 14.0458 19.964 13.0563 19.964 12.0001C19.964 10.944 19.6619 9.95444 19.1378 9.10597C18.9202 8.75356 18.458 8.64434 18.1056 8.86202C17.7532 9.07969 17.644 9.54184 17.8617 9.89424ZM15.4995 12.0001C15.4995 10.0671 13.9325 8.50013 11.9995 8.50013C10.0665 8.50013 8.49951 10.0671 8.49951 12.0001C8.49951 13.9331 10.0665 15.5001 11.9995 15.5001C13.9325 15.5001 15.4995 13.9331 15.4995 12.0001ZM16.9995 12.0001C16.9995 9.23871 14.7609 7.00013 11.9995 7.00013C9.23809 7.00013 6.99951 9.23871 6.99951 12.0001C6.99951 14.7616 9.23809 17.0001 11.9995 17.0001C14.7609 17.0001 16.9995 14.7616 16.9995 12.0001ZM13.8214 12.4241C14.1347 12.2283 14.1347 11.7719 13.8214 11.5761L11.2648 9.97824C10.9318 9.7701 10.4998 10.0095 10.4998 10.4022V13.598C10.4998 13.9907 10.9318 14.2301 11.2648 14.022L13.8214 12.4241Z" fill="black"/>
</svg>
