<svg width="24" height="24" viewBox="0 0 24 24" fill="none" xmlns="http://www.w3.org/2000/svg">
<path fill-rule="evenodd" clip-rule="evenodd" d="M13.0959 1.75612C12.1741 1.63732 11.4692 1.78206 10.9274 2.08036C10.5895 2.26644 10.3452 2.49672 10.169 2.7001C8.42972 2.59283 6.75 3.85916 6.75 5.99996C6.75 7.93994 7.81342 9.07308 8.43343 9.50046C8.45558 9.51573 8.47778 9.5298 8.5 9.5427V9.75C8.5 11.5449 10.2051 13 12 13C13.7949 13 15.5 11.5449 15.5 9.75V9.40433C15.6169 9.35137 15.7278 9.26742 15.8211 9.14415C17.037 7.53746 17.2359 5.79775 16.6383 4.37269C16.0478 2.96469 14.7187 1.96529 13.0959 1.75612ZM11.6509 3.39434C11.8685 3.27456 12.2427 3.15857 12.9041 3.24382C14.0245 3.38822 14.8822 4.0638 15.255 4.9528C15.4923 5.5187 15.5499 6.21407 15.3055 6.97009C14.9362 6.43442 14.3401 6.03372 13.4856 5.90477C12.6359 5.77654 11.9861 5.79116 11.5202 5.80164C11.4653 5.80288 11.4126 5.80406 11.3628 5.80494C10.8449 5.81408 10.7861 5.77085 10.7474 5.73943C10.5992 5.61905 10.381 5.48042 10.1158 5.42256C9.82434 5.35897 9.43454 5.39237 9.12296 5.69895C8.80199 6.01476 8.5709 6.46108 8.42742 7.07592C8.3207 6.77588 8.25 6.41854 8.25 5.99996C8.25 4.70823 9.27126 4.03412 10.2988 4.22461C10.6121 4.28271 10.9485 4.16208 11.1481 3.8828C11.2843 3.69212 11.4239 3.51936 11.6509 3.39434ZM14 7.73204C13.8674 7.58515 13.6494 7.44647 13.2618 7.38798C12.5452 7.27983 12.0139 7.29137 11.5534 7.30136C11.4978 7.30257 11.443 7.30376 11.3892 7.30471L11.382 7.30484C10.987 7.31181 10.4725 7.3209 10.0046 7.0449C10.0031 7.04852 10.0015 7.05218 10 7.05588V9.75C10 10.7165 11.0335 11.5 12 11.5C12.9665 11.5 14 10.7165 14 9.75V7.73204Z" fill="black"/>
<path fill-rule="evenodd" clip-rule="evenodd" d="M8.00973 14C8.31832 14 8.61081 14.1425 8.80027 14.3861L9.8103 15.6847L10.2787 14.5343C10.4078 14.2116 10.7204 14 11.0679 14H12.9325C13.2801 14 13.5927 14.2116 13.7217 14.5343L14.1899 15.6844L15.1997 14.3861C15.3892 14.1425 15.6817 14 15.9903 14C18.1994 14 20 15.7909 20 18V20C20 21.1046 19.1046 22 18 22H6C4.89543 22 4 21.1046 4 20V18C4 15.7909 5.80059 14 8.00973 14ZM18.5 18V20C18.5 20.2761 18.2761 20.5 18 20.5H6C5.72386 20.5 5.5 20.2761 5.5 20V18C5.5 16.7027 6.49939 15.6293 7.77482 15.5109L10.737 19.3194C11.3776 20.143 12.6224 20.143 13.263 19.3194L16.2252 15.5109C17.5006 15.6293 18.5 16.7027 18.5 18ZM13.1278 17.05C13.1205 17.0348 13.1136 17.0193 13.1073 17.0034L12.4925 15.5H11.508L10.8928 17.0034C10.8865 17.0193 10.8796 17.0349 10.8723 17.0501L11.9211 18.3985C11.9611 18.45 12.0389 18.45 12.0789 18.3985L13.1278 17.05Z" fill="black"/>
</svg>
