<svg width="24" height="24" viewBox="0 0 24 24" fill="none" xmlns="http://www.w3.org/2000/svg">
<path d="M14.8999 12.4741C15.57 13.1442 15.57 14.2307 14.8999 14.9007C14.2298 15.5708 13.1434 15.5708 12.4733 14.9007C11.8032 14.2307 11.8032 13.1442 12.4733 12.4741C13.1434 11.8041 14.2298 11.8041 14.8999 12.4741Z" fill="black"/>
<path d="M14.9008 17.3279C14.5658 17.6629 14.5658 18.2061 14.9008 18.5412C15.2359 18.8762 15.7791 18.8762 16.1141 18.5412L18.5407 16.1146C18.8758 15.7795 18.8758 15.2363 18.5407 14.9013C18.2057 14.5662 17.6625 14.5662 17.3274 14.9013L14.9008 17.3279Z" fill="black"/>
<path fill-rule="evenodd" clip-rule="evenodd" d="M11.6574 8.1711L8.46874 4.98241C8.58425 4.38415 8.38526 3.73966 7.88114 3.3131L5.11877 0.975704C4.62248 0.55577 3.88715 0.586356 3.42745 1.04605L1.04483 3.42868C0.585136 3.88837 0.554549 4.6237 0.974483 5.11999L3.31188 7.88236C3.73855 8.38661 4.38327 8.58558 4.98167 8.46986L8.17079 11.659C7.62475 13.2417 7.85336 14.9802 9.05344 16.1803C9.37734 16.5042 9.74701 16.7596 10.1458 16.9473C10.0111 18.4789 10.4461 19.9995 11.5514 21.1048C13.837 23.3904 17.7583 22.8102 20.2844 20.2841C22.8106 17.7579 23.3908 13.8367 21.1052 11.5511C19.9998 10.4457 18.4793 10.0108 16.9477 10.1455C16.7599 9.74666 16.5045 9.37699 16.1806 9.0531C14.98 7.85253 13.2407 7.62422 11.6574 8.1711ZM2.26815 4.32668L4.45696 6.91345C4.5379 7.00911 4.67628 7.02894 4.77886 6.9652C5.07488 6.78126 5.4586 6.82547 5.70503 7.0719L8.89176 10.2586C9.07658 9.99749 9.28551 9.74885 9.51735 9.51701C9.74875 9.28561 9.99689 9.07703 10.2575 8.89248L7.07091 5.70589C6.82456 5.45954 6.78028 5.07599 6.96403 4.77999C7.02771 4.67742 7.00786 4.5391 6.91223 4.45818L4.32546 2.26937L2.26815 4.32668ZM10.1141 15.1196C9.0671 14.0726 9.10976 12.0459 10.578 10.5777C12.0463 9.10941 14.0729 9.06675 15.12 10.1138C15.3198 10.3137 15.4774 10.542 15.5938 10.7913C15.8497 11.3392 16.4253 11.6992 17.0641 11.641C18.2395 11.534 19.3023 11.8695 20.0445 12.6117C21.543 14.1102 21.3882 17.059 19.2238 19.2234C17.0593 21.3879 14.1105 21.5426 12.6121 20.0442C11.8699 19.302 11.5343 18.2391 11.6414 17.0638C11.6996 16.4249 11.3395 15.8493 10.7916 15.5935C10.5423 15.477 10.314 15.3195 10.1141 15.1196Z" fill="black"/>
</svg>
