<svg width="24" height="24" viewBox="0 0 24 24" fill="none" xmlns="http://www.w3.org/2000/svg">
<path fill-rule="evenodd" clip-rule="evenodd" d="M17.75 17C17.3358 17 17 17.3358 17 17.75V18.5C17 19.0523 16.5523 19.5 16 19.5H8C7.44772 19.5 7 19.0523 7 18.5V5.5C7 4.94772 7.44772 4.5 8 4.5H16C16.5523 4.5 17 4.94772 17 5.5V6.25C17 6.66421 17.3358 7 17.75 7C18.1642 7 18.5 6.66421 18.5 6.25V5.5C18.5 4.11929 17.3807 3 16 3H8C6.61929 3 5.5 4.11929 5.5 5.5V18.5C5.5 19.8807 6.61929 21 8 21H16C17.3807 21 18.5 19.8807 18.5 18.5V17.75C18.5 17.3358 18.1642 17 17.75 17ZM19.6602 8.46967C19.3673 8.17678 18.8924 8.17678 18.5996 8.46967C18.3067 8.76256 18.3067 9.23744 18.5996 9.53033C18.9599 9.89073 19.4 10.723 19.5095 11.7078C19.6155 12.6624 19.4024 13.6668 18.5996 14.4697C18.3067 14.7626 18.3067 15.2374 18.5996 15.5303C18.8924 15.8232 19.3673 15.8232 19.6602 15.5303C20.8574 14.3332 21.1442 12.8376 21.0003 11.5422C20.8597 10.277 20.2998 9.10927 19.6602 8.46967ZM16.1621 9.96967C16.4549 9.67678 16.9298 9.67678 17.2227 9.96967C17.6123 10.3593 17.9222 11.027 18.0003 11.7297C18.0817 12.4626 17.9199 13.3332 17.2227 14.0303C16.9298 14.3232 16.4549 14.3232 16.1621 14.0303C15.8692 13.7374 15.8692 13.2626 16.1621 12.9697C16.4649 12.6668 16.553 12.2874 16.5095 11.8953C16.4625 11.473 16.2724 11.1407 16.1621 11.0303C15.8692 10.7374 15.8692 10.2626 16.1621 9.96967ZM13 16.5C13 17.0523 12.5523 17.5 12 17.5C11.4477 17.5 11 17.0523 11 16.5C11 15.9477 11.4477 15.5 12 15.5C12.5523 15.5 13 15.9477 13 16.5ZM13.75 5.5C14.1642 5.5 14.5 5.83579 14.5 6.25C14.5 6.66421 14.1642 7 13.75 7H10.25C9.83579 7 9.5 6.66421 9.5 6.25C9.5 5.83579 9.83579 5.5 10.25 5.5H13.75Z" fill="black"/>
</svg>
