<svg width="24" height="24" viewBox="0 0 24 24" fill="none" xmlns="http://www.w3.org/2000/svg">
<path fill-rule="evenodd" clip-rule="evenodd" d="M12.75 3.75C12.75 3.33579 12.4142 3 12 3C11.5858 3 11.25 3.33579 11.25 3.75V4.52996C6.71279 4.89385 3.05359 8.52999 3.00006 13.1408C2.99456 13.6142 3.37714 14 3.84942 14H11.25V19.85C11.25 20.209 10.959 20.5 10.6 20.5H10.4C10.041 20.5 9.75 20.209 9.75 19.85V19.75C9.75 19.3358 9.41421 19 9 19C8.58579 19 8.25 19.3358 8.25 19.75V19.85C8.25 21.0374 9.21259 22 10.4 22H10.6C11.7874 22 12.75 21.0374 12.75 19.85V14H20.1506C20.6229 14 21.0055 13.6142 21 13.1408C20.9465 8.52999 17.2872 4.89385 12.75 4.52996V3.75ZM19.4646 12.5L4.53549 12.5C4.8959 8.78392 8.16747 6 12 6C15.8325 6 19.1042 8.78392 19.4646 12.5ZM13.2563 7.58545C12.8421 7.58545 12.5063 7.92124 12.5063 8.33545C12.5063 8.74966 12.8421 9.08545 13.2563 9.08545C14.0139 9.08545 14.7302 9.46013 15.0855 10.1709C15.2708 10.5413 15.7213 10.6915 16.0918 10.5063C16.4622 10.321 16.6124 9.87052 16.4272 9.50004C15.7825 8.21077 14.4988 7.58545 13.2563 7.58545Z" fill="black"/>
</svg>
