<svg width="24" height="24" viewBox="0 0 24 24" fill="none" xmlns="http://www.w3.org/2000/svg">
<path fill-rule="evenodd" clip-rule="evenodd" d="M19.6026 9.73917L12.0001 4.9876L4.3976 9.73917C4.04635 9.9587 3.58363 9.85192 3.3641 9.50067C3.14457 9.14942 3.25135 8.6867 3.6026 8.46717L11.5496 3.5003C11.8252 3.32803 12.175 3.32803 12.4506 3.5003L17 6.34367V4.25C17 3.83579 17.3358 3.5 17.75 3.5C18.1642 3.5 18.5 3.83579 18.5 4.25V7.28117L20.3976 8.46717C20.7488 8.6867 20.8556 9.14942 20.6361 9.50067C20.4166 9.85192 19.9539 9.9587 19.6026 9.73917ZM6.25 10.75C6.66421 10.75 7 11.0858 7 11.5V18.75C7 18.8881 7.11193 19 7.25 19H16.75C16.8881 19 17 18.8881 17 18.75V11.5C17 11.0858 17.3358 10.75 17.75 10.75C18.1642 10.75 18.5 11.0858 18.5 11.5V18.75C18.5 19.7165 17.7165 20.5 16.75 20.5H7.25C6.2835 20.5 5.5 19.7165 5.5 18.75V11.5C5.5 11.0858 5.83579 10.75 6.25 10.75ZM10.9375 12.582C11.0391 12.4471 11.1444 12.322 11.25 12.2079V12.3207C11.25 13.7067 12.5646 14.5549 13.7383 14.2503C13.7879 14.6468 13.7025 14.9931 13.5384 15.2595C13.2855 15.6701 12.7785 15.9999 12 15.9999C11.1206 15.9999 10.25 15.2864 10.25 14.2499C10.25 13.7605 10.5075 13.1531 10.9375 12.582ZM12.75 10.8766C12.75 10.3365 12.1961 9.848 11.591 10.1026C10.9562 10.3697 10.2636 10.9832 9.73916 11.6798C9.21328 12.3782 8.75 13.3009 8.75 14.2499C8.75 16.2133 10.3942 17.4999 12 17.4999C13.2319 17.4999 14.2561 16.9545 14.8156 16.0462C15.3733 15.1408 15.4019 13.9841 14.8718 12.8964C14.6291 12.3983 13.9719 12.2866 13.5773 12.6702C13.2683 12.9707 12.75 12.7517 12.75 12.3207V10.8766Z" fill="black"/>
</svg>
