<svg width="36" height="36" viewBox="0 0 36 36" fill="none" xmlns="http://www.w3.org/2000/svg">
<path fill-rule="evenodd" clip-rule="evenodd" d="M28 12C28 8.13401 24.866 5 21 5H15C11.134 5 8 8.13401 8 12V14.1C5.71776 14.5633 4 16.581 4 19C4 20.6358 4.78555 22.0882 6 23.0004V27C6 28.6569 7.34315 30 9 30H27C28.6569 30 30 28.6569 30 27V23.0004C31.2144 22.0882 32 20.6358 32 19C32 16.581 30.2822 14.5633 28 14.1V12ZM26 14.1V12C26 9.23858 23.7614 7 21 7H15C12.2386 7 10 9.23858 10 12V14.1C11.9591 14.4977 13.5023 16.0409 13.9 18H22.1C22.4977 16.0409 24.0409 14.4977 26 14.1ZM14 22V21C14 20.4478 14.4478 20 15 20H21C21.5522 20 22 20.4478 22 21V22C22 22.5522 21.5522 23 21 23H15C14.4478 23 14 22.5522 14 22ZM24 19C24 18.9223 24.003 18.8454 24.0087 18.7692C24.1266 17.2202 25.4208 16 27 16C28.6569 16 30 17.3431 30 19C30 20.0547 29.4558 20.9822 28.6328 21.5172C28.2774 21.7481 28 22.1127 28 22.5365V27C28 27.5523 27.5523 28 27 28H25C24.8619 28 24.7304 27.972 24.6108 27.9214C24.4015 27.8329 24.2286 27.6751 24.1208 27.4768C24.0438 27.3351 24 27.1727 24 27V19ZM9 28H11C11.1381 28 11.2696 27.972 11.3892 27.9214C11.5986 27.8329 11.7715 27.675 11.8793 27.4767C11.9563 27.335 12 27.1726 12 27V19C12 18.9482 11.9987 18.8968 11.9961 18.8456C11.9157 17.2605 10.6051 16 9 16C7.34315 16 6 17.3431 6 19C6 20.0547 6.54425 20.9822 7.36721 21.5172C7.72256 21.7481 8 22.1127 8 22.5365V27C8 27.5523 8.44772 28 9 28ZM21 25C21.5522 25 22 25.4478 22 26V27C22 27.5522 21.5522 28 21 28H15C14.4478 28 14 27.5522 14 27V26C14 25.4478 14.4478 25 15 25H21Z" fill="black"/>
</svg>
