<svg width="36" height="36" viewBox="0 0 36 36" fill="none" xmlns="http://www.w3.org/2000/svg">
<path fill-rule="evenodd" clip-rule="evenodd" d="M6.00684 12C6.00684 11.4477 5.55912 11 5.00684 11C4.45455 11 4.00684 11.4477 4.00684 12V22C4.00684 22.2652 4.11219 22.5196 4.29973 22.7071L5.79973 24.2071C5.98727 24.3946 6.24162 24.5 6.50684 24.5H8.05735C8.68862 25.1186 9.55319 25.5 10.5068 25.5C11.4605 25.5 12.3251 25.1186 12.9563 24.5H23.0574C23.6886 25.1186 24.5532 25.5 25.5068 25.5C26.4605 25.5 27.3251 25.1186 27.9563 24.5H28.7689C29.9067 24.5 30.9465 23.8563 31.454 22.838L31.4786 22.7886C31.8238 22.0959 32.0034 21.3325 32.0034 20.5586V19.5C32.0034 18.181 31.1854 17.0002 29.9505 16.5367L27.7373 15.706C27.3743 15.5698 26.9897 15.5 26.602 15.5L25.1146 15.5C24.571 15.4999 24.0377 15.3521 23.5715 15.0725L17.7338 11.57C17.1122 11.197 16.4009 11 15.6759 11H12.51L12.5068 11L12.5037 11H10.8682C9.7147 11 8.6174 11.4979 7.85785 12.366L6.00684 14.4814V12ZM28.9744 22.4787C29.2699 22.4167 29.5259 22.2229 29.6639 21.946L29.6885 21.8966C29.8956 21.481 30.0034 21.023 30.0034 20.5586V19.5C30.0034 19.0144 29.7023 18.5798 29.2477 18.4092L27.0345 17.5785C26.8962 17.5266 26.7497 17.5 26.602 17.5H6.00684V21.5858L6.92105 22.5H7.04228C7.01892 22.3367 7.00684 22.1698 7.00684 22C7.00684 20.067 8.57384 18.5 10.5068 18.5C12.4398 18.5 14.0068 20.067 14.0068 22C14.0068 22.1698 13.9948 22.3367 13.9714 22.5H22.0423C22.0189 22.3367 22.0068 22.1698 22.0068 22C22.0068 20.067 23.5738 18.5 25.5068 18.5C27.4398 18.5 29.0068 20.067 29.0068 22C29.0068 22.1624 28.9958 22.3222 28.9744 22.4787ZM24.0922 22.5C24.2981 23.0826 24.8537 23.5 25.5068 23.5C26.1599 23.5 26.7156 23.0826 26.9215 22.5C26.9768 22.3436 27.0068 22.1753 27.0068 22C27.0068 21.1716 26.3353 20.5 25.5068 20.5C24.6784 20.5 24.0068 21.1716 24.0068 22C24.0068 22.1753 24.0369 22.3436 24.0922 22.5ZM11.9215 22.5C11.9768 22.3436 12.0068 22.1753 12.0068 22C12.0068 21.1716 11.3353 20.5 10.5068 20.5C9.67841 20.5 9.00684 21.1716 9.00684 22C9.00684 22.1753 9.03691 22.3436 9.09219 22.5C9.29811 23.0826 9.85373 23.5 10.5068 23.5C11.1599 23.5 11.7156 23.0826 11.9215 22.5ZM7.77312 15.5H11.5068V13H10.8682C10.2914 13 9.74278 13.249 9.363 13.683L7.77312 15.5ZM13.5068 13V15.5H20.3967L16.7049 13.285C16.3941 13.0985 16.0384 13 15.6759 13H13.5068Z" fill="black"/>
</svg>
