<svg width="36" height="36" viewBox="0 0 36 36" fill="none" xmlns="http://www.w3.org/2000/svg">
<path fill-rule="evenodd" clip-rule="evenodd" d="M25.9141 5.49985C25.133 4.7188 23.8667 4.7188 23.0857 5.49985L20.7769 7.80865L20.3842 7.43559C19.6068 6.69705 18.3852 6.70302 17.6151 7.44911L7.67415 17.0794C4.35025 20.2994 4.45472 25.6647 7.88277 28.7662C11.0424 31.6249 15.8996 31.5144 18.9155 28.4985L28.9815 18.4324C29.7768 17.6372 29.7602 16.3428 28.9448 15.5682L28.3812 15.0328L30.4999 12.9141C31.2809 12.133 31.2809 10.8667 30.4999 10.0856L25.9141 5.49985ZM26.9307 13.6548L29.0857 11.4998L24.4999 6.91406L22.2273 9.1866L26.9307 13.6548ZM17.5012 27.0843C15.2419 29.3436 11.597 29.4296 9.2246 27.2832C6.65036 24.9541 6.57591 20.9279 9.06574 18.5159L19.0067 8.88559L27.5673 17.0182L17.5012 27.0843ZM19.707 12.2927C19.3165 11.9022 18.6833 11.9022 18.2928 12.2927C17.9022 12.6833 17.9022 13.3164 18.2928 13.707L22.2928 17.707C22.6833 18.0975 23.3165 18.0975 23.707 17.707C24.0975 17.3164 24.0975 16.6833 23.707 16.2927L19.707 12.2927ZM13.4999 20.4998C12.3953 20.4998 11.4999 21.3953 11.4999 22.4998C11.4999 23.6044 12.3953 24.4998 13.4999 24.4998C14.6044 24.4998 15.4999 23.6044 15.4999 22.4998C15.4999 21.3953 14.6044 20.4998 13.4999 20.4998ZM9.49988 22.4998C9.49988 20.2907 11.2907 18.4998 13.4999 18.4998C15.709 18.4998 17.4999 20.2907 17.4999 22.4998C17.4999 24.709 15.709 26.4998 13.4999 26.4998C11.2907 26.4998 9.49988 24.709 9.49988 22.4998Z" fill="black"/>
</svg>
