<svg width="36" height="36" viewBox="0 0 36 36" fill="none" xmlns="http://www.w3.org/2000/svg">
<path fill-rule="evenodd" clip-rule="evenodd" d="M19.3481 18L17.0999 11H21C21.5522 11 22 10.5522 22 10C22 9.44775 21.5522 9 21 9H7C6.44775 9 6 9.44775 6 10C6 10.5522 6.44775 11 7 11L11.4993 11.0001L11.4995 18.2693C11.3259 18.3273 11.1572 18.3969 10.9958 18.48C10.5886 18.6897 10.1313 19.0369 9.82666 19.5936C9.50903 20.174 9.46484 20.786 9.56445 21.3104C9.73779 22.2234 10.3445 22.9152 10.7859 23.3397C11.2908 23.8256 11.928 24.287 12.6243 24.7096C12.9722 24.9209 13.3501 25.1315 13.7539 25.3381C13.9087 25.4174 14.0674 25.496 14.2297 25.5739C14.5317 25.7189 14.8462 25.8613 15.1716 26H9C8.44775 26 8 25.5522 8 25V23C8 22.4478 7.55225 22 7 22C6.44775 22 6 22.4478 6 23V25C6 26.6569 7.34326 28 9 28H29.9998C30.6648 28 31.2949 27.949 31.8442 27.8031C32.3291 27.6743 33.1492 27.3674 33.6377 26.5435C34.2117 25.5756 33.936 24.616 33.6536 24.0848C33.384 23.5785 32.988 23.1868 32.6653 22.9128C31.719 22.1094 30.2107 21.3389 28.7485 20.8762C28.561 20.3099 28.2588 19.771 27.8115 19.3041C26.9321 18.3859 25.7354 18 24.4998 18H19.3481ZM30.1418 25.999C33 25.999 31.7183 24.5068 30.2788 23.7028C29.7945 23.4322 29.5092 23.5 29 23.5H25C24.4478 23.5 24 23.0522 24 22.5C24 21.9478 24.4478 21.5 25 21.5H26.8484C26.5369 20.5721 25.7456 20 24.4998 20H15C15 18.8954 15.8955 18 17 18H17.2476L14.9993 11H13.4993L13.4998 20C7.50146 20.0006 16.2666 26 24.4998 26L30.1418 25.999Z" fill="black"/>
</svg>
