<svg width="36" height="36" viewBox="0 0 36 36" fill="none" xmlns="http://www.w3.org/2000/svg">
<path d="M19 20.7022H20V17.7022C20 17.1499 20.4477 16.7022 21 16.7022C21.5523 16.7022 22 17.1499 22 17.7022V21.7022C22 22.2544 21.5523 22.7022 21 22.7022H19C18.4477 22.7022 18 22.2544 18 21.7022C18 21.1499 18.4477 20.7022 19 20.7022Z" fill="black"/>
<path fill-rule="evenodd" clip-rule="evenodd" d="M7.93739 17.7335L15.9069 25.7022H8C7.44772 25.7022 7 26.1499 7 26.7022C7 27.2544 7.44772 27.7022 8 27.7022H30C30.5523 27.7022 31 27.2544 31 26.7022C31 26.1499 30.5523 25.7022 30 25.7022H24.7529L29.0626 21.3925C29.8443 20.6108 29.8443 19.3439 29.0617 18.5634L18.0846 7.58626C17.3049 6.80458 16.0371 6.80458 15.2554 7.58626L7.93739 14.9043C7.15587 15.6858 7.15587 16.9519 7.93739 17.7335ZM9.35161 16.3185L18.7355 25.7022H21.9245L27.6484 19.9783L16.6695 8.99956L9.35161 16.3185Z" fill="black"/>
</svg>
