<svg width="36" height="36" viewBox="0 0 36 36" fill="none" xmlns="http://www.w3.org/2000/svg">
<path fill-rule="evenodd" clip-rule="evenodd" d="M8 18C8 12.0935 12.7111 8 18 8C23.2889 8 28 12.0935 28 18V19H24C23.4477 19 23 19.4477 23 20V28C23 28.5523 23.4477 29 24 29H26C28.2091 29 30 27.2091 30 25V20.8846V20V18C30 10.9065 24.3091 6 18 6C11.6909 6 6 10.9065 6 18V20V20.8846V25C6 27.2091 7.79086 29 10 29H12C12.5523 29 13 28.5523 13 28V20C13 19.4477 12.5523 19 12 19H8V18ZM8 21V25C8 26.1046 8.89543 27 10 27H11V21H8ZM28 21V25C28 26.1046 27.1046 27 26 27H25V21H28Z" fill="black"/>
</svg>
