<svg width="36" height="36" viewBox="0 0 36 36" fill="none" xmlns="http://www.w3.org/2000/svg">
<path fill-rule="evenodd" clip-rule="evenodd" d="M9 8C9 7.44772 9.44772 7 10 7H20V12.9C20 13.5075 20.4925 14 21.1 14H27V21.5858L25.2778 19.8636C24.8482 19.434 24.1518 19.434 23.7222 19.8636L22 21.5858L18.274 17.8598C17.8612 17.447 17.1978 17.4286 16.7627 17.8178L9 24.7634V8ZM9 27.4471V28C9 28.5523 9.44771 29 10 29H26C26.5523 29 27 28.5523 27 28V24.4142L24.5 21.9142L22.7778 23.6364C22.3482 24.066 21.6518 24.066 21.2222 23.6364L17.4618 19.876L9 27.4471ZM26.5858 12L22 7.41421V12H26.5858ZM10 5C8.34315 5 7 6.34315 7 8V28C7 29.6569 8.34315 31 10 31H26C27.6569 31 29 29.6569 29 28V12.0414C29 11.7497 28.8841 11.4699 28.6778 11.2636L22.7364 5.32218C22.5301 5.11589 22.2503 5 21.9586 5H10ZM14 14C14.5523 14 15 13.5523 15 13C15 12.4477 14.5523 12 14 12C13.4477 12 13 12.4477 13 13C13 13.5523 13.4477 14 14 14ZM14 16C15.6569 16 17 14.6569 17 13C17 11.3431 15.6569 10 14 10C12.3431 10 11 11.3431 11 13C11 14.6569 12.3431 16 14 16Z" fill="black"/>
</svg>
