<svg width="36" height="36" viewBox="0 0 36 36" fill="none" xmlns="http://www.w3.org/2000/svg">
<path fill-rule="evenodd" clip-rule="evenodd" d="M14.7929 6.29289C15.1834 5.90237 15.8166 5.90237 16.2071 6.29289L18 8.08579L19.7929 6.29289C20.1834 5.90237 20.8166 5.90237 21.2071 6.29289C21.5976 6.68342 21.5976 7.31658 21.2071 7.70711L19.4142 9.5L21.2071 11.2929C21.5976 11.6834 21.5976 12.3166 21.2071 12.7071C20.8166 13.0976 20.1834 13.0976 19.7929 12.7071L18 10.9142L16.2071 12.7071C15.8166 13.0976 15.1834 13.0976 14.7929 12.7071C14.4024 12.3166 14.4024 11.6834 14.7929 11.2929L16.5858 9.5L14.7929 7.70711C14.4024 7.31658 14.4024 6.68342 14.7929 6.29289ZM6.35984 22.7682C5.93556 22.4146 5.87824 21.7841 6.2318 21.3598C8.9106 18.1452 12.6862 16 18 16C23.3139 16 27.0894 18.1452 29.7682 21.3598C30.1218 21.7841 30.0645 22.4146 29.6402 22.7682C29.2159 23.1218 28.5854 23.0644 28.2318 22.6402C25.9106 19.8547 22.6862 18 18 18C13.3139 18 10.0894 19.8547 7.76825 22.6402C7.41468 23.0644 6.78412 23.1218 6.35984 22.7682ZM10.4453 26.8321C9.98582 26.5257 9.86164 25.9048 10.168 25.4453C11.3246 23.7104 14.1168 21.5 18 21.5C21.8833 21.5 24.6755 23.7104 25.8321 25.4453C26.1384 25.9048 26.0143 26.5257 25.5547 26.8321C25.0952 27.1384 24.4743 27.0142 24.168 26.5547C23.3246 25.2896 21.1168 23.5 18 23.5C14.8833 23.5 12.6755 25.2896 11.8321 26.5547C11.5257 27.0142 10.9049 27.1384 10.4453 26.8321ZM14.2929 28.2929C13.9024 28.6834 13.9024 29.3166 14.2929 29.7071C14.6834 30.0976 15.3166 30.0976 15.7071 29.7071C16.2219 29.1923 16.9557 28.5 18 28.5C19.0443 28.5 19.7781 29.1923 20.2929 29.7071C20.6834 30.0976 21.3166 30.0976 21.7071 29.7071C22.0976 29.3166 22.0976 28.6834 21.7071 28.2929L21.6775 28.2632C21.1717 27.7566 19.9171 26.5 18 26.5C16.0829 26.5 14.8283 27.7566 14.3225 28.2632L14.2929 28.2929Z" fill="black"/>
</svg>
