<svg width="36" height="36" viewBox="0 0 36 36" fill="none" xmlns="http://www.w3.org/2000/svg">
<path fill-rule="evenodd" clip-rule="evenodd" d="M29 18C29 24.0751 24.0751 29 18 29C11.9249 29 7 24.0751 7 18C7 11.9249 11.9249 7 18 7C24.0751 7 29 11.9249 29 18ZM31 18C31 25.1797 25.1797 31 18 31C10.8203 31 5 25.1797 5 18C5 10.8203 10.8203 5 18 5C25.1797 5 31 10.8203 31 18ZM13.5 17C14.3284 17 15 16.3284 15 15.5C15 14.6716 14.3284 14 13.5 14C12.6716 14 12 14.6716 12 15.5C12 16.3284 12.6716 17 13.5 17ZM24 15.5C24 16.3284 23.3284 17 22.5 17C21.6716 17 21 16.3284 21 15.5C21 14.6716 21.6716 14 22.5 14C23.3284 14 24 14.6716 24 15.5ZM13.2197 20H22.7801C23.4112 20 23.8787 20.5792 23.6319 21.16C22.9066 22.8667 21.1999 25 17.9999 25C14.7999 25 13.0932 22.8667 12.3679 21.16C12.1211 20.5792 12.5887 20 13.2197 20Z" fill="black"/>
</svg>
