<svg width="36" height="36" viewBox="0 0 36 36" fill="none" xmlns="http://www.w3.org/2000/svg">
<path fill-rule="evenodd" clip-rule="evenodd" d="M24.8834 11.9933L25 12C25.5123 12 25.9354 12.3865 25.9933 12.8835L26 13C26 13.5523 26.4477 14 27 14C27.5523 14 28 13.5523 28 13C28 11.3437 26.6563 10 25 10C24.4477 10 24 10.4477 24 11C24 11.5128 24.386 11.9355 24.8834 11.9933ZM26 17V23.032C26 23.5843 25.5521 24.032 25 24.032H9C8.44786 24.032 8 23.5843 8 23.032V13C8 12.4483 8.44828 12 9 12H21.348C21.9003 12 22.348 11.5523 22.348 11C22.348 10.4477 21.9003 10 21.348 10H9C7.34372 10 6 11.3437 6 13V23.032C6 24.689 7.34345 26.032 9 26.032H25C26.6566 26.032 28 24.689 28 23.032V17C28 16.4477 27.5523 16 27 16C26.4477 16 26 16.4477 26 17ZM5 30H29C29.5523 30 30 29.5523 30 29C30 28.4477 29.5523 28 29 28H5C4.44772 28 4 28.4477 4 29C4 29.5523 4.44772 30 5 30ZM25 8C27.7257 8 29.935 10.2093 29.935 12.935C29.935 13.4873 30.3827 13.935 30.935 13.935C31.4873 13.935 31.935 13.4873 31.935 12.935C31.935 9.10472 28.8303 6 25 6C24.4477 6 24 6.44772 24 7C24 7.55228 24.4477 8 25 8Z" fill="black"/>
</svg>
