<svg width="36" height="36" viewBox="0 0 36 36" fill="none" xmlns="http://www.w3.org/2000/svg">
<path d="M6.84978 8.56344C7.36718 8.75662 7.63001 9.33265 7.43683 9.85005C7.16565 10.5764 7 11.2559 7 12.0003C7 13.6826 7.65334 15.187 8.71444 16.3005C8.97755 16.5627 9.08401 16.6213 9.4259 16.8096C9.5684 16.8881 9.75181 16.9891 10.0045 17.1368C10.4814 17.4154 10.642 18.0278 10.3634 18.5047C10.0856 18.98 9.47619 19.1412 9 18.8662V20.5003C9 22.9204 10.3271 25.018 12.4518 26.1081L15.3167 27.5406C17.0059 28.3852 18.9941 28.3852 20.6833 27.5406L23.5483 26.1081C25.673 25.018 27 22.9204 27 20.5003V18.8662C26.5238 19.1412 25.9144 18.98 25.6366 18.5047C25.358 18.0278 25.5186 17.4154 25.9955 17.1368C26.2482 16.9891 26.4316 16.8881 26.5741 16.8096C26.916 16.6213 27.0224 16.5627 27.2855 16.3005C28.3467 15.187 29 13.6826 29 12.0003C29 11.2559 28.8343 10.5764 28.5632 9.85005C28.37 9.33265 28.6328 8.75662 29.1502 8.56344C29.6676 8.37026 30.2437 8.63309 30.4368 9.15049C30.7596 10.0149 31 10.9401 31 12.0003C31 14.0715 30.2443 15.9488 29 17.3867V20.5003C29 23.6939 27.2317 26.4686 24.4559 27.8903L24.4472 27.8947L21.5777 29.3295C19.3255 30.4556 16.6745 30.4556 14.4223 29.3295L11.5441 27.8904C8.76828 26.4686 7 23.6939 7 20.5003V17.3867C5.75573 15.9488 5 14.0715 5 12.0003C5 10.9401 5.24044 10.0149 5.56317 9.15049C5.75635 8.63309 6.33238 8.37026 6.84978 8.56344Z" fill="black"/>
<path d="M15.0528 13.6058C15.5467 13.3588 16.1474 13.559 16.3944 14.053L16.8147 14.8936C16.9058 14.9624 17.0173 15.0002 17.1327 15.0002H18.8672C18.9827 15.0002 19.0942 14.9624 19.1853 14.8936L19.6055 14.053C19.8525 13.559 20.4532 13.3588 20.9472 13.6058C21.4412 13.8528 21.6414 14.4535 21.3944 14.9474L20.9277 15.8809C20.8576 16.0211 20.7653 16.1491 20.6545 16.2599C20.1805 16.7339 19.5376 17.0002 18.8672 17.0002H17.1327C16.4624 17.0002 15.8195 16.7339 15.3455 16.2599C15.2346 16.1491 15.1424 16.0211 15.0723 15.8809L14.6055 14.9474C14.3586 14.4535 14.5588 13.8528 15.0528 13.6058Z" fill="black"/>
<path d="M15.5 20.0002C14.9477 20.0002 14.5 20.448 14.5 21.0002C14.5 21.5525 14.9477 22.0002 15.5 22.0002H20.5C21.0523 22.0002 21.5 21.5525 21.5 21.0002C21.5 20.448 21.0523 20.0002 20.5 20.0002H15.5Z" fill="black"/>
</svg>
