<svg width="36" height="36" viewBox="0 0 36 36" fill="none" xmlns="http://www.w3.org/2000/svg">
<path fill-rule="evenodd" clip-rule="evenodd" d="M25 14.577C25 10.3952 21.6448 7 17.5 7C13.3552 7 10 10.3952 10 14.577C10 15.1293 10.4477 15.577 11 15.577C11.5523 15.577 12 15.1293 12 14.577C12 11.4945 14.4651 9 17.5 9C20.5349 9 23 11.4945 23 14.577C23 16.5262 22.6356 17.5713 21.7209 18.9602C21.6917 19.0045 21.618 19.1152 21.5438 19.2266C21.5185 19.2645 21.4932 19.3026 21.4695 19.3381L21.1944 19.7603C20.4379 20.9639 20.112 21.9185 20.112 23.347L20.1068 23.515C20.0214 24.9041 18.8843 26 17.5 26C16.0606 26 14.889 24.815 14.889 23.347C14.889 22.7947 14.4413 22.347 13.889 22.347C13.3367 22.347 12.889 22.7947 12.889 23.347C12.889 25.9145 14.9509 28 17.5 28C20.0492 28 22.112 25.9144 22.112 23.347L22.1164 23.1052C22.1516 22.1667 22.405 21.5524 23.0334 20.5984L23.5622 19.7949C24.5575 18.2145 25 16.827 25 14.577ZM21.0003 14.5003C21.0003 12.567 19.4336 11.0003 17.5003 11.0003C15.567 11.0003 14.0003 12.567 14.0003 14.5003C14.0003 15.7886 14.3379 16.495 15.1582 17.4743L15.3199 17.6699C15.7401 18.1913 15.8493 18.4651 15.8493 19.0583V20.6673L15.856 20.7839C15.9138 21.2813 16.3365 21.6673 16.8493 21.6673C17.4016 21.6673 17.8493 21.2196 17.8493 20.6673V19.0583L17.8449 18.8238C17.8041 17.7608 17.4727 17.1227 16.7306 16.2368L16.5629 16.0337C16.1215 15.4839 16.0003 15.1741 16.0003 14.5003C16.0003 13.6716 16.6716 13.0003 17.5003 13.0003C18.329 13.0003 19.0003 13.6716 19.0003 14.5003L19.007 14.6169C19.0648 15.1143 19.4875 15.5003 20.0003 15.5003C20.5526 15.5003 21.0003 15.0526 21.0003 14.5003Z" fill="black"/>
</svg>
