<svg width="36" height="36" viewBox="0 0 36 36" fill="none" xmlns="http://www.w3.org/2000/svg">
<path fill-rule="evenodd" clip-rule="evenodd" d="M10 20V9H26V20C26 22.6866 24.5325 25.1586 22.174 26.4451L18 28.7218L13.826 26.4451C11.4675 25.1586 10 22.6866 10 20ZM8 8C8 7.44772 8.44772 7 9 7H27C27.5523 7 28 7.44772 28 8V20C28 23.4185 26.1327 26.564 23.1317 28.2009L18.4672 30.7452C18.176 30.904 17.824 30.904 17.5328 30.7452L12.8683 28.2009C9.86726 26.564 8 23.4185 8 20V8ZM19 13H14V18C14 18.5523 13.5523 19 13 19C12.4477 19 12 18.5523 12 18V12.1C12 11.4925 12.4925 11 13.1 11H19C19.5523 11 20 11.4477 20 12C20 12.5523 19.5523 13 19 13Z" fill="black"/>
</svg>
