<svg width="36" height="36" viewBox="0 0 36 36" fill="none" xmlns="http://www.w3.org/2000/svg">
<path fill-rule="evenodd" clip-rule="evenodd" d="M17.9081 6.00528C17.5427 6.04037 17.1268 6.26449 16.7262 6.68763C16.3465 7.0887 15.7136 7.10603 15.3125 6.72634C14.9114 6.34666 14.8941 5.71373 15.2738 5.31266C15.8732 4.6795 16.7073 4.11139 17.7169 4.01444C18.7746 3.91287 19.8124 4.34742 20.7262 5.31266C21.1059 5.71373 21.0886 6.34665 20.6875 6.72634C20.2864 7.10603 19.6535 7.0887 19.2738 6.68763C18.6876 6.06841 18.2254 5.97481 17.9081 6.00528Z" fill="black"/>
<path fill-rule="evenodd" clip-rule="evenodd" d="M13.566 8.00024C10.4628 8.00024 7.87156 10.3666 7.59061 13.457L6.30142 27.6381C6.08847 29.9806 7.93287 32.0002 10.285 32.0002H25.7148C28.067 32.0002 29.9114 29.9806 29.6984 27.6381L28.6524 16.1322C28.6513 16.1191 28.6502 16.106 28.649 16.0928L28.4094 13.457C28.1284 10.3666 25.5372 8.00024 22.434 8.00024M22.7685 10.0141C24.6862 10.1734 26.2403 11.6899 26.4174 13.6381L26.6597 16.3032C26.7749 17.7548 25.6277 19.0002 24.1675 19.0002H22.0001C22.0001 17.8957 21.1046 17.0002 20.0001 17.0002H16.0001C14.8955 17.0002 14.0001 17.8957 14.0001 19.0002H11.8327C10.3626 19.0002 9.20986 17.7379 9.34295 16.2739L9.58257 13.6381C9.76987 11.5778 11.4973 10.0002 13.5662 10.0002H22.4339C22.4419 10.0002 22.45 10.0003 22.4581 10.0003M9.004 20.0005C9.77408 20.6241 10.7561 21.0002 11.8327 21.0002H14.0001C14.0001 22.1048 14.8955 23.0002 16.0001 23.0002H20.0001C21.1046 23.0002 22.0001 22.1048 22.0001 21.0002H24.1675C25.2439 21.0002 26.2258 20.6243 26.9959 20.0008L27.7066 27.8192C27.8131 28.9904 26.8909 30.0002 25.7148 30.0002H10.285C9.10894 30.0002 8.18673 28.9904 8.29321 27.8192L9.004 20.0005ZM22.434 8.00024H13.566H22.434ZM16.0001 19.0002H20.0001V21.0002H16.0001V19.0002ZM13 25.5002C13 24.948 13.4478 24.5002 14.0001 24.5002H22.0001C22.5524 24.5002 23.0001 24.948 23.0001 25.5002C23.0001 26.0525 22.5524 26.5002 22.0001 26.5002H14.0001C13.4478 26.5002 13 26.0525 13 25.5002Z" fill="black"/>
</svg>
