<svg width="36" height="36" viewBox="0 0 36 36" fill="none" xmlns="http://www.w3.org/2000/svg">
<path fill-rule="evenodd" clip-rule="evenodd" d="M20 14.577C20 10.3952 16.6448 7 12.5 7C8.35523 7 5 10.3952 5 14.577C5 15.1293 5.44772 15.577 6 15.577C6.55228 15.577 7 15.1293 7 14.577C7 11.4945 9.46513 9 12.5 9C15.5349 9 18 11.4945 18 14.577C18 16.5262 17.6356 17.5713 16.7209 18.9602C16.6917 19.0045 16.618 19.1152 16.5438 19.2266L16.4695 19.3381L16.1944 19.7603C15.4379 20.9639 15.112 21.9185 15.112 23.347L15.1068 23.5151C15.0214 24.9045 13.8841 26.001 12.5 26.001C11.0609 26.001 9.889 24.8152 9.889 23.347C9.889 22.7947 9.44128 22.347 8.889 22.347C8.33672 22.347 7.889 22.7947 7.889 23.347C7.889 25.9146 9.95097 28.001 12.5 28.001C15.0491 28.001 17.112 25.9145 17.112 23.347L17.1164 23.1052C17.1516 22.1667 17.405 21.5524 18.0334 20.5984L18.5622 19.7949C19.5575 18.2145 20 16.827 20 14.577ZM16.0003 14.5003C16.0003 12.567 14.4336 11.0003 12.5003 11.0003C10.567 11.0003 9.0003 12.567 9.0003 14.5003C9.0003 15.7886 9.3379 16.495 10.1582 17.4743L10.3199 17.6699C10.7401 18.1913 10.8493 18.4651 10.8493 19.0583V20.6673L10.856 20.7839C10.9138 21.2813 11.3365 21.6673 11.8493 21.6673C12.4016 21.6673 12.8493 21.2196 12.8493 20.6673V19.0583L12.8449 18.8238C12.8041 17.7608 12.4727 17.1227 11.7306 16.2368L11.5629 16.0337C11.1215 15.4839 11.0003 15.1741 11.0003 14.5003C11.0003 13.6716 11.6716 13.0003 12.5003 13.0003C13.329 13.0003 14.0003 13.6716 14.0003 14.5003L14.007 14.6169C14.0648 15.1143 14.4875 15.5003 15.0003 15.5003C15.5526 15.5003 16.0003 15.0526 16.0003 14.5003ZM29.2932 9.29319C29.6837 8.90267 30.3169 8.90267 30.7074 9.29319C31.0679 9.65368 31.0956 10.2209 30.7906 10.6132L30.7074 10.7074L28.4145 13.0003L30.7074 15.2932C31.0979 15.6837 31.0979 16.3169 30.7074 16.7074C30.3469 17.0679 29.7797 17.0956 29.3874 16.7906L29.2932 16.7074L27.0003 14.4145L24.7074 16.7074C24.3169 17.0979 23.6837 17.0979 23.2932 16.7074C22.9327 16.3469 22.905 15.7797 23.21 15.3874L23.2932 15.2932L25.5861 13.0003L23.2932 10.7074C22.9027 10.3169 22.9027 9.68372 23.2932 9.29319C23.6537 8.93271 24.2209 8.90498 24.6132 9.21L24.7074 9.29319L27.0003 11.5861L29.2932 9.29319Z" fill="black"/>
</svg>
