<svg width="36" height="36" viewBox="0 0 36 36" fill="none" xmlns="http://www.w3.org/2000/svg">
<path fill-rule="evenodd" clip-rule="evenodd" d="M17.453 8C16.8772 8 16.3292 8.24822 15.9495 8.68112L11.547 13.7H9C7.34315 13.7 6 15.0431 6 16.7V20.3C6 21.9569 7.34315 23.3 9 23.3H11.547L15.9495 28.3189C16.3292 28.7518 16.8772 29 17.453 29H19.5C20.3284 29 21 28.3284 21 27.5V9.5C21 8.67157 20.3284 8 19.5 8H17.453ZM17.453 10H19V27H17.453L12.453 21.3H9C8.44772 21.3 8 20.8523 8 20.3V16.7C8 16.1477 8.44771 15.7 9 15.7H12.453L17.453 10ZM27.5175 10.3197C27.1418 9.91491 26.5091 9.89135 26.1043 10.2671C25.6995 10.6428 25.676 11.2755 26.0517 11.6803C27.347 13.0758 28.6125 15.1425 28.926 17.5065C29.2329 19.8214 28.6436 22.5273 26.0517 25.3197C25.676 25.7245 25.6995 26.3572 26.1043 26.7329C26.5091 27.1087 27.1418 27.0851 27.5175 26.6803C30.4949 23.4727 31.2978 20.1786 30.9086 17.2436C30.5259 14.3575 29.0069 11.9242 27.5175 10.3197ZM24.7329 15.3197C24.3572 14.9149 23.7245 14.8914 23.3197 15.2671C22.9149 15.6428 22.8914 16.2755 23.2671 16.6803C23.5377 16.9719 23.8247 17.6078 23.8721 18.3743C23.9182 19.1196 23.7282 19.8229 23.2671 20.3197C22.8914 20.7245 22.9149 21.3572 23.3197 21.7329C23.7245 22.1087 24.3572 22.0851 24.7329 21.6803C25.6641 20.6771 25.9382 19.3805 25.8683 18.2507C25.7997 17.1422 25.3905 16.0282 24.7329 15.3197Z" fill="black"/>
</svg>
