<svg width="36" height="36" viewBox="0 0 36 36" fill="none" xmlns="http://www.w3.org/2000/svg">
<path fill-rule="evenodd" clip-rule="evenodd" d="M21.5286 10.3816C20.3733 9.67066 18.9527 9.84319 18 10.6604C17.0472 9.84319 15.6267 9.67066 14.4714 10.3816L12.7536 11.4387C11.5656 12.1698 10.0234 11.9365 9.10486 10.8867C8.02766 9.65559 6 10.4175 6 12.0533V19.2561C6 21.0221 6.83562 22.7641 7.95445 24.1786C9.08027 25.602 10.5805 26.8074 12.095 27.4782L13.5455 28.1206C16.3823 29.3769 19.6177 29.3769 22.4545 28.1206L23.905 27.4782C25.4195 26.8074 26.9197 25.602 28.0455 24.1786C29.1644 22.7641 30 21.0221 30 19.2561V12.0533C30 10.4175 27.9723 9.65559 26.8951 10.8867C25.9766 11.9365 24.4344 12.1698 23.2464 11.4387L21.5286 10.3816ZM19.0312 12.5568C19.2654 11.9863 19.9552 11.7617 20.4804 12.0849L22.1982 13.142C24.0536 14.2838 26.4173 14.0417 28 12.6107V19.2561C28 20.4132 27.4339 21.7279 26.4769 22.9379C25.5269 24.139 24.2771 25.126 23.095 25.6495L21.6446 26.2919C19.3236 27.3198 16.6764 27.3198 14.3554 26.2919L12.905 25.6495C11.7229 25.126 10.4731 24.139 9.52309 22.9379C8.56607 21.7279 8 20.4132 8 19.2561V12.6107C9.58267 14.0417 11.9464 14.2838 13.8018 13.142L15.5196 12.0849C16.0448 11.7617 16.7346 11.9863 16.9688 12.5568L16.9824 12.59C17.3559 13.4997 18.6441 13.4997 19.0176 12.59L19.0312 12.5568ZM16.0548 14.6677C15.5953 14.3613 14.9744 14.4855 14.6681 14.945C14.3617 15.4046 14.4859 16.0254 14.9454 16.3318C16.7813 17.5557 19.2189 17.5557 21.0548 16.3318C21.5143 16.0254 21.6385 15.4046 21.3322 14.945C21.0258 14.4855 20.4049 14.3613 19.9454 14.6677C18.7813 15.4438 17.2189 15.4438 16.0548 14.6677Z" fill="black"/>
</svg>
