<svg width="36" height="36" viewBox="0 0 36 36" fill="none" xmlns="http://www.w3.org/2000/svg">
<path fill-rule="evenodd" clip-rule="evenodd" d="M26 5C27.6569 5 29 6.34315 29 8V28C29 29.6569 27.6569 31 26 31H18.5C17.9477 31 17.5 30.5523 17.5 30C17.5 29.4477 17.9477 29 18.5 29H26C26.5523 29 27 28.5523 27 28V8C27 7.44772 26.5523 7 26 7H10C9.44772 7 9 7.44772 9 8V18C9 18.5523 8.55228 19 8 19C7.44772 19 7 18.5523 7 18V8C7 6.34315 8.34315 5 10 5H26ZM24 13H12V11H24V13ZM24 18H12V16H24V18ZM19 23H24V21H19V23ZM7.69005 27.8957L6.29289 29.2929C5.90237 29.6834 5.90237 30.3166 6.29289 30.7071C6.68342 31.0976 7.31658 31.0976 7.70711 30.7071L9.10426 29.31C9.79799 29.7471 10.6195 30 11.5 30C13.9853 30 16 27.9853 16 25.5C16 23.0147 13.9853 21 11.5 21C9.01472 21 7 23.0147 7 25.5C7 26.3805 7.25291 27.202 7.69005 27.8957ZM9 25.5C9 24.1193 10.1193 23 11.5 23C12.8807 23 14 24.1193 14 25.5C14 26.8807 12.8807 28 11.5 28C10.1193 28 9 26.8807 9 25.5Z" fill="black"/>
</svg>
