<svg width="36" height="36" viewBox="0 0 36 36" fill="none" xmlns="http://www.w3.org/2000/svg">
<path fill-rule="evenodd" clip-rule="evenodd" d="M19.25 8C19.25 7.30964 18.6904 6.75 18 6.75C17.3096 6.75 16.75 7.30964 16.75 8V8.56905C11.2307 9.18262 7.02107 13.7954 6.01937 18.8039C5.91106 19.3454 6.26227 19.8723 6.80383 19.9806C7.34539 20.0889 7.87222 19.7377 7.98053 19.1961C8.90447 14.5764 12.9939 10.5 17.9999 10.5C23.006 10.5 27.0954 14.5764 28.0194 19.1961C28.1277 19.7377 28.6545 20.0889 29.1961 19.9806C29.7376 19.8723 30.0888 19.3454 29.9805 18.8039C28.9788 13.7954 24.7692 9.18268 19.25 8.56907V8ZM4 22.5C4 21.9477 4.44772 21.5 5 21.5H31C31.5523 21.5 32 21.9477 32 22.5C32 23.0523 31.5523 23.5 31 23.5H5C4.44772 23.5 4 23.0523 4 22.5ZM8.10555 25.0528C8.35254 24.5588 8.95321 24.3586 9.44719 24.6055L10.236 25H25.7639L26.5528 24.6055C27.0467 24.3586 27.6474 24.5588 27.8944 25.0528C28.1414 25.5467 27.9412 26.1474 27.4472 26.3944L26.6583 26.7888C26.3806 26.9277 26.0744 27 25.7639 27H10.236C9.92555 27 9.61933 26.9277 9.34162 26.7888L8.55276 26.3944C8.05878 26.1474 7.85856 25.5467 8.10555 25.0528ZM15.4995 14.3662C15.9779 14.0903 16.1421 13.4788 15.8662 13.0004C15.5904 12.522 14.9788 12.3577 14.5004 12.6336C12.854 13.583 11.5216 14.9123 10.6271 16.5119C10.3576 16.9939 10.5298 17.6032 11.0119 17.8727C11.4939 18.1423 12.1032 17.97 12.3728 17.488C13.0826 16.2186 14.15 15.1443 15.4995 14.3662Z" fill="black"/>
</svg>
