<svg width="36" height="36" viewBox="0 0 36 36" fill="none" xmlns="http://www.w3.org/2000/svg">
<path fill-rule="evenodd" clip-rule="evenodd" d="M6 13C6.55228 13 7 12.5523 7 12V7H12C12.5523 7 13 6.55228 13 6C13 5.44772 12.5523 5 12 5H7C5.89543 5 5 5.89543 5 7V12C5 12.5523 5.44772 13 6 13ZM6 23C6.55228 23 7 23.4477 7 24V29H12C12.5523 29 13 29.4477 13 30C13 30.5523 12.5523 31 12 31H7C5.89543 31 5 30.1046 5 29V24C5 23.4477 5.44772 23 6 23ZM29 24C29 23.4477 29.4477 23 30 23C30.5523 23 31 23.4477 31 24V29C31 30.1046 30.1046 31 29 31H24C23.4477 31 23 30.5523 23 30C23 29.4477 23.4477 29 24 29H29V24ZM30 13C29.4477 13 29 12.5523 29 12V7H24C23.4477 7 23 6.55228 23 6C23 5.44772 23.4477 5 24 5H29C30.1046 5 31 5.89543 31 7V12C31 12.5523 30.5523 13 30 13ZM16 13C14.3431 13 13 14.3431 13 16V20C13 21.6569 14.3431 23 16 23H20C21.6569 23 23 21.6569 23 20V16C23 14.3431 21.6569 13 20 13H16ZM15 16C15 15.4477 15.4477 15 16 15H20C20.5523 15 21 15.4477 21 16V20C21 20.5523 20.5523 21 20 21H16C15.4477 21 15 20.5523 15 20V16Z" fill="black"/>
</svg>
