<svg width="36" height="36" viewBox="0 0 36 36" fill="none" xmlns="http://www.w3.org/2000/svg">
<path fill-rule="evenodd" clip-rule="evenodd" d="M10.5 8.5V12.5H12.5C13.6046 12.5 14.5 11.6046 14.5 10.5C14.5 9.39543 13.6046 8.5 12.5 8.5H10.5ZM16.5 10.5C16.5 12.7091 14.7091 14.5 12.5 14.5H10.5V15.5H12C12.5523 15.5 13 15.9477 13 16.5C13 17.0523 12.5523 17.5 12 17.5H10.5V18C10.5 18.5523 10.0523 19 9.5 19C8.94772 19 8.5 18.5523 8.5 18V17.5H8C7.44772 17.5 7 17.0523 7 16.5C7 15.9477 7.44772 15.5 8 15.5H8.5V14.5H8C7.44772 14.5 7 14.0523 7 13.5C7 12.9477 7.44772 12.5 8 12.5H8.5V7.6C8.5 6.9925 8.99248 6.5 9.6 6.5H12.5C14.7091 6.5 16.5 8.29086 16.5 10.5ZM23.8064 11.5914C24.133 11.146 24.0367 10.5202 23.5914 10.1936C23.146 9.86699 22.5202 9.96327 22.1936 10.4086L11.1936 25.4086C10.867 25.854 10.9633 26.4798 11.4086 26.8064C11.854 27.133 12.4798 27.0367 12.8064 26.5914L23.8064 11.5914ZM26 21C26 20.4477 25.5523 20 25 20C24.4477 20 24 20.4477 24 21V23H22C21.4477 23 21 23.4477 21 24C21 24.5523 21.4477 25 22 25H24V27C24 27.5523 24.4477 28 25 28C25.5523 28 26 27.5523 26 27V25H28C28.5523 25 29 24.5523 29 24C29 23.4477 28.5523 23 28 23H26V21Z" fill="black"/>
</svg>
