<svg width="36" height="36" viewBox="0 0 36 36" fill="none" xmlns="http://www.w3.org/2000/svg">
<path fill-rule="evenodd" clip-rule="evenodd" d="M15.2929 7.20733C14.855 6.76943 14.145 6.76943 13.7071 7.20733C13.2692 7.64524 13.2692 8.35522 13.7071 8.79312L15.9142 11.0002H18H20.0858L22.2929 8.79312C22.7308 8.35522 22.7308 7.64524 22.2929 7.20733C21.855 6.76943 21.145 6.76943 20.7071 7.20733L18.7778 9.13662C18.3482 9.5662 17.6517 9.5662 17.2222 9.13662L15.2929 7.20733ZM17 13.0002H9C8.44772 13.0002 8 13.448 8 14.0002V15.0002C8 15.5525 8.44772 16.0002 9 16.0002H10.5H13.5C14.0523 16.0002 14.5 16.448 14.5 17.0002C14.5 17.5525 14.0523 18.0002 13.5 18.0002H10.5H10V28.0002C10 28.5525 10.4477 29.0002 11 29.0002H17V13.0002ZM19 29.0002V18.0002H25.5H26V28.0002C26 28.5525 25.5523 29.0002 25 29.0002H19ZM19 16.0002V13.0002H27C27.5523 13.0002 28 13.448 28 14.0002V15.0002C28 15.5525 27.5523 16.0002 27 16.0002H25.5H19ZM18 31.0002H11C9.34315 31.0002 8 29.6571 8 28.0002V17.8295C6.83481 17.4177 6 16.3065 6 15.0002V14.0002C6 12.3434 7.34315 11.0002 9 11.0002H13.0858L12.2929 10.2073C11.0739 8.98838 11.0739 7.01207 12.2929 5.79312C13.5118 4.57417 15.4881 4.57417 16.7071 5.79312L18 7.08601L19.2929 5.79312C20.5118 4.57417 22.4881 4.57417 23.7071 5.79312C24.926 7.01207 24.926 8.98838 23.7071 10.2073L22.9142 11.0002H27C28.6569 11.0002 30 12.3434 30 14.0002V15.0002C30 16.3065 29.1652 17.4177 28 17.8295V28.0002C28 29.6571 26.6569 31.0002 25 31.0002H18Z" fill="black"/>
</svg>
