<svg width="36" height="36" viewBox="0 0 36 36" fill="none" xmlns="http://www.w3.org/2000/svg">
<path fill-rule="evenodd" clip-rule="evenodd" d="M28.8814 16.8934C28.9449 17.4845 28.4815 18 27.8873 18H20.1129C19.5184 18 19.0553 17.4845 19.1185 16.8934L20.4044 4.89343C20.4588 4.38538 20.8876 4 21.3985 4H26.6014C27.1126 4 27.5414 4.38538 27.5958 4.89343L28.8814 16.8934ZM25.703 6L26.7743 16H21.2257L22.2972 6H25.703Z" fill="black"/>
<path d="M12.5001 28C13.6427 28 14.6065 27.1492 14.7481 26.0155L15.0001 24H10.0001L10.2521 26.0155C10.3937 27.1492 11.3575 28 12.5001 28Z" fill="black"/>
<path fill-rule="evenodd" clip-rule="evenodd" d="M8.10508 20C6.92173 20 5.99717 21.0216 6.11485 22.199L6.9149 30.199C7.01719 31.2214 7.87754 32 8.90513 32H16.0951C17.1227 32 17.983 31.2214 18.0851 30.199L18.8851 22.199C19.0028 21.0216 18.0782 20 16.8951 20H16.0001V14.5C16.0001 13.6716 15.3285 13 14.5001 13H10.5001C9.67173 13 9.0001 13.6716 9.0001 14.5V20H8.10508ZM16.8951 22L16.0951 30H8.90513L8.10508 22H16.8951ZM14.0001 15V20H11.0001V15H14.0001Z" fill="black"/>
<path d="M25.0001 25C25.0001 25.5522 24.5523 26 24.0001 26C23.4479 26 23.0001 25.5522 23.0001 25V21C23.0001 20.4478 23.4479 20 24.0001 20C24.5523 20 25.0001 20.4478 25.0001 21V25Z" fill="black"/>
<path d="M25.3822 32C26.1256 32 26.609 31.2177 26.2765 30.5527L25.0001 28H23.0001L21.7237 30.5527C21.3912 31.2177 21.8749 32 22.6183 32H25.3822Z" fill="black"/>
</svg>
