<svg width="36" height="36" viewBox="0 0 36 36" fill="none" xmlns="http://www.w3.org/2000/svg">
<path d="M18 26C18 26.5523 18.4477 27 19 27C19.5523 27 20 26.5523 20 26V16.0001C20 15.4478 19.5523 15 19 15C18.4477 15 18 15.4483 18 16.0006V26Z" fill="black"/>
<path d="M14 27C13.4477 27 13 26.5523 13 26V16.0006C13 15.4483 13.4477 15 14 15C14.5523 15 15 15.4478 15 16.0001V26C15 26.5523 14.5523 27 14 27Z" fill="black"/>
<path fill-rule="evenodd" clip-rule="evenodd" d="M8 27.0004C8 29.2095 9.79086 31.0004 12 31.0004H20.9996C23.2088 31.0004 24.9996 29.2095 24.9996 27.0004V25.9176C27.8375 25.4417 30 22.9736 30 20.0005V17.0005C30 15.3436 28.6569 14.0005 27 14.0005H24.9996V11.7637C24.9996 11.7381 24.9987 11.7128 24.9968 11.6877C24.9989 11.3396 25 10.9729 25 10.5869C25 8.44978 23.1029 6.89941 21.0001 6.89941C20.8161 6.89941 20.6345 6.91091 20.4562 6.93325C19.5303 5.80601 18.0668 5.10742 16.4605 5.10742C14.858 5.10742 13.3979 5.80258 12.4717 6.92482C12.3166 6.90802 12.1592 6.89941 11.9999 6.89941C9.89707 6.89941 8 8.44978 8 10.5869C8 10.9669 8.00193 11.3228 8.00574 11.6559C8.00194 11.6913 8 11.7273 8 11.7637V27.0004ZM16.4605 7.10742C15.2529 7.10742 14.2574 7.71765 13.7795 8.53292C13.5485 8.92706 13.0798 9.11453 12.6407 8.9884C12.4412 8.93109 12.2261 8.89941 11.9999 8.89941C10.7891 8.89941 10 9.75551 10 10.5869C10 10.7283 10.0003 10.8662 10.0008 11.0005H11.1538C11.7061 11.0005 12.1538 11.4482 12.1538 12.0005C12.1538 12.5528 11.7061 13.0005 11.1538 13.0005H10V27.0004C10 28.105 10.8954 29.0004 12 29.0004H20.9996C22.1042 29.0004 22.9996 28.105 22.9996 27.0004V13.0005H14.9231C14.3708 13.0005 13.9231 12.5528 13.9231 12.0005C13.9231 11.4482 14.3708 11.0005 14.9231 11.0005H22.9996C22.9999 10.8653 23 10.7274 23 10.5869C23 9.75551 22.2109 8.89941 21.0001 8.89941C20.7563 8.89941 20.5252 8.93623 20.3128 9.00229C19.8664 9.14113 19.3834 8.95215 19.1497 8.54724C18.6752 7.7249 17.6753 7.10742 16.4605 7.10742ZM24.9996 23.8746V16.0005H27C27.5523 16.0005 28 16.4482 28 17.0005V20.0005C28 21.8645 26.725 23.4306 24.9996 23.8746Z" fill="black"/>
</svg>
