<svg width="36" height="36" viewBox="0 0 36 36" fill="none" xmlns="http://www.w3.org/2000/svg">
<path d="M21.374 9.04584C21.4007 9.03248 21.502 9 21.6578 9C21.8136 9 21.915 9.03248 21.9417 9.04584L28.1995 12.1748L24.555 14.0141C24.0619 14.2629 23.8639 14.8643 24.1128 15.3574C24.3616 15.8504 24.963 16.0484 25.4561 15.7996L30.1468 13.4323L30.1489 13.4312C30.4923 13.259 31.0024 12.8612 31.0024 12.1723C31.0024 11.4821 30.4902 11.084 30.1468 10.9124L22.8361 7.25698C22.459 7.06846 22.0312 7 21.6578 7C21.2844 7 20.8566 7.06846 20.4795 7.25698L17.9382 8.52767C17.4442 8.77466 17.2439 9.37533 17.4909 9.86931C17.7379 10.3633 18.3386 10.5635 18.8326 10.3165L21.374 9.04584Z" fill="black"/>
<path d="M12.0576 13.704C12.5516 13.457 12.7518 12.8564 12.5048 12.3624C12.2578 11.8684 11.6571 11.6682 11.1632 11.9152L5.85805 14.5677C5.51466 14.7394 5.00244 15.1375 5.00244 15.8277C5.00244 16.5179 5.51466 16.916 5.85805 17.0876L13.1688 20.743C13.5458 20.9315 13.9737 21 14.3471 21C14.7205 21 15.1483 20.9316 15.5254 20.743L19.5225 18.7038C20.0144 18.4529 20.2098 17.8506 19.9588 17.3586C19.7078 16.8667 19.1055 16.6713 18.6136 16.9223L14.6293 18.955C14.6003 18.9688 14.4999 19 14.3471 19C14.1913 19 14.0899 18.9675 14.0632 18.9542L7.81026 15.8277L12.0576 13.704Z" fill="black"/>
<path d="M30.4562 17.2492C30.9498 17.0014 31.1491 16.4004 30.9013 15.9068C30.6536 15.4132 30.0526 15.214 29.559 15.4617L24.5553 17.9734C24.0617 18.2212 23.8624 18.8221 24.1101 19.3157C24.3579 19.8093 24.9589 20.0086 25.4525 19.7608L30.4562 17.2492Z" fill="black"/>
<path d="M6.4544 19.0734C5.96243 18.8224 5.36016 19.0178 5.10918 19.5098C4.85821 20.0017 5.05357 20.604 5.54554 20.855L13.1616 24.7402L13.1688 24.7439C13.5458 24.9324 13.9737 25.0008 14.3471 25.0008C14.7204 25.0008 15.1483 24.9324 15.5253 24.7439L15.5267 24.7432L19.4469 22.7754C19.9405 22.5276 20.1398 21.9266 19.892 21.4331C19.6443 20.9395 19.0433 20.7402 18.5497 20.9879L14.6309 22.955C14.6038 22.9685 14.5023 23.0008 14.3471 23.0008C14.1942 23.0008 14.0938 22.9696 14.0648 22.9558L6.4544 19.0734Z" fill="black"/>
<path d="M30.9013 19.734C31.1491 20.2276 30.9498 20.8286 30.4562 21.0763L25.4525 23.588C24.9589 23.8358 24.3579 23.6365 24.1101 23.1429C23.8624 22.6493 24.0617 22.0483 24.5553 21.8005L29.559 19.2889C30.0526 19.0411 30.6536 19.2404 30.9013 19.734Z" fill="black"/>
<path d="M5.10918 23.3369C5.36016 22.8449 5.96243 22.6496 6.4544 22.9005L14.0648 26.7829C14.0938 26.7968 14.1942 26.828 14.3471 26.828C14.5023 26.828 14.6035 26.7958 14.6306 26.7823L18.5497 24.8151C19.0433 24.5673 19.6443 24.7666 19.892 25.2602C20.1398 25.7538 19.9405 26.3548 19.4469 26.6025L15.5267 28.5703L15.5253 28.571C15.1483 28.7595 14.7204 28.828 14.3471 28.828C13.9737 28.828 13.5458 28.7595 13.1688 28.571L13.1615 28.5674L5.54554 24.6821C5.05357 24.4311 4.85821 23.8289 5.10918 23.3369Z" fill="black"/>
<path d="M15.1559 10.5249C14.6628 10.2765 14.0617 10.4746 13.813 10.9675C13.5644 11.4604 13.763 12.0621 14.2559 12.311L20.5527 15.4914C20.8315 15.6749 21.0026 15.9879 21.0026 16.3265V22.4818L21.0027 22.4913L21.0026 23.9999C21.0026 24.5522 21.4503 25 22.0026 25C22.5549 25 23.0026 24.5523 23.0026 24L23.0029 15.1036C23.0029 14.7263 22.7905 14.3811 22.4537 14.2109L21.5294 13.7441C21.4762 13.7127 21.4219 13.6828 21.3664 13.6544L15.1559 10.5249Z" fill="black"/>
</svg>
