<svg width="36" height="36" viewBox="0 0 36 36" fill="none" xmlns="http://www.w3.org/2000/svg">
<path fill-rule="evenodd" clip-rule="evenodd" d="M18.5 8.05974V14.8963L22.5497 11.4958L18.5 8.05974ZM16.5 14.8123V6.11579C16.5 5.17859 17.5971 4.67068 18.3117 5.27703L24.6567 10.6606C25.1762 11.1014 25.1741 11.9037 24.6523 12.3418L19.1051 16.9998L24.6524 21.6579C25.1739 22.0957 25.1763 22.8974 24.6575 23.3384L18.3124 28.7317C17.598 29.3389 16.5 28.8312 16.5 27.8935V19.1873L11.6431 23.2656C11.2201 23.6208 10.5894 23.5658 10.2342 23.1428C9.87905 22.7199 9.93402 22.0891 10.357 21.734L15.9949 16.9998L10.357 12.2656C9.93402 11.9105 9.87905 11.2797 10.2342 10.8567C10.5894 10.4338 11.2201 10.3788 11.6431 10.734L16.5 14.8123ZM18.5 19.1033V25.9473L22.5505 22.5045L18.5 19.1033Z" fill="black"/>
</svg>
