<svg width="36" height="36" viewBox="0 0 36 36" fill="none" xmlns="http://www.w3.org/2000/svg">
<path fill-rule="evenodd" clip-rule="evenodd" d="M8 9C8.55228 9 9 9.44772 9 10V19.5279C9 21.8899 10.3345 24.0492 12.4472 25.1056L15.3167 26.5403C17.0059 27.3849 18.9941 27.3849 20.6833 26.5403L23.5528 25.1056C25.6655 24.0492 27 21.8899 27 19.5279V10C27 9.44772 27.4477 9 28 9C28.5523 9 29 9.44772 29 10V19.5279C29 22.6475 27.2375 25.4993 24.4472 26.8944L21.5777 28.3292C19.3255 29.4553 16.6745 29.4553 14.4223 28.3292L11.5528 26.8944C8.76254 25.4993 7 22.6475 7 19.5279V10C7 9.44772 7.44772 9 8 9ZM15.0528 13.6055C15.5467 13.3586 16.1474 13.5588 16.3944 14.0528L16.8147 14.8934C16.9058 14.9621 17.0173 15 17.1327 15H18.8672C18.9827 15 19.0942 14.9621 19.1853 14.8934L19.6055 14.0528C19.8525 13.5588 20.4532 13.3586 20.9472 13.6055C21.4412 13.8525 21.6414 14.4532 21.3944 14.9472L20.9277 15.8807C20.8576 16.0209 20.7653 16.1488 20.6545 16.2597C20.1805 16.7337 19.5376 17 18.8672 17H17.1327C16.4624 17 15.8195 16.7337 15.3455 16.2597C15.2346 16.1488 15.1424 16.0209 15.0723 15.8807L14.6055 14.9472C14.3586 14.4532 14.5588 13.8525 15.0528 13.6055ZM15.5 20C14.9477 20 14.5 20.4477 14.5 21C14.5 21.5523 14.9477 22 15.5 22H20.5C21.0523 22 21.5 21.5523 21.5 21C21.5 20.4477 21.0523 20 20.5 20H15.5Z" fill="black"/>
</svg>
