<svg width="36" height="36" viewBox="0 0 36 36" fill="none" xmlns="http://www.w3.org/2000/svg">
<path fill-rule="evenodd" clip-rule="evenodd" d="M3.53513 14C4.22675 12.8044 5.51944 12 7 12H13C14.4806 12 15.7733 12.8044 16.4649 14H19.5351C20.2267 12.8044 21.5194 12 23 12H29C30.4806 12 31.7733 12.8044 32.4649 14H34C34.5523 14 35 14.4477 35 15C35 15.5523 34.5523 16 34 16H33V20C33 22.7614 30.7614 25 28 25H24C21.2386 25 19 22.7614 19 20V16L17 16V20C17 22.7614 14.7614 25 12 25H8C5.23858 25 3 22.7614 3 20V16L2 16C1.44772 16 1 15.5523 1 15C1 14.4477 1.44772 14 2 14H3.53513ZM7 14C5.89543 14 5 14.8954 5 16V20C5 21.6569 6.34315 23 8 23H12C13.6569 23 15 21.6569 15 20V16C15 14.8954 14.1046 14 13 14H7ZM23 14C21.8954 14 21 14.8954 21 16V20C21 21.6569 22.3431 23 24 23H28C29.6569 23 31 21.6569 31 20V16C31 14.8954 30.1046 14 29 14H23ZM11 17H8V19C8 19.5523 7.55228 20 7 20C6.44772 20 6 19.5523 6 19V16.1C6 15.4925 6.49249 15 7.1 15H11C11.5523 15 12 15.4477 12 16C12 16.5523 11.5523 17 11 17ZM24 17H27C27.5523 17 28 16.5523 28 16C28 15.4477 27.5523 15 27 15H23.1C22.4925 15 22 15.4925 22 16.1V19C22 19.5523 22.4477 20 23 20C23.5523 20 24 19.5523 24 19V17Z" fill="black"/>
</svg>
