<svg width="36" height="36" viewBox="0 0 36 36" fill="none" xmlns="http://www.w3.org/2000/svg">
<path fill-rule="evenodd" clip-rule="evenodd" d="M7 9C7 7.34314 8.34315 6 10 6H14.5C15.3607 6 15.9274 6.68224 16.0248 7.35555C16.1752 8.39587 17.0406 9 18 9C18.9594 9 19.8248 8.39587 19.9752 7.35555C20.0726 6.68224 20.6393 6 21.5 6H26C27.6569 6 29 7.34315 29 9V21V27C29 28.6569 27.6569 30 26 30H21.5C20.6393 30 20.0726 29.3178 19.9752 28.6445C19.8248 27.6041 18.9594 27 18 27C17.0406 27 16.1752 27.6041 16.0248 28.6445C15.9274 29.3178 15.3607 30 14.5 30H10C8.34315 30 7 28.6569 7 27V21V9ZM27 20H26C25.4477 20 25 20.4477 25 21C25 21.5523 25.4477 22 26 22H27V27C27 27.5523 26.5523 28 26 28H21.8872C21.4292 26.038 19.6727 25 18 25C16.3273 25 14.5708 26.038 14.1128 28H10C9.44772 28 9 27.5523 9 27V22H10C10.5523 22 11 21.5523 11 21C11 20.4477 10.5523 20 10 20H9V9C9 8.44772 9.44771 8 10 8H14.1128C14.5708 9.96202 16.3273 11 18 11C19.6727 11 21.4292 9.96202 21.8872 8H26C26.5523 8 27 8.44772 27 9V20ZM14 20C13.4477 20 13 20.4477 13 21C13 21.5523 13.4477 22 14 22H16C16.5523 22 17 21.5523 17 21C17 20.4477 16.5523 20 16 20H14ZM19 21C19 20.4477 19.4477 20 20 20H22C22.5523 20 23 20.4477 23 21C23 21.5523 22.5523 22 22 22H20C19.4477 22 19 21.5523 19 21Z" fill="black"/>
</svg>
