<svg width="36" height="36" viewBox="0 0 36 36" fill="none" xmlns="http://www.w3.org/2000/svg">
<path fill-rule="evenodd" clip-rule="evenodd" d="M19.6235 3.00757C18.3416 2.84808 17.3541 3.11157 16.6087 3.55582C16.1452 3.83206 15.8033 4.16244 15.5588 4.44372C13.1192 4.35597 11 6.5816 11 9.22799C11 11.503 12.1517 12.8819 13 13.5375V14C13 16.7614 15.2386 19 18 19C20.7614 19 23 16.7614 23 14V13.9457L23.2511 13.6601C27.1326 9.24461 24.1556 3.57145 19.6235 3.00757ZM16.8425 6.04221C17.0319 5.78552 17.2651 5.49287 17.6326 5.27387C17.9799 5.06688 18.5174 4.88536 19.3765 4.99226C21.8551 5.30064 23.6909 7.89927 22.8091 10.542C22.2703 9.79789 21.4031 9.19377 20.1442 9.01037C19.5033 8.917 18.9719 8.86353 18.5312 8.82325C18.4313 8.81413 18.3383 8.80584 18.2511 8.79807C17.9408 8.77043 17.704 8.74934 17.4958 8.7204C17.0264 8.65516 16.9213 8.57986 16.7894 8.42899C16.4648 8.05754 15.6268 7.56422 14.8311 8.16726C14.2035 8.64291 13.6125 9.4674 13.2794 10.7011C13.1139 10.3042 13 9.81648 13 9.22799C13 7.40905 14.5295 6.25012 15.7595 6.47194C16.1586 6.54392 16.5847 6.39166 16.8425 6.04221ZM21 11.4973C20.7589 11.2664 20.4003 11.0688 19.8558 10.9895C19.2647 10.9034 18.7726 10.8537 18.3492 10.815C18.2667 10.8074 18.1849 10.8001 18.1041 10.793C17.7849 10.7646 17.4824 10.7378 17.2205 10.7014C16.6678 10.6245 16.1596 10.4879 15.6947 10.1329C15.3666 10.5974 15 11.473 15 12.9999V14C15 15.6569 16.3431 17 18 17C19.6569 17 21 15.6569 21 14V11.4973Z" fill="black"/>
<path fill-rule="evenodd" clip-rule="evenodd" d="M12.954 20.5C13.2943 20.5 13.6112 20.673 13.7952 20.9592L15.4009 23.4569L16.0178 21.2978C16.1527 20.8256 16.5843 20.5 17.0754 20.5H18.9246C19.4157 20.5 19.8473 20.8256 19.9823 21.2978L20.5991 23.4569L22.2048 20.9592C22.3888 20.673 22.7057 20.5 23.046 20.5H23.5C26.8137 20.5 29.5 23.1863 29.5 26.5V30.6C29.5 31.9255 28.4255 33 27.1 33H8.9C7.57452 33 6.5 31.9255 6.5 30.6V26.5C6.5 23.1863 9.18629 20.5 12.5 20.5H12.954ZM27.5 26.5V30.6C27.5 30.8209 27.3209 31 27.1 31H8.9C8.67909 31 8.5 30.8209 8.5 30.6V26.5C8.5 24.3214 10.2418 22.5495 12.4088 22.501L16.2335 28.4507C17.0602 29.7365 18.9398 29.7366 19.7665 28.4507L23.5912 22.501C25.7582 22.5495 27.5 24.3214 27.5 26.5ZM19.2115 25.6154C19.1346 25.5169 19.0749 25.4023 19.0385 25.2747L18.2457 22.5H17.7543L16.9615 25.2747C16.9251 25.4023 16.8655 25.517 16.7885 25.6155L17.9159 27.3692C17.9552 27.4304 18.0448 27.4304 18.0841 27.3692L19.2115 25.6154Z" fill="black"/>
</svg>
