<svg width="36" height="36" viewBox="0 0 36 36" fill="none" xmlns="http://www.w3.org/2000/svg">
<path fill-rule="evenodd" clip-rule="evenodd" d="M10 10C10 7.23872 12.2387 5 15 5C17.7613 5 20 7.23872 20 10V11C20 13.6685 17.9043 15.8634 15.2241 15.9948L15 16C12.2387 16 10 13.7613 10 11V10ZM18 10C18 8.34328 16.6567 7 15 7C13.3433 7 12 8.34328 12 10V11C12 12.6567 13.3433 14 14.9755 14.0003L15.1505 13.9963C16.7423 13.9181 18 12.6008 18 11V10ZM11 18C7.68672 18 5 20.6867 5 24V25C5 26.6563 6.34372 28 8 28H22C23.6563 28 25 26.6563 25 25V24C25 20.6867 22.3133 18 19 18H11ZM23 24C23 21.7913 21.2087 20 19 20H11C8.79128 20 7 21.7913 7 24V25C7 25.5517 7.44828 26 8 26H22C22.5517 26 23 25.5517 23 25V24ZM27 6C27.5128 6 27.9355 6.38604 27.9933 6.88338L28 7V9H30C30.5523 9 31 9.44772 31 10C31 10.5128 30.614 10.9355 30.1166 10.9933L30 11H28V13C28 13.5523 27.5523 14 27 14C26.4872 14 26.0645 13.614 26.0067 13.1166L26 13V11H24C23.4477 11 23 10.5523 23 10C23 9.48716 23.386 9.06449 23.8834 9.00673L24 9H26V7C26 6.44772 26.4477 6 27 6Z" fill="black"/>
</svg>
