<svg width="36" height="36" viewBox="0 0 36 36" fill="none" xmlns="http://www.w3.org/2000/svg">
<path fill-rule="evenodd" clip-rule="evenodd" d="M25.5083 5C22.6734 5 19.9718 6.20322 18.0753 8.31035L15.6451 11.0106L9.22408 10.0227C8.75181 9.95006 8.28664 10.1906 8.07295 10.618L5.12791 16.5081C4.97307 16.8177 4.97307 17.1823 5.12791 17.4919L7.09595 21.428C7.12369 21.4867 7.1574 21.5431 7.19704 21.5963C7.27279 21.6986 7.36582 21.7832 7.4699 21.8481C7.59164 21.9244 7.72568 21.9717 7.86259 21.9906C8.12402 22.0266 8.39589 21.9589 8.61244 21.7907C8.66609 21.7493 8.71468 21.703 8.75788 21.6528L10.0423 20.2256L15.8364 25.9519L14.3627 27.229C14.3045 27.2771 14.2512 27.3323 14.2043 27.394C14.039 27.6106 13.9727 27.8821 14.0102 28.143C14.029 28.2739 14.0739 28.4022 14.1454 28.5196C14.2093 28.6248 14.293 28.7191 14.3945 28.7961C14.4505 28.8387 14.5101 28.8748 14.5722 28.9041L18.508 30.8721C18.8177 31.0269 19.1822 31.0269 19.4919 30.8721L25.382 27.927C25.8094 27.7133 26.0499 27.2482 25.9773 26.7759L25.0316 20.6292L27.5493 18.4472C29.7409 16.5478 31 13.7905 31 10.8903V6.1C31 5.49248 30.5075 5 29.9 5H25.5083ZM23.2462 22.1766L16.7863 27.7751L19 28.882L23.9008 26.4316L23.2462 22.1766ZM8.23824 19.2405L14.0455 12.788L9.5684 12.0992L7.11801 17L8.23824 19.2405ZM17.3523 24.6381L11.3817 18.7374L19.5619 9.64828C21.0791 7.96257 23.2404 7 25.5083 7H29V10.8903C29 13.2105 27.9928 15.4163 26.2395 16.9359L17.3523 24.6381ZM22.5 14.5C23.0523 14.5 23.5 14.0523 23.5 13.5C23.5 12.9477 23.0523 12.5 22.5 12.5C21.9477 12.5 21.5 12.9477 21.5 13.5C21.5 14.0523 21.9477 14.5 22.5 14.5ZM22.5 16.5C24.1569 16.5 25.5 15.1569 25.5 13.5C25.5 11.8431 24.1569 10.5 22.5 10.5C20.8431 10.5 19.5 11.8431 19.5 13.5C19.5 15.1569 20.8431 16.5 22.5 16.5ZM8.70711 24.2929C9.09763 24.6834 9.09763 25.3166 8.70711 25.7071L5.20711 29.2071C4.81658 29.5976 4.18342 29.5976 3.79289 29.2071C3.40237 28.8166 3.40237 28.1834 3.79289 27.7929L7.29289 24.2929C7.68342 23.9024 8.31658 23.9024 8.70711 24.2929ZM11.7071 27.2929C12.0976 27.6834 12.0976 28.3166 11.7071 28.7071L9.70711 30.7071C9.31658 31.0976 8.68342 31.0976 8.29289 30.7071C7.90237 30.3166 7.90237 29.6834 8.29289 29.2929L10.2929 27.2929C10.6834 26.9024 11.3166 26.9024 11.7071 27.2929Z" fill="black"/>
</svg>
