<svg width="36" height="36" viewBox="0 0 36 36" fill="none" xmlns="http://www.w3.org/2000/svg">
<path d="M27.9988 21C28.5511 21 28.9988 20.5523 28.9988 20L28.9988 6C28.9988 5.44772 28.5511 5 27.9988 5C27.4466 5 26.9988 5.44771 26.9988 6L26.9988 20C26.9988 20.5523 27.4466 21 27.9988 21Z" fill="black"/>
<path fill-rule="evenodd" clip-rule="evenodd" d="M14.2988 28.8999C15.4692 28.8999 16.1656 27.715 17.0406 26.2263C17.4366 25.5525 17.8692 24.8165 18.3988 24.0999C19.788 22.2766 22.6849 20.9056 24.3405 20.2487C24.7333 20.0928 24.9988 19.7178 24.9988 19.2952V6.9999C24.9988 6.44762 24.5511 5.9999 23.9988 5.9999L12.1988 5.9999C10.7988 5.9999 9.59884 6.9999 9.29884 8.3999L7.59884 16.3999C7.19884 18.2999 8.59884 19.9999 10.4988 19.9999H12.9988C12.9988 19.9999 11.5988 23.3999 11.5988 25.1999C11.6988 27.2999 12.6988 28.8999 14.2988 28.8999ZM14.1988 26.8999C13.9988 26.7999 13.6988 26.0999 13.6988 25.1999C13.6988 24.1999 14.3988 21.9999 14.8988 20.6999C15.0988 20.0999 15.0988 19.3999 14.6988 18.7999C14.2988 18.1999 13.6988 17.8999 12.9988 17.8999L10.3988 17.8999C9.99884 17.8999 9.69884 17.6999 9.59884 17.4999C9.49884 17.3999 9.29884 17.0999 9.39884 16.6999L11.0988 8.6999C11.1988 8.1999 11.5988 7.8999 12.0988 7.8999L22.9988 7.8999V18.5999C21.0988 19.3999 18.2988 20.8999 16.7988 22.8999C16.4611 23.3502 16.1551 23.8321 15.863 24.2922C15.6361 24.6496 15.4174 24.9939 15.1988 25.2999C15.1164 25.4372 15.0265 25.5972 14.9331 25.7632C14.6867 26.2015 14.4164 26.6824 14.1988 26.8999Z" fill="black"/>
</svg>
