<svg width="36" height="36" viewBox="0 0 36 36" fill="none" xmlns="http://www.w3.org/2000/svg">
<path fill-rule="evenodd" clip-rule="evenodd" d="M26.2929 14.207C26.6834 13.8164 26.6834 13.1833 26.2929 12.7927L22.2071 8.70696C21.8166 8.31643 21.1834 8.31643 20.7929 8.70696L7.29289 22.207C7.10536 22.3945 7 22.6488 7 22.9141V26.9998C7 27.5521 7.44772 27.9998 8 27.9998H12.0858C12.351 27.9998 12.6054 27.8945 12.7929 27.707L26.2929 14.207ZM9 25.9998H11.6716L20.6287 17.0428L17.9571 14.3712L9 23.3283V25.9998ZM19.3713 12.957L22.0429 15.6285L24.1716 13.4998L21.5 10.8283L19.3713 12.957ZM18 25.9998C17.4477 25.9998 17 26.4475 17 26.9998C17 27.552 17.4477 27.9998 18 27.9998H27C27.5523 27.9998 28 27.552 28 26.9998C28 26.4475 27.5523 25.9998 27 25.9998H18Z" fill="black"/>
</svg>
