<svg width="36" height="36" viewBox="0 0 36 36" fill="none" xmlns="http://www.w3.org/2000/svg">
<path fill-rule="evenodd" clip-rule="evenodd" d="M19.4086 9.56915L12.9045 19.0002H16.3848C17.0542 19.0002 17.5684 19.5931 17.4737 20.2557L16.5915 26.4312L23.0957 17.0002H19.6154C18.946 17.0002 18.4318 16.4073 18.5264 15.7446L19.4086 9.56915ZM19.6939 5.63269C20.4135 4.58931 22.049 5.22898 21.8697 6.48367L20.6531 15.0002H24.8096C25.6961 15.0002 26.2184 15.995 25.7152 16.7247L16.3062 30.3677C15.5866 31.411 13.9512 30.7714 14.1304 29.5167L15.3471 21.0002H11.1905C10.3041 21.0002 9.78173 20.0054 10.285 19.2757L19.6939 5.63269Z" fill="black"/>
</svg>
