<svg width="36" height="36" viewBox="0 0 36 36" fill="none" xmlns="http://www.w3.org/2000/svg">
<path fill-rule="evenodd" clip-rule="evenodd" d="M7.6146 13.5229C7.6146 8.1276 11.888 3.54179 17.2659 3.04625L17.5499 3.02396C23.6009 2.6316 28.6146 7.10419 28.6146 13.0219C28.6146 15.5983 26.9858 18.9386 24.9669 21.095L24.7926 21.2752L26.5431 25.6505C26.7285 26.114 26.5428 26.6366 26.122 26.8837L26.0207 26.9357L17.0207 30.9357C16.5143 31.1607 15.9215 30.9311 15.6988 30.4236L13.3286 25.0212L10.8116 25.0219C9.77226 25.0219 8.71111 24.2222 8.62081 23.1672L8.6146 23.0219V20.5212L8.1146 20.5219C6.45674 20.5219 5.6466 19.1581 6.14641 17.834L6.205 17.6924L7.6146 14.6052V13.5229ZM22.948 20.2764C24.8757 18.5526 26.6146 15.2616 26.6146 13.0219C26.6146 8.28282 22.5992 4.70076 17.6793 5.01977C13.2144 5.30916 9.6146 9.09377 9.6146 13.5229V14.8239C9.6146 14.9672 9.58377 15.1089 9.52421 15.2393L8.02647 18.5184L8.0156 18.5352L8.05507 18.5259L8.1146 18.5219H9.6146C10.1669 18.5219 10.6146 18.9696 10.6146 19.5219V23.0219C10.6146 22.9578 10.6679 22.9777 10.7251 22.999C10.7552 23.0102 10.7865 23.0219 10.8116 23.0219H13.9826C14.3795 23.0219 14.7389 23.2566 14.8984 23.6202L17.1256 28.6992L24.3276 25.4982L22.6861 21.3933C22.5456 21.042 22.6163 20.6454 22.8603 20.3653L22.948 20.2764ZM17.9415 8.02147C20.0547 8.02147 21.7675 9.7351 21.7675 11.8485C21.7675 13.0983 21.2252 14.0425 20.1016 15.0507L19.8842 15.2405C19.2302 15.7979 19.0437 16.0954 18.9671 16.8301C18.9099 17.3794 18.4182 17.7783 17.8688 17.7211C17.3195 17.6638 16.9206 17.1721 16.9779 16.6228C17.1057 15.3964 17.5174 14.6758 18.4039 13.8784L18.5876 13.7177C19.4565 12.9787 19.7675 12.4793 19.7675 11.8485C19.7675 10.8395 18.9499 10.0215 17.9415 10.0215C16.9832 10.0215 16.1968 10.76 16.1206 11.6987L16.1145 11.8485C16.1145 12.4008 15.6668 12.8485 15.1145 12.8485C14.5622 12.8485 14.1145 12.4008 14.1145 11.8485C14.1145 9.73518 15.8282 8.02147 17.9415 8.02147ZM17.9744 21.1719C18.6094 21.1719 19.1244 20.6569 19.1244 20.0219C19.1244 19.3869 18.6094 18.8719 17.9744 18.8719C17.3394 18.8719 16.8244 19.3869 16.8244 20.0219C16.8244 20.6569 17.3394 21.1719 17.9744 21.1719Z" fill="black"/>
</svg>
