<svg width="36" height="36" viewBox="0 0 36 36" fill="none" xmlns="http://www.w3.org/2000/svg">
<path fill-rule="evenodd" clip-rule="evenodd" d="M6 7.5C5.44772 7.5 5 7.94772 5 8.5C5 9.05228 5.44772 9.5 6 9.5H10.333C10.8334 9.5 11.3156 9.68757 11.6845 10.0257L14.2283 12.3575L13.338 13.2478C12.6956 13.8902 12.5669 14.885 13.0247 15.6697L17.2186 22.8592C18.8398 25.6386 22.3648 26.6442 25.2086 25.1387L27.0019 24.1893C27.329 24.7528 27.6856 25.3699 28.0606 26.0224C28.7622 27.2435 29 27.7939 29 28.5V30C29 30.5523 29.4477 31 30 31C30.5523 31 31 30.5523 31 30V28.5008C31 27.2069 30.4912 26.2382 29.7947 25.0261C29.4304 24.392 29.0833 23.7914 28.7638 23.2407C29.6022 22.6607 29.8792 21.5231 29.3648 20.6131L23.6577 10.5159C23.3029 9.88815 22.6376 9.5 21.9166 9.5H17.9142C17.3838 9.5 16.8751 9.71071 16.5 10.0858L15.6439 10.942L13.0359 8.55138C12.2982 7.87514 11.3338 7.5 10.333 7.5H6ZM17.9142 11.5L21.9166 11.5L27.6237 21.5972L25.96 22.4779L23.5795 18.2956C21.9537 15.4393 18.3513 14.4999 15.5685 16.0614L14.7522 14.662L17.9142 11.5ZM21.8413 19.2849L24.1911 23.4132C22.31 24.3554 20.0115 23.6779 18.9461 21.8515L16.5767 17.7896C18.4122 16.7824 20.7726 17.4073 21.8413 19.2849Z" fill="black"/>
<path d="M5.23801 14.1268L5.23714 14.1254L5.23628 14.1239L6.59414 11.772C6.78659 11.4387 7.26771 11.4387 7.46016 11.772L8.818 14.1238L8.81711 14.1254L8.81622 14.1269C8.97449 14.4166 9.06445 14.7489 9.06445 15.1023C9.06445 16.2275 8.1523 17.1396 7.0271 17.1396C5.9019 17.1396 4.98975 16.2275 4.98975 15.1023C4.98975 14.7489 5.07972 14.4165 5.23801 14.1268Z" fill="black"/>
</svg>
