<svg width="36" height="36" viewBox="0 0 36 36" fill="none" xmlns="http://www.w3.org/2000/svg">
<path fill-rule="evenodd" clip-rule="evenodd" d="M14 7C13.4477 7 13 7.44772 13 8C13 8.55228 13.4477 9 14 9H22C22.5523 9 23 8.55228 23 8C23 7.44772 22.5523 7 22 7H14ZM14 10C12.3431 10 11 11.3431 11 13V23C11 24.6569 12.3431 26 14 26H22C23.6569 26 25 24.6569 25 23V13C25 11.3431 23.6569 10 22 10H14ZM13 13C13 12.4477 13.4477 12 14 12H22C22.5523 12 23 12.4477 23 13V23C23 23.5523 22.5523 24 22 24H14C13.4477 24 13 23.5523 13 23V13ZM13 28C13 27.4477 13.4477 27 14 27H22C22.5523 27 23 27.4477 23 28C23 28.5523 22.5523 29 22 29H14C13.4477 29 13 28.5523 13 28ZM20 15C20 14.4477 19.5523 14 19 14C18.4477 14 18 14.4477 18 15V18.5H16C15.4477 18.5 15 18.9477 15 19.5C15 20.0523 15.4477 20.5 16 20.5H18.9C19.5075 20.5 20 20.0075 20 19.4V15Z" fill="black"/>
</svg>
