<svg width="36" height="36" viewBox="0 0 36 36" fill="none" xmlns="http://www.w3.org/2000/svg">
<path fill-rule="evenodd" clip-rule="evenodd" d="M10 5C8.34315 5 7 6.34315 7 8V28C7 29.6569 8.34315 31 10 31H26C27.6569 31 29 29.6569 29 28V8C29 6.34315 27.6569 5 26 5H10ZM9 8C9 7.44772 9.44771 7 10 7H26C26.5523 7 27 7.44772 27 8V28C27 28.5523 26.5523 29 26 29H10C9.44772 29 9 28.5523 9 28V8ZM20.5563 18L16 20.7338V15.2662L20.5563 18ZM16.2717 13.0968C15.272 12.497 14 13.2171 14 14.3831V21.6169C14 22.7828 15.272 23.503 16.2717 22.9031L22.2999 19.2862C23.2709 18.7036 23.2709 17.2964 22.2999 16.7137L16.2717 13.0968Z" fill="black"/>
</svg>
