<svg width="36" height="36" viewBox="0 0 36 36" fill="none" xmlns="http://www.w3.org/2000/svg">
<path d="M14 11V9H16V11H14Z" fill="black"/>
<path d="M14 13H12V11H14V13Z" fill="black"/>
<path d="M14 15H16V13H14V15Z" fill="black"/>
<path d="M14 15V17H12V15H14Z" fill="black"/>
<path fill-rule="evenodd" clip-rule="evenodd" d="M20.2337 20.0481C20.1599 20.0506 20.082 20.0531 20.0001 20.0556V25.6H21.3028V24.0193C21.4087 24.0299 21.504 24.0378 21.5887 24.0431H21.8747C22.7167 24.0431 23.3309 23.8737 23.7175 23.5348C24.1041 23.1958 24.2974 22.6663 24.2974 21.9461C24.2974 21.5913 24.2523 21.2921 24.1624 21.0485C24.0776 20.7996 23.9399 20.5984 23.7493 20.4448C23.5587 20.2913 23.3098 20.1801 23.0026 20.1112C22.7008 20.0371 22.3301 20 21.8906 20C21.6841 20 21.5013 20.0027 21.3425 20.0079C21.1889 20.0079 21.0406 20.0106 20.8976 20.0159C20.8636 20.0172 20.8297 20.0186 20.7957 20.0201C20.7402 20.0226 20.6848 20.0256 20.6294 20.0289C20.5758 20.0321 20.5223 20.0357 20.4687 20.0397L20.3573 20.0438L20.2337 20.0481ZM21.5808 22.9708C21.5587 22.9693 21.5356 22.9677 21.5114 22.9658C21.4802 22.9633 21.4471 22.9605 21.4124 22.9574C21.3776 22.9543 21.341 22.9508 21.3028 22.947V21.0962C21.4087 21.0856 21.5013 21.0803 21.5808 21.0803C21.6655 21.075 21.7608 21.0723 21.8667 21.0723C22.0786 21.0723 22.2533 21.0909 22.391 21.1279C22.534 21.165 22.6478 21.2233 22.7325 21.3027C22.8173 21.3821 22.8755 21.4801 22.9073 21.5966C22.9391 21.7131 22.955 21.8508 22.955 22.0096C22.955 22.3327 22.8755 22.5736 22.7167 22.7325C22.5578 22.8914 22.2771 22.9708 21.8747 22.9708H21.5808Z" fill="black"/>
<path d="M11.5757 24.8216L14.2129 21.128H11.671V20.0001H15.9524V20.7388L13.3152 24.4324H16.0001V25.5603H11.5757V24.8216Z" fill="black"/>
<path d="M17.2053 20.0001H18.5001V25.5603H17.2053V20.0001Z" fill="black"/>
<path fill-rule="evenodd" clip-rule="evenodd" d="M7 8C7 6.34314 8.34314 5 10 5H26C27.6569 5 29 6.34314 29 8V28C29 29.6569 27.6569 31 26 31H10C8.34314 31 7 29.6569 7 28V8ZM10 7C9.44772 7 9 7.44772 9 8V28C9 28.5523 9.44772 29 10 29H26C26.5523 29 27 28.5523 27 28V8C27 7.44772 26.5523 7 26 7H14V9H12V7H10Z" fill="black"/>
</svg>
