<svg width="36" height="36" viewBox="0 0 36 36" fill="none" xmlns="http://www.w3.org/2000/svg">
<path fill-rule="evenodd" clip-rule="evenodd" d="M19.25 19.5C21.3211 19.5 23 17.8211 23 15.75C23 13.6789 21.3211 12 19.25 12H16.1C15.4925 12 15 12.4925 15 13.1V17.5H14.5C13.9477 17.5 13.5 17.9477 13.5 18.5C13.5 19.0523 13.9477 19.5 14.5 19.5H15V20.5H14.5C13.9477 20.5 13.5 20.9477 13.5 21.5C13.5 22.0523 13.9477 22.5 14.5 22.5H15V23C15 23.5523 15.4477 24 16 24C16.5523 24 17 23.5523 17 23V22.5H19C19.5523 22.5 20 22.0523 20 21.5C20 20.9477 19.5523 20.5 19 20.5H17V19.5H19.25ZM17 17.5V14H19.25C20.2165 14 21 14.7835 21 15.75C21 16.7165 20.2165 17.5 19.25 17.5H17Z" fill="black"/>
<path fill-rule="evenodd" clip-rule="evenodd" d="M27.7906 22.0472L27.8446 21.7768C27.948 21.2602 28 20.7347 28 20.2078V8C28 7.44772 27.5523 7 27 7H9C8.44772 7 8 7.44772 8 8V20.2078C8 20.7347 8.05204 21.2602 8.15535 21.7768L8.20943 22.0472C8.71169 24.5584 10.2764 26.7294 12.5 28L17.5211 30.7388C17.8196 30.9016 18.1804 30.9016 18.4789 30.7388L23.5 28C25.7236 26.7294 27.2883 24.5584 27.7906 22.0472ZM10 20.2078V9H26V20.2078C26 20.6983 25.9252 21.1759 25.8294 21.6549C25.4418 23.5931 24.2367 25.2694 22.5238 26.2543L18 28.7218L13.4762 26.2543C11.7633 25.2694 10.5582 23.5931 10.1706 21.6549C10.0748 21.1759 10 20.6982 10 20.2078Z" fill="black"/>
</svg>
