<svg width="36" height="36" viewBox="0 0 36 36" fill="none" xmlns="http://www.w3.org/2000/svg">
<path fill-rule="evenodd" clip-rule="evenodd" d="M10 5C8.34315 5 7 6.34315 7 8V28C7 29.6569 8.34315 31 10 31H26C27.6569 31 29 29.6569 29 28V8C29 6.34315 27.6569 5 26 5H10ZM9 8C9 7.44772 9.44771 7 10 7H26C26.5523 7 27 7.44772 27 8V28C27 28.5523 26.5523 29 26 29H10C9.44772 29 9 28.5523 9 28V8ZM24 17H12V15H24V17ZM12 13H24V11H12V13ZM18.0133 26.1222L19.2773 22.3304L20.6226 24.483C20.8236 24.8046 21.1762 25 21.5554 25H23C23.5523 25 24 24.5523 24 24C24 23.4477 23.5523 23 23 23H22.0542L19.9605 19.65C19.4674 18.861 18.2784 19.0025 17.9842 19.8852L16.6979 23.744L15.8617 22.4898C15.6577 22.1838 15.3143 22 14.9465 22H13C12.4477 22 12 22.4477 12 23C12 23.5523 12.4477 24 13 24H14.4648L16.0545 26.3846C16.5623 27.1462 17.7239 26.9906 18.0133 26.1222Z" fill="black"/>
</svg>
