<svg width="36" height="36" viewBox="0 0 36 36" fill="none" xmlns="http://www.w3.org/2000/svg">
<path fill-rule="evenodd" clip-rule="evenodd" d="M27.7905 22.0471L27.8447 21.7767C27.948 21.2601 28 20.7346 28 20.2079V8C28 7.44775 27.5522 7 27 7H9C8.44775 7 8 7.44775 8 8V20.2079C8 20.7346 8.052 21.2601 8.15527 21.7767L8.20947 22.0471C8.71167 24.5585 10.2764 26.7294 12.5 28L17.5212 30.7388C17.8196 30.9016 18.1804 30.9016 18.4788 30.7388L23.5 28C25.7236 26.7294 27.2883 24.5585 27.7905 22.0471ZM10 9V20.2079C10 20.6029 10.0391 20.9971 10.1165 21.3845L10.1707 21.6549C10.3115 22.3593 10.5603 23.0291 10.9021 23.6436L24.6582 9H10ZM13.4763 26.2543C12.9861 25.9725 12.5376 25.6342 12.1379 25.2491L26 10.4928V20.2079C26 20.6029 25.9609 20.9971 25.8835 21.3845L25.8293 21.6549C25.4419 23.593 24.2368 25.2694 22.5237 26.2543L18 28.7218L13.4763 26.2543Z" fill="black"/>
</svg>
