<svg width="36" height="36" viewBox="0 0 36 36" fill="none" xmlns="http://www.w3.org/2000/svg">
<path fill-rule="evenodd" clip-rule="evenodd" d="M12.5946 12.5887C12.0205 12.9615 11.4992 13.415 11.2071 13.7071L8.70711 16.2071C6.92341 17.9908 4.93726 18.5 4 18.5C3.44772 18.5 3 18.0523 3 17.5C3 16.9477 3.44772 16.5 4 16.5C4.39607 16.5 5.87659 16.2092 7.29289 14.7929L9.79289 12.2929C10.1675 11.9183 10.7962 11.3718 11.5054 10.9113C12.1746 10.4768 13.0922 10 14 10C14.9177 10 15.578 10.2977 16.0893 10.5281C16.1335 10.5481 16.1766 10.5675 16.2186 10.5862C16.7252 10.8113 17.2016 11 18 11C18.7641 11 19.1013 10.8314 19.5369 10.6135L19.5528 10.6056C20.1094 10.3273 20.7734 10 22 10C23.9201 10 25.1999 11.2825 26.5491 12.6346L26.7071 12.7929L28.7071 14.7929C28.9842 15.07 29.5164 15.5156 30.1526 15.8855C30.8031 16.2637 31.4551 16.5 32 16.5C32.5523 16.5 33 16.9477 33 17.5C33 18.0523 32.5523 18.5 32 18.5C30.9449 18.5 29.9302 18.0696 29.1474 17.6145C28.3503 17.1511 27.6824 16.5966 27.2929 16.2071L25.2929 14.2071C23.7014 12.6156 23.0051 12 22 12C21.2359 12 20.8987 12.1686 20.4631 12.3865L20.4472 12.3944C19.8906 12.6727 19.2266 13 18 13C16.7984 13 16.0248 12.6887 15.4064 12.4138L15.3178 12.3744C14.7782 12.134 14.4774 12 14 12C13.7078 12 13.2087 12.1899 12.5946 12.5887ZM5.87534 19.7192C6.3066 19.3742 6.9359 19.4441 7.28091 19.8753C7.52997 20.1867 8.2358 20.8624 9.21797 21.4571C10.1967 22.0497 11.3487 22.5 12.5 22.5C14.6143 22.5 16.1982 22.0062 17.1602 21.7062C17.3976 21.6322 17.5972 21.57 17.7575 21.5299L18 21.4693L18.2426 21.5299C18.4029 21.57 18.6024 21.6322 18.8399 21.7062C19.8019 22.0062 21.3857 22.5 23.5 22.5C24.6514 22.5 25.8034 22.0497 26.7821 21.4571C27.7643 20.8624 28.4701 20.1867 28.7192 19.8753C29.0642 19.4441 29.6935 19.3742 30.1247 19.7192C30.556 20.0642 30.6259 20.6935 30.2809 21.1247C29.8633 21.6467 28.9691 22.471 27.818 23.168C26.6634 23.867 25.1487 24.5 23.5 24.5C21.0176 24.5 19.0323 23.8694 18.1453 23.5876L18.145 23.5875C18.0928 23.5709 18.0445 23.5556 18 23.5416C17.956 23.5555 17.9081 23.5707 17.8565 23.5871L17.856 23.5872L17.8548 23.5876C16.9678 23.8694 14.9825 24.5 12.5 24.5C10.8514 24.5 9.33671 23.867 8.18211 23.168C7.03094 22.471 6.13677 21.6467 5.71917 21.1247C5.37416 20.6935 5.44408 20.0642 5.87534 19.7192ZM11 19.5C11.9442 19.5 12.7231 19.1881 13.3238 18.9475L13.3714 18.9285C14.0145 18.6712 14.4693 18.5 15 18.5C15.4472 18.5 15.6184 18.6141 15.9406 18.8289L15.9453 18.8321C16.3701 19.1153 16.9494 19.5 18 19.5C19.0506 19.5 19.6299 19.1153 20.0547 18.8321L20.0594 18.8289C20.3816 18.6141 20.5528 18.5 21 18.5C21.4774 18.5 21.7782 18.634 22.3178 18.8744L22.4064 18.9138C23.0248 19.1887 23.7984 19.5 25 19.5C25.5523 19.5 26 19.0523 26 18.5C26 17.9477 25.5523 17.5 25 17.5C24.2016 17.5 23.7252 17.3113 23.2186 17.0862C23.1766 17.0675 23.1335 17.0481 23.0893 17.0281C22.578 16.7977 21.9177 16.5 21 16.5C19.9494 16.5 19.3701 16.8847 18.9453 17.1679L18.9406 17.1711C18.6184 17.3859 18.4472 17.5 18 17.5C17.5528 17.5 17.3816 17.3859 17.0594 17.1711L17.0547 17.1679C16.6299 16.8847 16.0506 16.5 15 16.5C14.0558 16.5 13.2769 16.8119 12.6762 17.0525L12.6286 17.0715C11.9855 17.3288 11.5307 17.5 11 17.5C10.4477 17.5 10 17.9477 10 18.5C10 19.0523 10.4477 19.5 11 19.5Z" fill="black"/>
</svg>
