<svg width="36" height="36" viewBox="0 0 36 36" fill="none" xmlns="http://www.w3.org/2000/svg">
<path fill-rule="evenodd" clip-rule="evenodd" d="M29 11H7L7 26H29V11ZM7 9C5.89543 9 5 9.89543 5 11V26C5 27.1046 5.89543 28 7 28H29C30.1046 28 31 27.1046 31 26V11C31 9.89543 30.1046 9 29 9H7ZM9.5 16C9.5 14.3431 10.8431 13 12.5 13C14.1569 13 15.5 14.3431 15.5 16V17C15.5 18.6569 14.1569 20 12.5 20C10.8431 20 9.5 18.6569 9.5 17V16ZM12.5 15C11.9477 15 11.5 15.4477 11.5 16V17C11.5 17.5523 11.9477 18 12.5 18C13.0523 18 13.5 17.5523 13.5 17V16C13.5 15.4477 13.0523 15 12.5 15ZM11 21C9.89543 21 9 21.8954 9 23H16C16 21.8954 15.1046 21 14 21H11ZM27 19H19V17H27V19ZM19 23H25V21H19V23Z" fill="black"/>
</svg>
