<svg width="36" height="36" viewBox="0 0 36 36" fill="none" xmlns="http://www.w3.org/2000/svg">
<path fill-rule="evenodd" clip-rule="evenodd" d="M13 5C12.4477 5 12 5.44772 12 6V10C12 10.5523 12.4477 11 13 11V15C13.7164 15 14.3849 15.109 15 15.282V11H25V17.8959L27 16.8959V11C27.5523 11 28 10.5523 28 10V6C28 5.44772 27.5523 5 27 5H13ZM14 9H26V7H14V9ZM5 16C4.44772 16 4 16.4477 4 17C4 17.5523 4.44772 18 5 18H7V20.9772C6.99967 20.9919 6.99968 21.0066 7 21.0213V26.5V28H5C4.44772 28 4 28.4477 4 29C4 29.5523 4.44772 30 5 30H7.9C8.50752 30 9 29.5075 9 28.9V27.5223C10.1489 27.5871 11.2864 27.7935 12.3867 28.1373L15.3978 29.0783C17.4475 29.7188 19.6687 29.5084 21.5617 28.4943L31.2082 23.3265C32.674 22.5412 33.1444 20.6639 32.222 19.2802C31.4338 18.098 29.8887 17.6877 28.6178 18.3231L24.2869 20.4885C23.8985 19.6117 23.0207 19 22 19H18.4083C18.0169 19 17.6335 18.8825 17.3052 18.6618C16.1749 17.9018 14.7556 17 13 17C11.5954 17 10.1707 17.4266 9 18.2911V17.1C9 16.4925 8.50751 16 7.9 16H5ZM12.9832 26.2283C11.6898 25.8242 10.3513 25.5862 9 25.5195V21.2486C9.83743 19.7646 11.3935 19 13 19C14.0801 19 15.0378 19.5473 16.1893 20.3215C16.844 20.7617 17.6152 21 18.4083 21H22C22.2761 21 22.5 21.2239 22.5 21.5C22.5 21.7761 22.2761 22 22 22H18C17.4477 22 17 22.4477 17 23C17 23.5523 17.4477 24 18 24H22C22.9044 24 23.6967 23.5197 24.1357 22.8002L29.5122 20.1119C29.8809 19.9276 30.3292 20.0466 30.5579 20.3896C30.8255 20.7911 30.689 21.3357 30.2638 21.5635L20.6173 26.7313C19.1975 27.4919 17.5316 27.6497 15.9943 27.1693L12.9832 26.2283Z" fill="black"/>
</svg>
