<svg width="36" height="36" viewBox="0 0 36 36" fill="none" xmlns="http://www.w3.org/2000/svg">
<path d="M11 6C11.5523 6 12 6.44772 12 7L12 10H16.4045C17.4923 10 18.5504 10.3548 19.4183 11.0105L23.3757 14H26C26.5523 14 27 14.4477 27 15C27 15.5447 26.5645 15.9876 26.0228 15.9997L26.0014 16C26.0009 16 26.0005 16 26 16L14 16C13.4477 16 13 15.5523 13 15C13 14.4477 13.4477 14 14 14L20.0577 14L18.2128 12.6063C17.692 12.2129 17.0571 12 16.4045 12H10V17H12.5C13.0523 17 13.5 17.4477 13.5 18C13.5 18.5523 13.0523 19 12.5 19H7C6.44772 19 6 18.5523 6 18C6 17.4477 6.44772 17 7 17H8V12C8 10.8954 8.89543 10 10 10L10 7C10 6.44772 10.4477 6 11 6Z" fill="black"/>
<path fill-rule="evenodd" clip-rule="evenodd" d="M5 23.0008C5 21.8962 5.89543 21.0008 7 21.0008H8C8 21.0005 8 21.0011 8 21.0008L10 21C10 20.9997 10 21.0003 10 21L13.5419 21.0008C13.8488 21.0008 14.1386 20.8599 14.3282 20.6186L15.7833 18.7668C16.1625 18.2841 16.7424 18.0023 17.3563 18.0024L25.3529 18.0038C25.3514 18.0025 25.3498 18.0013 25.3483 18H27.875C27.8757 18.0014 27.8765 18.0028 27.8772 18.0042L30.1892 18.0046C32.3247 18.005 33.3069 20.6622 31.685 22.0514L25.8627 27.0386C25.1379 27.6595 24.2149 28.0007 23.2605 28.0007H7C5.89543 28.0007 5 27.1053 5 26.0007V23.0008ZM17.3559 20.0024L15.9008 21.8543C15.3321 22.5782 14.4625 23.0008 13.5419 23.0008L7 23.0008V26.0007L23.2605 26.0007C23.5519 26.0007 23.8373 25.9371 24.0979 25.8169C24.2642 25.7403 24.4204 25.6406 24.5616 25.5196L30.3839 20.5324C30.5955 20.3512 30.4674 20.0046 30.1888 20.0046L17.3559 20.0024Z" fill="black"/>
</svg>
