<svg width="36" height="36" viewBox="0 0 36 36" fill="none" xmlns="http://www.w3.org/2000/svg">
<path fill-rule="evenodd" clip-rule="evenodd" d="M22 10C22 10.6271 21.8557 11.2205 21.5985 11.7488C24.7773 13.137 27 16.308 27 20.0002V20.126C28.7252 20.5701 30 22.1362 30 24V26C30 28.2091 28.2091 30 26 30H10C7.79086 30 6 28.2091 6 26V24C6 22.1362 7.27477 20.5701 9 20.126V20.0002C9 16.308 11.2227 13.137 14.4015 11.7488C14.1443 11.2205 14 10.6271 14 10C14 7.79086 15.7909 6 18 6C20.2091 6 22 7.79086 22 10ZM11 20H25C24.9999 16.8996 22.9834 14.2677 20.1884 13.3488C19.5596 13.7606 18.8078 14 18 14C17.1923 14 16.4404 13.7606 15.8116 13.3488C13.0166 14.2677 11.0001 16.8996 11 20ZM18 12C19.1046 12 20 11.1046 20 10C20 8.89543 19.1046 8 18 8C16.8954 8 16 8.89543 16 10C16 11.1046 16.8954 12 18 12ZM8 24C8 22.8954 8.89543 22 10 22H26C27.1046 22 28 22.8954 28 24V26C28 27.1046 27.1046 28 26 28H10C8.89543 28 8 27.1046 8 26V24Z" fill="black"/>
</svg>
