<svg width="36" height="36" viewBox="0 0 36 36" fill="none" xmlns="http://www.w3.org/2000/svg">
<path fill-rule="evenodd" clip-rule="evenodd" d="M26.853 7.10108C28.5355 7.02096 29.5574 8.92922 28.5583 10.2852L23.2542 17.4837L28.4879 24.2128C29.5326 25.5559 28.6298 27.5187 26.9302 27.5997L8.99037 28.4539C7.90678 28.5055 7 27.6409 7 26.5561V9.95349C7 8.8859 7.83849 8.00653 8.90487 7.95575L26.853 7.10108ZM26.9482 9.09881L9 9.95349L9 26.4512L26.835 25.6019C26.8649 25.6005 26.8787 25.5928 26.8869 25.587C26.8983 25.579 26.9115 25.5648 26.9211 25.5438C26.9308 25.5229 26.933 25.5036 26.9317 25.4898C26.9307 25.4797 26.9276 25.4642 26.9092 25.4407L21.6755 18.7115C21.1256 18.0046 21.1128 17.0183 21.6441 16.2973L26.9482 9.09881Z" fill="black"/>
</svg>
