<svg width="36" height="36" viewBox="0 0 36 36" fill="none" xmlns="http://www.w3.org/2000/svg">
<path fill-rule="evenodd" clip-rule="evenodd" d="M10 6C9.66565 6 9.35342 6.1671 9.16795 6.4453L5.16795 12.4453C4.96338 12.7522 4.94431 13.1467 5.11833 13.4719C5.29235 13.797 5.63121 14 6 14H7V31C7 31.5523 7.44772 32 8 32C8.55228 32 9 31.5523 9 31V14H27V31C27 31.5523 27.4477 32 28 32C28.5523 32 29 31.5523 29 31V14H30C30.3688 14 30.7077 13.797 30.8817 13.4719C31.0557 13.1467 31.0366 12.7522 30.8321 12.4453L26.8321 6.4453C26.6466 6.1671 26.3344 6 26 6H10ZM28.1315 12L25.4648 8H10.5352L7.86852 12H11V9.5C11 9.22386 11.2239 9 11.5 9H12.5C12.7761 9 13 9.22386 13 9.5V12H15V9.5C15 9.22386 15.2239 9 15.5 9H16.5C16.7761 9 17 9.22386 17 9.5V12H19V9.5C19 9.22386 19.2239 9 19.5 9H20.5C20.7761 9 21 9.22386 21 9.5V12H23V9.5C23 9.22386 23.2239 9 23.5 9H24.5C24.7761 9 25 9.22386 25 9.5V12H28.1315Z" fill="black"/>
<path d="M11.5 22C11.2239 22 11 22.2239 11 22.5V25.5C11 25.7761 11.2239 26 11.5 26H12.5C12.7761 26 13 25.7761 13 25.5V22.5C13 22.2239 12.7761 22 12.5 22H11.5Z" fill="black"/>
<path d="M15 22.5C15 22.2239 15.2239 22 15.5 22H16.5C16.7761 22 17 22.2239 17 22.5V25.5C17 25.7761 16.7761 26 16.5 26H15.5C15.2239 26 15 25.7761 15 25.5V22.5Z" fill="black"/>
<path d="M19.5 22C19.2239 22 19 22.2239 19 22.5V25.5C19 25.7761 19.2239 26 19.5 26H20.5C20.7761 26 21 25.7761 21 25.5V22.5C21 22.2239 20.7761 22 20.5 22H19.5Z" fill="black"/>
<path d="M23 22.5C23 22.2239 23.2239 22 23.5 22H24.5C24.7761 22 25 22.2239 25 22.5V25.5C25 25.7761 24.7761 26 24.5 26H23.5C23.2239 26 23 25.7761 23 25.5V22.5Z" fill="black"/>
<path d="M11.5 16C11.2239 16 11 16.2239 11 16.5V19.5C11 19.7761 11.2239 20 11.5 20H12.5C12.7761 20 13 19.7761 13 19.5V16.5C13 16.2239 12.7761 16 12.5 16H11.5Z" fill="black"/>
<path d="M15 16.5C15 16.2239 15.2239 16 15.5 16H16.5C16.7761 16 17 16.2239 17 16.5V19.5C17 19.7761 16.7761 20 16.5 20H15.5C15.2239 20 15 19.7761 15 19.5V16.5Z" fill="black"/>
<path d="M19.5 16C19.2239 16 19 16.2239 19 16.5V19.5C19 19.7761 19.2239 20 19.5 20H20.5C20.7761 20 21 19.7761 21 19.5V16.5C21 16.2239 20.7761 16 20.5 16H19.5Z" fill="black"/>
<path d="M23 16.5C23 16.2239 23.2239 16 23.5 16H24.5C24.7761 16 25 16.2239 25 16.5V19.5C25 19.7761 24.7761 20 24.5 20H23.5C23.2239 20 23 19.7761 23 19.5V16.5Z" fill="black"/>
<path d="M12.5 28C11.6716 28 11 28.6716 11 29.5V31C11 31.2652 11.1054 31.5196 11.2929 31.7071C11.4804 31.8946 11.7348 32 12 32H13C13.5523 32 14 31.5523 14 31V29.5C14 28.6716 13.3284 28 12.5 28Z" fill="black"/>
<path d="M18 28C16.8954 28 16 28.8954 16 30V31C16 31.5523 16.4477 32 17 32H19C19.5523 32 20 31.5523 20 31V30C20 28.8954 19.1046 28 18 28Z" fill="black"/>
<path d="M23.5 28C22.6716 28 22 28.6716 22 29.5V31C22 31.5523 22.4477 32 23 32H24C24.5523 32 25 31.5523 25 31V29.5C25 28.6716 24.3284 28 23.5 28Z" fill="black"/>
</svg>
