<svg width="36" height="36" viewBox="0 0 36 36" fill="none" xmlns="http://www.w3.org/2000/svg">
<path d="M22.3 12.4001C21.9686 11.9582 21.3418 11.8687 20.9 12.2001C20.4582 12.5314 20.3686 13.1582 20.7 13.6001C21.5633 14.7511 22 16.2069 22 18.0001C22 18.344 22.4112 18.5678 22.702 18.3841C23.0174 18.185 23.3461 18.0049 23.6863 17.8455C23.872 17.7585 23.9946 17.5724 23.9841 17.3676C23.8854 15.4326 23.3265 13.7688 22.3 12.4001Z" fill="black"/>
<path d="M16.9453 14.168C17.4048 13.8617 18.0257 13.9858 18.3321 14.4454C19.1034 15.6024 19.5 16.7922 19.5 18.0001C19.5 19.208 19.1034 20.3977 18.3321 21.5548C18.0257 22.0143 17.4048 22.1385 16.9453 21.8321C16.4858 21.5258 16.3616 20.9049 16.6679 20.4454C17.2299 19.6024 17.5 18.7922 17.5 18.0001C17.5 17.208 17.2299 16.3977 16.6679 15.5548C16.3616 15.0952 16.4858 14.4744 16.9453 14.168Z" fill="black"/>
<path d="M15 18.0001C15 18.9666 14.4404 19.7501 13.75 19.7501C13.0596 19.7501 12.5 18.9666 12.5 18.0001C12.5 17.0336 13.0596 16.2501 13.75 16.2501C14.4404 16.2501 15 17.0336 15 18.0001Z" fill="black"/>
<path fill-rule="evenodd" clip-rule="evenodd" d="M18.5 31C11.3203 31 5.5 25.1797 5.5 18C5.5 10.8203 11.3203 5 18.5 5C25.6797 5 31.5 10.8203 31.5 18C31.5 21.1416 29.4689 23.1115 27.3857 25.132C27.0897 25.4191 26.7924 25.7074 26.5 26C26.2087 26.2915 25.9221 26.5874 25.6364 26.8822C23.6147 28.9689 21.6469 31 18.5 31ZM18.5 29C12.4249 29 7.5 24.0751 7.5 18C7.5 11.9249 12.4249 7 18.5 7C24.5751 7 29.5 11.9249 29.5 18C29.5 18.1695 29.4901 18.2867 29.4789 18.3642C29.3625 18.3976 29.1257 18.4557 28.6692 18.5323L28.5448 18.5529L28.4375 18.5705C26.911 18.8208 24.4558 19.2233 22.088 21.5836C19.7144 23.9497 19.3134 26.4111 19.0643 27.9407C19.0516 28.0185 19.0393 28.094 19.0272 28.1668C18.951 28.6244 18.8932 28.8622 18.8598 28.9794C18.7828 28.9904 18.6669 29 18.5 29ZM28.7738 20.5422C28.6314 20.7802 28.4696 21.016 28.2895 21.2529C27.67 22.0675 26.9385 22.7773 26.0816 23.6088L26.0807 23.6098C25.766 23.9151 25.4345 24.2369 25.0853 24.5863C24.7375 24.9343 24.4171 25.2648 24.1131 25.5784C23.2797 26.4381 22.5694 27.171 21.754 27.7909C21.5146 27.9729 21.2763 28.1362 21.0355 28.2797C21.2775 26.8052 21.5943 24.8997 23.5 23C25.4011 21.1049 27.3021 20.7853 28.7738 20.5422ZM29.448 18.494C29.448 18.494 29.45 18.4845 29.4574 18.4702C29.4522 18.4877 29.448 18.494 29.448 18.494ZM18.9909 28.9485C18.9909 28.9485 18.9846 28.9527 18.9672 28.9579C18.9814 28.9505 18.9909 28.9485 18.9909 28.9485Z" fill="black"/>
</svg>
