<svg width="36" height="36" viewBox="0 0 36 36" fill="none" xmlns="http://www.w3.org/2000/svg">
<path fill-rule="evenodd" clip-rule="evenodd" d="M18 6C14.6863 6 12 8.68629 12 12V17C12 20.3137 14.6863 23 18 23C21.3137 23 24 20.3137 24 17V12C24 8.68629 21.3137 6 18 6ZM14 12C14 9.79086 15.7909 8 18 8C20.2091 8 22 9.79086 22 12V17C22 19.2091 20.2091 21 18 21C15.7909 21 14 19.2091 14 17V12ZM8.70933 18.0432C9.23776 17.8827 9.79629 18.1809 9.95684 18.7093C11.0486 22.3027 14.2167 24.997 17.9939 25L18 25L18.0062 25C21.7834 24.9972 24.9514 22.3029 26.0432 18.7093C26.2037 18.1809 26.7623 17.8827 27.2907 18.0432C27.8191 18.2037 28.1174 18.7623 27.9568 19.2907C26.7391 23.2989 23.3179 26.5155 19 26.95V30.5C19 31.0523 18.5523 31.5 18 31.5C17.4477 31.5 17 31.0523 17 30.5V26.95C12.6823 26.5153 9.26091 23.2988 8.0432 19.2907C7.88266 18.7623 8.18089 18.2037 8.70933 18.0432Z" fill="black"/>
</svg>
