<svg width="36" height="36" viewBox="0 0 36 36" fill="none" xmlns="http://www.w3.org/2000/svg">
<path fill-rule="evenodd" clip-rule="evenodd" d="M28 11H8C7.44772 11 7 11.4477 7 12V25C7 25.5523 7.44772 26 8 26H28C28.5523 26 29 25.5523 29 25V12C29 11.4477 28.5523 11 28 11ZM8 9C6.34315 9 5 10.3431 5 12V25C5 26.6569 6.34315 28 8 28H28C29.6569 28 31 26.6569 31 25V12C31 10.3431 29.6569 9 28 9H8ZM8 23H10V25H8V23ZM13 23H11V25H13V23ZM14 23H16V25H14V23ZM17.3802 21.8646L13.7483 18.2432C12.7838 17.2815 12.7843 15.7191 13.7495 14.7581C14.8946 13.6181 16.8091 13.8728 17.6161 15.2726L18.0175 15.9688L18.4177 15.2747C19.224 13.8763 21.1384 13.6259 22.2773 14.7697C23.2297 15.7264 23.2292 17.2731 22.276 18.229L18.653 21.8627C18.302 22.2147 17.7322 22.2155 17.3802 21.8646Z" fill="black"/>
</svg>
