<svg width="36" height="36" viewBox="0 0 36 36" fill="none" xmlns="http://www.w3.org/2000/svg">
<path fill-rule="evenodd" clip-rule="evenodd" d="M5.03378 8.64649C4.65826 9.02162 4.44727 9.53064 4.44727 10.0614C4.44727 11.2457 4.93451 12.7913 6.09395 13.9507C7.28133 15.1381 8.87578 15.6161 10.4129 15.4413L20.5133 25.5417C20.3385 27.0788 20.8165 28.6733 22.0038 29.8606C23.1633 31.0201 24.7089 31.5073 25.8932 31.5073C26.424 31.5073 26.933 31.2963 27.3081 30.9208C28.2063 30.0217 29.1052 29.1232 30.0041 28.2247L30.8428 27.3863C31.341 26.8883 31.5132 26.1664 31.3714 25.4873C31.3577 25.4217 31.3382 25.3321 31.3124 25.2243C31.2613 25.0107 31.1835 24.7151 31.0753 24.3863C30.8888 23.8195 30.5049 22.8053 29.7753 22.0758C28.5852 20.8857 26.9943 20.4149 25.4622 20.5911L21.3944 16.5232L26.3325 11.5851L27.2641 11.7714C27.8343 11.8854 28.4189 11.6597 28.7645 11.1921L31.0937 8.04118L28.4624 5.40861L25.311 7.73893C24.8436 8.08456 24.618 8.66915 24.732 9.23918L24.9183 10.1708L19.9801 15.109L15.3635 10.4924C15.5397 8.96034 15.0689 7.36935 13.8788 6.17926C13.1493 5.44971 12.135 5.06582 11.5683 4.87931C11.2395 4.77111 10.9439 4.69328 10.7303 4.64222C10.6047 4.61221 10.4786 4.58407 10.3518 4.56014C9.70772 4.44042 9.03179 4.64811 8.56825 5.11179L7.73446 5.94592C6.83476 6.84603 5.93506 7.74613 5.03378 8.64649ZM11.3974 9.35455L9.27576 7.23293L9.98269 6.52578C9.98269 6.52578 10.9457 6.7033 11.746 7.10341C12.0195 7.24016 12.274 7.40292 12.4646 7.59347C13.403 8.53187 13.6328 9.90198 13.166 11.1234L24.8312 22.7885C26.0526 22.3218 27.4227 22.5516 28.3611 23.49C28.5517 23.6806 28.7144 23.9351 28.8512 24.2086C29.2513 25.0089 29.4288 25.9719 29.4288 25.9719L28.7216 26.6789L26.5999 24.5573L24.4779 26.679L26.6391 28.7608L25.8932 29.5073C25.594 29.5073 25.2391 29.4514 24.8726 29.3303C24.3721 29.165 23.8499 28.8782 23.4181 28.4464C22.4797 27.508 22.2432 26.1312 22.7099 24.9099L11.0447 13.2447C9.82335 13.7114 8.44656 13.4749 7.50816 12.5365C7.07636 12.1047 6.78958 11.5825 6.62427 11.082C6.55701 10.8784 6.50985 10.6784 6.48122 10.4895C6.45831 10.3384 6.44727 10.1944 6.44727 10.0614L7.18072 9.32856L9.27599 11.4766L11.3974 9.35455Z" fill="black"/>
<path d="M11.6317 19.4883L5.97239 25.1476C4.60556 26.5145 4.60556 28.7305 5.97239 30.0974C7.33923 31.4642 9.55531 31.4642 10.9221 30.0974L16.5815 24.438L15.1673 23.0238L9.50793 28.6832C8.92214 29.2689 7.97239 29.2689 7.38661 28.6832C6.80082 28.0974 6.80082 27.1476 7.38661 26.5618L13.046 20.9025L11.6317 19.4883Z" fill="black"/>
</svg>
