<svg width="36" height="36" viewBox="0 0 36 36" fill="none" xmlns="http://www.w3.org/2000/svg">
<path fill-rule="evenodd" clip-rule="evenodd" d="M7 8C7 6.34315 8.34315 5 10 5H26C27.6569 5 29 6.34315 29 8V28C29 29.6569 27.6569 31 26 31H10C8.34315 31 7 29.6569 7 28V8ZM10 7C9.44771 7 9 7.44772 9 8V28C9 28.5523 9.44772 29 10 29H26C26.5523 29 27 28.5523 27 28V8C27 7.44772 26.5523 7 26 7H14V9H12V7H10ZM14 11V9H16V11H14ZM14 13H12V11H14V13ZM14 15H16V13H14V15ZM14 15V17H12V15H14ZM10.8613 25.9998V20.4634C11.2108 20.4529 11.5339 20.4396 11.8304 20.4237C12.127 20.4078 12.4341 20.3999 12.7518 20.3999C13.1914 20.3999 13.5594 20.4396 13.8559 20.519C14.1525 20.5932 14.3881 20.707 14.5629 20.8606C14.7429 21.0142 14.87 21.2075 14.9442 21.4405C15.0236 21.6682 15.0633 21.9356 15.0633 22.2427C15.0633 22.4704 15.0474 22.6743 15.0157 22.8543C14.9839 23.0344 14.9309 23.1959 14.8568 23.3389C14.7879 23.4818 14.6953 23.6063 14.5788 23.7122C14.4623 23.8181 14.3193 23.9081 14.1498 23.9823L15.5002 25.9998H14.0625L12.8551 24.1252H12.164V25.9998H10.8613ZM12.7518 23.1006C13.1225 23.1006 13.374 23.0397 13.5064 22.9179C13.6441 22.7908 13.713 22.5896 13.713 22.3142C13.713 22.1818 13.6971 22.068 13.6653 21.9726C13.6388 21.8773 13.5885 21.8005 13.5144 21.7423C13.4402 21.6787 13.3396 21.6337 13.2125 21.6073C13.0854 21.5755 12.9239 21.5596 12.728 21.5596C12.6115 21.5596 12.5109 21.5622 12.4262 21.5675C12.3414 21.5728 12.2461 21.5808 12.1402 21.5914V23.1006H12.7518ZM18.9396 24.8401H17.1365L16.7949 25.9998H15.5002L17.2954 20.4396H18.8443L20.6315 25.9998H19.2891L18.9396 24.8401ZM17.4542 23.7598H18.6219L18.0341 21.7899L17.4542 23.7598ZM21.0002 20.4636V26H22.3029V24.1254H22.994L24.2013 26H25.6391L24.2887 23.9824C24.4582 23.9083 24.6011 23.8183 24.7176 23.7124C24.8341 23.6065 24.9268 23.482 24.9957 23.3391C25.0698 23.1961 25.1227 23.0346 25.1545 22.8545C25.1863 22.6745 25.2022 22.4706 25.2022 22.2429C25.2022 21.9358 25.1625 21.6684 25.083 21.4406C25.0089 21.2076 24.8818 21.0144 24.7018 20.8608C24.527 20.7072 24.2914 20.5934 23.9948 20.5192C23.6983 20.4398 23.3302 20.4001 22.8907 20.4001C22.573 20.4001 22.2658 20.408 21.9693 20.4239C21.6727 20.4398 21.3497 20.4531 21.0002 20.4636ZM23.6453 22.9181C23.5129 23.0399 23.2614 23.1008 22.8907 23.1008H22.2791V21.5916C22.385 21.581 22.4803 21.573 22.565 21.5677C22.6497 21.5624 22.7504 21.5598 22.8669 21.5598C23.0628 21.5598 23.2243 21.5757 23.3514 21.6075C23.4785 21.6339 23.5791 21.6789 23.6532 21.7425C23.7274 21.8007 23.7777 21.8775 23.8042 21.9728C23.8359 22.0682 23.8518 22.182 23.8518 22.3144C23.8518 22.5898 23.783 22.791 23.6453 22.9181Z" fill="black"/>
</svg>
