<svg width="36" height="36" viewBox="0 0 36 36" fill="none" xmlns="http://www.w3.org/2000/svg">
<path fill-rule="evenodd" clip-rule="evenodd" d="M30.5 12.7507V9.5C30.5 8.3302 29.7275 7.60833 29.2672 7.28053C28.7627 6.92122 28.1634 6.68271 27.6065 6.51682C26.4671 6.17742 25.0149 6 23.5 6C21.9851 6 20.5329 6.17742 19.3935 6.51682C18.8366 6.68271 18.2373 6.92122 17.7328 7.28053C17.2725 7.60833 16.5 8.3302 16.5 9.5V12.9173C16.5 12.9455 16.5005 12.9734 16.5013 13.001L16.5 13V13.4422C15.3538 13.5031 14.2791 13.669 13.3935 13.9328C12.8366 14.0987 12.2373 14.3372 11.7328 14.6965C11.2725 15.0244 10.5 15.7462 10.5 16.916V20.3333C10.5 20.3615 10.5005 20.3894 10.5013 20.417L10.5 20.416V21.0598C9.54226 21.1379 8.64914 21.2917 7.89355 21.5168C7.33667 21.6827 6.7373 21.9213 6.23267 22.2805C5.77246 22.6083 5 23.3302 5 24.5V28.4174C5 29.552 5.73291 30.278 6.16895 30.6154C6.65869 30.9945 7.24829 31.2638 7.81396 31.4584C8.96655 31.8547 10.4426 32.084 12 32.084C13.5996 32.084 15.0996 31.8004 16.2622 31.347C16.835 31.1237 17.4143 30.8248 17.8894 30.4277C18.3032 30.082 19 29.3527 19 28.2506V27.9163C20.0268 27.8007 20.9724 27.5711 21.7622 27.2631C22.335 27.0397 22.9144 26.7409 23.3895 26.3438C23.7533 26.0398 24.3361 25.4391 24.4713 24.5491C25.7018 24.4603 26.8385 24.2073 27.7622 23.8471C28.335 23.6237 28.9144 23.3248 29.3895 22.9278C29.8032 22.5821 30.5 21.8527 30.5 20.7507V17L30.4866 17.0134C30.4953 16.9283 30.5 16.8407 30.5 16.7507V13L30.4866 13.0134C30.4953 12.9283 30.5 12.8407 30.5 12.7507ZM24.5 22.5405C26.7822 22.3408 28.5 21.4898 28.5 20.7507V19.5131C28.2588 19.6398 28.0099 19.7505 27.7622 19.8471C26.8457 20.2045 25.7195 20.4564 24.5 20.547V22.5405ZM24.5 18.5405C26.7822 18.3408 28.5 17.4898 28.5 16.7507V15.5131C28.2588 15.6398 28.0099 15.7505 27.7622 15.8471C26.8391 16.207 25.7034 16.46 24.4738 16.5489C24.4908 16.666 24.5 16.7883 24.5 16.916V18.5405ZM23.0906 14.5779C23.2256 14.5819 23.3622 14.584 23.5 14.584C26.2614 14.584 28.5 13.5944 28.5 12.7507V11.604C28.4224 11.6437 28.3431 11.6816 28.2625 11.7178C28.0098 11.8312 27.7446 11.9275 27.479 12.0096C26.7241 12.2434 25.8079 12.4111 24.8105 12.4905C24.7715 12.4968 24.7314 12.5 24.6907 12.5C24.2764 12.5 23.9407 12.1642 23.9407 11.75C23.9407 11.3368 24.2749 11.0016 24.6877 11V10.9955C26.8757 10.822 28.5 10.1887 28.5 9.54189C28.4998 8.78253 26.2614 8.04199 23.5 8.04199C20.7385 8.04199 18.5 8.78259 18.5 9.54199C18.5 9.91394 19.0371 10.2815 19.9097 10.5596L19.9089 10.5624C20.2478 10.6345 20.502 10.9355 20.502 11.2959C20.502 11.7101 20.1663 12.0459 19.752 12.0459C19.6714 12.0459 19.594 12.0332 19.5212 12.0098C19.1709 11.9013 18.821 11.7683 18.5 11.604V12.9173C18.5 13.1024 18.6077 13.2864 18.805 13.461C19.8364 13.5335 20.7999 13.6926 21.6065 13.9328C22.0997 14.0798 22.6261 14.2836 23.0906 14.5779ZM12.5 20.3333C12.5 20.572 12.6791 20.809 12.9984 21.0261C14.1452 21.0869 15.2204 21.2528 16.1064 21.5168C16.5028 21.6349 16.9206 21.7897 17.3105 21.9987C17.3733 21.9996 17.4365 22 17.5 22C20.2614 22 22.5 21.0104 22.5 20.1667V19.02C22.4224 19.0598 22.3431 19.0976 22.2625 19.1338C22.0098 19.2472 21.7446 19.3435 21.479 19.4257C20.7241 19.6594 19.8079 19.8271 18.8105 19.9065C18.7715 19.9128 18.7314 19.916 18.6907 19.916C18.2764 19.916 17.9407 19.5802 17.9407 19.166C17.9407 18.7528 18.2749 18.4176 18.6877 18.416V18.4115C20.8757 18.238 22.5 17.6048 22.5 16.9579C22.4998 16.1985 20.2614 15.458 17.5 15.458C14.7385 15.458 12.5 16.1986 12.5 16.958C12.5 17.33 13.0371 17.6975 13.9097 17.9756L13.9089 17.9784C14.2478 18.0505 14.502 18.3516 14.502 18.7119C14.502 19.1261 14.1663 19.4619 13.752 19.4619C13.6714 19.4619 13.594 19.4492 13.5212 19.4258C13.1709 19.3173 12.821 19.1843 12.5 19.02V20.3333ZM19 24.5C19 24.2941 18.9761 24.102 18.9341 23.9236C19.9863 23.8105 20.9555 23.5777 21.7622 23.2631C22.0099 23.1665 22.2588 23.0558 22.5 22.9291V24.1667C22.5 24.8508 21.0286 25.6307 19 25.9014V24.5ZM17 26.562C16.9224 26.6017 16.843 26.6396 16.7625 26.6758C16.5098 26.7892 16.2446 26.8855 15.979 26.9677C15.2241 27.2014 14.3079 27.3691 13.3105 27.4485C13.2915 27.4515 13.2722 27.454 13.2527 27.4556C13.2322 27.4572 13.2114 27.458 13.1907 27.458C12.7764 27.458 12.4407 27.1222 12.4407 26.708C12.4407 26.2948 12.7749 25.9596 13.1877 25.958V25.9535C15.3757 25.78 17 25.1469 17 24.5C17 23.7406 14.7615 23 12 23C9.23853 23 7 23.7406 7 24.5C7 24.8719 7.53711 25.2395 8.40967 25.5176L8.40894 25.5204C8.7478 25.5925 9.00195 25.8936 9.00195 26.2539C9.00195 26.6681 8.66626 27.0039 8.25195 27.0039C8.19751 27.0039 8.14478 26.9982 8.09375 26.9872C8.06909 26.9819 8.04492 26.9755 8.02124 26.9678C7.6709 26.8594 7.32104 26.7263 7 26.562V28.4174C7 29.2611 9.23853 30.084 12 30.084C14.7615 30.084 17 29.0944 17 28.2506V26.562Z" fill="black"/>
</svg>
