<svg width="36" height="36" viewBox="0 0 36 36" fill="none" xmlns="http://www.w3.org/2000/svg">
<path fill-rule="evenodd" clip-rule="evenodd" d="M4.55279 13.6056L17.5528 7.10557C17.8343 6.96481 18.1657 6.96481 18.4472 7.10557L31.4472 13.6056C32.1843 13.9741 32.1843 15.0259 31.4472 15.3944L27 17.618V23C27 25.8639 22.8159 28 18 28C13.1841 28 9 25.8639 9 23V17.618L4.55279 15.3944C3.81574 15.0259 3.81574 13.9741 4.55279 13.6056ZM11 18.618V23C11 24.3944 14.145 26 18 26C21.855 26 25 24.3944 25 23V18.618L18.4472 21.8944C18.1657 22.0352 17.8343 22.0352 17.5528 21.8944L11 18.618ZM29 19V24C29 24.5523 29.4477 25 30 25C30.5523 25 31 24.5523 31 24V19C31 18.4477 30.5523 18 30 18C29.4477 18 29 18.4477 29 19ZM18 9.11803L28.7639 14.5L18 19.882L7.23607 14.5L18 9.11803Z" fill="black"/>
</svg>
