<svg width="36" height="36" viewBox="0 0 36 36" fill="none" xmlns="http://www.w3.org/2000/svg">
<path fill-rule="evenodd" clip-rule="evenodd" d="M22.0472 22.2872C21.4035 22.9309 20.4189 23.0872 19.6077 22.6754C18.4298 22.0774 16.9851 20.9179 15.8173 19.7501C14.6588 18.5916 13.4937 17.1635 12.8919 15.9783C12.48 15.167 12.6364 14.1825 13.2801 13.5388L14.7239 12.095C14.958 11.8608 14.958 11.4908 14.7239 11.2567L12.1339 8.66666C11.8867 8.41952 11.4761 8.41952 11.229 8.66666L9.37576 10.5199C9.2417 10.654 8.90138 11.3689 8.99224 12.3899C9.13181 13.9583 9.92062 15.7243 11.0176 17.4207C12.095 19.087 13.3553 20.5112 14.2057 21.3616C15.0425 22.1985 16.4779 23.4409 18.1621 24.5044C19.8747 25.5857 21.664 26.3669 23.2449 26.5076C24.3192 26.6032 24.9778 26.2797 25.0859 26.1716L26.9193 24.3382C27.1664 24.0911 27.1664 23.6805 26.9193 23.4334L24.3293 20.8434C24.0951 20.6093 23.7251 20.6093 23.491 20.8434L22.0472 22.2872ZM7.00011 12.5672C7.36294 16.6443 10.9415 20.9259 12.7915 22.7758C14.6414 24.6258 18.9904 28.1369 23.0676 28.4997C24.4266 28.6206 25.7965 28.2895 26.5001 27.5858L28.3335 25.7525C29.3617 24.7243 29.3617 23.0474 28.3335 22.0192L25.7435 19.4292C24.7283 18.414 23.092 18.414 22.0768 19.4292L20.633 20.873C20.6014 20.9046 20.5529 20.9123 20.5131 20.8921C19.5983 20.4276 18.3245 19.4289 17.2315 18.3358C16.1384 17.2427 15.1397 15.9876 14.6752 15.0729C14.655 15.0331 14.6627 14.9846 14.6944 14.953L16.1381 13.5092C17.1533 12.494 17.1533 10.8577 16.1381 9.84248L13.5481 7.25244C12.5199 6.22425 10.843 6.22426 9.81479 7.25245L7.96154 9.10571C7.25791 9.80935 6.87917 11.2081 7.00011 12.5672Z" fill="black"/>
</svg>
