<svg width="36" height="36" viewBox="0 0 36 36" fill="none" xmlns="http://www.w3.org/2000/svg">
<path fill-rule="evenodd" clip-rule="evenodd" d="M11 4C9.18981 4 7.50296 4.44635 6.23591 5.22066C4.98602 5.98448 4 7.17395 4 8.66667V12.3333C4 13.8261 4.98603 15.0155 6.23591 15.7793C7.50296 16.5537 9.18981 17 11 17C12.8102 17 14.497 16.5537 15.7641 15.7793C17.014 15.0155 18 13.8261 18 12.3333V8.66667C18 7.17395 17.014 5.98448 15.7641 5.22066C14.497 4.44635 12.8102 4 11 4ZM6 8.66667C6 8.13434 6.35713 7.49048 7.27881 6.92723C8.18333 6.37446 9.49649 6 11 6C12.5035 6 13.8167 6.37446 14.7212 6.92723C15.6429 7.49048 16 8.13434 16 8.66667V9.52855C15.7767 9.90972 15.3994 10.2846 14.8516 10.6194C13.9017 11.1999 12.5418 11.5833 11 11.5833C10.7095 11.5833 10.4248 11.5697 10.1474 11.5435C9.735 11.5046 9.36915 11.8074 9.33024 12.2198C9.29133 12.6321 9.59408 12.998 10.0065 13.0369C10.3309 13.0675 10.6627 13.0833 11 13.0833C12.7719 13.0833 14.412 12.646 15.6337 11.8994C15.7593 11.8226 15.8816 11.7418 16 11.6569V12.3333C16 12.8657 15.6429 13.5095 14.7212 14.0728C13.8167 14.6256 12.5035 15 11 15C9.49649 15 8.18334 14.6256 7.27881 14.0728C6.35712 13.5095 6 12.8657 6 12.3333V11.6568C6.14971 11.7641 6.30574 11.8651 6.46675 11.9595C6.82405 12.1691 7.28357 12.0493 7.49311 11.692C7.70265 11.3347 7.58286 10.8751 7.22556 10.6656C6.6363 10.32 6.23389 9.92769 6 9.5283V8.66667Z" fill="black"/>
<path fill-rule="evenodd" clip-rule="evenodd" d="M6.23591 20.2207C7.50296 19.4464 9.18981 19 11 19C12.8102 19 14.497 19.4464 15.7641 20.2207C17.014 20.9845 18 22.174 18 23.6667V27.3333C18 28.826 17.014 30.0155 15.7641 30.7793C14.497 31.5536 12.8102 32 11 32C9.18981 32 7.50296 31.5536 6.23591 30.7793C4.98603 30.0155 4 28.826 4 27.3333V23.6667C4 22.174 4.98602 20.9845 6.23591 20.2207ZM7.27881 21.9272C6.35712 22.4905 6 23.1343 6 23.6667V24.5283C6.23389 24.9277 6.6363 25.32 7.22556 25.6656C7.58286 25.8751 7.70265 26.3347 7.49311 26.692C7.28357 27.0493 6.82405 27.169 6.46675 26.9595C6.30574 26.8651 6.14971 26.7641 6 26.6568V27.3333C6 27.8656 6.35712 28.5095 7.27881 29.0728C8.18334 29.6255 9.49649 30 11 30C12.5035 30 13.8167 29.6255 14.7212 29.0728C15.6429 28.5095 16 27.8656 16 27.3333V26.6569C15.8816 26.7418 15.7593 26.8226 15.6337 26.8994C14.412 27.646 12.7719 28.0833 11 28.0833C10.6627 28.0833 10.3309 28.0675 10.0065 28.0369C9.59408 27.998 9.29133 27.6321 9.33024 27.2197C9.36915 26.8074 9.735 26.5046 10.1474 26.5435C10.4248 26.5697 10.7095 26.5833 11 26.5833C12.5419 26.5833 13.9017 26.1999 14.8516 25.6194C15.3994 25.2846 15.7767 24.9097 16 24.5285V23.6667C16 23.1343 15.6429 22.4905 14.7212 21.9272C13.8167 21.3745 12.5035 21 11 21C9.49648 21 8.18333 21.3745 7.27881 21.9272Z" fill="black"/>
<path fill-rule="evenodd" clip-rule="evenodd" d="M21.2359 13.2207C22.503 12.4464 24.1898 12 26 12C27.8102 12 29.497 12.4464 30.7641 13.2207C32.014 13.9845 33 15.1739 33 16.6667V20.3333C33 21.826 32.014 23.0155 30.7641 23.7793C29.497 24.5536 27.8102 25 26 25C24.1898 25 22.503 24.5536 21.2359 23.7793C19.986 23.0155 19 21.826 19 20.3333V16.6667C19 15.174 19.986 13.9845 21.2359 13.2207ZM22.2788 14.9272C21.3571 15.4905 21 16.1343 21 16.6667V17.5283C21.2339 17.9277 21.6363 18.32 22.2256 18.6656C22.5829 18.8751 22.7026 19.3347 22.4931 19.692C22.2836 20.0493 21.824 20.169 21.4667 19.9595C21.3057 19.8651 21.1497 19.7641 21 19.6568V20.3333C21 20.8656 21.3571 21.5095 22.2788 22.0728C23.1833 22.6255 24.4965 23 26 23C27.5035 23 28.8167 22.6255 29.7212 22.0728C30.6429 21.5095 31 20.8656 31 20.3333V19.6569C30.8816 19.7418 30.7593 19.8226 30.6337 19.8994C29.412 20.646 27.7719 21.0833 26 21.0833C25.6627 21.0833 25.3309 21.0675 25.0065 21.0369C24.5941 20.998 24.2913 20.6321 24.3302 20.2197C24.3692 19.8074 24.735 19.5046 25.1474 19.5435C25.4248 19.5697 25.7095 19.5833 26 19.5833C27.5419 19.5833 28.9017 19.1999 29.8516 18.6194C30.3994 18.2846 30.7767 17.9097 31 17.5285V16.6667C31 16.1343 30.6429 15.4905 29.7212 14.9272C28.8167 14.3745 27.5035 14 26 14C24.4965 14 23.1833 14.3745 22.2788 14.9272Z" fill="black"/>
</svg>
