<svg width="36" height="36" viewBox="0 0 36 36" fill="none" xmlns="http://www.w3.org/2000/svg">
<path fill-rule="evenodd" clip-rule="evenodd" d="M10 5C8.34315 5 7 6.34315 7 8V28C7 29.6569 8.34315 31 10 31H26C27.6569 31 29 29.6569 29 28V8C29 6.34315 27.6569 5 26 5H10ZM9 8C9 7.44772 9.44771 7 10 7H26C26.5523 7 27 7.44772 27 8V28C27 28.5523 26.5523 29 26 29H10C9.44772 29 9 28.5523 9 28V8ZM19 25H12V23H19V25ZM12 21H24V19H12V21ZM14 16C14 13.7909 15.7909 12 18 12C18.5707 12 19.111 12.1189 19.5996 12.3324L20.4004 10.4997C19.664 10.178 18.8515 10 18 10C14.6863 10 12 12.6863 12 16H14ZM20.8 13.1434C21.5417 13.8705 22 14.8808 22 16H24C24 14.3218 23.3097 12.803 22.2 11.7152L20.8 13.1434Z" fill="black"/>
</svg>
