<svg width="36" height="36" viewBox="0 0 36 36" fill="none" xmlns="http://www.w3.org/2000/svg">
<path fill-rule="evenodd" clip-rule="evenodd" d="M18.2499 9C16.7312 9 15.4999 10.2312 15.4999 11.75V12C15.4999 12.5523 15.0522 13 14.4999 13C13.9477 13 13.4999 12.5523 13.4999 12V11.75C13.4999 9.12665 15.6266 7 18.2499 7H18.3929C20.9373 7 22.9999 9.06266 22.9999 11.6071C22.9999 12.7519 22.5737 13.8558 21.8042 14.7035L19.7649 16.9502C19.3537 17.4033 19.4421 18.1161 19.9517 18.455L30.2976 25.3346C31.9463 26.431 31.1702 29 29.1901 29H6.57512C4.63817 29 3.83229 26.5218 5.39878 25.3825L13.9118 19.1913C14.3584 18.8664 14.9838 18.9652 15.3087 19.4118C15.6335 19.8585 15.5348 20.4839 15.0881 20.8087L6.57512 27H29.1901L18.8442 20.1204C17.3156 19.1039 17.0502 16.9652 18.284 15.606L20.3233 13.3593C20.7587 12.8796 20.9999 12.2549 20.9999 11.6071C20.9999 10.1672 19.8327 9 18.3929 9H18.2499Z" fill="black"/>
</svg>
