<svg width="36" height="36" viewBox="0 0 36 36" fill="none" xmlns="http://www.w3.org/2000/svg">
<path fill-rule="evenodd" clip-rule="evenodd" d="M11.5466 7.99233C14.2358 7.13916 17.0105 6.83563 19.83 7.08369C22.1806 7.26425 24.3299 7.78303 26.2863 8.68622C27.4919 9.2407 28.3908 9.83985 29.1281 10.6712C29.7259 11.3524 30.0197 12.1607 29.9992 13.0743L29.9943 13.3875L29.9905 14.7453L29.9795 15.3493C29.9005 16.7289 28.8846 17.6888 27.4708 17.6888L27.4629 17.6888L27.6836 17.9873L27.7393 18.0711C28.546 19.4296 29.0005 21.2079 29.0005 22.8688V25.6958C29.0005 27.352 27.6567 28.6958 26.0005 28.6958H10.0005C8.34417 28.6958 7.00046 27.352 7.00046 25.6958V22.8688C7.00046 21.1607 7.48662 19.4878 8.40195 18.0462L8.62831 17.6892L8.56246 17.6888C7.12002 17.6888 6.10251 16.7294 6.02342 15.3229L6.01846 15.1448L6.0276 13.8654C6.02685 13.7717 6.02528 13.6867 6.02277 13.6054L6.00457 13.2478C5.94798 12.0466 6.41871 11.0454 7.34174 10.2039C8.24812 9.38209 9.32683 8.78378 10.6703 8.29069L11.0433 8.15874L11.5466 7.99233ZM24.7698 17.6936L25.046 17.6921C25.0785 17.7955 25.1283 17.8952 25.1963 17.9872L26.0441 19.1339C26.6458 20.1685 27.0005 21.5734 27.0005 22.8688V25.6958C27.0005 26.2475 26.5522 26.6958 26.0005 26.6958H10.0005C9.44874 26.6958 9.00046 26.2475 9.00046 25.6958V22.8688C9.00046 21.5403 9.37856 20.2393 10.0907 19.1178L10.845 17.9283C10.8931 17.8523 10.9298 17.7724 10.9554 17.6904L11.4675 17.6888L11.6421 17.6838C13.0216 17.6048 13.9815 16.5889 13.9815 15.1748L13.9742 13.4884L14.2974 13.3815C14.3702 13.3593 14.4362 13.3408 14.5 13.3249C15.942 13.0065 18.0203 12.9316 19.7378 13.1123L20.3407 13.1808C21.0131 13.265 21.5754 13.3647 22.0062 13.4855L21.9952 14.2052L21.9949 14.7822L22.0056 15.3311C22.0802 16.6839 23.0065 17.6091 24.3781 17.6839L24.7698 17.6936ZM11.3482 10.1724L11.693 10.0503C14.2736 9.16189 16.9377 8.83694 19.6658 9.07691C21.801 9.24098 23.7194 9.70405 25.4493 10.5027C26.4258 10.9518 27.1055 11.4048 27.6283 11.9943C27.8921 12.2949 28.009 12.6165 27.9997 13.0303L27.9934 13.4817L27.9896 14.8416L27.9847 15.1533C27.9845 15.5429 27.8387 15.6888 27.4705 15.6888L24.879 15.6949L24.4797 15.6862C24.1443 15.6668 24.0227 15.5469 24.0033 15.2314L23.9944 14.7056C23.9938 14.6116 23.9937 14.5162 23.994 14.4162L24.0152 13.0593C24.0155 12.4643 23.7241 12.02 23.2037 11.7852C22.3855 11.4505 21.3369 11.2669 19.9453 11.1231C18.0271 10.9213 15.7355 11.0038 14.0416 11.3783C13.8966 11.4143 13.7656 11.4517 13.6262 11.496L12.8874 11.7483L12.754 11.7989C12.24 12.0209 11.9665 12.4752 11.9665 13.0528L11.9796 14.1073L11.9815 15.1748C11.9815 15.543 11.8356 15.6888 11.4675 15.6888L9.29354 15.6949L8.57558 15.6888C8.20167 15.6888 8.04716 15.5683 8.02216 15.2472L8.02327 14.5992L8.0277 14.1693C8.0295 13.8727 8.02719 13.6542 8.01868 13.4453L8.00099 13.1305C7.97556 12.585 8.18338 12.143 8.68718 11.6837C9.37536 11.0597 10.2341 10.5826 11.3482 10.1724ZM22.0005 20.6955C22.0005 18.4862 20.2097 16.6955 18.0005 16.6955C15.7912 16.6955 14.0005 18.4862 14.0005 20.6955C14.0005 22.9047 15.7912 24.6955 18.0005 24.6955C20.2097 24.6955 22.0005 22.9047 22.0005 20.6955ZM16.0005 20.6955C16.0005 19.5907 16.8957 18.6955 18.0005 18.6955C19.1052 18.6955 20.0005 19.5907 20.0005 20.6955C20.0005 21.8002 19.1052 22.6955 18.0005 22.6955C16.8957 22.6955 16.0005 21.8002 16.0005 20.6955Z" fill="black"/>
</svg>
