<svg width="36" height="36" viewBox="0 0 36 36" fill="none" xmlns="http://www.w3.org/2000/svg">
<path fill-rule="evenodd" clip-rule="evenodd" d="M18.0001 7.17485L29.4752 14.2512C29.9453 14.5411 30.5614 14.395 30.8513 13.9249C31.1412 13.4548 30.9951 12.8387 30.525 12.5488L28.0001 10.9918V7.0001C28.0001 6.44782 27.5524 6.0001 27.0001 6.0001C26.4479 6.0001 26.0001 6.44782 26.0001 7.0001V9.75848L18.525 5.14883C18.2032 4.95039 17.797 4.95039 17.4753 5.14883L5.47525 12.5488C5.00516 12.8387 4.85908 13.4548 5.14897 13.9249C5.43886 14.395 6.05494 14.5411 6.52503 14.2512L18.0001 7.17485ZM14.0048 16.588C13.9768 17.047 14.0868 17.478 14.2428 17.9C14.5638 18.771 15.0588 19.55 15.6638 20.256C16.4708 21.219 17.4428 21.98 18.5708 22.53C19.0748 22.778 19.6068 22.97 20.1758 22.998C20.5698 23.016 20.9088 22.916 21.1838 22.613C21.3151 22.4624 21.4597 22.3215 21.6051 22.1798C21.6635 22.1229 21.722 22.0659 21.7798 22.008C22.0738 21.714 22.0738 21.348 21.7798 21.054C21.5475 20.815 21.3107 20.5804 21.0753 20.3473L21.0753 20.3473L21.0753 20.3473C20.9582 20.2313 20.8415 20.1156 20.7258 20C20.4418 19.715 20.0748 19.715 19.7898 20L19.6802 20.11C19.4974 20.2934 19.3147 20.4767 19.1388 20.66C19.0748 20.724 19.0298 20.733 18.9558 20.696C18.9143 20.6754 18.8727 20.6555 18.8314 20.6356L18.8314 20.6356L18.8312 20.6356C18.7264 20.5853 18.6231 20.5358 18.5248 20.477C17.8918 20.073 17.3508 19.56 16.8838 18.982C16.6448 18.689 16.4438 18.386 16.2968 18.037C16.2688 17.964 16.2788 17.918 16.3338 17.863L16.3659 17.8323C16.5752 17.6316 16.7841 17.4313 16.9848 17.221C17.2868 16.919 17.2868 16.561 16.9848 16.258C16.8828 16.151 16.7769 16.047 16.6697 15.9418C16.6037 15.877 16.5372 15.8117 16.4708 15.745L16.2955 15.5694L16.2951 15.569L16.2939 15.5678C16.1753 15.449 16.0553 15.3288 15.9388 15.213C15.6548 14.929 15.2878 14.929 15.0038 15.213C14.8939 15.3185 14.7839 15.4285 14.6739 15.5384L14.6738 15.5385C14.5638 15.6485 14.4538 15.7585 14.3438 15.864C14.1328 16.066 14.0228 16.304 14.0048 16.588ZM26.0001 27.0001V16.0001C26.0001 15.4478 26.4479 15.0001 27.0001 15.0001C27.5524 15.0001 28.0001 15.4478 28.0001 16.0001V27.0001C28.0001 28.6564 26.6564 30.0001 25.0001 30.0001H11.0001C9.34385 30.0001 8.00014 28.6564 8.00014 27.0001V16.0001C8.00014 15.4478 8.44785 15.0001 9.00014 15.0001C9.55242 15.0001 10.0001 15.4478 10.0001 16.0001V27.0001C10.0001 27.5518 10.4484 28.0001 11.0001 28.0001H25.0001C25.5519 28.0001 26.0001 27.5518 26.0001 27.0001Z" fill="black"/>
</svg>
