<svg width="36" height="36" viewBox="0 0 36 36" fill="none" xmlns="http://www.w3.org/2000/svg">
<path fill-rule="evenodd" clip-rule="evenodd" d="M18 3C18.5523 3 19 3.44772 19 4V7C19 7.55228 18.5523 8 18 8C17.4477 8 17 7.55228 17 7V4C17 3.44772 17.4477 3 18 3ZM14 5C14 4.44772 13.5523 4 13 4C12.4477 4 12 4.44772 12 5V8C12 8.55228 12.4477 9 13 9C13.5523 9 14 8.55228 14 8V5ZM9 22C9 17.0294 13.0294 13 18 13C22.9706 13 27 17.0294 27 22C27 26.9706 22.9706 31 18 31C13.0294 31 9 26.9706 9 22ZM18 11C11.9249 11 7 15.9249 7 22C7 28.0751 11.9249 33 18 33C24.0751 33 29 28.0751 29 22C29 15.9249 24.0751 11 18 11ZM24 5C24 4.44772 23.5523 4 23 4C22.4477 4 22 4.44772 22 5V8C22 8.55228 22.4477 9 23 9C23.5523 9 24 8.55228 24 8V5ZM16.5 18V21.5H18.75C19.7165 21.5 20.5 20.7165 20.5 19.75C20.5 18.7835 19.7165 18 18.75 18H16.5ZM22.5 19.75C22.5 21.8211 20.8211 23.5 18.75 23.5H16.5V24.5H18.5C19.0523 24.5 19.5 24.9477 19.5 25.5C19.5 26.0523 19.0523 26.5 18.5 26.5H16.5V27C16.5 27.5523 16.0523 28 15.5 28C14.9477 28 14.5 27.5523 14.5 27V26.5H14C13.4477 26.5 13 26.0523 13 25.5C13 24.9477 13.4477 24.5 14 24.5H14.5V23.5H14C13.4477 23.5 13 23.0523 13 22.5C13 21.9477 13.4477 21.5 14 21.5H14.5V17.1C14.5 16.4925 14.9925 16 15.6 16H18.75C20.8211 16 22.5 17.6789 22.5 19.75Z" fill="black"/>
</svg>
