<svg width="36" height="36" viewBox="0 0 36 36" fill="none" xmlns="http://www.w3.org/2000/svg">
<path fill-rule="evenodd" clip-rule="evenodd" d="M7.41452 14L10.0001 14C10.5524 14 11.0001 14.4477 11.0001 15C11.0001 15.5523 10.5524 16 10.0001 16L7.41431 16L18.0001 26.5858L28.5859 16H14.0001C13.4478 16 13.0001 15.5523 13.0001 15C13.0001 14.4477 13.4478 14 14.0001 14H28.5857L25.5859 11.0005H10.4143L7.41452 14ZM10.4142 9.00049H25.586C26.1164 9.00052 26.625 9.2112 27 9.5862L30.2928 12.8787C31.4645 14.0502 31.4646 15.9498 30.2929 17.1214L19.4143 28C18.6333 28.7811 17.367 28.7811 16.5859 28L5.70729 17.1214C4.53568 15.9498 4.53573 14.0502 5.7074 12.8787L9.00018 9.58621C9.37522 9.21121 9.88385 9.00052 10.4142 9.00049Z" fill="black"/>
</svg>
