<svg width="36" height="36" viewBox="0 0 36 36" fill="none" xmlns="http://www.w3.org/2000/svg">
<path fill-rule="evenodd" clip-rule="evenodd" d="M7 23V11H29V23H7ZM6.1 9C5.49249 9 5 9.49249 5 10.1V23.9C5 24.5075 5.49248 25 6.1 25H29.9C30.5075 25 31 24.5075 31 23.9V10.1C31 9.4925 30.5075 9 29.9 9H6.1ZM12 16C12 15.4477 11.5523 15 11 15C10.4477 15 10 15.4477 10 16V18C10 18.5523 10.4477 19 11 19C11.5523 19 12 18.5523 12 18V16ZM26 16C26 15.4477 25.5523 15 25 15C24.4477 15 24 15.4477 24 16V18C24 18.5523 24.4477 19 25 19C25.5523 19 26 18.5523 26 18V16ZM6 27C5.44772 27 5 27.4477 5 28C5 28.5523 5.44772 29 6 29H30C30.5523 29 31 28.5523 31 28C31 27.4477 30.5523 27 30 27H6ZM16.75 14.25V16.75H18.5C19.1904 16.75 19.75 16.1904 19.75 15.5C19.75 14.8096 19.1904 14.25 18.5 14.25H16.75ZM21.25 15.5C21.25 17.0188 20.0188 18.25 18.5 18.25H16.75V18.75H18C18.4142 18.75 18.75 19.0858 18.75 19.5C18.75 19.9142 18.4142 20.25 18 20.25H16.75V21C16.75 21.4142 16.4142 21.75 16 21.75C15.5858 21.75 15.25 21.4142 15.25 21V20.25H15C14.5858 20.25 14.25 19.9142 14.25 19.5C14.25 19.0858 14.5858 18.75 15 18.75H15.25V18.25H15C14.5858 18.25 14.25 17.9142 14.25 17.5C14.25 17.0858 14.5858 16.75 15 16.75H15.25V13.6C15.25 13.1306 15.6306 12.75 16.1 12.75H18.5C20.0188 12.75 21.25 13.9812 21.25 15.5Z" fill="black"/>
</svg>
