<svg width="36" height="36" viewBox="0 0 36 36" fill="none" xmlns="http://www.w3.org/2000/svg">
<path fill-rule="evenodd" clip-rule="evenodd" d="M11.1718 5.04431C12.6689 3.262 14.9463 2 18 2C21.0537 2 23.3311 3.262 24.8282 5.04431C26.3031 6.80008 27 9.03243 27 11C27 13.8496 24.8666 15.7365 22.9132 15.9745C22.0076 17.7692 20.1475 19 18 19C15.8525 19 13.9924 17.7692 13.0868 15.9745C11.1334 15.7365 9 13.8496 9 11C9 9.03243 9.69695 6.80008 11.1718 5.04431ZM12.7032 6.33069C11.5531 7.69992 11 9.46757 11 11C11 12.3389 11.7336 13.2547 12.5 13.6964V10.1C12.5 9.51261 12.9709 9.00033 13.5979 8.99998C14.3801 8.99955 15.6413 8.98713 16.8136 8.7554C18.0619 8.50864 18.8323 8.08512 19.1003 7.56328C19.4665 6.85005 20.5221 6.80828 20.9044 7.57275L21.2852 8.33436C21.4892 8.74231 21.9061 9 22.3622 9C22.9906 9 23.5 9.5094 23.5 10.1378V13.6964C24.2664 13.2547 25 12.3389 25 11C25 9.46757 24.4469 7.69992 23.2968 6.33069C22.1689 4.988 20.4463 4 18 4C15.5537 4 13.8311 4.988 12.7032 6.33069ZM21.5 10.8819V13.5C21.5 15.433 19.933 17 18 17C16.067 17 14.5 15.433 14.5 13.5V10.9894C15.2718 10.9684 16.2492 10.9057 17.2014 10.7174C18.0359 10.5525 19.007 10.2623 19.7895 9.70588C20.2147 10.2787 20.8182 10.6914 21.5 10.8819Z" fill="black"/>
<path d="M9.78255 27.5989C9.05248 25.0436 10.9711 22.5 13.6287 22.5H14C14.5523 22.5 15 22.0523 15 21.5C15 20.9477 14.5523 20.5 14 20.5H13.6287C9.64238 20.5 6.76439 24.3154 7.85951 28.1483L8.62403 30.8242C8.992 32.1121 10.1692 33 11.5086 33H24.4914C25.8308 33 27.008 32.1121 27.376 30.8242L28.1405 28.1483C29.2356 24.3154 26.3576 20.5 22.3714 20.5H22C21.4477 20.5 21 20.9477 21 21.5C21 22.0523 21.4477 22.5 22 22.5H22.3714C25.0289 22.5 26.9475 25.0436 26.2174 27.5989L25.4529 30.2747C25.3303 30.704 24.9379 31 24.4914 31H11.5086C11.0621 31 10.6697 30.704 10.5471 30.2747L9.78255 27.5989Z" fill="black"/>
<path d="M21.4104 26.5861L19.0014 21.2864C18.6106 20.4267 17.3894 20.4267 16.9986 21.2864L14.5896 26.5861C14.3611 27.0889 14.5834 27.6818 15.0862 27.9103C15.589 28.1388 16.1818 27.9165 16.4104 27.4137L18 23.9165L19.5896 27.4137C19.8182 27.9165 20.411 28.1388 20.9138 27.9103C21.4166 27.6818 21.6389 27.0889 21.4104 26.5861Z" fill="black"/>
</svg>
