<svg width="36" height="36" viewBox="0 0 36 36" fill="none" xmlns="http://www.w3.org/2000/svg">
<path fill-rule="evenodd" clip-rule="evenodd" d="M20.001 5C25.3764 5 29.7612 9.2413 29.9915 14.56H28.5007C27.9484 14.56 27.5007 15.0077 27.5007 15.56L27.5007 26C27.5007 26.2652 27.6061 26.5196 27.7936 26.7071C27.9812 26.8946 28.2355 27 28.5007 27H30.4998C32.7089 27 34.4998 25.2091 34.4998 23V18.56C34.4998 16.8814 33.4658 15.4443 32.0001 14.8509C31.9202 8.29218 26.5786 3 20.001 3H16.001C9.42363 3 4.08223 8.2917 4.00189 14.85C2.53497 15.4429 1.5 16.8806 1.5 18.56V23C1.5 25.2091 3.29086 27 5.5 27H7.5C8.05228 27 8.5 26.5523 8.5 26V15.56C8.5 15.0077 8.05228 14.56 7.5 14.56H6.01048C6.24076 9.24131 10.6256 5 16.001 5L20.001 5ZM30.4998 16.56C31.6043 16.56 32.4998 17.4554 32.4998 18.56V23C32.4998 24.1046 31.6043 25 30.4998 25H29.5007L29.5007 16.56H30.4998ZM5.5 25C4.39543 25 3.5 24.1046 3.5 23V18.56C3.5 17.4554 4.39543 16.56 5.5 16.56H6.5V25H5.5Z" fill="black"/>
<path fill-rule="evenodd" clip-rule="evenodd" d="M18.0011 10C16.8885 10 15.8335 10.2765 15.0243 10.7763C14.2307 11.2665 13.5344 12.0749 13.5344 13.1412V18.3922L13.5346 18.4235L13.5344 18.4667V21.0667C13.5344 23.5335 15.5342 25.5333 18.0011 25.5333C20.468 25.5333 22.4678 23.5335 22.4678 21.0667V18.4667L22.4676 18.4234L22.4678 18.3922V13.1412C22.4678 12.0749 21.7715 11.2665 20.9779 10.7763C20.1686 10.2765 19.1136 10 18.0011 10ZM15.5344 13.1412C15.5344 13.0249 15.6142 12.7627 16.0753 12.4779C16.5207 12.2028 17.1991 12 18.0011 12C18.8031 12 19.4815 12.2028 19.9269 12.4779C20.388 12.7627 20.4678 13.0249 20.4678 13.1412V18L15.5344 18V13.1412ZM15.5344 20V21.0667C15.5344 22.429 16.6388 23.5333 18.0011 23.5333C19.3634 23.5333 20.4678 22.429 20.4678 21.0667V20L15.5344 20Z" fill="black"/>
<path d="M14.001 34H22.001C22.5533 34 23.001 33.5523 23.001 33C23.001 32.4477 22.5533 32 22.001 32H19.001V29.438C22.9468 28.9457 26 25.5797 26 21.5005V19C26 18.4477 25.5523 18 25 18C24.4477 18 24 18.4477 24 19V21.5005C24 24.8139 21.3139 27.5 18.0005 27.5C14.687 27.5 12.001 24.8139 12.001 21.5005V19C12.001 18.4477 11.5533 18 11.001 18C10.4487 18 10.001 18.4477 10.001 19V21.5005C10.001 25.58 13.0547 28.9463 17.001 29.4382V32H14.001C13.4487 32 13.001 32.4477 13.001 33C13.001 33.5523 13.4487 34 14.001 34Z" fill="black"/>
</svg>
