<svg width="36" height="36" viewBox="0 0 36 36" fill="none" xmlns="http://www.w3.org/2000/svg">
<path d="M7 12C7 12.5523 6.55228 13 6 13C5.44772 13 5 12.5523 5 12V7C5 5.89543 5.89543 5 7 5H12C12.5523 5 13 5.44772 13 6C13 6.55228 12.5523 7 12 7H7V12Z" fill="black"/>
<path d="M30 13C29.4477 13 29 12.5523 29 12V7H24C23.4477 7 23 6.55228 23 6C23 5.44772 23.4477 5 24 5H29C30.1046 5 31 5.89543 31 7V12C31 12.5523 30.5523 13 30 13Z" fill="black"/>
<path fill-rule="evenodd" clip-rule="evenodd" d="M15.1177 10.4434C16.0665 9.56591 17.9569 8.62653 20.6414 9.01004C22.7285 9.3082 24.694 10.8725 25.7102 12.9874C26.7508 15.1532 26.8205 17.9301 25.0909 20.6655C24.9317 20.9172 24.718 21.0576 24.5 21.1243V22C24.5 25.3137 21.8137 28 18.5 28C15.1863 28 12.5 25.3137 12.5 22V21.3529C12.4316 21.3248 12.3645 21.2891 12.2998 21.2452C11.3019 20.5682 10 18.634 10 16C10 14.5108 10.5851 13.0301 11.5548 11.9715C12.4351 11.0106 13.6835 10.3533 15.1177 10.4434ZM20.3586 10.9899C17.9747 10.6494 16.6398 11.6773 16.3172 12.078C16.0607 12.3965 15.6534 12.5433 15.2597 12.4722C14.4312 12.3225 13.65 12.6452 13.0296 13.3225C12.3983 14.0116 12 15.0101 12 16C12 16.7345 12.1333 17.3709 12.3224 17.8971C12.804 16.094 13.7447 14.9358 14.5834 14.3667C15.3546 13.8434 16.1679 14.2628 16.5208 14.7058C16.8317 15.0962 17.1418 15.2976 17.7705 15.4663C18.3406 15.6192 19.0766 15.7216 20.1897 15.8764C20.4798 15.9167 20.7963 15.9607 21.1414 16.0101C22.581 16.2157 23.5869 16.8252 24.2205 17.6453C24.2315 17.6596 24.2425 17.674 24.2532 17.6883C24.6346 16.2626 24.4296 14.9402 23.9075 13.8536C23.1338 12.2435 21.6853 11.1795 20.3586 10.9899ZM20.8586 17.99C21.7076 18.1112 22.2029 18.4064 22.5 18.7099V22C22.5 24.2091 20.7091 26 18.5 26C16.2909 26 14.5 24.2091 14.5 22V17.68C14.748 17.0774 15.0516 16.6456 15.3217 16.3583C15.8587 16.8837 16.4722 17.1887 17.2522 17.398C17.9538 17.5862 18.8548 17.711 19.9889 17.8682L19.9914 17.8685C20.2666 17.9066 20.5555 17.9466 20.8586 17.99Z" fill="black"/>
<path d="M6 23C6.55228 23 7 23.4477 7 24V29H12C12.5523 29 13 29.4477 13 30C13 30.5523 12.5523 31 12 31H7C5.89543 31 5 30.1046 5 29V24C5 23.4477 5.44772 23 6 23Z" fill="black"/>
<path d="M30 23C29.4477 23 29 23.4477 29 24V29H24C23.4477 29 23 29.4477 23 30C23 30.5523 23.4477 31 24 31H29C30.1046 31 31 30.1046 31 29V24C31 23.4477 30.5523 23 30 23Z" fill="black"/>
</svg>
