<svg width="36" height="36" viewBox="0 0 36 36" fill="none" xmlns="http://www.w3.org/2000/svg">
<path fill-rule="evenodd" clip-rule="evenodd" d="M6 8C6 7.44772 6.44772 7 7 7H9C10.6569 7 12 8.34315 12 10V20H25C26.1046 20 27 19.1046 27 18V12H16C15.4477 12 15 11.5523 15 11C15 10.4477 15.4477 10 16 10H27.9C28.5075 10 29 10.4925 29 11.1V18C29 20.2091 27.2091 22 25 22H12V25C12 25.5523 12.4477 26 13 26H14H26H28C28.5523 26 29 26.4477 29 27C29 27.5523 28.5523 28 28 28H27V29C27 29.5523 26.5523 30 26 30C25.4477 30 25 29.5523 25 29V28H15V29C15 29.5523 14.5523 30 14 30C13.4477 30 13 29.5523 13 29V28C11.3431 28 10 26.6569 10 25V21V10C10 9.44772 9.55228 9 9 9H7C6.44772 9 6 8.55228 6 8Z" fill="black"/>
</svg>
