<svg width="36" height="36" viewBox="0 0 36 36" fill="none" xmlns="http://www.w3.org/2000/svg">
<path fill-rule="evenodd" clip-rule="evenodd" d="M26 11C27.8805 11 29.6456 11.7464 30.9491 13.0499C32.2531 14.3539 33 16.1191 33 18C33 19.8809 32.2531 21.6461 30.9491 22.9501C29.6456 24.2536 27.8805 25 26 25C23.5489 25 21.3587 23.7398 19.4462 21.6805C19.0704 21.2758 19.0938 20.6431 19.4985 20.2672C19.9032 19.8914 20.5359 19.9148 20.9118 20.3195C22.4818 22.0102 24.2021 23 26 23C27.3447 23 28.6028 22.468 29.5349 21.5359C30.4676 20.6032 31 19.3449 31 18C31 16.6551 30.4676 15.3968 29.5349 14.4641C28.6028 13.532 27.3447 13 26 13C23.9022 13 22.3678 14.1933 19.4732 17.7384L18.7005 18.6989C14.979 23.3766 13.0974 25 10 25C8.11761 25 6.35223 24.2536 5.04989 22.9501C3.74627 21.6465 3 19.8813 3 18C3 16.1187 3.74627 14.3535 5.04957 13.0502C6.35223 11.7464 8.11761 11 10 11C12.4503 11 14.6404 12.2603 16.5528 14.3195C16.9286 14.7242 16.9052 15.3569 16.5005 15.7328C16.0958 16.1086 15.4631 16.0852 15.0872 15.6805C13.5173 13.9899 11.797 13 10 13C8.65352 13 7.39549 13.5319 6.46411 14.4641C5.53191 15.3963 5 16.6544 5 18C5 19.3456 5.53191 20.6037 6.46443 21.5362C7.39549 22.4681 8.65352 23 10 23C12.11 23 13.6597 21.754 16.6508 18.0579L17.6996 16.7493C21.1465 12.4857 23.0021 11 26 11Z" fill="black"/>
</svg>
