<svg width="36" height="36" viewBox="0 0 36 36" fill="none" xmlns="http://www.w3.org/2000/svg">
<path fill-rule="evenodd" clip-rule="evenodd" d="M23.116 8.49846C22.7172 7.79692 21.6519 7.8359 21.3271 8.61538L13.8271 26.6154L13.7885 26.7256C13.6505 27.2069 13.8922 27.7258 14.3656 27.9231L14.4758 27.9617C14.9571 28.0997 15.476 27.858 15.6733 27.3846L17.5002 23H27.0002L28.8271 27.3846L28.8782 27.4897C29.1228 27.9265 29.6614 28.1203 30.1348 27.9231C30.6446 27.7107 30.8857 27.1252 30.6733 26.6154L23.1733 8.61538L23.116 8.49846ZM26.1669 21L22.2502 11.6L18.3335 21H26.1669ZM9.05789 8.71164C9.29921 8.13245 10.0857 8.09838 10.3911 8.60943L10.4425 8.71164L14.4425 18.3116C14.6018 18.694 14.421 19.1331 14.0387 19.2924C13.6882 19.4384 13.29 19.2987 13.1033 18.9799L13.0579 18.8886L12.1668 16.75H7.33356L6.4425 18.8886C6.29647 19.239 5.91533 19.4202 5.55831 19.3252L5.46173 19.2924C5.11125 19.1464 4.93011 18.7652 5.02507 18.4082L5.05789 18.3116L9.05789 8.71164ZM9.7502 10.95L7.95855 15.25H11.5418L9.7502 10.95Z" fill="black"/>
</svg>
