<svg width="36" height="36" viewBox="0 0 36 36" fill="none" xmlns="http://www.w3.org/2000/svg">
<path fill-rule="evenodd" clip-rule="evenodd" d="M25.7929 9.12151C26.1834 8.73098 26.8166 8.73098 27.2071 9.12151L27.2701 9.18445C27.6812 9.59555 27.6563 10.2694 27.2159 10.649L15.7539 20.53C15.3646 20.8656 14.7859 20.8507 14.4145 20.4999L25.7929 9.12151ZM28.6213 7.70729C27.4498 6.53572 25.5503 6.53572 24.3787 7.70729L12.3055 19.7805L5.59888 26.04C5.14729 26.4615 5.01884 27.0784 5.20487 27.6066C5.39537 28.1476 5.90652 28.5592 6.56078 28.5623C8.18945 28.5701 10.7769 28.2593 12.6247 26.7811C14.2216 25.5035 15.0273 23.9477 15.3547 22.762C15.9648 22.7105 16.5635 22.4726 17.0597 22.0449L28.5218 12.1638C29.8428 11.025 29.9176 9.00354 28.6843 7.77023L28.6213 7.70729ZM13.4193 22.2575C13.2641 22.1523 13.1167 22.0311 12.9796 21.894L12.9761 21.8904L8.0747 26.465C9.24172 26.3072 10.4768 25.9381 11.3753 25.2193C12.6038 24.2366 13.1903 23.0662 13.4193 22.2575ZM16 27.0002C16 26.4479 16.4477 26.0002 17 26.0002H21C21.5523 26.0002 22 26.4479 22 27.0002C22 27.5525 21.5523 28.0002 21 28.0002H17C16.4477 28.0002 16 27.5525 16 27.0002ZM25 26.0002C24.4477 26.0002 24 26.4479 24 27.0002C24 27.5525 24.4477 28.0002 25 28.0002H29C29.5523 28.0002 30 27.5525 30 27.0002C30 26.4479 29.5523 26.0002 29 26.0002H25Z" fill="black"/>
</svg>
