<svg width="36" height="36" viewBox="0 0 36 36" fill="none" xmlns="http://www.w3.org/2000/svg">
<path fill-rule="evenodd" clip-rule="evenodd" d="M30 23C30 24.6569 28.6569 26 27 26C26.2316 26 25.5308 25.7111 25 25.2361C24.4692 25.7111 23.7684 26 23 26C21.3431 26 20 24.6569 20 23V21L16 21V23C16 24.6569 14.6569 26 13 26C12.2316 26 11.5308 25.7111 11 25.2361C10.4692 25.7111 9.76835 26 9 26C7.34315 26 6 24.6569 6 23L6 21H5C3.89543 21 3 20.1046 3 19V17C3 15.8954 3.89543 15 5 15H6L6 13C6 11.3431 7.34315 10 9 10C9.76836 10 10.4692 10.2889 11 10.7639C11.5308 10.2889 12.2316 10 13 10C14.6569 10 16 11.3431 16 13V15L20 15V13C20 11.3431 21.3431 10 23 10C23.7684 10 24.4692 10.2889 25 10.7639C25.5308 10.2889 26.2316 10 27 10C28.6569 10 30 11.3431 30 13L30 15L31 15C32.1046 15 33 15.8954 33 17V19C33 20.1046 32.1046 21 31 21H30V23ZM26 12.9983L26 13L26 23C26 23.5523 26.4477 24 27 24C27.5523 24 28 23.5523 28 23L28 13C28 12.4477 27.5523 12 27 12C26.4483 12 26.0009 12.4468 26 12.9983ZM24 12.9983C23.9991 12.4468 23.5517 12 23 12C22.4477 12 22 12.4477 22 13L22 23C22 23.5523 22.4477 24 23 24C23.5523 24 24 23.5523 24 23L24 12.9983ZM20 17H16V19L20 19V17ZM30 19V17H31V19H30ZM5 19H6V17L5 17V19ZM13 12C12.4477 12 12 12.4477 12 13L12 23C12 23.5523 12.4477 24 13 24C13.5523 24 14 23.5523 14 23L14 13C14 12.4477 13.5523 12 13 12ZM10 12.9985C9.9992 12.4469 9.55179 12 9 12C8.44772 12 8 12.4477 8 13L8 23C8 23.5523 8.44771 24 9 24C9.55228 24 10 23.5523 10 23L10 12.9985Z" fill="black"/>
</svg>
