<svg width="36" height="36" viewBox="0 0 36 36" fill="none" xmlns="http://www.w3.org/2000/svg">
<path d="M21.0918 19.4143C21.8728 20.1953 21.8728 21.4616 21.0918 22.2426C20.3107 23.0237 19.0444 23.0237 18.2634 22.2426C17.4821 21.4616 17.4821 20.1953 18.2634 19.4143C19.0444 18.6332 20.3107 18.6332 21.0918 19.4143Z" fill="black"/>
<path d="M21.0918 26.4852C20.7014 26.0947 20.7014 25.4616 21.0918 25.0711L23.9204 22.2426C24.3107 21.8521 24.944 21.8521 25.3344 22.2426C25.7251 22.6331 25.7251 23.2663 25.3344 23.6568L22.5061 26.4852C22.1154 26.8758 21.4824 26.8758 21.0918 26.4852Z" fill="black"/>
<path fill-rule="evenodd" clip-rule="evenodd" d="M13.1037 18.4974L9.55098 14.9446C8.85665 15.0927 8.10177 14.8669 7.60567 14.2806L4.71578 10.8653C4.21187 10.2698 4.24849 9.38739 4.80025 8.8357L7.68502 5.95081C8.23678 5.39917 9.1191 5.36249 9.71456 5.8664L13.1298 8.75629C13.7165 9.25251 13.9421 10.0076 13.7939 10.7022L17.3464 14.2547C19.2102 13.6368 21.2509 13.9164 22.6723 15.338C23.039 15.7046 23.3325 16.1202 23.5534 16.5677C25.3398 16.4318 27.1145 16.9515 28.4126 18.2496C31.1425 20.9797 30.4306 25.6318 27.4558 28.6066C24.4809 31.5814 19.8288 32.2933 17.0988 29.5633C15.8007 28.2651 15.281 26.4905 15.417 24.7042C14.9694 24.4833 14.5537 24.1899 14.1872 23.8232C12.7656 22.4017 12.4858 20.3611 13.1037 18.4974ZM14.073 16.6381L10.4824 13.0476C10.1157 12.6809 9.5295 12.6555 9.13228 12.9888L6.53975 9.92463L8.77388 7.69037L11.8381 10.2831C11.5046 10.6802 11.53 11.2666 11.8967 11.6334L15.4873 15.2239C15.2209 15.4211 14.9668 15.6398 14.7277 15.8787C14.4887 16.1176 14.2702 16.3718 14.073 16.6381ZM16.142 17.2929C14.4653 18.9695 14.4433 21.251 15.6013 22.409C15.8237 22.6314 16.0776 22.8066 16.3554 22.9363C17.0398 23.256 17.4907 23.9757 17.4179 24.7755C17.2959 26.1151 17.6787 27.3148 18.5129 28.1491C20.1936 29.8296 23.549 29.6849 26.0415 27.1924C28.5341 24.6998 28.6787 21.3443 26.9982 19.6638C26.164 18.8295 24.9643 18.4466 23.6247 18.5687C22.8249 18.6415 22.1052 18.1907 21.7856 17.5062C21.6557 17.2285 21.4804 16.9745 21.2583 16.7521C20.1003 15.5942 17.8188 15.6162 16.142 17.2929Z" fill="black"/>
</svg>
