<svg width="36" height="36" viewBox="0 0 36 36" fill="none" xmlns="http://www.w3.org/2000/svg">
<path d="M21.7593 14.6508C22.1187 14.2314 22.0701 13.6002 21.6509 13.2407C21.2314 12.8813 20.6001 12.9299 20.2407 13.3492L14.2407 20.3492C13.8813 20.7686 13.9299 21.3999 14.3491 21.7593C14.7686 22.1187 15.3999 22.0702 15.7593 21.6508L21.7593 14.6508Z" fill="black"/>
<path d="M16.5 14.5C16.5 15.3284 15.8284 16 15 16C14.1716 16 13.5 15.3284 13.5 14.5C13.5 13.6716 14.1716 13 15 13C15.8284 13 16.5 13.6716 16.5 14.5Z" fill="black"/>
<path d="M21 22C21.8284 22 22.5 21.3284 22.5 20.5C22.5 19.6716 21.8284 19 21 19C20.1716 19 19.5 19.6716 19.5 20.5C19.5 21.3284 20.1716 22 21 22Z" fill="black"/>
<path fill-rule="evenodd" clip-rule="evenodd" d="M27.7905 22.0471L27.8447 21.7767C27.948 21.2601 28 20.7346 28 20.2079V8C28 7.44775 27.5522 7 27 7H9C8.44775 7 8 7.44775 8 8V20.2079C8 20.7346 8.052 21.2601 8.15527 21.7767L8.20947 22.0471C8.71167 24.5585 10.2764 26.7294 12.5 28L17.5212 30.7388C17.8196 30.9016 18.1804 30.9016 18.4788 30.7388L23.5 28C25.7236 26.7294 27.2883 24.5585 27.7905 22.0471ZM10 20.2079V9H26V20.2079C26 20.3861 25.9922 20.5642 25.9763 20.7416C25.957 20.9573 25.926 21.1719 25.8835 21.3845L25.8293 21.6549C25.4419 23.593 24.2368 25.2694 22.5237 26.2543L18 28.7218L13.4763 26.2543C11.7632 25.2694 10.5581 23.593 10.1707 21.6549L10.1165 21.3845C10.0759 21.1816 10.0459 20.9769 10.0264 20.7711C10.0088 20.584 10 20.396 10 20.2079Z" fill="black"/>
</svg>
