<svg width="36" height="36" viewBox="0 0 36 36" fill="none" xmlns="http://www.w3.org/2000/svg">
<path fill-rule="evenodd" clip-rule="evenodd" d="M22.3379 7L12.6621 7.00001C12.3496 7.00001 12.0331 7.18564 11.8674 7.52924L10.2671 11.5H24.7329L23.1326 7.52923C22.9669 7.18563 22.6504 7 22.3379 7ZM26.8892 11.5L24.9684 6.73393L24.9584 6.71233C24.4869 5.68578 23.4788 5 22.3379 5L12.6621 5.00001C11.5212 5.00001 10.5131 5.68579 10.0416 6.71234L10.0316 6.73393L8.11076 11.5H8C7.44772 11.5 7 11.9477 7 12.5C7 13.0523 7.44772 13.5 8 13.5H27C27.5523 13.5 28 13.0523 28 12.5C28 11.9477 27.5523 11.5 27 11.5H26.8892ZM9.3607 15.0097C9.9076 14.9328 10.4133 15.3138 10.4903 15.8607L12.2195 28.1535C12.2195 28.1535 12.2195 28.1536 12.2195 28.1535C12.2935 28.6788 12.7036 29 13.11 29H21.89C22.2964 29 22.7065 28.6788 22.7805 28.1535L24.5098 15.8607C24.5867 15.3138 25.0924 14.9328 25.6393 15.0098C26.1862 15.0867 26.5672 15.5924 26.4902 16.1393L24.761 28.4323C24.5588 29.8684 23.3684 31 21.89 31H13.11C11.6315 31 10.4412 29.8685 10.239 28.4324L8.50975 16.1393C8.43282 15.5924 8.8138 15.0867 9.3607 15.0097Z" fill="black"/>
</svg>
