<svg width="36" height="36" viewBox="0 0 36 36" fill="none" xmlns="http://www.w3.org/2000/svg">
<path d="M11 11C11 9.34314 12.3431 8 14 8H29C30.6569 8 32 9.34314 32 11V23C32 24.6569 30.6569 26 29 26H14C12.3431 26 11 24.6569 11 23V22H7C6.44775 22 6 21.5523 6 21C6 20.4477 6.44775 20 7 20H15C15.5522 20 16 20.4477 16 21C16 21.5523 15.5522 22 15 22H13V23C13 23.5523 13.4478 24 14 24H29C29.5522 24 30 23.5523 30 23V11C30 10.4477 29.5522 10 29 10H14C13.4478 10 13 10.4477 13 11V13H11V11Z" fill="black"/>
<path d="M11 17V18H13V17H17C17.5522 17 18 16.5523 18 16C18 15.4477 17.5522 15 17 15H5C4.44775 15 4 15.4477 4 16C4 16.5523 4.44775 17 5 17H11Z" fill="black"/>
<path d="M28 12H23V15H28V12Z" fill="black"/>
</svg>
