<svg width="36" height="36" viewBox="0 0 36 36" fill="none" xmlns="http://www.w3.org/2000/svg">
<path fill-rule="evenodd" clip-rule="evenodd" d="M5 17.9999C5 20.3864 5.68233 22.6293 6.84479 24.4652C7.14025 24.9318 7.0015 25.5495 6.53489 25.845C6.06829 26.1405 5.45051 26.0017 5.15505 25.5351C3.79023 23.3797 3 20.7658 3 17.9999C3 15.2341 3.79024 12.6206 5.15505 10.4652C5.45051 9.99855 6.06829 9.8598 6.53489 10.1553C7.0015 10.4507 7.14025 11.0685 6.84479 11.5351C5.68231 13.371 5 15.6135 5 17.9999Z" fill="black"/>
<path fill-rule="evenodd" clip-rule="evenodd" d="M9 18.0001C9 19.0812 9.30787 20.0957 9.85074 20.9746C10.141 21.4445 9.99535 22.0607 9.52548 22.3509C9.0556 22.6411 8.43941 22.4955 8.14918 22.0256C7.42011 20.8453 7 19.4691 7 18.0001C7 16.5312 7.42011 15.1549 8.14918 13.9746C8.43941 13.5047 9.0556 13.3591 9.52548 13.6493C9.99535 13.9396 10.141 14.5558 9.85074 15.0256C9.30787 15.9045 9 16.919 9 18.0001Z" fill="black"/>
<path fill-rule="evenodd" clip-rule="evenodd" d="M31 18.0001C31 15.6137 30.3177 13.371 29.1552 11.5351C28.8598 11.0685 28.9985 10.4507 29.4651 10.1553C29.9317 9.85981 30.5495 9.99856 30.8449 10.4652C32.2098 12.6206 33 15.2343 33 18.0001C33 20.766 32.2098 23.3797 30.8449 25.5351C30.5495 26.0017 29.9317 26.1405 29.4651 25.845C28.9985 25.5496 28.8598 24.9318 29.1552 24.4652C30.3177 22.6293 31 20.3866 31 18.0001Z" fill="black"/>
<path fill-rule="evenodd" clip-rule="evenodd" d="M27 18.0001C27 16.9191 26.6921 15.9045 26.1493 15.0257C25.859 14.5558 26.0046 13.9396 26.4745 13.6494C26.9444 13.3591 27.5606 13.5048 27.8508 13.9746C28.5799 15.155 29 16.5312 29 18.0001C29 19.4691 28.5799 20.8453 27.8508 22.0257C27.5606 22.4955 26.9444 22.6412 26.4745 22.3509C26.0046 22.0607 25.859 21.4445 26.1493 20.9746C26.6921 20.0957 27 19.0812 27 18.0001Z" fill="black"/>
<path fill-rule="evenodd" clip-rule="evenodd" d="M25 18.0001C25 14.1342 21.866 11.0001 18 11.0001C14.134 11.0001 11 14.1342 11 18.0001C11 21.8661 14.134 25.0001 18 25.0001C21.866 25.0001 25 21.8661 25 18.0001ZM16.262 21.5311L21.3079 18.426C21.6252 18.2307 21.6252 17.7695 21.3079 17.5743L16.262 14.4691C15.9287 14.2641 15.5 14.5037 15.5 14.8949V21.1054C15.5 21.4965 15.9287 21.7362 16.262 21.5311Z" fill="black"/>
</svg>
