<svg width="36" height="36" viewBox="0 0 36 36" fill="none" xmlns="http://www.w3.org/2000/svg">
<path fill-rule="evenodd" clip-rule="evenodd" d="M12 7C12.5523 7 13 7.44772 13 8V9H23V8C23 7.44772 23.4477 7 24 7C24.5523 7 25 7.44772 25 8V9H28C29.1046 9 30 9.89543 30 11V16V27C30 28.1046 29.1046 29 28 29H8C6.89543 29 6 28.1046 6 27V16V11C6 9.89543 6.89543 9 8 9H11V8C11 7.44772 11.4477 7 12 7ZM23 11V12C23 12.5523 23.4477 13 24 13C24.5523 13 25 12.5523 25 12V11H28V15H8L8 11H11V12C11 12.5523 11.4477 13 12 13C12.5523 13 13 12.5523 13 12V11H23ZM28 17V27H8L8 17H28Z" fill="black"/>
</svg>
