<svg width="36" height="36" viewBox="0 0 36 36" fill="none" xmlns="http://www.w3.org/2000/svg">
<path fill-rule="evenodd" clip-rule="evenodd" d="M13 18.2619V9C13 6.79072 14.7907 5 17 5C18.8632 5 20.4287 6.27362 20.8734 7.99782C21.0172 7.99782 21.5182 7.99782 21.9974 7.99782C22.5491 7.99782 22.9962 8.44503 22.9962 8.9967C22.9962 9.54836 22.549 9.99557 21.9973 9.99557H21V10.9996H21.9962C22.5485 10.9996 22.9962 11.4476 22.9962 11.9999C22.9962 12.5521 22.5485 13.0002 21.9962 13.0002H21V14H21.9962C22.5485 14 22.9962 14.4477 22.9962 15C22.9962 15.5523 22.5485 16 21.9962 16H21V18.2619C23.1669 19.7702 24.3384 22.3841 23.9132 25.1145C23.4396 28.1639 20.9123 30.5905 17.8423 30.9512C13.6408 31.4432 10 28.1826 10 24C10 21.7702 11.0547 19.7244 12.7808 18.4209L13 18.2619ZM17 7C15.8953 7 15 7.89528 15 9V18.81C15 19.1669 14.8098 19.4968 14.5009 19.6755C12.9645 20.5646 12 22.1975 12 24C12 26.9889 14.5999 29.3172 17.6093 28.9648C19.7881 28.7088 21.6014 26.9678 21.9369 24.8071C22.2651 22.7002 21.2773 20.7054 19.4988 19.6753C19.1901 19.4965 19 19.1668 19 18.81V9C19 7.89528 18.1047 7 17 7ZM17.1166 25.8241L17 25.8174C15.8953 25.8174 15 24.9221 15 23.8174C15 23.2651 14.5523 22.8174 14 22.8174C13.4477 22.8174 13 23.2651 13 23.8174C13 26.0267 14.7907 27.8174 17 27.8174C17.5523 27.8174 18 27.3697 18 26.8174C18 26.3046 17.614 25.8819 17.1166 25.8241Z" fill="black"/>
</svg>
