<svg width="36" height="36" viewBox="0 0 36 36" fill="none" xmlns="http://www.w3.org/2000/svg">
<path fill-rule="evenodd" clip-rule="evenodd" d="M30 7C30.5523 7 31 7.44772 31 8V26C31 26.5523 30.5523 27 30 27H6C5.44772 27 5 26.5523 5 26V8C5 7.44772 5.44772 7 6 7H30ZM29 9H7V25H29V9ZM26 14C26.553 14 27 13.552 27 13C27 12.448 26.553 12 26 12C25.447 12 25 12.448 25 13C25 13.552 25.447 14 26 14ZM16 15.6667L21.2 22.6C21.5314 23.0418 22.1582 23.1314 22.6 22.8C23.0418 22.4686 23.1314 21.8418 22.8 21.4L16.8 13.4C16.4 12.8667 15.6 12.8667 15.2 13.4L9.2 21.4C8.86863 21.8418 8.95817 22.4686 9.4 22.8C9.84183 23.1314 10.4686 23.0418 10.8 22.6L16 15.6667ZM22.3 15.4L26.8 21.4C27.1314 21.8418 27.0418 22.4686 26.6 22.8C26.1582 23.1314 25.5314 23.0418 25.2 22.6L20.7 16.6C20.3686 16.1582 20.4582 15.5314 20.9 15.2C21.3418 14.8686 21.9686 14.9582 22.3 15.4Z" fill="black"/>
</svg>
