<svg width="36" height="36" viewBox="0 0 36 36" fill="none" xmlns="http://www.w3.org/2000/svg">
<path fill-rule="evenodd" clip-rule="evenodd" d="M17 6C15.2261 6 14.0431 6.18157 13.2074 6.41307C12.8333 6.5167 12.5 6.92805 12.5 7.54508V9.06729C13.8526 8.38456 15.3814 8 17 8C18.6186 8 20.1474 8.38456 21.5 9.06729V7.54508C21.5 6.92805 21.1667 6.5167 20.7926 6.41307C19.9569 6.18157 18.7739 6 17 6ZM10.5 7.54508V10.4004C8.35767 12.2345 7 14.9587 7 18C7 21.0413 8.35767 23.7655 10.5 25.5996V28.4549C10.5 29.7317 11.2224 31.1124 12.6734 31.5143C13.7225 31.8049 15.0918 32 17 32C18.9082 32 20.2775 31.8049 21.3266 31.5143C22.7776 31.1124 23.5 29.7317 23.5 28.4549V25.5996C25.6423 23.7655 27 21.0413 27 18C27 14.9587 25.6423 12.2345 23.5 10.4004V7.54508C23.5 6.26826 22.7776 4.88764 21.3266 4.48566C20.2775 4.19505 18.9082 4 17 4C15.0918 4 13.7225 4.19505 12.6734 4.48566C11.2224 4.88763 10.5 6.26826 10.5 7.54508ZM21.5 26.9327C20.1474 27.6154 18.6186 28 17 28C15.3814 28 13.8526 27.6154 12.5 26.9327V28.4549C12.5 29.0719 12.8333 29.4833 13.2074 29.5869C14.0431 29.8184 15.2261 30 17 30C18.7739 30 19.9569 29.8184 20.7926 29.5869C21.1667 29.4833 21.5 29.0719 21.5 28.4549V26.9327ZM17 10C12.5817 10 9 13.5817 9 18C9 22.4183 12.5817 26 17 26C21.4183 26 25 22.4183 25 18C25 13.5817 21.4183 10 17 10ZM29 16C29.5523 16 30 16.4477 30 17V19C30 19.5523 29.5523 20 29 20C28.4477 20 28 19.5523 28 19V17C28 16.4477 28.4477 16 29 16ZM19 14.5C19 13.9477 18.5523 13.5 18 13.5C17.4477 13.5 17 13.9477 17 14.5V18H15C14.4477 18 14 18.4477 14 19C14 19.5523 14.4477 20 15 20H17.9C18.5075 20 19 19.5075 19 18.9V14.5Z" fill="black"/>
</svg>
