<svg width="36" height="36" viewBox="0 0 36 36" fill="none" xmlns="http://www.w3.org/2000/svg">
<path fill-rule="evenodd" clip-rule="evenodd" d="M18.9999 3C17.4305 3 15.4734 3.25448 13.8715 4.26023C12.1969 5.31159 11.0311 7.11019 11.0006 9.88704C10.9943 10.4518 11.4402 11.0002 12.0981 11C12.2214 11 12.3559 10.9998 12.5 10.9992V13.5C12.5 16.5376 14.9624 19 18 19C21.0376 19 23.5 16.5376 23.5 13.5V10.937C24.3626 10.7149 24.9999 9.9319 24.9999 9C24.9999 5.93165 22.6749 3.36251 19.6218 3.0572L19.0498 3H18.9999ZM21.5 11H21.0617C20.6451 11 20.2642 10.7646 20.0779 10.3919L19.7277 9.69156C19.4449 9.87339 19.1428 10.0214 18.8416 10.1435C18.1097 10.44 17.2729 10.6272 16.4551 10.7493C15.8002 10.8471 15.131 10.9067 14.5 10.9431V13.5C14.5 15.433 16.067 17 18 17C19.933 17 21.5 15.433 21.5 13.5V11ZM16.1598 8.77119C15.1022 8.92911 13.9843 8.97809 13.0672 8.99324C13.2885 7.43219 14.032 6.52095 14.9349 5.95406C16.0611 5.24698 17.5549 5.00558 18.951 5.0001L19.4228 5.04727C21.4535 5.25034 22.9999 6.95915 22.9999 9H21.618L20.9838 7.73167C20.5588 6.88168 19.4772 6.9934 19.0634 7.62579C18.9286 7.8318 18.6331 8.07002 18.0906 8.28982C17.5616 8.50415 16.8959 8.66127 16.1598 8.77119Z" fill="black"/>
<path fill-rule="evenodd" clip-rule="evenodd" d="M16.9985 21.2864C17.3893 20.4267 18.6105 20.4267 19.0013 21.2864L21.346 26.4448C21.6771 27.1731 21.1446 27.9999 20.3446 27.9999H15.6552C14.8552 27.9999 14.3228 27.1731 14.6538 26.4448L16.9985 21.2864ZM17.9999 23.9165L17.0529 25.9999H18.9469L17.9999 23.9165Z" fill="black"/>
<path d="M8.60041 26.9615C7.9616 24.7257 9.64042 22.5 11.9657 22.5H14C14.5522 22.5 15 22.0523 15 21.5C15 20.9477 14.5522 20.5 14 20.5H11.9657C8.31167 20.5 5.67351 23.9975 6.67737 27.511L7.62399 30.8242C7.99197 32.1121 9.16912 33 10.5086 33H25.4914C26.8308 33 28.008 32.1121 28.3759 30.8242L29.3226 27.511C30.3264 23.9975 27.6883 20.5 24.0342 20.5H22C21.4477 20.5 21 20.9477 21 21.5C21 22.0523 21.4477 22.5 22 22.5H24.0342C26.3595 22.5 28.0383 24.7257 27.3995 26.9615L26.4529 30.2747C26.3302 30.704 25.9378 31 25.4914 31H10.5086C10.0621 31 9.6697 30.704 9.54704 30.2747L8.60041 26.9615Z" fill="black"/>
</svg>
