<svg width="36" height="36" viewBox="0 0 36 36" fill="none" xmlns="http://www.w3.org/2000/svg">
<path fill-rule="evenodd" clip-rule="evenodd" d="M9 6C7.34315 6 6 7.34314 6 9V27C6 28.6569 7.34314 30 9 30H27C28.6569 30 30 28.6569 30 27V9C30 7.34315 28.6569 6 27 6H9ZM8 9C8 8.44772 8.44771 8 9 8H27C27.5523 8 28 8.44771 28 9V27C28 27.5523 27.5523 28 27 28H9C8.44772 28 8 27.5523 8 27V9ZM17 13.5V17.5H19.5C20.6046 17.5 21.5 16.6046 21.5 15.5C21.5 14.3954 20.6046 13.5 19.5 13.5H17ZM23.5 15.5C23.5 17.7091 21.7091 19.5 19.5 19.5H17V20.5H19C19.5523 20.5 20 20.9477 20 21.5C20 22.0523 19.5523 22.5 19 22.5H17V23.5C17 24.0523 16.5523 24.5 16 24.5C15.4477 24.5 15 24.0523 15 23.5V22.5H14C13.4477 22.5 13 22.0523 13 21.5C13 20.9477 13.4477 20.5 14 20.5H15V19.5H14C13.4477 19.5 13 19.0523 13 18.5C13 17.9477 13.4477 17.5 14 17.5H15V12.6C15 11.9925 15.4925 11.5 16.1 11.5H19.5C21.7091 11.5 23.5 13.2909 23.5 15.5Z" fill="black"/>
</svg>
