<svg width="36" height="36" viewBox="0 0 36 36" fill="none" xmlns="http://www.w3.org/2000/svg">
<path fill-rule="evenodd" clip-rule="evenodd" d="M5.5 6C5.5 5.44772 5.94772 5 6.5 5H15C15.5523 5 16 5.44772 16 6V14.5C16 15.0523 15.5523 15.5 15 15.5H6.5C5.94772 15.5 5.5 15.0523 5.5 14.5V6ZM7.5 13.5V7H14V13.5H7.5Z" fill="black"/>
<path fill-rule="evenodd" clip-rule="evenodd" d="M5.5 19.5C5.5 18.9477 5.94772 18.5 6.5 18.5H15C15.5523 18.5 16 18.9477 16 19.5V28C16 28.5523 15.5523 29 15 29H6.5C5.94772 29 5.5 28.5523 5.5 28V19.5ZM7.5 27V20.5H14V27H7.5Z" fill="black"/>
<path fill-rule="evenodd" clip-rule="evenodd" d="M20 5C19.4477 5 19 5.44772 19 6V14.5C19 15.0523 19.4477 15.5 20 15.5H28.5C29.0523 15.5 29.5 15.0523 29.5 14.5V6C29.5 5.44772 29.0523 5 28.5 5H20ZM21 7V13.5H27.5V7H21Z" fill="black"/>
<path fill-rule="evenodd" clip-rule="evenodd" d="M19 19.5C19 18.9477 19.4477 18.5 20 18.5H28.5C29.0523 18.5 29.5 18.9477 29.5 19.5V28C29.5 28.5523 29.0523 29 28.5 29H20C19.4477 29 19 28.5523 19 28V19.5ZM21 27V20.5H27.5V27H21Z" fill="black"/>
</svg>
