<svg width="36" height="36" viewBox="0 0 36 36" fill="none" xmlns="http://www.w3.org/2000/svg">
<path fill-rule="evenodd" clip-rule="evenodd" d="M6 13C6.55228 13 7 12.5523 7 12V7H12C12.5523 7 13 6.55228 13 6C13 5.44772 12.5523 5 12 5H7C5.89543 5 5 5.89543 5 7V12C5 12.5523 5.44772 13 6 13ZM11 12.5C11 11.6716 11.6716 11 12.5 11H14.5C14.7761 11 15 11.2239 15 11.5V15H11.5C11.2239 15 11 14.7761 11 14.5V12.5ZM21 15H15V17H13.5C13.2239 17 13 17.2239 13 17.5V18.5C13 18.7761 13.2239 19 13.5 19H15V21H11.5C11.2239 21 11 21.2239 11 21.5L11 23.5C11 24.3284 11.6716 25 12.5 25H14.5C14.7761 25 15 24.7761 15 24.5V21H21V24.4999C21 24.776 21.2239 24.9999 21.5 24.9999H23.5C24.3284 24.9999 25 24.3283 25 23.4999L25 21.5C25 21.2239 24.7761 21 24.5 21H21V15ZM21 15V11.5C21 11.2239 21.2239 11 21.5 11H23.5C24.3284 11 25 11.6716 25 12.5V14.5C25 14.7761 24.7761 15 24.5 15H21ZM15 19H18.5C18.7761 19 19 18.7761 19 18.5V17.5C19 17.2239 18.7761 17 18.5 17H15V19ZM17.5 11C17.2239 11 17 11.2239 17 11.5V12.5C17 12.7761 17.2239 13 17.5 13H18.5C18.7761 13 19 12.7761 19 12.5V11.5C19 11.2239 18.7761 11 18.5 11H17.5ZM23 17.5C23 17.2239 23.2239 17 23.5 17H24.5C24.7761 17 25 17.2239 25 17.5V18.5C25 18.7761 24.7761 19 24.5 19H23.5C23.2239 19 23 18.7761 23 18.5V17.5ZM17.5 23C17.2239 23 17 23.2239 17 23.5V24.5C17 24.7761 17.2239 25 17.5 25H18.5C18.7761 25 19 24.7761 19 24.5V23.5C19 23.2239 18.7761 23 18.5 23H17.5ZM7 24C7 23.4477 6.55228 23 6 23C5.44772 23 5 23.4477 5 24V29C5 30.1046 5.89543 31 7 31H12C12.5523 31 13 30.5523 13 30C13 29.4477 12.5523 29 12 29H7V24ZM30 23C29.4477 23 29 23.4477 29 24V29H24C23.4477 29 23 29.4477 23 30C23 30.5523 23.4477 31 24 31H29C30.1046 31 31 30.1046 31 29V24C31 23.4477 30.5523 23 30 23ZM29 12C29 12.5523 29.4477 13 30 13C30.5523 13 31 12.5523 31 12V7C31 5.89543 30.1046 5 29 5H24C23.4477 5 23 5.44772 23 6C23 6.55228 23.4477 7 24 7H29V12Z" fill="black"/>
</svg>
