<svg width="36" height="36" viewBox="0 0 36 36" fill="none" xmlns="http://www.w3.org/2000/svg">
<path fill-rule="evenodd" clip-rule="evenodd" d="M18 5C18.5523 5 19 5.44772 19 6V8C19 8.55228 18.5523 9 18 9C17.4477 9 17 8.55228 17 8V6C17 5.44772 17.4477 5 18 5ZM10 8.5C10 7.94772 9.55228 7.5 9 7.5C8.44772 7.5 8 7.94772 8 8.5V27.5C8 28.0523 8.44772 28.5 9 28.5C9.55228 28.5 10 28.0523 10 27.5V8.5ZM28 8.5C28 7.94772 27.5523 7.5 27 7.5C26.4477 7.5 26 7.94772 26 8.5V27.5C26 28.0523 26.4477 28.5 27 28.5C27.5523 28.5 28 28.0523 28 27.5V8.5ZM19 28C19 27.4477 18.5523 27 18 27C17.4477 27 17 27.4477 17 28V30C17 30.5523 17.4477 31 18 31C18.5523 31 19 30.5523 19 30V28ZM16.5 13.5V17.5H18.5C19.6046 17.5 20.5 16.6046 20.5 15.5C20.5 14.3954 19.6046 13.5 18.5 13.5H16.5ZM22.5 15.5C22.5 17.7091 20.7091 19.5 18.5 19.5H16.5V20.5H18C18.5523 20.5 19 20.9477 19 21.5C19 22.0523 18.5523 22.5 18 22.5H16.5V23C16.5 23.5523 16.0523 24 15.5 24C14.9477 24 14.5 23.5523 14.5 23V22.5H14C13.4477 22.5 13 22.0523 13 21.5C13 20.9477 13.4477 20.5 14 20.5H14.5V19.5H14C13.4477 19.5 13 19.0523 13 18.5C13 17.9477 13.4477 17.5 14 17.5H14.5V12.6C14.5 11.9925 14.9925 11.5 15.6 11.5H18.5C20.7091 11.5 22.5 13.2909 22.5 15.5Z" fill="black"/>
</svg>
