<svg width="36" height="36" viewBox="0 0 36 36" fill="none" xmlns="http://www.w3.org/2000/svg">
<path fill-rule="evenodd" clip-rule="evenodd" d="M28.7071 8.70711C29.0976 8.31658 29.0976 7.68342 28.7071 7.29289C28.3166 6.90237 27.6834 6.90237 27.2929 7.29289L19.75 14.8358L13.7778 8.8636C13.3482 8.43403 12.6518 8.43402 12.2222 8.8636L8.36359 12.7222C7.93401 13.1518 7.93402 13.8482 8.3636 14.2778L14.3358 20.25L7.29289 27.2929C6.90237 27.6834 6.90237 28.3166 7.29289 28.7071C7.68342 29.0976 8.31658 29.0976 8.70711 28.7071L28.7071 8.70711ZM15.75 18.8358L18.3358 16.25L16.5 14.4142L13.9142 17L15.75 18.8358ZM13 10.9142L15.0858 13L12.5 15.5858L10.4142 13.5L13 10.9142ZM23.2071 18.2929C22.8166 17.9024 22.1834 17.9024 21.7929 18.2929C21.4024 18.6834 21.4024 19.3166 21.7929 19.7071L25.5 23.4142V26H22.9142L19.2071 22.2929C18.8166 21.9024 18.1834 21.9024 17.7929 22.2929C17.4024 22.6834 17.4024 23.3166 17.7929 23.7071L21.7636 27.6778C21.9699 27.8841 22.2497 28 22.5414 28H26.4C27.0075 28 27.5 27.5075 27.5 26.9V23.0414C27.5 22.7497 27.3841 22.4699 27.1778 22.2636L23.2071 18.2929Z" fill="black"/>
</svg>
