<svg width="36" height="36" viewBox="0 0 36 36" fill="none" xmlns="http://www.w3.org/2000/svg">
<path fill-rule="evenodd" clip-rule="evenodd" d="M7.34021 13.0461C5.87079 14.312 5 15.8098 5 17C5 18.1902 5.87079 19.688 7.34021 20.9539C8.7916 22.2044 10.5685 23 12 23C12.906 23 13.5087 22.8814 13.9462 22.734C14.3861 22.5858 14.7017 22.3958 15.0691 22.1715L15.0918 22.1576C15.6651 21.8074 16.3574 21.3846 17.5 21.3846C18.6426 21.3846 19.3349 21.8074 19.9082 22.1576L19.9309 22.1715C20.2983 22.3958 20.6139 22.5858 21.0538 22.734C21.4913 22.8814 22.094 23 23 23C24.3134 23 25.454 22.7947 26.4792 22.1708C26.951 21.8836 27.5662 22.0333 27.8534 22.5051C28.1405 22.9769 27.9908 23.5921 27.519 23.8792C26.0667 24.7631 24.5192 25 23 25C21.9127 25 21.0898 24.8566 20.4152 24.6293C19.7527 24.406 19.274 24.1138 18.9047 23.8882L18.8887 23.8785C18.3496 23.5493 18.0643 23.3846 17.5 23.3846C16.9357 23.3846 16.6504 23.5493 16.1113 23.8785L16.0953 23.8882C15.726 24.1138 15.2473 24.406 14.5848 24.6293C13.9102 24.8566 13.0873 25 12 25C9.93149 25 7.7084 23.911 6.03479 22.4691C4.37921 21.0428 3 19.0405 3 17C3 14.9595 4.37921 12.9572 6.03479 11.5309C7.7084 10.089 9.93149 9 12 9C13.0873 9 13.9102 9.14337 14.5848 9.3707C15.2473 9.59395 15.726 9.88623 16.0953 10.1118L16.1113 10.1215C16.6504 10.4507 16.9357 10.6154 17.5 10.6154C18.0643 10.6154 18.3496 10.4507 18.8887 10.1215L18.9047 10.1118C19.274 9.88623 19.7527 9.59395 20.4152 9.3707C21.0898 9.14337 21.9127 9 23 9C25.302 9 27.5304 10.0746 29.1679 11.5442C30.7888 12.9989 32 14.9984 32 17V29C32 29.5523 31.5523 30 31 30C30.4477 30 30 29.5523 30 29V17C30 15.7709 29.2112 14.2704 27.8321 13.0327C26.4696 11.81 24.698 11 23 11C22.094 11 21.4913 11.1186 21.0538 11.266C20.6139 11.4142 20.2983 11.6042 19.9309 11.8285L19.9082 11.8424C19.3349 12.1926 18.6426 12.6154 17.5 12.6154C16.3574 12.6154 15.6651 12.1926 15.0918 11.8424L15.0691 11.8285C14.7017 11.6042 14.3861 11.4142 13.9462 11.266C13.5087 11.1186 12.906 11 12 11C10.5685 11 8.7916 11.7956 7.34021 13.0461ZM9.09579 17C9.09721 16.9981 9.09865 16.9962 9.1001 16.9943C9.24071 16.8091 9.46464 16.5731 9.75978 16.3418C10.357 15.8736 11.1457 15.5 12 15.5C12.8543 15.5 13.643 15.8736 14.2402 16.3418C14.5354 16.5731 14.7593 16.8091 14.8999 16.9943C14.9014 16.9962 14.9028 16.9981 14.9042 17C14.9028 17.0019 14.9014 17.0038 14.8999 17.0057C14.7593 17.1909 14.5354 17.4269 14.2402 17.6582C13.643 18.1264 12.8543 18.5 12 18.5C11.1457 18.5 10.357 18.1264 9.75978 17.6582C9.46464 17.4269 9.24071 17.1909 9.1001 17.0057C9.09865 17.0038 9.09721 17.0019 9.09579 17ZM8.52593 14.7677C9.35727 14.116 10.5686 13.5 12 13.5C13.4314 13.5 14.6427 14.116 15.4741 14.7677C15.8932 15.0963 16.2407 15.4528 16.493 15.7851C16.6185 15.9505 16.7319 16.1249 16.8185 16.3003C16.8922 16.4495 17 16.7038 17 17C17 17.2962 16.8922 17.5505 16.8185 17.6997C16.7319 17.8751 16.6185 18.0495 16.493 18.2149C16.2407 18.5472 15.8932 18.9037 15.4741 19.2323C14.6427 19.884 13.4314 20.5 12 20.5C10.5686 20.5 9.35727 19.884 8.52593 19.2323C8.10679 18.9037 7.75929 18.5472 7.50704 18.2149C7.38151 18.0495 7.2681 17.8751 7.18151 17.6997C7.1078 17.5505 7 17.2962 7 17C7 16.7038 7.1078 16.4495 7.18151 16.3003C7.2681 16.1249 7.38151 15.9505 7.50704 15.7851C7.75929 15.4528 8.10679 15.0963 8.52593 14.7677ZM19.5256 14.7676C20.3571 14.116 21.5686 13.5 23 13.5C24.4315 13.5 25.6426 14.1161 26.4737 14.7678C26.8928 15.0964 27.2402 15.4529 27.4923 15.7853C27.6178 15.9507 27.7312 16.1251 27.8177 16.3004C27.8914 16.4497 27.9991 16.7039 27.9991 17C27.9991 17.2961 27.8914 17.5503 27.8177 17.6996C27.7312 17.8749 27.6178 18.0493 27.4923 18.2147C27.2402 18.5471 26.8928 18.9036 26.4737 19.2322C25.6426 19.8839 24.4315 20.5 23 20.5C21.5686 20.5 20.3571 19.884 19.5256 19.2324C19.1064 18.9038 18.7588 18.5474 18.5064 18.2151C18.3808 18.0497 18.2674 17.8752 18.1807 17.6999C18.107 17.5507 17.9991 17.2963 17.9991 17C17.9991 16.7037 18.107 16.4493 18.1807 16.3001C18.2674 16.1248 18.3808 15.9503 18.5064 15.7849C18.7588 15.4526 19.1064 15.0962 19.5256 14.7676ZM20.095 17C20.0964 16.9982 20.0978 16.9963 20.0992 16.9945C20.2399 16.8092 20.464 16.5732 20.7592 16.3418C21.3567 15.8736 22.1457 15.5 23 15.5C23.8543 15.5 24.6427 15.8736 25.2397 16.3417C25.5347 16.573 25.7585 16.8089 25.899 16.9941C25.9005 16.9961 25.902 16.9981 25.9035 17C25.902 17.0019 25.9005 17.0039 25.899 17.0059C25.7585 17.1911 25.5347 17.427 25.2397 17.6583C24.6427 18.1264 23.8543 18.5 23 18.5C22.1457 18.5 21.3567 18.1264 20.7592 17.6582C20.464 17.4268 20.2399 17.1908 20.0992 17.0055C20.0978 17.0037 20.0964 17.0018 20.095 17Z" fill="black"/>
</svg>
