<svg width="36" height="36" viewBox="0 0 36 36" fill="none" xmlns="http://www.w3.org/2000/svg">
<path d="M18.0059 18.7285C17.0513 19.2838 15.8271 18.9602 15.2718 18.0056C14.7164 17.051 15.04 15.8269 15.9946 15.2716C16.9492 14.7162 18.1733 15.0399 18.7286 15.9945C19.2841 16.9491 18.9604 18.1731 18.0059 18.7285Z" fill="black"/>
<path fill-rule="evenodd" clip-rule="evenodd" d="M28.0602 15.3095C25.8553 11.3692 22.6687 8.31288 18.9786 6.28535C17.5265 5.4875 15.7026 6.0179 14.9048 7.46999C14.4974 8.21132 14.4363 9.04952 14.6672 9.79866C14.4463 9.96571 14.2555 10.179 14.1106 10.4331L6.04626 24.5811C5.56445 25.4263 5.47705 26.4754 5.91492 27.3927C6.37866 28.3643 7.35327 29.0005 8.49975 29H24.9033C24.9225 29 24.9416 28.9997 24.9607 28.9992C24.9739 28.9997 24.9869 29 25.0002 29H29.0002C30.1045 29 30.9998 28.1051 31.0002 27.0009H31.025C31.0842 23.0405 30.1309 19.01 28.0602 15.3095ZM15.8481 11.4235C15.8519 11.4169 15.8564 11.4108 15.8614 11.4053C15.9347 11.4544 16.0106 11.5006 16.0894 11.5439C18.8226 13.0457 21.1835 15.3073 22.8242 18.2394C24.031 20.3962 24.725 22.6952 24.9479 25C25.0295 25 25.0749 25.3978 25.136 25.5028C25.4137 25.9801 26.0258 26.1419 26.503 25.8642C26.9457 25.6067 27.1171 25.0615 26.9181 24.603C26.6487 22.0975 25.8796 19.6027 24.5697 17.2619C22.741 13.9937 20.1049 11.4672 17.0527 9.79018C16.5687 9.52425 16.3918 8.91628 16.6578 8.43221C16.9238 7.9482 17.5317 7.77138 18.0157 8.03731C21.387 9.8896 24.2982 12.681 26.3151 16.2852C28.0128 19.3192 28.8882 22.5921 29.0124 25.8436C29.0124 25.8436 29.0002 26.1986 29.0002 27H22.2367C23.0798 26.0576 23.2632 24.6438 22.5929 23.4917C21.7599 22.0598 19.9238 21.5743 18.4919 22.4074C17.0599 23.2404 16.5746 25.0765 17.4076 26.5084C17.5117 26.6873 17.6313 26.8514 17.764 27H8.49975C7.74731 27.0009 7.41113 26.2252 7.78381 25.5715L9.36438 22.7985C10.0696 23.9595 11.5779 24.3466 12.7572 23.6605C13.9504 22.9664 14.355 21.4363 13.6608 20.2431C13.2023 19.455 12.3793 19.011 11.5294 19.0003L15.8481 11.4235Z" fill="black"/>
</svg>
