<svg width="36" height="36" viewBox="0 0 36 36" fill="none" xmlns="http://www.w3.org/2000/svg">
<path fill-rule="evenodd" clip-rule="evenodd" d="M10.9251 7.20006C11.3669 7.53143 11.4564 8.15823 11.1251 8.60006C10.3422 9.6439 8.99631 13.1065 11.2195 17.5528C13.7963 22.7065 12.3422 26.9772 11.1251 28.6001C10.7937 29.0419 10.1669 29.1314 9.72506 28.8001C9.28323 28.4687 9.19369 27.8419 9.52506 27.4001C10.3079 26.3562 11.6538 22.8936 9.43063 18.4473C6.85381 13.2936 8.30794 9.02288 9.52506 7.40006C9.85643 6.95823 10.4832 6.86869 10.9251 7.20006ZM26.9251 7.20006C27.3669 7.53143 27.4564 8.15823 27.1251 8.60006C26.3422 9.6439 24.9963 13.1065 27.2195 17.5528C29.7963 22.7065 28.3422 26.9772 27.1251 28.6001C26.7937 29.0419 26.1669 29.1314 25.7251 28.8001C25.2832 28.4687 25.1937 27.8419 25.5251 27.4001C26.3079 26.3562 27.6538 22.8936 25.4306 18.4473C22.8538 13.2936 24.3079 9.02288 25.5251 7.40006C25.8564 6.95823 26.4832 6.86869 26.9251 7.20006ZM19.1251 8.60006C19.4564 8.15823 19.3669 7.53143 18.9251 7.20006C18.4832 6.86869 17.8564 6.95823 17.5251 7.40006C16.3079 9.02288 14.8538 13.2936 17.4306 18.4473C19.6538 22.8936 18.3079 26.3562 17.5251 27.4001C17.1937 27.8419 17.2832 28.4687 17.7251 28.8001C18.1669 29.1314 18.7937 29.0419 19.1251 28.6001C20.3422 26.9772 21.7963 22.7065 19.2195 17.5528C16.9963 13.1065 18.3422 9.6439 19.1251 8.60006Z" fill="black"/>
</svg>
