<svg width="36" height="36" viewBox="0 0 36 36" fill="none" xmlns="http://www.w3.org/2000/svg">
<path fill-rule="evenodd" clip-rule="evenodd" d="M10 7C9.44772 7 9 7.44772 9 8V28C9 28.5523 9.44772 29 10 29H26C26.5523 29 27 28.5523 27 28V14H21.1C20.4925 14 20 13.5075 20 12.9V7H10ZM22 12H26.5858L22 7.41421V12ZM29 28V13V12.0414C29 11.7497 28.8841 11.4699 28.6778 11.2636L22.7364 5.32218C22.5301 5.11589 22.2503 5 21.9586 5H21H10C8.34315 5 7 6.34314 7 8V28C7 29.6569 8.34315 31 10 31H26C27.6569 31 29 29.6569 29 28ZM10.8213 20.4555C10.996 20.4502 11.1523 20.4449 11.2899 20.4396C11.4329 20.429 11.5759 20.4211 11.7189 20.4158C11.8619 20.4105 12.0101 20.4078 12.1637 20.4078C12.3226 20.4025 12.5053 20.3999 12.7118 20.3999C13.1831 20.3999 13.5802 20.437 13.9033 20.5111C14.2316 20.5852 14.4964 20.7044 14.6976 20.8686C14.9041 21.0274 15.0524 21.2366 15.1424 21.4961C15.2324 21.7503 15.2775 22.06 15.2775 22.4254C15.2775 23.1721 15.0709 23.7228 14.6579 24.0776C14.2448 24.4271 13.5908 24.6019 12.6959 24.6019H12.4099C12.3252 24.5966 12.2299 24.5886 12.124 24.5781V25.9999H10.8213V20.4555ZM12.124 23.4978C12.2352 23.5084 12.3305 23.5163 12.4099 23.5216H12.6959C12.9289 23.5216 13.1248 23.5004 13.2837 23.4581C13.4426 23.4157 13.5697 23.3521 13.665 23.2674C13.7603 23.1774 13.8291 23.0688 13.8715 22.9417C13.9139 22.8147 13.935 22.6637 13.935 22.489C13.935 22.3195 13.9165 22.1712 13.8794 22.0442C13.8424 21.9171 13.7762 21.8138 13.6809 21.7344C13.5855 21.6496 13.4585 21.5861 13.2996 21.5437C13.1407 21.5014 12.9395 21.4802 12.6959 21.4802C12.59 21.4802 12.4947 21.4828 12.4099 21.4881C12.3252 21.4881 12.2299 21.4934 12.124 21.504V23.4978ZM22.5214 21.5676H20.8454V20.4397H25.5001V21.5676H23.8241V26H22.5214V21.5676ZM16.4735 20.4396C16.3358 20.4449 16.1796 20.4502 16.0048 20.4555V25.9999H17.3075V24.5781C17.4134 24.5886 17.5087 24.5966 17.5935 24.6019H17.8794C18.7744 24.6019 19.4284 24.4271 19.8414 24.0776C20.2545 23.7228 20.461 23.1721 20.461 22.4254C20.461 22.06 20.416 21.7503 20.326 21.4961C20.2359 21.2366 20.0877 21.0274 19.8811 20.8686C19.6799 20.7044 19.4151 20.5852 19.0868 20.5111C18.7638 20.437 18.3666 20.3999 17.8953 20.3999C17.6888 20.3999 17.5061 20.4025 17.3472 20.4078C17.1937 20.4078 17.0454 20.4105 16.9024 20.4158C16.7594 20.4211 16.6165 20.429 16.4735 20.4396ZM17.5935 23.5216C17.514 23.5163 17.4187 23.5084 17.3075 23.4978V21.504C17.4134 21.4934 17.5087 21.4881 17.5935 21.4881C17.6782 21.4828 17.7735 21.4802 17.8794 21.4802C18.123 21.4802 18.3243 21.5014 18.4831 21.5437C18.642 21.5861 18.7691 21.6496 18.8644 21.7344C18.9597 21.8138 19.0259 21.9171 19.063 22.0442C19.1 22.1712 19.1186 22.3195 19.1186 22.489C19.1186 22.6637 19.0974 22.8147 19.055 22.9417C19.0127 23.0688 18.9438 23.1774 18.8485 23.2674C18.7532 23.3521 18.6261 23.4157 18.4672 23.4581C18.3084 23.5004 18.1124 23.5216 17.8794 23.5216H17.5935Z" fill="black"/>
</svg>
