<svg width="36" height="36" viewBox="0 0 36 36" fill="none" xmlns="http://www.w3.org/2000/svg">
<path fill-rule="evenodd" clip-rule="evenodd" d="M18.4958 6.15243C17.9068 4.76593 17.0323 3.60239 16.0453 2.85832C15.0827 2.13269 13.8263 1.68643 12.6342 2.19278L10.0137 3.30583C8.82161 3.81218 8.27043 5.02622 8.1243 6.22274C7.97446 7.4497 8.2046 8.88695 8.79351 10.2735C9.38243 11.66 10.257 12.8235 11.244 13.5676C12.2066 14.2932 13.463 14.7394 14.6551 14.2331L17.2755 13.1201C18.4677 12.6137 19.0189 11.3997 19.165 10.2031C19.3148 8.97618 19.0847 7.53893 18.4958 6.15243ZM13.4161 4.03361C13.6712 3.92525 14.157 3.9395 14.8413 4.45536C15.5012 4.95276 16.1781 5.81167 16.6549 6.93432C17.1318 8.05697 17.2799 9.1405 17.1797 9.9607C17.0758 10.8113 16.7488 11.1709 16.4937 11.2792L15.8727 11.543C15.5935 11.4764 15.2724 11.3243 14.918 11.0572C14.2172 10.5289 13.5156 9.63193 13.0248 8.4763C12.9324 8.25896 12.8516 8.04188 12.782 7.82664C12.6545 7.43253 12.2317 7.21638 11.8376 7.34386C11.4435 7.47133 11.2273 7.89416 11.3548 8.28827C11.4381 8.54595 11.5345 8.80467 11.6441 9.06271C12.219 10.4162 13.0689 11.5417 14.015 12.2549C14.0369 12.2714 14.059 12.2878 14.0811 12.304L13.8732 12.3923C13.6181 12.5006 13.1322 12.4864 12.4479 11.9705C11.7881 11.4731 11.1112 10.6142 10.6343 9.49156C10.1575 8.36892 10.0094 7.28539 10.1096 6.46518C10.2134 5.61454 10.5405 5.25502 10.7956 5.14666L11.0037 5.05828C10.9955 5.11756 10.9883 5.17701 10.982 5.23656C10.9391 5.64854 11.2383 6.01734 11.6502 6.06029C12.0622 6.10324 12.431 5.80408 12.474 5.3921C12.5234 4.91752 12.6414 4.55781 12.7954 4.29725L13.4161 4.03361Z" fill="black"/>
<path fill-rule="evenodd" clip-rule="evenodd" d="M11.8312 16.5768C13.4925 16.9711 15.241 17.9762 16.7315 19.4553C18.2221 20.9344 19.2407 22.6751 19.6477 24.3333C20.0499 25.972 19.8824 27.7073 18.7063 28.8925L15.672 31.9503C14.4959 33.1355 12.7619 33.3163 11.1202 32.9268C9.45891 32.5325 7.71043 31.5274 6.21987 30.0483C4.72932 28.5692 3.71074 26.8285 3.30372 25.1703C2.90151 23.5316 3.06898 21.7963 4.24511 20.6111L7.27942 17.5533C8.45556 16.3681 10.1895 16.1872 11.8312 16.5768ZM11.3695 18.5228C10.102 18.222 9.19873 18.4585 8.69907 18.9621L8.01779 19.6486C7.83987 20.2228 7.8395 20.9507 8.06437 21.7999C8.17039 22.2003 7.93175 22.6109 7.53133 22.7169C7.13092 22.823 6.72037 22.5843 6.61434 22.1839C6.53165 21.8716 6.47038 21.5574 6.43316 21.2455L5.66476 22.0198C5.16512 22.5233 4.93554 23.4284 5.24607 24.6935C5.5518 25.9391 6.35577 27.3655 7.62863 28.6286C8.90149 29.8917 10.3341 30.6847 11.582 30.9808C12.8494 31.2816 13.7527 31.045 14.2523 30.5415L15.0206 29.7674C14.752 29.7374 14.4816 29.6896 14.2123 29.6257C12.6027 29.2438 10.8937 28.2651 9.43037 26.813C9.15196 26.5367 8.89116 26.252 8.6486 25.9612C8.38329 25.6431 8.42608 25.1702 8.74417 24.9048C9.06227 24.6395 9.53521 24.6823 9.80052 25.0004C10.0128 25.255 10.2418 25.505 10.4869 25.7483C11.787 27.0384 13.2591 27.8579 14.5586 28.1663C15.3655 28.3577 16.0565 28.3451 16.605 28.1706L17.2867 27.4838C17.7863 26.9802 18.0159 26.0752 17.7054 24.8101C17.3996 23.5645 16.5957 22.1381 15.3228 20.875C14.0499 19.6119 12.6173 18.8189 11.3695 18.5228Z" fill="black"/>
<path fill-rule="evenodd" clip-rule="evenodd" d="M19.3649 15.826C19.8193 14.5008 20.7745 13.1649 22.0843 12.0797C23.394 10.9945 24.8843 10.3043 26.2709 10.1042C27.6376 9.90693 29.083 10.1755 29.9928 11.2735L32.1778 13.9107C33.0875 15.0087 33.0826 16.4789 32.6347 17.7851C32.1803 19.1103 31.2251 20.4463 29.9153 21.5314C28.6055 22.6166 27.1153 23.3068 25.7287 23.5069C24.362 23.7042 22.9165 23.4356 22.0068 22.3376L19.8218 19.7004C18.9121 18.6024 18.9169 17.1322 19.3649 15.826ZM21.2567 16.4748C20.9336 17.4171 21.0649 18.0659 21.3619 18.4244L21.884 19.0546C22.2742 19.1868 22.7736 19.2231 23.3758 19.125C23.7847 19.0584 24.1701 19.3358 24.2367 19.7447C24.3033 20.1535 24.0259 20.5389 23.617 20.6055C23.4821 20.6275 23.3468 20.6448 23.2117 20.6571L23.5469 21.0616C23.8439 21.4201 24.457 21.6698 25.443 21.5274C26.4091 21.388 27.5657 20.8809 28.6393 19.9914C29.7129 19.1018 30.4262 18.0597 30.7429 17.1364C31.066 16.194 30.9347 15.5452 30.6377 15.1867L30.3027 14.7823C30.2755 14.8776 30.2456 14.9725 30.2133 15.0668C29.7761 16.3417 28.8511 17.6409 27.5708 18.7017C27.327 18.9037 27.0777 19.0909 26.8249 19.2631C26.4825 19.4962 26.0159 19.4077 25.7828 19.0653C25.5497 18.7229 25.6382 18.2564 25.9806 18.0233C26.1944 17.8777 26.4061 17.7187 26.6138 17.5466C27.717 16.6326 28.4605 15.5538 28.7944 14.5802C28.98 14.039 29.0296 13.5687 28.9751 13.18L28.4527 12.5495C28.1557 12.191 27.5426 11.9414 26.5566 12.0837C25.5905 12.2231 24.4339 12.7303 23.3603 13.6198C22.2867 14.5093 21.5733 15.5514 21.2567 16.4748Z" fill="black"/>
</svg>
