<svg width="36" height="36" viewBox="0 0 36 36" fill="none" xmlns="http://www.w3.org/2000/svg">
<path fill-rule="evenodd" clip-rule="evenodd" d="M10.5 8.5V12.5H12.5C13.6046 12.5 14.5 11.6046 14.5 10.5C14.5 9.39543 13.6046 8.5 12.5 8.5H10.5ZM16.5 10.5C16.5 12.7091 14.7091 14.5 12.5 14.5H10.5V15.5H12C12.5523 15.5 13 15.9477 13 16.5C13 17.0523 12.5523 17.5 12 17.5H10.5V18C10.5 18.5523 10.0523 19 9.5 19C8.94772 19 8.5 18.5523 8.5 18V17.5H8C7.44772 17.5 7 17.0523 7 16.5C7 15.9477 7.44772 15.5 8 15.5H8.5V14.5H8C7.44772 14.5 7 14.0523 7 13.5C7 12.9477 7.44772 12.5 8 12.5H8.5V7.6C8.5 6.9925 8.99248 6.5 9.6 6.5H12.5C14.7091 6.5 16.5 8.29086 16.5 10.5ZM23.8064 11.5914C24.133 11.146 24.0367 10.5202 23.5914 10.1936C23.146 9.86699 22.5202 9.96327 22.1936 10.4086L11.1936 25.4086C10.867 25.854 10.9633 26.4798 11.4086 26.8064C11.854 27.133 12.4798 27.0367 12.8064 26.5914L23.8064 11.5914ZM25.9999 17.5C25.9999 16.9477 25.5522 16.5 24.9999 16.5C24.4476 16.5 23.9999 16.9477 23.9999 17.5V17.9999H23.75C22.2312 17.9999 21 19.2312 21 20.7499C21 22.2687 22.2312 23.4999 23.75 23.4999H26.2502C26.6644 23.4999 27.0002 23.8357 27.0002 24.2499C27.0002 24.6642 26.6644 24.9999 26.2502 24.9999H22C21.4477 24.9999 21 25.4477 21 25.9999C21 26.5522 21.4477 26.9999 22 26.9999H23.9999V27.5001C23.9999 28.0523 24.4476 28.5001 24.9999 28.5001C25.5522 28.5001 25.9999 28.0523 25.9999 27.5001V26.9999H26.2502C27.769 26.9999 29.0002 25.7687 29.0002 24.2499C29.0002 22.7312 27.769 21.4999 26.2502 21.4999H23.75C23.3358 21.4999 23 21.1642 23 20.7499C23 20.3357 23.3358 19.9999 23.75 19.9999H28.0002C28.5525 19.9999 29.0002 19.5522 29.0002 18.9999C29.0002 18.4477 28.5525 17.9999 28.0002 17.9999H25.9999V17.5Z" fill="black"/>
</svg>
