<svg width="36" height="36" viewBox="0 0 36 36" fill="none" xmlns="http://www.w3.org/2000/svg">
<path fill-rule="evenodd" clip-rule="evenodd" d="M9 9C9 8.0255 9.93039 7 11 7C12.0696 7 13 8.0255 13 9C13 9.55228 13.4477 10 14 10C14.5523 10 15 9.55228 15 9C15 6.99216 13.2441 5 11 5C8.7559 5 7 6.99216 7 9C7 10.7015 8.2573 12.3841 10 12.8644V15.1707C8.83481 15.5825 8 16.6938 8 18C8 19.0679 8.55801 20.0055 9.39836 20.5371C8.98689 21.1578 8.54812 21.8818 8.16104 22.6487C7.54475 23.8698 7 25.3139 7 26.6667C7 28.0395 7.45725 29.145 8.23993 29.907C9.01123 30.6579 10.022 31 11 31C11.978 31 12.9888 30.6579 13.7601 29.907C14.5428 29.145 15 28.0395 15 26.6667C15 25.3139 14.4553 23.8698 13.839 22.6487C13.4519 21.8818 13.0131 21.1578 12.6016 20.5371C13.442 20.0055 14 19.0679 14 18C14 16.6938 13.1652 15.5825 12 15.1707V12.1C12 11.4809 11.5031 11.0197 10.9366 10.9988C9.89075 10.9604 9 9.95049 9 9ZM9 26.6667C9 25.7889 9.37349 24.6852 9.94652 23.5499C10.2724 22.9042 10.6437 22.285 11 21.7413C11.3563 22.285 11.7276 22.9042 12.0535 23.5499C12.6265 24.6852 13 25.7889 13 26.6667C13 27.5795 12.7072 28.1407 12.3649 28.474C12.0112 28.8183 11.522 29 11 29C10.478 29 9.98877 28.8183 9.63507 28.474C9.29275 28.1407 9 27.5795 9 26.6667ZM11 17C10.4477 17 10 17.4477 10 18C10 18.5523 10.4477 19 11 19C11.5523 19 12 18.5523 12 18C12 17.4477 11.5523 17 11 17ZM27 9C27 8.0255 26.0696 7 25 7C23.9304 7 23 8.0255 23 9C23 9.55228 22.5523 10 22 10C21.4477 10 21 9.55228 21 9C21 6.99216 22.7559 5 25 5C27.2441 5 29 6.99216 29 9C29 10.7015 27.7427 12.3841 26 12.8644V15.1707C27.1652 15.5825 28 16.6938 28 18C28 19.0679 27.442 20.0055 26.6016 20.5371C27.0131 21.1578 27.4519 21.8818 27.839 22.6487C28.4553 23.8698 29 25.3139 29 26.6667C29 28.0395 28.5428 29.145 27.7601 29.907C26.9888 30.6579 25.978 31 25 31C24.022 31 23.0112 30.6579 22.2399 29.907C21.4572 29.145 21 28.0395 21 26.6667C21 25.3139 21.5447 23.8698 22.161 22.6487C22.5481 21.8818 22.9869 21.1578 23.3984 20.5371C22.558 20.0055 22 19.0679 22 18C22 16.6938 22.8348 15.5825 24 15.1707V12.1C24 11.4809 24.4969 11.0197 25.0634 10.9988C26.1092 10.9604 27 9.95049 27 9ZM26.0535 23.5499C26.6265 24.6852 27 25.7889 27 26.6667C27 27.5795 26.7072 28.1407 26.3649 28.474C26.0112 28.8183 25.522 29 25 29C24.478 29 23.9888 28.8183 23.6351 28.474C23.2928 28.1407 23 27.5795 23 26.6667C23 25.7889 23.3735 24.6852 23.9465 23.5499C24.2724 22.9042 24.6437 22.285 25 21.7413C25.3563 22.285 25.7276 22.9042 26.0535 23.5499ZM26 18C26 17.4477 25.5523 17 25 17C24.4477 17 24 17.4477 24 18C24 18.5523 24.4477 19 25 19C25.5523 19 26 18.5523 26 18Z" fill="black"/>
</svg>
