<svg width="36" height="36" viewBox="0 0 36 36" fill="none" xmlns="http://www.w3.org/2000/svg">
<path fill-rule="evenodd" clip-rule="evenodd" d="M29.4699 14.3477L17.9999 7.1789L6.52989 14.3477C6.06155 14.6404 5.4446 14.498 5.15189 14.0297C4.85918 13.5613 5.00155 12.9444 5.46989 12.6517L17.4169 5.18478C17.7736 4.96184 18.2262 4.96185 18.5829 5.18478L26 9.82047V6.99976C26 6.44747 26.4477 5.99976 27 5.99976C27.5523 5.99976 28 6.44747 28 6.99976V11.0705L30.5299 12.6517C30.9982 12.9444 31.1406 13.5613 30.8479 14.0297C30.5552 14.498 29.9382 14.6404 29.4699 14.3477ZM9 14.9998C9.55228 14.9998 10 15.4475 10 15.9998V26.9998C10 27.552 10.4477 27.9998 11 27.9998H25C25.5523 27.9998 26 27.552 26 26.9998V15.9998C26 15.4475 26.4477 14.9998 27 14.9998C27.5523 14.9998 28 15.4475 28 15.9998V26.9998C28 28.6566 26.6569 29.9998 25 29.9998H11C9.34315 29.9998 8 28.6566 8 26.9998V15.9998C8 15.4475 8.44772 14.9998 9 14.9998ZM16.1868 17.4214C16.4513 17.0456 16.7292 16.7135 17 16.4328V17.1514C17 19.3128 19.138 20.6348 20.9751 19.9957C21.1469 20.834 21.0011 21.5838 20.6594 22.1545C20.1975 22.926 19.3014 23.4998 18 23.4998C16.4686 23.4998 15 22.3674 15 20.4998C15 19.5757 15.4662 18.4452 16.1868 17.4214ZM19 14.6386C19 13.9184 18.2657 13.3044 17.4901 13.6233C16.4821 14.0379 15.3792 15.0939 14.5513 16.2703C13.7141 17.4598 13 18.9946 13 20.4998C13 23.6322 15.5314 25.4998 18 25.4998C19.9375 25.4998 21.5191 24.6121 22.3754 23.1819C23.2268 21.7598 23.2843 19.9321 22.4606 18.1887C22.1503 17.532 21.3011 17.3532 20.752 17.8239L20.6508 17.9106C20.0021 18.4666 19 18.0057 19 17.1514V14.6386Z" fill="black"/>
</svg>
