<svg width="36" height="36" viewBox="0 0 36 36" fill="none" xmlns="http://www.w3.org/2000/svg">
<path fill-rule="evenodd" clip-rule="evenodd" d="M14 7C13.4477 7 13 7.44772 13 8V9H22C23.6569 9 25 10.3431 25 12V25H26C26.5523 25 27 24.5523 27 24V8C27 7.44772 26.5523 7 26 7H14ZM11 8V9H10C8.34315 9 7 10.3431 7 12V28C7 29.6569 8.34315 31 10 31H22C23.6569 31 25 29.6569 25 28V27H26C27.6569 27 29 25.6569 29 24V8C29 6.34315 27.6569 5 26 5H14C12.3431 5 11 6.34315 11 8ZM23 26V28C23 28.5523 22.5523 29 22 29H10C9.44772 29 9 28.5523 9 28V12C9 11.4477 9.44772 11 10 11H12H22C22.5523 11 23 11.4477 23 12V26ZM11 16H21V14H11V16ZM21 21H11V19H21V21ZM11 26H21V24H11V26Z" fill="black"/>
</svg>
