<svg width="36" height="36" viewBox="0 0 36 36" fill="none" xmlns="http://www.w3.org/2000/svg">
<path fill-rule="evenodd" clip-rule="evenodd" d="M14 7C13.4477 7 13 7.44772 13 8C13 8.55228 13.4477 9 14 9H24V27H14C13.4477 27 13 27.4477 13 28C13 28.5523 13.4477 29 14 29H24C25.1046 29 26 28.1046 26 27V9C26 7.89543 25.1046 7 24 7H14ZM14.2929 12.7071C13.9023 12.3166 13.9023 11.6834 14.2929 11.2929C14.6834 10.9024 15.3166 10.9024 15.7071 11.2929L21.6364 17.2222C22.0659 17.6518 22.066 18.3482 21.6364 18.7778L15.7071 24.7071C15.3166 25.0976 14.6834 25.0976 14.2929 24.7071C13.9023 24.3166 13.9023 23.6834 14.2929 23.2929L19.5858 18L14.2929 12.7071ZM10.2929 14.7071C9.90235 14.3166 9.90235 13.6834 10.2929 13.2929C10.6834 12.9024 11.3166 12.9024 11.7071 13.2929L15.6364 17.2222C15.6485 17.2343 15.6603 17.2467 15.6717 17.2592C15.8734 17.4422 16 17.7063 16 18C16 18.2937 15.8734 18.5578 15.6717 18.7408C15.6603 18.7533 15.6485 18.7657 15.6364 18.7778L11.7071 22.7071C11.3166 23.0976 10.6834 23.0976 10.2929 22.7071C9.90235 22.3166 9.90235 21.6834 10.2929 21.2929L12.5858 19H7C6.44771 19 6 18.5523 6 18C6 17.4477 6.44771 17 7 17H12.5858L10.2929 14.7071Z" fill="black"/>
</svg>
