<svg width="36" height="36" viewBox="0 0 36 36" fill="none" xmlns="http://www.w3.org/2000/svg">
<path fill-rule="evenodd" clip-rule="evenodd" d="M27 23C27 24.6563 25.6563 26 24 26H12C10.3437 26 9 24.6563 9 23L9 11C9 9.34371 10.3437 8 12 8H24C25.6563 8 27 9.34372 27 11V23ZM25 23V11C25 10.4483 24.5517 10 24 10L12 10C11.4483 10 11 10.4483 11 11L11 23C11 23.5517 11.4483 24 12 24H24C24.5517 24 25 23.5517 25 23Z" fill="black"/>
<path d="M8 23C8 23.5523 7.55228 24 7 24C5.89491 24 5 23.1045 5 22V12C5 10.8955 5.89491 10 7 10C7.55229 10 8 10.4477 8 11C8 11.5523 7.55229 12 7 12L7 22C7.55228 22 8 22.4477 8 23Z" fill="black"/>
<path d="M28 11C28 10.4477 28.4477 10 29 10C30.1051 10 31 10.8955 31 12V22C31 23.1045 30.1051 24 29 24C28.4477 24 28 23.5523 28 23C28 22.4477 28.4477 22 29 22V12C28.4477 12 28 11.5523 28 11Z" fill="black"/>
</svg>
