<svg width="36" height="36" viewBox="0 0 36 36" fill="none" xmlns="http://www.w3.org/2000/svg">
<path fill-rule="evenodd" clip-rule="evenodd" d="M25 7C25 6.44772 24.5523 6 24 6C23.4477 6 23 6.44772 23 7V7.65767C23 8.57541 22.3754 9.37537 21.4851 9.59796L20.0299 9.96176C18.5283 10.3371 17.4047 11.5336 17.0893 13H11C6.58172 13 3 16.5817 3 21V21.3142C3 25.559 6.44105 29 10.6858 29C13.4022 29 15.8854 27.4653 17.1002 25.0357L17.118 25H18.882L18.8998 25.0357C20.1146 27.4653 22.5978 29 25.3142 29C29.559 29 33 25.559 33 21.3142V21C33 16.5817 29.4183 13 25 13H19.1859C19.4344 12.4653 19.9142 12.0522 20.5149 11.902L21.9701 11.5382C23.7508 11.0931 25 9.49314 25 7.65767V7ZM18 15H11C7.68629 15 5 17.6863 5 21V21.3142C5 24.4544 7.54562 27 10.6858 27C12.6446 27 14.4353 25.8933 15.3113 24.1413L15.4517 23.8605C15.7154 23.3331 16.2544 23 16.844 23H19.156C19.7456 23 20.2846 23.3331 20.5483 23.8605L20.6887 24.1413C21.5647 25.8933 23.3554 27 25.3142 27C28.4544 27 31 24.4544 31 21.3142V21C31 17.6863 28.3137 15 25 15H18ZM10.5 18C11.0523 18 11.5 18.4477 11.5 19V20H12.5C13.0523 20 13.5 20.4477 13.5 21C13.5 21.5523 13.0523 22 12.5 22H11.5V23C11.5 23.5523 11.0523 24 10.5 24C9.94772 24 9.5 23.5523 9.5 23V22H8.5C7.94772 22 7.5 21.5523 7.5 21C7.5 20.4477 7.94772 20 8.5 20H9.5V19C9.5 18.4477 9.94772 18 10.5 18ZM23 21C23 21.5523 22.5523 22 22 22C21.4477 22 21 21.5523 21 21C21 20.4477 21.4477 20 22 20C22.5523 20 23 20.4477 23 21ZM25 19.5C25.5523 19.5 26 19.0523 26 18.5C26 17.9477 25.5523 17.5 25 17.5C24.4477 17.5 24 17.9477 24 18.5C24 19.0523 24.4477 19.5 25 19.5ZM26 23.5C26 24.0523 25.5523 24.5 25 24.5C24.4477 24.5 24 24.0523 24 23.5C24 22.9477 24.4477 22.5 25 22.5C25.5523 22.5 26 22.9477 26 23.5ZM28 22C28.5523 22 29 21.5523 29 21C29 20.4477 28.5523 20 28 20C27.4477 20 27 20.4477 27 21C27 21.5523 27.4477 22 28 22Z" fill="black"/>
</svg>
