<svg width="36" height="36" viewBox="0 0 36 36" fill="none" xmlns="http://www.w3.org/2000/svg">
<path fill-rule="evenodd" clip-rule="evenodd" d="M10 12.009C10 11.452 10.443 11 11.009 11H12.991C13.548 11 14 11.443 14 12.009V13.99C14 14.548 13.557 15 12.991 15H11.009C10.452 15 10 14.556 10 13.99V12.009ZM18.376 28.5695L20.774 25.8285C20.956 25.6215 20.935 25.3055 20.728 25.1235C20.636 25.0435 20.519 24.9995 20.398 24.9995H15.601C15.325 24.9995 15.101 25.2235 15.101 25.4995C15.101 25.6205 15.145 25.7375 15.225 25.8285L17.624 28.5695C17.806 28.7775 18.122 28.7985 18.329 28.6165C18.346 28.6025 18.362 28.5865 18.376 28.5695ZM17.009 11C16.443 11 16 11.452 16 12.009V13.99C16 14.556 16.452 15 17.009 15H18.991C19.557 15 20 14.548 20 13.99V12.009C20 11.443 19.548 11 18.991 11H17.009ZM22 12.009C22 11.452 22.443 11 23.009 11H24.991C25.548 11 26 11.443 26 12.009V13.99C26 14.548 25.557 15 24.991 15H23.009C22.452 15 22 14.556 22 13.99V12.009ZM11.009 17C10.443 17 10 17.452 10 18.009V19.99C10 20.556 10.452 21 11.009 21H12.991C13.557 21 14 20.548 14 19.99V18.009C14 17.443 13.548 17 12.991 17H11.009ZM16 18.009C16 17.452 16.443 17 17.009 17H18.991C19.548 17 20 17.443 20 18.009V19.99C20 20.548 19.557 21 18.991 21H17.009C16.452 21 16 20.556 16 19.99V18.009ZM23.009 17C22.443 17 22 17.452 22 18.009V19.99C22 20.556 22.452 21 23.009 21H24.991C25.557 21 26 20.548 26 19.99V18.009C26 17.443 25.548 17 24.991 17H23.009Z" fill="black"/>
</svg>
