<svg width="36" height="36" viewBox="0 0 36 36" fill="none" xmlns="http://www.w3.org/2000/svg">
<path fill-rule="evenodd" clip-rule="evenodd" d="M25 30C23.8955 30 23 29.1051 23 28H15C11.1347 28 8 24.8653 8 21V13H7C5.94573 13 5.08184 12.1846 5.00549 11.1493L5 11V8C5 6.89491 5.89552 6 7 6H19C20.1045 6 21 6.89491 21 8V11C21 12.1051 20.1045 13 19 13H18V18H23L23.0055 17.8507C23.0782 16.8647 23.8652 16.0782 24.8507 16.0055L25 16H28C29.1045 16 30 16.8949 30 18V28C30 29.1051 29.1045 30 28 30H25ZM19 8H7V11H10V21C10 23.7607 12.2393 26 15 26H25V28H28V18H25V20H18C16.8955 20 16 19.1051 16 18V11H19V8ZM14.5 18.5C14.5 19.328 13.829 20 13 20C12.171 20 11.5 19.328 11.5 18.5C11.5 17.672 12.171 17 13 17C13.829 17 14.5 17.672 14.5 18.5ZM15 24C15.829 24 16.5 23.328 16.5 22.5C16.5 21.672 15.829 21 15 21C14.171 21 13.5 21.672 13.5 22.5C13.5 23.328 14.171 24 15 24Z" fill="black"/>
</svg>
