<svg width="36" height="36" viewBox="0 0 36 36" fill="none" xmlns="http://www.w3.org/2000/svg">
<path fill-rule="evenodd" clip-rule="evenodd" d="M13.15 9C13.15 7.89543 14.0454 7 15.15 7H20.85C21.9546 7 22.85 7.89543 22.85 9V14.15H28C29.1046 14.15 30 15.0454 30 16.15V21.85C30 22.9546 29.1046 23.85 28 23.85H22.85V29C22.85 30.1046 21.9546 31 20.85 31H15.15C14.0454 31 13.15 30.1046 13.15 29V23.85H8C6.89543 23.85 6 22.9546 6 21.85V16.15C6 15.0454 6.89543 14.15 8 14.15H13.15V9ZM20.85 9L15.15 9V16.15H8V21.85H15.15V29H20.85V21.85H28V16.15H20.85V9Z" fill="black"/>
</svg>
