<svg width="36" height="36" viewBox="0 0 36 36" fill="none" xmlns="http://www.w3.org/2000/svg">
<path d="M16 10C15.4478 10 15 10.4477 15 11C15 11.5523 15.4478 12 16 12H17C17.5523 12 18 11.5523 18 11C18 10.4477 17.5523 10 17 10H16Z" fill="black"/>
<path fill-rule="evenodd" clip-rule="evenodd" d="M25 14.204C25 17.6224 22.3416 20.4513 19 20.929V29H22C22.5523 29 23 29.4477 23 30C23 30.5523 22.5523 31 22 31H14C13.4478 31 13 30.5523 13 30C13 29.4477 13.4478 29 14 29H17V20.929C13.6585 20.4513 11 17.6224 11 14.204C11 14.1739 11.0003 14.1439 11.0006 14.1138C10.9993 14.0743 11.0001 14.0346 11.0029 13.9948L11.0034 13.9888C11.0092 13.8048 11.0225 13.6226 11.0429 13.4422L11.502 7.07178C11.5455 6.4679 12.0536 6 12.6657 6H23.3115C23.9223 6 24.4296 6.46576 24.475 7.06805L24.952 13.3979C24.9754 13.5928 24.9904 13.79 24.9966 13.9891L24.9968 13.9911C24.9983 14.0104 24.9993 14.0296 24.9998 14.0488C25.0003 14.0706 25.0001 14.0922 24.9994 14.1138C24.9998 14.1439 25 14.1739 25 14.204ZM22.9662 13.6356C22.9628 13.6066 22.96 13.5775 22.9578 13.5483L22.5396 8H13.4403L13.0376 13.586C13.0357 13.613 13.0332 13.6399 13.0302 13.6667C13.0189 13.7659 13.0109 13.8661 13.0059 13.9672C13.0044 13.9953 13.0033 14.0235 13.0025 14.0518C13.002 14.0665 13.0014 14.0813 13.0005 14.096C13.0006 14.1107 13.0006 14.1255 13.0004 14.1402L13 14.204C13 16.7845 15.24 19 18 19C20.76 19 23 16.7845 23 14.204L22.9996 14.1402L22.9995 14.1239V14.0961L22.9985 14.0768L22.9976 14.0521C22.9932 13.9114 22.9827 13.7726 22.9662 13.6356Z" fill="black"/>
</svg>
