<svg width="36" height="36" viewBox="0 0 36 36" fill="none" xmlns="http://www.w3.org/2000/svg">
<path fill-rule="evenodd" clip-rule="evenodd" d="M12 10V14H27V10H12ZM11 8C10.4477 8 10 8.44772 10 9V15C10 15.5523 10.4477 16 11 16H28C28.5523 16 29 15.5523 29 15V9C29 8.44772 28.5523 8 28 8H11ZM12 20V24H27V20H12ZM11 18C10.4477 18 10 18.4477 10 19V25C10 25.5523 10.4477 26 11 26H28C28.5523 26 29 25.5523 29 25V19C29 18.4477 28.5523 18 28 18H11ZM7.53936 16.5308C7.04714 16.6 6.59204 16.257 6.52287 15.7648L6.39667 14.8669C5.81075 15.5762 5.45979 16.485 5.45979 17.4758C5.45979 18.8164 6.10226 20.0067 7.09991 20.7562C7.4973 21.0548 7.57741 21.619 7.27885 22.0164C6.98028 22.4138 6.41609 22.4939 6.01869 22.1953C4.588 21.1204 3.65979 19.4064 3.65979 17.4758C3.65979 16.0615 4.15792 14.7634 4.98682 13.7477L4.02537 13.8828C3.53315 13.952 3.07805 13.609 3.00887 13.1168C2.93969 12.6246 3.28264 12.1695 3.77486 12.1003L6.85585 11.6673C7.34807 11.5981 7.80317 11.9411 7.87234 12.4333L8.30535 15.5143C8.37453 16.0065 8.03158 16.4616 7.53936 16.5308Z" fill="black"/>
</svg>
