<svg width="36" height="36" viewBox="0 0 36 36" fill="none" xmlns="http://www.w3.org/2000/svg">
<path fill-rule="evenodd" clip-rule="evenodd" d="M20 4C19.4477 4 19 4.44772 19 5C19 5.55228 19.4477 6 20 6H21C21.5523 6 22 5.55228 22 5C22 4.44772 21.5523 4 21 4H20ZM17.3713 8.4285C17.8841 8.22338 18.1335 7.64141 17.9284 7.12863C17.7233 6.61585 17.1413 6.36643 16.6286 6.57155L14.1172 7.57607L13.7371 7.73898C11.4815 8.70569 10.2608 11.1666 10.856 13.5474L11.7192 17H11C9.34315 17 8 18.3431 8 20V29C8 30.6569 9.34315 32 11 32H25C26.6569 32 28 30.6569 28 29V20C28 18.3431 26.6569 17 25 17H24.2808L25.192 13.3554C25.7604 11.0819 24.6734 8.71862 22.5773 7.67058L22.4473 7.60555C21.9533 7.35856 21.3526 7.55878 21.1056 8.05276C20.8586 8.54674 21.0589 9.14741 21.5528 9.3944L21.6829 9.45943C22.9406 10.0883 23.5927 11.5062 23.2517 12.8703L22.2193 17H18.5216C18.5069 16.9997 18.4922 16.9997 18.4776 17H13.7807L12.7963 13.0623C12.4392 11.6338 13.1716 10.1573 14.525 9.57727L14.8827 9.42397L17.3713 8.4285ZM23.0213 19C23.0077 19.0003 22.994 19.0003 22.9803 19H19.244L18.1995 22.4817L19.3696 23.0668C19.8592 23.3116 20.0943 23.8792 19.9212 24.3985L18.9487 27.3162C18.774 27.8402 18.2077 28.1234 17.6837 27.9487C17.1598 27.7741 16.8766 27.2077 17.0513 26.6838L17.777 24.5066L16.628 23.9321C16.1497 23.6929 15.9126 23.1444 16.0663 22.6321L17.1559 19H13.0219C13.0067 19.0003 12.9916 19.0003 12.9765 19H11C10.4477 19 10 19.4477 10 20V29C10 29.5523 10.4477 30 11 30H25C25.5523 30 26 29.5523 26 29V20C26 19.4477 25.5523 19 25 19H23.0213Z" fill="black"/>
</svg>
