<svg width="36" height="36" viewBox="0 0 36 36" fill="none" xmlns="http://www.w3.org/2000/svg">
<path fill-rule="evenodd" clip-rule="evenodd" d="M10 5C7.79072 5 6 6.79072 6 9C6 11.2093 7.79072 13 10 13C12.2093 13 14 11.2093 14 9C14 6.79072 12.2093 5 10 5ZM10 11C8.89528 11 8 10.1047 8 9C8 7.89528 8.89528 7 10 7C11.1047 7 12 7.89528 12 9C12 10.1047 11.1047 11 10 11ZM16 9C16 8.44772 16.4477 8 17 8H24C27.3123 8 30 10.6877 30 14C30 17.3123 27.3123 20 24 20H12C9.7921 20 8 21.791 8 24C8 26.209 9.7921 28 12 28H19C19.5523 28 20 28.4477 20 29C20 29.5523 19.5523 30 19 30H12C8.6879 30 6 27.3139 6 24C6 20.6861 8.6879 18 12 18H24C26.2077 18 28 16.2077 28 14C28 11.7923 26.2077 10 24 10H17C16.4477 10 16 9.55228 16 9ZM30.7071 26.2071C31.0976 25.8166 31.0976 25.1834 30.7071 24.7929C30.3166 24.4024 29.6834 24.4024 29.2929 24.7929L25 29.0858L23.2071 27.2929C22.8166 26.9024 22.1834 26.9024 21.7929 27.2929C21.4024 27.6834 21.4024 28.3166 21.7929 28.7071L24.2929 31.2071C24.6834 31.5976 25.3166 31.5976 25.7071 31.2071L30.7071 26.2071Z" fill="black"/>
</svg>
