<svg width="36" height="36" viewBox="0 0 36 36" fill="none" xmlns="http://www.w3.org/2000/svg">
<path fill-rule="evenodd" clip-rule="evenodd" d="M11 28V8H25V28H11ZM9 7C9 6.44772 9.44772 6 10 6H26C26.5523 6 27 6.44772 27 7V29C27 29.5523 26.5523 30 26 30H10C9.44772 30 9 29.5523 9 29V7ZM13 21V23H23V21H13ZM21 24V26H15V24H21ZM16 14C16 12.8954 16.8954 12 18 12C19.1046 12 20 12.8954 20 14C20 15.1046 19.1046 16 18 16C16.8954 16 16 15.1046 16 14ZM18 10C15.7909 10 14 11.7909 14 14C14 16.2091 15.7909 18 18 18C20.2091 18 22 16.2091 22 14C22 11.7909 20.2091 10 18 10Z" fill="black"/>
</svg>
