<svg width="36" height="36" viewBox="0 0 36 36" fill="none" xmlns="http://www.w3.org/2000/svg">
<path fill-rule="evenodd" clip-rule="evenodd" d="M29.4766 5.6884C29.0861 5.29788 28.4529 5.29788 28.0624 5.6884L20.2844 13.4664L20.2012 13.5606C19.8962 13.9529 19.9239 14.5201 20.2844 14.8806C20.6749 15.2711 21.3081 15.2711 21.6986 14.8806L29.4766 7.10261L29.5598 7.00841C29.8648 6.61612 29.8371 6.04889 29.4766 5.6884ZM12 15C7.58172 15 4 18.5817 4 23C4 27.4183 7.58172 31 12 31C16.4183 31 20 27.4183 20 23C20 18.5817 16.4183 15 12 15ZM12 17C15.3137 17 18 19.6863 18 23C18 26.3137 15.3137 29 12 29C8.68629 29 6 26.3137 6 23C6 19.6863 8.68629 17 12 17ZM20.9911 7.1025C21.3816 6.71198 22.0148 6.71198 22.4053 7.1025C22.7658 7.46299 22.7935 8.03022 22.4885 8.42251L22.4053 8.51671L17.4553 13.4667C17.0648 13.8572 16.4316 13.8572 16.0411 13.4667C15.6806 13.1062 15.6529 12.539 15.9579 12.1467L16.0411 12.0525L20.9911 7.1025ZM28.0626 12.7592C27.6721 12.3687 27.0389 12.3687 26.6484 12.7592L21.6984 17.7092L21.6152 17.8034C21.3102 18.1957 21.3379 18.7629 21.6984 19.1234C22.0889 19.5139 22.7221 19.5139 23.1126 19.1234L28.0626 14.1734L28.1458 14.0792C28.4508 13.6869 28.4231 13.1197 28.0626 12.7592Z" fill="black"/>
</svg>
