<svg width="36" height="36" viewBox="0 0 36 36" fill="none" xmlns="http://www.w3.org/2000/svg">
<path fill-rule="evenodd" clip-rule="evenodd" d="M16 23C16.5523 23 17 23.4477 17 24C17 24.5523 16.5523 25 16 25H9C7.34372 25 6 23.6563 6 22V10C6 8.34372 7.34372 7 9 7H27C28.6563 7 30 8.34372 30 10V17C30 17.5523 29.5523 18 29 18C28.4477 18 28 17.5523 28 17V12.8216L18.2684 19.0144C18.1046 19.1186 17.8953 19.1186 17.7316 19.0144L8 12.8216V22C8 22.5517 8.44828 23 9 23H16ZM8 10.451L18 16.8146L28 10.451V10C28 9.44828 27.5517 9 27 9H9C8.44828 9 8 9.44828 8 10V10.451Z" fill="black"/>
<path d="M20.3863 22.785L22.1483 21.918C22.8348 21.5801 23.6508 21.6377 24.283 22.0688L24.462 22.1902C25.6143 22.9764 27.1015 23.0814 28.3548 22.4638L30.1151 21.5981C30.5488 21.3849 30.7274 20.8605 30.5142 20.4268C30.3009 19.9932 29.7765 19.8145 29.3429 20.0277L27.5819 20.8937C26.8941 21.2327 26.0793 21.1752 25.4462 20.7432L25.267 20.6217C24.1157 19.8365 22.6277 19.7315 21.3756 20.3479L19.6137 21.2148C19.1801 21.4282 19.0015 21.9527 19.2149 22.3863C19.4282 22.8199 19.9527 22.9984 20.3863 22.785Z" fill="black"/>
<path d="M22.1483 25.918L20.3863 26.785C19.9527 26.9984 19.4282 26.8199 19.2149 26.3863C19.0015 25.9527 19.1801 25.4282 19.6137 25.2148L21.3756 24.3479C22.6277 23.7315 24.1157 23.8365 25.267 24.6217L25.4462 24.7432C26.0793 25.1752 26.8941 25.2327 27.5819 24.8937L29.3429 24.0277C29.7765 23.8145 30.3009 23.9932 30.5142 24.4268C30.7274 24.8605 30.5488 25.3849 30.1151 25.5981L28.3548 26.4638C27.1015 27.0814 25.6143 26.9764 24.462 26.1902L24.283 26.0688C23.6508 25.6377 22.8348 25.5801 22.1483 25.918Z" fill="black"/>
</svg>
