<svg width="36" height="36" viewBox="0 0 36 36" fill="none" xmlns="http://www.w3.org/2000/svg">
<path d="M31.5067 10.4523C32.2464 10.8877 32.1305 11.9917 31.3162 12.2632C29.3832 12.9075 28.1067 14.2704 26.7693 16.2526C26.3465 16.8792 25.9092 17.5844 25.4406 18.3402C24.4759 19.896 23.3783 21.6662 22.0004 23.4065C20.2936 25.5622 17.5415 26.2681 14.9719 25.9938C12.9666 25.7797 10.9417 24.9599 9.41396 23.6174C8.54403 25.2788 8.10202 27.0064 8.06816 28.6737C8.05694 29.2259 7.60023 29.6644 7.04806 29.6532C6.49589 29.642 6.05736 29.1853 6.06857 28.6331C6.18007 23.1431 9.93833 17.5212 17.1002 14.3979C17.6065 14.1771 18.1958 14.4086 18.4166 14.9148C18.6374 15.421 18.406 16.0104 17.8997 16.2312C14.5663 17.6849 12.1149 19.6828 10.4934 21.8919C11.6853 23.0507 13.4094 23.8157 15.1842 24.0051C17.3025 24.2312 19.2782 23.6227 20.4324 22.165C21.7462 20.5057 22.72 18.9317 23.6462 17.4346C24.1336 16.6468 24.6078 15.8804 25.1114 15.134C26.1326 13.6205 27.2437 12.2554 28.7465 11.2908C28.0024 10.949 27.0581 10.554 25.9822 10.1891C23.2773 9.27165 19.8602 8.58596 16.7187 9.29024C13.5297 10.0052 11.0264 11.7512 9.73289 13.907C9.07983 14.9955 8.72105 16.2082 8.74583 17.4895C8.74821 17.6125 8.70941 17.7332 8.63251 17.8293C8.19848 18.3717 7.71304 19.0165 7.3852 19.5248C7.28856 19.6746 7.05135 19.6471 7.00806 19.4742C6.42159 17.1312 6.83859 14.8436 8.01789 12.8781C9.64307 10.1693 12.6612 8.15023 16.2812 7.33868C19.9488 6.51648 23.7817 7.3308 26.6246 8.29503C28.059 8.78153 29.2719 9.31678 30.1276 9.73096C30.5559 9.93831 30.8962 10.116 31.1315 10.2431C31.2492 10.3067 31.3407 10.3577 31.404 10.3935L31.4979 10.4472L31.504 10.4508L31.5067 10.4523Z" fill="black"/>
</svg>
