<svg width="36" height="36" viewBox="0 0 36 36" fill="none" xmlns="http://www.w3.org/2000/svg">
<path fill-rule="evenodd" clip-rule="evenodd" d="M12 5C10.3431 5 9 6.34315 9 8V28C9 29.6569 10.3431 31 12 31H24C25.6569 31 27 29.6569 27 28V8C27 6.34315 25.6569 5 24 5H12ZM11 8C11 7.44772 11.4477 7 12 7H24C24.5523 7 25 7.44772 25 8V28C25 28.5523 24.5523 29 24 29H12C11.4477 29 11 28.5523 11 28V8ZM20.5 8C21.0523 8 21.5 8.44772 21.5 9C21.5 9.55228 21.0523 10 20.5 10H15.5C14.9477 10 14.5 9.55228 14.5 9C14.5 8.44772 14.9477 8 15.5 8H20.5ZM18 12C18.5523 12 19 12.4477 19 13V15H21C21.5523 15 22 15.4477 22 16C22 16.5523 21.5523 17 21 17H19V19C19 19.5523 18.5523 20 18 20C17.4477 20 17 19.5523 17 19V17H15C14.4477 17 14 16.5523 14 16C14 15.4477 14.4477 15 15 15H17V13C17 12.4477 17.4477 12 18 12ZM15 21.5V23.5H13V21.5H15ZM15 27V25H13V27H15ZM17 21.5H23V23.5H17V21.5ZM23 25H17V27H23V25Z" fill="black"/>
</svg>
