<svg width="36" height="36" viewBox="0 0 36 36" fill="none" xmlns="http://www.w3.org/2000/svg">
<path d="M14 21C13.4477 21 13 21.4477 13 22C13 22.5523 13.4477 23 14 23H15C15.5523 23 16 22.5523 16 22C16 21.4477 15.5523 21 15 21H14Z" fill="black"/>
<path d="M21 21C20.4477 21 20 21.4477 20 22C20 22.5523 20.4477 23 21 23H22C22.5523 23 23 22.5523 23 22C23 21.4477 22.5523 21 22 21H21Z" fill="black"/>
<path fill-rule="evenodd" clip-rule="evenodd" d="M26 29.9V23H28.9C29.5075 23 30 22.5075 30 21.9V14C30 9.58172 26.4183 6 22 6H21.5521C21.1931 6 20.8568 6.17513 20.6509 6.46919L18 10.2562L15.3491 6.46919C15.1432 6.17513 14.8069 6 14.4479 6H14C9.58172 6 6 9.58172 6 14V21.9C6 22.5075 6.49248 23 7.1 23H10V29.9C10 30.5075 10.4925 31 11.1 31H24.9C25.5075 31 26 30.5075 26 29.9ZM8 14C8 10.6932 10.6751 8.01116 13.9794 8.00003L17 12.3152V29H12V13C12 12.4477 11.5523 12 11 12C10.4477 12 10 12.4477 10 13V21H8V14ZM19 29V12.3152L22.0206 8.00003C25.3249 8.01116 28 10.6932 28 14V21H26V13C26 12.4477 25.5523 12 25 12C24.4477 12 24 12.4477 24 13V29H19Z" fill="black"/>
</svg>
