<svg width="36" height="36" viewBox="0 0 36 36" fill="none" xmlns="http://www.w3.org/2000/svg">
<path fill-rule="evenodd" clip-rule="evenodd" d="M9.50005 13.0402C9.49784 17.2676 9.0436 21.3337 7.42854 25.3714L7.4252 25.3797L7.42171 25.388C7.02505 26.3302 7.31759 27.2539 7.98648 27.6263C8.87664 28.1218 10.1719 28.7133 11.4886 29.1848C12.3998 29.511 13.2711 29.7614 14.0001 29.8942V26.6276C13.5315 26.3948 12.923 26.0541 12.3963 25.5445C11.593 24.7675 11.0001 23.6378 11.0001 21.9917V15.1316C11.0001 14.3993 11.6877 13.8963 12.3644 14.0617C13.4027 14.3154 15.5649 14.365 17.1538 12.4517C17.5839 11.9338 18.3783 11.9176 18.8279 12.424C20.4864 14.2921 22.6369 14.2965 23.6394 14.0557C24.3125 13.894 25.0001 14.3933 25.0001 15.1267V21.9917C25.0001 23.6378 24.4071 24.7675 23.6039 25.5445C23.0771 26.0541 22.4686 26.3948 22.0001 26.6276V29.8941C22.729 29.7614 23.6003 29.511 24.5115 29.1848C25.8282 28.7133 27.1235 28.1218 28.0136 27.6263C28.6825 27.2539 28.9751 26.3302 28.5784 25.388C26.889 21.3753 26.502 17.2172 26.5001 13.0272C26.3083 9.99548 24.9049 8.29557 23.2422 7.30947C21.5155 6.28534 19.4429 6 18.0001 6C16.5585 6 14.486 6.28814 12.7589 7.31534C11.0956 8.30466 9.69184 10.0082 9.50005 13.0402ZM11.7366 5.5964C13.8857 4.31815 16.3576 4 18.0001 4C19.6412 4 22.1131 4.31445 24.2625 5.58926C26.4707 6.89891 28.2716 9.18929 28.4982 12.9358L28.5001 12.9659V12.9962C28.5001 17.0885 28.8791 20.9479 30.4217 24.612C31.1005 26.2241 30.7811 28.3746 28.9865 29.3737C27.9902 29.9284 26.5936 30.5636 25.1856 31.0677C23.8009 31.5635 22.2973 31.9722 21.1214 31.9986C20.4757 32.0131 20.0001 31.4863 20.0001 30.9V26.0618C20.0001 25.6544 20.2273 25.2652 20.6141 25.0752C20.6904 25.0378 20.7665 25.0011 20.842 24.9648C21.3354 24.7271 21.8075 24.4996 22.2133 24.107C22.6285 23.7054 23.0001 23.0939 23.0001 21.9917V16.154C21.6009 16.2253 19.6937 15.8964 18.0218 14.4369C16.3575 15.9691 14.4091 16.2615 13.0001 16.17V21.9917C13.0001 23.0939 13.3716 23.7054 13.7868 24.107C14.1927 24.4996 14.6647 24.7271 15.1582 24.9648C15.2337 25.0011 15.3097 25.0378 15.386 25.0752C15.7729 25.2652 16.0001 25.6544 16.0001 26.0618V30.9C16.0001 31.4863 15.5244 32.0131 14.8787 31.9986C13.7028 31.9722 12.1993 31.5635 10.8145 31.0677C9.40655 30.5636 8.0099 29.9284 7.01364 29.3737C5.22237 28.3765 4.90086 26.2321 5.57465 24.621C7.06224 20.8983 7.50006 17.1035 7.50006 13.0092V12.979L7.50189 12.9488C7.72854 9.20259 9.5291 6.90933 11.7366 5.5964Z" fill="black"/>
</svg>
