<svg width="36" height="36" viewBox="0 0 36 36" fill="none" xmlns="http://www.w3.org/2000/svg">
<path fill-rule="evenodd" clip-rule="evenodd" d="M9 8C9 6.34315 10.3431 5 12 5H24C25.6569 5 27 6.34315 27 8V28C27 29.6569 25.6569 31 24 31H12C10.3431 31 9 29.6569 9 28V8ZM12 7C11.4477 7 11 7.44772 11 8V28C11 28.5523 11.4477 29 12 29H24C24.5523 29 25 28.5523 25 28V8C25 7.44772 24.5523 7 24 7H12ZM21.5 9C21.5 8.44772 21.0523 8 20.5 8H15.5C14.9477 8 14.5 8.44772 14.5 9C14.5 9.55228 14.9477 10 15.5 10H20.5C21.0523 10 21.5 9.55228 21.5 9ZM18 27C18.5523 27 19 26.5523 19 26C19 25.4477 18.5523 25 18 25C17.4477 25 17 25.4477 17 26C17 26.5523 17.4477 27 18 27Z" fill="black"/>
</svg>
