<svg width="36" height="36" viewBox="0 0 36 36" fill="none" xmlns="http://www.w3.org/2000/svg">
<path fill-rule="evenodd" clip-rule="evenodd" d="M5 12C5 10.3431 6.34315 9 8 9H22C23.6569 9 25 10.3431 25 12V24C25 25.6569 23.6569 27 22 27H8C6.34315 27 5 25.6569 5 24V12ZM8 11C7.44772 11 7 11.4477 7 12V24C7 24.5523 7.44772 25 8 25H22C22.5523 25 23 24.5523 23 24V12C23 11.4477 22.5523 11 22 11H8ZM31 13.4429L29 14.1929V21.8069L31 22.5569V13.4429ZM31.5138 11.1142C32.2329 10.8446 33 11.3762 33 12.1442V23.8556C33 24.6236 32.2329 25.1552 31.5138 24.8856L27.7138 23.4606C27.2844 23.2996 27 22.8891 27 22.4306V13.5692C27 13.1107 27.2844 12.7002 27.7138 12.5392L31.5138 11.1142ZM10 14C9.44772 14 9 14.4477 9 15C9 15.5523 9.44772 16 10 16H13C13.5523 16 14 15.5523 14 15C14 14.4477 13.5523 14 13 14H10Z" fill="black"/>
</svg>
