<svg width="36" height="36" viewBox="0 0 36 36" fill="none" xmlns="http://www.w3.org/2000/svg">
<path fill-rule="evenodd" clip-rule="evenodd" d="M10 7C9.44772 7 9 7.44772 9 8V28C9 28.5523 9.44772 29 10 29H26C26.5523 29 27 28.5523 27 28V14H21.1C20.4925 14 20 13.5075 20 12.9V7H10ZM22 12H26.5858L22 7.41421V12ZM29 28V13V12.0414C29 11.7497 28.8841 11.4699 28.6778 11.2636L22.7364 5.32218C22.5301 5.11589 22.2503 5 21.9586 5H21H10C8.34315 5 7 6.34314 7 8V28C7 29.6569 8.34315 31 10 31H26C27.6569 31 29 29.6569 29 28ZM16.0873 20.455C16.2551 20.4445 16.4124 20.4366 16.5593 20.4314C16.7061 20.4209 16.8529 20.4156 16.9997 20.4156C17.1465 20.4104 17.2986 20.4078 17.4559 20.4078C17.6132 20.4025 17.7888 20.3999 17.9828 20.3999C18.5072 20.3999 18.945 20.4602 19.2963 20.5808C19.6476 20.6962 19.9282 20.8666 20.1379 21.092C20.3476 21.3175 20.4945 21.5954 20.5784 21.9257C20.6675 22.2561 20.7121 22.6362 20.7121 23.0662C20.7121 24.0677 20.484 24.807 20.0278 25.2842C19.5769 25.7613 18.8533 25.9999 17.857 25.9999C17.5162 25.9999 17.2121 25.9947 16.9446 25.9842C16.6825 25.9737 16.3967 25.958 16.0873 25.937V20.455ZM17.3772 24.8516C17.4769 24.8621 17.566 24.8699 17.6446 24.8752C17.7233 24.8804 17.8151 24.883 17.9199 24.883C18.4338 24.883 18.8061 24.7467 19.0368 24.4741C19.2675 24.2014 19.3828 23.7557 19.3828 23.137C19.3828 22.5654 19.278 22.1538 19.0682 21.9021C18.8585 21.6452 18.5046 21.5168 18.0064 21.5168C17.8858 21.5168 17.7784 21.5194 17.684 21.5246C17.5896 21.5299 17.4873 21.5377 17.3772 21.5482V24.8516ZM11 20.4628C11.173 20.4575 11.3277 20.4523 11.464 20.447C11.6056 20.4366 11.7472 20.4287 11.8888 20.4234C12.0303 20.4182 12.1772 20.4156 12.3292 20.4156C12.4865 20.4103 12.6674 20.4077 12.8719 20.4077C13.3386 20.4077 13.7318 20.4444 14.0517 20.5178C14.3768 20.5912 14.639 20.7092 14.8382 20.8718C15.0427 21.0291 15.1895 21.2362 15.2787 21.4931C15.3678 21.7448 15.4124 22.0515 15.4124 22.4133C15.4124 23.1527 15.2079 23.698 14.7989 24.0493C14.3899 24.3954 13.7423 24.5684 12.8562 24.5684H12.573C12.4891 24.5631 12.3948 24.5553 12.2899 24.5448V25.9527H11V20.4628ZM12.2899 23.4751C12.4 23.4856 12.4944 23.4935 12.573 23.4987H12.8562C13.0869 23.4987 13.2809 23.4778 13.4382 23.4358C13.5955 23.3939 13.7213 23.3309 13.8157 23.247C13.9101 23.1579 13.9783 23.0504 14.0202 22.9246C14.0622 22.7987 14.0831 22.6493 14.0831 22.4763C14.0831 22.3085 14.0648 22.1616 14.0281 22.0358C13.9914 21.91 13.9258 21.8077 13.8315 21.7291C13.7371 21.6452 13.6112 21.5822 13.4539 21.5403C13.2966 21.4984 13.0974 21.4774 12.8562 21.4774C12.7513 21.4774 12.6569 21.48 12.573 21.4852C12.4891 21.4852 12.3948 21.4905 12.2899 21.501V23.4751ZM21.4 20.447H25.3247V21.5717H22.6899V22.783H25.2146V23.9077H22.6899V25.9526H21.4V20.447Z" fill="black"/>
</svg>
