<svg width="36" height="36" viewBox="0 0 36 36" fill="none" xmlns="http://www.w3.org/2000/svg">
<path fill-rule="evenodd" clip-rule="evenodd" d="M8.99976 11H26.9998C27.552 11 27.9998 11.4477 27.9998 12V12.4509L17.9996 18.8146L7.99976 12.451V12C7.99976 11.4477 8.44747 11 8.99976 11ZM5.99976 12.9768C5.99943 12.9916 5.99943 13.0063 5.99976 13.021V24C5.99976 25.6569 7.3429 27 8.99976 27H26.9998C28.6566 27 29.9998 25.6569 29.9998 24V13.0029C29.9998 13.0003 29.9998 12.9976 29.9998 12.995V12C29.9998 10.3431 28.6566 9 26.9998 9H8.99976C7.3429 9 5.99976 10.3431 5.99976 12V12.9768ZM27.9998 14.8215V24C27.9998 24.5523 27.552 25 26.9998 25H8.99976C8.44747 25 7.99976 24.5523 7.99976 24V14.8216L17.4091 20.8094C17.7694 21.0387 18.2299 21.0387 18.5902 20.8094L27.9998 14.8215Z" fill="black"/>
</svg>
