<svg width="36" height="36" viewBox="0 0 36 36" fill="none" xmlns="http://www.w3.org/2000/svg">
<path fill-rule="evenodd" clip-rule="evenodd" d="M19.1102 6.00054C18.5039 5.99486 18 6.48399 18 7.10002V16.9C18 17.5075 18.4925 18 19.1 18H28.9C29.5047 18 30.006 17.5079 29.9994 16.8894C29.9417 11.4717 25.6217 6.06151 19.1102 6.00054ZM20 16V8.05266C24.4446 8.52653 27.4879 12.1295 27.9412 16H20ZM15.2722 8.37634C15.8036 8.22603 16.1126 7.67336 15.9623 7.14193C15.8119 6.61049 15.2593 6.30152 14.7278 6.45183C9.69163 7.87626 6 12.5057 6 18C6 24.6274 11.3726 30 18 30C23.4943 30 28.1238 26.3084 29.5482 21.2722C29.6985 20.7407 29.3895 20.1881 28.8581 20.0378C28.3267 19.8875 27.774 20.1964 27.6237 20.7279C26.4364 24.9257 22.5759 28 18 28C12.4772 28 8 23.5229 8 18C8 13.4241 11.0744 9.56363 15.2722 8.37634Z" fill="black"/>
</svg>
