<svg width="36" height="36" viewBox="0 0 36 36" fill="none" xmlns="http://www.w3.org/2000/svg">
<path fill-rule="evenodd" clip-rule="evenodd" d="M15 19.4599L8.34921 13.7593C8.12756 13.5693 8 13.2919 8 13V8C8 7.44772 8.44772 7 9 7H27C27.5523 7 28 7.44772 28 8V13C28 13.2515 27.9053 13.4922 27.7374 13.6755C27.7216 13.6927 27.7052 13.7094 27.6881 13.7256C27.6744 13.7386 27.6603 13.7512 27.6459 13.7635L21 19.4599V27C21 27.4589 20.6877 27.8589 20.2425 27.9701L16.2425 28.9701C15.6114 29.1279 15 28.6506 15 28V19.4599ZM24.2967 14L19.3492 18.2407C19.1276 18.4307 19 18.7081 19 19V26.2192L17 26.7192V19C17 18.7081 16.8724 18.4307 16.6508 18.2407L10 12.5401V9H26V12H19C18.4477 12 18 12.4477 18 13C18 13.5523 18.4477 14 19 14H24.2967Z" fill="black"/>
</svg>
