<svg width="36" height="36" viewBox="0 0 36 36" fill="none" xmlns="http://www.w3.org/2000/svg">
<path fill-rule="evenodd" clip-rule="evenodd" d="M13 6C11.3431 6 10 7.34314 10 9V28C10 29.6569 11.3431 31 13 31H23C24.6569 31 26 29.6569 26 28V25C26 24.4477 25.5523 24 25 24C24.4477 24 24 24.4477 24 25V28C24 28.5523 23.5523 29 23 29H13C12.4477 29 12 28.5523 12 28V9C12 8.44772 12.4477 8 13 8H23C23.5523 8 24 8.44772 24 9V11C24 11.5523 24.4477 12 25 12C25.5523 12 26 11.5523 26 11V9C26 7.34315 24.6569 6 23 6H13ZM20.5 9C21.0523 9 21.5 9.44772 21.5 10C21.5 10.5523 21.0523 11 20.5 11H15.5C14.9477 11 14.5 10.5523 14.5 10C14.5 9.44772 14.9477 9 15.5 9H20.5ZM25 14C25.5523 14 26 14.4477 26 15V17H28C28.5523 17 29 17.4477 29 18C29 18.5523 28.5523 19 28 19H26V21C26 21.5523 25.5523 22 25 22C24.4477 22 24 21.5523 24 21V19H22C21.4477 19 21 18.5523 21 18C21 17.4477 21.4477 17 22 17H24V15C24 14.4477 24.4477 14 25 14ZM18 27C18.5523 27 19 26.5523 19 26C19 25.4477 18.5523 25 18 25C17.4477 25 17 25.4477 17 26C17 26.5523 17.4477 27 18 27Z" fill="black"/>
</svg>
