<svg width="36" height="36" viewBox="0 0 36 36" fill="none" xmlns="http://www.w3.org/2000/svg">
<path d="M19.8 6.60006C20.1314 6.15823 20.0418 5.53143 19.6 5.20006C19.1582 4.86869 18.5314 4.95823 18.2 5.40006C17.7177 6.04313 17 7.6846 17 10.0001C17 10.5523 17.4477 11.0001 18 11.0001C18.5523 11.0001 19 10.5523 19 10.0001C19 8.04885 19.6156 6.84588 19.8 6.60006Z" fill="black"/>
<path d="M16.0031 9.92759C15.9859 10.381 15.5793 10.7055 15.1304 10.6391C14.3462 10.523 13.5577 10.2062 12.8517 9.68178C11.5051 8.68151 10.7949 7.17582 10.8489 5.75428C10.8661 5.30088 11.2727 4.97637 11.7216 5.04281C12.5058 5.15892 13.2943 5.47569 14.0003 6.00009C15.3469 7.00036 16.057 8.50605 16.0031 9.92759Z" fill="black"/>
<path d="M10.4999 20.0001C10.4999 20.5523 10.9476 21.0001 11.4999 21.0001C12.0522 21.0001 12.4999 20.5523 12.4999 20.0001C12.4999 19.4855 12.6918 18.9539 13.0023 18.5635C13.3111 18.1751 13.6703 18.0001 13.9999 18.0001C14.5522 18.0001 14.9999 17.5523 14.9999 17.0001C14.9999 16.4478 14.5522 16.0001 13.9999 16.0001C12.9153 16.0001 12.0244 16.5798 11.4368 17.3187C10.8508 18.0557 10.4999 19.0241 10.4999 20.0001Z" fill="black"/>
<path fill-rule="evenodd" clip-rule="evenodd" d="M11.4424 12.3261C13.4107 11.7256 15.6387 11.9871 18.0001 12.8331C20.3615 11.9871 22.5895 11.7256 24.5578 12.3261C27.058 13.0888 28.4538 15.0174 29.0187 17.0471C29.5538 18.9695 29.3998 21.0721 28.9361 22.9125C28.4662 24.7779 27.6098 26.6506 26.442 28.1656C24.8299 30.2571 22.7112 31.0777 20.6596 30.9943C19.6753 30.9543 18.7737 30.7119 18.0001 30.3917C17.2265 30.7119 16.3249 30.9543 15.3406 30.9943C13.289 31.0777 11.1703 30.2571 9.55817 28.1656C8.3904 26.6506 7.53404 24.7779 7.06408 22.9125C6.60043 21.0722 6.44638 18.9695 6.98148 17.0471C7.54642 15.0175 8.94215 13.0888 11.4424 12.3261ZM26.9527 22.5938C26.5336 24.1671 25.8052 25.7157 24.858 26.9446C24.0345 28.0129 23.0649 28.6221 22.0471 28.8696C21.0457 29.113 20.0778 28.9874 19.2643 28.7269C18.4567 28.4682 17.5435 28.4682 16.7358 28.7269C15.9224 28.9874 14.9544 29.1131 13.953 28.8696C12.9352 28.6222 11.9657 28.0129 11.1422 26.9446C10.195 25.7157 9.46658 24.1671 9.0475 22.5938C8.63007 21.0267 8.49927 19.3579 8.82918 17.8974C9.1635 16.4174 9.99621 15.0815 11.5303 14.4204C13.0232 13.7771 14.9664 13.8684 17.3357 14.7194C17.7626 14.8728 18.2376 14.8728 18.6645 14.7194C21.0337 13.8684 22.9769 13.777 24.4698 14.4204C26.0039 15.0815 26.8366 16.4173 27.171 17.8973C27.5009 19.3578 27.3701 21.0267 26.9527 22.5938Z" fill="black"/>
</svg>
