<svg width="36" height="36" viewBox="0 0 36 36" fill="none" xmlns="http://www.w3.org/2000/svg">
<path fill-rule="evenodd" clip-rule="evenodd" d="M18.9195 4.60463C18.5681 3.76007 17.3028 3.80029 17.0385 4.72528L14.245 14.5H5L4.88338 14.5067C4.38604 14.5645 4 14.9872 4 15.5C4 16.0523 4.44772 16.5 5 16.5H15L15.1203 16.4928C15.5156 16.4451 15.85 16.165 15.9615 15.7747L18 8.639L20.0385 15.7747L20.0785 15.8884C20.2329 16.2554 20.5941 16.5 21 16.5H31L31.1166 16.4933C31.614 16.4355 32 16.0128 32 15.5L31.9933 15.3834C31.9355 14.886 31.5128 14.5 31 14.5H21.754L18.9615 4.72528L18.9195 4.60463ZM14.9654 19.7615C15.1368 19.1373 14.6682 18.5 14 18.5H10L9.88338 18.5067C9.38604 18.5645 9 18.9872 9 19.5L9.00673 19.6166C9.06449 20.114 9.48716 20.5 10 20.5H12.522L9.07152 29.1286L9.03577 29.2324C8.77683 30.1274 9.82125 30.8841 10.6 30.3L17.999 24.75L25.4 30.3L25.4909 30.3615C26.2878 30.8442 27.29 30.0324 26.9285 29.1286L23.477 20.5H26L26.1166 20.4933C26.614 20.4355 27 20.0128 27 19.5C27 18.9477 26.5523 18.5 26 18.5H22L21.8843 18.5065C21.2411 18.5792 20.8234 19.251 21.0715 19.8714L23.747 26.561L18.6 22.7L18.4896 22.628C18.148 22.436 17.72 22.46 17.4 22.7L12.252 26.56L14.9285 19.8714L14.9654 19.7615Z" fill="black"/>
</svg>
