<svg width="36" height="36" viewBox="0 0 36 36" fill="none" xmlns="http://www.w3.org/2000/svg">
<path fill-rule="evenodd" clip-rule="evenodd" d="M18.0135 3.83716C16.0443 3.83716 14.4023 5.23834 14.0301 7.09808C12.2227 6.46313 10.1623 7.18231 9.16955 8.90198C8.04772 10.845 8.7135 13.3296 10.6565 14.4514C11.2313 14.7833 11.856 14.9593 12.4789 14.991C12.5233 14.9969 12.5691 14.9999 12.6158 14.9999H23.384C23.4308 14.9999 23.4766 14.9969 23.521 14.991C24.1439 14.9593 24.7685 14.7833 25.3434 14.4514C27.2864 13.3296 27.9521 10.845 26.8303 8.90198C25.8422 7.19037 23.7966 6.46997 21.9952 7.08929C21.6196 5.23395 19.9797 3.83716 18.0135 3.83716ZM18.0135 5.83716C16.8745 5.83716 15.951 6.76056 15.951 7.89966C15.951 8.25439 16.0398 8.58551 16.1954 8.87488L16.2018 8.88654L18 12.0004L19.826 8.8374C19.8352 8.82153 19.8447 8.80609 19.8545 8.79102C19.87 8.76709 19.8862 8.74408 19.9033 8.72205L19.9108 8.71063C20.0171 8.46259 20.076 8.18903 20.076 7.89966C20.076 6.76056 19.1526 5.83716 18.0135 5.83716ZM23.2895 12.9999C23.3137 12.9977 23.3384 12.9962 23.3633 12.9957C23.696 12.9879 24.032 12.8992 24.3434 12.7194C25.3298 12.1498 25.6678 10.8884 25.0983 9.90198C24.5287 8.91547 23.2673 8.57751 22.2809 9.14703C22.0259 9.29419 21.8157 9.48621 21.6527 9.70703L21.6322 9.74762L21.6199 9.77625L21.6058 9.80603C21.598 9.8219 21.5898 9.83771 21.5812 9.85339L21.5714 9.87073L19.7648 12.9999H23.2895ZM16.2622 12.9999L14.4556 9.87079L14.4457 9.85315C14.2726 9.57068 14.0288 9.32587 13.719 9.14703C12.7325 8.57751 11.4712 8.91547 10.9016 9.90198C10.332 10.8884 10.67 12.1498 11.6565 12.7194C11.9679 12.8992 12.3038 12.9879 12.6366 12.9957C12.6492 12.996 12.6616 12.9965 12.6741 12.9972L12.7103 12.9999H16.2622Z" fill="black"/>
<path d="M22.9999 22C23.5521 22 23.9999 21.5523 23.9999 21C23.9999 20.4477 23.5521 20 22.9999 20C22.4476 20 21.9999 20.4477 21.9999 21C21.9999 21.5523 22.4476 22 22.9999 22Z" fill="black"/>
<path d="M21.9999 24C21.9999 24.5523 21.5521 25 20.9999 25C20.4476 25 19.9999 24.5523 19.9999 24C19.9999 23.4477 20.4476 23 20.9999 23C21.5521 23 21.9999 23.4477 21.9999 24Z" fill="black"/>
<path d="M18.9999 22C19.5521 22 19.9999 21.5523 19.9999 21C19.9999 20.4477 19.5521 20 18.9999 20C18.4476 20 17.9999 20.4477 17.9999 21C17.9999 21.5523 18.4476 22 18.9999 22Z" fill="black"/>
<path fill-rule="evenodd" clip-rule="evenodd" d="M27.986 21.1572C27.6251 18.9913 26.3071 17.4398 24.527 16.6619C22.7733 15.8954 20.6329 15.9006 18.5706 16.6638C18.2041 16.7994 17.7958 16.7994 17.4293 16.6638C15.3667 15.9007 13.2263 15.8958 11.4727 16.6625C9.69262 17.4407 8.37463 18.9923 8.01367 21.1582C7.74731 22.7562 8.02831 24.0573 8.69946 25.1542C9.34619 26.2111 10.3142 27.0082 11.2811 27.6964C11.7108 28.0022 12.1179 28.2731 12.5172 28.5386L12.5212 28.5413L12.5242 28.5433C13.095 28.9231 13.6494 29.292 14.2299 29.7363C15.1592 30.4476 15.9618 31.2216 16.5325 32.1923C16.8834 32.7893 17.5167 32.9926 17.9999 32.9928C18.4831 32.993 19.1167 32.7902 19.4681 32.1932C20.0398 31.2222 20.8429 30.4479 21.7725 29.7365C22.2374 29.3805 22.7245 29.0473 23.225 28.7119L23.5249 28.5115C23.9244 28.2449 24.3328 27.9725 24.7207 27.6962C25.6874 27.0079 26.6549 26.2106 27.3011 25.1535C27.9718 24.0564 28.2523 22.7552 27.986 21.1572ZM19.2645 18.5395C20.9242 17.9254 22.5212 17.968 23.7261 18.4945C24.9047 19.0096 25.7667 20.0067 26.0132 21.486C26.2059 22.6421 25.9978 23.451 25.5947 24.1104C25.1672 24.8097 24.4759 25.4153 23.5607 26.067C23.3926 26.1867 23.2213 26.3051 23.0461 26.4241C22.8453 26.5605 22.6394 26.6979 22.4276 26.8393L22.1117 27.0504C21.6051 27.3898 21.0745 27.7521 20.5568 28.1484C19.6339 28.8548 18.7213 29.692 18.0007 30.7706C17.2808 29.6919 16.3684 28.8546 15.4456 28.1481C14.8414 27.6857 14.1549 27.2267 13.5212 26.803C13.1304 26.5417 12.7596 26.2938 12.4408 26.0669C11.5251 25.4152 10.8332 24.8096 10.4054 24.1104C10.0021 23.4511 9.79382 22.6426 9.98644 21.487C10.233 20.0077 11.0951 19.0103 12.2738 18.495C13.4788 17.9683 15.0757 17.9255 16.7352 18.5395C17.5496 18.8408 18.4502 18.8408 19.2645 18.5395Z" fill="black"/>
</svg>
