<svg width="36" height="36" viewBox="0 0 36 36" fill="none" xmlns="http://www.w3.org/2000/svg">
<path d="M17 28C17.5523 28 18 27.5523 18 27C18 26.4477 17.5523 26 17 26C16.4477 26 16 26.4477 16 27C16 27.5523 16.4477 28 17 28Z" fill="black"/>
<path fill-rule="evenodd" clip-rule="evenodd" d="M8 10C8 7.79086 9.79086 6 12 6H26C27.6569 6 29 7.34315 29 9C29 10.6569 27.6569 12 26 12V21C26 22.1046 25.1046 23 24 23H21V27C21 29.2091 19.2091 31 17 31C14.7909 31 13 29.2091 13 27V23H10C8.89543 23 8 22.1046 8 21V10ZM12 8C10.8954 8 10 8.89543 10 10V16H12V12C12 11.4477 12.4477 11 13 11C13.5523 11 14 11.4477 14 12V16H16V14C16 13.4477 16.4477 13 17 13C17.5523 13 18 13.4477 18 14V16H24V12C24 10.8954 24.8954 10 26 10C26.5523 10 27 9.55228 27 9C27 8.44771 26.5523 8 26 8H12ZM10 18V21H13C14.1046 21 15 21.8954 15 23V27C15 28.1046 15.8954 29 17 29C18.1046 29 19 28.1046 19 27V23C19 21.8954 19.8954 21 21 21H24V18H10Z" fill="black"/>
</svg>
