<svg width="36" height="36" viewBox="0 0 36 36" fill="none" xmlns="http://www.w3.org/2000/svg">
<path fill-rule="evenodd" clip-rule="evenodd" d="M10 7C9.44772 7 9 7.44772 9 8V28C9 28.5523 9.44772 29 10 29H26C26.5523 29 27 28.5523 27 28V14H21.1C20.4925 14 20 13.5075 20 12.9V7H10ZM22 12H26.5858L22 7.41421V12ZM29 28V13V12.0414C29 11.7497 28.8841 11.4699 28.6778 11.2636L22.7364 5.32218C22.5301 5.11589 22.2503 5 21.9586 5H21H10C8.34315 5 7 6.34314 7 8V28C7 29.6569 8.34315 31 10 31H26C27.6569 31 29 29.6569 29 28ZM23.7959 24.0203C23.9345 24.1076 24.0039 24.2359 24.0039 24.4054C24.0039 24.5697 23.9268 24.7032 23.7728 24.806C23.6187 24.9087 23.3671 24.96 23.0179 24.96C22.7919 24.96 22.584 24.9395 22.394 24.8984C22.2091 24.8573 22.0396 24.806 21.8856 24.7443C21.7366 24.6827 21.6057 24.6159 21.4927 24.5441C21.3849 24.4722 21.295 24.4054 21.2231 24.3438V25.6302C21.4285 25.7431 21.6981 25.833 22.0319 25.8998C22.3709 25.9665 22.7252 25.9999 23.0949 25.9999C23.5006 25.9999 23.8472 25.964 24.1348 25.8921C24.4275 25.815 24.6663 25.7072 24.8512 25.5685C25.036 25.4299 25.1721 25.2604 25.2594 25.0602C25.3467 24.8547 25.3904 24.6211 25.3904 24.3592C25.3904 24.0151 25.3185 23.7378 25.1747 23.5273C25.0309 23.3116 24.8512 23.1396 24.6355 23.0112C24.4198 22.8828 24.1862 22.7827 23.9345 22.7108C23.688 22.6389 23.457 22.5721 23.2413 22.5105C23.0256 22.4437 22.8459 22.3718 22.7021 22.2948C22.5583 22.2126 22.4864 22.0971 22.4864 21.9482C22.4864 21.8763 22.5018 21.8095 22.5326 21.7479C22.5634 21.6863 22.6148 21.6324 22.6867 21.5861C22.7637 21.5399 22.8664 21.504 22.9948 21.4783C23.1232 21.4526 23.2849 21.4398 23.4801 21.4398C23.7882 21.4398 24.086 21.4834 24.3736 21.5707C24.6612 21.658 24.9077 21.771 25.1131 21.9097V20.6695C24.9179 20.5822 24.6714 20.5154 24.3736 20.4692C24.0758 20.423 23.7471 20.3999 23.3876 20.3999C22.9871 20.3999 22.6482 20.4358 22.3709 20.5077C22.0935 20.5796 21.8676 20.6849 21.693 20.8236C21.5184 20.9571 21.3926 21.1214 21.3156 21.3165C21.2385 21.5065 21.2 21.7222 21.2 21.9636C21.2 22.3128 21.2693 22.5927 21.408 22.8032C21.5466 23.0086 21.7187 23.1755 21.9241 23.3039C22.1346 23.4271 22.3606 23.5221 22.6019 23.5889C22.8433 23.6557 23.0667 23.7224 23.2721 23.7892C23.4826 23.8559 23.6572 23.933 23.7959 24.0203ZM12.5791 23.1345L11.1232 20.5078H12.5945L13.5651 22.3873L14.5818 20.5078H16.0223L14.4817 23.1114L16.1147 25.8998H14.6127L13.5111 23.9125L12.4635 25.8998H11L12.5791 23.1345ZM17.92 20.5078H16.6567V25.8998H20.6776V24.7367H17.92V20.5078Z" fill="black"/>
</svg>
