<svg width="36" height="36" viewBox="0 0 36 36" fill="none" xmlns="http://www.w3.org/2000/svg">
<path d="M20 14.5V12.5H13V14.5H20Z" fill="black"/>
<path d="M20 18.1V16.1H13V18.1H20Z" fill="black"/>
<path fill-rule="evenodd" clip-rule="evenodd" d="M11 8H25.525C25.7902 8 26.0446 8.10536 26.2321 8.29289L31.7071 13.7679C31.8946 13.9554 32 14.2098 32 14.475V22C32 23.6563 30.6563 25 29 25H28V26C28 27.6563 26.6563 29 25 29H7C5.34372 29 4 27.6563 4 26V15C4 13.3437 5.34372 12 7 12H8V11C8 9.34372 9.34372 8 11 8ZM8 14H7C6.44828 14 6 14.4483 6 15V26C6 26.5517 6.44828 27 7 27H25C25.5517 27 26 26.5517 26 26V25H11C9.34372 25 8 23.6563 8 22V14ZM30 14.89L25.11 10H11C10.4483 10 10 10.4483 10 11V22C10 22.5517 10.4483 23 11 23H29C29.5517 23 30 22.5517 30 22V14.89Z" fill="black"/>
</svg>
