<svg width="36" height="36" viewBox="0 0 36 36" fill="none" xmlns="http://www.w3.org/2000/svg">
<path fill-rule="evenodd" clip-rule="evenodd" d="M21.7 5C20.5297 5 19.8333 6.18486 18.9582 7.67363C18.5622 8.3474 18.1297 9.0834 17.6 9.8C16.2108 11.6233 13.3139 12.9943 11.6583 13.6512C11.2655 13.8071 11 14.1821 11 14.6047V26.9C11 27.4523 11.4477 27.9 12 27.9H23.8C25.2 27.9 26.4 26.9 26.7 25.5L28.4 17.5C28.8 15.6 27.4 13.9 25.5 13.9H23C23 13.9 24.4 10.5 24.4 8.7C24.3 6.6 23.3 5 21.7 5ZM21.8 7C22 7.1 22.3 7.8 22.3 8.7C22.3 9.7 21.6 11.9 21.1 13.2C20.9 13.8 20.9 14.5 21.3 15.1C21.7 15.7 22.3 16 23 16H25.6C26 16 26.3 16.2 26.4 16.4C26.5 16.5 26.7 16.8 26.6 17.2L24.9 25.2C24.8 25.7 24.4 26 23.9 26H13V15.3C14.9 14.5 17.7 13 19.2 11C19.5377 10.5497 19.8437 10.0678 20.1359 9.60766C20.3628 9.25032 20.5814 8.90597 20.8 8.6C20.8825 8.46258 20.9725 8.30251 21.0659 8.13638C21.3123 7.69811 21.5825 7.2175 21.8 7Z" fill="black"/>
<path d="M8 12.8999C7.44772 12.8999 7 13.3476 7 13.8999V27.8999C7 28.4522 7.44772 28.8999 8 28.8999C8.55229 28.8999 9 28.4522 9 27.8999V13.8999C9 13.3476 8.55229 12.8999 8 12.8999Z" fill="black"/>
</svg>
