<svg width="36" height="36" viewBox="0 0 36 36" fill="none" xmlns="http://www.w3.org/2000/svg">
<path fill-rule="evenodd" clip-rule="evenodd" d="M12.7682 9.64021C13.1218 9.21593 13.0645 8.58537 12.6402 8.2318C12.2159 7.87824 11.5853 7.93556 11.2318 8.35984L9.4328 10.5186L8.70711 9.79292C8.31658 9.40239 7.68342 9.40239 7.29289 9.79292C6.90237 10.1834 6.90237 10.8166 7.29289 11.2071L8.71546 12.6297C9.17284 13.0871 9.92423 13.053 10.3383 12.5561L12.7682 9.64021ZM15.5 12C15.5 11.4477 15.9477 11 16.5 11H27.5C28.0523 11 28.5 11.4477 28.5 12C28.5 12.5523 28.0523 13 27.5 13H16.5C15.9477 13 15.5 12.5523 15.5 12ZM9.5 16.5C8.67157 16.5 8 17.1716 8 18C8 18.8284 8.67157 19.5 9.5 19.5C10.3284 19.5 11 18.8284 11 18C11 17.1716 10.3284 16.5 9.5 16.5ZM9.5 22.5C8.67157 22.5 8 23.1716 8 24C8 24.8284 8.67157 25.5 9.5 25.5C10.3284 25.5 11 24.8284 11 24C11 23.1716 10.3284 22.5 9.5 22.5ZM14.5 17C13.9477 17 13.5 17.4477 13.5 18C13.5 18.5523 13.9477 19 14.5 19H27.5C28.0523 19 28.5 18.5523 28.5 18C28.5 17.4477 28.0523 17 27.5 17H14.5ZM13.5 24C13.5 23.4477 13.9477 23 14.5 23H27.5C28.0523 23 28.5 23.4477 28.5 24C28.5 24.5523 28.0523 25 27.5 25H14.5C13.9477 25 13.5 24.5523 13.5 24Z" fill="black"/>
</svg>
