<svg width="36" height="36" viewBox="0 0 36 36" fill="none" xmlns="http://www.w3.org/2000/svg">
<path fill-rule="evenodd" clip-rule="evenodd" d="M15 4C12.2387 4 10 6.23872 10 9V10C10 12.7613 12.2387 15 15 15L15.2241 14.9948C17.9043 14.8634 20 12.6685 20 10V9C20 6.23872 17.7613 4 15 4ZM15 6C16.6567 6 18 7.34328 18 9V10C18 11.6008 16.7423 12.9181 15.1505 12.9963L14.9755 13.0003C13.3433 13 12 11.6567 12 10V9C12 7.34328 13.3433 6 15 6ZM5 23C5 19.6867 7.68672 17 11 17H19C22.3133 17 25 19.6867 25 23V24C25 25.6563 23.6563 27 22 27H8C6.34372 27 5 25.6563 5 24V23ZM19 19C21.2087 19 23 20.7913 23 23V24C23 24.5517 22.5517 25 22 25H8C7.44828 25 7 24.5517 7 24V23C7 20.7913 8.79128 19 11 19H19ZM25.2071 12.2071L27 10.4142L28.7929 12.2071C29.1834 12.5976 29.8166 12.5976 30.2071 12.2071C30.5976 11.8166 30.5976 11.1834 30.2071 10.7929L28.4142 9L30.2071 7.20711C30.5976 6.81658 30.5976 6.18342 30.2071 5.79289C29.8166 5.40237 29.1834 5.40237 28.7929 5.79289L27 7.58579L25.2071 5.79289C24.8166 5.40237 24.1834 5.40237 23.7929 5.79289C23.4024 6.18342 23.4024 6.81658 23.7929 7.20711L25.5858 9L23.7929 10.7929C23.4024 11.1834 23.4024 11.8166 23.7929 12.2071C24.1834 12.5976 24.8166 12.5976 25.2071 12.2071Z" fill="black"/>
</svg>
