<svg width="36" height="36" viewBox="0 0 36 36" fill="none" xmlns="http://www.w3.org/2000/svg">
<path fill-rule="evenodd" clip-rule="evenodd" d="M8.91446 22.0005L10.9998 19.9152L12.7929 21.7083C13.1834 22.0989 13.8166 22.0989 14.2071 21.7084C14.5976 21.3178 14.5976 20.6847 14.2071 20.2941L12.414 18.5009L14.4998 16.4151L16.2924 18.2077C16.6829 18.5983 17.3161 18.5983 17.7066 18.2077C18.0972 17.8172 18.0972 17.1841 17.7066 16.7935L15.914 15.0009L17.9998 12.9151L19.7929 14.7082C20.1834 15.0988 20.8166 15.0988 21.2071 14.7082C21.5976 14.3177 21.5976 13.6845 21.2071 13.294L19.414 11.5009L21.5 9.41492L23.2929 11.2079C23.6834 11.5984 24.3166 11.5984 24.7071 11.2079C25.0976 10.8173 25.0976 10.1842 24.7071 9.79364L22.9142 8.0007L24.5001 6.4148L29.0858 11.0007L10.5 29.5865L5.91429 25.0007L7.50025 23.4147L9.29315 25.207C9.68374 25.5975 10.3169 25.5973 10.7074 25.2068C11.0978 24.8162 11.0977 24.183 10.7071 23.7925L8.91446 22.0005ZM13.8129 14.2736L23.7222 4.36418C24.1518 3.9346 24.8483 3.93459 25.2779 4.36419L31.1365 10.2229C31.566 10.6525 31.566 11.349 31.1364 11.7786L11.2779 31.6371C10.8483 32.0667 10.1518 32.0667 9.72222 31.6371L3.86368 25.7785C3.4341 25.3489 3.43412 24.6525 3.86368 24.2229L6.78282 21.3037L6.79282 21.2936L6.80321 21.2833L13.7725 14.314C13.779 14.3071 13.7856 14.3003 13.7924 14.2935C13.7992 14.2868 13.806 14.2801 13.8129 14.2736Z" fill="black"/>
</svg>
