<svg width="36" height="36" viewBox="0 0 36 36" fill="none" xmlns="http://www.w3.org/2000/svg">
<path d="M10.5 18.5C10.5 18.3022 10.6009 18.0452 10.823 17.823C11.0452 17.6008 11.3019 17.5 11.4995 17.5C12.0518 17.5 12.4995 17.0523 12.4995 16.5C12.4995 15.9477 12.0518 15.5 11.4995 15.5C10.6732 15.5 9.93018 15.8872 9.40856 16.409C8.88694 16.9308 8.5 17.6739 8.5 18.5C8.5 19.0523 8.94772 19.5 9.5 19.5C10.0523 19.5 10.5 19.0523 10.5 18.5Z" fill="black"/>
<path fill-rule="evenodd" clip-rule="evenodd" d="M27 4C27.5523 4 28 4.44772 28 5V13.0218C29.8042 14.1769 31 16.1988 31 18.5C31 20.9462 29.6487 23.0768 27.6519 24.186C26.8186 26.7233 24.5741 28.6205 21.8467 28.9493C21.4495 30.1409 20.3251 31 19 31H17C15.3431 31 14 29.6569 14 28C14 26.3431 15.3431 25 17 25H19C20.282 25 21.3761 25.8041 21.8056 26.9354C23.1163 26.7231 24.2561 26.0014 25.0154 24.9799C24.8454 24.9932 24.6735 25 24.5 25C22.181 25 20.1475 23.7842 18.9997 21.9647C18.7702 21.6009 18.5306 21.3261 18.3171 21.1595C18.114 21.001 18.0161 21 18 21C17.9839 21 17.886 21.001 17.6829 21.1595C17.4694 21.3261 17.2298 21.6009 17.0003 21.9647C15.8525 23.7842 13.819 25 11.5 25C7.91015 25 5 22.0899 5 18.5C5 14.9101 7.91015 12 11.5 12C11.5839 12 11.6675 12.0016 11.7508 12.0048C11.755 12.0047 11.766 12.0046 11.7872 12.004L11.8706 12.0018C11.9051 12.0009 11.9501 12 12 12H24C24.0499 12 24.0949 12.0009 24.1294 12.0018L24.2128 12.004L24.2303 12.0045L24.2492 12.0048C24.3325 12.0016 24.4161 12 24.5 12C25.0163 12 25.5185 12.0602 26 12.1739V5C26 4.44772 26.4477 4 27 4ZM26 14.2561C26.7918 14.5359 27.482 15.0311 28 15.6713C28.6254 16.4442 29 17.4284 29 18.5C29 19.5716 28.6254 20.5558 28 21.3287C27.4694 21.9844 26.7581 22.4881 25.942 22.764C25.4893 22.917 25.0043 23 24.5 23C22.8961 23 21.4881 22.1608 20.6912 20.8976C20.0755 19.9215 19.1541 19 18 19C16.8459 19 15.9245 19.9215 15.3088 20.8976C14.5119 22.1608 13.1039 23 11.5 23C9.01472 23 7 20.9853 7 18.5C7 16.0147 9.01472 14 11.5 14C11.5604 14 11.6205 14.0012 11.6803 14.0035C11.7448 14.0061 11.8095 14.0042 11.8742 14.0024C11.9161 14.0012 11.9581 14 12 14H24C24.0419 14 24.0838 14.0012 24.1258 14.0024C24.1904 14.0042 24.2552 14.0061 24.3197 14.0035C24.3795 14.0012 24.4396 14 24.5 14C25.026 14 25.5308 14.0902 26 14.2561ZM16 28C16 27.4477 16.4477 27 17 27H19C19.5523 27 20 27.4477 20 28C20 28.5523 19.5523 29 19 29H17C16.4477 29 16 28.5523 16 28Z" fill="black"/>
</svg>
