<svg width="36" height="36" viewBox="0 0 36 36" fill="none" xmlns="http://www.w3.org/2000/svg">
<path fill-rule="evenodd" clip-rule="evenodd" d="M14.8038 10.4916C15.8614 8.90508 17.8919 8.28568 19.655 9.01166L25.3708 11.3653C26.0057 11.6267 26.4621 12.1955 26.5798 12.8719L28.3614 23.1166C28.4785 23.7896 28.3768 24.4825 28.0713 25.0935L28.0125 25.2111C27.3016 26.633 25.6708 27.2367 24.2567 26.754L24.1888 26.8354C22.7763 28.5305 20.2585 28.7613 18.5614 27.3528L18.1824 27.7318C16.6985 29.2157 14.3201 29.3006 12.7342 27.9262L7.78491 23.6368C7.24122 23.1656 6.99251 22.4386 7.13361 21.7331L8.87442 13.0291C9.04682 12.1671 9.76187 11.5187 10.6366 11.4313L14.4302 11.0519L14.8038 10.4916ZM18.331 21.7432L22.615 25.5987C21.9015 26.4074 20.6694 26.506 19.8356 25.8111L19.1449 25.2356L15.6508 22.2406C15.2315 21.8812 14.6002 21.9298 14.2408 22.3491C13.8813 22.7684 13.9299 23.3997 14.3492 23.7592L17.0294 26.0564L16.7682 26.3176C16.0262 27.0596 14.837 27.102 14.0441 26.4148L9.09478 22.1254L10.8356 13.4214L12.8338 13.2215L12.5624 13.5834C11.4783 15.0289 11.7962 17.0833 13.2664 18.1334C14.6233 19.1026 16.4956 18.875 17.5807 17.609L18.5991 16.421L26.3384 23.2498C26.3447 23.2553 26.351 23.2608 26.3574 23.2662L26.391 23.4592C26.4348 23.7111 26.3968 23.9704 26.2824 24.1991L26.2237 24.3166C25.9262 24.9117 25.171 25.0997 24.6305 24.7219L19.669 20.2566C19.2585 19.8871 18.6262 19.9204 18.2567 20.3309C17.8873 20.7414 17.9205 21.3737 18.331 21.7432ZM25.8096 20.1159L19.542 14.5857C18.9145 14.032 17.9553 14.0989 17.4106 14.7343L16.0622 16.3074C15.6514 16.7867 14.9426 16.8729 14.4289 16.506C13.8723 16.1084 13.752 15.3307 14.1624 14.7834L15.8 12.5999C15.8159 12.5787 15.8309 12.5571 15.8449 12.535C15.8494 12.5285 15.8539 12.5219 15.8583 12.5153L16.4679 11.601C16.9967 10.8077 18.0119 10.498 18.8935 10.861L24.6093 13.2146L25.8096 20.1159Z" fill="black"/>
<path d="M7.48252 12.1871C7.58586 11.6445 7.22983 11.1209 6.68729 11.0176C6.14476 10.9143 5.62118 11.2703 5.51784 11.8128L3.51784 22.3128C3.41451 22.8554 3.77054 23.3789 4.31307 23.4823C4.8556 23.5856 5.37918 23.2296 5.48252 22.6871L7.48252 12.1871Z" fill="black"/>
<path d="M28.0175 12.1871C27.9141 11.6445 28.2702 11.1209 28.8127 11.0176C29.3552 10.9143 29.8788 11.2703 29.9822 11.8128L31.9822 22.3128C32.0855 22.8554 31.7295 23.3789 31.1869 23.4823C30.6444 23.5856 30.1208 23.2296 30.0175 22.6871L28.0175 12.1871Z" fill="black"/>
</svg>
