<svg width="36" height="36" viewBox="0 0 36 36" fill="none" xmlns="http://www.w3.org/2000/svg">
<path fill-rule="evenodd" clip-rule="evenodd" d="M7 10V22H29V10H7ZM6 8C5.44772 8 5 8.44772 5 9V23C5 23.5523 5.44772 24 6 24H30C30.5523 24 31 23.5523 31 23V9C31 8.44772 30.5523 8 30 8H6ZM18 14C16.8954 14 16 14.8954 16 16C16 17.1046 16.8954 18 18 18C19.1046 18 20 17.1046 20 16C20 14.8954 19.1046 14 18 14ZM14 16C14 13.7909 15.7909 12 18 12C20.2091 12 22 13.7909 22 16C22 18.2091 20.2091 20 18 20C15.7909 20 14 18.2091 14 16ZM6 26C5.44772 26 5 26.4477 5 27C5 27.5523 5.44772 28 6 28H30C30.5523 28 31 27.5523 31 27C31 26.4477 30.5523 26 30 26H6ZM11 14C11.5523 14 12 14.4477 12 15V17C12 17.5523 11.5523 18 11 18C10.4477 18 10 17.5523 10 17V15C10 14.4477 10.4477 14 11 14ZM26 15C26 14.4477 25.5523 14 25 14C24.4477 14 24 14.4477 24 15V17C24 17.5523 24.4477 18 25 18C25.5523 18 26 17.5523 26 17V15Z" fill="black"/>
</svg>
