<svg width="36" height="36" viewBox="0 0 36 36" fill="none" xmlns="http://www.w3.org/2000/svg">
<path fill-rule="evenodd" clip-rule="evenodd" d="M17.9462 5H18.0538H18.0538C20.3471 4.99999 22.1413 4.99999 23.5725 5.13879C25.0302 5.28016 26.2165 5.57289 27.2563 6.22621C28.2739 6.86563 29.1344 7.72611 29.7738 8.74374C30.4271 9.78348 30.7198 10.9698 30.8612 12.4275C31 13.8587 31 15.6528 31 17.9461V17.9462V18.0538V18.0539C31 20.3472 31 22.1413 30.8612 23.5725C30.7198 25.0302 30.4271 26.2165 29.7738 27.2563C29.1344 28.2739 28.2739 29.1344 27.2563 29.7738C26.2165 30.4271 25.0302 30.7198 23.5725 30.8612C22.1413 31 20.3472 31 18.0539 31H18.0538H17.9462H17.9461C15.6528 31 13.8587 31 12.4275 30.8612C10.9698 30.7198 9.78348 30.4271 8.74374 29.7738C7.72611 29.1344 6.86563 28.2739 6.22621 27.2563C5.57289 26.2165 5.28016 25.0302 5.13879 23.5725C4.99999 22.1413 4.99999 20.3471 5 18.0538V18.0538V17.9462V17.9462C4.99999 15.6529 4.99999 13.8587 5.13879 12.4275C5.28016 10.9698 5.57289 9.78348 6.22621 8.74374C6.86563 7.72611 7.72611 6.86563 8.74374 6.22621C9.78348 5.57289 10.9698 5.28016 12.4275 5.13879C13.8587 4.99999 15.6529 4.99999 17.9462 5H17.9462ZM12.6206 7.12945C11.3126 7.2563 10.4756 7.50004 9.80781 7.91966C9.04458 8.39922 8.39922 9.04458 7.91966 9.80781C7.50004 10.4756 7.2563 11.3126 7.12945 12.6206C7.0011 13.944 7 15.6413 7 18C7 20.3587 7.0011 22.056 7.12945 23.3794C7.2563 24.6874 7.50004 25.5244 7.91966 26.1922C8.39922 26.9554 9.04458 27.6008 9.80781 28.0803C10.4756 28.5 11.3126 28.7437 12.6206 28.8706C13.944 28.9989 15.6413 29 18 29C20.3587 29 22.056 28.9989 23.3794 28.8706C24.6874 28.7437 25.5244 28.5 26.1922 28.0803C26.9554 27.6008 27.6008 26.9554 28.0803 26.1922C28.5 25.5244 28.7437 24.6874 28.8706 23.3794C28.9989 22.056 29 20.3587 29 18C29 15.6413 28.9989 13.944 28.8706 12.6206C28.7437 11.3126 28.5 10.4756 28.0803 9.80781C27.6008 9.04458 26.9554 8.39922 26.1922 7.91966C25.5244 7.50004 24.6874 7.2563 23.3794 7.12945C22.056 7.0011 20.3587 7 18 7C15.6413 7 13.944 7.0011 12.6206 7.12945ZM16.5 14V17.5H18.75C19.7165 17.5 20.5 16.7165 20.5 15.75C20.5 14.7835 19.7165 14 18.75 14H16.5ZM22.5 15.75C22.5 17.8211 20.8211 19.5 18.75 19.5H16.5V20.5H18C18.5523 20.5 19 20.9477 19 21.5C19 22.0523 18.5523 22.5 18 22.5H16.5V23C16.5 23.5523 16.0523 24 15.5 24C14.9477 24 14.5 23.5523 14.5 23V22.5H14C13.4477 22.5 13 22.0523 13 21.5C13 20.9477 13.4477 20.5 14 20.5H14.5V19.5H14C13.4477 19.5 13 19.0523 13 18.5C13 17.9477 13.4477 17.5 14 17.5H14.5V13.1C14.5 12.4925 14.9925 12 15.6 12H18.75C20.8211 12 22.5 13.6789 22.5 15.75Z" fill="black"/>
</svg>
