<svg width="36" height="36" viewBox="0 0 36 36" fill="none" xmlns="http://www.w3.org/2000/svg">
<path fill-rule="evenodd" clip-rule="evenodd" d="M7 11V23H29V11H7ZM5 10.1C5 9.49249 5.49249 9 6.1 9H29.9C30.5075 9 31 9.4925 31 10.1V23.9C31 24.5075 30.5075 25 29.9 25H6.1C5.49248 25 5 24.5075 5 23.9V10.1ZM11 15C11.5523 15 12 15.4477 12 16V18C12 18.5523 11.5523 19 11 19C10.4477 19 10 18.5523 10 18V16C10 15.4477 10.4477 15 11 15ZM25 15C25.5523 15 26 15.4477 26 16V18C26 18.5523 25.5523 19 25 19C24.4477 19 24 18.5523 24 18V16C24 15.4477 24.4477 15 25 15ZM5 28C5 27.4477 5.44772 27 6 27H30C30.5523 27 31 27.4477 31 28C31 28.5523 30.5523 29 30 29H6C5.44772 29 5 28.5523 5 28ZM17.0004 13.25C15.7576 13.2498 14.75 14.2573 14.75 15.5001C14.75 16.7429 15.7574 17.7503 17.0002 17.7503L19.0002 17.7503C19.4143 17.7503 19.75 18.086 19.75 18.5001C19.75 18.9142 19.4143 19.2499 19.0003 19.25L15.9999 19.2503C15.5857 19.2503 15.25 19.5861 15.25 20.0004C15.25 20.4146 15.5859 20.7503 16.0001 20.7503L17.25 20.7501V21.0001C17.25 21.4143 17.5858 21.7501 18 21.7501C18.4142 21.7501 18.75 21.4143 18.75 21.0001V20.75L19.0004 20.75C20.2429 20.7498 21.25 19.7426 21.25 18.5001C21.25 17.2576 20.2427 16.2503 19.0002 16.2503L17.0002 16.2503C16.5859 16.2503 16.25 15.9145 16.25 15.5001C16.25 15.0858 16.5859 14.7499 17.0003 14.75L19.9999 14.7503C20.4141 14.7504 20.75 14.4146 20.75 14.0004C20.75 13.5862 20.4143 13.2504 20.0001 13.2503L18.75 13.2502V13C18.75 12.5858 18.4142 12.25 18 12.25C17.5858 12.25 17.25 12.5858 17.25 13V13.25L17.0004 13.25Z" fill="black"/>
</svg>
