<svg width="36" height="36" viewBox="0 0 36 36" fill="none" xmlns="http://www.w3.org/2000/svg">
<path d="M13 20H16.5002V5C16.5002 4.44772 16.948 4 17.5002 4C18.0525 4 18.5002 4.44772 18.5002 5V20H22C23.1046 20 24 20.8954 24 22V23H11V22C11 20.8954 11.8954 20 13 20Z" fill="black"/>
<path d="M10.9999 25.0002C10.0924 27.4225 10.4687 28.9196 10.7667 29.5885C10.8891 29.8631 11.1745 30.0002 11.4752 30.0002H27.0303C27.5686 29.9841 28 29.5421 28 29C28 28.5409 27.6906 28.154 27.2689 28.0366C24.9977 26.9955 24.4988 25.9978 23.9999 25L10.9999 25.0002Z" fill="black"/>
</svg>
