<svg width="36" height="36" viewBox="0 0 36 36" fill="none" xmlns="http://www.w3.org/2000/svg">
<path fill-rule="evenodd" clip-rule="evenodd" d="M18.3899 7.73077C12.2554 6.97866 6.46839 11.0488 5.19171 17.2086C5.07963 17.7493 5.42716 18.2786 5.96794 18.3907L15.7598 20.4202L13.6732 30.4896H5C4.44772 30.4896 4 30.9373 4 31.4896C4 32.0419 4.44772 32.4896 5 32.4896H26C26.5523 32.4896 27 32.0419 27 31.4896C27 30.9373 26.5523 30.4896 26 30.4896H15.7157L17.7182 20.8262L27.5099 22.8557C28.0507 22.9678 28.58 22.6202 28.6921 22.0794C29.9688 15.9196 26.2765 9.88455 20.3483 8.13664L20.7491 6.20319C20.8612 5.6624 20.5137 5.13312 19.9729 5.02102C19.4321 4.90891 18.9028 5.25643 18.7907 5.79721L18.3899 7.73077ZM18.6942 9.79835C13.7139 8.90975 8.8906 11.8873 7.40139 16.6453L26.8883 20.6843C27.4129 15.7259 24.1701 11.0763 19.2463 9.91274L18.971 9.8517L18.6942 9.79835ZM19.0539 13.7183C21.1991 14.1627 22.5857 15.8446 22.2686 17.3763C22.1566 17.9172 22.5042 18.4463 23.045 18.5583C23.5859 18.6703 24.115 18.3227 24.227 17.7819C24.79 15.063 22.6038 12.4113 19.4597 11.7599C18.9189 11.6479 18.3896 11.9954 18.2776 12.5362C18.1656 13.077 18.5131 13.6063 19.0539 13.7183Z" fill="black"/>
</svg>
