<svg width="36" height="36" viewBox="0 0 36 36" fill="none" xmlns="http://www.w3.org/2000/svg">
<path fill-rule="evenodd" clip-rule="evenodd" d="M18 8C13.2554 8 9 11.9208 9 17C9 18.8326 9.5485 20.8907 10.7694 22.3612C11.1222 22.7861 11.0637 23.4166 10.6388 23.7694C10.2139 24.1222 9.5834 24.0637 9.23061 23.6388C7.63709 21.7195 7 19.1674 7 17C7 10.7667 12.201 6 18 6C23.7948 6 29 10.7001 29 17C29 19.1674 28.3629 21.7195 26.7694 23.6388C26.4166 24.0637 25.7861 24.1222 25.3612 23.7694C24.9363 23.4166 24.8778 22.7861 25.2306 22.3612C26.4515 20.8907 27 18.8326 27 17C27 11.8624 22.7488 8 18 8ZM17 11C17 10.4477 17.4477 10 18 10C19.131 10 20.8534 10.2768 22.3235 11.3058C23.8513 12.3752 25 14.1867 25 17C25 17.5523 24.5523 18 24 18C23.4477 18 23 17.5523 23 17C23 14.8133 22.1487 13.6248 21.1765 12.9442C20.1466 12.2232 18.869 12 18 12C17.4477 12 17 11.5523 17 11ZM6 26C5.44772 26 5 26.4477 5 27C5 27.5523 5.44772 28 6 28H30C30.5523 28 31 27.5523 31 27C31 26.4477 30.5523 26 30 26H6Z" fill="black"/>
</svg>
