<svg width="36" height="36" viewBox="0 0 36 36" fill="none" xmlns="http://www.w3.org/2000/svg">
<path fill-rule="evenodd" clip-rule="evenodd" d="M7.04484 17.0001C7.55003 11.3935 12.2619 7 18 7C23.7381 7 28.45 11.3935 28.9552 17.0001H24.6149C23.5809 17.0001 22.5892 16.5893 21.8581 15.8582L21.1457 15.1458C20.7197 14.7197 20.2116 14.3847 19.6522 14.161C18.5916 13.7367 17.4084 13.7367 16.3478 14.161C15.7884 14.3847 15.2803 14.7197 14.8543 15.1458L14.1419 15.8582C13.4108 16.5893 12.4191 17.0001 11.3851 17.0001H7.04484ZM7.04485 19.0001C7.52043 24.2772 11.7229 28.4796 17 28.9552V26.0001C17 22.1341 13.866 19.0001 10 19.0001H7.04485ZM19 28.9552C24.2771 28.4796 28.4796 24.2772 28.9552 19.0001H26C22.134 19.0001 19 22.1341 19 26.0001V28.9552ZM18 5C10.8203 5 5 10.8203 5 18C5 25.1797 10.8203 31 18 31C25.1797 31 31 25.1797 31 18C31 10.8203 25.1797 5 18 5ZM20 18.0001C20 19.1047 19.1046 20 18 20C16.8954 20 16 19.1047 16 18.0001C16 16.8956 16.8954 16.0001 18 16.0001C19.1046 16.0001 20 16.8956 20 18.0001Z" fill="black"/>
</svg>
