<svg width="36" height="36" viewBox="0 0 36 36" fill="none" xmlns="http://www.w3.org/2000/svg">
<path fill-rule="evenodd" clip-rule="evenodd" d="M29 28.9999H24.4854C22.3635 28.9999 20.3286 28.157 18.8284 26.6567L8.23145 16.0599C7.13428 14.9627 7.05493 13.21 8.0481 12.018L12.4636 6.71955C14.5076 4.26661 18.5 5.7121 18.5 8.90504V9.03516C18.791 9.23078 19.1807 9.21082 19.4512 8.97907L20.9175 7.72211C21.4612 7.25611 22.1538 6.99988 22.8699 6.99988H24.5C26.1567 6.99988 27.5 8.34308 27.5 9.99988V17.6715L31.8284 21.9999C32.5786 22.7501 33 23.7675 33 24.8283V24.9999C33 27.2091 31.209 28.9999 29 28.9999ZM17.0786 10.4629C16.7129 10.1702 16.5 9.72724 16.5 9.2588V8.90504C16.5 7.58265 14.8464 6.98401 14 7.99988L9.58447 13.2983C9.25342 13.6957 9.28003 14.2799 9.64575 14.6456L20.2427 25.2426C21.3679 26.3677 22.894 26.9999 24.4854 26.9999H29C30.1045 26.9999 31 26.1045 31 24.9999H25.1567C23.897 24.9999 22.689 24.4995 21.7981 23.6086L12.4697 14.2802C12.1768 13.9873 12.1768 13.5125 12.4697 13.2195C12.7625 12.9266 13.2375 12.9266 13.5303 13.2195L22.8586 22.548C23.4683 23.1575 24.2949 23.4999 25.1567 23.4999H30.4949C30.4688 23.4706 30.4419 23.442 30.4141 23.4141L26.0857 19.0857C25.7891 18.7889 25.5952 18.4085 25.5271 17.9999H23C22.4478 17.9999 22 17.5522 22 16.9999C22 16.4476 22.4478 15.9999 23 15.9999H25.5V13.9999H23C22.4478 13.9999 22 13.5522 22 12.9999C22 12.4476 22.4478 11.9999 23 11.9999H25.5V9.99988C25.5 9.44764 25.0522 8.99988 24.5 8.99988H22.8699C22.6311 8.99988 22.4004 9.08533 22.219 9.24067L20.7527 10.4976C19.7358 11.3691 18.2432 11.3944 17.1973 10.5579L17.0786 10.4629Z" fill="black"/>
<path d="M4 18.9999C3.44775 18.9999 3 19.4476 3 19.9999C3 20.5522 3.44775 20.9999 4 20.9999H8C8.55225 20.9999 9 20.5522 9 19.9999C9 19.4476 8.55225 18.9999 8 18.9999H4Z" fill="black"/>
<path d="M3 23.9999C3 23.4476 3.44775 22.9999 4 22.9999H12C12.5522 22.9999 13 23.4476 13 23.9999C13 24.5522 12.5522 24.9999 12 24.9999H4C3.44775 24.9999 3 24.5522 3 23.9999Z" fill="black"/>
<path d="M3 27.9999C3 27.4476 3.44775 26.9999 4 26.9999H16C16.5522 26.9999 17 27.4476 17 27.9999C17 28.5522 16.5522 28.9999 16 28.9999H4C3.44775 28.9999 3 28.5522 3 27.9999Z" fill="black"/>
</svg>
