<svg width="36" height="36" viewBox="0 0 36 36" fill="none" xmlns="http://www.w3.org/2000/svg">
<path d="M7 7C7 6.44772 6.55228 6 6 6C5.44772 6 5 6.44772 5 7C5 7.34305 5.01331 7.68318 5.03947 8.01989C5.08224 8.57052 5.56329 8.98221 6.11392 8.93944C6.66454 8.89666 7.07624 8.41561 7.03346 7.86499C7.0113 7.57976 7 7.2913 7 7Z" fill="black"/>
<path d="M31 7C31 6.44772 30.5523 6 30 6C29.4477 6 29 6.44772 29 7C29 7.2913 28.9887 7.57976 28.9665 7.86498C28.9238 8.41561 29.3355 8.89666 29.8861 8.93943C30.4367 8.98221 30.9178 8.57052 30.9605 8.01989C30.9867 7.68318 31 7.34304 31 7Z" fill="black"/>
<path d="M30.3668 11.0183C30.5373 10.4931 30.2498 9.92896 29.7245 9.75839C29.1992 9.58782 28.6351 9.87537 28.4646 10.4007C28.2855 10.9522 28.0639 11.4847 27.8037 11.9944C27.5526 12.4862 27.7477 13.0886 28.2396 13.3397C28.7315 13.5908 29.3338 13.3957 29.585 12.9038C29.8927 12.3011 30.1548 11.6711 30.3668 11.0183Z" fill="black"/>
<path d="M7.53545 10.4007C7.36488 9.87537 6.80077 9.58782 6.27549 9.75839C5.75021 9.92896 5.46265 10.4931 5.63323 11.0184C5.84518 11.6711 6.10732 12.3011 6.41502 12.9038C6.66615 13.3957 7.26849 13.5908 7.76037 13.3397C8.25226 13.0886 8.44743 12.4862 8.1963 11.9944C7.93609 11.4847 7.71454 10.9522 7.53545 10.4007Z" fill="black"/>
<path d="M27.8852 15.4433C28.2441 15.0235 28.1947 14.3922 27.7749 14.0334C27.3551 13.6745 26.7239 13.7239 26.365 14.1437C25.9904 14.5819 25.5819 14.9904 25.1437 15.365C24.7239 15.7239 24.6745 16.3551 25.0334 16.7749C25.3922 17.1947 26.0235 17.2441 26.4433 16.8852C26.9607 16.4429 27.4429 15.9607 27.8852 15.4433Z" fill="black"/>
<path d="M9.63501 14.1437C9.27614 13.7239 8.6449 13.6745 8.22511 14.0334C7.80531 14.3922 7.75593 15.0235 8.1148 15.4433C8.55711 15.9607 9.03934 16.4429 9.55674 16.8852C9.97653 17.2441 10.6078 17.1947 10.9666 16.7749C11.3255 16.3551 11.2761 15.7239 10.8563 15.365C10.4181 14.9904 10.0096 14.5819 9.63501 14.1437Z" fill="black"/>
<path d="M23.9038 18.585C24.3957 18.3338 24.5908 17.7315 24.3397 17.2396C24.0886 16.7477 23.4862 16.5526 22.9944 16.8037C22.4847 17.0639 21.9522 17.2855 21.4007 17.4646C20.8754 17.6351 20.5878 18.1992 20.7584 18.7245C20.929 19.2498 21.4931 19.5373 22.0184 19.3668C22.6711 19.1548 23.3011 18.8927 23.9038 18.585Z" fill="black"/>
<path d="M13.0056 16.8037C12.5138 16.5526 11.9114 16.7477 11.6603 17.2396C11.4092 17.7315 11.6043 18.3338 12.0962 18.585C12.6989 18.8927 13.3289 19.1548 13.9817 19.3668C14.5069 19.5373 15.071 19.2498 15.2416 18.7245C15.4122 18.1992 15.1246 17.6351 14.5993 17.4646C14.0478 17.2855 13.5153 17.0639 13.0056 16.8037Z" fill="black"/>
<path d="M17.135 17.9665C16.5844 17.9238 16.1033 18.3355 16.0606 18.8861C16.0178 19.4367 16.4295 19.9178 16.9801 19.9605C17.3168 19.9867 17.657 20 18 20C18.343 20 18.6832 19.9867 19.0199 19.9605C19.5705 19.9178 19.9822 19.4367 19.9394 18.8861C19.8967 18.3355 19.4156 17.9238 18.865 17.9665C18.5798 17.9887 18.2913 18 18 18C17.7087 18 17.4202 17.9887 17.135 17.9665Z" fill="black"/>
<path fill-rule="evenodd" clip-rule="evenodd" d="M13.0203 25.3062L15.1999 22.4C15.3888 22.1482 15.6852 22 15.9999 22H19.9999C20.3147 22 20.6111 22.1482 20.7999 22.4L22.9796 25.3062C23.2782 25.7043 23.2386 26.2614 22.8867 26.6133L18.7071 30.7929C18.3165 31.1834 17.6834 31.1834 17.2928 30.7929L13.1132 26.6133C12.7613 26.2614 12.7217 25.7043 13.0203 25.3062ZM17.9999 28.6716L15.1407 25.8123L16.4999 24H19.4999L20.8592 25.8123L17.9999 28.6716Z" fill="black"/>
</svg>
