<svg width="36" height="36" viewBox="0 0 36 36" fill="none" xmlns="http://www.w3.org/2000/svg">
<path fill-rule="evenodd" clip-rule="evenodd" d="M28 10H8C7.44772 10 7 10.4477 7 11V23C7 23.5523 7.44772 24 8 24H28C28.5523 24 29 23.5523 29 23V11C29 10.4477 28.5523 10 28 10ZM8 8C6.34315 8 5 9.34315 5 11V23C5 24.6569 6.34315 26 8 26H28C29.6569 26 31 24.6569 31 23V11C31 9.34315 29.6569 8 28 8H8ZM12 29C12 28.4477 12.4477 28 13 28H23C23.5523 28 24 28.4477 24 29C24 29.5523 23.5523 30 23 30H13C12.4477 30 12 29.5523 12 29ZM18 23C18.5523 23 19 22.5523 19 22C19 21.4477 18.5523 21 18 21C17.4477 21 17 21.4477 17 22C17 22.5523 17.4477 23 18 23Z" fill="black"/>
</svg>
