<svg width="36" height="36" viewBox="0 0 36 36" fill="none" xmlns="http://www.w3.org/2000/svg">
<path fill-rule="evenodd" clip-rule="evenodd" d="M10 5C8.34315 5 7 6.34315 7 8V28C7 29.6569 8.34315 31 10 31H26C27.6569 31 29 29.6569 29 28V8C29 6.34315 27.6569 5 26 5H10ZM9 8C9 7.44772 9.44771 7 10 7H26C26.5523 7 27 7.44772 27 8V28C27 28.5523 26.5523 29 26 29H10C9.44772 29 9 28.5523 9 28V8ZM19.1913 22.5882L16 18.2002L12.8087 22.5882C12.4839 23.0348 11.8585 23.1336 11.4118 22.8087C10.9652 22.4839 10.8664 21.8585 11.1913 21.4118L15.1104 16.023C15.5497 15.419 16.4503 15.419 16.8896 16.023L20.8087 21.4118C21.1336 21.8585 21.0348 22.4839 20.5882 22.8087C20.1415 23.1336 19.5161 23.0348 19.1913 22.5882ZM19.9265 16.1808C20.379 15.864 21.0025 15.9741 21.3192 16.4265L24.8192 21.4265C25.1359 21.879 25.0259 22.5025 24.5735 22.8192C24.121 23.1359 23.4975 23.0259 23.1808 22.5735L19.6808 17.5735C19.364 17.121 19.4741 16.4975 19.9265 16.1808ZM24 16C24.5523 16 25 15.5523 25 15C25 14.4477 24.5523 14 24 14C23.4477 14 23 14.4477 23 15C23 15.5523 23.4477 16 24 16Z" fill="black"/>
</svg>
