<svg width="36" height="36" viewBox="0 0 36 36" fill="none" xmlns="http://www.w3.org/2000/svg">
<path fill-rule="evenodd" clip-rule="evenodd" d="M14.9701 8.24277C15.1041 7.70698 14.7783 7.16404 14.2425 7.03009C13.7067 6.89615 13.1638 7.22191 13.0299 7.7577L11.7192 13.0002H8.16843C7.5546 13.0002 7.08566 13.5481 7.18042 14.1546L9.36792 28.1546C9.44398 28.6414 9.86325 29.0002 10.3559 29.0002H25.6442C26.1368 29.0002 26.5561 28.6414 26.6322 28.1546L28.8197 14.1546C28.9144 13.5481 28.4455 13.0002 27.8317 13.0002H24.2808L22.9701 7.7577C22.8362 7.22191 22.2933 6.89615 21.7575 7.03009C21.2217 7.16404 20.8959 7.70698 21.0299 8.24277L22.2192 13.0002H13.7808L14.9701 8.24277ZM12.4795 15.0002C12.4937 15.0006 12.5079 15.0005 12.522 15.0002H23.4779C23.4921 15.0005 23.5063 15.0006 23.5205 15.0002H26.6633L24.7883 27.0002H11.2118L9.33682 15.0002H12.4795ZM13.5 18.0002C12.9477 18.0002 12.5 18.448 12.5 19.0002C12.5 19.5525 12.9477 20.0002 13.5 20.0002H22.5C23.0523 20.0002 23.5 19.5525 23.5 19.0002C23.5 18.448 23.0523 18.0002 22.5 18.0002H13.5ZM12.5 23.0002C12.5 22.448 12.9477 22.0002 13.5 22.0002H22.5C23.0523 22.0002 23.5 22.448 23.5 23.0002C23.5 23.5525 23.0523 24.0002 22.5 24.0002H13.5C12.9477 24.0002 12.5 23.5525 12.5 23.0002Z" fill="black"/>
</svg>
