<svg width="36" height="36" viewBox="0 0 36 36" fill="none" xmlns="http://www.w3.org/2000/svg">
<path fill-rule="evenodd" clip-rule="evenodd" d="M24.4739 5.77285L24.4747 5.77635L24.4792 5.7952C24.4835 5.81279 24.4903 5.84022 24.4996 5.87642C24.5182 5.94888 24.5466 6.05612 24.5847 6.18964C24.6611 6.4576 24.7751 6.82665 24.9247 7.23023C25.2392 8.07838 25.6561 8.92354 26.1163 9.38371C26.5765 9.84387 27.4216 10.2608 28.2698 10.5753C28.6734 10.7249 29.0424 10.8389 29.3104 10.9153C29.4439 10.9534 29.5511 10.9818 29.6236 11.0004C29.6598 11.0097 29.6872 11.0165 29.7048 11.0208L29.7236 11.0253L29.7269 11.0261C30.1795 11.1316 30.5 11.5352 30.5 12C30.5 12.4646 30.18 12.868 29.7276 12.9738L29.7236 12.9747L29.7048 12.9792C29.6872 12.9835 29.6598 12.9903 29.6236 12.9996C29.5511 13.0182 29.4439 13.0466 29.3104 13.0847C29.0424 13.1611 28.6734 13.2751 28.2698 13.4247C27.4216 13.7392 26.5765 14.1561 26.1163 14.6163C25.6561 15.0765 25.2392 15.9216 24.9247 16.7698C24.7751 17.1734 24.6611 17.5424 24.5847 17.8104C24.5466 17.9439 24.5182 18.0511 24.4996 18.1236C24.4903 18.1598 24.4835 18.1872 24.4792 18.2048L24.4747 18.2236L24.4739 18.2269C24.3684 18.6795 23.9648 19 23.5 19C23.0354 19 22.632 18.68 22.5262 18.2276L22.5253 18.2236L22.5208 18.2048C22.5165 18.1872 22.5097 18.1598 22.5004 18.1236C22.4818 18.0511 22.4534 17.9439 22.4153 17.8104C22.3389 17.5424 22.2249 17.1734 22.0753 16.7698C21.7608 15.9216 21.3439 15.0765 20.8837 14.6163C20.4235 14.1561 19.5784 13.7392 18.7302 13.4247C18.3266 13.2751 17.9576 13.1611 17.6896 13.0847C17.5561 13.0466 17.4489 13.0182 17.3764 12.9996C17.3402 12.9903 17.3128 12.9835 17.2952 12.9792L17.2764 12.9747L17.2731 12.9739C16.8205 12.8684 16.5 12.4648 16.5 12C16.5 11.5353 16.8201 11.1319 17.2726 11.0262L17.2764 11.0253L17.2952 11.0208C17.3128 11.0165 17.3402 11.0097 17.3764 11.0004C17.4489 10.9818 17.5561 10.9534 17.6896 10.9153C17.9576 10.8389 18.3266 10.7249 18.7302 10.5753C19.5784 10.2608 20.4235 9.84387 20.8837 9.38371C21.3439 8.92354 21.7608 8.07838 22.0753 7.23023C22.2249 6.82665 22.3389 6.4576 22.4153 6.18964C22.4534 6.05612 22.4818 5.94888 22.5004 5.87642C22.5097 5.84022 22.5165 5.81279 22.5208 5.7952L22.5253 5.77635L22.5261 5.77312C22.6316 5.32051 23.0352 5 23.5 5C23.9647 5 24.3682 5.32036 24.4739 5.77285ZM24.7021 10.7979C25.1986 11.2945 25.8601 11.6918 26.5032 12C25.8601 12.3082 25.1986 12.7055 24.7021 13.2021C24.2055 13.6986 23.8082 14.3601 23.5 15.0032C23.1918 14.3601 22.7945 13.6986 22.2979 13.2021C21.8014 12.7055 21.1399 12.3082 20.4968 12C21.1399 11.6918 21.8014 11.2945 22.2979 10.7979C22.7945 10.3014 23.1918 9.63989 23.5 8.99679C23.8082 9.63989 24.2055 10.3014 24.7021 10.7979Z" fill="black"/>
<path fill-rule="evenodd" clip-rule="evenodd" d="M18.294 22.4285L18.0364 22.3006C18.0003 22.2821 17.967 22.2646 17.9355 22.2477L17.7605 22.1485C16.4438 21.3082 15.2311 20.1921 14.1256 18.8269C13.6695 18.2661 13.3217 17.7473 13.0549 17.2142L13.6945 16.5921L14.1904 16.0917L14.4416 15.8282C15.3603 14.7964 15.3598 13.4659 14.4283 12.4225L14.0843 12.0631L13.0755 11.0621L11.8125 9.7991C10.7913 8.77789 9.36607 8.73534 8.31211 9.67191L8.06322 9.90898L6.78246 11.1773L6.62509 11.3287C5.94494 11.9804 5.57306 12.7786 5.51255 13.7083C5.44329 14.851 5.66193 15.9434 6.13835 17.2336C6.91073 19.328 8.10389 21.2805 9.69312 23.1349C11.6927 25.5208 14.1137 27.4148 16.9168 28.7829C18.4085 29.515 19.7407 29.9267 21.1176 29.994C22.4021 30.053 23.4703 29.6679 24.3017 28.7525L24.4804 28.5531C24.5109 28.52 24.542 28.4867 24.5743 28.4527L24.7839 28.2368L25.6845 27.3503L25.8148 27.2123C26.7702 26.1382 26.7268 24.7133 25.6845 23.6711L25.0064 22.9837L23.1787 21.1662L23.0436 21.0387C21.9909 20.1033 20.5665 20.1459 19.5453 21.1671L18.4449 22.2739L18.294 22.4285ZM9.57619 11.2283C9.87551 10.9289 10.1139 10.9289 10.3983 11.2133L12.6572 13.4644L12.9424 13.7617C13.1826 14.0335 13.1837 14.2291 12.956 14.4887L12.6643 14.7922C12.6194 14.8381 12.5743 14.884 12.5283 14.9303L12.0733 15.3808L11.343 16.0855C10.9259 16.4994 10.8143 17.025 11.0188 17.5671C11.3981 18.4679 11.8964 19.2556 12.5726 20.0871C13.8066 21.6111 15.1775 22.8727 16.7087 23.8493L16.9416 23.9835L17.187 24.1124L17.8212 24.4231C18.3972 24.7095 18.9662 24.5957 19.4125 24.1493L20.0159 23.5285L20.9582 22.5827C21.2439 22.2969 21.4814 22.2969 21.7648 22.5808L23.7664 24.5732L24.2615 25.0764C24.5768 25.3918 24.5768 25.6296 24.2703 25.9361L23.4824 26.7097C23.2015 26.9888 23.0093 27.1914 22.8071 27.4237C22.4162 27.8538 21.9297 28.0292 21.2123 27.9963C20.1486 27.9443 19.0653 27.6095 17.796 26.9865C15.2431 25.7405 13.0455 24.0212 11.2188 21.8418C9.77011 20.1512 8.70054 18.401 8.01467 16.5412C7.62594 15.4885 7.4589 14.6539 7.50861 13.8337C7.53634 13.4078 7.68976 13.0785 8.00725 12.7743L8.34825 12.4435L9.34024 11.4572L9.57619 11.2283Z" fill="black"/>
</svg>
