<svg width="36" height="36" viewBox="0 0 36 36" fill="none" xmlns="http://www.w3.org/2000/svg">
<path fill-rule="evenodd" clip-rule="evenodd" d="M12 11V18H19H25V11H12ZM26 20H20V23C20 24.6569 18.6569 26 17 26H8V28H6V25V22H8V24H17C17.5523 24 18 23.5523 18 23V20H11C10.4477 20 10 19.5523 10 19V10C10 9.44771 10.4477 9 11 9H26C26.5523 9 27 9.44772 27 10V19C27 19.5523 26.5523 20 26 20ZM29 11C29.5523 11 30 11.4477 30 12V17C30 17.5523 29.5523 18 29 18C28.4477 18 28 17.5523 28 17V12C28 11.4477 28.4477 11 29 11ZM15 13C14.4477 13 14 13.4477 14 14C14 14.5523 14.4477 15 15 15H18C18.5523 15 19 14.5523 19 14C19 13.4477 18.5523 13 18 13H15Z" fill="black"/>
</svg>
