<svg width="36" height="36" viewBox="0 0 36 36" fill="none" xmlns="http://www.w3.org/2000/svg">
<path fill-rule="evenodd" clip-rule="evenodd" d="M24.678 5.29339C24.1524 4.76765 23.2572 4.97896 23.0221 5.68428L21.918 8.99737C20.2006 8.46268 18.2521 8.87534 16.892 10.2354L11.2342 15.8913C9.8746 17.2526 9.46221 19.2014 9.99679 20.9189L6.68428 22.0228C5.979 22.2579 5.76766 23.153 6.29333 23.6786L11.9503 29.3356C12.476 29.8613 13.3711 29.65 13.6061 28.9447L14.7135 25.6219C16.4257 26.1473 18.3652 25.7327 19.7202 24.3776L25.3772 18.7206C26.732 17.3659 27.1468 15.4269 26.6215 13.7144L29.944 12.6071C30.6492 12.3721 30.8606 11.4771 30.335 10.9514L24.678 5.29339ZM22.549 11.6496L22.4052 11.5149C21.226 10.48 19.4309 10.525 18.3061 11.6498L12.6487 17.3052C11.4776 18.4778 11.4776 20.3773 12.6477 21.5489L14.0645 22.9637C15.2349 24.1349 17.1346 24.1349 18.306 22.9634L23.963 17.3064C25.1345 16.135 25.1345 14.2351 23.963 13.0636L22.549 11.6496ZM8.85176 23.4086L12.2203 26.7772L12.9274 24.6557L10.9733 22.7016L8.85176 23.4086ZM23.7009 9.97343L25.6551 11.9283L27.7767 11.2213L24.4079 7.85191L23.7009 9.97343ZM15.7463 20.0941L20.7463 15.0941C21.1369 14.7036 21.1369 14.0705 20.7463 13.6799C20.3558 13.2894 19.7227 13.2894 19.3321 13.6799L14.3321 18.6799C13.9416 19.0705 13.9416 19.7036 14.3321 20.0941C14.7227 20.4847 15.3558 20.4847 15.7463 20.0941Z" fill="black"/>
</svg>
