<svg width="36" height="36" viewBox="0 0 36 36" fill="none" xmlns="http://www.w3.org/2000/svg">
<path d="M16.8438 24.9998C16.4358 24.9998 16.0038 24.9278 15.6798 24.7958V22.8878C15.8478 23.0318 16.1718 23.1638 16.4838 23.1638C16.7838 23.1638 17.0958 23.1038 17.2758 22.6958L13.9998 16.4918H16.3158L18.3558 20.7278L19.9638 16.4918H22.0158L19.3038 22.9838C18.6558 24.5438 18.0678 24.9998 16.8438 24.9998Z" fill="black"/>
<path fill-rule="evenodd" clip-rule="evenodd" d="M29.7884 24.2402L20.1589 7.73251C19.1942 6.07875 16.8047 6.07875 15.84 7.73251L6.21053 24.2402C5.23832 25.9068 6.4405 27.9999 8.36998 27.9999H27.6289C29.5584 27.9999 30.7606 25.9068 29.7884 24.2402ZM8.36998 25.9999C7.98408 25.9999 7.74364 25.5813 7.93809 25.2479L17.5676 8.74025C17.7605 8.4095 18.2384 8.4095 18.4313 8.74025L28.0608 25.2479C28.2553 25.5813 28.0148 25.9999 27.6289 25.9999H8.36998Z" fill="black"/>
</svg>
