<svg width="36" height="36" viewBox="0 0 36 36" fill="none" xmlns="http://www.w3.org/2000/svg">
<path fill-rule="evenodd" clip-rule="evenodd" d="M12.5822 20.5068C12.8233 19.0602 14.0748 18 15.5413 18H20.4586C21.9251 18 23.1767 19.0602 23.4178 20.5068L23.8059 22.8356C23.9075 23.4451 23.4374 24 22.8195 24H13.1804C12.5625 24 12.0924 23.4451 12.194 22.8356L12.5822 20.5068ZM15.5413 20H20.4586C20.9474 20 21.3646 20.3534 21.445 20.8356L21.639 22H14.3609L14.555 20.8356C14.6353 20.3534 15.0525 20 15.5413 20Z" fill="black"/>
<path fill-rule="evenodd" clip-rule="evenodd" d="M18 11C16.3431 11 15 12.3431 15 14C15 15.6569 16.3431 17 18 17C19.6569 17 21 15.6569 21 14C21 12.3431 19.6569 11 18 11ZM17 14C17 14.5523 17.4477 15 18 15C18.5523 15 19 14.5523 19 14C19 13.4477 18.5523 13 18 13C17.4477 13 17 13.4477 17 14Z" fill="black"/>
<path fill-rule="evenodd" clip-rule="evenodd" d="M27.7906 22.0472L27.8446 21.7768C27.948 21.2602 28 20.7347 28 20.2078V8C28 7.44772 27.5523 7 27 7H9C8.44772 7 8 7.44772 8 8V20.2078C8 20.7347 8.05204 21.2602 8.15535 21.7768L8.20943 22.0472C8.71169 24.5584 10.2764 26.7294 12.5 28L17.5211 30.7388C17.8196 30.9016 18.1804 30.9016 18.4789 30.7388L23.5 28C25.7236 26.7294 27.2883 24.5584 27.7906 22.0472ZM10 20.2078V9H26V20.2078C26 20.6983 25.9252 21.1759 25.8294 21.6549C25.4418 23.5931 24.2367 25.2694 22.5238 26.2543L18 28.7218L13.4762 26.2543C11.7633 25.2694 10.5582 23.5931 10.1706 21.6549C10.0748 21.1759 10 20.6982 10 20.2078Z" fill="black"/>
</svg>
