<svg width="36" height="36" viewBox="0 0 36 36" fill="none" xmlns="http://www.w3.org/2000/svg">
<path fill-rule="evenodd" clip-rule="evenodd" d="M28.7071 7.70711C29.0976 7.31658 29.0976 6.68342 28.7071 6.29289C28.3166 5.90237 27.6834 5.90237 27.2929 6.29289L23.6394 9.94642C22.8008 7.64407 20.5924 6 18 6C14.6863 6 12 8.68629 12 12V17C12 18.2952 12.4113 19.4958 13.1093 20.4765L11.6703 21.9155C10.9052 20.9851 10.3164 19.8928 9.95684 18.7093C9.79629 18.1809 9.23776 17.8827 8.70933 18.0432C8.18089 18.2037 7.88266 18.7623 8.0432 19.2907C8.49825 20.7885 9.25658 22.1688 10.2506 23.3352L7.29289 26.2929C6.90237 26.6834 6.90237 27.3166 7.29289 27.7071C7.68342 28.0976 8.31658 28.0976 8.70711 27.7071L28.7071 7.70711ZM18 8C20.0759 8 21.7824 9.5813 21.9807 11.605L14.5537 19.0321C14.2016 18.4366 14 17.7424 14 17V12C14 9.79086 15.7909 8 18 8ZM18.0062 25C18.0041 25 18.0021 25 18 25C17.998 25 17.9959 25 17.9939 25C16.9174 24.9992 15.897 24.7818 14.961 24.3906C14.4515 24.1775 13.8657 24.4179 13.6527 24.9275C13.4397 25.437 13.6801 26.0228 14.1896 26.2358C15.0708 26.6042 16.0136 26.8499 17 26.9497V30.5C17 31.0523 17.4477 31.5 18 31.5C18.5523 31.5 19 31.0523 19 30.5V26.95C23.3179 26.5155 26.7391 23.2989 27.9568 19.2907C28.1174 18.7623 27.8191 18.2037 27.2907 18.0432C26.7623 17.8827 26.2037 18.1809 26.0432 18.7093C24.9514 22.3029 21.7834 24.9972 18.0062 25ZM23 16C23.5523 16 24 16.4477 24 17C24 20.3137 21.3137 23 18 23C17.4477 23 17 22.5523 17 22C17 21.4477 17.4477 21 18 21C20.2091 21 22 19.2091 22 17C22 16.4477 22.4477 16 23 16Z" fill="black"/>
</svg>
