<svg width="36" height="36" viewBox="0 0 36 36" fill="none" xmlns="http://www.w3.org/2000/svg">
<path fill-rule="evenodd" clip-rule="evenodd" d="M24 11V10.5C24 9.11929 22.8807 8 21.5 8H10.5C9.11929 8 8 9.11929 8 10.5V17C8 17.0498 8.00123 17.0995 8.00368 17.149C8.04324 21.9493 8.3894 24.0215 9.3769 25.727C9.87188 26.5819 10.5547 27.2027 11.3992 27.5751C12.194 27.9256 13.0074 28.0002 13.6923 28.0002H15.6923V27.9846L16.3077 27.986V27.9999H18.3077C18.9926 27.9999 19.806 27.9253 20.6008 27.5749C21.4453 27.2025 22.1281 26.5816 22.6231 25.7267C23.0657 24.9624 23.3795 24.1243 23.5945 23H24C27.3137 23 30 20.3137 30 17V14.5C30 12.567 28.433 11 26.5 11H24ZM11.1077 24.7248C11.2957 25.0494 11.5135 25.2966 11.7589 25.4827C12.2848 25.8816 12.937 26.0002 13.6923 26.0002C13.6923 25.9694 18.3077 25.9911 18.3077 25.9999C19.0254 25.9999 19.6502 25.8928 20.1618 25.5399C20.4398 25.3481 20.6843 25.0838 20.8923 24.7246C21.161 24.2606 21.3808 23.7403 21.5517 23C21.5614 22.9581 21.5709 22.9155 21.5802 22.8721C21.6898 22.3647 21.778 21.7565 21.8447 21C21.9334 19.9935 21.9841 18.7245 21.9968 17.0806C21.9989 17.054 22 17.0271 22 17V10.5C22 10.2239 21.7761 10 21.5 10H10.5C10.2239 10 10 10.2239 10 10.5V17C10 17.0271 10.0011 17.054 10.0032 17.0806C10.0407 21.9305 10.4089 23.518 11.1077 24.7248ZM24 13V17C24 17.0498 23.9988 17.0995 23.9963 17.1491C23.9836 18.6868 23.9395 19.9446 23.8529 21H24C26.2091 21 28 19.2091 28 17V14.5C28 13.6716 27.3284 13 26.5 13H24Z" fill="black"/>
</svg>
