<svg width="36" height="36" viewBox="0 0 36 36" fill="none" xmlns="http://www.w3.org/2000/svg">
<path fill-rule="evenodd" clip-rule="evenodd" d="M9.5 10C8.67157 10 8 10.6716 8 11.5C8 12.3284 8.67157 13 9.5 13C10.3284 13 11 12.3284 11 11.5C11 10.6716 10.3284 10 9.5 10ZM9.5 16C8.67157 16 8 16.6716 8 17.5C8 18.3284 8.67157 19 9.5 19C10.3284 19 11 18.3284 11 17.5C11 16.6716 10.3284 16 9.5 16ZM8 23.5C8 22.6716 8.67157 22 9.5 22C10.3284 22 11 22.6716 11 23.5C11 24.3284 10.3284 25 9.5 25C8.67157 25 8 24.3284 8 23.5ZM14 10.5C13.4477 10.5 13 10.9477 13 11.5C13 12.0523 13.4477 12.5 14 12.5H27C27.5523 12.5 28 12.0523 28 11.5C28 10.9477 27.5523 10.5 27 10.5H14ZM13 17.5C13 16.9477 13.4477 16.5 14 16.5H27C27.5523 16.5 28 16.9477 28 17.5C28 18.0523 27.5523 18.5 27 18.5H14C13.4477 18.5 13 18.0523 13 17.5ZM14 22.5C13.4477 22.5 13 22.9477 13 23.5C13 24.0523 13.4477 24.5 14 24.5H27C27.5523 24.5 28 24.0523 28 23.5C28 22.9477 27.5523 22.5 27 22.5H14Z" fill="black"/>
</svg>
