<svg width="36" height="36" viewBox="0 0 36 36" fill="none" xmlns="http://www.w3.org/2000/svg">
<path fill-rule="evenodd" clip-rule="evenodd" d="M29.4699 14.3477L17.9999 7.1789L6.52989 14.3477C6.06155 14.6404 5.4446 14.498 5.15189 14.0297C4.85918 13.5613 5.00155 12.9444 5.46989 12.6517L17.4169 5.18478C17.7736 4.96184 18.2262 4.96185 18.5829 5.18478L26 9.82047V6.99976C26 6.44747 26.4477 5.99976 27 5.99976C27.5523 5.99976 28 6.44747 28 6.99976V11.0705L30.5299 12.6517C30.9982 12.9444 31.1406 13.5613 30.8479 14.0297C30.5552 14.498 29.9382 14.6404 29.4699 14.3477ZM9 14.9998C9.55228 14.9998 10 15.4475 10 15.9998V26.9998C10 27.552 10.4477 27.9998 11 27.9998H25C25.5523 27.9998 26 27.552 26 26.9998V15.9998C26 15.4475 26.4477 14.9998 27 14.9998C27.5523 14.9998 28 15.4475 28 15.9998V26.9998C28 28.6566 26.6569 29.9998 25 29.9998H11C9.34315 29.9998 8 28.6566 8 26.9998V15.9998C8 15.4475 8.44772 14.9998 9 14.9998ZM22.2071 17.7069C22.5976 17.3163 22.5976 16.6832 22.2071 16.2926C21.8166 15.9021 21.1834 15.9021 20.7929 16.2926L14.2929 22.7926C13.9024 23.1832 13.9024 23.8163 14.2929 24.2069C14.6834 24.5974 15.3166 24.5974 15.7071 24.2069L22.2071 17.7069ZM17 17.4998C17 18.3282 16.3284 18.9998 15.5 18.9998C14.6716 18.9998 14 18.3282 14 17.4998C14 16.6713 14.6716 15.9998 15.5 15.9998C16.3284 15.9998 17 16.6713 17 17.4998ZM21 24.4998C21.8284 24.4998 22.5 23.8282 22.5 22.9998C22.5 22.1713 21.8284 21.4998 21 21.4998C20.1716 21.4998 19.5 22.1713 19.5 22.9998C19.5 23.8282 20.1716 24.4998 21 24.4998Z" fill="black"/>
</svg>
