<svg width="36" height="36" viewBox="0 0 36 36" fill="none" xmlns="http://www.w3.org/2000/svg">
<path fill-rule="evenodd" clip-rule="evenodd" d="M29.432 18.432C29.432 12.118 24.3136 7 18 7C11.6864 7 6.568 12.118 6.568 18.432C6.568 20.5998 7.17282 22.6802 8.29685 24.4798C8.58943 24.9482 9.20634 25.0907 9.67476 24.7981C10.1432 24.5056 10.2857 23.8887 9.99315 23.4202C9.06623 21.9362 8.568 20.2225 8.568 18.432C8.568 13.2226 12.7909 9 18 9C23.2091 9 27.432 13.2226 27.432 18.432C27.432 20.2213 26.9335 21.9352 26.0066 23.4206C25.7142 23.8892 25.8571 24.506 26.3256 24.7984C26.7942 25.0908 27.411 24.9479 27.7034 24.4794C28.8269 22.6788 29.432 20.5985 29.432 18.432ZM18.9933 14.4115C18.9355 13.9141 18.5128 13.5281 18 13.5281C17.4477 13.5281 17 13.9758 17 14.5281V20.1017L14.7095 17.7961L14.6156 17.7126C14.2243 17.4062 13.657 17.432 13.2953 17.7913C12.9034 18.1805 12.9013 18.8137 13.2905 19.2055L17.2905 23.2325L17.3849 23.3164C17.7781 23.6239 18.3485 23.5959 18.7095 23.2325L22.7095 19.2055L22.7924 19.111C23.0961 18.7177 23.0664 18.1506 22.7047 17.7913L22.6102 17.7084C22.2169 17.4047 21.6498 17.4344 21.2905 17.7961L19 20.1017V14.5281L18.9933 14.4115ZM31 27.8323C31 27.28 30.5523 26.8323 30 26.8323H6L5.88338 26.839C5.38604 26.8968 5 27.3195 5 27.8323C5 28.3846 5.44772 28.8323 6 28.8323H30L30.1166 28.8256C30.614 28.7678 31 28.3451 31 27.8323Z" fill="black"/>
</svg>
