<svg width="36" height="36" viewBox="0 0 36 36" fill="none" xmlns="http://www.w3.org/2000/svg">
<path d="M21 5C21 4.44772 20.5523 4 20 4C19.4477 4 19 4.44772 19 5V7C19 7.0576 19.0002 7.11479 19.0005 7.17174C19.0023 7.64334 19.0041 8.09925 18.8762 8.64777C18.7369 9.24476 18.4311 9.98533 17.7191 10.8753C17.1437 11.5946 16.5765 12.3089 16.0475 12.9751C15.0931 14.177 14.2626 15.2228 13.7318 15.8598C13.6139 16.0013 13.4841 16.155 13.346 16.3187C12.7782 16.9915 12.0696 17.8311 11.4692 18.6664C11.0936 19.189 10.7383 19.7393 10.4737 20.2775C10.2173 20.799 10 21.3996 10 22C10 23.0284 10.3705 23.8404 11.15 24.425C11.8298 24.9349 12.7647 25.2219 13.7575 25.4701C14.7647 25.7219 15.3298 25.9349 15.65 26.175C15.8705 26.3404 16 26.5284 16 27V30C16 30.5523 16.4477 31 17 31C17.5523 31 18 30.5523 18 30V27C18 25.9716 17.6295 25.1596 16.85 24.575C16.1702 24.0651 15.2353 23.7781 14.2425 23.5299C13.2353 23.2781 12.6702 23.0651 12.35 22.825C12.1295 22.6596 12 22.4716 12 22C12 21.8504 12.064 21.576 12.2685 21.16C12.4648 20.7607 12.7502 20.311 13.0933 19.8336C13.6431 19.0687 14.2848 18.3079 14.8502 17.6377C14.9954 17.4655 15.1359 17.299 15.2682 17.1402C15.8136 16.4857 16.6713 15.4057 17.6392 14.1868C18.1647 13.5251 18.7227 12.8225 19.2809 12.1247C20.1689 11.0147 20.6131 10.0052 20.8238 9.10223C21.0083 8.31179 21.0038 7.62789 21.0007 7.15914C21.0003 7.10294 21 7.04983 21 7V5Z" fill="black"/>
<path d="M25.5 21.5C25.5 20.9477 25.0523 20.5 24.5 20.5C23.9477 20.5 23.5 20.9477 23.5 21.5C23.5 21.911 23.3822 22.1587 23.2469 22.3213C23.1013 22.4964 22.8776 22.6399 22.5793 22.7322C22.2799 22.8249 21.9441 22.8528 21.6391 22.8246C21.3181 22.7949 21.1212 22.7123 21.0547 22.6679C20.8215 22.5125 20.5987 22.359 20.3874 22.2134C19.9827 21.9345 19.6204 21.6849 19.3086 21.5068C18.756 21.191 18.2112 21 17.5 21H16C15.4477 21 15 21.4477 15 22C15 22.5523 15.4477 23 16 23H17.5C17.7888 23 17.994 23.059 18.3164 23.2432C18.5595 23.3822 18.8057 23.5523 19.1451 23.7869C19.3646 23.9386 19.6233 24.1174 19.9453 24.3321C20.3788 24.6211 20.9319 24.7676 21.4547 24.8161C21.9934 24.8659 22.5951 24.8209 23.1707 24.6428C23.7474 24.4643 24.3362 24.139 24.7843 23.6006C25.2428 23.0496 25.5 22.339 25.5 21.5Z" fill="black"/>
</svg>
