<svg width="36" height="36" viewBox="0 0 36 36" fill="none" xmlns="http://www.w3.org/2000/svg">
<path fill-rule="evenodd" clip-rule="evenodd" d="M19.0526 17.3199C18.8759 16.7966 19.1569 16.2292 19.6802 16.0525C21.2402 15.5259 22.8977 15.4113 24.5001 15.7089V13.685C24.5001 9.98519 21.379 7 17.5001 7C13.8669 7 10.8236 9.66956 10.4955 13.0953C10.4429 13.6451 9.95452 14.0481 9.40475 13.9954C8.85498 13.9428 8.45198 13.4544 8.50462 12.9047C8.9324 8.43741 12.8511 5 17.5001 5C22.4641 5 26.5001 8.86021 26.5001 13.685V17C26.5001 17.6842 25.8284 18.1663 25.1802 17.9475C23.6017 17.4145 21.8985 17.4145 20.32 17.9475C19.7967 18.1241 19.2293 17.8432 19.0526 17.3199ZM16.5001 17V22.1767C17.4178 22.3045 18.3542 22.2555 19.2577 22.0298C19.7935 21.896 20.3364 22.2218 20.4703 22.7576C20.6041 23.2935 20.2783 23.8363 19.7424 23.9702C18.2703 24.3379 16.7298 24.3379 15.2577 23.9702C14.8125 23.859 14.5001 23.4589 14.5001 23V17.7522C13.186 17.4336 11.8141 17.4336 10.5001 17.7522V21.261C10.5001 24.9764 13.6122 28 17.4661 28L17.7404 27.9961C21.4905 27.8734 24.5001 24.8912 24.5001 21.261V21C24.5001 20.4477 24.9478 20 25.5001 20C26.0524 20 26.5001 20.4477 26.5001 21V21.261C26.5001 26.0888 22.4503 30 17.5001 30L17.202 29.9963C12.3781 29.8602 8.50007 26.0078 8.50007 21.261V17C8.50007 16.5696 8.7755 16.1874 9.18384 16.0513C11.3361 15.3339 13.664 15.3339 15.8163 16.0513C16.2246 16.1874 16.5001 16.5696 16.5001 17Z" fill="black"/>
</svg>
