<svg width="36" height="36" viewBox="0 0 36 36" fill="none" xmlns="http://www.w3.org/2000/svg">
<path d="M22 9C22 8.44775 22.4478 8 23 8H24C24.5522 8 25 8.44775 25 9V22C25 22.5522 24.5522 23 24 23H23C22.4478 23 22 22.5522 22 22V9Z" fill="black"/>
<path d="M14 12C14 11.4478 14.4478 11 15 11H16C16.5522 11 17 11.4478 17 12V22C17 22.5522 16.5522 23 16 23H15C14.4478 23 14 22.5522 14 22V12Z" fill="black"/>
<path d="M6 16C6 15.4478 6.44775 15 7 15H8C8.55225 15 9 15.4478 9 16V22C9 22.5522 8.55225 23 8 23H7C6.44775 23 6 22.5522 6 22V16Z" fill="black"/>
<path d="M11 18C10.4478 18 10 18.4478 10 19V22C10 22.5522 10.4478 23 11 23H12C12.5522 23 13 22.5522 13 22V19C13 18.4478 12.5522 18 12 18H11Z" fill="black"/>
<path d="M18 17C18 16.4478 18.4478 16 19 16H20C20.5522 16 21 16.4478 21 17V22C21 22.5522 20.5522 23 20 23H19C18.4478 23 18 22.5522 18 22V17Z" fill="black"/>
<path d="M27 14C26.4478 14 26 14.4478 26 15V22C26 22.5522 26.4478 23 27 23H28C28.5522 23 29 22.5522 29 22V15C29 14.4478 28.5522 14 28 14H27Z" fill="black"/>
<path d="M6 24C5.44775 24 5 24.4478 5 25C5 25.5522 5.44775 26 6 26H29C29.5522 26 30 25.5522 30 25C30 24.4478 29.5522 24 29 24H6Z" fill="black"/>
</svg>
