<svg width="36" height="36" viewBox="0 0 36 36" fill="none" xmlns="http://www.w3.org/2000/svg">
<path fill-rule="evenodd" clip-rule="evenodd" d="M7 14C7 10.6863 9.68629 8 13 8C14.6477 8 16.1387 8.66287 17.224 9.73882C17.6536 10.1647 18.3464 10.1647 18.776 9.73882C19.8613 8.66287 21.3523 8 23 8C26.3137 8 29 10.6863 29 14C29 15.7164 28.3866 17.221 27.3001 18.2857L17.9995 27.5863C17.119 26.708 16.238 25.8329 15.3578 24.9587L15.3578 24.9586C13.1307 22.7465 10.9089 20.5397 8.71424 18.3001C7.66348 17.2278 7 15.6503 7 14ZM13 6C8.58172 6 5 9.58172 5 14C5 16.1643 5.86214 18.2471 7.28576 19.6999C9.48958 21.9489 11.7283 24.1725 13.9611 26.3903L13.9612 26.3904L13.962 26.3912C15.0517 27.4736 16.1401 28.5546 17.2223 29.6365C17.6518 30.0659 18.3482 30.066 18.7778 29.6364L28.7037 19.7105C30.2078 18.2345 31 16.1992 31 14C31 9.58172 27.4183 6 23 6C21.1085 6 19.3691 6.65741 18 7.75471C16.6309 6.65741 14.8915 6 13 6ZM26.2071 17.2071C26.5976 16.8166 26.5976 16.1834 26.2071 15.7929C25.8166 15.4024 25.1834 15.4024 24.7929 15.7929L20.2929 20.2929C19.9024 20.6834 19.9024 21.3166 20.2929 21.7071C20.6834 22.0976 21.3166 22.0976 21.7071 21.7071L26.2071 17.2071Z" fill="black"/>
</svg>
