<svg width="36" height="36" viewBox="0 0 36 36" fill="none" xmlns="http://www.w3.org/2000/svg">
<path fill-rule="evenodd" clip-rule="evenodd" d="M11.7274 11.3479C11.8024 10.8601 12.2222 10.5 12.7157 10.5H23.2841C23.7776 10.5 24.1974 10.8601 24.2724 11.3479L24.8343 15H11.1655L11.7274 11.3479ZM9.98436 17C9.99557 17.0002 10.0068 17.0002 10.0179 17H25.9819C25.993 17.0002 26.0042 17.0002 26.0154 17H27C27.5523 17 28 17.4477 28 18V23C28 23.5523 27.5523 24 27 24H25.5H10.5H9C8.44772 24 8 23.5523 8 23V18C8 17.4477 8.44772 17 9 17H9.98436ZM9.14198 15L9.75062 11.0438C9.97577 9.58033 11.235 8.5 12.7157 8.5H23.2841C24.7648 8.5 26.024 9.58033 26.2492 11.0438L26.8578 15H27C28.6569 15 30 16.3431 30 18V23C30 24.6569 28.6569 26 27 26V27C27 27.8284 26.3284 28.5 25.5 28.5C24.6716 28.5 24 27.8284 24 27V26H12V27C12 27.8284 11.3284 28.5 10.5 28.5C9.67157 28.5 9 27.8284 9 27L9 26C7.34314 26 6 24.6569 6 23V18C6 16.3431 7.34315 15 9 15H9.14198ZM5 12C4.44772 12 4 12.4477 4 13C4 13.5523 4.44772 14 5 14H7C7.55228 14 8 13.5523 8 13C8 12.4477 7.55228 12 7 12H5ZM11 20C10.4477 20 10 20.4477 10 21C10 21.5523 10.4477 22 11 22H13.5C14.0523 22 14.5 21.5523 14.5 21C14.5 20.4477 14.0523 20 13.5 20H11ZM21.5 21C21.5 20.4477 21.9477 20 22.5 20H25C25.5523 20 26 20.4477 26 21C26 21.5523 25.5523 22 25 22H22.5C21.9477 22 21.5 21.5523 21.5 21ZM28 13C28 12.4477 28.4477 12 29 12H31C31.5523 12 32 12.4477 32 13C32 13.5523 31.5523 14 31 14H29C28.4477 14 28 13.5523 28 13Z" fill="black"/>
</svg>
