<svg width="36" height="36" viewBox="0 0 36 36" fill="none" xmlns="http://www.w3.org/2000/svg">
<path fill-rule="evenodd" clip-rule="evenodd" d="M30.1672 7.25312C28.6928 5.77866 26.3172 5.73117 24.785 7.14552L20.7235 10.8946L10.3069 8.17722C9.62009 7.99805 8.88976 8.19633 8.38785 8.69824L6.63244 10.4536C5.75534 11.3307 5.87992 12.7865 6.89329 13.5018L13.4535 18.1326L10.6465 20.9396L8.13649 20.581C7.5133 20.4919 6.88457 20.7015 6.43943 21.1467L4.38355 23.2025C3.87753 23.7086 3.98178 24.5554 4.59542 24.9236L9.25242 27.7178L12.0582 32.8617C12.4099 33.5064 13.2824 33.6321 13.8017 33.1128L15.8536 31.0609C16.2988 30.6157 16.5084 29.987 16.4193 29.3638L16.0608 26.8538L19.3325 23.582L23.4885 30.0049C24.1802 31.0739 25.6815 31.233 26.5819 30.3326L28.3212 28.5934C28.8024 28.1122 29.0059 27.4193 28.8613 26.7543L26.5932 16.3213L30.1672 12.7473C31.6844 11.2301 31.6844 8.7703 30.1672 7.25312ZM26.1416 8.61513C26.885 7.92889 28.0376 7.95193 28.753 8.66733C29.4891 9.40346 29.4891 10.597 28.753 11.3331L24.8316 15.2545C24.8252 15.2609 24.8189 15.2673 24.8127 15.2739C24.806 15.2802 24.7994 15.2866 24.7929 15.2931L18.2929 21.7931C18.2907 21.7954 18.2884 21.7976 18.2862 21.7999L14.3283 25.7577C14.0835 26.0026 13.9683 26.3484 14.0172 26.6911L14.4394 29.6467L13.238 30.8481L10.891 26.5452C10.7972 26.3733 10.6592 26.2295 10.4913 26.1287L6.61285 23.8017L7.85365 22.5609L10.8092 22.9831C11.1519 23.0321 11.4977 22.9168 11.7426 22.672L15.6233 18.7913C16.1057 18.3089 16.0371 17.5082 15.4798 17.1148L8.04666 11.8679L9.80207 10.1125L20.6948 12.954C21.0574 13.0486 21.4432 12.9521 21.7185 12.6979L26.1416 8.61513ZM20.7788 22.1356L25.1677 28.9184L26.9069 27.1792L24.912 18.0024L20.7788 22.1356Z" fill="black"/>
</svg>
