<svg width="36" height="36" viewBox="0 0 36 36" fill="none" xmlns="http://www.w3.org/2000/svg">
<path d="M14 7C14 6.44775 14.4478 6 15 6H16C16.5522 6 17 6.44775 17 7V17C17 17.5522 16.5522 18 16 18H15C14.4478 18 14 17.5522 14 17V7Z" fill="black"/>
<path d="M7 10C6.44775 10 6 10.4478 6 11V17C6 17.5522 6.44775 18 7 18H8C8.55225 18 9 17.5522 9 17V11C9 10.4478 8.55225 10 8 10H7Z" fill="black"/>
<path d="M28 25C28.5522 25 29 24.5522 29 24V19C29 18.4478 28.5522 18 28 18H27C26.4478 18 26 18.4478 26 19V24C26 24.5522 26.4478 25 27 25H28Z" fill="black"/>
<path d="M24 28C24.5522 28 25 27.5522 25 27V19C25 18.4478 24.5522 18 24 18H23C22.4478 18 22 18.4478 22 19V27C22 27.5522 22.4478 28 23 28H24Z" fill="black"/>
<path d="M10 14C10 13.4478 10.4478 13 11 13H12C12.5522 13 13 13.4478 13 14V17C13 17.5522 12.5522 18 12 18H11C10.4478 18 10 17.5522 10 17V14Z" fill="black"/>
<path d="M20 23C20.5522 23 21 22.5522 21 22V19C21 18.4478 20.5522 18 20 18H19C18.4478 18 18 18.4478 18 19V22C18 22.5522 18.4478 23 19 23H20Z" fill="black"/>
</svg>
