<svg width="36" height="36" viewBox="0 0 36 36" fill="none" xmlns="http://www.w3.org/2000/svg">
<path fill-rule="evenodd" clip-rule="evenodd" d="M9 9C9 7.34314 10.3431 6 12 6H22C23.6569 6 25 7.34315 25 9V11.5C25 12.0523 24.5523 12.5 24 12.5C23.4477 12.5 23 12.0523 23 11.5V9C23 8.44772 22.5523 8 22 8H12C11.4477 8 11 8.44772 11 9V28C11 28.5523 11.4477 29 12 29H22C22.5523 29 23 28.5523 23 28V25.5C23 24.9477 23.4477 24.5 24 24.5C24.5523 24.5 25 24.9477 25 25.5V28C25 29.6569 23.6569 31 22 31H12C10.3431 31 9 29.6569 9 28V9ZM23.7071 16.2929C24.1432 16.729 24.4731 17.4527 24.5564 18.2021C24.6441 18.9918 24.47 19.9442 23.7071 20.7071C23.3166 21.0976 22.6834 21.0976 22.2929 20.7071C21.9024 20.3166 21.9024 19.6834 22.2929 19.2929C22.53 19.0558 22.6059 18.7582 22.5686 18.4229C22.5269 18.0473 22.3568 17.771 22.2929 17.7071C21.9024 17.3166 21.9024 16.6834 22.2929 16.2929C22.6834 15.9024 23.3166 15.9024 23.7071 16.2929ZM26.7071 13.2929C26.3166 12.9024 25.6834 12.9024 25.2929 13.2929C24.9024 13.6834 24.9024 14.3166 25.2929 14.7071C25.9297 15.344 26.7039 16.5118 26.9255 17.8732C27.137 19.1725 26.8624 20.7234 25.2929 22.2929C24.9024 22.6834 24.9024 23.3166 25.2929 23.7071C25.6834 24.0976 26.3166 24.0976 26.7071 23.7071C28.7376 21.6766 29.213 19.4775 28.8995 17.5518C28.5961 15.6882 27.5703 14.156 26.7071 13.2929ZM20.5 10C20.5 9.44772 20.0523 9 19.5 9H14.5C13.9477 9 13.5 9.44772 13.5 10C13.5 10.5523 13.9477 11 14.5 11H19.5C20.0523 11 20.5 10.5523 20.5 10ZM17 27C17.5523 27 18 26.5523 18 26C18 25.4477 17.5523 25 17 25C16.4477 25 16 25.4477 16 26C16 26.5523 16.4477 27 17 27Z" fill="black"/>
</svg>
