<svg width="36" height="36" viewBox="0 0 36 36" fill="none" xmlns="http://www.w3.org/2000/svg">
<path fill-rule="evenodd" clip-rule="evenodd" d="M10 7C8.89543 7 8 7.89543 8 9V19.3178C8 20.1858 8.95827 20.7119 9.69056 20.2459L19.0752 14.2738C19.3518 14.4183 19.6663 14.5 20 14.5C21.1046 14.5 22 13.6046 22 12.5C22 11.3954 21.1046 10.5 20 10.5C18.8954 10.5 18 11.3954 18 12.5C18 12.5289 18.0006 12.5577 18.0018 12.5863L10 17.6783V9H26V12C26 12.5523 26.4477 13 27 13C27.5523 13 28 12.5523 28 12V9C28 7.89543 27.1046 7 26 7H10ZM28 16.2167C28 15.3664 27.0764 14.8376 26.3431 15.2681L16.9877 20.7605C16.6963 20.5947 16.3592 20.5 16 20.5C14.8954 20.5 14 21.3954 14 22.5C14 23.6046 14.8954 24.5 16 24.5C17.1046 24.5 18 23.6046 18 22.5C18 22.4951 18 22.4903 17.9999 22.4855L26 17.7887V20.0841C26 20.5177 25.9579 20.9503 25.8744 21.3759L25.821 21.6476C25.4307 23.6356 24.2046 25.3596 22.4553 26.3809L18 28.856L13.511 26.3621L13.4856 26.3498C12.8895 26.0614 12.2365 25.4924 11.6591 24.7778C11.0851 24.0674 10.6528 23.2961 10.4487 22.6838C10.274 22.1598 9.70772 21.8767 9.18377 22.0513C8.65983 22.226 8.37667 22.7923 8.55132 23.3162C8.8472 24.2039 9.41489 25.1826 10.1034 26.0347C10.7821 26.8747 11.6442 27.6735 12.5876 28.1371L17.0287 30.6044C17.6328 30.9399 18.3672 30.9399 18.9713 30.6044L23.4444 28.1193L23.453 28.1143C25.7039 26.8043 27.2817 24.5885 27.7835 22.033L27.8369 21.7612C27.9454 21.2088 28 20.6471 28 20.0841V16.2167Z" fill="black"/>
</svg>
