<svg width="36" height="36" viewBox="0 0 36 36" fill="none" xmlns="http://www.w3.org/2000/svg">
<path fill-rule="evenodd" clip-rule="evenodd" d="M10 7C9.44772 7 9 7.44772 9 8V28C9 28.5523 9.44772 29 10 29H26C26.5523 29 27 28.5523 27 28V14H21.1C20.4925 14 20 13.5075 20 12.9V7H10ZM22 12H26.5858L22 7.41421V12ZM29 28V13V12.0414C29 11.7497 28.8841 11.4699 28.6778 11.2636L22.7364 5.32218C22.5301 5.11589 22.2503 5 21.9586 5H21H10C8.34315 5 7 6.34314 7 8V28C7 29.6569 8.34315 31 10 31H26C27.6569 31 29 29.6569 29 28ZM16.5262 21.0691C16.1365 21.5153 15.9416 22.2255 15.9416 23.1999C15.9416 24.1845 16.1442 24.8973 16.5493 25.3384C16.9595 25.7794 17.5493 25.9999 18.3185 25.9999C18.7031 25.9999 19.0416 25.9512 19.3339 25.8537C19.6262 25.7512 19.8698 25.5896 20.0647 25.3691C20.2647 25.1435 20.4134 24.8537 20.5108 24.4999C20.6134 24.1409 20.6647 23.7076 20.6647 23.1999C20.6647 22.7127 20.6211 22.2948 20.5339 21.9461C20.4518 21.5922 20.3159 21.3025 20.1262 21.0768C19.9416 20.8461 19.7006 20.6768 19.4031 20.5691C19.1057 20.4563 18.7442 20.3999 18.3185 20.3999C17.5134 20.3999 16.9159 20.623 16.5262 21.0691ZM17.3647 24.0384C17.3185 23.8179 17.2954 23.5409 17.2954 23.2076C17.2954 22.8948 17.3159 22.6307 17.357 22.4153C17.398 22.1948 17.457 22.0179 17.5339 21.8845C17.6159 21.7461 17.7185 21.6461 17.8416 21.5845C17.9698 21.523 18.1185 21.4922 18.2877 21.4922C18.457 21.4922 18.6057 21.5204 18.7339 21.5768C18.8672 21.6281 18.9749 21.7204 19.057 21.8537C19.1442 21.9871 19.2083 22.164 19.2493 22.3845C19.2954 22.605 19.3185 22.8794 19.3185 23.2076C19.3185 23.5358 19.298 23.8102 19.257 24.0307C19.2159 24.2461 19.1544 24.4204 19.0724 24.5537C18.9903 24.682 18.8877 24.7743 18.7647 24.8307C18.6416 24.882 18.5006 24.9076 18.3416 24.9076C18.1775 24.9076 18.0313 24.882 17.9031 24.8307C17.7749 24.7794 17.6647 24.6896 17.5724 24.5614C17.4852 24.4332 17.4159 24.2589 17.3647 24.0384ZM11.3771 20.4922C11.2335 20.4973 11.0796 20.505 10.9155 20.5153V25.8768C11.2181 25.8973 11.4976 25.9127 11.754 25.923C12.0155 25.9332 12.313 25.9383 12.6463 25.9383C13.6207 25.9383 14.3283 25.705 14.7694 25.2383C15.2155 24.7717 15.4386 24.0486 15.4386 23.0691C15.4386 22.6486 15.395 22.2768 15.3078 21.9537C15.2258 21.6307 15.0822 21.3589 14.8771 21.1383C14.6719 20.9178 14.3976 20.7512 14.054 20.6383C13.7104 20.5204 13.2822 20.4614 12.7694 20.4614C12.5796 20.4614 12.4078 20.464 12.254 20.4691C12.1001 20.4691 11.9514 20.4717 11.8078 20.4768C11.6642 20.4768 11.5207 20.4819 11.3771 20.4922ZM12.4386 24.8383C12.3617 24.8332 12.2745 24.8255 12.1771 24.8153V21.5845C12.2848 21.5742 12.3848 21.5666 12.4771 21.5614C12.5694 21.5563 12.6745 21.5537 12.7925 21.5537C13.2796 21.5537 13.6258 21.6794 13.8309 21.9307C14.036 22.1768 14.1386 22.5794 14.1386 23.1383C14.1386 23.7435 14.0258 24.1794 13.8001 24.446C13.5745 24.7127 13.2104 24.846 12.7078 24.846C12.6053 24.846 12.5155 24.8435 12.4386 24.8383ZM25.4463 21.9307C25.2822 21.8384 25.0822 21.7512 24.8463 21.6691C24.6155 21.582 24.3181 21.5384 23.954 21.5384C23.7078 21.5384 23.4924 21.5666 23.3078 21.623C23.1283 21.6794 22.9796 21.7717 22.8617 21.8999C22.7437 22.0281 22.654 22.1973 22.5924 22.4076C22.536 22.6127 22.5078 22.8691 22.5078 23.1768C22.5078 23.4999 22.5386 23.7691 22.6001 23.9845C22.6617 24.1999 22.754 24.3743 22.8771 24.5076C23.0001 24.6358 23.1565 24.7281 23.3463 24.7845C23.536 24.8358 23.7591 24.8614 24.0155 24.8614C24.3694 24.8614 24.6694 24.8179 24.9155 24.7307C25.1617 24.6384 25.3565 24.5409 25.5001 24.4384V25.6922C25.3565 25.764 25.1514 25.8307 24.8847 25.8922C24.6181 25.9589 24.295 25.9922 23.9155 25.9922C23.4386 25.9922 23.0283 25.9384 22.6847 25.8307C22.3463 25.7178 22.0668 25.5486 21.8463 25.323C21.6309 25.0973 21.4719 24.8127 21.3694 24.4691C21.2668 24.1255 21.2155 23.7179 21.2155 23.2461C21.2155 22.7589 21.2668 22.3384 21.3694 21.9845C21.4719 21.6255 21.6309 21.3281 21.8463 21.0922C22.0668 20.8563 22.3488 20.682 22.6924 20.5691C23.036 20.4563 23.4463 20.3999 23.9232 20.3999C24.3027 20.3999 24.6181 20.4307 24.8694 20.4922C25.1206 20.5486 25.313 20.5973 25.4463 20.6384V21.9307Z" fill="black"/>
</svg>
