<svg width="36" height="36" viewBox="0 0 36 36" fill="none" xmlns="http://www.w3.org/2000/svg">
<path fill-rule="evenodd" clip-rule="evenodd" d="M7.71556 11.8799C11.0342 7.68163 15.8195 7 18.0002 7C20.1808 7 24.9659 7.68164 28.2846 11.8799C31.046 15.3732 30.7819 19.1779 30.1461 21.2549C30.1306 21.3057 30.132 21.3897 30.1833 21.4796C30.8748 22.6896 31.0448 24.0683 30.9283 25.303C30.8122 26.5323 30.404 27.7105 29.828 28.5609C29.5182 29.0181 28.8964 29.1377 28.4392 28.8279C27.9819 28.5181 27.8624 27.8964 28.1721 27.4391C28.5345 26.9043 28.8481 26.0578 28.9371 25.115C29.0256 24.1776 28.884 23.2368 28.4469 22.472C28.1472 21.9476 28.0422 21.2952 28.2337 20.6695C28.7378 19.0226 28.9563 15.9547 26.7156 13.1201C23.9363 9.60427 19.8848 9 18.0002 9C16.1155 9 12.0638 9.60428 9.28455 13.1201C7.04385 15.9547 7.26232 19.0226 7.76645 20.6695C7.95799 21.2952 7.85294 21.9476 7.55325 22.472C7.11616 23.2368 6.97453 24.1776 7.06303 25.115C7.15203 26.0578 7.46565 26.9043 7.82797 27.4391C8.13773 27.8964 8.01818 28.5181 7.56094 28.8279C7.1037 29.1377 6.48192 29.0181 6.17216 28.5609C5.5961 27.7105 5.18793 26.5323 5.07188 25.303C4.95532 24.0683 5.12536 22.6896 5.81681 21.4796C5.8682 21.3897 5.8696 21.3057 5.85404 21.2549C5.21825 19.1779 4.95413 15.3732 7.71556 11.8799ZM13.121 21.0602C12.3976 21.012 11.7063 21.2079 11.2071 21.7071C10.8166 22.0976 10.1834 22.0976 9.79288 21.7071C9.40236 21.3165 9.40237 20.6834 9.7929 20.2928C10.7937 19.2921 12.1024 18.9879 13.254 19.0646C14.3806 19.1397 15.5019 19.5876 16.2072 20.2929C16.5977 20.6834 16.5976 21.3166 16.2071 21.7071C15.8165 22.0976 15.1833 22.0976 14.7928 21.707C14.4981 21.4122 13.8694 21.1101 13.121 21.0602ZM21.2071 21.7071C21.5019 21.4123 22.1306 21.1101 22.879 21.0602C23.6024 21.012 24.2937 21.2079 24.7928 21.7071C25.1833 22.0976 25.8165 22.0977 26.2071 21.7072C26.5976 21.3167 26.5977 20.6835 26.2072 20.293C25.2063 19.292 23.8976 18.9878 22.746 19.0647C21.6194 19.1398 20.4981 19.5877 19.7929 20.2929C19.4024 20.6835 19.4024 21.3166 19.7929 21.7072C20.1834 22.0977 20.8166 22.0977 21.2071 21.7071Z" fill="black"/>
</svg>
