<svg width="36" height="36" viewBox="0 0 36 36" fill="none" xmlns="http://www.w3.org/2000/svg">
<path fill-rule="evenodd" clip-rule="evenodd" d="M11.6437 8.5374L18.9811 7.20882L18.986 10.0136L12.986 10.0241C12.4338 10.025 11.9868 10.4735 11.9878 11.0258C11.9888 11.5781 12.4372 12.025 12.9895 12.0241L25.9895 12.0014L26.0192 29.0014L10.0198 29.0293L10 10.5054C10 9.53828 10.692 8.70971 11.6437 8.5374ZM20.9793 6.12964L20.986 10.0101L26.886 9.99982C27.4935 9.99876 27.9869 10.4904 27.9879 11.0979L28.0207 29.8979C28.0218 30.5054 27.5302 30.9987 26.9227 30.9998L9.12276 31.0309C8.515 31.0319 8.02154 30.5399 8.02084 29.9321L8 10.5054C8 8.57116 9.38403 6.91402 11.2873 6.5694L19.6833 5.04916C20.3575 4.92708 20.9781 5.44446 20.9793 6.12964ZM18.929 17.4628C19.6857 16.5547 21.0985 16.6141 21.7763 17.5824C22.2924 18.3197 22.1823 19.3252 21.5189 19.9332L18.0001 23.1589L14.4812 19.9332C13.8178 19.3252 13.7077 18.3197 14.2238 17.5824C14.9016 16.6141 16.3144 16.5547 17.0711 17.4628L18.0001 18.5775L18.929 17.4628ZM18.0001 15.5971C19.6645 14.3168 22.1472 14.6247 23.4148 16.4355C24.5063 17.9948 24.2734 20.1214 22.8704 21.4075L19.2839 24.6951C18.5575 25.361 17.4426 25.361 16.7162 24.6951L13.1298 21.4075C11.7267 20.1214 11.4939 17.9948 12.5853 16.4355C13.8529 14.6247 16.3357 14.3168 18.0001 15.5971Z" fill="black"/>
</svg>
