<svg width="36" height="36" viewBox="0 0 36 36" fill="none" xmlns="http://www.w3.org/2000/svg">
<path fill-rule="evenodd" clip-rule="evenodd" d="M19 6C19 5.44772 18.5523 5 18 5C17.4477 5 17 5.44772 17 6V7.04108C10.8763 7.54629 6.05638 12.6495 6.00053 18.8906C5.99507 19.5011 6.48861 20 7.10004 20H17V29.1C17 29.5971 16.5971 30 16.1 30H15.9C15.4029 30 15 29.5971 15 29.1V29C15 28.4477 14.5523 28 14 28C13.4477 28 13 28.4477 13 29V29.1C13 30.7016 14.2984 32 15.9 32H16.1C17.7016 32 19 30.7016 19 29.1V20H28.9C29.5115 20 30.005 19.5011 29.9996 18.8906C29.9437 12.6495 25.1238 7.54624 19 7.04107V6ZM18 9C23.1854 9 27.449 12.9468 27.9507 18H18H8.0494C8.55106 12.9468 12.8147 9 18 9ZM20 11C19.4477 11 19 11.4477 19 12C19 12.5523 19.4477 13 20 13C20.2438 13 20.8069 13.1533 21.4006 13.5312C21.9839 13.9024 22.4016 14.3671 22.5513 14.8162C22.726 15.3402 23.2923 15.6233 23.8162 15.4487C24.3402 15.274 24.6233 14.7077 24.4487 14.1838C24.0984 13.1329 23.2661 12.3476 22.4744 11.8438C21.6931 11.3467 20.7562 11 20 11Z" fill="black"/>
</svg>
