<svg width="36" height="36" viewBox="0 0 36 36" fill="none" xmlns="http://www.w3.org/2000/svg">
<path d="M25.7144 10.7455C24.9294 9.9685 23.6631 9.97502 22.886 10.7601C22.551 11.0986 22.3624 11.524 22.3178 11.963C22.2436 12.6941 21.4479 13.2055 20.7222 12.8381L16.8327 10.8685C15.2833 10.0839 13.4045 10.3889 12.1828 11.6233L7.71074 16.1416C7.32223 16.5341 6.68907 16.5373 6.29654 16.1488C5.90401 15.7603 5.90075 15.1272 6.28926 14.7346L10.7613 10.2163C12.5939 8.36474 15.412 7.90733 17.7362 9.08424L20.6449 10.5571C20.8366 10.1208 21.1099 9.71152 21.4646 9.35316C23.0186 7.78304 25.5512 7.77001 27.1213 9.32405C28.6915 10.8781 28.7045 13.4107 27.1505 14.9808C26.7958 15.3392 26.3894 15.6167 25.955 15.8128L27.4577 18.7062C28.6585 21.0182 28.2301 23.8408 26.3975 25.6924L21.9255 30.2107C21.537 30.6032 20.9038 30.6065 20.5113 30.218C20.1187 29.8295 20.1155 29.1963 20.504 28.8038L24.976 24.2855C26.1978 23.0511 26.4834 21.1693 25.6828 19.628L23.6734 15.759C23.2985 15.0372 23.8017 14.2362 24.5319 14.1545C24.9705 14.1054 25.3939 13.9124 25.729 13.5739C26.506 12.7889 26.4995 11.5225 25.7144 10.7455Z" fill="black"/>
<path d="M14.0638 13.9882C14.4563 14.3767 14.4596 15.0099 14.0711 15.4024L10.5538 18.9561C10.1653 19.3486 9.5321 19.3519 9.13957 18.9634C8.74704 18.5748 8.74378 17.9417 9.13229 17.5492L12.6496 13.9955C13.0381 13.6029 13.6712 13.5997 14.0638 13.9882Z" fill="black"/>
<path d="M22.5999 23.8433C22.9884 23.4508 22.9851 22.8176 22.5926 22.4291C22.2001 22.0406 21.5669 22.0439 21.1784 22.4364L17.6611 25.9901C17.2726 26.3826 17.2759 27.0158 17.6684 27.4043C18.0609 27.7928 18.6941 27.7895 19.0826 27.397L22.5999 23.8433Z" fill="black"/>
<path d="M19.7493 19.6156C20.1419 20.0041 20.1451 20.6373 19.7566 21.0298L16.2393 24.5835C15.8508 24.976 15.2176 24.9793 14.8251 24.5908C14.4326 24.2023 14.4293 23.5691 14.8178 23.1766L18.3351 19.6229C18.7236 19.2304 19.3568 19.2271 19.7493 19.6156Z" fill="black"/>
<path d="M16.9138 18.2159C17.3023 17.8233 17.2991 17.1902 16.9066 16.8017C16.514 16.4132 15.8809 16.4164 15.4924 16.809L11.9751 20.3626C11.5866 20.7552 11.5898 21.3883 11.9823 21.7768C12.3749 22.1653 13.008 22.1621 13.3965 21.7696L16.9138 18.2159Z" fill="black"/>
</svg>
