<svg width="36" height="36" viewBox="0 0 36 36" fill="none" xmlns="http://www.w3.org/2000/svg">
<path fill-rule="evenodd" clip-rule="evenodd" d="M8 7C6.34315 7 5 8.34315 5 10V20V26C5 27.6569 6.34315 29 8 29H28C29.6569 29 31 27.6569 31 26V20V10C31 8.34315 29.6569 7 28 7H8ZM29 19V10C29 9.44771 28.5523 9 28 9H8C7.44772 9 7 9.44772 7 10V19H13.4279C13.8981 19 14.3072 19.2963 14.4633 19.7257C14.738 20.4814 15.8065 22 18 22C20.1935 22 21.262 20.4814 21.5367 19.7257C21.6928 19.2963 22.1019 19 22.5721 19H29ZM7 21H12.8518C13.5492 22.2941 15.1769 24 18 24C20.8231 24 22.4508 22.2941 23.1482 21H29V26C29 26.5523 28.5523 27 28 27H8C7.44772 27 7 26.5523 7 26V21ZM27 13H9V11H27V13ZM9 17H27V15H9V17Z" fill="black"/>
</svg>
