<svg width="36" height="36" viewBox="0 0 36 36" fill="none" xmlns="http://www.w3.org/2000/svg">
<path fill-rule="evenodd" clip-rule="evenodd" d="M18.0002 3C17.0586 3 15.2783 3.1836 13.6933 3.91158C12.0817 4.65179 10.5002 6.05697 10.5002 8.5C10.5002 10.5419 9.92252 12.3254 9.0781 14.3819C8.84433 14.9289 8.79257 15.5934 8.89908 16.1821C9.00328 16.758 9.30707 17.4908 10.0234 17.8791C10.3935 18.0798 10.8837 18.2347 11.3628 18.3573C11.8607 18.4846 12.4218 18.5953 12.9761 18.6869C14.0752 18.8683 15.2192 18.9859 15.8813 18.9988C16.5152 19.0111 17.0002 18.496 17.0002 17.9V15.5625C17.0002 15.1456 16.762 14.7502 16.3642 14.5659C16.2812 14.5274 16.2096 14.4953 16.1471 14.4671C15.9196 14.3648 15.811 14.316 15.7043 14.2138C15.639 14.1512 15.5002 13.9985 15.5002 13.5V10.5337C16.2474 10.5563 17.1788 10.4253 18.0134 9.84122C18.8411 10.4125 19.7537 10.5915 20.5002 10.6057V13.5C20.5002 13.9985 20.3614 14.1512 20.2961 14.2138C20.1894 14.316 20.0808 14.3648 19.8533 14.4671C19.7908 14.4953 19.7192 14.5274 19.6363 14.5659C19.2384 14.7502 19.0002 15.1456 19.0002 15.5625V17.9C19.0002 18.496 19.4852 19.0111 20.1191 18.9988C20.7812 18.9859 21.9251 18.8683 23.0241 18.6869C23.5783 18.5953 24.1393 18.4846 24.6372 18.3572C25.1163 18.2347 25.6064 18.0798 25.9765 17.8791C26.6928 17.4908 26.9966 16.7581 27.1009 16.1821C27.2081 15.59 27.1551 14.9212 26.9178 14.3724C26.0495 12.364 25.5 10.5403 25.5 8.5C25.5 6.057 23.9186 4.65181 22.307 3.91158C20.7221 3.1836 18.9418 3 18.0002 3ZM12.5002 8.5C12.5002 7.13053 13.316 6.28571 14.5281 5.72905C15.7667 5.16016 17.2364 5 18.0002 5C18.764 5 20.2337 5.16015 21.4722 5.72904C22.6842 6.28569 23.5 7.1305 23.5 8.5C23.5 10.9251 24.1608 13.0354 25.0821 15.1661C25.1421 15.305 25.1797 15.5669 25.1329 15.8259C25.0945 16.0376 25.0296 16.1094 25.0176 16.1226L25.0157 16.125C24.8681 16.2032 24.5774 16.3081 24.1415 16.4197C23.7169 16.5283 23.216 16.6281 22.6982 16.7136C22.0992 16.8125 21.5015 16.8885 21.0002 16.9372V16.1367C21.2177 16.0207 21.4646 15.8641 21.6797 15.658C22.1965 15.1628 22.5002 14.4583 22.5002 13.5V9.63064C22.5002 8.89654 21.8196 8.41221 21.1639 8.55273C20.6038 8.67278 19.5266 8.66098 18.806 7.89968C18.3582 7.42661 17.6048 7.44403 17.1768 7.92454C16.5303 8.65025 15.5128 8.59683 14.8577 8.44116C14.1821 8.2806 13.5002 8.78398 13.5002 9.51266V13.5C13.5002 14.4583 13.8039 15.1628 14.3208 15.658C14.5359 15.8641 14.7827 16.0207 15.0002 16.1367V16.9372C14.4989 16.8885 13.901 16.8125 13.3019 16.7136C12.784 16.6281 12.2832 16.5283 11.8584 16.4197C11.4225 16.3081 11.1318 16.2032 10.9842 16.125L10.9823 16.1226C10.9704 16.1095 10.9054 16.0377 10.8671 15.826C10.8203 15.567 10.8579 15.305 10.918 15.1661L10.9216 15.1577L10.9251 15.1492C11.7983 13.0235 12.5002 10.944 12.5002 8.5Z" fill="black"/>
<path fill-rule="evenodd" clip-rule="evenodd" d="M13.7728 20.9243C13.6028 20.6599 13.31 20.5 12.9956 20.5C10.6095 20.5 8.49111 22.0269 7.73656 24.2905L7.27285 25.6817C6.4928 28.0218 7.10186 30.6018 8.84609 32.346C9.26483 32.7648 9.83275 33 10.4249 33H25.5752C26.1674 33 26.7353 32.7648 27.154 32.346C28.8983 30.6018 29.5073 28.0218 28.7273 25.6817L28.2636 24.2905C27.509 22.0269 25.3906 20.5 23.0045 20.5C22.6901 20.5 22.3973 20.6599 22.2273 20.9243L20.5992 23.457L19.9823 21.2978C19.8473 20.8256 19.4157 20.5 18.9246 20.5H17.0754C16.5843 20.5 16.1527 20.8256 16.0178 21.2978L15.4009 23.4568L13.7728 20.9243ZM12.4366 22.5442C11.1475 22.7497 10.0563 23.6557 9.63392 24.923L9.17021 26.3141C8.62973 27.9356 9.05174 29.7232 10.2603 30.9318C10.304 30.9755 10.3632 31 10.4249 31H25.5752C25.637 31 25.6962 30.9755 25.7398 30.9318C26.9484 29.7232 27.3704 27.9356 26.8299 26.3141L26.3662 24.923C25.9438 23.6557 24.8527 22.7497 23.5636 22.5442L19.7665 28.4507C18.9399 29.7366 17.0602 29.7365 16.2336 28.4507L12.4366 22.5442ZM19.0385 25.2747C19.0749 25.4023 19.1346 25.517 19.2115 25.6155L18.0842 27.3692C18.0448 27.4304 17.9553 27.4304 17.916 27.3692L16.7886 25.6154C16.8655 25.5169 16.9251 25.4023 16.9615 25.2747L17.7543 22.5H18.2457L19.0385 25.2747Z" fill="black"/>
</svg>
