<svg width="36" height="36" viewBox="0 0 36 36" fill="none" xmlns="http://www.w3.org/2000/svg">
<path d="M23.2071 15.7071C23.5976 15.3166 23.5976 14.6834 23.2071 14.2929C22.8166 13.9024 22.1834 13.9024 21.7929 14.2929L17.5 18.5858L15.7071 16.7929C15.3166 16.4024 14.6834 16.4024 14.2929 16.7929C13.9024 17.1834 13.9024 17.8166 14.2929 18.2071L16.7222 20.6364C17.1518 21.066 17.8482 21.066 18.2778 20.6364L23.2071 15.7071Z" fill="black"/>
<path fill-rule="evenodd" clip-rule="evenodd" d="M27.7906 22.0472L27.8446 21.7768C27.948 21.2602 28 20.7347 28 20.2078V8C28 7.44772 27.5523 7 27 7H9C8.44772 7 8 7.44772 8 8V20.2078C8 20.7347 8.05204 21.2602 8.15535 21.7768L8.20943 22.0472C8.71169 24.5584 10.2764 26.7294 12.5 28L17.5211 30.7388C17.8196 30.9016 18.1804 30.9016 18.4789 30.7388L23.5 28C25.7236 26.7294 27.2883 24.5584 27.7906 22.0472ZM10 20.2078V9H26V20.2078C26 20.603 25.961 20.9971 25.8835 21.3845L25.8294 21.6549C25.4418 23.5931 24.2367 25.2694 22.5238 26.2543L18 28.7218L13.4762 26.2543C11.7633 25.2694 10.5582 23.5931 10.1706 21.6549L10.1165 21.3845C10.039 20.9971 10 20.603 10 20.2078Z" fill="black"/>
</svg>
