<svg width="36" height="36" viewBox="0 0 36 36" fill="none" xmlns="http://www.w3.org/2000/svg">
<path fill-rule="evenodd" clip-rule="evenodd" d="M12.4146 12H23.5853C24.0552 12 24.4617 12.3272 24.5622 12.7863L27.0152 24H8.98474L11.4377 12.7863C11.5382 12.3272 11.9447 12 12.4146 12ZM9.48393 12.3589C9.78521 10.9817 11.0048 10 12.4146 10H23.5853C24.9951 10 26.2147 10.9817 26.516 12.3589L29.0221 23.8153C29.2676 24.9379 28.4127 26 27.2636 26H8.73626C7.58715 26 6.73228 24.9379 6.97784 23.8153L9.48393 12.3589ZM16.9999 15.5H14.347L13.9863 17.6644C13.8955 18.2092 13.3803 18.5772 12.8355 18.4864C12.2907 18.3956 11.9227 17.8804 12.0135 17.3356L12.4996 14.4192C12.588 13.8888 13.0469 13.5 13.5846 13.5H16.9999C17.5522 13.5 17.9999 13.9477 17.9999 14.5C17.9999 15.0523 17.5522 15.5 16.9999 15.5Z" fill="black"/>
</svg>
