<svg width="36" height="36" viewBox="0 0 36 36" fill="none" xmlns="http://www.w3.org/2000/svg">
<path fill-rule="evenodd" clip-rule="evenodd" d="M6 13C6.55228 13 7 12.5523 7 12V7H12C12.5523 7 13 6.55228 13 6C13 5.44772 12.5523 5 12 5H7C5.89543 5 5 5.89543 5 7V12C5 12.5523 5.44772 13 6 13ZM12 12C10.8954 12 10 12.8954 10 14V17V22C10 23.1046 10.8954 24 12 24H24C25.1046 24 26 23.1046 26 22V17V14C26 12.8954 25.1046 12 24 12H12ZM24 16V14H12V16H24ZM12 18H24V22H12V18ZM7 24C7 23.4477 6.55228 23 6 23C5.44772 23 5 23.4477 5 24V29C5 30.1046 5.89543 31 7 31H12C12.5523 31 13 30.5523 13 30C13 29.4477 12.5523 29 12 29H7V24ZM30 23C29.4477 23 29 23.4477 29 24V29H24C23.4477 29 23 29.4477 23 30C23 30.5523 23.4477 31 24 31H29C30.1046 31 31 30.1046 31 29V24C31 23.4477 30.5523 23 30 23ZM29 12C29 12.5523 29.4477 13 30 13C30.5523 13 31 12.5523 31 12V7C31 5.89543 30.1046 5 29 5H24C23.4477 5 23 5.44772 23 6C23 6.55228 23.4477 7 24 7H29V12Z" fill="black"/>
</svg>
