<svg width="36" height="36" viewBox="0 0 36 36" fill="none" xmlns="http://www.w3.org/2000/svg">
<path fill-rule="evenodd" clip-rule="evenodd" d="M9 4C9.55228 4 10 4.44772 10 5V13.4197L11.5 14.2768V5C11.5 4.44772 11.9477 4 12.5 4C13.0523 4 13.5 4.44772 13.5 5V14.2768L15 13.4197V5C15 4.44772 15.4477 4 16 4C16.5523 4 17 4.44772 17 5V13.4197C17 14.1374 16.6154 14.8001 15.9923 15.1562L13.5 16.5803V17.5H14.4039C14.9943 17.5 15.4794 17.9661 15.503 18.556L15.916 28.8801C15.9841 30.5826 14.6223 32 12.9184 32H12.0816C10.3777 32 9.0159 30.5826 9.084 28.8801L9.49696 18.556C9.52056 17.9661 10.0057 17.5 10.5961 17.5H11.5V16.5803L9.00772 15.1562C8.38457 14.8001 8 14.1374 8 13.4197V5C8 4.44772 8.44772 4 9 4ZM25.1838 4.38099C25.9325 3.73223 27 4.32078 27 5.21284V23V23.9V29C27 30.6568 25.6568 32 24 32C22.3431 32 21 30.6568 21 29V25H20.1C19.4696 25 18.9991 24.4821 19.0001 23.8965C19.0213 11.4104 22.8819 6.37559 25.1838 4.38099ZM25 7.5125V23H21.0086C21.1589 14.3746 23.2457 9.84837 25 7.5125ZM23 25H25V29C25 29.5523 24.5523 30 24 30C23.4477 30 23 29.5523 23 29V25ZM11.0824 28.96L11.4608 19.5H13.5392L13.9176 28.96C13.9403 29.5275 13.4864 30 12.9184 30H12.0816C11.5136 30 11.0597 29.5275 11.0824 28.96Z" fill="black"/>
</svg>
