<svg width="36" height="36" viewBox="0 0 36 36" fill="none" xmlns="http://www.w3.org/2000/svg">
<path fill-rule="evenodd" clip-rule="evenodd" d="M8 9H24.525C24.7902 9 25.0446 9.10536 25.2321 9.29289L30.7071 14.7679C30.8946 14.9554 31 15.2098 31 15.475V25C31 26.6563 29.6563 28 28 28H8C6.34372 28 5 26.6563 5 25V12C5 10.3437 6.34372 9 8 9ZM29 15.89L24.11 11H8C7.44828 11 7 11.4483 7 12V25C7 25.5517 7.44828 26 8 26H28C28.5517 26 29 25.5517 29 25V15.89ZM19 13.5V15.5H10V13.5H19ZM19 19.5V17.5H10V19.5H19Z" fill="black"/>
</svg>
