<svg width="36" height="36" viewBox="0 0 36 36" fill="none" xmlns="http://www.w3.org/2000/svg">
<path d="M14 13H16V15H14V13Z" fill="black"/>
<path fill-rule="evenodd" clip-rule="evenodd" d="M14.5 3C11.4624 3 9 5.46246 9 8.5V12.9998C9 16.3135 11.6863 18.9998 15 18.9998C18.3137 18.9998 21 16.3135 21 12.9998V8.5C21 5.46246 18.5376 3 15.5 3H14.5ZM11 8.5C11 6.56702 12.567 5 14.5 5H15.5C17.433 5 19 6.56702 19 8.5V9.99829C16.4686 8.82916 13.5314 8.82916 11 9.99829V8.5ZM11 12.9998C11 15.209 12.7909 16.9998 15 16.9998C17.2091 16.9998 19 15.209 19 12.9998L16 13V12H14V13L11 12.9998Z" fill="black"/>
<path d="M6 25C6 22.817 7.7489 21.0423 9.922 21.0007C10.699 22.2162 12.3683 24 15 24C16.1727 24 17.075 23.7056 17.6973 23.3944C17.8584 23.3138 18.0004 23.2324 18.1229 23.1551C18.2357 23.084 18.3323 23.0164 18.4125 22.9562C18.4963 22.8934 18.5626 22.8384 18.6116 22.7955C19.0469 22.4147 19.134 21.7198 18.7072 21.2929C18.3199 20.9057 17.6942 20.9024 17.303 21.2829C17.2965 21.2889 17.2661 21.316 17.2125 21.3563C17.13 21.4182 16.9933 21.5103 16.8027 21.6056C16.425 21.7944 15.8273 22 15 22C13.0741 22 11.835 20.4338 11.3944 19.5528C11.225 19.214 10.8788 19 10.5 19H9.99976C6.68616 19.0001 4 21.6864 4 25V28.5002C4 29.8809 5.11926 31.0002 6.5 31.0002H20C20.5522 31.0002 21 30.5525 21 30.0002C21 29.4479 20.5522 29.0002 20 29.0002H12V27C12 26.9807 11.9994 26.9615 11.9983 26.9423C11.9905 26.8069 11.9552 26.6744 11.8944 26.5527L10.3944 23.5527C10.1475 23.0588 9.54675 22.8586 9.05273 23.1055C8.55884 23.3525 8.35864 23.9532 8.60559 24.4472L10 27.236V29.0002H6.5C6.22388 29.0002 6 28.7764 6 28.5002V25Z" fill="black"/>
<path d="M24.0246 20.7216C24.1254 21.1673 24.5238 21.5001 25 21.5001L28 21.5001C28.4762 21.5 28.8746 21.1673 28.9754 20.7216C28.9915 20.6503 29 20.5762 29 20.5001V18.039C29 17.62 29.465 17.4123 29.726 17.7401C29.8024 17.836 29.8769 17.9358 29.9491 18.039C30.1792 18.3682 30.3854 18.7314 30.553 19.1086C30.7549 19.5634 30.9007 20.0388 30.9643 20.5001C30.9756 20.5816 30.9843 20.6628 30.9903 20.7433C30.9967 20.8297 31 20.9153 31 21C31 22.6978 30.1394 24.0874 28.7793 24.8547C28.6117 24.9493 28.5 25.1226 28.5 25.315V31C28.5 31.5523 28.9477 32 29.5 32C30.0523 32 30.5 31.5523 30.5 31V26.1122C32.0503 24.9366 33 23.1105 33 21C33 19.3254 32.2041 17.6413 31.2905 16.4941C30.5936 15.6191 29.4488 15.3579 28.4822 15.7691C27.5733 16.1557 27 17.0517 27 18.039V19.5001L26 19.5001V18.039C26 17.0517 25.4267 16.1557 24.5178 15.7691C23.5512 15.3579 22.4064 15.6191 21.7095 16.4941C20.7959 17.6413 20 19.3254 20 21C20 23.1105 20.9497 24.9366 22.5 26.1122V31C22.5 31.5523 22.9477 32 23.5 32C24.0523 32 24.5 31.5523 24.5 31V25.315C24.5 25.1226 24.3883 24.9493 24.2207 24.8547C22.8606 24.0874 22 22.6978 22 21C22 20.9153 22.0033 20.8297 22.0097 20.7433C22.0157 20.6628 22.0244 20.5817 22.0356 20.5001C22.0993 20.0388 22.245 19.5635 22.447 19.1086C22.6146 18.7314 22.8208 18.3682 23.0509 18.039C23.1231 17.9358 23.1976 17.836 23.274 17.7401C23.535 17.4123 24 17.62 24 18.039V20.5001C24 20.5762 24.0085 20.6504 24.0246 20.7216Z" fill="black"/>
</svg>
