<svg width="36" height="36" viewBox="0 0 36 36" fill="none" xmlns="http://www.w3.org/2000/svg">
<path fill-rule="evenodd" clip-rule="evenodd" d="M14.7574 8.15296C14.2301 6.04346 15.8256 4 18 4C20.1744 4 21.7699 6.04346 21.2425 8.15296L20.6595 10.4851C20.4369 11.3754 19.6369 12 18.7192 12H17.2808C16.363 12 15.5631 11.3754 15.3405 10.4851L14.7574 8.15296ZM18 6C17.1267 6 16.4859 6.82068 16.6977 7.66789L17.2808 10L18.7192 10L19.3022 7.66789C19.514 6.82068 18.8733 6 18 6ZM16.6466 15.5C16.524 15.5 16.4075 15.5529 16.3268 15.6451L15.8989 16.1342C14.0487 18.2487 11.6655 19.8286 8.99748 20.7094L8.57432 20.8491C8.23154 20.9623 8 21.2826 8 21.6435V21.7532C8 22.0553 8.19704 22.3221 8.4858 22.4109C12.1389 23.5349 15.3079 25.8546 17.4835 28.9972L17.8532 29.5312C17.9242 29.6337 18.0758 29.6337 18.1468 29.5312L18.5165 28.9972C20.6921 25.8546 23.8611 23.5349 27.5142 22.4109C27.803 22.3221 28 22.0553 28 21.7532V21.6435C28 21.2826 27.7685 20.9623 27.4257 20.8491L27.0025 20.7094C24.3345 19.8286 21.9513 18.2487 20.1011 16.1342L19.6732 15.6451C19.5925 15.5529 19.476 15.5 19.3534 15.5H16.6466ZM14.8217 14.3281C15.2821 13.8018 15.9473 13.5 16.6466 13.5H19.3534C20.0527 13.5 20.7179 13.8018 21.1783 14.3281L21.6063 14.8172C23.2211 16.6626 25.301 18.0415 27.6295 18.8102L28.0527 18.95C29.2149 19.3337 30 20.4196 30 21.6435V21.7532C30 22.9333 29.2303 23.9754 28.1024 24.3225C24.8781 25.3145 22.0811 27.362 20.1609 30.1356L19.7912 30.6696C18.9249 31.9209 17.0751 31.9209 16.2088 30.6696L15.8391 30.1356C13.9189 27.3619 11.1219 25.3145 7.89762 24.3225C6.76969 23.9754 6 22.9333 6 21.7532V21.6435C6 20.4196 6.78506 19.3337 7.94732 18.95L8.37048 18.8102C10.699 18.0415 12.7789 16.6626 14.3937 14.8172L14.8217 14.3281ZM18.5 21C17.9477 21 17.5 21.4477 17.5 22C17.5 22.5523 17.9477 23 18.5 23H22.5C23.0523 23 23.5 22.5523 23.5 22C23.5 21.4477 23.0523 21 22.5 21H18.5Z" fill="black"/>
</svg>
