<svg width="36" height="36" viewBox="0 0 36 36" fill="none" xmlns="http://www.w3.org/2000/svg">
<path fill-rule="evenodd" clip-rule="evenodd" d="M7 8C7 6.34315 8.34315 5 10 5H26C27.6569 5 29 6.34315 29 8V28C29 29.6569 27.6569 31 26 31H10C8.34315 31 7 29.6569 7 28V8ZM10 7C9.44771 7 9 7.44772 9 8V28C9 28.5523 9.44772 29 10 29H26C26.5523 29 27 28.5523 27 28V8C27 7.44772 26.5523 7 26 7H10ZM12 18H24V16H12V18ZM24 13H12V11H24V13ZM16 23H12V21H16V23ZM22 23C22 23.5523 21.5523 24 21 24C20.4477 24 20 23.5523 20 23C20 22.4477 20.4477 22 21 22C21.5523 22 22 22.4477 22 23ZM24 23C24 24.6569 22.6569 26 21 26C19.3431 26 18 24.6569 18 23C18 21.3431 19.3431 20 21 20C22.6569 20 24 21.3431 24 23Z" fill="black"/>
</svg>
