<svg width="36" height="36" viewBox="0 0 36 36" fill="none" xmlns="http://www.w3.org/2000/svg">
<path fill-rule="evenodd" clip-rule="evenodd" d="M21.4614 10.1077C21.2419 9.58074 21.629 9 22.1999 9H25.7999C26.3707 9 26.7579 9.58074 26.5383 10.1077L25.3332 13H22.6665L21.4614 10.1077ZM21 14.2003L19.6153 10.8769C18.8468 9.0326 20.2019 7 22.1999 7H25.7999C27.7979 7 29.153 9.0326 28.3845 10.8769L27 14.1997V27C27 28.6569 25.6569 30 24 30C22.3431 30 21 28.6569 21 27V14.2003ZM14.4081 7.17797C15.1395 6.81228 16 7.34412 16 8.16184V14.1779C16.301 14.3742 16.5 14.7138 16.5 15.1V23H16.9C17.5075 23 18 23.4925 18 24.1V28.9C18 29.5075 17.5075 30 16.9 30H9.1C8.49249 30 8 29.5075 8 28.9V24.1C8 23.4925 8.49249 23 9.1 23H9.5V15.1C9.5 14.7138 9.69898 14.3742 10 14.1779V10.0618C10 9.6452 10.2354 9.26431 10.6081 9.07797L14.4081 7.17797ZM10.5 25H10V28H16V25H15.5H10.5ZM14.5 23H11.5V16H14.5V23ZM14 9.61807V14H12V10.6181L14 9.61807ZM23 15V27C23 27.5523 23.4477 28 24 28C24.5523 28 25 27.5523 25 27V15H23Z" fill="black"/>
</svg>
