<svg width="36" height="36" viewBox="0 0 36 36" fill="none" xmlns="http://www.w3.org/2000/svg">
<path fill-rule="evenodd" clip-rule="evenodd" d="M26 8C24.8954 8 24 8.89543 24 10C24 11.1046 24.8954 12 26 12C27.1046 12 28 11.1046 28 10C28 8.89543 27.1046 8 26 8ZM22.126 9C22.5701 7.27477 24.1362 6 26 6C28.2091 6 30 7.79086 30 10C30 12.2091 28.2091 14 26 14C24.1362 14 22.5701 12.7252 22.126 11H18V25H22.126C22.5701 23.2748 24.1362 22 26 22C28.2091 22 30 23.7909 30 26C30 28.2091 28.2091 30 26 30C24.1362 30 22.5701 28.7252 22.126 27H17.1C16.4925 27 16 26.5075 16 25.9V19H11.874C11.4299 20.7252 9.86384 22 8 22C5.79086 22 4 20.2091 4 18C4 15.7909 5.79086 14 8 14C9.86384 14 11.4299 15.2748 11.874 17H16V10.1C16 9.49249 16.4925 9 17.1 9H22.126ZM8 16C6.89543 16 6 16.8954 6 18C6 19.1046 6.89543 20 8 20C9.10457 20 10 19.1046 10 18C10 16.8954 9.10457 16 8 16ZM24 26C24 24.8954 24.8954 24 26 24C27.1046 24 28 24.8954 28 26C28 27.1046 27.1046 28 26 28C24.8954 28 24 27.1046 24 26Z" fill="black"/>
</svg>
