<svg width="36" height="36" viewBox="0 0 36 36" fill="none" xmlns="http://www.w3.org/2000/svg">
<path d="M13 25.5C13 26.3284 12.3284 27 11.5 27C10.6716 27 10 26.3284 10 25.5C10 24.6716 10.6716 24 11.5 24C12.3284 24 13 24.6716 13 25.5Z" fill="black"/>
<path fill-rule="evenodd" clip-rule="evenodd" d="M6 25.5C6 28.5376 8.46243 31 11.5 31C14.5376 31 17 28.5376 17 25.5L17 15L28.0001 15V29H17.7678C17.3665 29.7699 16.8156 30.4495 16.1536 31H28.5001C29.3285 31 30.0001 30.3284 30.0001 29.5V14.5C30.0001 13.6716 29.3285 13 28.5001 13H17V10.5C17 7.46243 14.5376 5 11.5 5C8.46243 5 6 7.46243 6 10.5V25.5ZM15 21.2572L15 10.5C15 8.567 13.433 7 11.5 7C9.567 7 8 8.567 8 10.5L8 21.2572C8.95094 20.4718 10.1704 20 11.5 20C12.8296 20 14.0491 20.4718 15 21.2572ZM11.1421 28.9819C9.37725 28.8027 8 27.3122 8 25.5C8 23.567 9.567 22 11.5 22C13.433 22 15 23.567 15 25.5C15 27.433 13.433 29 11.5 29C11.3792 29 11.2598 28.9939 11.1421 28.9819Z" fill="black"/>
</svg>
