<svg width="36" height="36" viewBox="0 0 36 36" fill="none" xmlns="http://www.w3.org/2000/svg">
<path fill-rule="evenodd" clip-rule="evenodd" d="M4.98779 11.1439C4.98673 10.5364 5.47835 10.0431 6.08587 10.042L29.8858 10.0005C30.4933 9.99943 30.9867 10.4911 30.9878 11.0986L31.0118 24.8985C31.0129 25.5061 30.5213 25.9994 29.9138 26.0005L25.158 26.0088C25.1065 26.017 25.0537 26.0212 24.9999 26.0212C24.9472 26.0212 24.8956 26.0171 24.8451 26.0093L6.1138 26.042C5.50628 26.0431 5.01294 25.5514 5.01188 24.9439L4.98779 11.1439ZM29.0103 24.002L25.9999 24.0073V23.0212C25.9999 22.4689 25.5521 22.0212 24.9999 22.0212C24.4476 22.0212 23.9999 22.4689 23.9999 23.0212V24.0108L7.01031 24.0404L6.98936 12.0405L23.9999 12.0108V13.0212C23.9999 13.5735 24.4476 14.0212 24.9999 14.0212C25.5521 14.0212 25.9999 13.5735 25.9999 13.0212V12.0073L28.9893 12.0021L29.0103 24.002ZM25.9999 17.0212C25.9999 16.4689 25.5521 16.0212 24.9999 16.0212C24.4476 16.0212 23.9999 16.4689 23.9999 17.0212V19.0212C23.9999 19.5735 24.4476 20.0212 24.9999 20.0212C25.5521 20.0212 25.9999 19.5735 25.9999 19.0212V17.0212ZM8.99985 17.0212H16.9999V15.0212H8.99985V17.0212ZM8.99985 21.0212H14.9999V19.0212H8.99985V21.0212Z" fill="black"/>
</svg>
