<svg width="36" height="36" viewBox="0 0 36 36" fill="none" xmlns="http://www.w3.org/2000/svg">
<path fill-rule="evenodd" clip-rule="evenodd" d="M17.0053 5.5001L17.2772 5.30614L17.3871 5.2097C17.7794 4.90468 18.3466 4.93241 18.7071 5.29289L18.7228 5.30614L18.7946 5.35927L21.3044 7.10583L22.36 7.86178L22.9031 8.26195L23.4063 8.64385C23.6449 8.82836 23.8617 9.00181 24.0464 9.15788C27.8079 12.3375 30 15.9959 30 20.515V28C30 28.5523 29.5523 29 29 29H7C6.44772 29 6 28.5523 6 28V20.515C6 20.2494 6.00757 19.9867 6.02259 19.727C6.00779 19.6586 6 19.5875 6 19.5146C6 19.3859 6.02434 19.2628 6.06866 19.1498C6.46671 15.2497 8.57829 12.011 11.9536 9.15788C12.1383 9.00181 12.3551 8.82836 12.5937 8.64385L13.0969 8.26195C13.1846 8.19647 13.274 8.13022 13.3647 8.06345L13.9208 7.65835L14.6956 7.10583L17.0053 5.5001ZM8 20.515L25 20.5146L25.1166 20.5079C25.614 20.4502 26 20.0275 26 19.5146C26 18.9624 25.5523 18.5146 25 18.5146H8.17979C8.72489 15.5552 10.4922 13.012 13.2447 10.6853C13.5028 10.4672 13.8461 10.201 14.2356 9.91049L14.8495 9.45956L15.8356 8.75404L18 7.233L20.1644 8.75404L21.1505 9.45956L21.7644 9.91049C22.1539 10.201 22.4972 10.4672 22.7553 10.6853L23.0654 10.952C26.2252 13.718 28 16.7963 28 20.515V27H8V20.515ZM13 24C13 23.4477 12.5523 23 12 23H11L10.8834 23.0067C10.386 23.0645 10 23.4872 10 24C10 24.5523 10.4477 25 11 25H12L12.1166 24.9933C12.614 24.9355 13 24.5128 13 24ZM18.5 23C19.0523 23 19.5 23.4477 19.5 24C19.5 24.5128 19.114 24.9355 18.6166 24.9933L18.5 25H17.5C16.9477 25 16.5 24.5523 16.5 24C16.5 23.4872 16.886 23.0645 17.3834 23.0067L17.5 23H18.5ZM26 24C26 23.4477 25.5523 23 25 23H24L23.8834 23.0067C23.386 23.0645 23 23.4872 23 24C23 24.5523 23.4477 25 24 25H25L25.1166 24.9933C25.614 24.9355 26 24.5128 26 24Z" fill="black"/>
</svg>
