<svg width="36" height="36" viewBox="0 0 36 36" fill="none" xmlns="http://www.w3.org/2000/svg">
<path fill-rule="evenodd" clip-rule="evenodd" d="M16.1887 6.92395C15.2858 6.32162 14.2237 6 13.138 6H10C9.44772 6 9 6.44772 9 7V8.5V21V28C9 28.5523 9.44772 29 10 29C10.5523 29 11 28.5523 11 28V22H13.138C13.8288 22 14.5046 22.2047 15.079 22.5879L17.3113 24.076C18.2142 24.6784 19.2763 25 20.362 25H28C28.5523 25 29 24.5523 29 24V10C29 9.44772 28.5523 9 28 9H20.362C19.6712 9 18.9954 8.79534 18.421 8.41212L16.1887 6.92395ZM27 11H20.362C19.2763 11 18.2142 10.6784 17.3113 10.0761L15.079 8.58788C14.5046 8.20466 13.8288 8 13.138 8H11V20H13.138C14.2237 20 15.2858 20.3216 16.1887 20.9239L18.421 22.4121C18.9954 22.7953 19.6712 23 20.362 23H27V11Z" fill="black"/>
</svg>
