<svg width="36" height="36" viewBox="0 0 36 36" fill="none" xmlns="http://www.w3.org/2000/svg">
<path d="M15 13C14.4477 13 14 13.4477 14 14V17C14 17.5523 14.4477 18 15 18H23C23.5523 18 24 17.5523 24 17V14C24 13.4477 23.5523 13 23 13H15Z" fill="black"/>
<path d="M15 22C15 21.4477 15.4477 21 16 21C16.5523 21 17 21.4477 17 22C17 22.5523 16.5523 23 16 23C15.4477 23 15 22.5523 15 22Z" fill="black"/>
<path d="M16 24C15.4477 24 15 24.4477 15 25C15 25.5523 15.4477 26 16 26C16.5523 26 17 25.5523 17 25C17 24.4477 16.5523 24 16 24Z" fill="black"/>
<path d="M19 24C18.4477 24 18 24.4477 18 25C18 25.5523 18.4477 26 19 26C19.5523 26 20 25.5523 20 25C20 24.4477 19.5523 24 19 24Z" fill="black"/>
<path d="M21 25C21 24.4477 21.4477 24 22 24C22.5523 24 23 24.4477 23 25C23 25.5523 22.5523 26 22 26C21.4477 26 21 25.5523 21 25Z" fill="black"/>
<path d="M16 27C15.4477 27 15 27.4477 15 28C15 28.5523 15.4477 29 16 29C16.5523 29 17 28.5523 17 28C17 27.4477 16.5523 27 16 27Z" fill="black"/>
<path d="M18 28C18 27.4477 18.4477 27 19 27C19.5523 27 20 27.4477 20 28C20 28.5523 19.5523 29 19 29C18.4477 29 18 28.5523 18 28Z" fill="black"/>
<path d="M22 27C21.4477 27 21 27.4477 21 28C21 28.5523 21.4477 29 22 29C22.5523 29 23 28.5523 23 28C23 27.4477 22.5523 27 22 27Z" fill="black"/>
<path d="M19 21C18.4477 21 18 21.4477 18 22C18 22.5523 18.4477 23 19 23C19.5523 23 20 22.5523 20 22C20 21.4477 19.5523 21 19 21Z" fill="black"/>
<path d="M21 22C21 21.4477 21.4477 21 22 21C22.5523 21 23 21.4477 23 22C23 22.5523 22.5523 23 22 23C21.4477 23 21 22.5523 21 22Z" fill="black"/>
<path fill-rule="evenodd" clip-rule="evenodd" d="M14 4C14 3.44772 14.4477 3 15 3H23C23.5523 3 24 3.44772 24 4V5C26.2091 5 28 6.79086 28 9V14C28 14.0754 27.9979 14.1506 27.9937 14.2253C27.9402 23.2076 27.5519 26.5075 26.7033 29.1365C26.3165 30.3346 25.7465 31.3648 24.8507 32.0733C23.9172 32.8117 22.886 33.0003 22 33.0003H16C15.114 33.0003 14.0828 32.8117 13.1493 32.0733C12.2535 31.3648 11.6835 30.3346 11.2967 29.1365C10.4481 26.5075 10.0598 23.2076 10.0063 14.2253C10.0021 14.1506 10 14.0754 10 14V9C10 6.79086 11.7909 5 14 5V4ZM22 9H16V5H22V9ZM14 7C12.8954 7 12 7.89543 12 9V14C12 14.0522 12.002 14.1038 12.0059 14.155C12.0581 23.1995 12.4562 26.2178 13.2 28.5221C13.4274 29.2267 13.6953 29.7435 14 30.1169C14.5398 30.7786 15.1951 30.9905 15.946 31C15.958 31.0002 15.97 31.0001 15.982 31L16 31L22 31.0003C22.009 31.0003 22.018 31.0003 22.027 31.0003C22.036 31.0002 22.045 31.0001 22.054 31C22.8049 30.9905 23.4602 30.7786 24 30.1169C24.3047 29.7435 24.5726 29.2267 24.8 28.5221C25.5438 26.2178 25.9418 23.1995 25.9941 14.155C25.998 14.1038 26 14.0522 26 14V9C26 7.89543 25.1046 7 24 7V10C24 10.5523 23.5523 11 23 11H15C14.4477 11 14 10.5523 14 10V7Z" fill="black"/>
</svg>
