<svg width="36" height="36" viewBox="0 0 36 36" fill="none" xmlns="http://www.w3.org/2000/svg">
<path d="M17.0121 6C17.0121 5.44772 17.4544 5 18 5C18.5456 5 18.9879 5.44772 18.9879 6V28C18.9879 28.5523 18.5456 29 18 29C17.4544 29 17.0121 28.5523 17.0121 28V6Z" fill="black"/>
<path fill-rule="evenodd" clip-rule="evenodd" d="M6.55448 15.4142C6.92501 15.7893 7.42756 16 7.95157 16H13.0605C14.1517 16 15.0363 15.1046 15.0363 14V10C15.0363 8.89543 14.1517 8 13.0605 8H7.95157C7.42756 8 6.92501 8.21071 6.55448 8.58579L4.5787 10.5858C3.8071 11.3668 3.8071 12.6332 4.57869 13.4142L6.55448 15.4142ZM13.0605 10H7.95157L5.97579 12L7.95157 14H13.0605V10Z" fill="black"/>
<path fill-rule="evenodd" clip-rule="evenodd" d="M28.0484 12C28.5724 12 29.075 12.2107 29.4455 12.5858L31.4213 14.5858C32.1929 15.3668 32.1929 16.6332 31.4213 17.4142L29.4455 19.4142C29.075 19.7893 28.5724 20 28.0484 20H22.9395C21.8483 20 20.9637 19.1046 20.9637 18V14C20.9637 12.8954 21.8483 12 22.9395 12H28.0484ZM28.0484 18H22.9395V14H28.0484L30.0242 16L28.0484 18Z" fill="black"/>
</svg>
