<svg width="36" height="36" viewBox="0 0 36 36" fill="none" xmlns="http://www.w3.org/2000/svg">
<path fill-rule="evenodd" clip-rule="evenodd" d="M19.391 6.78372L18.4243 7.33797C17.3012 7.98194 16.7522 9.24204 16.959 10.4479C15.8578 10.8889 15.0764 11.9646 15.0732 13.2269L15.0706 14.3143C15.0675 15.5681 15.8335 16.6425 16.9221 17.0941C16.7848 18.0944 17.1618 19.1214 17.9541 19.7917L15.7172 23.4266C15.0792 21.7173 13.4317 20.5001 11.5 20.5001C10.5749 20.5001 9.71505 20.7793 9 21.2579V11.0001C9 10.4479 8.55228 10.0001 8 10.0001C7.44772 10.0001 7 10.4479 7 11.0001V25.0002C7 27.4854 9.01472 29.5002 11.5 29.5002C12.6351 29.5002 13.6721 29.0799 14.4637 28.3864C14.5513 28.3406 14.6335 28.2809 14.7071 28.2073C15.4266 27.4877 16.0595 26.6865 16.5928 25.8198L19.6719 20.8163C20.6869 21.2446 21.8369 21.0717 22.6766 20.4196C23.6128 21.2072 24.9777 21.3699 26.1008 20.726L27.0674 20.1717C28.1904 19.5278 28.7395 18.2678 28.5328 17.062C29.6404 16.624 30.4273 15.5449 30.4304 14.2784L30.433 13.1908C30.4361 11.9359 29.6689 10.861 28.5792 10.4101C28.7405 9.24189 28.2004 8.03674 27.1158 7.4055L26.1759 6.85843C25.0813 6.22133 23.7525 6.35531 22.815 7.08993C21.8787 6.30244 20.514 6.13979 19.391 6.78372ZM19.4192 9.07299C19.0003 9.31315 18.821 9.81038 18.9661 10.2518L18.9676 10.2563C18.9882 10.3183 19.0153 10.3791 19.0491 10.4379L19.5752 11.3554C19.8072 11.7601 19.5089 12.2632 19.0424 12.2537L18.0936 12.2345C18.0762 12.2341 18.0588 12.2342 18.0416 12.2347C17.9576 12.2373 17.8762 12.2503 17.7985 12.2724L17.7959 12.2732C17.3801 12.393 17.0744 12.7759 17.0732 13.2318L17.0706 14.3193C17.0695 14.7561 17.3485 15.1276 17.7377 15.265L17.7398 15.2657C17.8174 15.2929 17.8994 15.3108 17.9844 15.3181C18.0158 15.3207 18.0475 15.322 18.0796 15.3217L18.9756 15.3136C19.4439 15.3093 19.7363 15.8193 19.4961 16.2213L19.0365 16.9905C19.02 17.018 19.005 17.0461 18.9915 17.0745C18.9548 17.1515 18.9288 17.2313 18.9131 17.312L18.9127 17.3142C18.8346 17.7195 19.0143 18.1479 19.3919 18.3677L20.3317 18.9147C20.7258 19.144 21.2106 19.0736 21.5241 18.7753L21.5261 18.7734C21.5844 18.7176 21.6367 18.6538 21.6814 18.5826C21.6906 18.568 21.6994 18.5531 21.7079 18.5379L22.1706 17.7093C22.398 17.302 22.9829 17.2986 23.2149 17.7033L23.741 18.6208C23.7748 18.6797 23.8136 18.7338 23.8566 18.7829L23.8597 18.7865C24.1674 19.1347 24.6871 19.2311 25.106 18.9909L26.0726 18.4367C26.4923 18.196 26.6715 17.6972 26.5248 17.2551L26.5233 17.2508C26.5028 17.1897 26.476 17.1298 26.4427 17.0717L25.9152 16.1518C25.6834 15.7476 25.9807 15.245 26.4465 15.2534L27.4124 15.2708C27.4255 15.271 27.4386 15.271 27.4517 15.2708C27.5348 15.269 27.6155 15.2572 27.6925 15.2363L27.6953 15.2355C28.1175 15.1198 28.4292 14.7338 28.4304 14.2734L28.433 13.1859C28.4341 12.7471 28.1526 12.3743 27.7609 12.2384L27.7584 12.2375C27.6767 12.2094 27.5903 12.1916 27.5007 12.1857C27.4747 12.1839 27.4483 12.1832 27.4218 12.1835L26.5218 12.1936C26.0523 12.1989 25.7589 11.6873 26.0006 11.2848L26.464 10.5132C26.4777 10.4904 26.4904 10.4673 26.502 10.4439C26.5421 10.3636 26.5704 10.28 26.5874 10.1954L26.588 10.1928C26.6686 9.78604 26.489 9.35477 26.1098 9.13404L25.1698 8.58697C24.772 8.35541 24.2814 8.42943 23.9682 8.73538L23.9662 8.73736C23.9092 8.79329 23.8582 8.85692 23.8147 8.92781C23.8079 8.93893 23.8013 8.95023 23.7948 8.96171L23.3219 9.80408C23.0939 10.2103 22.51 10.213 22.2782 9.80882L21.7507 8.88883C21.7175 8.83081 21.6792 8.77737 21.6369 8.72877L21.6339 8.72532C21.3265 8.3754 20.8055 8.27808 20.3858 8.51874L19.4192 9.07299ZM11.5 27.5002C10.1193 27.5002 9 26.3809 9 25.0002C9 23.6194 10.1193 22.5002 11.5 22.5002C12.8807 22.5002 14 23.6194 14 25.0002C14 26.3809 12.8807 27.5002 11.5 27.5002Z" fill="black"/>
</svg>
