<svg width="36" height="36" viewBox="0 0 36 36" fill="none" xmlns="http://www.w3.org/2000/svg">
<path fill-rule="evenodd" clip-rule="evenodd" d="M26.0002 12C26.0001 10.8954 25.1047 9.99998 24.0001 10L18.2425 10.0001C17.712 10.0001 17.2034 10.2108 16.8283 10.5859L7.41408 20.0001L16.0003 28.5856L25.4145 19.1714C25.7896 18.7963 26.0003 18.2876 26.0003 17.7571L26.0002 12ZM24.0001 8C26.2092 7.99995 28.0001 9.79079 28.0002 11.9999L28.0003 17.7571C28.0003 18.818 27.5788 19.8354 26.8287 20.5856L16.7781 30.6362C16.3485 31.0657 15.6521 31.0657 15.2225 30.6362L5.36347 20.778C4.93386 20.3484 4.93386 19.6519 5.36344 19.2223L15.4141 9.17169C16.1642 8.42157 17.1816 8.00014 18.2424 8.00012L24.0001 8ZM16.2929 24.2073L11.7929 19.7073L13.2071 18.293L17.7071 22.793L16.2929 24.2073ZM22.5 15.0001C23.3284 15.0001 24 14.3286 24 13.5001C24 12.6717 23.3284 12.0001 22.5 12.0001C21.6716 12.0001 21 12.6717 21 13.5001C21 14.3286 21.6716 15.0001 22.5 15.0001Z" fill="black"/>
</svg>
