<svg width="36" height="36" viewBox="0 0 36 36" fill="none" xmlns="http://www.w3.org/2000/svg">
<path fill-rule="evenodd" clip-rule="evenodd" d="M14.613 8.75764L18.148 12.2935L21.6841 8.75738C23.9665 6.47492 27.6319 6.4164 29.9853 8.58181L30.1683 8.75738L30.3439 8.94047C32.5103 11.2948 32.4517 14.9602 30.1683 17.2436L25.5727 21.8391C25.3775 22.0344 25.0609 22.0344 24.8656 21.8391L18.1482 15.1217L11.4304 21.8395C11.2351 22.0347 10.9185 22.0347 10.7233 21.8394L6.12796 17.243C3.78423 14.9005 3.78423 11.1012 6.1276 8.75782C8.47014 6.41409 12.2694 6.41409 14.613 8.75764ZM7.542 10.1719C9.05159 8.66149 11.4686 8.61115 13.0394 10.0208L13.1987 10.1718L16.7338 13.7077L11.077 19.3645L7.54208 15.8287C5.97955 14.267 5.97955 11.7343 7.542 10.1719ZM28.7541 15.8294L25.2192 19.3643L19.5624 13.7075L23.0983 10.1716C24.6598 8.61012 27.1926 8.61012 28.7541 10.1716C30.3166 11.7341 30.3166 14.2669 28.7541 15.8294Z" fill="black"/>
<path d="M19.1482 22.0005C19.1482 22.5525 18.7002 23.0005 18.1482 23.0005C17.5962 23.0005 17.1482 22.5525 17.1482 22.0005C17.1482 21.4485 17.5962 21.0005 18.1482 21.0005C18.7002 21.0005 19.1482 21.4485 19.1482 22.0005Z" fill="black"/>
<path d="M19.1482 28.0005C19.1482 28.5525 18.7002 29.0005 18.1482 29.0005C17.5962 29.0005 17.1482 28.5525 17.1482 28.0005C17.1482 27.4485 17.5962 27.0005 18.1482 27.0005C18.7002 27.0005 19.1482 27.4485 19.1482 28.0005Z" fill="black"/>
<path d="M15.6482 25.0005C15.6482 25.5525 15.2002 26.0005 14.6482 26.0005C14.0962 26.0005 13.6482 25.5525 13.6482 25.0005C13.6482 24.4485 14.0962 24.0005 14.6482 24.0005C15.2002 24.0005 15.6482 24.4485 15.6482 25.0005Z" fill="black"/>
<path d="M22.6482 25.0005C22.6482 25.5525 22.2002 26.0005 21.6482 26.0005C21.0962 26.0005 20.6482 25.5525 20.6482 25.0005C20.6482 24.4485 21.0962 24.0005 21.6482 24.0005C22.2002 24.0005 22.6482 24.4485 22.6482 25.0005Z" fill="black"/>
</svg>
