<svg width="36" height="36" viewBox="0 0 36 36" fill="none" xmlns="http://www.w3.org/2000/svg">
<path fill-rule="evenodd" clip-rule="evenodd" d="M10 7C9.44772 7 9 7.44772 9 8V28C9 28.5523 9.44772 29 10 29H26C26.5523 29 27 28.5523 27 28V14H21.1C20.4925 14 20 13.5075 20 12.9V7H10ZM22 12H26.5858L22 7.41421V12ZM29 28V13V12.0414C29 11.7497 28.8841 11.4699 28.6778 11.2636L22.7364 5.32218C22.5301 5.11589 22.2503 5 21.9586 5H21H10C8.34315 5 7 6.34314 7 8V28C7 29.6569 8.34315 31 10 31H26C27.6569 31 29 29.6569 29 28ZM22.6644 21.7474C23.0771 21.3805 23.1143 20.7484 22.7474 20.3356C22.3805 19.9229 21.7484 19.8857 21.3356 20.2526L17.5404 23.6262L15.7717 21.8575C15.3694 21.4552 14.7267 21.426 14.2897 21.7903L11.3598 24.2318C10.9355 24.5854 10.8782 25.2159 11.2318 25.6402C11.5853 26.0645 12.2159 26.1218 12.6402 25.7682L14.9386 23.8529L16.7262 25.6404C17.1381 26.0523 17.7995 26.0717 18.2348 25.6848L22.6644 21.7474Z" fill="black"/>
</svg>
