<svg width="36" height="36" viewBox="0 0 36 36" fill="none" xmlns="http://www.w3.org/2000/svg">
<path fill-rule="evenodd" clip-rule="evenodd" d="M9 8.5C9 5.46246 11.4624 3 14.5 3H15.5C18.5376 3 21 5.46246 21 8.5V12.9998C21 16.3135 18.3137 18.9998 15 18.9998C11.6863 18.9998 9 16.3135 9 12.9998V8.5ZM14.5 5C12.567 5 11 6.56702 11 8.5V9.99829C13.5314 8.82916 16.4686 8.82916 19 9.99829V8.5C19 6.56702 17.433 5 15.5 5H14.5ZM15 16.9998C12.7909 16.9998 11 15.209 11 12.9998L14 13V15H16V13L19 12.9998C19 15.209 17.2091 16.9998 15 16.9998ZM16 13H14V12H16V13Z" fill="black"/>
<path d="M9.922 21.0007C10.699 22.2162 12.3683 24.0002 15 24.0002C15.0646 24.0002 15.1283 23.9993 15.1913 23.9976C15.2646 23.9955 15.3369 23.9924 15.4082 23.9881C15.6816 23.9717 15.9391 23.9394 16.1805 23.8951C16.7238 23.7954 17.0833 23.2742 16.9835 22.731C16.8839 22.1878 16.3627 21.8282 15.8195 21.9279C15.7106 21.9479 15.5952 21.9645 15.4733 21.9768C15.3252 21.9918 15.1675 22.0002 15 22.0002C13.0741 22.0002 11.835 20.4339 11.3944 19.5528C11.225 19.214 10.8788 19 10.5 19H9.99976C6.68616 19.0001 4 21.6864 4 25V28.5002C4 29.8809 5.11926 31.0002 6.5 31.0002H16C16.5522 31.0002 17 30.5525 17 30.0002C17 29.4479 16.5522 29.0002 16 29.0002H12V27C12 26.8447 11.9639 26.6916 11.8944 26.5527L10.3944 23.5527C10.1475 23.0588 9.54675 22.8586 9.05273 23.1055C8.55884 23.3525 8.35864 23.9532 8.60559 24.4472L10 27.236V29.0002H6.5C6.22388 29.0002 6 28.7764 6 28.5002V25C6 22.817 7.7489 21.0423 9.922 21.0007Z" fill="black"/>
<path d="M28 23C28 22.4477 27.5522 22 27 22H24C23.4478 22 23 22.4477 23 23C23 23.5523 23.4478 24 24 24H27C27.5522 24 28 23.5523 28 23Z" fill="black"/>
<path fill-rule="evenodd" clip-rule="evenodd" d="M18 21C18 19.3431 19.3431 18 21 18H30C31.6569 18 33 19.3431 33 21V30C33 31.6569 31.6569 33 30 33H21C19.3431 33 18 31.6569 18 30V21ZM21 20C20.4478 20 20 20.4477 20 21V30C20 30.5523 20.4478 31 21 31H30C30.5522 31 31 30.5523 31 30V21C31 20.4477 30.5522 20 30 20H21Z" fill="black"/>
</svg>
