<svg width="36" height="36" viewBox="0 0 36 36" fill="none" xmlns="http://www.w3.org/2000/svg">
<path fill-rule="evenodd" clip-rule="evenodd" d="M18 24C18.5523 24 19 24.4477 19 25C19 25.5523 18.5523 26 18 26H9C7.34372 26 6 24.6563 6 23V10C6 8.34372 7.34372 7 9 7H27C28.6563 7 30 8.34372 30 10V17C30 17.5523 29.5523 18 29 18C28.4477 18 28 17.5523 28 17V12.8216L18.2684 19.0144C18.1047 19.1186 17.8953 19.1186 17.7316 19.0144L8 12.8216V23C8 23.5517 8.44828 24 9 24H18ZM8 10.451L18 16.8146L28 10.451V10C28 9.44828 27.5517 9 27 9H9C8.44828 9 8 9.44828 8 10V10.451Z" fill="black"/>
<path d="M28.8354 21.3483C27.2494 23.1939 24.7512 23.1939 23.1652 21.3483C22.8053 20.9294 22.1739 20.8816 21.7551 21.2416C21.3362 21.6015 21.2884 22.2329 21.6484 22.6518C21.7944 22.8217 21.9462 22.9812 22.1031 23.1303L21.4211 23.8116C21.0304 24.202 21.0301 24.8351 21.4205 25.2258C21.8108 25.6166 22.444 25.6169 22.8347 25.2265L23.7964 24.2657C24.1873 24.4377 24.5909 24.5622 25 24.6392V25.848C25 26.4003 25.4477 26.848 26 26.848C26.5523 26.848 27 26.4003 27 25.848V24.6393C27.4092 24.5624 27.8128 24.4379 28.2038 24.2659L29.1653 25.2265C29.556 25.6169 30.1892 25.6166 30.5795 25.2258C30.9699 24.8351 30.9696 24.202 30.5789 23.8116L29.8972 23.1306C30.0542 22.9814 30.2061 22.8218 30.3522 22.6518C30.7122 22.2329 30.6644 21.6015 30.2455 21.2416C29.8267 20.8816 29.1953 20.9294 28.8354 21.3483Z" fill="black"/>
</svg>
