<svg width="36" height="36" viewBox="0 0 36 36" fill="none" xmlns="http://www.w3.org/2000/svg">
<path fill-rule="evenodd" clip-rule="evenodd" d="M8.568 18.432C8.568 20.2225 9.06623 21.9362 9.99315 23.4202C10.2857 23.8887 10.1432 24.5056 9.67476 24.7981C9.20634 25.0907 8.58943 24.9482 8.29685 24.4798C7.17282 22.6802 6.568 20.5998 6.568 18.432C6.568 12.1187 11.6867 7 18 7C24.3133 7 29.432 12.1187 29.432 18.432C29.432 20.5985 28.8269 22.6788 27.7034 24.4794C27.411 24.9479 26.7942 25.0908 26.3256 24.7984C25.8571 24.506 25.7142 23.8892 26.0066 23.4206C26.9335 21.9352 27.432 20.2213 27.432 18.432C27.432 13.2233 23.2087 9 18 9C12.7913 9 8.568 13.2233 8.568 18.432ZM20.4883 14.0003C19.5883 14.0003 18.6873 14.3453 18.0003 15.0343C17.3133 14.3453 16.4123 14.0003 15.5113 14.0003C14.3883 14.0003 13.2663 14.5353 12.5563 15.6063C11.6273 17.0103 11.9003 18.8983 13.0903 20.0913L16.6913 23.7023C17.0523 24.0643 17.5263 24.2453 18.0003 24.2453C18.4733 24.2453 18.9473 24.0643 19.3093 23.7023L22.9103 20.0913C24.0993 18.8983 24.3733 17.0103 23.4433 15.6063C22.7343 14.5353 21.6113 14.0003 20.4883 14.0003ZM20.4883 16.0003C21.0073 16.0003 21.4763 16.2593 21.7763 16.7103C22.1583 17.2883 22.0373 18.1343 21.4943 18.6793L18.0003 22.1823L14.5063 18.6793C13.9633 18.1343 13.8423 17.2883 14.2243 16.7103C14.5233 16.2593 14.9923 16.0003 15.5113 16.0003C15.9163 16.0003 16.2973 16.1583 16.5843 16.4463L18.0003 17.8663L19.4163 16.4463C19.7023 16.1583 20.0833 16.0003 20.4883 16.0003ZM5 28.0003C5 28.5526 5.44772 29.0003 6 29.0003H30C30.5523 29.0003 31 28.5526 31 28.0003C31 27.448 30.5523 27.0003 30 27.0003H6C5.44772 27.0003 5 27.448 5 28.0003Z" fill="black"/>
</svg>
