<svg width="36" height="36" viewBox="0 0 36 36" fill="none" xmlns="http://www.w3.org/2000/svg">
<path d="M16 17C15.9801 17 15.9603 17.0001 15.9405 17.0003C15.3882 17.0068 14.9458 17.4597 14.9523 18.012C14.9587 18.5642 15.4117 19.0067 15.9639 19.0002L16 19L16.0361 19.0002C16.5883 19.0067 17.0413 18.5642 17.0477 18.012C17.0542 17.4597 16.6118 17.0068 16.0595 17.0003C16.0397 17.0001 16.0199 17 16 17Z" fill="black"/>
<path d="M19.4933 18.4227C19.0981 18.0368 18.465 18.0443 18.0791 18.4394C17.6933 18.8345 17.7008 19.4677 18.0959 19.8535C18.1129 19.8702 18.1298 19.8871 18.1465 19.9041C18.5323 20.2992 19.1655 20.3067 19.5606 19.9209C19.9557 19.535 19.9632 18.9019 19.5773 18.5067C19.5496 18.4784 19.5216 18.4504 19.4933 18.4227Z" fill="black"/>
<path d="M13.9041 19.8535C14.2992 19.4677 14.3067 18.8345 13.9209 18.4394C13.535 18.0443 12.9019 18.0368 12.5067 18.4227C12.4784 18.4504 12.4504 18.4784 12.4227 18.5067C12.0368 18.9019 12.0443 19.535 12.4394 19.9209C12.8345 20.3067 13.4677 20.2992 13.8535 19.9041C13.8702 19.8871 13.8871 19.8702 13.9041 19.8535Z" fill="black"/>
<path d="M20.9997 21.9405C20.9932 21.3882 20.5403 20.9458 19.988 20.9523C19.4358 20.9587 18.9933 21.4117 18.9998 21.9639L19 22L18.9998 22.0361C18.9933 22.5883 19.4358 23.0413 19.988 23.0477C20.5403 23.0542 20.9932 22.6118 20.9997 22.0595C20.9998 22.05 20.9998 22.0404 20.9999 22.0309C21 22.0206 21 22.0103 21 22C21 21.9801 20.9999 21.9603 20.9997 21.9405Z" fill="black"/>
<path d="M13.0002 21.9639C13.0067 21.4117 12.5642 20.9587 12.012 20.9523C11.4597 20.9458 11.0068 21.3882 11.0003 21.9405C11.0001 21.9603 11 21.9801 11 22C11 22.0199 11.0001 22.0397 11.0003 22.0595C11.0068 22.6118 11.4597 23.0542 12.012 23.0477C12.5642 23.0413 13.0067 22.5883 13.0002 22.0361L13 22L13.0002 21.9639Z" fill="black"/>
<path d="M19.5773 25.4933C19.9632 25.0981 19.9557 24.465 19.5606 24.0791C19.1655 23.6933 18.5323 23.7008 18.1465 24.0959C18.1298 24.1129 18.1129 24.1298 18.0959 24.1465C17.7008 24.5323 17.6933 25.1655 18.0791 25.5606C18.465 25.9557 19.0981 25.9632 19.4933 25.5773C19.5216 25.5496 19.5496 25.5216 19.5773 25.4933Z" fill="black"/>
<path d="M13.8535 24.0959C13.4677 23.7008 12.8345 23.6933 12.4394 24.0791C12.0443 24.465 12.0368 25.0981 12.4227 25.4933C12.4504 25.5216 12.4784 25.5496 12.5067 25.5773C12.9019 25.9632 13.535 25.9557 13.9209 25.5606C14.3067 25.1655 14.2992 24.5323 13.9041 24.1465C13.8871 24.1298 13.8702 24.1129 13.8535 24.0959Z" fill="black"/>
<path d="M15.9639 24.9998C15.4117 24.9933 14.9587 25.4358 14.9523 25.988C14.9458 26.5403 15.3882 26.9932 15.9405 26.9997C15.9603 26.9999 15.9801 27 16 27C16.0199 27 16.0397 26.9999 16.0595 26.9997C16.6118 26.9932 17.0542 26.5403 17.0477 25.988C17.0413 25.4358 16.5883 24.9933 16.0361 24.9998L16 25L15.9639 24.9998Z" fill="black"/>
<path fill-rule="evenodd" clip-rule="evenodd" d="M29 28V12.0414C29 11.7497 28.8841 11.4699 28.6778 11.2636L22.7364 5.32218C22.5301 5.11589 22.2503 5 21.9586 5H10C8.34315 5 7 6.34314 7 8V28C7 29.6569 8.34315 31 10 31H26C27.6569 31 29 29.6569 29 28ZM10 7C9.44772 7 9 7.44772 9 8V28C9 28.5523 9.44772 29 10 29H26C26.5523 29 27 28.5523 27 28V14H21.1C20.4925 14 20 13.5075 20 12.9V7H10ZM22 12H26.5858L22 7.41421V12Z" fill="black"/>
</svg>
