<svg width="36" height="36" viewBox="0 0 36 36" fill="none" xmlns="http://www.w3.org/2000/svg">
<path fill-rule="evenodd" clip-rule="evenodd" d="M6.15147 8.57554L6.24316 8.31577L10.4016 15.1204C9.75891 17.4434 11.7482 19.7226 14.1942 19.3149C15.8133 19.045 17 17.6442 17 16.0027V13.5001C17 11.8433 15.6568 10.5001 14 10.5001H13.977L14.1208 10.1407C14.2193 9.89444 14.4116 9.69741 14.6554 9.59293L16.5272 8.7907L17.1002 9.93657C17.1564 10.0527 17.2353 10.1586 17.3344 10.2468C17.5179 10.4102 17.7559 10.5001 18 10.5003C18.1372 10.5004 18.2763 10.4722 18.4088 10.4128C18.5016 10.3713 18.5884 10.3156 18.6655 10.2469C18.7646 10.1586 18.8435 10.0527 18.8998 9.93655L19.4727 8.7907L21.3446 9.59293C21.5884 9.69741 21.7807 9.89444 21.8792 10.1407L22.0229 10.5001H22C20.3431 10.5001 19 11.8433 19 13.5001V16.0027C19 17.6442 20.1867 19.045 21.8058 19.3149C24.2518 19.7226 26.2411 17.4434 25.5984 15.1204L29.7568 8.31577L29.8485 8.57554C31.2091 12.4307 31.2746 16.6245 30.0351 20.5203C29.4302 22.4212 27.2902 23.355 25.4852 22.5056L23.9084 21.7636C22.0558 20.8918 19.8727 21.9629 19.4286 23.9616C19.0889 25.4904 19.9071 27.04 21.3611 27.6216L23.0768 28.3079C21.6162 29.4034 19.8356 30.0001 18 30.0001C16.1643 30.0001 14.3838 29.4034 12.9232 28.3079L14.6389 27.6216C16.0929 27.04 16.9111 25.4904 16.5714 23.9616C16.1272 21.9629 13.9442 20.8918 12.0916 21.7636L10.5148 22.5056C8.7098 23.355 6.56972 22.4212 5.96488 20.5203C4.72532 16.6245 4.79083 12.4307 6.15147 8.57554ZM18 7.43691C17.4394 6.8267 16.5369 6.61062 15.7394 6.95241L13.8675 7.75464C13.1362 8.06806 12.5593 8.65916 12.2638 9.39791L11.8458 10.443C11.4517 11.4283 12.1773 12.5001 13.2385 12.5001H14C14.5523 12.5001 15 12.9478 15 13.5001V16.0027C15 16.6665 14.5201 17.233 13.8654 17.3421C12.8342 17.514 12.0037 16.5049 12.3708 15.526L12.6075 14.8947L7.40149 6.37577C6.74264 5.29765 5.1276 5.46724 4.70708 6.65871L4.26549 7.9099C2.75995 12.1756 2.68746 16.816 4.05903 21.1267C5.03043 24.1796 8.4675 25.6794 11.3664 24.3153L12.9432 23.5732C13.6362 23.2471 14.4529 23.6478 14.619 24.3955C14.7461 24.9674 14.44 25.5471 13.8961 25.7647L11.3951 26.765C10.3488 27.1836 10.1204 28.5633 10.976 29.2966L11.1918 29.4816C13.0879 31.1068 15.5027 32.0001 18 32.0001C20.4972 32.0001 22.9121 31.1068 24.8082 29.4816L25.024 29.2966C25.8796 28.5633 25.6512 27.1836 24.6049 26.765L22.1039 25.7647C21.56 25.5471 21.2539 24.9674 21.3809 24.3955C21.5471 23.6478 22.3638 23.2471 23.0568 23.5732L24.6336 24.3153C27.5325 25.6794 30.9695 24.1796 31.9409 21.1267C33.3125 16.816 33.24 12.1756 31.7345 7.9099L31.2929 6.65871C30.8724 5.46724 29.2573 5.29765 28.5985 6.37577L23.3924 14.8947L23.6292 15.526C23.9963 16.5049 23.1658 17.514 22.1346 17.3421C21.4798 17.233 21 16.6665 21 16.0027V13.5001C21 12.9478 21.4477 12.5001 22 12.5001H22.7615C23.8226 12.5001 24.5483 11.4283 24.1542 10.443L23.7361 9.39791C23.4406 8.65916 22.8638 8.06806 22.1324 7.75464L20.2606 6.95241C19.4631 6.61062 18.5605 6.8267 18 7.43691Z" fill="black"/>
</svg>
