<svg width="36" height="36" viewBox="0 0 36 36" fill="none" xmlns="http://www.w3.org/2000/svg">
<path fill-rule="evenodd" clip-rule="evenodd" d="M6 13C6.55228 13 7 12.5523 7 12V7H12C12.5523 7 13 6.55228 13 6C13 5.44772 12.5523 5 12 5H7C5.89543 5 5 5.89543 5 7V12C5 12.5523 5.44772 13 6 13ZM13 13C13 12.4477 12.5523 12 12 12C11.4477 12 11 12.4477 11 13V15C11 15.5523 11.4477 16 12 16C12.5523 16 13 15.5523 13 15V13ZM25 13C25 12.4477 24.5523 12 24 12C23.4477 12 23 12.4477 23 13V15C23 15.5523 23.4477 16 24 16C24.5523 16 25 15.5523 25 15V13ZM19 13C19.5523 13 20 13.4477 20 14V19.5C20 20.3284 19.3284 21 18.5 21H17C16.4477 21 16 20.5523 16 20C16 19.4477 16.4477 19 17 19H18V14C18 13.4477 18.4477 13 19 13ZM14.7071 22.7929C14.3166 22.4024 13.6834 22.4024 13.2929 22.7929C12.9024 23.1834 12.9024 23.8166 13.2929 24.2071C16.2401 27.1543 20.3758 26.5385 22.7071 24.2071C23.0976 23.8166 23.0976 23.1834 22.7071 22.7929C22.3166 22.4024 21.6834 22.4024 21.2929 22.7929C19.6242 24.4615 16.7599 24.8457 14.7071 22.7929ZM7 24C7 23.4477 6.55228 23 6 23C5.44772 23 5 23.4477 5 24V29C5 30.1046 5.89543 31 7 31H12C12.5523 31 13 30.5523 13 30C13 29.4477 12.5523 29 12 29H7V24ZM30 23C29.4477 23 29 23.4477 29 24V29H24C23.4477 29 23 29.4477 23 30C23 30.5523 23.4477 31 24 31H29C30.1046 31 31 30.1046 31 29V24C31 23.4477 30.5523 23 30 23ZM29 12C29 12.5523 29.4477 13 30 13C30.5523 13 31 12.5523 31 12V7C31 5.89543 30.1046 5 29 5H24C23.4477 5 23 5.44772 23 6C23 6.55228 23.4477 7 24 7H29V12Z" fill="black"/>
</svg>
