<svg width="36" height="36" viewBox="0 0 36 36" fill="none" xmlns="http://www.w3.org/2000/svg">
<path fill-rule="evenodd" clip-rule="evenodd" d="M18.7574 12.2426L23 8L27.2427 12.2426L23 16.4853L18.7574 12.2426ZM17.3432 13.6569C16.5621 12.8758 16.5621 11.6095 17.3432 10.8284L21.5858 6.58579C22.3669 5.80474 23.6332 5.80474 24.4142 6.58579L28.6569 10.8284C29.4379 11.6095 29.4379 12.8758 28.6569 13.6569L24.4142 17.8995C23.6332 18.6805 22.3669 18.6805 21.5858 17.8995L17.3432 13.6569ZM8 9.24264H14V15.2426H8L8 9.24264ZM6 9.24264C6 8.13807 6.89543 7.24264 8 7.24264H14C15.1046 7.24264 16 8.13807 16 9.24264V15.2426C16 16.3472 15.1046 17.2426 14 17.2426H8C6.89543 17.2426 6 16.3472 6 15.2426V9.24264ZM14 21.2426H8L8 27.2426H14V21.2426ZM8 19.2426C6.89543 19.2426 6 20.1381 6 21.2426V27.2426C6 28.3472 6.89543 29.2426 8 29.2426H14C15.1046 29.2426 16 28.3472 16 27.2426V21.2426C16 20.1381 15.1046 19.2426 14 19.2426H8ZM20 21.2426H26V27.2426H20V21.2426ZM18 21.2426C18 20.1381 18.8954 19.2426 20 19.2426H26C27.1046 19.2426 28 20.1381 28 21.2426V27.2426C28 28.3472 27.1046 29.2426 26 29.2426H20C18.8954 29.2426 18 28.3472 18 27.2426V21.2426Z" fill="black"/>
</svg>
