<svg width="36" height="36" viewBox="0 0 36 36" fill="none" xmlns="http://www.w3.org/2000/svg">
<path fill-rule="evenodd" clip-rule="evenodd" d="M11.6399 20L15.0149 8H20.9847L24.3597 20H11.6399ZM13.1922 7.09388C13.3741 6.44696 13.9641 6 14.6361 6H21.3635C22.0355 6 22.6255 6.44696 22.8075 7.09388L26.4637 20.0939C26.7328 21.0507 26.0137 22 25.0198 22H10.9799C9.9859 22 9.2668 21.0507 9.53592 20.0939L13.1922 7.09388ZM18.9999 25C18.9999 24.4477 18.5522 24 17.9999 24C17.4476 24 16.9999 24.4477 16.9999 25V29H12.9999C12.4476 29 11.9999 29.4477 11.9999 30C11.9999 30.5523 12.4476 31 12.9999 31H22.9999C23.5522 31 23.9999 30.5523 23.9999 30C23.9999 29.4477 23.5522 29 22.9999 29H18.9999V25Z" fill="black"/>
</svg>
