<svg width="36" height="36" viewBox="0 0 36 36" fill="none" xmlns="http://www.w3.org/2000/svg">
<path fill-rule="evenodd" clip-rule="evenodd" d="M18.9691 13V15H16.9691H11H9H7C6.44772 15 6 15.4477 6 16C6 16.5523 6.44772 17 7 17H9.06189C9.55399 20.9463 12.9204 24 17 24H21C25.4183 24 29 20.4183 29 16V15C29 10.0294 24.9428 6 19.9722 6C19.4199 6 18.9691 6.44772 18.9691 7V13ZM27 15C27 11.479 24.3731 8.55428 20.9691 8.07028V15H27ZM20.9691 17H26.917C26.441 19.8377 23.973 22 21 22H17C14.027 22 11.559 19.8377 11.083 17H18.9691H20.9691ZM12 28C12 27.4477 12.4477 27 13 27C13.5523 27 14 27.4477 14 28C14 28.5523 13.5523 29 13 29C12.4477 29 12 28.5523 12 28ZM13 25C11.3431 25 10 26.3431 10 28C10 29.6569 11.3431 31 13 31C14.6569 31 16 29.6569 16 28C16 26.3431 14.6569 25 13 25ZM24 28C24 27.4477 24.4477 27 25 27C25.5523 27 26 27.4477 26 28C26 28.5523 25.5523 29 25 29C24.4477 29 24 28.5523 24 28ZM25 25C23.3431 25 22 26.3431 22 28C22 29.6569 23.3431 31 25 31C26.6569 31 28 29.6569 28 28C28 26.3431 26.6569 25 25 25Z" fill="black"/>
</svg>
