<svg width="36" height="36" viewBox="0 0 36 36" fill="none" xmlns="http://www.w3.org/2000/svg">
<path fill-rule="evenodd" clip-rule="evenodd" d="M8 7C8 6.44772 7.55228 6 7 6C6.44772 6 6 6.44772 6 7V27.9C6 28.5075 6.49248 29 7.1 29H29C29.5523 29 30 28.5523 30 28C30 27.4477 29.5523 27 29 27H8V7ZM27.8742 10.4856C28.1424 10.0029 27.9684 9.39405 27.4856 9.12584C27.0029 8.85763 26.3941 9.03157 26.1258 9.51436L21.7697 17.3555L19.7988 15.3846C19.2888 14.8746 18.4343 14.9852 18.0709 15.6082L15.2898 20.3756L14.296 19.3818C13.7958 18.8816 12.9603 18.9767 12.5854 19.5766L10.152 23.47C9.85929 23.9383 10.0017 24.5553 10.47 24.848C10.9383 25.1407 11.5553 24.9983 11.848 24.53L13.6818 21.596L14.7012 22.6154C15.2112 23.1254 16.0657 23.0148 16.4291 22.3918L19.2102 17.6244L21.1992 19.6134C21.7159 20.1301 22.5836 20.0086 22.9385 19.3698L27.8742 10.4856Z" fill="black"/>
</svg>
