<svg width="36" height="36" viewBox="0 0 36 36" fill="none" xmlns="http://www.w3.org/2000/svg">
<path d="M12 8C12 7.44772 12.4477 7 13 7H23C23.5523 7 24 7.44772 24 8V11C24 11.5523 24.4477 12 25 12C25.5523 12 26 11.5523 26 11V8C26 6.34315 24.6569 5 23 5H13C11.3431 5 10 6.34315 10 8V11C10 11.5523 10.4477 12 11 12C11.5523 12 12 11.5523 12 11V8Z" fill="black"/>
<path d="M8 14C6.89543 14 6 14.8954 6 16V25C6 25.5523 6.44772 26 7 26C7.55228 26 8 25.5523 8 25V16H28V25C28 25.5523 28.4477 26 29 26C29.5523 26 30 25.5523 30 25V16C30 14.8954 29.1046 14 28 14H8Z" fill="black"/>
<path d="M22 19C22 18.4477 22.4477 18 23 18H25C25.5523 18 26 18.4477 26 19C26 19.5523 25.5523 20 25 20H23C22.4477 20 22 19.5523 22 19Z" fill="black"/>
<path fill-rule="evenodd" clip-rule="evenodd" d="M11.1 23C10.4925 23 10 23.4925 10 24.1V28C10 29.6569 11.3431 31 13 31H23C24.6569 31 26 29.6569 26 28V24.1C26 23.4925 25.5075 23 24.9 23H11.1ZM12 28V25H24V28C24 28.5523 23.5523 29 23 29H13C12.4477 29 12 28.5523 12 28Z" fill="black"/>
</svg>
