<svg width="36" height="36" viewBox="0 0 36 36" fill="none" xmlns="http://www.w3.org/2000/svg">
<path fill-rule="evenodd" clip-rule="evenodd" d="M4.59018 10.5852C4.81938 10.0828 5.41253 9.86122 5.91501 10.0904L14.83 14.1569C15.5427 14.482 16 15.1932 16 15.9766V18.0002H18V11.1002C18 10.4927 18.4925 10.0002 19.1 10.0002H25.4363C25.8637 10.0002 26.2524 10.2478 26.4331 10.6351L29.8702 18.0002H30C31.1046 18.0002 32 18.8957 32 20.0002V24.0002C32 25.1048 31.1046 26.0002 30 26.0002H28.4646C28.2219 27.6964 26.7632 29.0002 25 29.0002C23.2368 29.0002 21.7781 27.6964 21.5354 26.0002H13.9646C13.7219 27.6964 12.2632 29.0002 10.5 29.0002C8.73676 29.0002 7.27806 27.6964 7.03544 26.0002H5.1C4.49249 26.0002 4 25.5078 4 24.9002V19.1002C4 18.4927 4.49249 18.0002 5.1 18.0002H14L14 15.9766L5.08499 11.9101C4.58252 11.6809 4.36098 11.0877 4.59018 10.5852ZM27.6631 18.0002L24.8631 12.0002H20V18.0002H27.6631ZM19 20.0002H15H6V24.0002H7.33682C7.89855 22.8178 9.1038 22.0002 10.5 22.0002C11.8962 22.0002 13.1015 22.8178 13.6632 24.0002H21.8368C22.3985 22.8178 23.6038 22.0002 25 22.0002C26.3962 22.0002 27.6015 22.8178 28.1632 24.0002H30V20.0002H19ZM9 25.5002C9 24.6718 9.67157 24.0002 10.5 24.0002C11.3284 24.0002 12 24.6718 12 25.5002C12 26.3287 11.3284 27.0002 10.5 27.0002C9.67157 27.0002 9 26.3287 9 25.5002ZM25 24.0002C24.1716 24.0002 23.5 24.6718 23.5 25.5002C23.5 26.3287 24.1716 27.0002 25 27.0002C25.8284 27.0002 26.5 26.3287 26.5 25.5002C26.5 24.6718 25.8284 24.0002 25 24.0002Z" fill="black"/>
</svg>
