<svg width="36" height="36" viewBox="0 0 36 36" fill="none" xmlns="http://www.w3.org/2000/svg">
<path fill-rule="evenodd" clip-rule="evenodd" d="M10 5C8.34315 5 7 6.34315 7 8V28C7 29.6569 8.34315 31 10 31H26C27.6569 31 29 29.6569 29 28V8C29 6.34315 27.6569 5 26 5H10ZM9 8C9 7.44772 9.44771 7 10 7H26C26.5523 7 27 7.44772 27 8V28C27 28.5523 26.5523 29 26 29H10C9.44772 29 9 28.5523 9 28V8ZM16.5 21V15H21.5V18.55C21.3384 18.5172 21.1712 18.5 21 18.5C19.6193 18.5 18.5 19.6193 18.5 21C18.5 22.3807 19.6193 23.5 21 23.5C22.3807 23.5 23.5 22.3807 23.5 21V14.1C23.5 13.4925 23.0075 13 22.4 13H15.6C14.9925 13 14.5 13.4925 14.5 14.1V18.55C14.3384 18.5172 14.1712 18.5 14 18.5C12.6193 18.5 11.5 19.6193 11.5 21C11.5 22.3807 12.6193 23.5 14 23.5C15.3807 23.5 16.5 22.3807 16.5 21ZM21.5 21C21.5 20.7239 21.2761 20.5 21 20.5C20.7239 20.5 20.5 20.7239 20.5 21C20.5 21.2761 20.7239 21.5 21 21.5C21.2761 21.5 21.5 21.2761 21.5 21ZM14 20.5C14.2761 20.5 14.5 20.7239 14.5 21C14.5 21.2761 14.2761 21.5 14 21.5C13.7239 21.5 13.5 21.2761 13.5 21C13.5 20.7239 13.7239 20.5 14 20.5Z" fill="black"/>
</svg>
