<svg width="36" height="36" viewBox="0 0 36 36" fill="none" xmlns="http://www.w3.org/2000/svg">
<path d="M18.0001 4C15.9676 4 14.0624 4.54266 12.5087 5.46089C12.0333 5.74189 11.42 5.58425 11.139 5.10879C10.858 4.63334 11.0157 4.02011 11.4911 3.73911C13.3586 2.63542 15.6162 2 18.0001 2C20.3839 2 22.6413 2.63544 24.5087 3.73911C24.9842 4.02011 25.1418 4.63334 24.8608 5.10879C24.5798 5.58425 23.9666 5.74189 23.4911 5.46089C21.9374 4.54265 20.0325 4 18.0001 4Z" fill="black"/>
<path d="M24 16V18H26V16H24Z" fill="black"/>
<path fill-rule="evenodd" clip-rule="evenodd" d="M23 19C23 21.7614 20.7614 24 18 24C15.2386 24 13 21.7614 13 19C13 16.2386 15.2386 14 18 14C20.7614 14 23 16.2386 23 19ZM21 19C21 20.6569 19.6569 22 18 22C16.3431 22 15 20.6569 15 19C15 17.3431 16.3431 16 18 16C19.6569 16 21 17.3431 21 19Z" fill="black"/>
<path fill-rule="evenodd" clip-rule="evenodd" d="M13 10C11.6938 10 10.5825 10.8348 10.1707 12H9C7.34315 12 6 13.3431 6 15V24C6 25.6569 7.34315 27 9 27H27C28.6569 27 30 25.6569 30 24V15C30 13.3431 28.6569 12 27 12H25.8293C25.4175 10.8348 24.3062 10 23 10H13ZM12 13C12 12.4477 12.4477 12 13 12H23C23.5523 12 24 12.4477 24 13V14H27C27.5523 14 28 14.4477 28 15V24C28 24.5523 27.5523 25 27 25H9C8.44772 25 8 24.5523 8 24V15C8 14.4477 8.44772 14 9 14L12 14V13Z" fill="black"/>
<path d="M15.4994 8.66633C16.2339 8.24283 17.0869 8 17.9999 8C18.913 8 19.7659 8.24283 20.5004 8.66633C20.9789 8.94218 21.5904 8.77793 21.8662 8.29947C22.1421 7.821 21.9778 7.20951 21.4994 6.93367C20.4689 6.33957 19.2726 6 17.9999 6C16.7272 6 15.5309 6.33957 14.5004 6.93367C14.022 7.20951 13.8577 7.821 14.1336 8.29947C14.4094 8.77793 15.0209 8.94218 15.4994 8.66633Z" fill="black"/>
<path d="M15.9194 29L13.2191 32.3753C12.8741 32.8066 12.944 33.4358 13.3753 33.7809C13.8066 34.1259 14.4359 34.0559 14.7809 33.6247L17 30.8507V33C17 33.5523 17.4478 34 18 34C18.5523 34 19 33.5523 19 33V30.8507L21.2192 33.6247C21.5643 34.0559 22.1935 34.1259 22.6248 33.7809C23.0561 33.4358 23.126 32.8066 22.781 32.3753L20.0808 29H15.9194Z" fill="black"/>
</svg>
