<svg width="36" height="36" viewBox="0 0 36 36" fill="none" xmlns="http://www.w3.org/2000/svg">
<path fill-rule="evenodd" clip-rule="evenodd" d="M6 13C6.55228 13 7 12.5523 7 12V7H12C12.5523 7 13 6.55228 13 6C13 5.44772 12.5523 5 12 5H7C5.89543 5 5 5.89543 5 7V12C5 12.5523 5.44772 13 6 13ZM13 13C13.5523 13 14 13.4477 14 14V16C14 16.5523 13.5523 17 13 17C12.4477 17 12 16.5523 12 16V14C12 13.4477 12.4477 13 13 13ZM23 13C23.5523 13 24 13.4477 24 14V16C24 16.5523 23.5523 17 23 17C22.4477 17 22 16.5523 22 16V14C22 13.4477 22.4477 13 23 13ZM21.2929 21.2929C19.6242 22.9615 16.7599 23.3457 14.7071 21.2929C14.3166 20.9024 13.6834 20.9024 13.2929 21.2929C12.9024 21.6834 12.9024 22.3166 13.2929 22.7071C16.2401 25.6543 20.3758 25.0385 22.7071 22.7071C23.0976 22.3166 23.0976 21.6834 22.7071 21.2929C22.3166 20.9024 21.6834 20.9024 21.2929 21.2929ZM7 24C7 23.4477 6.55228 23 6 23C5.44772 23 5 23.4477 5 24V29C5 30.1046 5.89543 31 7 31H12C12.5523 31 13 30.5523 13 30C13 29.4477 12.5523 29 12 29H7V24ZM30 23C29.4477 23 29 23.4477 29 24V29H24C23.4477 29 23 29.4477 23 30C23 30.5523 23.4477 31 24 31H29C30.1046 31 31 30.1046 31 29V24C31 23.4477 30.5523 23 30 23ZM29 12C29 12.5523 29.4477 13 30 13C30.5523 13 31 12.5523 31 12V7C31 5.89543 30.1046 5 29 5H24C23.4477 5 23 5.44772 23 6C23 6.55228 23.4477 7 24 7H29V12Z" fill="black"/>
</svg>
