<svg width="36" height="36" viewBox="0 0 36 36" fill="none" xmlns="http://www.w3.org/2000/svg">
<path d="M22.4632 7.74363C21.2835 6.70894 19.4883 6.75394 18.3646 7.87904L18.0114 8.23178C17.816 8.42691 17.8158 8.74349 18.0109 8.93889L18.7175 9.6465C18.9126 9.8419 19.2292 9.84212 19.4246 9.647L19.7788 9.2933L19.873 9.21001C20.2652 8.90464 20.8322 8.9324 21.1936 9.29325L25.643 13.7427C26.0335 14.1332 26.6667 14.1332 27.0572 13.7427C27.4477 13.3522 27.4477 12.719 27.0572 12.3285L22.6073 7.87859L22.4632 7.74363Z" fill="black"/>
<path fill-rule="evenodd" clip-rule="evenodd" d="M11.5359 8.29289C12.6605 7.1683 14.4554 7.12331 15.635 8.15797L15.7791 8.29293L23.4351 15.9498C23.8256 16.3403 23.8255 16.9735 23.435 17.364C23.0444 17.7545 22.4113 17.7545 22.0208 17.364L16.4854 11.8284L9.53611 18.7781C9.14559 19.1686 8.5124 19.1686 8.12187 18.7781L5.29289 15.9491C4.90235 15.5586 4.90237 14.9253 5.29295 14.5348L11.5359 8.29289ZM13.0443 9.62401C13.4366 9.31892 14.004 9.34668 14.3653 9.70761L15.0714 10.4144L8.8284 16.6565L7.4134 15.2414L12.95 9.70721L13.0443 9.62401Z" fill="black"/>
<path fill-rule="evenodd" clip-rule="evenodd" d="M18.9854 25.6414L25.9359 18.6919C26.3265 18.3014 26.9597 18.3014 27.3502 18.6921L30.1782 21.5211C30.5687 21.9117 30.5686 22.5448 30.1781 22.9353L23.936 29.1763C22.8122 30.303 21.0151 30.3481 19.8369 29.3123L19.6929 29.1772L12.036 21.5203C11.6455 21.1298 11.6455 20.4966 12.036 20.1061C12.4265 19.7156 13.0597 19.7156 13.4502 20.1061L18.9854 25.6414ZM20.3994 27.0554L21.1076 27.7634C21.4678 28.1242 22.0347 28.1519 22.4268 27.8463L22.521 27.7629L28.0564 22.2274L26.6424 20.8124L20.3994 27.0554Z" fill="black"/>
<path d="M9.82901 23.7283L14.2789 28.1773C14.6393 28.5377 15.2063 28.5655 15.5985 28.2605L15.6927 28.1773L16.0461 27.8238C16.2414 27.6286 16.558 27.6286 16.7532 27.8238L17.4604 28.5309C17.6556 28.7262 17.6556 29.0428 17.4604 29.2381L17.1069 29.5915C15.9822 30.7162 14.187 30.7612 13.0087 29.7265L12.8648 29.5916L8.41494 25.1426C8.02437 24.7521 8.02431 24.119 8.4148 23.7284C8.80529 23.3378 9.43845 23.3378 9.82901 23.7283Z" fill="black"/>
</svg>
