<svg width="36" height="36" viewBox="0 0 36 36" fill="none" xmlns="http://www.w3.org/2000/svg">
<path fill-rule="evenodd" clip-rule="evenodd" d="M7 11V23H29V11H7ZM5 10.1C5 9.49249 5.49249 9 6.1 9H29.9C30.5075 9 31 9.4925 31 10.1V23.9C31 24.5075 30.5075 25 29.9 25H6.1C5.49248 25 5 24.5075 5 23.9V10.1ZM11 15C11.5523 15 12 15.4477 12 16V18C12 18.5523 11.5523 19 11 19C10.4477 19 10 18.5523 10 18V16C10 15.4477 10.4477 15 11 15ZM25 15C25.5523 15 26 15.4477 26 16V18C26 18.5523 25.5523 19 25 19C24.4477 19 24 18.5523 24 18V16C24 15.4477 24.4477 15 25 15ZM5 28C5 27.4477 5.44772 27 6 27H30C30.5523 27 31 27.4477 31 28C31 28.5523 30.5523 29 30 29H6C5.44772 29 5 28.5523 5 28ZM14.5 15.25C14.0858 15.25 13.75 15.5858 13.75 16C13.75 16.4142 14.0858 16.75 14.5 16.75H14.7548C14.7516 16.833 14.75 16.9164 14.75 17C14.75 17.2531 14.7647 17.5038 14.7942 17.75H14.5C14.0858 17.75 13.75 18.0858 13.75 18.5C13.75 18.9142 14.0858 19.25 14.5 19.25H15.1902C15.3553 19.632 15.5674 19.9871 15.8278 20.3043C16.5678 21.2058 17.6576 21.75 19 21.75C20.0808 21.75 21.081 21.3982 21.8863 20.8032C22.2195 20.5571 22.29 20.0875 22.0439 19.7543C21.7978 19.4212 21.3282 19.3506 20.995 19.5968C20.4405 20.0065 19.751 20.25 19 20.25C18.0959 20.25 17.4356 19.8988 16.9872 19.3526C16.9599 19.3193 16.9332 19.2851 16.9072 19.25H18.5C18.9142 19.25 19.25 18.9142 19.25 18.5C19.25 18.0858 18.9142 17.75 18.5 17.75H16.3084C16.27 17.5123 16.25 17.2616 16.25 17C16.25 16.9155 16.2521 16.8322 16.2562 16.75H18.5C18.9142 16.75 19.25 16.4142 19.25 16C19.25 15.5858 18.9142 15.25 18.5 15.25H16.6102C16.7157 15.026 16.8423 14.824 16.9872 14.6474C17.4356 14.1012 18.0959 13.75 19 13.75C19.751 13.75 20.4405 13.9935 20.995 14.4032C21.3282 14.6494 21.7978 14.5788 22.0439 14.2457C22.29 13.9125 22.2195 13.4429 21.8863 13.1968C21.081 12.6018 20.0808 12.25 19 12.25C17.6576 12.25 16.5678 12.7942 15.8278 13.6957C15.457 14.1475 15.1839 14.6761 15.0054 15.25H14.5Z" fill="black"/>
</svg>
