<svg width="36" height="36" viewBox="0 0 36 36" fill="none" xmlns="http://www.w3.org/2000/svg">
<path fill-rule="evenodd" clip-rule="evenodd" d="M24.1223 5.71731L29.0723 5.01031C29.7322 4.91605 30.2979 5.48173 30.2036 6.14169L29.4966 11.0907C29.466 11.3049 29.3668 11.5034 29.2138 11.6564L17.8996 22.9705L19.3135 24.3844C19.704 24.7749 19.704 25.408 19.3135 25.7986C18.953 26.1591 18.3858 26.1868 17.9935 25.8818L17.8993 25.7986L15.7781 23.6774L10.8285 28.6271C10.0469 29.4086 8.78178 29.4086 8.00026 28.6271L6.58626 27.2131C5.80458 26.4314 5.80458 25.1645 6.58626 24.3849L11.5359 19.4352L9.41426 17.3136C9.02373 16.923 9.02373 16.2899 9.41426 15.8994C9.77474 15.5389 10.342 15.5111 10.7343 15.8162L10.8285 15.8994L12.2424 17.3133L23.5566 6.00013C23.7096 5.84714 23.9081 5.74791 24.1223 5.71731ZM12.9499 20.8492L8.00116 25.7989L9.41447 27.2129L14.3639 22.2632L12.9499 20.8492ZM27.5632 10.4779L16.4853 21.5557L13.6563 18.7267L24.7342 7.64987L28.0342 7.17787L27.5632 10.4779Z" fill="black"/>
</svg>
