<svg width="36" height="36" viewBox="0 0 36 36" fill="none" xmlns="http://www.w3.org/2000/svg">
<path fill-rule="evenodd" clip-rule="evenodd" d="M4 8C4 7.44772 4.44772 7 5 7H8.42457C8.9157 7 9.34732 7.32557 9.48225 7.79781L10.2543 10.5H29.3878C30.0453 10.5 30.5559 11.0729 30.4805 11.7261L29.1977 22.8439C29.0231 24.3576 27.7413 25.5 26.2175 25.5H12.3521C10.7845 25.5 9.48113 24.2931 9.3609 22.7301L8.5107 11.6775L7.7457 9H5C4.44772 9 4 8.55228 4 8ZM10.5799 12.5L11.355 22.5767C11.3951 23.0977 11.8295 23.5 12.3521 23.5H26.2175C26.7254 23.5 27.1527 23.1192 27.2109 22.6146L28.378 12.5H10.5799ZM15 28.5C15 29.6046 14.1046 30.5 13 30.5C11.8954 30.5 11 29.6046 11 28.5C11 27.3954 11.8954 26.5 13 26.5C14.1046 26.5 15 27.3954 15 28.5ZM25 30.5C26.1046 30.5 27 29.6046 27 28.5C27 27.3954 26.1046 26.5 25 26.5C23.8954 26.5 23 27.3954 23 28.5C23 29.6046 23.8954 30.5 25 30.5Z" fill="black"/>
</svg>
