<svg width="36" height="36" viewBox="0 0 36 36" fill="none" xmlns="http://www.w3.org/2000/svg">
<path fill-rule="evenodd" clip-rule="evenodd" d="M13 11C13 10.4477 13.4477 10 14 10H22C22.5523 10 23 10.4477 23 11V11.9C23 12.5075 23.4925 13 24.1 13H27C27.5523 13 28 13.4477 28 14V25C28 25.5523 27.5523 26 27 26H9C8.44772 26 8 25.5523 8 25V14C8 13.4477 8.44772 13 9 13H11.9C12.5075 13 13 12.5075 13 11.9V11ZM14 8C12.3431 8 11 9.34315 11 11H9C7.34315 11 6 12.3431 6 14V25C6 26.6569 7.34314 28 9 28H27C28.6569 28 30 26.6569 30 25V14C30 12.3431 28.6569 11 27 11H25C25 9.34315 23.6569 8 22 8H14ZM21 19C21 20.6569 19.6569 22 18 22C16.3431 22 15 20.6569 15 19C15 17.3431 16.3431 16 18 16C19.6569 16 21 17.3431 21 19ZM23 19C23 21.7614 20.7614 24 18 24C15.2386 24 13 21.7614 13 19C13 16.2386 15.2386 14 18 14C20.7614 14 23 16.2386 23 19Z" fill="black"/>
</svg>
