<svg width="36" height="36" viewBox="0 0 36 36" fill="none" xmlns="http://www.w3.org/2000/svg">
<path fill-rule="evenodd" clip-rule="evenodd" d="M5.86817 16.9961C7.80156 13.6127 12.0377 9 17.9999 9C23.9622 9 28.1983 13.6127 30.1317 16.9961C30.4057 17.4757 31.0165 17.6423 31.4961 17.3682C31.9756 17.0942 32.1422 16.4834 31.8682 16.0039C29.8016 12.3873 25.0377 7 17.9999 7C10.9622 7 6.19829 12.3873 4.13168 16.0039C3.85767 16.4834 4.02427 17.0942 4.50379 17.3682C4.98331 17.6423 5.59416 17.4757 5.86817 16.9961ZM23 18C23 20.7614 20.7614 23 18 23C15.2386 23 13 20.7614 13 18C13 15.2386 15.2386 13 18 13C20.7614 13 23 15.2386 23 18ZM25 18C25 21.866 21.866 25 18 25C14.134 25 11 21.866 11 18C11 14.134 14.134 11 18 11C21.866 11 25 14.134 25 18ZM8.77299 23.8134C9.1522 23.4119 9.78511 23.3938 10.1866 23.773C11.1907 24.7212 13.7326 27 18 27C22.2674 27 24.8093 24.7212 25.8134 23.773C26.2149 23.3938 26.8478 23.4119 27.227 23.8134C27.6062 24.2149 27.5881 24.8478 27.1866 25.227C26.073 26.2788 23.0502 29 18 29C12.9498 29 9.927 26.2788 8.81338 25.227C8.41186 24.8478 8.39378 24.2149 8.77299 23.8134ZM21 18C21 19.6569 19.6569 21 18 21C16.3431 21 15 19.6569 15 18C15 16.3431 16.3431 15 18 15C18.4199 15 18.8197 15.0863 19.1825 15.2421C18.7716 15.5096 18.4999 15.9731 18.4999 16.5C18.4999 17.3284 19.1715 18 19.9999 18C20.3737 18 20.7156 17.8632 20.9783 17.637C20.9926 17.756 21 17.8771 21 18Z" fill="black"/>
</svg>
