<svg width="36" height="36" viewBox="0 0 36 36" fill="none" xmlns="http://www.w3.org/2000/svg">
<path fill-rule="evenodd" clip-rule="evenodd" d="M20 6C21.6563 6 23 7.34372 23 9V12H26C27.6563 12 29 13.3437 29 15V25C29 26.6563 27.6563 28 26 28H16C14.3437 28 13 26.6563 13 25V22H10C8.34372 22 7 20.6563 7 19V9C7 7.34372 8.34372 6 10 6H20ZM15 22V25C15 25.5517 15.4483 26 16 26H26C26.5517 26 27 25.5517 27 25V15C27 14.4483 26.5517 14 26 14H23V19C23 20.6563 21.6563 22 20 22H15ZM21 14V19C21 19.5517 20.5517 20 20 20H15V15C15 14.4483 15.4483 14 16 14H21ZM21 12H16C14.3437 12 13 13.3437 13 15V20H10C9.44828 20 9 19.5517 9 19V9C9 8.44828 9.44828 8 10 8H20C20.5517 8 21 8.44828 21 9V12Z" fill="black"/>
</svg>
