<svg width="36" height="36" viewBox="0 0 36 36" fill="none" xmlns="http://www.w3.org/2000/svg">
<path fill-rule="evenodd" clip-rule="evenodd" d="M7 16V11H29V13C29 13.5523 29.4477 14 30 14C30.5523 14 31 13.5523 31 13V10.1C31 9.49249 30.5075 9 29.9 9H6.1C5.49249 9 5 9.49249 5 10.1V16.9C5 17.5075 5.49249 18 6.1 18H8.26756C8.61337 18.5978 9.25972 19 10 19C11.1046 19 12 18.1046 12 17C12 15.8954 11.1046 15 10 15C9.25972 15 8.61337 15.4022 8.26756 16H7ZM6 27C5.44772 27 5 27.4477 5 28C5 28.5523 5.44772 29 6 29H30C30.5523 29 31 28.5523 31 28C31 27.4477 30.5523 27 30 27H6ZM29 23V18H27.7324C27.3866 18.5978 26.7403 19 26 19C24.8954 19 24 18.1046 24 17C24 15.8954 24.8954 15 26 15C26.7403 15 27.3866 15.4022 27.7324 16H29.9C30.5075 16 31 16.4925 31 17.1V23.9C31 24.5075 30.5075 25 29.9 25H6.1C5.49249 25 5 24.5075 5 23.9V21C5 20.4477 5.44772 20 6 20C6.55228 20 7 20.4477 7 21V23H29ZM16 17C16 15.8954 16.8954 15 18 15C19.1046 15 20 15.8954 20 17C20 18.1046 19.1046 19 18 19C16.8954 19 16 18.1046 16 17ZM18 13C15.7909 13 14 14.7909 14 17C14 19.2091 15.7909 21 18 21C20.2091 21 22 19.2091 22 17C22 14.7909 20.2091 13 18 13Z" fill="black"/>
</svg>
