<svg width="36" height="36" viewBox="0 0 36 36" fill="none" xmlns="http://www.w3.org/2000/svg">
<path fill-rule="evenodd" clip-rule="evenodd" d="M15 8H27V10H15V8ZM15 12V22.689H14.9881C14.996 22.7916 15 22.8953 15 23C15 25.2093 13.2093 27 11 27C8.79072 27 7 25.2093 7 23C7 20.7907 8.79072 19 11 19C11.7286 19 12.4117 19.1948 13 19.5351V7C13 6.44772 13.4477 6 14 6H28C28.5523 6 29 6.44772 29 7V22.689H28.9881C28.996 22.7916 29 22.8953 29 23C29 25.2093 27.2093 27 25 27C22.7907 27 21 25.2093 21 23C21 20.7907 22.7907 19 25 19C25.7286 19 26.4117 19.1948 27 19.5351V12H15ZM9 23C9 21.8953 9.89528 21 11 21C12.1047 21 13 21.8953 13 23C13 24.1047 12.1047 25 11 25C9.89528 25 9 24.1047 9 23ZM23 23C23 21.8953 23.8953 21 25 21C26.1047 21 27 21.8953 27 23C27 24.1047 26.1047 25 25 25C23.8953 25 23 24.1047 23 23Z" fill="black"/>
</svg>
