<svg width="36" height="36" viewBox="0 0 36 36" fill="none" xmlns="http://www.w3.org/2000/svg">
<path fill-rule="evenodd" clip-rule="evenodd" d="M9.34432 23.3074C7.4785 21.2922 6.44983 18.858 6.05159 17.1371C6.78728 15.7404 8.20081 13.7348 10.1926 12.0633C12.2587 10.3295 14.8902 9 17.9999 9C21.1097 9 23.7411 10.3295 25.8072 12.0633C27.799 13.7348 29.2125 15.7404 29.9482 17.1371C29.55 18.858 28.5213 21.2922 26.6555 23.3074C24.7461 25.3698 21.9592 27 17.9999 27C14.0406 27 11.2537 25.3698 9.34432 23.3074ZM17.9999 7C14.2893 7 11.2187 8.59139 8.90701 10.5313C6.60192 12.4656 4.99511 14.7909 4.18068 16.4014C4.02913 16.7011 3.98458 17.0386 4.05439 17.3683C4.4824 19.3902 5.66022 22.2721 7.87673 24.6662C10.1168 27.0857 13.4166 29 17.9999 29C22.5832 29 25.883 27.0857 28.1231 24.6662C30.3396 22.2721 31.5174 19.3902 31.9454 17.3683C32.0152 17.0386 31.9707 16.7011 31.8191 16.4014C31.0047 14.7909 29.3979 12.4656 27.0928 10.5313C24.7811 8.59139 21.7105 7 17.9999 7ZM8.92491 16.1819C9.37669 15.8643 10.0005 15.973 10.3181 16.4248C10.4618 16.6292 10.6327 16.8209 10.828 17C11.0552 17.2085 11.3154 17.4001 11.604 17.5751C11.8783 17.7414 12.1782 17.8928 12.5 18.0295C12.8644 18.1843 13.2568 18.3203 13.6715 18.4379C14.1069 18.5615 14.554 18.6611 15 18.7401C15.5076 18.8301 16.0138 18.8934 16.5 18.9349C17.0302 18.9803 17.5366 18.9998 17.995 19L18.0001 18.9999L18.0051 19C19.2532 18.9996 20.8574 18.8554 22.3287 18.4379C23.8259 18.0131 25.032 17.3494 25.6821 16.4248C25.9997 15.973 26.6235 15.8643 27.0753 16.1819C27.527 16.4996 27.6358 17.1234 27.3181 17.5751C26.5368 18.6863 25.3619 19.4349 24.1141 19.9398L24.8001 20.8545C25.1314 21.2963 25.0419 21.9231 24.6001 22.2545C24.1582 22.5859 23.5314 22.4963 23.2001 22.0545L22.1092 20.5999C22.0999 20.5876 22.091 20.5752 22.0824 20.5626C21.0214 20.8006 19.9527 20.9243 19.0001 20.9737V22.4999C19.0001 23.0522 18.5524 23.4999 18.0001 23.4999C17.4478 23.4999 17.0001 23.0522 17.0001 22.4999V20.9737C16.0474 20.9243 14.9787 20.8006 13.9177 20.5626C13.9159 20.5652 13.9141 20.5679 13.9122 20.5705C13.9081 20.5764 13.904 20.5823 13.8997 20.5881L12.8088 22.0881C12.484 22.5348 11.8586 22.6335 11.4119 22.3087C10.9652 21.9838 10.8665 21.3584 11.1913 20.9118L11.8955 19.9436C10.6441 19.4387 9.46529 18.6891 8.68205 17.5751C8.36439 17.1234 8.47312 16.4996 8.92491 16.1819Z" fill="black"/>
</svg>
