<svg width="36" height="36" viewBox="0 0 36 36" fill="none" xmlns="http://www.w3.org/2000/svg">
<path fill-rule="evenodd" clip-rule="evenodd" d="M25.1667 10.2919C19.4143 8.10069 13.8579 9.11624 10.8139 10.2726L18.0066 16.6564L25.1667 10.2919ZM8.08981 9.57377C8.17804 9.3793 8.32898 9.21149 8.53231 9.10384C11.5611 7.50036 19.4676 5.31303 27.4283 9.08389C27.6504 9.18912 27.8159 9.36562 27.9103 9.57311L27.9199 9.58886L30.8281 14.4359C31.0305 14.7732 31.0374 15.1929 30.8461 15.5366L25.9337 24.367C25.5957 24.9746 24.7857 25.1201 24.2574 24.6681L17.9944 19.3108L11.7447 24.6786C11.2164 25.1324 10.4047 24.9872 10.0665 24.3784L5.15405 15.536C4.96314 15.1924 4.97013 14.773 5.17238 14.4359L8.08067 9.58874L8.08981 9.57377ZM9.23765 11.5477L7.15481 15.0191L11.2788 22.4424L16.4798 17.9753L9.23765 11.5477ZM26.7633 11.5486L28.8455 15.0189L24.721 22.4329L19.5218 17.9855L26.7633 11.5486ZM17 22.9999H19V24.9999H17V22.9999ZM19 26.9999H17V28.9999H19V26.9999Z" fill="black"/>
</svg>
