<svg width="36" height="36" viewBox="0 0 36 36" fill="none" xmlns="http://www.w3.org/2000/svg">
<path fill-rule="evenodd" clip-rule="evenodd" d="M15.9838 5.29585L13.2364 11.1192C13.1966 11.2034 13.1275 11.2559 13.0558 11.2668L6.91311 12.2C5.07705 12.4798 4.36375 14.7766 5.6621 16.1008L10.1074 20.6332C10.1754 20.7025 10.2091 20.8108 10.1914 20.9188L9.14197 27.3192C8.83606 29.1816 10.7499 30.6363 12.4091 29.7247L17.9048 26.7025C17.9657 26.6691 18.0343 26.6691 18.0964 26.7031L23.5906 29.7245C25.2494 30.6366 27.164 29.1816 26.8581 27.3189L25.8088 20.919C25.791 20.8108 25.8247 20.7025 25.8925 20.6333L30.3379 16.1009C31.6369 14.7772 30.9235 12.4799 29.0882 12.2001L22.9431 11.2667C22.8729 11.256 22.8042 11.2038 22.7647 11.1198L20.0163 5.29585C19.2006 3.56805 16.7994 3.56805 15.9838 5.29585ZM18.2077 6.14967L20.9557 11.9727C21.2759 12.6526 21.9058 13.1316 22.642 13.244L28.7873 14.1773C28.9857 14.2076 29.0838 14.5234 28.9102 14.7002L24.4648 19.2328C23.9478 19.7597 23.7148 20.5096 23.8351 21.2428L24.8845 27.6428C24.9265 27.8987 24.7142 28.06 24.5543 27.972L19.0591 24.95C18.397 24.5869 17.6031 24.5869 16.9421 24.9495L11.4457 27.9721C11.2855 28.0601 11.0736 27.8989 11.1156 27.6431L12.165 21.2426C12.2853 20.5096 12.0522 19.7597 11.5352 19.2327L7.09007 14.7004C6.91656 14.5235 7.01466 14.2076 7.21395 14.1772L13.3567 13.2441C14.0936 13.1318 14.7233 12.6534 15.0448 11.9733L17.7925 6.14945C17.8866 5.95011 18.1135 5.95011 18.2077 6.14967Z" fill="black"/>
</svg>
