<svg width="36" height="36" viewBox="0 0 36 36" fill="none" xmlns="http://www.w3.org/2000/svg">
<path fill-rule="evenodd" clip-rule="evenodd" d="M18 10C18 7.23858 20.2386 5 23 5C25.7614 5 28 7.23858 28 10V12C28 12.5523 27.5523 13 27 13C26.4477 13 26 12.5523 26 12V10C26 8.34315 24.6569 7 23 7C21.3431 7 20 8.34315 20 10V14V18V20C20 20.5523 19.5523 21 19 21C18.4477 21 18 20.5523 18 20V19H15C14.4477 19 14 18.5523 14 18C14 17.4477 14.4477 17 15 17H18V15H15C14.4477 15 14 14.5523 14 14C14 13.4477 14.4477 13 15 13L18 13V10ZM6 15C5.44772 15 5 15.4477 5 16C5 16.5523 5.44772 17 6 17H9V20C9 20.5523 9.44772 21 10 21C10.5523 21 11 20.5523 11 20V10C11 8.34315 12.3431 7 14 7C14.7615 7 15.4546 7.28243 15.9841 7.74974C16.3982 8.1152 17.0301 8.0758 17.3956 7.66173C17.761 7.24766 17.7216 6.61573 17.3076 6.25026C16.4267 5.47284 15.2674 5 14 5C11.2386 5 9 7.23858 9 10V15H6ZM7.88801 23.2211C8.91122 23.6597 10.0709 23.6519 11.0882 23.1998L11.6096 22.9681C13.1391 22.2884 14.8924 22.3282 16.3894 23.0767C17.4033 23.5836 18.5967 23.5836 19.6106 23.0767C21.1076 22.3282 22.861 22.2884 24.3905 22.9681L24.9118 23.1998C25.9291 23.6519 27.0888 23.6597 28.112 23.2211L29.6061 22.5808C30.1137 22.3633 30.7016 22.5984 30.9192 23.106C31.1367 23.6137 30.9016 24.2016 30.3939 24.4191L28.8999 25.0594C27.365 25.7172 25.6255 25.7056 24.0996 25.0275L23.5782 24.7957C22.5948 24.3587 21.4675 24.3843 20.505 24.8656C18.9281 25.654 17.072 25.654 15.495 24.8656C14.5325 24.3843 13.4052 24.3587 12.4218 24.7957L11.9004 25.0275C10.3745 25.7056 8.63499 25.7172 7.10017 25.0594L5.60609 24.4191C5.09846 24.2016 4.86331 23.6137 5.08087 23.106C5.29842 22.5984 5.8863 22.3633 6.39393 22.5808L7.88801 23.2211ZM11.0882 27.1998C10.0709 27.6519 8.91122 27.6597 7.88801 27.2211L6.39393 26.5808C5.8863 26.3633 5.29842 26.5984 5.08087 27.106C4.86331 27.6137 5.09846 28.2016 5.60609 28.4191L7.10017 29.0594C8.63499 29.7172 10.3745 29.7056 11.9004 29.0275L12.4218 28.7957C13.4052 28.3587 14.5325 28.3843 15.495 28.8656C17.072 29.654 18.9281 29.654 20.505 28.8656C21.4675 28.3843 22.5948 28.3587 23.5782 28.7957L24.0996 29.0275C25.6255 29.7056 27.365 29.7172 28.8999 29.0594L30.3939 28.4191C30.9016 28.2016 31.1367 27.6137 30.9192 27.106C30.7016 26.5984 30.1137 26.3633 29.6061 26.5808L28.112 27.2211C27.0888 27.6597 25.9291 27.6519 24.9118 27.1998L24.3905 26.9681C22.861 26.2884 21.1076 26.3282 19.6106 27.0767C18.5967 27.5836 17.4033 27.5836 16.3894 27.0767C14.8924 26.3282 13.1391 26.2884 11.6096 26.9681L11.0882 27.1998ZM23 15C22.4477 15 22 15.4477 22 16C22 16.5523 22.4477 17 23 17H30C30.5523 17 31 16.5523 31 16C31 15.4477 30.5523 15 30 15H23Z" fill="black"/>
</svg>
