<svg width="36" height="36" viewBox="0 0 36 36" fill="none" xmlns="http://www.w3.org/2000/svg">
<path fill-rule="evenodd" clip-rule="evenodd" d="M14 6C13.4477 6 13 6.44772 13 7C13 7.55228 13.4477 8 14 8H22C22.5523 8 23 7.55228 23 7C23 6.44772 22.5523 6 22 6H14ZM8 12C8 10.8954 8.89543 10 10 10H26C27.1046 10 28 10.8954 28 12V29C28 30.1046 27.1046 31 26 31H10C8.89543 31 8 30.1046 8 29V12ZM26 12L10 12V29H26V12ZM12.9803 14.0002C13.5325 13.9893 13.989 14.4282 13.9998 14.9803C14.0473 17.3941 15.8311 19 18.0004 19C20.1695 19 21.9527 17.3943 22.0002 14.9803C22.0111 14.4282 22.4675 13.9893 23.0197 14.0002C23.5718 14.0111 24.0107 14.4675 23.9998 15.0197C23.9306 18.5388 21.2426 21 18.0004 21C14.7584 21 12.0694 18.539 12.0002 15.0197C11.9893 14.4675 12.4282 14.0111 12.9803 14.0002Z" fill="black"/>
</svg>
