<svg width="36" height="36" viewBox="0 0 36 36" fill="none" xmlns="http://www.w3.org/2000/svg">
<path fill-rule="evenodd" clip-rule="evenodd" d="M5 12C5 10.3431 6.34315 9 8 9H28C29.6569 9 31 10.3431 31 12V25C31 26.6569 29.6569 28 28 28H8C6.34315 28 5 26.6569 5 25V12ZM8 11C7.44772 11 7 11.4477 7 12V25C7 25.5523 7.44772 26 8 26H28C28.5523 26 29 25.5523 29 25V12C29 11.4477 28.5523 11 28 11H8ZM9 14C9 13.4477 9.44772 13 10 13H26C26.5523 13 27 13.4477 27 14C27 14.5523 26.5523 15 26 15H10C9.44772 15 9 14.5523 9 14ZM10 17C9.44772 17 9 17.4477 9 18C9 18.5523 9.44772 19 10 19H14.5L14.8 19.4C16.4 21.5333 19.6 21.5333 21.2 19.4L21.5 19H26C26.5523 19 27 18.5523 27 18C27 17.4477 26.5523 17 26 17H21.05C20.7038 17 20.3777 17.163 20.17 17.44L19.6 18.2C18.8 19.2667 17.2 19.2667 16.4 18.2L15.83 17.44C15.6223 17.163 15.2962 17 14.95 17H10Z" fill="black"/>
</svg>
