<svg width="36" height="36" viewBox="0 0 36 36" fill="none" xmlns="http://www.w3.org/2000/svg">
<path fill-rule="evenodd" clip-rule="evenodd" d="M6 11C6 10.4477 6.44772 10 7 10H16C16.5523 10 17 10.4477 17 11V26.5778C16.2843 26.2002 15.4838 26 14.6667 26H7C6.44772 26 6 25.5523 6 25V11ZM18 29.397C17.7448 29.4216 17.476 29.357 17.24 29.18L16.4667 28.6C15.9474 28.2105 15.3158 28 14.6667 28H7C5.34315 28 4 26.6569 4 25V11C4 9.34315 5.34315 8 7 8H16C16.7684 8 17.4692 8.28885 18 8.7639C18.5308 8.28885 19.2316 8 20 8H29C30.6569 8 32 9.34315 32 11V25C32 26.6569 30.6569 28 29 28H21.3333C20.6842 28 20.0526 28.2105 19.5333 28.6L18.76 29.18C18.524 29.357 18.2552 29.4216 18 29.397ZM19 26.5778C19.7157 26.2002 20.5162 26 21.3333 26H29C29.5523 26 30 25.5523 30 25V11C30 10.4477 29.5523 10 29 10H20C19.4477 10 19 10.4477 19 11V26.5778ZM14 15H8V13H14V15ZM22 15H28V13H22V15ZM14 19H8V17H14V19ZM22 19H28V17H22V19ZM14 23H8V21H14V23ZM22 23H28V21H22V23Z" fill="black"/>
</svg>
