<svg width="36" height="36" viewBox="0 0 36 36" fill="none" xmlns="http://www.w3.org/2000/svg">
<path fill-rule="evenodd" clip-rule="evenodd" d="M20.5364 20.3006L20.794 20.4286L20.9449 20.274L22.0453 19.1671C23.0665 18.1459 24.4909 18.1034 25.5436 19.0387L25.6787 19.1663L27.5064 20.9837L28.1845 21.6711C29.2268 22.7134 29.2702 24.1382 28.3148 25.2123L28.1845 25.3504L27.2839 26.2368L27.0743 26.4527C27.042 26.4867 27.0109 26.52 26.9804 26.5531L26.8017 26.7526C25.9703 27.668 24.9021 28.0531 23.6176 27.9941C22.2407 27.9267 20.9085 27.5151 19.4168 26.7829C16.6137 25.4148 14.1927 23.5208 12.1931 21.135C10.6039 19.2805 9.41073 17.3281 8.63835 15.2336C8.16193 13.9435 7.94329 12.851 8.01255 11.7083C8.07306 10.7786 8.44494 9.98042 9.12509 9.32877L9.28246 9.17739L10.5632 7.90903L10.8121 7.67195C11.8661 6.73538 13.2913 6.77793 14.3125 7.79914L15.5755 9.06214L16.5843 10.0631L16.9283 10.4226C17.8598 11.466 17.8603 12.7964 16.9416 13.8282L16.6904 14.0918L16.1945 14.5922L15.5549 15.2142C15.8217 15.7473 16.1695 16.2661 16.6256 16.8269C17.7311 18.1922 18.9438 19.3082 20.2605 20.1485L20.4355 20.2477C20.467 20.2646 20.5003 20.2821 20.5364 20.3006ZM12.8983 9.21336C12.6139 8.92897 12.3755 8.92897 12.0762 9.22838L11.8402 9.45723L10.8482 10.4435L10.5073 10.7743C10.1898 11.0785 10.0363 11.4078 10.0086 11.8337C9.9589 12.6539 10.1259 13.4885 10.5147 14.5413C11.2005 16.4011 12.2701 18.1513 13.7188 19.8419C15.5455 22.0213 17.7431 23.7406 20.296 24.9865C21.5653 25.6095 22.6486 25.9443 23.7123 25.9963C24.4297 26.0293 24.9162 25.8539 25.3071 25.4238C25.5093 25.1915 25.7015 24.9888 25.9824 24.7097L26.7703 23.9361C27.0768 23.6297 27.0768 23.3918 26.7615 23.0764L26.2664 22.5732L24.2648 20.5808C23.9814 20.297 23.7439 20.297 23.4582 20.5827L22.5159 21.5286L21.9125 22.1494C21.4662 22.5957 20.8972 22.7095 20.3212 22.4232L19.687 22.1124L19.4416 21.9836L19.2087 21.8494C17.6775 20.8727 16.3066 19.6111 15.0726 18.0872C14.3964 17.2557 13.8981 16.4679 13.5188 15.5671C13.3143 15.025 13.4259 14.4995 13.843 14.0856L14.5733 13.3808L15.0283 12.9304C15.0743 12.884 15.1194 12.8382 15.1643 12.7923L15.456 12.4887C15.6837 12.2291 15.6826 12.0335 15.4424 11.7617L15.1572 11.4645L12.8983 9.21336Z" fill="black"/>
<path d="M25.0002 12.4142L22.7074 14.7071C22.3168 15.0976 21.6837 15.0976 21.2931 14.7071C20.9026 14.3166 20.9026 13.6834 21.2931 13.2929L23.586 11L21.2931 8.70711C20.9026 8.31658 20.9026 7.68342 21.2931 7.29289C21.6837 6.90237 22.3168 6.90237 22.7074 7.29289L25.0002 9.58579L27.2931 7.29289C27.6837 6.90237 28.3168 6.90237 28.7073 7.29289C29.0979 7.68342 29.0979 8.31658 28.7073 8.70711L26.4145 11L28.7073 13.2929C29.0979 13.6834 29.0979 14.3166 28.7073 14.7071C28.3168 15.0976 27.6837 15.0976 27.2931 14.7071L25.0002 12.4142Z" fill="black"/>
</svg>
