<svg width="36" height="36" viewBox="0 0 36 36" fill="none" xmlns="http://www.w3.org/2000/svg">
<path fill-rule="evenodd" clip-rule="evenodd" d="M7 12C7 10.3431 8.34315 9 10 9H24C25.6569 9 27 10.3431 27 12V21C27 22.6569 25.6569 24 24 24H10C8.34315 24 7 22.6569 7 21V12ZM10 11C9.44772 11 9 11.4477 9 12V21C9 21.5523 9.44772 22 10 22H24C24.5523 22 25 21.5523 25 21V12C25 11.4477 24.5523 11 24 11H10ZM30.4472 25.1056C30.9412 25.3526 31.1414 25.9532 30.8945 26.4472C30.505 27.2262 29.8787 27.6429 29.3449 27.839C28.8265 28.0295 28.2519 27.7636 28.0614 27.2452C27.8709 26.7268 28.1367 26.1522 28.6551 25.9617C28.8107 25.9046 28.9874 25.7891 29.1056 25.5528C29.3526 25.0588 29.9533 24.8586 30.4472 25.1056ZM31 20.5C31 19.9477 30.5523 19.5 30 19.5C29.4477 19.5 29 19.9477 29 20.5V22C29 22.5523 29.4477 23 30 23C30.5523 23 31 22.5523 31 22V20.5ZM30 15C30.5523 15 31 15.4477 31 16V17C31 17.5523 30.5523 18 30 18C29.4477 18 29 17.5523 29 17V16C29 15.4477 29.4477 15 30 15ZM23.5 26C22.9477 26 22.5 26.4477 22.5 27C22.5 27.5523 22.9477 28 23.5 28H25C25.5523 28 26 27.5523 26 27C26 26.4477 25.5523 26 25 26H23.5ZM17 27C17 26.4477 17.4477 26 18 26H19.5C20.0523 26 20.5 26.4477 20.5 27C20.5 27.5523 20.0523 28 19.5 28H18C17.4477 28 17 27.5523 17 27ZM13.5 26C12.9477 26 12.5 26.4477 12.5 27C12.5 27.5523 12.9477 28 13.5 28H14.5C15.0523 28 15.5 27.5523 15.5 27C15.5 26.4477 15.0523 26 14.5 26H13.5Z" fill="black"/>
</svg>
