<svg width="36" height="36" viewBox="0 0 36 36" fill="none" xmlns="http://www.w3.org/2000/svg">
<path fill-rule="evenodd" clip-rule="evenodd" d="M13.3572 5C13.148 5 12.944 5.06564 12.774 5.18768L4.41686 11.1877C4.0641 11.4409 3.91512 11.8929 4.04814 12.3063C4.18117 12.7197 4.5658 13 5.00007 13H8V26C8 26.5523 8.44772 27 9 27C9.55228 27 10 26.5523 10 26V13H12V15.5C12 15.7761 12.2239 16 12.5 16H13.5C13.7761 16 14 15.7761 14 15.5V13H15V15.5C15 15.7761 15.2239 16 15.5 16H16.5C16.7761 16 17 15.7761 17 15.5V13H19V15.5C19 15.7761 19.2239 16 19.5 16H20.5C20.7761 16 21 15.7761 21 15.5V13H22V15.5C22 15.7761 22.2239 16 22.5 16H23.5C23.6738 16 23.8269 15.9114 23.9165 15.7767C23.9692 15.6975 24 15.6023 24 15.5V13H26V18H13C12.4477 18 12 18.4477 12 19C12 19.5523 12.4477 20 13 20H26V26C26 26.5523 26.4477 27 27 27C27.5523 27 28 26.5523 28 26V13H31.0001C31.4343 13 31.819 12.7197 31.952 12.3063C32.085 11.8929 31.936 11.4409 31.5833 11.1877L23.2261 5.18768C23.0562 5.06564 22.8522 5 22.6429 5H13.3572ZM27.8926 11L22.3211 7H13.679L8.10758 11H27.8926Z" fill="black"/>
<path d="M5 18C5.27614 18 5.5 18.2239 5.5 18.5L6.43961 25.0773C6.47892 25.2114 6.5 25.3532 6.5 25.5C6.5 26.3284 5.82843 27 5 27C4.17157 27 3.5 26.3284 3.5 25.5C3.5 25.3532 3.52108 25.2114 3.56039 25.0773L4.5 18.5C4.5 18.2239 4.72386 18 5 18Z" fill="black"/>
<path d="M24 24.5C24 23.1193 22.8807 22 21.5 22C20.1193 22 19 23.1193 19 24.5V26C19 26.5523 19.4477 27 20 27H23C23.5523 27 24 26.5523 24 26V24.5Z" fill="black"/>
<path d="M3 30C3 29.4477 3.44772 29 4 29H32C32.5523 29 33 29.4477 33 30C33 30.5523 32.5523 31 32 31H4C3.44772 31 3 30.5523 3 30Z" fill="black"/>
<path d="M14.5 22C15.8807 22 17 23.1193 17 24.5V26C17 26.5523 16.5523 27 16 27H13C12.4477 27 12 26.5523 12 26V24.5C12 23.1193 13.1193 22 14.5 22Z" fill="black"/>
<path d="M31.5 18.5C31.5 18.2239 31.2761 18 31 18C30.7239 18 30.5 18.2239 30.5 18.5L29.5604 25.0773C29.5211 25.2114 29.5 25.3532 29.5 25.5C29.5 26.3284 30.1716 27 31 27C31.8284 27 32.5 26.3284 32.5 25.5C32.5 25.3532 32.4789 25.2114 32.4396 25.0773L31.5 18.5Z" fill="black"/>
</svg>
