<svg width="36" height="36" viewBox="0 0 36 36" fill="none" xmlns="http://www.w3.org/2000/svg">
<path fill-rule="evenodd" clip-rule="evenodd" d="M12 26V10H24V26C24 26.5523 23.5523 27 23 27H13C12.4477 27 12 26.5523 12 26ZM10 9C10 8.44772 10.4477 8 11 8H25C28.866 8 32 11.134 32 15V16C32 19.5265 29.3923 22.4439 26 22.9291V26C26 27.6569 24.6569 29 23 29H13C11.3431 29 10 27.6569 10 26V24.3663C9.90851 24.3135 9.82389 24.2452 9.75013 24.1616L2.31229 15.732C1.92798 15.2965 1.94856 14.6372 2.35929 14.2264L4.22544 12.3603C4.64064 11.9451 5.30873 11.9292 5.7432 12.3242L10 16.194V9ZM10 21.4219L4.37137 15.0428L5.03284 14.3813L9.8273 18.7399C9.88133 18.789 9.93927 18.8311 10 18.8662V21.4219ZM30 16C30 18.419 28.2822 20.4367 26 20.9V10.1C28.2822 10.5633 30 12.581 30 15V16ZM17.5 13.5H15.5V15.5C15.5 16.0523 15.0523 16.5 14.5 16.5C13.9477 16.5 13.5 16.0523 13.5 15.5V12.6C13.5 11.9925 13.9925 11.5 14.6 11.5H17.5C18.0523 11.5 18.5 11.9477 18.5 12.5C18.5 13.0523 18.0523 13.5 17.5 13.5Z" fill="black"/>
</svg>
