<svg width="36" height="36" viewBox="0 0 36 36" fill="none" xmlns="http://www.w3.org/2000/svg">
<path fill-rule="evenodd" clip-rule="evenodd" d="M21.4571 7.99097C22.3471 8.85024 22.8133 10.0867 22.8133 11.3974V25.8215C22.8133 27.0917 22.366 28.2919 21.4655 29.0687L21.4549 29.0778C20.7459 29.6706 19.7478 29.9684 18.7921 29.775L7.78953 27.7982L7.78144 27.7966C6.8725 27.6162 6.17025 26.949 5.71975 26.1956C5.2607 25.4278 4.99169 24.4627 5.0002 23.4674V12.916C5.0002 11.935 5.27063 11.0224 5.73846 10.3084C6.20135 9.602 6.89979 9.03522 7.76232 8.89369L18.7717 7.03399C19.8322 6.86298 20.8089 7.36123 21.4571 7.99097ZM19.0631 8.82378L8.0568 10.683C7.82167 10.7213 7.51908 10.8995 7.25516 11.3023C6.99566 11.6983 6.81352 12.2601 6.81352 12.916V23.48C6.80721 24.1524 6.9921 24.79 7.27609 25.265C7.56673 25.7511 7.89461 25.9677 8.12828 26.0167L19.1352 27.9943L19.1469 27.9967C19.5183 28.0736 19.9638 27.9579 20.2864 27.691C20.6984 27.3323 21 26.6868 21 25.8215V11.3974C21 10.5046 20.6838 9.76443 20.1969 9.29479L20.1942 9.29224C19.8102 8.91877 19.3813 8.77367 19.0631 8.82378ZM24.1889 8.2973C24.5346 7.93509 25.1085 7.92174 25.4707 8.26748C26.3722 9.128 26.8312 10.323 26.8133 11.537L26.8133 25.4937C26.8133 26.715 26.3665 27.883 25.47 28.6227C25.0837 28.9413 24.5123 28.8866 24.1936 28.5003C23.875 28.114 23.9298 27.5426 24.316 27.2239C24.7067 26.9016 25 26.2997 25 25.4937L25 11.5225L25.0001 11.5151C25.0124 10.7687 24.7312 10.0684 24.2187 9.57916C23.8565 9.23342 23.8431 8.6595 24.1889 8.2973ZM28.2364 9.29804C28.5818 8.93544 29.1556 8.92144 29.5182 9.26677C30.3866 10.0938 30.8313 11.2404 30.8133 12.4087V24.6224C30.8133 25.8721 30.2263 26.9672 29.3886 27.6331C28.9966 27.9446 28.4262 27.8795 28.1147 27.4875C27.8031 27.0955 27.8683 26.5251 28.2602 26.2136C28.6776 25.8818 29 25.3035 29 24.6224V12.3934L29.0001 12.3856C29.0121 11.6903 28.7489 11.0381 28.2677 10.5799C27.9051 10.2345 27.8911 9.66064 28.2364 9.29804Z" fill="black"/>
</svg>
