<svg width="36" height="36" viewBox="0 0 36 36" fill="none" xmlns="http://www.w3.org/2000/svg">
<path fill-rule="evenodd" clip-rule="evenodd" d="M18 36C27.9411 36 36 27.9411 36 18C36 8.05887 27.9411 0 18 0C8.05887 0 0 8.05887 0 18C0 27.9411 8.05887 36 18 36ZM13.6887 18.2744L23.0145 8.93203C23.0311 8.91546 23.0529 8.90522 23.0762 8.90309L27.3755 8.51146C27.4394 8.50564 27.4921 8.56056 27.4837 8.62412L26.9375 12.766C26.9347 12.7877 26.9248 12.8078 26.9094 12.8233L17.6154 22.2011L18.7071 23.2928C19.0976 23.6833 19.0976 24.3165 18.7071 24.707C18.3166 25.0976 17.6834 25.0976 17.2929 24.707L11.2929 18.707C10.9023 18.3165 10.9023 17.6833 11.2929 17.2928C11.6834 16.9023 12.3166 16.9023 12.7071 17.2928L13.6887 18.2744ZM12.1428 21.1314L14.7625 23.7511L11.2714 27.2423C10.8808 27.6328 10.2477 27.6328 9.85715 27.2423L8.65166 26.0368C8.26113 25.6463 8.26113 25.0131 8.65166 24.6226L12.1428 21.1314Z" fill="black"/>
</svg>
