<svg width="36" height="36" viewBox="0 0 36 36" fill="none" xmlns="http://www.w3.org/2000/svg">
<path fill-rule="evenodd" clip-rule="evenodd" d="M18 36C27.9411 36 36 27.9411 36 18C36 8.05887 27.9411 0 18 0C8.05887 0 0 8.05887 0 18C0 27.9411 8.05887 36 18 36ZM7.5 21.5V14C7.5 10.6863 10.1863 8 13.5 8H14.5572C14.7207 8 14.8739 8.07996 14.9674 8.2141L17.5 11.8478V29H12.5C12.2239 29 12 28.7761 12 28.5V23V22V14C12 13.4477 11.5523 13 11 13C10.4477 13 10 13.4477 10 14V22H8C7.72386 22 7.5 21.7761 7.5 21.5ZM18.5 29V11.8478L21.0326 8.2141C21.1261 8.07996 21.2793 8 21.4428 8H22.5C25.8137 8 28.5 10.6863 28.5 14V21.5C28.5 21.7761 28.2761 22 28 22H26V14C26 13.4477 25.5523 13 25 13C24.4477 13 24 13.4477 24 14V22V23V28.5C24 28.7761 23.7761 29 23.5 29H18.5ZM14 21C13.4477 21 13 21.4477 13 22C13 22.5523 13.4477 23 14 23H15C15.5523 23 16 22.5523 16 22C16 21.4477 15.5523 21 15 21H14ZM20 22C20 21.4477 20.4477 21 21 21H22C22.5523 21 23 21.4477 23 22C23 22.5523 22.5523 23 22 23H21C20.4477 23 20 22.5523 20 22Z" fill="black"/>
</svg>
