<svg width="36" height="36" viewBox="0 0 36 36" fill="none" xmlns="http://www.w3.org/2000/svg">
<path fill-rule="evenodd" clip-rule="evenodd" d="M18 36C8.05887 36 0 27.9411 0 18C0 8.05887 8.05887 0 18 0C27.9411 0 36 8.05887 36 18C36 27.9411 27.9411 36 18 36ZM8 10C6.89543 10 6 10.8954 6 12V24C6 25.1046 6.89543 26 8 26H28C29.1046 26 30 25.1046 30 24V12C30 10.8954 29.1046 10 28 10H8ZM10 23H8V25H10V23ZM11 23H13V25H11V23ZM16 23H14V25H16V23ZM13.7361 17.236L17.3636 20.8636C17.715 21.215 18.2849 21.215 18.6363 20.8636L22.2639 17.2361C23.2227 16.2773 23.2227 14.7227 22.2639 13.7638C21.1219 12.6219 19.2074 12.8745 18.4007 14.2736L17.9999 14.9687L17.5992 14.2736C16.7925 12.8745 14.878 12.6219 13.7361 13.7639C12.7773 14.7227 12.7773 16.2772 13.7361 17.236Z" fill="black"/>
</svg>
