<svg width="36" height="36" viewBox="0 0 36 36" fill="none" xmlns="http://www.w3.org/2000/svg">
<path fill-rule="evenodd" clip-rule="evenodd" d="M18 36C27.9411 36 36 27.9411 36 18C36 8.05887 27.9411 0 18 0C8.05887 0 0 8.05887 0 18C0 27.9411 8.05887 36 18 36ZM7 15.7472V15.5C7 11.9101 9.91015 9 13.5 9H13.7392C17.1969 9 20 11.8031 20 15.2608V16.2063C20 17.0609 19.8369 17.9077 19.5195 18.7012C19.1741 19.5647 18.74 20.3901 18.224 21.164L17.8257 21.7615C17.2873 22.5691 17 23.5179 17 24.4885C17 26.4278 15.4278 28 13.4885 28H13.3062C11.424 28 9.84275 26.5848 9.6349 24.7141L9.60297 24.4268C9.53461 23.8115 9.3875 23.2075 9.16527 22.6297L7.44973 18.1693C7.15245 17.3964 7 16.5753 7 15.7472ZM12 15.5C12 14.7569 12.7008 14 13.5 14C14.2992 14 15 14.7569 15 15.5C15 16.0523 15.4477 16.5 16 16.5C16.5523 16.5 17 16.0523 17 15.5C17 13.7117 15.4623 12 13.5 12C11.5378 12 10 13.7117 10 15.5C10 16.8924 10.5417 17.8762 11.3002 18.563C11.7869 19.0036 12 19.4021 12 19.7361V21.5C12 22.0523 12.4477 22.5 13 22.5C13.5523 22.5 14 22.0523 14 21.5V19.7361C14 18.555 13.279 17.6566 12.6425 17.0803C12.2821 16.7541 12 16.3002 12 15.5ZM22.2929 10.2929C22.6834 9.90237 23.3166 9.90237 23.7071 10.2929L26 12.5858L28.2929 10.2929C28.6834 9.90237 29.3166 9.90237 29.7071 10.2929C30.0976 10.6834 30.0976 11.3166 29.7071 11.7071L27.4142 14L29.7071 16.2929C30.0976 16.6834 30.0976 17.3166 29.7071 17.7071C29.3166 18.0976 28.6834 18.0976 28.2929 17.7071L26 15.4142L23.7071 17.7071C23.3166 18.0976 22.6834 18.0976 22.2929 17.7071C21.9024 17.3166 21.9024 16.6834 22.2929 16.2929L24.5858 14L22.2929 11.7071C21.9024 11.3166 21.9024 10.6834 22.2929 10.2929Z" fill="black"/>
</svg>
