<svg width="36" height="36" viewBox="0 0 36 36" fill="none" xmlns="http://www.w3.org/2000/svg">
<path fill-rule="evenodd" clip-rule="evenodd" d="M36 18C36 8.05887 27.9411 0 18 0C8.05887 0 0 8.05887 0 18C0 27.9411 8.05887 36 18 36C27.9411 36 36 27.9411 36 18ZM17.0002 20V5C17.0002 4.44775 16.5524 4 16.0002 4C15.4479 4 15.0002 4.44775 15.0002 5V20H11.4999C10.3954 20 9.49994 20.8954 9.49994 22V23H22.4999V22C22.4999 20.8954 21.6044 20 20.4999 20H17.0002ZM9.33685 29.5885C9.039 28.9196 8.66278 27.4225 9.57025 25H22.4999C22.999 25.9978 23.5678 26.9956 25.8398 28.0367C26.2612 28.1544 26.5702 28.5411 26.5702 29C26.5702 29.5522 26.1225 30 25.5702 30C25.5466 30 25.5231 29.9991 25.4999 29.9976V30L10.0453 30.0001C9.85467 30.0001 9.6701 29.9449 9.52923 29.8345C9.51165 29.8207 9.49481 29.806 9.47869 29.7905C9.42035 29.7344 9.37176 29.6671 9.33685 29.5885Z" fill="black"/>
</svg>
