<svg width="36" height="36" viewBox="0 0 36 36" fill="none" xmlns="http://www.w3.org/2000/svg">
<path fill-rule="evenodd" clip-rule="evenodd" d="M18 36C27.9411 36 36 27.9411 36 18C36 8.05887 27.9411 0 18 0C8.05887 0 0 8.05887 0 18C0 27.9411 8.05887 36 18 36ZM13.6654 9.04099C13.8648 8.42066 14.4419 8 15.0934 8H20.9066C21.5582 8 22.1352 8.42066 22.3346 9.04099L25.9123 20.1716C26.2028 21.0753 25.5287 22 24.5795 22H11.4205C10.4713 22 9.79723 21.0753 10.0877 20.1716L13.6654 9.04099ZM18 23C18.5523 23 19 23.4477 19 24V27H22C22.5523 27 23 27.4477 23 28C23 28.5523 22.5523 29 22 29H14C13.4477 29 13 28.5523 13 28C13 27.4477 13.4477 27 14 27H17V24C17 23.4477 17.4477 23 18 23Z" fill="black"/>
</svg>
