<svg width="36" height="36" viewBox="0 0 36 36" fill="none" xmlns="http://www.w3.org/2000/svg">
<path fill-rule="evenodd" clip-rule="evenodd" d="M18 36C27.9411 36 36 27.9411 36 18C36 8.05887 27.9411 0 18 0C8.05887 0 0 8.05887 0 18C0 27.9411 8.05887 36 18 36ZM30 15C30 15.5523 29.5523 16 29 16H7C6.44772 16 6 15.5523 6 15C6 14.4477 6.44772 14 7 14H14.94L17.0296 6.75615C17.3103 5.78284 18.6896 5.7826 18.9704 6.75614L21.06 14H29C29.5523 14 30 14.4477 30 15ZM10 19C10 18.4477 10.4477 18 11 18H25C25.5523 18 26 18.4477 26 19C26 19.5523 25.5523 20 25 20H22.3941L24.7973 26.2852C25.2019 27.3433 23.9359 28.2483 23.0656 27.5231L18 23.3017L12.9195 27.5354C12.0608 28.251 10.806 27.3784 11.178 26.3243L13.4101 20H11C10.4477 20 10 19.5523 10 19Z" fill="black"/>
</svg>
