<svg width="36" height="36" viewBox="0 0 36 36" fill="none" xmlns="http://www.w3.org/2000/svg">
<path fill-rule="evenodd" clip-rule="evenodd" d="M18 36C27.9412 36 36 27.9412 36 18C36 8.05884 27.9412 0 18 0C8.05884 0 0 8.05884 0 18C0 27.9412 8.05884 36 18 36ZM16.0869 8.78186C14.6323 8.9917 13.0786 8.99963 12.095 9C12.0513 8.9989 12.0159 8.96851 12.0042 8.9281C12.0015 8.91858 12 8.90845 12 8.89807C12.0542 3.98633 16.02 3 18.9995 3L19.522 3.05225C22.0637 3.3064 23.9995 5.44543 23.9995 8C23.9995 8.54968 23.5562 8.99573 23.0073 9H21.6182L20.9839 7.73169C20.5588 6.88159 19.4773 6.99341 19.0635 7.62573C18.9263 7.83569 18.6226 8.078 18.0645 8.30029C17.521 8.51672 16.8381 8.67346 16.0869 8.78186ZM13.5 12.5V10.9845C14.3652 10.9614 15.3831 10.9041 16.3723 10.7614C17.2041 10.6415 18.0579 10.4557 18.8044 10.1584C19.1184 10.0334 19.4336 9.88074 19.7278 9.69153L20.0779 10.3918C20.2644 10.7645 20.6453 11 21.0618 11H22.5V12.5C22.5 14.9852 20.4854 17 18 17C15.5149 17 13.5 14.9852 13.5 12.5ZM12.5464 19C9.24951 19 6.85498 22.1349 7.72266 25.3156L8.69873 28.8947C8.87671 29.5472 9.46948 30 10.1458 30H25.8545C26.5308 30 27.1235 29.5472 27.3015 28.8947L28.2776 25.3156C29.145 22.1349 26.7507 19 23.4539 19H19.332L21.8425 24.4391C22.179 25.168 21.6465 26 20.8438 26H15.1562C14.3535 26 13.821 25.168 14.1575 24.4391L16.668 19H12.5464ZM16.563 24L18 20.8864L19.437 24H16.563Z" fill="black"/>
</svg>
