<svg width="36" height="36" viewBox="0 0 36 36" fill="none" xmlns="http://www.w3.org/2000/svg">
<path fill-rule="evenodd" clip-rule="evenodd" d="M18 36C27.9411 36 36 27.9411 36 18C36 8.05887 27.9411 0 18 0C8.05887 0 0 8.05887 0 18C0 27.9411 8.05887 36 18 36ZM11.5813 12.1863C11.1318 11.8653 10.5073 11.9694 10.1863 12.4188C9.86527 12.8682 9.96937 13.4927 10.4188 13.8137L16.605 18.2325C17.4395 18.8285 18.5605 18.8286 19.395 18.2325L25.5813 13.8137C26.0307 13.4927 26.1348 12.8682 25.8137 12.4188C25.4927 11.9694 24.8682 11.8653 24.4188 12.1863L18.2325 16.605C18.0934 16.7044 17.9066 16.7044 17.7675 16.605L11.5813 12.1863ZM9 25H17.3998C16.5824 23.5854 17.0481 21.7713 18.4544 20.9275L19.4085 20.355C21.3191 19.2086 23.7123 19.2487 25.5816 20.4512L26.4543 19.9275C26.9391 19.6366 27.4731 19.4986 28 19.4995V11C28 10.4477 27.5523 10 27 10H9C8.44772 10 8 10.4477 8 11V24C8 24.5523 8.44772 25 9 25ZM28.5145 23.3575C28.9881 23.0733 29.1417 22.4591 28.8575 21.9855C28.5734 21.5119 27.9591 21.3584 27.4855 21.6425L26.5314 22.215C25.9188 22.5826 25.1492 22.5643 24.5547 22.1679C23.3172 21.3429 21.715 21.3048 20.4397 22.07L19.4855 22.6425C19.012 22.9267 18.8584 23.5409 19.1425 24.0145C19.4267 24.4881 20.0409 24.6416 20.5145 24.3575L21.4687 23.785C22.0813 23.4174 22.8509 23.4357 23.4453 23.832C24.6829 24.6571 26.285 24.6952 27.5604 23.93L28.5145 23.3575ZM28.8575 25.9855C29.1417 26.4591 28.9881 27.0733 28.5145 27.3575L27.5604 27.93C26.285 28.6952 24.6829 28.6571 23.4453 27.832C22.8509 27.4357 22.0813 27.4174 21.4687 27.785L20.5145 28.3575C20.0409 28.6416 19.4267 28.4881 19.1425 28.0145C18.8584 27.5409 19.012 26.9267 19.4855 26.6425L20.4397 26.07C21.715 25.3048 23.3172 25.3429 24.5547 26.1679C25.1492 26.5642 25.9188 26.5826 26.5314 26.215L27.4855 25.6425C27.9591 25.3584 28.5734 25.5119 28.8575 25.9855Z" fill="black"/>
</svg>
