<svg width="36" height="36" viewBox="0 0 36 36" fill="none" xmlns="http://www.w3.org/2000/svg">
<path fill-rule="evenodd" clip-rule="evenodd" d="M18 36C27.9411 36 36 27.9411 36 18C36 8.05887 27.9411 0 18 0C8.05887 0 0 8.05887 0 18C0 27.9411 8.05887 36 18 36ZM8 12C8 11.4477 8.44772 11 9 11H27C27.5523 11 28 11.4477 28 12V25C28 25.5523 27.5523 26 27 26H9C8.44772 26 8 25.5523 8 25V12ZM10.2672 14.3196C10.643 13.9148 11.2757 13.8914 11.6805 14.2672L17.7278 19.8826C17.8813 20.0251 18.1187 20.0251 18.2722 19.8826L24.3196 14.2672C24.7243 13.8914 25.357 13.9148 25.7328 14.3196C26.1086 14.7243 26.0852 15.357 25.6805 15.7328L19.6331 21.3482C18.7123 22.2033 17.2878 22.2033 16.3669 21.3482L10.3196 15.7328C9.91484 15.357 9.89141 14.7243 10.2672 14.3196Z" fill="black"/>
</svg>
