<svg width="36" height="36" viewBox="0 0 36 36" fill="none" xmlns="http://www.w3.org/2000/svg">
<path fill-rule="evenodd" clip-rule="evenodd" d="M18 36C27.9411 36 36 27.9411 36 18C36 8.05887 27.9411 0 18 0C8.05887 0 0 8.05887 0 18C0 27.9411 8.05887 36 18 36ZM23.9995 7.49997C23.9409 7.49991 23.8842 7.51009 23.8315 7.52895C23.6885 7.57984 23.5773 7.69329 23.5277 7.83402C23.513 7.87596 23.5037 7.92032 23.5006 7.96616C23.4496 8.56083 23.2067 9.46163 22.6566 10.2017C22.1189 10.925 21.2881 11.5 19.9995 11.5C19.7234 11.5 19.4995 11.7239 19.4995 12C19.4995 12.2761 19.7234 12.5 19.9995 12.5C21.2881 12.5 22.1189 13.075 22.6566 13.7983C23.2067 14.5384 23.4496 15.4392 23.5006 16.0338C23.5037 16.0797 23.513 16.124 23.5278 16.166C23.5779 16.3089 23.6906 16.4204 23.8306 16.4707C23.8836 16.4898 23.9406 16.5001 23.9995 16.5C24.0585 16.5001 24.1154 16.4898 24.1684 16.4707C24.3109 16.4197 24.4218 16.3064 24.4713 16.166C24.4861 16.124 24.4954 16.0797 24.4985 16.0338C24.5494 15.4392 24.7923 14.5384 25.3425 13.7983C25.8801 13.075 26.7109 12.5 27.9995 12.5C28.2757 12.5 28.4995 12.2761 28.4995 12C28.4995 11.7239 28.2757 11.5 27.9995 11.5C26.7109 11.5 25.8801 10.925 25.3425 10.2017C24.7923 9.46163 24.5494 8.56083 24.4985 7.96616C24.4954 7.92032 24.4861 7.87596 24.4713 7.83402C24.421 7.69079 24.308 7.57915 24.1676 7.52895C24.1148 7.51009 24.0582 7.49991 23.9995 7.49997ZM12.016 23.9841C10.0582 22.0051 7.36825 18.661 6.99953 14.0002C6.90843 12.8488 7.36549 11.69 8.24178 10.8231L9.35139 9.72541C10.2638 8.82279 11.6611 8.7559 12.4725 9.57601L14.676 11.8034C15.4873 12.6235 15.4054 14.0201 14.493 14.9227L13.1831 16.2186C12.964 16.4353 12.8345 16.7239 12.9116 16.9965C13.1361 17.7899 13.8971 19.277 15.3201 20.7154C16.7431 22.1539 18.2221 22.9307 19.013 23.1636C19.2848 23.2437 19.5748 23.1173 19.7938 22.9006L21.1037 21.6047C22.0161 20.7021 23.4135 20.6352 24.2248 21.4553L26.4283 23.6827C27.2396 24.5028 27.1577 25.8994 26.2453 26.802L25.1357 27.8997C23.9995 29.0002 22.65 29.1037 21.4995 29.0002C16.843 28.5813 13.9739 25.9631 12.016 23.9841Z" fill="black"/>
</svg>
