<svg width="36" height="36" viewBox="0 0 36 36" fill="none" xmlns="http://www.w3.org/2000/svg">
<path fill-rule="evenodd" clip-rule="evenodd" d="M36 18C36 8.05887 27.9411 0 18 0C8.05887 0 0 8.05887 0 18C0 27.9411 8.05887 36 18 36C27.9411 36 36 27.9411 36 18ZM23.4853 27H28C29.1046 27 30 26.1046 30 25V24.8284C30 24.298 29.7893 23.7893 29.4142 23.4142L24.5858 18.5858C24.2107 18.2107 24 17.702 24 17.1716V17H22C21.4477 17 21 16.5523 21 16C21 15.4477 21.4477 15 22 15H24V13H22C21.4477 13 21 12.5523 21 12C21 11.4477 21.4477 11 22 11H24V9C24 8.44772 23.5523 8 23 8H20.7722C20.2882 8 19.8347 8.23612 19.5572 8.6326L19.2399 9.08577C18.2973 10.4325 16.1881 9.88147 16.0246 8.24578C16.0082 8.08243 15.9738 7.92141 15.9219 7.76567L15.8605 7.58167C15.6452 6.93571 15.0407 6.5 14.3598 6.5H13.8756C13.3174 6.5 12.7847 6.73328 12.406 7.14344L7.65167 12.294C7.28761 12.6884 7.29984 13.2999 7.67937 13.6794L19.2426 25.2426C20.3678 26.3679 21.894 27 23.4853 27ZM6 21C5.44772 21 5 21.4477 5 22C5 22.5523 5.44772 23 6 23H11C11.5523 23 12 22.5523 12 22C12 21.4477 11.5523 21 11 21H6ZM7 26C7 25.4477 7.44772 25 8 25H15C15.5523 25 16 25.4477 16 26C16 26.5523 15.5523 27 15 27H8C7.44772 27 7 26.5523 7 26ZM5 17C4.44772 17 4 17.4477 4 18C4 18.5523 4.44772 19 5 19H7C7.55228 19 8 18.5523 8 18C8 17.4477 7.55228 17 7 17H5ZM10.7929 12.2929C11.1834 11.9024 11.8166 11.9024 12.2071 12.2929L21.7426 21.8284C22.4928 22.5786 23.5102 23 24.5711 23H26.5C27.0523 23 27.5 23.4477 27.5 24C27.5 24.5523 27.0523 25 26.5 25H24.5711C22.9798 25 21.4536 24.3679 20.3284 23.2426L10.7929 13.7071C10.4024 13.3166 10.4024 12.6834 10.7929 12.2929Z" fill="black"/>
</svg>
