<svg width="36" height="36" viewBox="0 0 36 36" fill="none" xmlns="http://www.w3.org/2000/svg">
<path fill-rule="evenodd" clip-rule="evenodd" d="M36 18C36 8.05887 27.9411 0 18 0C8.05887 0 0 8.05887 0 18C0 27.9411 8.05887 36 18 36C27.9411 36 36 27.9411 36 18ZM6 16C5.44772 16 5 16.4477 5 17C5 17.5523 5.44772 18 6 18H9V21C9 21.5523 9.44772 22 10 22C10.5523 22 11 21.5523 11 21V11C11 9.34315 12.3431 8 14 8C14.7615 8 15.4546 8.28243 15.9841 8.74974C16.3982 9.1152 17.0301 9.0758 17.3956 8.66173C17.761 8.24766 17.7216 7.61573 17.3076 7.25026C16.4267 6.47284 15.2674 6 14 6C11.2386 6 9 8.23858 9 11V16H6ZM23 6C20.2386 6 18 8.23858 18 11V14H15C14.4477 14 14 14.4477 14 15C14 15.5523 14.4477 16 15 16H18V18H15C14.4477 18 14 18.4477 14 19C14 19.5523 14.4477 20 15 20H18V21C18 21.5523 18.4477 22 19 22C19.5523 22 20 21.5523 20 21V11C20 9.34315 21.3431 8 23 8C24.6569 8 26 9.34315 26 11V13C26 13.5523 26.4477 14 27 14C27.5523 14 28 13.5523 28 13V11C28 8.23858 25.7614 6 23 6ZM22 17C22 16.4477 22.4477 16 23 16H30C30.5523 16 31 16.4477 31 17C31 17.5523 30.5523 18 30 18H23C22.4477 18 22 17.5523 22 17ZM31 27C31 27.5523 30.5523 28 30 28H6C5.44772 28 5 27.5523 5 27V24C5 23.6534 5.17945 23.3316 5.47427 23.1493C5.76909 22.9671 6.13723 22.9506 6.44721 23.1056L8.44721 24.1056C9.42472 24.5943 10.5753 24.5943 11.5528 24.1056C13.0933 23.3353 14.9067 23.3353 16.4472 24.1056C17.4247 24.5943 18.5753 24.5943 19.5528 24.1056C21.0933 23.3353 22.9067 23.3353 24.4472 24.1056C25.4247 24.5943 26.5753 24.5943 27.5528 24.1056L29.5528 23.1056C29.8628 22.9506 30.2309 22.9671 30.5257 23.1493C30.8205 23.3316 31 23.6534 31 24V27Z" fill="black"/>
</svg>
