<svg width="36" height="36" viewBox="0 0 36 36" fill="none" xmlns="http://www.w3.org/2000/svg">
<path fill-rule="evenodd" clip-rule="evenodd" d="M18 36C27.9411 36 36 27.9411 36 18C36 8.05887 27.9411 0 18 0C8.05887 0 0 8.05887 0 18C0 27.9411 8.05887 36 18 36ZM24.8526 22.4228C26.1917 20.8953 27 18.9144 27 16.75C27 11.9175 22.9706 8 18 8C13.0294 8 9 11.9175 9 16.75C9 18.9144 9.80831 20.8953 11.1475 22.4228C11.4861 22.809 11.9878 23 12.5015 23H23.4985C24.0122 23 24.5139 22.809 24.8526 22.4228ZM9 25C8.44771 25 8 25.4477 8 26C8 26.5523 8.44771 27 9 27H27C27.5523 27 28 26.5523 28 26C28 25.4477 27.5523 25 27 25H9ZM17 11C17 10.4477 17.4477 10 18 10C21.866 10 25 13.134 25 17C25 17.5523 24.5523 18 24 18C23.4477 18 23 17.5523 23 17C23 14.2386 20.7614 12 18 12C17.4477 12 17 11.5523 17 11Z" fill="black"/>
</svg>
