<svg width="36" height="36" viewBox="0 0 36 36" fill="none" xmlns="http://www.w3.org/2000/svg">
<path fill-rule="evenodd" clip-rule="evenodd" d="M18 36C27.9412 36 36 27.9412 36 18C36 8.05884 27.9412 0 18 0C8.05884 0 0 8.05884 0 18C0 27.9412 8.05884 36 18 36ZM16.3459 5.75562C15.5088 5.13123 14.8772 5.08557 14.51 5.24622L13.8154 5.55005C13.5972 5.88574 13.4368 6.36389 13.3809 6.99927C13.3447 7.41187 12.9807 7.71692 12.5681 7.68066C12.3218 7.65906 12.1138 7.52051 11.9939 7.32471C11.9128 7.1925 11.8721 7.03418 11.8867 6.86792C11.9016 6.69885 11.9231 6.53076 11.9521 6.36499L11.469 6.57629C11.1018 6.73694 10.7065 7.23169 10.5969 8.27026C10.4907 9.27576 10.6914 10.5857 11.28 11.9316C11.8687 13.2775 12.6943 14.3141 13.5046 14.9186C14.3418 15.5431 14.9734 15.5887 15.3406 15.4281L15.8235 15.2169C15.7134 15.1456 15.6052 15.0702 15.4993 14.9912C14.4041 14.1741 13.4053 12.8749 12.7178 11.3027C12.5867 11.0033 12.4709 10.703 12.3704 10.4039C12.238 10.0114 12.4492 9.58606 12.8418 9.45386C13.2344 9.32178 13.6597 9.53284 13.792 9.92542C13.8784 10.1829 13.9785 10.4421 14.092 10.7017C14.6948 12.0798 15.5452 13.1539 16.3962 13.7889C16.875 14.1461 17.3108 14.3373 17.6868 14.4019L18.3816 14.098C18.749 13.9374 19.1443 13.4426 19.2539 12.4041C19.3601 11.3986 19.1592 10.0886 18.5706 8.74268C17.9819 7.39685 17.1562 6.36023 16.3459 5.75562ZM20.8613 21.0171C20.4365 20.5494 20.2559 19.7266 20.5872 18.5818C20.9131 17.4552 21.7036 16.1794 22.9226 15.0721C24.1416 13.9648 25.4871 13.3 26.6396 13.0835C27.811 12.8633 28.6128 13.1218 29.0376 13.5895L29.6594 14.2739C29.78 14.7723 29.7566 15.3865 29.5518 16.0944C29.2109 17.2721 28.3918 18.5862 27.1443 19.7195C26.9092 19.9331 26.6685 20.1315 26.4243 20.3141C26.0928 20.5624 26.0254 21.0325 26.2737 21.364C26.522 21.6956 26.9919 21.7631 27.3235 21.5148C27.6055 21.3036 27.8828 21.0751 28.1528 20.8297C29.572 19.5405 30.5627 17.9965 30.9927 16.5112C31.0513 16.3087 31.0999 16.1049 31.1377 15.9011L31.7368 16.5608C32.1616 17.0283 32.3423 17.8513 32.011 18.9961C31.6848 20.1227 30.8943 21.3984 29.6755 22.5057C28.4565 23.613 27.1108 24.2777 25.9583 24.4944C24.7871 24.7145 23.9851 24.4561 23.5605 23.9884L22.9612 23.3287C23.2087 23.3071 23.458 23.2699 23.7063 23.2185C24.1118 23.1345 24.3728 22.7377 24.2888 22.332C24.2048 21.9265 23.8081 21.6656 23.4023 21.7496C22.637 21.908 21.9897 21.8771 21.4832 21.7017L20.8613 21.0171ZM12.7766 17.9069C11.4988 17.5801 10.5659 17.8019 10.0347 18.3143L9.32397 18.9999C9.12354 19.585 9.10278 20.33 9.30908 21.2C9.40454 21.603 9.15527 22.0072 8.7522 22.1027C8.34912 22.1982 7.94482 21.949 7.84937 21.5459C7.77271 21.2225 7.71875 20.8979 7.6897 20.5765L6.87207 21.3654C6.34082 21.8779 6.08569 22.8024 6.36646 24.0911C6.64331 25.3616 7.4209 26.8231 8.67822 28.1263C9.93555 29.4297 11.3682 30.2592 12.6279 30.5814C13.9058 30.9081 14.8386 30.6864 15.3699 30.1738L16.1875 29.3851C15.9114 29.3502 15.6335 29.2965 15.3569 29.2258C13.7346 28.8109 12.0271 27.7891 10.5813 26.2904C10.3062 26.0052 10.0493 25.7119 9.81104 25.4126C9.55298 25.0886 9.60645 24.6167 9.93042 24.3588C10.2546 24.1007 10.7263 24.1543 10.9844 24.4783C11.1929 24.7402 11.4187 24.9979 11.6609 25.2489C12.9451 26.5801 14.417 27.4371 15.7285 27.7726C16.5466 27.9818 17.2546 27.9803 17.8218 27.8086L18.5325 27.1228C19.0637 26.6104 19.3188 25.6859 19.0381 24.3972C18.7615 23.1266 17.9836 21.6652 16.7263 20.3618C15.469 19.0586 14.0364 18.229 12.7766 17.9069Z" fill="black"/>
</svg>
