<svg width="36" height="36" viewBox="0 0 36 36" fill="none" xmlns="http://www.w3.org/2000/svg">
<path fill-rule="evenodd" clip-rule="evenodd" d="M18 36C27.9411 36 36 27.9411 36 18C36 8.05887 27.9411 0 18 0C8.05887 0 0 8.05887 0 18C0 27.9411 8.05887 36 18 36ZM9 10C8.44772 10 8 10.4477 8 11V14C8 14.5523 8.44771 15 9 15H12C12.5523 15 13 14.5523 13 14V11C13 10.4477 12.5523 10 12 10H9ZM8 18C8 17.4477 8.44772 17 9 17H12C12.5523 17 13 17.4477 13 18V21C13 21.5523 12.5523 22 12 22H9C8.44771 22 8 21.5523 8 21V18ZM16.5 17C15.9477 17 15.5 17.4477 15.5 18V21C15.5 21.5523 15.9477 22 16.5 22H19.5C20.0523 22 20.5 21.5523 20.5 21V18C20.5 17.4477 20.0523 17 19.5 17H16.5ZM15.5 11C15.5 10.4477 15.9477 10 16.5 10H19.5C20.0523 10 20.5 10.4477 20.5 11V14C20.5 14.5523 20.0523 15 19.5 15H16.5C15.9477 15 15.5 14.5523 15.5 14V11ZM24 10C23.4477 10 23 10.4477 23 11V14C23 14.5523 23.4477 15 24 15H27C27.5523 15 28 14.5523 28 14V11C28 10.4477 27.5523 10 27 10H24ZM23 18C23 17.4477 23.4477 17 24 17H27C27.5523 17 28 17.4477 28 18V21C28 21.5523 27.5523 22 27 22H24C23.4477 22 23 21.5523 23 21V18ZM14.6499 26.8123L17.6096 30.512C17.8097 30.7622 18.1903 30.7622 18.3904 30.512L21.3501 26.8123C21.612 26.485 21.3789 26 20.9597 26H15.0403C14.6211 26 14.388 26.485 14.6499 26.8123Z" fill="black"/>
</svg>
