<svg width="36" height="36" viewBox="0 0 36 36" fill="none" xmlns="http://www.w3.org/2000/svg">
<path fill-rule="evenodd" clip-rule="evenodd" d="M18 36C27.9411 36 36 27.9411 36 18C36 8.05887 27.9411 0 18 0C8.05887 0 0 8.05887 0 18C0 27.9411 8.05887 36 18 36ZM24.8525 22.4228C26.1917 20.8953 27 18.9144 27 16.75C27 11.9175 22.9706 8 18 8C13.0294 8 9 11.9175 9 16.75C9 18.9144 9.80831 20.8953 11.1475 22.4228C11.4861 22.809 11.9878 23 12.5015 23H23.4985C24.0122 23 24.5139 22.809 24.8525 22.4228ZM14 15.2273C14 15.8341 14.2543 16.4165 14.6667 16.8182C14.6721 16.8235 14.6776 16.8288 14.6831 16.8341C14.6878 16.8385 14.6925 16.843 14.6972 16.8474L17.1714 19.2091C17.6351 19.6517 18.3649 19.6517 18.8286 19.2091L21.3333 16.8182C21.7655 16.4139 22 15.8505 22 15.2273C22 13.9972 20.9553 13 19.6667 13C19.0138 13 18.4235 13.3652 18 13.7778C17.5765 13.3652 16.9862 13 16.3333 13C15.0447 13 14 13.9972 14 15.2273ZM8 26C8 25.4477 8.44771 25 9 25H27C27.5523 25 28 25.4477 28 26C28 26.5523 27.5523 27 27 27H9C8.44771 27 8 26.5523 8 26Z" fill="black"/>
</svg>
