<svg width="36" height="36" viewBox="0 0 36 36" fill="none" xmlns="http://www.w3.org/2000/svg">
<path fill-rule="evenodd" clip-rule="evenodd" d="M18 36C27.9411 36 36 27.9411 36 18C36 8.05887 27.9411 0 18 0C8.05887 0 0 8.05887 0 18C0 27.9411 8.05887 36 18 36ZM9 14.5401V11C9 10.4477 9.44772 10 10 10H26C26.5523 10 27 10.4477 27 11V14H19C18.4477 14 18 14.4477 18 15C18 15.5523 18.4477 16 19 16H25.8333L20.3492 20.7007C20.1276 20.8907 20 21.168 20 21.4599V27.7192C20 28.1781 19.6877 28.5781 19.2425 28.6894L17.2425 29.1894C16.6114 29.3472 16 28.8698 16 28.2192V21.4599C16 21.168 15.8724 20.8907 15.6508 20.7007L9.34921 15.2993C9.12756 15.1093 9 14.832 9 14.5401Z" fill="black"/>
</svg>
