<svg width="36" height="36" viewBox="0 0 36 36" fill="none" xmlns="http://www.w3.org/2000/svg">
<path fill-rule="evenodd" clip-rule="evenodd" d="M18 36C27.9411 36 36 27.9411 36 18C36 8.05887 27.9411 0 18 0C8.05887 0 0 8.05887 0 18C0 27.9411 8.05887 36 18 36ZM12 10C12 8.89543 12.8954 8 14 8H22C23.1046 8 24 8.89543 24 10V13H12V10ZM12 27V24H24V27C24 28.1046 23.1046 29 22 29H14C12.8954 29 12 28.1046 12 27ZM9 15C8.44772 15 8 15.4477 8 16V18V22V24C8 24.5523 8.44771 25 9 25C9.55228 25 10 24.5523 10 24V22H26V24C26 24.5523 26.4477 25 27 25C27.5523 25 28 24.5523 28 24V22V18V16C28 15.4477 27.5523 15 27 15H9ZM21 18C21 17.4477 21.4477 17 22 17H24C24.5523 17 25 17.4477 25 18C25 18.5523 24.5523 19 24 19H22C21.4477 19 21 18.5523 21 18Z" fill="black"/>
</svg>
