<svg width="36" height="36" viewBox="0 0 36 36" fill="none" xmlns="http://www.w3.org/2000/svg">
<path fill-rule="evenodd" clip-rule="evenodd" d="M18 36C27.9411 36 36 27.9411 36 18C36 8.05887 27.9411 0 18 0C8.05887 0 0 8.05887 0 18C0 27.9411 8.05887 36 18 36ZM8 10C7.44772 10 7 10.4477 7 11V21C7 21.5523 7.44772 22 8 22H28C28.5523 22 29 21.5523 29 21V11C29 10.4477 28.5523 10 28 10H8ZM12 15C12 14.4477 11.5523 14 11 14C10.4477 14 10 14.4477 10 15V17C10 17.5523 10.4477 18 11 18C11.5523 18 12 17.5523 12 17V15ZM25 14C25.5523 14 26 14.4477 26 15V17C26 17.5523 25.5523 18 25 18C24.4477 18 24 17.5523 24 17V15C24 14.4477 24.4477 14 25 14ZM14.5 14.25C14.0858 14.25 13.75 14.5858 13.75 15C13.75 15.4142 14.0858 15.75 14.5 15.75H14.7549C14.7516 15.833 14.75 15.9164 14.75 16C14.75 16.0836 14.7516 16.167 14.7549 16.25H14.5C14.0858 16.25 13.75 16.5858 13.75 17C13.75 17.4142 14.0858 17.75 14.5 17.75H15.0105C15.1925 18.3257 15.4701 18.8549 15.8437 19.3065C16.586 20.2037 17.6734 20.75 19 20.75C20.0687 20.75 21.0565 20.3961 21.8505 19.7996C22.1817 19.5508 22.2484 19.0807 21.9996 18.7495C21.7508 18.4183 21.2807 18.3516 20.9495 18.6004C20.4063 19.0085 19.7326 19.25 19 19.25C18.1174 19.25 17.4549 18.9008 16.9994 18.3503C16.8536 18.174 16.7257 17.9728 16.6189 17.75H18.5C18.9142 17.75 19.25 17.4142 19.25 17C19.25 16.5858 18.9142 16.25 18.5 16.25H16.2564C16.2522 16.1678 16.25 16.0845 16.25 16C16.25 15.9155 16.2522 15.8322 16.2564 15.75H18.5C18.9142 15.75 19.25 15.4142 19.25 15C19.25 14.5858 18.9142 14.25 18.5 14.25H16.6189C16.7257 14.0272 16.8536 13.826 16.9994 13.6497C17.4549 13.0992 18.1174 12.75 19 12.75C19.7326 12.75 20.4063 12.9915 20.9495 13.3996C21.2807 13.6484 21.7508 13.5817 21.9996 13.2505C22.2484 12.9193 22.1817 12.4492 21.8505 12.2004C21.0565 11.6039 20.0687 11.25 19 11.25C17.6734 11.25 16.586 11.7963 15.8437 12.6935C15.4701 13.1451 15.1925 13.6743 15.0105 14.25H14.5ZM7 25C7 24.4477 7.44772 24 8 24H28C28.5523 24 29 24.4477 29 25C29 25.5523 28.5523 26 28 26H8C7.44772 26 7 25.5523 7 25Z" fill="black"/>
</svg>
