<svg width="36" height="36" viewBox="0 0 36 36" fill="none" xmlns="http://www.w3.org/2000/svg">
<path fill-rule="evenodd" clip-rule="evenodd" d="M18 36C27.9411 36 36 27.9411 36 18C36 8.05887 27.9411 0 18 0C8.05887 0 0 8.05887 0 18C0 27.9411 8.05887 36 18 36ZM14 9C14 8.44771 14.4477 8 15 8H24C25.1046 8 26 8.89543 26 10V26C26 27.1046 25.1046 28 24 28H15C14.4477 28 14 27.5523 14 27C14 26.4477 14.4477 26 15 26H24V10H15C14.4477 10 14 9.55228 14 9ZM15.2929 12.2929C14.9023 12.6834 14.9023 13.3166 15.2929 13.7071L19.5858 18L15.2929 22.2929C14.9023 22.6834 14.9023 23.3166 15.2929 23.7071C15.6834 24.0976 16.3166 24.0976 16.7071 23.7071L21.6364 18.7778C22.0659 18.3482 22.066 17.6518 21.6364 17.2222L16.7071 12.2929C16.3166 11.9024 15.6834 11.9024 15.2929 12.2929ZM11.2929 13.2929C10.9023 13.6834 10.9023 14.3166 11.2929 14.7071L13.5858 17H8C7.44771 17 7 17.4477 7 18C7 18.5523 7.44771 19 8 19H13.5858L11.2929 21.2929C10.9023 21.6834 10.9023 22.3166 11.2929 22.7071C11.6834 23.0976 12.3166 23.0976 12.7071 22.7071L16.6364 18.7778C16.6485 18.7657 16.6603 18.7533 16.6717 18.7408C16.8734 18.5578 17 18.2937 17 18C17 17.7063 16.8734 17.4422 16.6717 17.2592C16.6603 17.2467 16.6485 17.2343 16.6364 17.2222L12.7071 13.2929C12.3166 12.9024 11.6834 12.9024 11.2929 13.2929Z" fill="black"/>
</svg>
