<svg width="36" height="36" viewBox="0 0 36 36" fill="none" xmlns="http://www.w3.org/2000/svg">
<path fill-rule="evenodd" clip-rule="evenodd" d="M18 36C27.9411 36 36 27.9411 36 18C36 8.05887 27.9411 0 18 0C8.05887 0 0 8.05887 0 18C0 27.9411 8.05887 36 18 36ZM17.9999 10C12.2804 10 8.66416 14.2916 6.87228 17.4889C6.60227 17.9707 5.99282 18.1424 5.51104 17.8723C5.02926 17.6023 4.85758 16.9929 5.12759 16.5111C7.02802 13.1201 11.1657 8 17.9999 8C24.8342 8 28.9718 13.1201 30.8723 16.5111C31.1423 16.9929 30.9706 17.6023 30.4888 17.8723C30.007 18.1424 29.3976 17.9707 29.1276 17.4889C27.3357 14.2916 23.7195 10 17.9999 10ZM24 18C24 21.3137 21.3137 24 18 24C14.6863 24 12 21.3137 12 18C12 14.6863 14.6863 12 18 12C21.3137 12 24 14.6863 24 18ZM10.7282 23.3146C10.3497 22.9125 9.71681 22.8933 9.31464 23.2718C8.91246 23.6503 8.89329 24.2832 9.2718 24.6854C10.3799 25.8627 13.5525 28 18 28C22.4475 28 25.6201 25.8627 26.7282 24.6854C27.1067 24.2832 27.0875 23.6503 26.6854 23.2718C26.2832 22.8933 25.6503 22.9125 25.2718 23.3146C24.4975 24.1373 21.8348 26 18 26C14.1652 26 11.5025 24.1373 10.7282 23.3146ZM18 21C19.6569 21 21 19.6569 21 18C21 17.8771 20.9926 17.756 20.9783 17.637C20.7156 17.8632 20.3737 18 19.9999 18C19.1715 18 18.4999 17.3284 18.4999 16.5C18.4999 15.9731 18.7716 15.5096 19.1825 15.2421C18.8197 15.0863 18.4199 15 18 15C16.3431 15 15 16.3431 15 18C15 19.6569 16.3431 21 18 21Z" fill="black"/>
</svg>
