<svg width="36" height="36" viewBox="0 0 36 36" fill="none" xmlns="http://www.w3.org/2000/svg">
<path fill-rule="evenodd" clip-rule="evenodd" d="M18 36C27.9411 36 36 27.9411 36 18C36 8.05887 27.9411 0 18 0C8.05887 0 0 8.05887 0 18C0 27.9411 8.05887 36 18 36ZM10 20.1832V19.3246C10.7891 19.6064 11.7023 19.5647 12.5262 19.0779L19.0172 15.2423C19.3075 15.4064 19.6428 15.5 20 15.5C21.1046 15.5 22 14.6046 22 13.5C22 12.3954 21.1046 11.5 20 11.5C18.8954 11.5 18 12.3954 18 13.5L18.0001 13.5203L11.5087 17.3561C10.8421 17.75 10 17.2694 10 16.4951V16V10C10 9.44772 10.4477 9 11 9H25C25.5523 9 26 9.44771 26 10V15.6754C25.2109 15.3936 24.2977 15.4353 23.4738 15.9221L16.9828 19.7577C16.6925 19.5936 16.3572 19.5 16 19.5C14.8954 19.5 14 20.3954 14 21.5C14 22.6046 14.8954 23.5 16 23.5C17.1046 23.5 18 22.6046 18 21.5L17.9999 21.4797L24.4913 17.6439C25.1579 17.25 26 17.7306 26 18.5049V20.1832C26 20.7258 25.9349 21.2664 25.8061 21.7934C25.3587 23.6237 24.2498 25.2236 22.693 26.2851L22.4444 26.4545L18.523 28.8609C18.2021 29.0578 17.7979 29.0578 17.477 28.8609L13.5556 26.4545L13.307 26.2851C11.7502 25.2236 10.6413 23.6237 10.1939 21.7934C10.0651 21.2664 10 20.7258 10 20.1832Z" fill="black"/>
</svg>
