<svg width="36" height="36" viewBox="0 0 36 36" fill="none" xmlns="http://www.w3.org/2000/svg">
<path fill-rule="evenodd" clip-rule="evenodd" d="M18 36C27.9411 36 36 27.9411 36 18C36 8.05887 27.9411 0 18 0C8.05887 0 0 8.05887 0 18C0 27.9411 8.05887 36 18 36ZM14.1154 21.0296L12.5429 19.4571L6.17072 25.8293C6.10772 25.8923 6.15311 25.9996 6.24219 25.9984C10.8721 25.9381 14.5766 24.1469 14.1154 21.0296ZM15.2467 19.3325C15.9816 19.5195 16.7809 19.3549 17.3899 18.8518L25.7868 11.9152C26.7055 11.1563 26.7713 9.77131 25.9287 8.92873C25.1397 8.13966 23.8603 8.13966 23.0713 8.92873L13.9571 18.0429L15.2467 19.3325ZM17 24C16.4477 24 16 24.4477 16 25C16 25.5523 16.4477 26 17 26H20C20.5523 26 21 25.5523 21 25C21 24.4477 20.5523 24 20 24H17ZM24 24C23.4477 24 23 24.4477 23 25C23 25.5523 23.4477 26 24 26H27C27.5523 26 28 25.5523 28 25C28 24.4477 27.5523 24 27 24H24Z" fill="black"/>
</svg>
