<svg width="36" height="36" viewBox="0 0 36 36" fill="none" xmlns="http://www.w3.org/2000/svg">
<path fill-rule="evenodd" clip-rule="evenodd" d="M18 36C27.9411 36 36 27.9411 36 18C36 8.05887 27.9411 0 18 0C8.05887 0 0 8.05887 0 18C0 27.9411 8.05887 36 18 36ZM14 12C14 11.4477 14.4477 11 15 11H28C28.5523 11 29 11.4477 29 12V15C29 15.5523 28.5523 16 28 16H15C14.4477 16 14 15.5523 14 15V12ZM14 21C14 20.4477 14.4477 20 15 20H28C28.5523 20 29 20.4477 29 21V24C29 24.5523 28.5523 25 28 25H15C14.4477 25 14 24.5523 14 24V21ZM6.69383 19.1176C6.53921 17.8119 6.78319 16.3769 7.63524 14.9079L7.1644 14.9864C6.61963 15.0772 6.1044 14.7092 6.01361 14.1644C5.92281 13.6196 6.29083 13.1044 6.8356 13.0136L9.73697 12.53C9.75313 12.5273 9.76926 12.525 9.78537 12.523C10.107 12.4529 10.4565 12.5429 10.7065 12.7929C10.8706 12.957 10.9658 13.164 10.9919 13.3778C10.996 13.3964 10.9997 13.4152 11.0028 13.4342L11.4864 16.3356C11.5772 16.8804 11.2092 17.3956 10.6644 17.4864C10.1196 17.5772 9.6044 17.2092 9.51361 16.6644L9.38288 15.88C8.71455 17.0185 8.58014 18.0395 8.67995 18.8824C8.83324 20.1768 9.559 21.215 10.1638 21.7526C10.5765 22.1195 10.6137 22.7516 10.2468 23.1644C9.87988 23.5771 9.24781 23.6143 8.83503 23.2474C7.93978 22.4516 6.91554 20.9899 6.69383 19.1176Z" fill="black"/>
</svg>
