<svg width="36" height="36" viewBox="0 0 36 36" fill="none" xmlns="http://www.w3.org/2000/svg">
<path fill-rule="evenodd" clip-rule="evenodd" d="M18 36C27.9411 36 36 27.9411 36 18C36 8.05887 27.9411 0 18 0C8.05887 0 0 8.05887 0 18C0 27.9411 8.05887 36 18 36ZM12 11C12 10.4477 12.4477 10 13 10H23L23.0032 10C26.3155 10.0018 29 12.6874 29 16V17C29 19.973 26.8377 22.441 24 22.917V25C24 26.1046 23.1046 27 22 27H14C12.8954 27 12 26.1046 12 25V23.0001L5.36806 16.4112C5.16704 16.2115 5.17199 15.8848 5.37896 15.6913L6.73275 14.4254C7.00022 14.1753 7.40336 14.1387 7.71147 14.3366L12 17.091V11ZM24 20.874V12.126C25.7252 12.5701 27 14.1362 27 16V17C27 18.8638 25.7252 20.4299 24 20.874ZM16 14H18C18.5523 14 19 13.5523 19 13C19 12.4477 18.5523 12 18 12H15.2C14.5373 12 14 12.5373 14 13.2V16C14 16.5523 14.4477 17 15 17C15.5523 17 16 16.5523 16 16V14Z" fill="black"/>
</svg>
