<svg width="36" height="36" viewBox="0 0 36 36" fill="none" xmlns="http://www.w3.org/2000/svg">
<path fill-rule="evenodd" clip-rule="evenodd" d="M18 36C27.9411 36 36 27.9411 36 18C36 8.05887 27.9411 0 18 0C8.05887 0 0 8.05887 0 18C0 27.9411 8.05887 36 18 36ZM11.5813 12.1863C11.1318 11.8653 10.5073 11.9694 10.1863 12.4188C9.86527 12.8682 9.96937 13.4927 10.4188 13.8137L16.605 18.2325C17.4395 18.8285 18.5605 18.8286 19.395 18.2325L25.5813 13.8137C26.0307 13.4927 26.1348 12.8682 25.8137 12.4188C25.4927 11.9694 24.8682 11.8653 24.4188 12.1863L18.2325 16.605C18.0934 16.7044 17.9066 16.7044 17.7675 16.605L11.5813 12.1863ZM22.978 21.3115C22.0534 19.9528 20.2046 19.5901 18.8341 20.5037C17.7532 21.2243 17.2908 22.525 17.5845 23.7176C17.2979 24.1048 17.1164 24.5453 17.0399 25H9C8.44772 25 8 24.5523 8 24V11C8 10.4477 8.44772 10 9 10H27C27.5523 10 28 10.4477 28 11V20.0416C26.9818 19.8699 25.9022 20.2289 25.1935 21.0793C24.8781 21.4579 24.6149 21.6015 24.4474 21.6636C24.2709 21.729 24.0778 21.7486 23.86 21.7175C23.6307 21.6848 23.3988 21.5979 23.2058 21.4821C23.069 21.4 23.0015 21.3341 22.9832 21.3163L22.9795 21.3127L22.978 21.3115ZM21.332 22.4453C21.0257 21.9858 20.4048 21.8616 19.9453 22.1679C19.4858 22.4743 19.3616 23.0952 19.6679 23.5547C19.7774 23.7189 19.9058 23.8799 20.0506 24.0352L19.2929 24.7929C18.9024 25.1834 18.9024 25.8166 19.2929 26.2071C19.6834 26.5976 20.3166 26.5976 20.7071 26.2071L21.7077 25.2065C22.1113 25.3922 22.5468 25.5369 23 25.6269V27C23 27.5523 23.4477 28 24 28C24.5523 28 25 27.5523 25 27V25.6458C25.4361 25.565 25.8734 25.425 26.3024 25.2166L27.2929 26.2071C27.6834 26.5976 28.3166 26.5976 28.7071 26.2071C29.0976 25.8166 29.0976 25.1834 28.7071 24.7929L27.9309 24.0167C28.0452 23.8982 28.1577 23.7728 28.2682 23.6402C28.6218 23.2159 28.5644 22.5853 28.1402 22.2318C27.7159 21.8782 27.0853 21.9355 26.7318 22.3598C25.7154 23.5794 24.5664 23.8386 23.5789 23.6975C22.5156 23.5456 21.6569 22.9326 21.332 22.4453Z" fill="black"/>
</svg>
