<svg width="36" height="36" viewBox="0 0 36 36" fill="none" xmlns="http://www.w3.org/2000/svg">
<path fill-rule="evenodd" clip-rule="evenodd" d="M18 36C27.9411 36 36 27.9411 36 18C36 8.05887 27.9411 0 18 0C8.05887 0 0 8.05887 0 18C0 27.9411 8.05887 36 18 36ZM11 15.5V15.7472C11 16.5753 11.1525 17.3964 11.4497 18.1693L13.1653 22.6297C13.3875 23.2075 13.5346 23.8115 13.603 24.4268L13.6349 24.7141C13.8428 26.5848 15.424 28 17.3062 28H17.4885C19.4278 28 21 26.4278 21 24.4885C21 23.5179 21.2873 22.5691 21.8257 21.7615L22.224 21.164C22.74 20.3901 23.1741 19.5647 23.5195 18.7012C23.8369 17.9077 24 17.0609 24 16.2063V15.2608C24 11.8031 21.1969 9 17.7392 9H17.5C13.9101 9 11 11.9101 11 15.5ZM17.5 14C16.7008 14 16 14.7569 16 15.5C16 16.3002 16.2821 16.7541 16.6425 17.0803C17.279 17.6566 18 18.555 18 19.7361V21.5C18 22.0523 17.5523 22.5 17 22.5C16.4477 22.5 16 22.0523 16 21.5V19.7361C16 19.4021 15.7869 19.0036 15.3002 18.563C14.5417 17.8762 14 16.8924 14 15.5C14 13.7117 15.5378 12 17.5 12C19.4622 12 21 13.7117 21 15.5C21 16.0523 20.5523 16.5 20 16.5C19.4477 16.5 19 16.0523 19 15.5C19 14.7569 18.2992 14 17.5 14Z" fill="black"/>
</svg>
