<svg width="36" height="36" viewBox="0 0 36 36" fill="none" xmlns="http://www.w3.org/2000/svg">
<path fill-rule="evenodd" clip-rule="evenodd" d="M18 36C27.9411 36 36 27.9411 36 18C36 8.05887 27.9411 0 18 0C8.05887 0 0 8.05887 0 18C0 27.9411 8.05887 36 18 36ZM10 10V20.1832C10 20.7258 10.0651 21.2664 10.1939 21.7934C10.6413 23.6237 11.7502 25.2236 13.307 26.2851L13.5556 26.4545L17.477 28.8609C17.7979 29.0578 18.2021 29.0578 18.523 28.8609L22.4444 26.4545L22.693 26.2851C24.2498 25.2236 25.3587 23.6237 25.8061 21.7934C25.9349 21.2664 26 20.7258 26 20.1832V10C26 9.44771 25.5523 9 25 9H11C10.4477 9 10 9.44772 10 10ZM16.0495 18C14.8578 18 13.8318 18.8412 13.5981 20.0097L13.2392 21.8039C13.1155 22.4227 13.5888 23 14.2198 23H21.7802C22.4113 23 22.8846 22.4227 22.7608 21.8039L22.402 20.0097C22.1682 18.8411 21.1422 18 19.9505 18H16.0495ZM15.5 14.5C15.5 13.1193 16.6193 12 18 12C19.3807 12 20.5 13.1193 20.5 14.5C20.5 15.8807 19.3807 17 18 17C16.6193 17 15.5 15.8807 15.5 14.5Z" fill="black"/>
</svg>
