<svg width="36" height="36" viewBox="0 0 36 36" fill="none" xmlns="http://www.w3.org/2000/svg">
<path fill-rule="evenodd" clip-rule="evenodd" d="M18 36C27.9411 36 36 27.9411 36 18C36 8.05887 27.9411 0 18 0C8.05887 0 0 8.05887 0 18C0 27.9411 8.05887 36 18 36ZM23.2636 7.70711C23.6541 7.31658 24.2873 7.31658 24.6778 7.70711L28.9204 11.9497C29.311 12.3403 29.311 12.9734 28.9204 13.364L13.3641 28.9203C12.9736 29.3108 12.3404 29.3108 11.9499 28.9203L7.70723 24.6777C7.31671 24.2871 7.31671 23.654 7.70723 23.2635L23.2636 7.70711ZM22.91 10.182L24.6778 11.9498C25.0683 12.3403 25.0683 12.9734 24.6778 13.364C24.2873 13.7545 23.6541 13.7545 23.2636 13.364L21.4958 11.5962L22.91 10.182ZM13.3641 23.2635L11.5963 21.4957L10.1821 22.9099L11.9499 24.6777C12.3404 25.0682 12.9736 25.0682 13.3641 24.6777C13.7546 24.2871 13.7546 23.654 13.3641 23.2635ZM17.2532 15.8388L19.0209 17.6066C19.4114 17.9971 19.4114 18.6303 19.0209 19.0208C18.6304 19.4113 17.9972 19.4113 17.6067 19.0208L15.8389 17.2531L17.2532 15.8388ZM21.8494 14.7782L20.0816 13.0104L18.6674 14.4246L20.4351 16.1924C20.8257 16.5829 21.4588 16.5829 21.8494 16.1924C22.2399 15.8019 22.2399 15.1687 21.8494 14.7782ZM14.4248 18.6673L16.1925 20.435C16.583 20.8256 16.583 21.4587 16.1925 21.8492C15.802 22.2398 15.1688 22.2398 14.7783 21.8492L13.0105 20.0815L14.4248 18.6673Z" fill="black"/>
</svg>
