<svg width="36" height="36" viewBox="0 0 36 36" fill="none" xmlns="http://www.w3.org/2000/svg">
<path fill-rule="evenodd" clip-rule="evenodd" d="M18 36C27.9411 36 36 27.9411 36 18C36 8.05887 27.9411 0 18 0C8.05887 0 0 8.05887 0 18C0 27.9411 8.05887 36 18 36ZM10 11C8.89543 11 8 11.8954 8 13V21C8 22.1046 8.89543 23 10 23H22C23.1046 23 24 22.1046 24 21V13C24 11.8954 23.1046 11 22 11H10ZM27.8945 25.4472C28.1414 24.9532 27.9412 24.3526 27.4472 24.1056C26.9533 23.8586 26.3526 24.0588 26.1056 24.5528C25.9874 24.7891 25.8107 24.9046 25.6551 24.9617C25.1367 25.1522 24.8709 25.7268 25.0614 26.2452C25.2519 26.7636 25.8265 27.0295 26.3449 26.839C26.8787 26.6429 27.505 26.2262 27.8945 25.4472ZM27 18.5C27.5523 18.5 28 18.9477 28 19.5V21C28 21.5523 27.5523 22 27 22C26.4477 22 26 21.5523 26 21V19.5C26 18.9477 26.4477 18.5 27 18.5ZM28 15C28 14.4477 27.5523 14 27 14C26.4477 14 26 14.4477 26 15V16C26 16.5523 26.4477 17 27 17C27.5523 17 28 16.5523 28 16V15ZM19.5 26C19.5 25.4477 19.9477 25 20.5 25H22C22.5523 25 23 25.4477 23 26C23 26.5523 22.5523 27 22 27H20.5C19.9477 27 19.5 26.5523 19.5 26ZM15.5 25C14.9477 25 14.5 25.4477 14.5 26C14.5 26.5523 14.9477 27 15.5 27H17C17.5523 27 18 26.5523 18 26C18 25.4477 17.5523 25 17 25H15.5ZM10 26C10 25.4477 10.4477 25 11 25H12C12.5523 25 13 25.4477 13 26C13 26.5523 12.5523 27 12 27H11C10.4477 27 10 26.5523 10 26Z" fill="black"/>
</svg>
