<svg width="36" height="36" viewBox="0 0 36 36" fill="none" xmlns="http://www.w3.org/2000/svg">
<path fill-rule="evenodd" clip-rule="evenodd" d="M18 36C27.9411 36 36 27.9411 36 18C36 8.05887 27.9411 0 18 0C8.05887 0 0 8.05887 0 18C0 27.9411 8.05887 36 18 36ZM25 13.3636L27.7559 15.869C28.1956 16.2687 27.9128 17 27.3187 17H25V26C25 26.5523 24.5523 27 24 27H12C11.4477 27 11 26.5523 11 26V17H8.68129C8.08717 17 7.80444 16.2687 8.24405 15.869L17.1255 7.79498C17.6214 7.34421 18.3786 7.34421 18.8745 7.79498L23 11.5455V10C23 9.44772 23.4477 9 24 9C24.5523 9 25 9.44772 25 10V13.3636ZM15.7843 22.1198C14.9072 21.2332 13.7022 19.7351 13.537 17.6472C13.4962 17.1314 13.701 16.6123 14.0935 16.2239L14.5906 15.7322C14.9993 15.3278 15.6253 15.2978 15.9888 15.6652L16.9759 16.6631C17.3394 17.0305 17.3027 17.6561 16.8939 18.0604L16.3071 18.641C16.209 18.7381 16.151 18.8673 16.1855 18.9895C16.2861 19.3449 16.627 20.0111 17.2645 20.6555C17.902 21.2999 18.5645 21.6479 18.9188 21.7522C19.0406 21.7881 19.1705 21.7315 19.2686 21.6344L19.8554 21.0539C20.2642 20.6495 20.8902 20.6196 21.2536 20.987L22.2408 21.9848C22.6042 22.3522 22.5675 22.9778 22.1588 23.3822L21.6617 23.8739C21.1527 24.3669 20.5481 24.4133 20.0327 24.3669C17.9467 24.1793 16.6614 23.0064 15.7843 22.1198Z" fill="black"/>
</svg>
