<svg width="36" height="36" viewBox="0 0 36 36" fill="none" xmlns="http://www.w3.org/2000/svg">
<path fill-rule="evenodd" clip-rule="evenodd" d="M18 36C27.9411 36 36 27.9411 36 18C36 8.05887 27.9411 0 18 0C8.05887 0 0 8.05887 0 18C0 27.9411 8.05887 36 18 36ZM7 11C7 10.4477 7.44772 10 8 10H28C28.5523 10 29 10.4477 29 11V21C29 21.5523 28.5523 22 28 22H8C7.44772 22 7 21.5523 7 21V11ZM11 14C11.5523 14 12 14.4477 12 15V17C12 17.5523 11.5523 18 11 18C10.4477 18 10 17.5523 10 17V15C10 14.4477 10.4477 14 11 14ZM26 15C26 14.4477 25.5523 14 25 14C24.4477 14 24 14.4477 24 15V17C24 17.5523 24.4477 18 25 18C25.5523 18 26 17.5523 26 17V15ZM16.75 13.25V15.75H18.5C19.1904 15.75 19.75 15.1904 19.75 14.5C19.75 13.8096 19.1904 13.25 18.5 13.25H16.75ZM21.25 14.5C21.25 16.0188 20.0188 17.25 18.5 17.25H16.75V17.75H18C18.4142 17.75 18.75 18.0858 18.75 18.5C18.75 18.9142 18.4142 19.25 18 19.25H16.75V20C16.75 20.4142 16.4142 20.75 16 20.75C15.5858 20.75 15.25 20.4142 15.25 20V19.25H15C14.5858 19.25 14.25 18.9142 14.25 18.5C14.25 18.0858 14.5858 17.75 15 17.75H15.25V17.25H15C14.5858 17.25 14.25 16.9142 14.25 16.5C14.25 16.0858 14.5858 15.75 15 15.75H15.25V12.6C15.25 12.1306 15.6306 11.75 16.1 11.75H18.5C20.0188 11.75 21.25 12.9812 21.25 14.5ZM7 25C7 24.4477 7.44772 24 8 24H28C28.5523 24 29 24.4477 29 25C29 25.5523 28.5523 26 28 26H8C7.44772 26 7 25.5523 7 25Z" fill="black"/>
</svg>
