<svg width="36" height="36" viewBox="0 0 36 36" fill="none" xmlns="http://www.w3.org/2000/svg">
<path d="M16.3276 17.2479C18.1786 16.3563 20.4751 17.0165 21.5341 18.8768L23.7223 22.7213L23.0339 23.1146C21.5787 23.9461 19.7245 23.4241 18.9169 21.9556L16.3276 17.2479Z" fill="black"/>
<path fill-rule="evenodd" clip-rule="evenodd" d="M18 36C27.9412 36 36 27.9411 36 18C36 8.0589 27.9412 0 18 0C8.05884 0 0 8.0589 0 18C0 27.9411 8.05884 36 18 36ZM6 8.5C5.44775 8.5 5 8.94769 5 9.5C5 10.0523 5.44775 10.5 6 10.5H9.91382C10.3817 10.5 10.8348 10.6641 11.1942 10.9636L13.3599 12.7682C13.7841 13.1218 14.4147 13.0645 14.7682 12.6402C15.1218 12.2159 15.0645 11.5853 14.6401 11.2318L12.4746 9.42712C11.7557 8.82806 10.8496 8.5 9.91382 8.5H6ZM26.7473 23.293C27.6146 22.7359 27.9205 21.6019 27.4351 20.6795L23.1661 12.5685C22.8203 11.9114 22.1389 11.5 21.3964 11.5H18.4142C17.8838 11.5 17.375 11.7107 17 12.0858L14.3239 14.7619C13.6947 15.3911 13.5569 16.3603 13.9856 17.14L17.1644 22.9194C18.5105 25.367 21.6008 26.2369 24.0261 24.8511L25.0122 24.2876L25.1334 24.4982C25.326 24.8334 25.5542 25.2842 25.7314 25.7549C25.9137 26.239 26.0153 26.674 26.0153 27V29C26.0153 29.5523 26.4629 30 27.0153 30C27.5675 30 28.0153 29.5523 28.0153 29V27C28.0153 26.3261 27.8219 25.6309 27.603 25.05C27.3793 24.4556 27.1 23.9063 26.8676 23.5018L26.7473 23.293ZM5.29224 14.9872C5.13391 15.2769 5.04395 15.6093 5.04395 15.9626C5.04395 17.0878 5.95605 18 7.0813 18C8.20654 18 9.11865 17.0878 9.11865 15.9626C9.11865 15.6093 9.02869 15.2769 8.87036 14.9872L8.87134 14.9857L8.87219 14.9842L7.5144 12.6323C7.3219 12.299 6.84082 12.299 6.64832 12.6323L5.29053 14.9843L5.29224 14.9872Z" fill="black"/>
</svg>
