<svg width="36" height="36" viewBox="0 0 36 36" fill="none" xmlns="http://www.w3.org/2000/svg">
<path fill-rule="evenodd" clip-rule="evenodd" d="M18 36C27.9411 36 36 27.9411 36 18C36 8.05887 27.9411 0 18 0C8.05887 0 0 8.05887 0 18C0 27.9411 8.05887 36 18 36ZM9.1 8C8.49249 8 8 8.49249 8 9.1V14C8 14.5523 8.44771 15 9 15C9.55228 15 10 14.5523 10 14V10H14C14.5523 10 15 9.55228 15 9C15 8.44771 14.5523 8 14 8H9.1ZM15 14.5C15 13.9477 14.5523 13.5 14 13.5C13.4477 13.5 13 13.9477 13 14.5V16.5C13 17.0523 13.4477 17.5 14 17.5C14.5523 17.5 15 17.0523 15 16.5V14.5ZM23 14.5C23 13.9477 22.5523 13.5 22 13.5C21.4477 13.5 21 13.9477 21 14.5V16.5C21 17.0523 21.4477 17.5 22 17.5C22.5523 17.5 23 17.0523 23 16.5V14.5ZM15.7071 20.2929C16.2271 20.8129 17.0735 21.125 18 21.125C18.9265 21.125 19.7729 20.8129 20.2929 20.2929C20.6834 19.9024 21.3166 19.9024 21.7071 20.2929C22.0976 20.6834 22.0976 21.3166 21.7071 21.7071C20.7271 22.6871 19.3235 23.125 18 23.125C16.6765 23.125 15.2729 22.6871 14.2929 21.7071C13.9024 21.3166 13.9024 20.6834 14.2929 20.2929C14.6834 19.9024 15.3166 19.9024 15.7071 20.2929ZM28 9.1C28 8.49249 27.5075 8 26.9 8H22C21.4477 8 21 8.44771 21 9C21 9.55228 21.4477 10 22 10H26V14C26 14.5523 26.4477 15 27 15C27.5523 15 28 14.5523 28 14V9.1ZM28 22C28 21.4477 27.5523 21 27 21C26.4477 21 26 21.4477 26 22V26H22C21.4477 26 21 26.4477 21 27C21 27.5523 21.4477 28 22 28H26.9C27.5075 28 28 27.5075 28 26.9V22ZM9 21C8.44772 21 8 21.4477 8 22V26.9C8 27.5075 8.49249 28 9.1 28H14C14.5523 28 15 27.5523 15 27C15 26.4477 14.5523 26 14 26H10V22C10 21.4477 9.55228 21 9 21Z" fill="black"/>
</svg>
