<svg width="36" height="36" viewBox="0 0 36 36" fill="none" xmlns="http://www.w3.org/2000/svg">
<path fill-rule="evenodd" clip-rule="evenodd" d="M18 36C27.9411 36 36 27.9411 36 18C36 8.05887 27.9411 0 18 0C8.05887 0 0 8.05887 0 18C0 27.9411 8.05887 36 18 36ZM10.5 12.5V8.5H12.5C13.6046 8.5 14.5 9.39543 14.5 10.5C14.5 11.6046 13.6046 12.5 12.5 12.5H10.5ZM12.5 14.5C14.7091 14.5 16.5 12.7091 16.5 10.5C16.5 8.29086 14.7091 6.5 12.5 6.5H9.6C8.99248 6.5 8.5 6.9925 8.5 7.6V12.5H8C7.44772 12.5 7 12.9477 7 13.5C7 14.0523 7.44772 14.5 8 14.5H8.5V15.5H8C7.44772 15.5 7 15.9477 7 16.5C7 17.0523 7.44772 17.5 8 17.5H8.5V18C8.5 18.5523 8.94772 19 9.5 19C10.0523 19 10.5 18.5523 10.5 18V17.5H12C12.5523 17.5 13 17.0523 13 16.5C13 15.9477 12.5523 15.5 12 15.5H10.5V14.5H12.5ZM23.5914 10.1936C24.0367 10.5202 24.133 11.146 23.8064 11.5914L12.8064 26.5914C12.4798 27.0367 11.854 27.133 11.4086 26.8064C10.9633 26.4798 10.867 25.854 11.1936 25.4086L22.1936 10.4086C22.5202 9.96327 23.146 9.86699 23.5914 10.1936ZM24 19C24.5523 19 25 19.4477 25 20V22H27C27.5523 22 28 22.4477 28 23C28 23.5523 27.5523 24 27 24H25V26C25 26.5523 24.5523 27 24 27C23.4477 27 23 26.5523 23 26V24H21C20.4477 24 20 23.5523 20 23C20 22.4477 20.4477 22 21 22H23V20C23 19.4477 23.4477 19 24 19Z" fill="black"/>
</svg>
