<svg width="36" height="36" viewBox="0 0 36 36" fill="none" xmlns="http://www.w3.org/2000/svg">
<path d="M14 10C14 9.44769 14.4478 9 15 9H16C16.5522 9 17 9.44769 17 10C17 10.5523 16.5522 11 16 11H15C14.4478 11 14 10.5523 14 10Z" fill="black"/>
<path fill-rule="evenodd" clip-rule="evenodd" d="M18 36C8.05884 36 0 27.9411 0 18C0 8.0589 8.05884 0 18 0C27.9412 0 36 8.0589 36 18C36 27.9411 27.9412 36 18 36ZM12.4303 7.92889C12.4675 7.40552 12.9031 7 13.4277 7H22.5527C23.0762 7 23.5111 7.40369 23.5499 7.92566L23.9589 13.4116C23.9789 13.5804 23.9917 13.7513 23.9971 13.9239L23.9972 13.9257C23.9983 13.9409 23.9991 13.956 23.9996 13.9711C24.0002 13.9915 24.0001 14.0118 23.9995 14.032C23.9999 14.058 24 14.084 24 14.1101C24 17.0605 21.8307 19.5043 19 19.9333V28H22C22.5522 28 23 28.4477 23 29C23 29.5523 22.5522 30 22 30H14C13.4478 30 13 29.5523 13 29C13 28.4477 13.4478 28 14 28H17V19.9333C14.1693 19.5043 12 17.0605 12 14.1101C12 14.084 12.0001 14.058 12.0005 14.032C11.9994 13.9978 12.0001 13.9634 12.0026 13.9289L12.0029 13.9236C12.0063 13.8167 12.0125 13.7103 12.0215 13.6046C12.0259 13.5529 12.0309 13.5013 12.0366 13.45L12.4303 7.92889Z" fill="black"/>
</svg>
