<svg width="36" height="36" viewBox="0 0 36 36" fill="none" xmlns="http://www.w3.org/2000/svg">
<path fill-rule="evenodd" clip-rule="evenodd" d="M18 36C27.9412 36 36 27.9411 36 18C36 8.0589 27.9412 0 18 0C8.05884 0 0 8.0589 0 18C0 27.9411 8.05884 36 18 36ZM25.9585 7.40912L28.5898 10.0417L26.2606 13.1926C25.915 13.6602 25.3303 13.8859 24.7603 13.7719L23.8286 13.5855L19.7485 17.6656L22.6057 20.5114C22.8779 20.7824 23.2799 20.863 23.6575 20.7925C24.9467 20.5521 26.3337 20.9346 27.3372 21.938C28.2644 22.8654 28.6615 24.1204 28.5266 25.3233C28.4786 25.7511 27.9674 25.8712 27.6615 25.5653L26.1864 24.0902C25.7959 23.6997 25.1627 23.6997 24.7722 24.0902L23.7092 25.1531C23.3187 25.5437 23.3187 26.1768 23.7092 26.5674L25.1843 28.0424C25.3674 28.2255 25.3977 28.4823 25.3013 28.669C25.2367 28.7946 25.1144 28.8884 24.9424 28.9075C23.7395 29.0424 22.4844 28.6454 21.5571 27.7181C20.5544 26.7153 20.1718 25.3296 20.4111 24.0412C20.4816 23.662 20.3998 23.2586 20.1266 22.9865L13.4982 16.3847C13.226 16.1136 12.8241 16.0331 12.4464 16.1035C11.1572 16.3439 9.77026 15.9614 8.76685 14.958C7.83948 14.0307 7.44238 12.7756 7.57727 11.5728C7.62524 11.145 8.1366 11.0249 8.44238 11.3307L9.91748 12.8058C10.308 13.1964 10.9412 13.1964 11.3317 12.8058L12.3947 11.7429C12.7852 11.3524 12.7852 10.7192 12.3947 10.3287L10.9196 8.85358C10.7366 8.67059 10.7063 8.4137 10.8026 8.22705C10.8673 8.10138 10.9895 8.00757 11.1616 7.98846C12.3645 7.85364 13.6195 8.25067 14.5468 9.17798C15.5494 10.1807 15.9323 11.5664 15.6929 12.8549C15.6224 13.2339 15.7041 13.6375 15.9773 13.9095L18.3315 16.2543L22.4144 12.1713L22.2281 11.2397C22.1141 10.6696 22.3397 10.085 22.8071 9.73944L25.9585 7.40912ZM16.5547 22.2516L13.4392 19.1487L8.19604 23.6446C7.31177 24.4029 7.26001 25.7534 8.08374 26.5771L9.1261 27.6195C9.95044 28.4438 11.3022 28.3913 12.0602 27.5054L16.5547 22.2516Z" fill="black"/>
</svg>
