<svg width="36" height="36" viewBox="0 0 36 36" fill="none" xmlns="http://www.w3.org/2000/svg">
<path fill-rule="evenodd" clip-rule="evenodd" d="M18 36C27.9411 36 36 27.9411 36 18C36 8.05887 27.9411 0 18 0C8.05887 0 0 8.05887 0 18C0 27.9411 8.05887 36 18 36ZM21 9H20H18H11C10.4477 9 10 9.44771 10 10C10 10.5523 10.4477 11 11 11H18H21C21.5523 11 22 11.4477 22 12C22 12.5523 21.5523 13 21 13H18V16H12C9.23858 16 7 18.2386 7 21V22.5C7 22.7761 7.22386 23 7.5 23H10.7857C11.0619 23 11.2857 22.7761 11.2857 22.5V20.3889C11.2857 20.1127 11.5096 19.8889 11.7857 19.8889H18V26H17C16.4477 26 16 26.4477 16 27C16 27.5523 16.4477 28 17 28H26C26.5523 28 27 27.5523 27 27C27 26.4477 26.5523 26 26 26H25V13C25 10.7909 23.2091 9 21 9Z" fill="black"/>
</svg>
