<svg width="36" height="36" viewBox="0 0 36 36" fill="none" xmlns="http://www.w3.org/2000/svg">
<path fill-rule="evenodd" clip-rule="evenodd" d="M18 36C27.9411 36 36 27.9411 36 18C36 8.05887 27.9411 0 18 0C8.05887 0 0 8.05887 0 18C0 27.9411 8.05887 36 18 36ZM12 9C11.1858 9 10.5 9.71247 10.5 10.5C10.5 11.2662 11.1518 11.9662 11.9411 11.9988C12.5039 12.022 13 12.4807 13 13.1V15.208C13.883 15.5938 14.5 16.4748 14.5 17.5C14.5 18.7513 13.5808 19.7878 12.3808 19.9712C13.4722 21.3627 15 23.669 15 25.5C15 27.5571 13.5 28.5 12 28.5C10.5 28.5 9 27.5571 9 25.5C9 23.669 10.5278 21.3627 11.6192 19.9712C10.4192 19.7878 9.5 18.7513 9.5 17.5C9.5 16.4748 10.117 15.5938 11 15.208V13.8509C9.54785 13.4073 8.5 12.032 8.5 10.5C8.5 8.63656 10.0528 7 12 7C13.9472 7 15.5 8.63656 15.5 10.5C15.5 11.0523 15.0523 11.5 14.5 11.5C13.9477 11.5 13.5 11.0523 13.5 10.5C13.5 9.71247 12.8142 9 12 9ZM24 9C24.8142 9 25.5 9.71247 25.5 10.5C25.5 11.2662 24.8482 11.9662 24.0589 11.9988C23.4961 12.022 23 12.4807 23 13.1V15.208C22.117 15.5938 21.5 16.4748 21.5 17.5C21.5 18.7513 22.4192 19.7878 23.6192 19.9712C22.5278 21.3627 21 23.669 21 25.5C21 27.5571 22.5 28.5 24 28.5C25.5 28.5 27 27.5571 27 25.5C27 23.669 25.4722 21.3627 24.3808 19.9712C25.5808 19.7878 26.5 18.7513 26.5 17.5C26.5 16.4748 25.883 15.5938 25 15.208V13.8509C26.4522 13.4073 27.5 12.032 27.5 10.5C27.5 8.63656 25.9472 7 24 7C22.0528 7 20.5 8.63656 20.5 10.5C20.5 11.0523 20.9477 11.5 21.5 11.5C22.0523 11.5 22.5 11.0523 22.5 10.5C22.5 9.71247 23.1858 9 24 9Z" fill="black"/>
</svg>
