<svg width="36" height="36" viewBox="0 0 36 36" fill="none" xmlns="http://www.w3.org/2000/svg">
<path fill-rule="evenodd" clip-rule="evenodd" d="M18 36C27.9411 36 36 27.9411 36 18C36 8.05887 27.9411 0 18 0C8.05887 0 0 8.05887 0 18C0 27.9411 8.05887 36 18 36ZM20 5C19.4477 5 19 5.44772 19 6C19 6.55228 19.4477 7 20 7H21C21.5523 7 22 6.55228 22 6C22 5.44772 21.5523 5 21 5H20ZM17.3715 9.9285C17.8843 9.72338 18.1337 9.14141 17.9286 8.62863C17.7235 8.11585 17.1415 7.86643 16.6287 8.07154L14.1287 9.07154C12.2322 9.83014 11.1585 11.8451 11.5865 13.8424L12.2631 17H12C10.8954 17 10 17.8954 10 19V27C10 28.1046 10.8954 29 12 29H24C25.1046 29 26 28.1046 26 27V19C26 17.8954 25.1046 17 24 17H23.737L24.4476 13.6838C24.856 11.7782 23.8315 9.85558 22.022 9.13177L21.8714 9.07154C21.3586 8.86643 20.7766 9.11585 20.5715 9.62863C20.3664 10.1414 20.6158 10.7234 21.1286 10.9285L21.2792 10.9887C22.1839 11.3506 22.6962 12.3119 22.492 13.2647L21.6916 17H19.698L18.2614 20.9108L19.32 21.3813C19.852 21.6177 20.1076 22.2276 19.9032 22.7727L18.9363 25.3512C18.7424 25.8683 18.166 26.1303 17.6488 25.9364C17.1317 25.7424 16.8697 25.166 17.0636 24.6489L17.7328 22.8645L16.6794 22.3963C16.15 22.161 15.8938 21.5555 16.0936 21.0118L17.5673 17H14.3085L13.5421 13.4233C13.3183 12.3789 13.8798 11.3252 14.8715 10.9285L17.3715 9.9285Z" fill="black"/>
</svg>
