<svg width="36" height="36" viewBox="0 0 36 36" fill="none" xmlns="http://www.w3.org/2000/svg">
<path fill-rule="evenodd" clip-rule="evenodd" d="M18 36C27.9411 36 36 27.9411 36 18C36 8.05887 27.9411 0 18 0C8.05887 0 0 8.05887 0 18C0 27.9411 8.05887 36 18 36ZM23.5 14.5C25.433 14.5 27 12.933 27 11C27 9.067 25.433 7.5 23.5 7.5C21.9145 7.5 20.5752 8.55426 20.1449 10H16.1C15.4925 10 15 10.4925 15 11.1V17H11.8551C11.4248 15.5543 10.0855 14.5 8.5 14.5C6.567 14.5 5 16.067 5 18C5 19.933 6.567 21.5 8.5 21.5C10.0855 21.5 11.4248 20.4457 11.8551 19H15V24.9C15 25.5075 15.4925 26 16.1 26H20.1449C20.5752 27.4457 21.9145 28.5 23.5 28.5C25.433 28.5 27 26.933 27 25C27 23.067 25.433 21.5 23.5 21.5C21.9145 21.5 20.5752 22.5543 20.1449 24H17V12H20.1449C20.5752 13.4457 21.9145 14.5 23.5 14.5Z" fill="black"/>
</svg>
