<svg width="36" height="36" viewBox="0 0 36 36" fill="none" xmlns="http://www.w3.org/2000/svg">
<path fill-rule="evenodd" clip-rule="evenodd" d="M18 36C27.9411 36 36 27.9411 36 18C36 8.05887 27.9411 0 18 0C8.05887 0 0 8.05887 0 18C0 27.9411 8.05887 36 18 36ZM7 25C7 25.5523 7.44772 26 8 26H28C28.5523 26 29 25.5523 29 25V11C29 10.4477 28.5523 10 28 10H8C7.44772 10 7 10.4477 7 11V25ZM20.1863 22.5812L16 16.7204L11.8138 22.5812C11.4927 23.0306 10.8682 23.1347 10.4188 22.8137C9.96937 22.4927 9.86527 21.8681 10.1863 21.4187L15.1049 14.5327C15.5436 13.9185 16.4564 13.9185 16.8951 14.5327L21.8137 21.4187C22.1348 21.8681 22.0307 22.4927 21.5813 22.8137C21.1318 23.1347 20.5073 23.0306 20.1863 22.5812ZM21.8088 15.9118C21.4839 15.4652 20.8585 15.3664 20.4118 15.6912C19.9652 16.0161 19.8664 16.6415 20.1913 17.0881L24.1913 22.5881C24.5161 23.0348 25.1415 23.1335 25.5882 22.8087C26.0348 22.4839 26.1336 21.8585 25.8088 21.4118L21.8088 15.9118ZM25 12.5C24.1716 12.5 23.5 13.1716 23.5 14C23.5 14.8284 24.1716 15.5 25 15.5C25.8284 15.5 26.5 14.8284 26.5 14C26.5 13.1716 25.8284 12.5 25 12.5Z" fill="black"/>
</svg>
