<svg width="36" height="36" viewBox="0 0 36 36" fill="none" xmlns="http://www.w3.org/2000/svg">
<path fill-rule="evenodd" clip-rule="evenodd" d="M18 36C27.9411 36 36 27.9411 36 18C36 8.05887 27.9411 0 18 0C8.05887 0 0 8.05887 0 18C0 27.9411 8.05887 36 18 36ZM8.48252 12.1872C8.58586 11.6446 8.22983 11.1211 7.68729 11.0177C7.14476 10.9144 6.62118 11.2704 6.51784 11.8129L4.51784 22.313C4.41451 22.8555 4.77054 23.3791 5.31307 23.4824C5.8556 23.5857 6.37918 23.2297 6.48252 22.6872L8.48252 12.1872ZM27.8127 11.0177C27.2702 11.1211 26.9141 11.6446 27.0175 12.1872L29.0175 22.6872C29.1208 23.2297 29.6444 23.5857 30.1869 23.4824C30.7295 23.3791 31.0855 22.8555 30.9822 22.313L28.9822 11.8129C28.8788 11.2704 28.3552 10.9144 27.8127 11.0177ZM20.0396 10.4005C18.7713 9.97775 17.3762 10.4453 16.6188 11.547L14.0855 15.2318C13.6941 15.801 13.831 16.5788 14.393 16.9803C14.9271 17.3617 15.664 17.2721 16.0911 16.7739L17.4075 15.2381C17.9559 14.5983 18.9235 14.5356 19.5498 15.0993L27.1401 21.9306L25.5945 13.0434C25.5357 12.7051 25.3075 12.4207 24.9901 12.29L21.9387 11.0335L20.0396 10.4005ZM18.5926 16.9286L27.1741 24.6519L27.1181 24.7639C26.6349 25.7303 25.5232 26.1377 24.5637 25.8016L19.6805 21.2672C19.2757 20.8914 18.643 20.9148 18.2672 21.3195C17.8914 21.7242 17.9148 22.357 18.3196 22.7328L22.7149 26.8141C21.8461 27.3614 20.7437 27.428 19.8115 26.9771L15.1727 22.76C14.764 22.3885 14.1316 22.4186 13.7601 22.8273C13.3886 23.236 13.4187 23.8684 13.8273 24.2399L17.1778 27.2858C16.0634 28.1406 14.4774 28.1138 13.3891 27.1705L8.43982 22.8811C8.16797 22.6455 8.04362 22.2821 8.11417 21.9293L9.85497 13.2253C9.94117 12.7943 10.2987 12.4701 10.7361 12.4264L13.7976 12.1202L12.4374 14.0988C11.4282 15.5666 11.7811 17.5724 13.2306 18.6077C14.6077 19.5914 16.5082 19.3604 17.6096 18.0754L18.5926 16.9286Z" fill="black"/>
</svg>
