<svg width="36" height="36" viewBox="0 0 36 36" fill="none" xmlns="http://www.w3.org/2000/svg">
<path fill-rule="evenodd" clip-rule="evenodd" d="M18 36C8.05887 36 0 27.9411 0 18C0 8.05887 8.05887 0 18 0C27.9411 0 36 8.05887 36 18C36 27.9411 27.9411 36 18 36ZM23 9V6C24.1046 6 25 6.89543 25 8V14C25 14.0808 24.9952 14.1605 24.9859 14.2387C24.9086 22.4458 24.5133 25.3121 23.8 27.5217C23.16 29.5043 22.2 30 21 30H15C13.8 30 12.8401 29.5043 12.2001 27.5217C11.4868 25.3121 11.0914 22.4458 11.0141 14.2388C11.0048 14.1605 11 14.0808 11 14V8C11 6.89543 11.8954 6 13 6V9C13 9.55228 13.4477 10 14 10H22C22.5523 10 23 9.55228 23 9ZM21 4H15V8H21V4ZM14 24C14 23.4477 14.4477 23 15 23C15.5523 23 16 23.4477 16 24C16 24.5523 15.5523 25 15 25C14.4477 25 14 24.5523 14 24ZM18 23C17.4477 23 17 23.4477 17 24C17 24.5523 17.4477 25 18 25C18.5523 25 19 24.5523 19 24C19 23.4477 18.5523 23 18 23ZM20 24C20 23.4477 20.4477 23 21 23C21.5523 23 22 23.4477 22 24C22 24.5523 21.5523 25 21 25C20.4477 25 20 24.5523 20 24ZM15 26C14.4477 26 14 26.4477 14 27C14 27.5523 14.4477 28 15 28C15.5523 28 16 27.5523 16 27C16 26.4477 15.5523 26 15 26ZM17 27C17 26.4477 17.4477 26 18 26C18.5523 26 19 26.4477 19 27C19 27.5523 18.5523 28 18 28C17.4477 28 17 27.5523 17 27ZM21 26C20.4477 26 20 26.4477 20 27C20 27.5523 20.4477 28 21 28C21.5523 28 22 27.5523 22 27C22 26.4477 21.5523 26 21 26ZM14 21C14 20.4477 14.4477 20 15 20C15.5523 20 16 20.4477 16 21C16 21.5523 15.5523 22 15 22C14.4477 22 14 21.5523 14 21ZM18 20C17.4477 20 17 20.4477 17 21C17 21.5523 17.4477 22 18 22C18.5523 22 19 21.5523 19 21C19 20.4477 18.5523 20 18 20ZM20 21C20 20.4477 20.4477 20 21 20C21.5523 20 22 20.4477 22 21C22 21.5523 21.5523 22 21 22C20.4477 22 20 21.5523 20 21ZM14 12C13.4477 12 13 12.4477 13 13V16C13 16.5523 13.4477 17 14 17H22C22.5523 17 23 16.5523 23 16V13C23 12.4477 22.5523 12 22 12H14Z" fill="black"/>
</svg>
