<svg width="36" height="36" viewBox="0 0 36 36" fill="none" xmlns="http://www.w3.org/2000/svg">
<path fill-rule="evenodd" clip-rule="evenodd" d="M18 36C27.9411 36 36 27.9411 36 18C36 8.05887 27.9411 0 18 0C8.05887 0 0 8.05887 0 18C0 27.9411 8.05887 36 18 36ZM22.4379 13L19 15.8649V10.135L22.4379 13ZM17 8.21349V15.8649L12.6402 12.2318C12.2159 11.8782 11.5853 11.9355 11.2318 12.3598C10.8782 12.7841 10.9355 13.4146 11.3598 13.7682L16.4379 18L11.3598 22.2318C10.9355 22.5853 10.8782 23.2159 11.2318 23.6402C11.5853 24.0644 12.2159 24.1218 12.6402 23.7682L17 20.135V27.7865C17 28.7191 18.0877 29.2286 18.8042 28.6315L24.548 23.845C25.0757 23.4053 25.0757 22.5947 24.548 22.1549L19.562 18L24.548 13.845C25.0757 13.4053 25.0757 12.5947 24.548 12.1549L18.8042 7.36845C18.0877 6.7714 17 7.28087 17 8.21349ZM19 25.8649V20.135L22.4379 23L19 25.8649Z" fill="black"/>
</svg>
