<svg width="36" height="36" viewBox="0 0 36 36" fill="none" xmlns="http://www.w3.org/2000/svg">
<path fill-rule="evenodd" clip-rule="evenodd" d="M18 36C27.9411 36 36 27.9411 36 18C36 8.05887 27.9411 0 18 0C8.05887 0 0 8.05887 0 18C0 27.9411 8.05887 36 18 36ZM24 11H8C7.44772 11 7 11.4477 7 12V24C7 24.5523 7.44772 25 8 25H24V23C24 22.4477 24.4477 22 25 22C25.5523 22 26 22.4477 26 23V25H28C28.5523 25 29 24.5523 29 24V12C29 11.4477 28.5523 11 28 11H26V13C26 13.5523 25.5523 14 25 14C24.4477 14 24 13.5523 24 13V11ZM25 16C25.5523 16 26 16.4477 26 17V19C26 19.5523 25.5523 20 25 20C24.4477 20 24 19.5523 24 19V17C24 16.4477 24.4477 16 25 16ZM17 17H9V15H17V17ZM15 21H9V19H15V21Z" fill="black"/>
</svg>
