<svg width="36" height="36" viewBox="0 0 36 36" fill="none" xmlns="http://www.w3.org/2000/svg">
<path fill-rule="evenodd" clip-rule="evenodd" d="M18 36C27.9411 36 36 27.9411 36 18C36 8.05887 27.9411 0 18 0C8.05887 0 0 8.05887 0 18C0 27.9411 8.05887 36 18 36ZM10 11C8.89543 11 8 11.8954 8 13V22C8 23.1046 8.89543 24 10 24H26C27.1046 24 28 23.1046 28 22V13C28 11.8954 27.1046 11 26 11H10ZM18 23C18.5523 23 19 22.5523 19 22C19 21.4477 18.5523 21 18 21C17.4477 21 17 21.4477 17 22C17 22.5523 17.4477 23 18 23ZM13 27C13 26.4477 13.4477 26 14 26H22C22.5523 26 23 26.4477 23 27C23 27.5523 22.5523 28 22 28H14C13.4477 28 13 27.5523 13 27Z" fill="black"/>
</svg>
