<svg width="36" height="36" viewBox="0 0 36 36" fill="none" xmlns="http://www.w3.org/2000/svg">
<path fill-rule="evenodd" clip-rule="evenodd" d="M18 36C27.9411 36 36 27.9411 36 18C36 8.05887 27.9411 0 18 0C8.05887 0 0 8.05887 0 18C0 27.9411 8.05887 36 18 36ZM17.063 11.373C16.9768 10.8283 16.6891 10.2624 16.2467 9.93319C15.5119 9.38639 15.0359 8.51123 15.0359 7.5249C15.0359 5.86805 16.379 4.5249 18.0359 4.5249C19.6927 4.5249 21.0359 5.86805 21.0359 7.5249C21.0359 8.51123 20.5599 9.38639 19.8251 9.93319C19.3827 10.2624 19.095 10.8283 19.0087 11.373C18.9674 11.6341 18.8788 11.8819 18.743 12.0856C18.3525 12.6713 17.7193 12.6713 17.3288 12.0856C17.193 11.8819 17.1044 11.6341 17.063 11.373ZM20.3555 13.2014C20.7992 12.8739 21.1426 12.3433 21.1887 11.7938C21.2766 10.7447 21.8599 9.75438 22.8407 9.18813C24.4316 8.26962 26.4659 8.8147 27.3844 10.4056C28.3029 11.9965 27.7578 14.0308 26.1669 14.9493C25.1861 15.5155 24.0368 15.5255 23.0843 15.0771C22.5854 14.8422 21.9541 14.8743 21.4486 15.0948C21.1455 15.2271 20.821 15.2954 20.5168 15.2758C19.7379 15.2255 19.3869 14.6176 19.7329 13.9179C19.868 13.6446 20.0894 13.3978 20.3555 13.2014ZM14.8113 11.7938C14.8574 12.3433 15.2008 12.8739 15.6445 13.2014C15.9106 13.3978 16.132 13.6446 16.2671 13.9179C16.6131 14.6176 16.2621 15.2255 15.4832 15.2758C15.179 15.2954 14.8545 15.2271 14.5514 15.0948C14.0459 14.8743 13.4146 14.8422 12.9157 15.0771C11.9632 15.5255 10.8139 15.5155 9.83309 14.9493C8.24219 14.0308 7.69711 11.9965 8.61562 10.4056C9.53412 8.8147 11.5684 8.26962 13.1593 9.18813C14.1401 9.75438 14.7234 10.7447 14.8113 11.7938ZM22.6038 26.7986C24.4158 25.6088 25.9998 24.5687 25.9998 21.999C25.9998 18.307 22.5897 16.1423 18.9193 17.4036C18.3239 17.6081 17.6703 17.6081 17.0749 17.4036C13.4053 16.1425 10.0002 18.308 10.0002 22C10.0002 24.5685 11.5836 25.6085 13.3942 26.7978C14.8124 27.7293 16.37 28.7523 17.4155 30.6731C17.6426 31.0904 18.3524 31.0907 18.5799 30.6736C19.6272 28.7531 21.1853 27.73 22.6038 26.7986ZM23.0002 22C23.5525 22 24.0002 21.5523 24.0002 21C24.0002 20.4477 23.5525 20 23.0002 20C22.448 20 22.0002 20.4477 22.0002 21C22.0002 21.5523 22.448 22 23.0002 22ZM22.0002 24C22.0002 24.5523 21.5525 25 21.0002 25C20.448 25 20.0002 24.5523 20.0002 24C20.0002 23.4477 20.448 23 21.0002 23C21.5525 23 22.0002 23.4477 22.0002 24ZM19.0002 22C19.5525 22 20.0002 21.5523 20.0002 21C20.0002 20.4477 19.5525 20 19.0002 20C18.448 20 18.0002 20.4477 18.0002 21C18.0002 21.5523 18.448 22 19.0002 22Z" fill="black"/>
</svg>
