<svg width="36" height="36" viewBox="0 0 36 36" fill="none" xmlns="http://www.w3.org/2000/svg">
<path fill-rule="evenodd" clip-rule="evenodd" d="M18 36C27.9411 36 36 27.9411 36 18C36 8.05887 27.9411 0 18 0C8.05887 0 0 8.05887 0 18C0 27.9411 8.05887 36 18 36ZM18.8745 7.79511L23 11.5455V10.0002C23 9.44796 23.4477 9.00024 24 9.00024C24.5523 9.00024 25 9.44796 25 10.0002V13.3637L27.756 15.8692C28.1956 16.2688 27.9129 17.0001 27.3187 17.0001H25V26.0001C25 26.5524 24.5523 27.0001 24 27.0001H12C11.4478 27.0001 11 26.5524 11 26.0001V17.0001H8.68134C8.08722 17.0001 7.80449 16.2688 8.2441 15.8692L17.1256 7.79511C17.6214 7.34434 18.3787 7.34434 18.8745 7.79511ZM17.9978 18.215C17.9978 19.0128 18.5395 19.7364 19.3037 19.8532C19.7434 19.9204 20.1493 19.7917 20.4617 19.5425C20.583 19.4461 20.7549 19.5014 20.8011 19.6518C20.925 20.0559 21 20.4749 21 20.9029C21 22.6406 19.614 24.0443 17.9211 23.9992C16.2856 23.9558 14.9549 22.4862 15.0012 20.798C15.0595 18.6885 16.8561 16.7883 17.6391 16.0581C17.7775 15.9293 17.9978 16.0293 17.9978 16.2218V18.215Z" fill="black"/>
</svg>
