<svg width="36" height="36" viewBox="0 0 36 36" fill="none" xmlns="http://www.w3.org/2000/svg">
<path fill-rule="evenodd" clip-rule="evenodd" d="M18 36C27.9411 36 36 27.9411 36 18C36 8.05887 27.9411 0 18 0C8.05887 0 0 8.05887 0 18C0 27.9411 8.05887 36 18 36ZM20 7H10C9.44772 7 9 7.44772 9 8V28C9 28.5523 9.44772 29 10 29H26C26.5523 29 27 28.5523 27 28V14H21.1C20.4925 14 20 13.5075 20 12.9V7ZM26.5091 12L22 7.40741V12H26.5091ZM22.7474 20.3356C23.1143 20.7484 23.0771 21.3805 22.6644 21.7474L18.2348 25.6848C17.7995 26.0717 17.1381 26.0523 16.7262 25.6404L14.9386 23.8529L12.6402 25.7682C12.2159 26.1218 11.5853 26.0645 11.2318 25.6402C10.8782 25.2159 10.9355 24.5854 11.3598 24.2318L14.2897 21.7903C14.7267 21.426 15.3694 21.4552 15.7717 21.8575L17.5404 23.6262L21.3356 20.2526C21.7484 19.8857 22.3805 19.9229 22.7474 20.3356Z" fill="black"/>
</svg>
