<svg width="36" height="36" viewBox="0 0 36 36" fill="none" xmlns="http://www.w3.org/2000/svg">
<path fill-rule="evenodd" clip-rule="evenodd" d="M18 36C27.9411 36 36 27.9411 36 18C36 8.05887 27.9411 0 18 0C8.05887 0 0 8.05887 0 18C0 27.9411 8.05887 36 18 36ZM18 6C18.5523 6 19 6.44772 19 7V8.04524C24.2284 8.52276 28.0311 12.7246 28.4597 18.0005C28.5044 18.551 28.0523 19 27.5001 19H19V26.5C19 27.8807 17.8807 29 16.5 29C15.1193 29 14 27.8807 14 26.5V26C14 25.4477 14.4477 25 15 25C15.5523 25 16 25.4477 16 26V26.5C16 26.7761 16.2239 27 16.5 27C16.7761 27 17 26.7761 17 26.5V19H8.50005C7.94777 19 7.49569 18.5509 7.54041 18.0005C7.96905 12.7246 11.7716 8.52282 17 8.04525V7C17 6.44772 17.4477 6 18 6ZM20.0513 11.1838C20.226 10.6599 20.7923 10.3767 21.3163 10.5513C23.0738 11.1372 24.2787 12.3213 24.8945 13.5528C25.1414 14.0468 24.9412 14.6475 24.4472 14.8945C23.9533 15.1414 23.3526 14.9412 23.1056 14.4472C22.7214 13.6788 21.9262 12.8629 20.6838 12.4487C20.1599 12.2741 19.8767 11.7077 20.0513 11.1838Z" fill="black"/>
</svg>
