<svg width="36" height="36" viewBox="0 0 36 36" fill="none" xmlns="http://www.w3.org/2000/svg">
<path fill-rule="evenodd" clip-rule="evenodd" d="M18 36C27.9411 36 36 27.9411 36 18C36 8.05887 27.9411 0 18 0C8.05887 0 0 8.05887 0 18C0 27.9411 8.05887 36 18 36ZM27.366 9.39786C26.5394 8.59012 25.2161 8.5998 24.4013 9.41954L21.1239 12.717L12.6313 10.6772C11.9525 10.5142 11.2379 10.7169 10.7457 11.212L9.59725 12.3675C9.37364 12.5925 9.41333 12.9661 9.67921 13.1391L16.3748 17.4951L12.8553 20.9294L9.81466 20.495C9.50301 20.4505 9.18859 20.5554 8.96602 20.778L8.08591 21.6584C7.94502 21.7993 7.97817 22.0359 8.15238 22.1327L12.3502 24.4651L14.6825 28.6633C14.7793 28.8375 15.0159 28.8707 15.1569 28.7297L16.0374 27.8492C16.26 27.6267 16.3647 27.3123 16.3202 27.0007L15.8858 23.96L19.3882 20.4364L19.3868 20.438L23.8822 27.019C24.0592 27.2781 24.4284 27.312 24.6497 27.0894L25.8012 25.9309C26.2956 25.4335 26.4933 24.7135 26.3223 24.0333L24.2007 15.5946L27.3879 12.388C28.2125 11.5583 28.2027 10.2154 27.366 9.39786Z" fill="black"/>
</svg>
