<svg width="36" height="36" viewBox="0 0 36 36" fill="none" xmlns="http://www.w3.org/2000/svg">
<path d="M17.7874 27.7133L16.5488 25.484L17.7439 21.5H18.2559L19.5422 25.7874C19.5627 25.8562 19.5901 25.9211 19.6233 25.9817L18.6614 27.7133C18.4709 28.0562 17.9778 28.0562 17.7874 27.7133Z" fill="black"/>
<path fill-rule="evenodd" clip-rule="evenodd" d="M18 36C27.9412 36 36 27.9412 36 18C36 8.05884 27.9412 0 18 0C8.05884 0 0 8.05884 0 18C0 27.9412 8.05884 36 18 36ZM16.4995 17.5C16.4995 17.7761 16.2764 17.9983 16.0007 17.9806C14.5532 17.8878 11.5559 17.4702 10.6411 16.9286C9.60107 16.3126 9.85889 15.2753 10.1506 14.5385C10.9941 12.2964 11.4995 10.9045 11.4995 8.5C11.4995 4.41516 15.4995 3 17.9998 3C20.5 3 24.4995 4.41516 24.4995 8.5C24.4995 10.8922 24.9707 12.3212 25.8486 14.5385C26.1404 15.2753 26.3984 16.3126 25.3579 16.9286C24.4431 17.4702 21.446 17.8878 19.9985 17.9806C19.9875 17.9813 19.9768 17.9816 19.9661 17.9814L19.9409 17.9807C19.6924 17.9666 19.4995 17.7566 19.4995 17.5V15.5C19.4995 15.2239 19.7258 15 19.9934 14.9309C20.645 14.7623 21.4995 14.2488 21.4995 13V9.13379C21.4995 9.06702 21.4351 9.01831 21.3691 9.02917C20.6504 9.14771 19.0364 8.82104 18.0833 7.6106C18.041 7.55713 17.9585 7.55701 17.9163 7.6106C16.9629 8.82104 15.3489 9.14771 14.6299 9.02917C14.564 9.01831 14.4995 9.06702 14.4995 9.13379V13C14.4995 14.2488 15.3542 14.7623 16.0059 14.9309C16.2732 15 16.4995 15.2239 16.4995 15.5V17.5ZM17.0745 19.5C16.5886 19.5 16.1604 19.8186 16.0208 20.2839L15.1929 23.0433L13.3672 19.757C13.2791 19.5984 13.1118 19.5 12.9304 19.5C11.2961 19.5 9.82642 20.495 9.21948 22.0125L8.44873 23.9388C7.70605 25.7959 8.14136 27.917 9.55566 29.3313L10.1387 29.9142C10.5137 30.2893 11.0225 30.5 11.5527 30.5H24.896C25.4263 30.5 25.9351 30.2893 26.3101 29.9142L26.8931 29.3313C28.3074 27.917 28.7427 25.7959 28 23.9388L27.2292 22.0125C26.6223 20.495 25.1526 19.5 23.5183 19.5C23.3369 19.5 23.1697 19.5984 23.0815 19.757L20.9644 23.568L19.9792 20.2839C19.8396 19.8186 19.4114 19.5 18.9255 19.5H17.0745Z" fill="black"/>
</svg>
