<svg width="36" height="36" viewBox="0 0 36 36" fill="none" xmlns="http://www.w3.org/2000/svg">
<path fill-rule="evenodd" clip-rule="evenodd" d="M18 36C27.9411 36 36 27.9411 36 18C36 8.05887 27.9411 0 18 0C8.05887 0 0 8.05887 0 18C0 27.9411 8.05887 36 18 36ZM18.2815 9.00633C17.463 9.00633 16.6801 9.34074 16.1142 9.93203L6.69401 19.7746C6.31114 20.1747 6.32624 20.8097 6.72769 21.1911L15.2934 29.3284C15.6865 29.702 16.3057 29.694 16.6892 29.3106L26.1215 19.8784C26.6841 19.3158 27.0002 18.5527 27.0002 17.7571V11.0063C27.0002 9.90176 26.1047 9.00633 25.0002 9.00633H18.2815ZM21.2561 14.7829C22.0246 15.5406 23.2619 15.5318 24.0196 14.7633C24.7772 13.9948 24.7685 12.7575 23.9999 11.9998C23.2314 11.2422 21.9942 11.2509 21.2365 12.0194C20.4788 12.788 20.4876 14.0252 21.2561 14.7829ZM15.7929 25.7071L10.2929 20.2071L11.7072 18.7929L17.2072 24.2929L15.7929 25.7071Z" fill="black"/>
</svg>
