<svg width="36" height="36" viewBox="0 0 36 36" fill="none" xmlns="http://www.w3.org/2000/svg">
<path fill-rule="evenodd" clip-rule="evenodd" d="M18 36C27.9411 36 36 27.9411 36 18C36 8.05887 27.9411 0 18 0C8.05887 0 0 8.05887 0 18C0 27.9411 8.05887 36 18 36ZM10 11.8027V26.0564C10 26.5702 10.4293 26.9797 10.9425 26.9554L25.9966 26.2445C26.864 26.2036 27.3442 25.2208 26.8434 24.5114L22.4135 18.2357C22.1663 17.8856 22.1698 17.4168 22.4221 17.0703L26.3417 11.6884C26.8362 11.0095 26.324 10.0603 25.4851 10.1009L10.9517 10.8039C10.4188 10.8297 10 11.2692 10 11.8027Z" fill="black"/>
</svg>
