<svg width="36" height="36" viewBox="0 0 36 36" fill="none" xmlns="http://www.w3.org/2000/svg">
<path fill-rule="evenodd" clip-rule="evenodd" d="M36 18C36 8.05887 27.9411 0 18 0C8.05887 0 0 8.05887 0 18C0 27.9411 8.05887 36 18 36C27.9411 36 36 27.9411 36 18ZM9 8C8.44772 8 8 8.44771 8 9C8 9.55228 8.44772 10 9 10H13V18.0363C12.4261 18.082 11.9345 18.1726 11.5341 18.3176C10.9307 18.5361 10.2319 19.0123 10.2016 19.9035C10.1769 20.6294 10.6437 21.2215 11.0304 21.6068C11.4646 22.0395 12.0558 22.4633 12.728 22.8608C13.3848 23.2491 14.161 23.6365 15.0178 24H9C8.44772 24 8 23.5523 8 23V21C8 20.4477 7.55228 20 7 20C6.44772 20 6 20.4477 6 21V23C6 24.6569 7.34315 26 9 26H24.0342H27H28.9671C29.512 26 30.0002 25.952 30.3941 25.8173C30.7749 25.6872 31.3163 25.3782 31.4403 24.7151C31.5484 24.1369 31.2513 23.6719 31.0681 23.4366C30.907 23.2295 30.7059 23.037 30.4948 22.8632C30.4166 22.8173 30.3452 22.7612 30.2825 22.6965C29.9572 22.4525 29.5781 22.2151 29.1838 22H24C23.4477 22 23 21.5523 23 21C23 20.4477 23.4477 20 24 20H26.8483C26.7627 19.7922 26.6608 19.5918 26.5409 19.4025C26.0291 18.5944 25.1854 18 24.0342 18H17.7773L15.7353 10H20C20.5523 10 21 9.55228 21 9C21 8.44771 20.5523 8 20 8H9Z" fill="black"/>
</svg>
