<svg width="36" height="36" viewBox="0 0 36 36" fill="none" xmlns="http://www.w3.org/2000/svg">
<path fill-rule="evenodd" clip-rule="evenodd" d="M18 36C27.9411 36 36 27.9411 36 18C36 8.05887 27.9411 0 18 0C8.05887 0 0 8.05887 0 18C0 27.9411 8.05887 36 18 36ZM10 7C9.44772 7 9 7.44772 9 8V28C9 28.5523 9.44772 29 10 29H26C26.5523 29 27 28.5523 27 28V8C27 7.44772 26.5523 7 26 7H14V9H12V7H10ZM14 11V9H16V11H14ZM14 13H12V11H14V13ZM14 15V13H16V15H14ZM14 15V17H12V15H14ZM11 21.0635V26.6H12.2291V24.7254H12.881L14.0202 26.6H15.3766L14.1026 24.5824C14.2625 24.5083 14.3974 24.4183 14.5073 24.3123C14.6172 24.2064 14.7046 24.082 14.7696 23.939C14.8395 23.796 14.8895 23.6345 14.9195 23.4545C14.9494 23.2744 14.9644 23.0705 14.9644 22.8428C14.9644 22.5357 14.927 22.2683 14.852 22.0406C14.7821 21.8076 14.6622 21.6143 14.4923 21.4607C14.3274 21.3071 14.1051 21.1933 13.8253 21.1191C13.5455 21.0397 13.1983 21 12.7836 21C12.4839 21 12.1941 21.0079 11.9143 21.0238C11.6345 21.0397 11.3297 21.053 11 21.0635ZM13.4956 23.518C13.3707 23.6398 13.1334 23.7007 12.7836 23.7007H12.2066V22.1915C12.3065 22.1809 12.3964 22.173 12.4764 22.1677C12.5563 22.1624 12.6512 22.1597 12.7611 22.1597C12.946 22.1597 13.0984 22.1756 13.2183 22.2074C13.3382 22.2339 13.4331 22.2789 13.5031 22.3424C13.573 22.4007 13.6205 22.4774 13.6455 22.5728C13.6754 22.6681 13.6904 22.7819 13.6904 22.9143C13.6904 23.1897 13.6255 23.3909 13.4956 23.518ZM17.0294 25.4401H18.7306L19.0604 26.5998H20.3269L18.6407 21.0396H17.1793L15.4856 26.5998H16.7072L17.0294 25.4401ZM18.4308 24.3598H17.3292L17.8763 22.3899L18.4308 24.3598ZM20.6236 26.6V21.0635C20.9533 21.053 21.2581 21.0397 21.5378 21.0238C21.8176 21.0079 22.1074 21 22.4072 21C22.8219 21 23.1691 21.0397 23.4489 21.1191C23.7287 21.1933 23.951 21.3071 24.1159 21.4607C24.2857 21.6143 24.4056 21.8076 24.4756 22.0406C24.5505 22.2683 24.588 22.5357 24.588 22.8428C24.588 23.0705 24.573 23.2744 24.543 23.4545C24.513 23.6345 24.4631 23.796 24.3931 23.939C24.3282 24.082 24.2408 24.2064 24.1308 24.3123C24.0209 24.4183 23.886 24.5083 23.7262 24.5824L25.0002 26.6H23.6437L22.5046 24.7254H21.8526V26.6H20.6236ZM22.4072 23.7007C22.7569 23.7007 22.9942 23.6398 23.1191 23.518C23.249 23.3909 23.314 23.1897 23.314 22.9143C23.314 22.7819 23.299 22.6681 23.269 22.5728C23.244 22.4774 23.1966 22.4007 23.1266 22.3424C23.0567 22.2789 22.9617 22.2339 22.8418 22.2074C22.7219 22.1756 22.5695 22.1597 22.3847 22.1597C22.2748 22.1597 22.1799 22.1624 22.0999 22.1677C22.02 22.173 21.93 22.1809 21.8301 22.1915V23.7007H22.4072Z" fill="black"/>
</svg>
