<svg width="36" height="36" viewBox="0 0 36 36" fill="none" xmlns="http://www.w3.org/2000/svg">
<path fill-rule="evenodd" clip-rule="evenodd" d="M18 36C27.9411 36 36 27.9411 36 18C36 8.05887 27.9411 0 18 0C8.05887 0 0 8.05887 0 18C0 27.9411 8.05887 36 18 36ZM8 12C8 10.8954 8.89543 10 10 10H26C27.1046 10 28 10.8954 28 12V20H21.9984C21.5354 20 21.1338 20.2876 20.9724 20.7022C20.4152 22.134 19.2394 23 18 23C16.7606 23 15.5848 22.134 15.0276 20.7022C14.8662 20.2876 14.4646 20 14.0015 20H8V12ZM22.5798 22H28V25C28 26.1046 27.1046 27 26 27H10C8.89543 27 8 26.1046 8 25V22H13.4201C14.3074 23.741 15.9829 25 18 25C20.0171 25 21.6925 23.741 22.5798 22ZM26 18H10V16H26V18ZM10 14H26V12H10V14Z" fill="black"/>
</svg>
