<svg width="36" height="36" viewBox="0 0 36 36" fill="none" xmlns="http://www.w3.org/2000/svg">
<path fill-rule="evenodd" clip-rule="evenodd" d="M18 36C27.9411 36 36 27.9411 36 18C36 8.05887 27.9411 0 18 0C8.05887 0 0 8.05887 0 18C0 27.9411 8.05887 36 18 36ZM10 7C9.44772 7 9 7.44772 9 8V28C9 28.5523 9.44772 29 10 29H26C26.5523 29 27 28.5523 27 28V8C27 7.44772 26.5523 7 26 7H14V9H12V7H10ZM14 11V9H16V11H14ZM14 13H12V11H14V13ZM14 15V13H16V15H14ZM14 15V17H12V15H14ZM20.3 21.0556C20.4747 21.0503 20.631 21.045 20.7686 21.0397C20.9116 21.0291 21.0546 21.0212 21.1976 21.0159C21.3406 21.0106 21.4888 21.0079 21.6424 21.0079C21.8013 21.0026 21.984 21 22.1905 21C22.63 21 23.0007 21.0371 23.3025 21.1112C23.6097 21.18 23.8586 21.2913 24.0492 21.4448C24.2398 21.5984 24.3775 21.7996 24.4623 22.0485C24.5523 22.2921 24.5973 22.5913 24.5973 22.9461C24.5973 23.6663 24.404 24.1958 24.0174 24.5348C23.6309 24.8737 23.0166 25.0431 22.1746 25.0431H21.8886C21.8039 25.0378 21.7086 25.0299 21.6027 25.0193V26.6H20.3V21.0556ZM21.6027 23.947C21.7086 23.9575 21.8013 23.9655 21.8807 23.9708H22.1746C22.5771 23.9708 22.8577 23.8913 23.0166 23.7325C23.1754 23.5736 23.2549 23.3327 23.2549 23.0096C23.2549 22.8508 23.239 22.7131 23.2072 22.5966C23.1754 22.4801 23.1172 22.3821 23.0325 22.3027C22.9477 22.2233 22.8339 22.165 22.6909 22.1279C22.5532 22.0909 22.3785 22.0723 22.1667 22.0723C22.0607 22.0723 21.9654 22.075 21.8807 22.0803C21.8013 22.0803 21.7086 22.0856 21.6027 22.0962V23.947ZM14.6372 22.1677L12 25.8614V26.6001H16.4244V25.4721H13.7396L16.3767 21.7785V21.0398H12.0953V22.1677H14.6372ZM18.8948 21.0398H17.6V26.6001H18.8948V21.0398Z" fill="black"/>
</svg>
