<svg width="36" height="36" viewBox="0 0 36 36" fill="none" xmlns="http://www.w3.org/2000/svg">
<path fill-rule="evenodd" clip-rule="evenodd" d="M18 36C27.9411 36 36 27.9411 36 18C36 8.05887 27.9411 0 18 0C8.05887 0 0 8.05887 0 18C0 27.9411 8.05887 36 18 36ZM15 28.5C15 28.7761 14.7758 29.0016 14.5 28.9866C12.3168 28.8681 10.8307 27.9848 9.41921 27.1459C9.32992 27.0928 9.24093 27.04 9.15208 26.9874C8.12562 26.3808 7.73564 25.0142 8.18374 23.8844C8.7984 22.3346 9.00266 21.3221 9.19911 20.3484C9.2715 19.9895 9.34284 19.6359 9.43326 19.2626C9.77593 17.8479 9.8616 14.547 9.8616 13.0734C10.2043 7.06101 15.43 6 18 6C20.57 6 25.7957 7.07252 26.1384 13.0849C26.1384 14.5585 26.2241 17.8594 26.5667 19.2741C26.6572 19.6474 26.7285 20.001 26.8009 20.3599C26.9973 21.3337 27.2016 22.3461 27.8163 23.8959C28.2644 25.0257 27.8744 26.3923 26.8479 26.999C26.7685 27.0459 26.6891 27.093 26.6093 27.1404C25.1894 27.9833 23.6979 28.8687 21.5 28.9867C21.2242 29.0015 21 28.7761 21 28.5V24.9213C21 24.6779 21.1788 24.4757 21.4034 24.382C22.1764 24.0595 23 23.1322 23 21.0309V15C22.0005 15.2947 19.7133 15.122 18 13C16.2867 15.122 13.9995 15.2947 13 15V21.0309C13 23.1322 13.8236 24.0595 14.5966 24.382C14.8212 24.4757 15 24.6779 15 24.9213V28.5Z" fill="black"/>
</svg>
