<svg width="36" height="36" viewBox="0 0 36 36" fill="none" xmlns="http://www.w3.org/2000/svg">
<path fill-rule="evenodd" clip-rule="evenodd" d="M18 36C27.9411 36 36 27.9411 36 18C36 8.05887 27.9411 0 18 0C8.05887 0 0 8.05887 0 18C0 27.9411 8.05887 36 18 36ZM8.70708 16.0601C8.31655 15.6696 8.31655 15.0364 8.70708 14.6459L15.6496 7.70342C16.0401 7.31289 16.6733 7.31289 17.0638 7.70342L27.2204 17.86C27.6109 18.2506 27.6109 18.8837 27.2204 19.2743L23.4947 23H15.6469L8.70708 16.0601ZM21 16C21 15.4477 20.5523 15 20 15C19.4477 15 19 15.4477 19 16V19H18C17.4477 19 17 19.4477 17 20C17 20.5523 17.4477 21 18 21H19.9C20.5075 21 21 20.5075 21 19.9V16ZM7 26C7 25.4477 7.44772 25 8 25H28C28.5523 25 29 25.4477 29 26C29 26.5523 28.5523 27 28 27H8C7.44772 27 7 26.5523 7 26Z" fill="black"/>
</svg>
