<svg width="36" height="36" viewBox="0 0 36 36" fill="none" xmlns="http://www.w3.org/2000/svg">
<path fill-rule="evenodd" clip-rule="evenodd" d="M18 36C27.9411 36 36 27.9411 36 18C36 8.05887 27.9411 0 18 0C8.05887 0 0 8.05887 0 18C0 27.9411 8.05887 36 18 36ZM19 6C19 5.44772 18.5523 5 18 5C17.4477 5 17 5.44772 17 6V8C17 8.55228 17.4477 9 18 9C18.5523 9 19 8.55228 19 8V6ZM9 7.5C9.55228 7.5 10 7.94772 10 8.5V27.5C10 28.0523 9.55228 28.5 9 28.5C8.44771 28.5 8 28.0523 8 27.5V8.5C8 7.94772 8.44771 7.5 9 7.5ZM27 7.5C27.5523 7.5 28 7.94772 28 8.5V27.5C28 28.0523 27.5523 28.5 27 28.5C26.4477 28.5 26 28.0523 26 27.5V8.5C26 7.94772 26.4477 7.5 27 7.5ZM18 27C18.5523 27 19 27.4477 19 28V30C19 30.5523 18.5523 31 18 31C17.4477 31 17 30.5523 17 30V28C17 27.4477 17.4477 27 18 27ZM16.5 17.5V13.5H19C20.1046 13.5 21 14.3954 21 15.5C21 16.6046 20.1046 17.5 19 17.5H16.5ZM19 19.5C21.2091 19.5 23 17.7091 23 15.5C23 13.2909 21.2091 11.5 19 11.5H15.6C14.9925 11.5 14.5 11.9925 14.5 12.6V17.5H14C13.4477 17.5 13 17.9477 13 18.5C13 19.0523 13.4477 19.5 14 19.5H14.5V20.5H14C13.4477 20.5 13 20.9477 13 21.5C13 22.0523 13.4477 22.5 14 22.5H14.5V23C14.5 23.5523 14.9477 24 15.5 24C16.0523 24 16.5 23.5523 16.5 23V22.5H18C18.5523 22.5 19 22.0523 19 21.5C19 20.9477 18.5523 20.5 18 20.5H16.5V19.5H19Z" fill="black"/>
</svg>
