<svg width="36" height="36" viewBox="0 0 36 36" fill="none" xmlns="http://www.w3.org/2000/svg">
<path fill-rule="evenodd" clip-rule="evenodd" d="M18 36C27.9411 36 36 27.9411 36 18C36 8.05887 27.9411 0 18 0C8.05887 0 0 8.05887 0 18C0 27.9411 8.05887 36 18 36ZM18 8C13.0158 8 9 11.979 9 16.8571V19H12C12.5523 19 13 19.4477 13 20V26C13 26.5523 12.5523 27 12 27H10C8.34315 27 7 25.6569 7 24V20V16.8571C7 10.8474 11.9385 6 18 6C24.0615 6 29 10.8474 29 16.8571V20V24C29 25.6569 27.6569 27 26 27H24C23.4477 27 23 26.5523 23 26V20C23 19.4477 23.4477 19 24 19H27V16.8571C27 11.979 22.9842 8 18 8Z" fill="black"/>
</svg>
