<svg width="36" height="36" viewBox="0 0 36 36" fill="none" xmlns="http://www.w3.org/2000/svg">
<path fill-rule="evenodd" clip-rule="evenodd" d="M18 36C27.9411 36 36 27.9411 36 18C36 8.05887 27.9411 0 18 0C8.05887 0 0 8.05887 0 18C0 27.9411 8.05887 36 18 36ZM21 10V13H16C14.3431 13 13 14.3431 13 16V21H10C9.44775 21 9 20.5523 9 20V10C9 9.44772 9.44775 9 10 9H20C20.5522 9 21 9.44772 21 10ZM15 16V21H20C20.5522 21 21 20.5523 21 20V15H16C15.4478 15 15 15.4477 15 16ZM15 23H20C21.6569 23 23 21.6569 23 20V15H26C26.5522 15 27 15.4477 27 16V26C27 26.5523 26.5522 27 26 27H16C15.4478 27 15 26.5523 15 26V23Z" fill="black"/>
</svg>
