<svg width="36" height="36" viewBox="0 0 36 36" fill="none" xmlns="http://www.w3.org/2000/svg">
<path d="M10 18C10 17.4478 10.4478 17 11 17H25C25.5522 17 26 17.4478 26 18C26 18.5522 25.5522 19 25 19H11C10.4478 19 10 18.5522 10 18Z" fill="black"/>
<path fill-rule="evenodd" clip-rule="evenodd" d="M36 18C36 8.05884 27.9412 0 18 0C8.05884 0 0 8.05884 0 18C0 27.9412 8.05884 36 18 36C27.9412 36 36 27.9412 36 18ZM13.9082 5.5C13.4146 5.5 12.9321 5.64612 12.5215 5.91992L7.02539 9.58398C6.61377 9.8584 6.80786 10.5 7.30273 10.5H28.697C29.1919 10.5 29.386 9.8584 28.9744 9.58398L23.4783 5.91992C23.3027 5.80298 23.1143 5.70935 22.9172 5.64038C22.6533 5.54797 22.3743 5.5 22.0916 5.5H13.9082ZM9 28C8.44775 28 8 28.4478 8 29C8 29.5522 8.44775 30 9 30H27C27.5522 30 28 29.5522 28 29C28 28.4478 27.5522 28 27 28H9ZM23.0002 12H22V14.5C22 14.7761 21.7761 15 21.5 15H20.5C20.2239 15 20 14.7761 20 14.5V12H16.0002V14.5C16.0002 14.7761 15.7764 15 15.5002 15H14.5002C14.2241 15 14.0002 14.7761 14.0002 14.5V12H13V14.5C13 14.7761 12.7761 15 12.5 15H11.5C11.2239 15 11 14.7761 11 14.5V12H9V25C9 25.5522 9.44775 26 10 26H11V23C11 21.3431 12.3433 20 14 20C15.6567 20 17 21.3431 17 23V26H19V23C19 21.3431 20.3433 20 22 20C23.6567 20 25 21.3431 25 23V26H26C26.5522 26 27 25.5522 27 25V12H24.9998V14.5C24.9998 14.6298 24.9502 14.748 24.8691 14.8369C24.7776 14.9371 24.646 15 24.4998 15H23.5002C23.2241 15 23.0002 14.7761 23.0002 14.5V12ZM22 22C21.4478 22 21 22.4478 21 23V26H23V23C23 22.4478 22.5522 22 22 22ZM14 22C13.4478 22 13 22.4478 13 23V26H15V23C15 22.4478 14.5522 22 14 22ZM6.5 17.5C6.5 17.2239 6.27612 17 6 17C5.72388 17 5.5 17.2239 5.5 17.5L4.5603 24.0773C4.521 24.2113 4.5 24.3533 4.5 24.5C4.5 25.3284 5.17163 26 6 26C6.82837 26 7.5 25.3284 7.5 24.5C7.5 24.3533 7.479 24.2113 7.4397 24.0773L6.5 17.5ZM30.4397 17.1741C30.5149 17.2616 30.5603 17.3755 30.5603 17.5L31.5 24.0773C31.5261 24.1665 31.5442 24.2592 31.5532 24.3545C31.5579 24.4023 31.5603 24.4509 31.5603 24.5C31.5603 25.3284 30.8889 26 30.0603 26C29.2319 26 28.5603 25.3284 28.5603 24.5C28.5603 24.3533 28.5815 24.2113 28.6208 24.0773L29.5603 17.5C29.5603 17.2239 29.7842 17 30.0603 17C30.2119 17 30.3479 17.0675 30.4397 17.1741Z" fill="black"/>
</svg>
