<svg width="36" height="36" viewBox="0 0 36 36" fill="none" xmlns="http://www.w3.org/2000/svg">
<path fill-rule="evenodd" clip-rule="evenodd" d="M36 18C36 8.05887 27.9411 0 18 0C8.05887 0 0 8.05887 0 18C0 27.9411 8.05887 36 18 36C27.9411 36 36 27.9411 36 18ZM26.9049 17C27.493 17 27.9541 16.4951 27.9008 15.9095L27.0827 6.90946C27.0358 6.39439 26.604 6 26.0868 6H21.9132C21.396 6 20.9641 6.39439 20.9173 6.90947L20.0991 15.9095C20.0459 16.4951 20.507 17 21.095 17H23V23C23 23.5523 23.4477 24 24 24C24.5523 24 25 23.5523 25 23V17H26.9049ZM26.2764 28.5528C26.6089 29.2177 26.1254 30 25.382 30H22.6181C21.8747 30 21.3912 29.2177 21.7237 28.5528L23 26H25L26.2764 28.5528ZM12.5 13C11.9477 13 11.5 13.4477 11.5 14V18C11.5 18.5523 11.9477 19 12.5 19H14.5C15.0523 19 15.5 18.5523 15.5 18V14C15.5 13.4477 15.0523 13 14.5 13H12.5ZM9.11731 21C8.52129 21 8.0576 21.5181 8.12342 22.1104L8.9012 29.1104C8.95747 29.6169 9.38553 30 9.89508 30H17.105C17.6145 30 18.0426 29.6169 18.0989 29.1104L18.8767 22.1104C18.9425 21.5181 18.4788 21 17.8828 21H9.11731ZM13.5 27C14.684 27 15.6765 26.1055 15.7992 24.9279L16 23H11L11.2008 24.9279C11.3235 26.1055 12.316 27 13.5 27Z" fill="black"/>
</svg>
