<svg width="36" height="36" viewBox="0 0 36 36" fill="none" xmlns="http://www.w3.org/2000/svg">
<path fill-rule="evenodd" clip-rule="evenodd" d="M18 36C27.9411 36 36 27.9411 36 18C36 8.05887 27.9411 0 18 0C8.05887 0 0 8.05887 0 18C0 27.9411 8.05887 36 18 36ZM27.2071 8.79289C27.5976 9.18342 27.5976 9.81658 27.2071 10.2071L10.2071 27.2071C9.81658 27.5976 9.18342 27.5976 8.79289 27.2071C8.40237 26.8166 8.40237 26.1834 8.79289 25.7929L15.274 19.3118L12.9452 16.969L16.9571 12.9571L19.2929 15.2929L25.7929 8.79289C26.1834 8.40237 26.8166 8.40237 27.2071 8.79289ZM15.5429 11.5429L11.5352 15.5506L9.70286 13.7072C9.31433 13.3163 9.31527 12.6848 9.70496 12.2951L12.2929 9.70712C12.6834 9.31659 13.3166 9.31658 13.7071 9.70711L15.5429 11.5429ZM17.9136 21.9674L21.9406 17.9404L26.7076 22.7071C26.8952 22.8946 27.0005 23.149 27.0005 23.4142V26.5848C27.0005 26.861 26.7767 27.0848 26.5005 27.0848H23.416C23.1497 27.0848 22.8945 26.9787 22.7067 26.7898L17.9136 21.9674Z" fill="black"/>
</svg>
