<svg width="36" height="36" viewBox="0 0 36 36" fill="none" xmlns="http://www.w3.org/2000/svg">
<path fill-rule="evenodd" clip-rule="evenodd" d="M18 36C27.9411 36 36 27.9411 36 18C36 8.05887 27.9411 0 18 0C8.05887 0 0 8.05887 0 18C0 27.9411 8.05887 36 18 36ZM23.7071 8.70695C23.3166 8.31643 22.6834 8.31643 22.2929 8.70696L20.4569 10.5429L24.4569 14.5429L26.2929 12.7069C26.6834 12.3164 26.6834 11.6832 26.2929 11.2927L23.7071 8.70695ZM23.0427 15.9571L19.0427 11.9572L9.29289 21.707C9.10536 21.8945 9 22.1488 9 22.4141V25.4998C9 25.776 9.22386 25.9998 9.5 25.9998H12.5858C12.851 25.9998 13.1053 25.8945 13.2929 25.707L23.0427 15.9571ZM19 25C19 24.4477 19.4477 24 20 24H26C26.5523 24 27 24.4477 27 25C27 25.5523 26.5523 26 26 26H20C19.4477 26 19 25.5523 19 25Z" fill="black"/>
</svg>
