<svg width="36" height="36" viewBox="0 0 36 36" fill="none" xmlns="http://www.w3.org/2000/svg">
<path fill-rule="evenodd" clip-rule="evenodd" d="M18 36C27.9411 36 36 27.9411 36 18C36 8.0589 27.9411 0 18 0C8.0589 0 0 8.0589 0 18C0 27.9411 8.0589 36 18 36ZM5.87469 14.5L17.5 9.10254L29.1254 14.5L17.5 19.8975L5.87469 14.5ZM25 18.6204L17.9633 21.8875C17.6695 22.0239 17.3306 22.0239 17.0368 21.8875L10 18.6204V23C10.1667 24.3334 12 27 17.5 27C23 27 24.8333 24.3334 25 23V18.6204ZM30 18C30 17.4478 29.5522 17 29 17C28.4477 17 28 17.4478 28 18V22C28 22.5523 28.4477 23 29 23C29.5522 23 30 22.5523 30 22V18Z" fill="black"/>
</svg>
