<svg width="36" height="36" viewBox="0 0 36 36" fill="none" xmlns="http://www.w3.org/2000/svg">
<path fill-rule="evenodd" clip-rule="evenodd" d="M18 36C27.9411 36 36 27.9411 36 18C36 8.05887 27.9411 0 18 0C8.05887 0 0 8.05887 0 18C0 27.9411 8.05887 36 18 36ZM17.1317 6.51942C17.5156 5.84761 18.4843 5.84761 18.8682 6.51942L29.145 24.5039C29.526 25.1705 29.0446 26 28.2768 26H7.72316C6.95533 26 6.47397 25.1705 6.85491 24.5039L17.1317 6.51942ZM15.5739 23.896C15.9249 24.039 16.3929 24.117 16.8349 24.117C18.1609 24.117 18.7979 23.623 19.4999 21.933L22.4379 14.9H20.2149L18.4729 19.489L16.2629 14.9H13.7539L17.3029 21.621C17.1079 22.063 16.7699 22.128 16.4449 22.128C16.1069 22.128 15.7559 21.985 15.5739 21.829V23.896Z" fill="black"/>
</svg>
