<svg width="36" height="36" viewBox="0 0 36 36" fill="none" xmlns="http://www.w3.org/2000/svg">
<path fill-rule="evenodd" clip-rule="evenodd" d="M18 36C27.9411 36 36 27.9411 36 18C36 8.05887 27.9411 0 18 0C8.05887 0 0 8.05887 0 18C0 27.9411 8.05887 36 18 36ZM10 15C10 10.5817 13.5817 7 18 7C22.4183 7 26 10.5817 26 15V15.778C23.5252 15.095 21.3183 15.7259 20.2571 16.0292L20.2253 16.0383C19.6943 16.19 19.3868 16.7435 19.5385 17.2745C19.6902 17.8056 20.2437 18.1131 20.7747 17.9613C21.9159 17.6353 23.8918 17.0882 26 17.8787V21C26 25.4183 22.4183 29 18 29C13.5817 29 10 25.4183 10 21V18.0001C10.0908 18.0001 10.1831 17.9876 10.2747 17.9614C11.3252 17.6613 13.0828 17.1737 15 17.7146V22.9217C15 23.4181 15.3377 23.8743 15.8514 23.9925C16.6582 24.178 18.4952 24.4068 20.2425 23.9699C20.7783 23.836 21.1041 23.2931 20.9702 22.7573C20.8362 22.2215 20.2933 21.8957 19.7575 22.0297C18.7914 22.2712 17.7429 22.2458 17 22.1591V17.0676C17 16.6147 16.722 16.2075 16.2994 16.043C13.6878 15.0264 11.2628 15.6066 10 15.9603V15Z" fill="black"/>
</svg>
