<svg width="36" height="36" viewBox="0 0 36 36" fill="none" xmlns="http://www.w3.org/2000/svg">
<path fill-rule="evenodd" clip-rule="evenodd" d="M18 36C27.9411 36 36 27.9411 36 18C36 8.05887 27.9411 0 18 0C8.05887 0 0 8.05887 0 18C0 27.9411 8.05887 36 18 36ZM9.1 8C8.49249 8 8 8.49249 8 9.1V14C8 14.5523 8.44771 15 9 15C9.55228 15 10 14.5523 10 14V10H14C14.5523 10 15 9.55228 15 9C15 8.44771 14.5523 8 14 8H9.1ZM26.9 8C27.5075 8 28 8.49249 28 9.1V14C28 14.5523 27.5523 15 27 15C26.4477 15 26 14.5523 26 14V10H22C21.4477 10 21 9.55228 21 9C21 8.44771 21.4477 8 22 8H26.9ZM27 21C27.5523 21 28 21.4477 28 22V26.9C28 27.5075 27.5075 28 26.9 28H22C21.4477 28 21 27.5523 21 27C21 26.4477 21.4477 26 22 26H26V22C26 21.4477 26.4477 21 27 21ZM8 22C8 21.4477 8.44772 21 9 21C9.55228 21 10 21.4477 10 22V26H14C14.5523 26 15 26.4477 15 27C15 27.5523 14.5523 28 14 28H9.1C8.49249 28 8 27.5075 8 26.9V22ZM12.8207 17.9297C12.9037 17.6488 13.0038 17.3865 13.1218 17.1457C13.564 16.2431 14.3317 15.5306 15.4313 15.5009C15.7499 15.4923 16.0324 15.6223 16.229 15.8146C16.5447 16.1233 16.8359 16.2663 17.4169 16.3511C17.9251 16.4253 18.5587 16.4431 19.5032 16.4696H19.5032L19.5033 16.4696L19.5042 16.4696C19.8121 16.4782 20.1531 16.4878 20.5335 16.5006C21.2684 16.5252 21.9011 16.6918 22.4056 17.038C22.7598 17.281 23.0076 17.5827 23.1774 17.9019C24.5947 14.9979 22.1169 12.4234 20 12C17.5474 11.5096 16.5384 12.4626 16.029 12.9711C16.0102 12.9898 15.9845 13 15.9579 13.0002C13.4888 13.0225 12.5 15.0085 12.5 16.5001C12.5 17.0418 12.6304 17.5184 12.8207 17.9297ZM21.5 19.128V20.5V21.1006C21.5 23.0336 19.933 24.6006 18 24.6006C16.067 24.6006 14.5 23.0336 14.5 21.1006V20.5C14.5 19.3412 14.6751 18.5209 14.9178 18.0256C15.0304 17.7958 15.1385 17.6659 15.2341 17.5928C15.7921 18.0131 16.3938 18.2229 17.128 18.3301C17.7627 18.4228 18.5617 18.4449 19.5489 18.4722L19.5491 18.4722L19.5496 18.4722C19.8389 18.4802 20.1443 18.4886 20.4665 18.4994C20.9492 18.5156 21.1754 18.6194 21.2741 18.6872C21.3591 18.7454 21.4166 18.8215 21.4603 18.9588C21.4764 19.0094 21.4896 19.0657 21.5 19.128Z" fill="black"/>
</svg>
