<svg width="36" height="36" viewBox="0 0 36 36" fill="none" xmlns="http://www.w3.org/2000/svg">
<path fill-rule="evenodd" clip-rule="evenodd" d="M18 36C27.9411 36 36 27.9411 36 18C36 8.05887 27.9411 0 18 0C8.05887 0 0 8.05887 0 18C0 27.9411 8.05887 36 18 36ZM10 10.3747V27C10 27.5523 10.4477 28 11 28H25C25.5523 28 26 27.5523 26 27V12C26 11.4477 25.5523 11 25 11H22L21.9951 11H14C13.4477 11 13 10.5523 13 10C13 9.44772 13.4477 9 14 9H21V6.59024C21 6.28127 20.7226 6.04625 20.4178 6.09705L12.5068 7.41554C11.0602 7.65664 10 8.90821 10 10.3747ZM13 17.8636C13 18.6439 13.3178 19.3926 13.8333 19.9091C13.846 19.9217 13.8587 19.9342 13.8716 19.9466L17.1593 23.1746C17.6261 23.6329 18.3739 23.6329 18.8407 23.1746L22.1667 19.9091C22.7069 19.3893 23 18.6649 23 17.8636C23 16.2821 21.6942 15 20.0833 15C19.2672 15 18.5294 15.4696 18 16C17.4706 15.4696 16.7328 15 15.9167 15C14.3058 15 13 16.2821 13 17.8636Z" fill="black"/>
</svg>
