<svg width="36" height="36" viewBox="0 0 36 36" fill="none" xmlns="http://www.w3.org/2000/svg">
<path fill-rule="evenodd" clip-rule="evenodd" d="M36 18C36 27.9411 27.9411 36 18 36C8.05887 36 0 27.9411 0 18C0 8.05887 8.05887 0 18 0C27.9411 0 36 8.05887 36 18ZM14 12.5C14.5523 12.5 15 12.9477 15 13.5V15C15 15.5523 14.5523 16 14 16C13.4477 16 13 15.5523 13 15V13.5C13 12.9477 13.4477 12.5 14 12.5ZM24 13.5C24 12.9477 23.5523 12.5 23 12.5C22.4477 12.5 22 12.9477 22 13.5V15C22 15.5523 22.4477 16 23 16C23.5523 16 24 15.5523 24 15V13.5ZM19 14.5C19.5523 14.5 20 14.9477 20 15.5V18C20 18.8284 19.3284 19.5 18.5 19.5H18C17.4477 19.5 17 19.0523 17 18.5C17 17.9477 17.4477 17.5 18 17.5V15.5C18 14.9477 18.4477 14.5 19 14.5ZM18 21.625C17.0735 21.625 16.2271 21.3129 15.7071 20.7929C15.3166 20.4024 14.6834 20.4024 14.2929 20.7929C13.9024 21.1834 13.9024 21.8166 14.2929 22.2071C15.2729 23.1871 16.6765 23.625 18 23.625C19.3235 23.625 20.7271 23.1871 21.7071 22.2071C22.0976 21.8166 22.0976 21.1834 21.7071 20.7929C21.3166 20.4024 20.6834 20.4024 20.2929 20.7929C19.7729 21.3129 18.9265 21.625 18 21.625ZM8 9.1C8 8.49249 8.49249 8 9.1 8H14C14.5523 8 15 8.44771 15 9C15 9.55229 14.5523 10 14 10H10V14C10 14.5523 9.55229 15 9 15C8.44771 15 8 14.5523 8 14V9.1ZM26.9 8C27.5075 8 28 8.49249 28 9.1V14C28 14.5523 27.5523 15 27 15C26.4477 15 26 14.5523 26 14V10H22C21.4477 10 21 9.55229 21 9C21 8.44771 21.4477 8 22 8H26.9ZM27 21C27.5523 21 28 21.4477 28 22V26.9C28 27.5075 27.5075 28 26.9 28H22C21.4477 28 21 27.5523 21 27C21 26.4477 21.4477 26 22 26H26V22C26 21.4477 26.4477 21 27 21ZM8 22C8 21.4477 8.44772 21 9 21C9.55228 21 10 21.4477 10 22V26H14C14.5523 26 15 26.4477 15 27C15 27.5523 14.5523 28 14 28H9.1C8.49249 28 8 27.5075 8 26.9V22Z" fill="black"/>
</svg>
