<svg width="36" height="36" viewBox="0 0 36 36" fill="none" xmlns="http://www.w3.org/2000/svg">
<path fill-rule="evenodd" clip-rule="evenodd" d="M18 36C27.9411 36 36 27.9411 36 18C36 8.05887 27.9411 0 18 0C8.05887 0 0 8.05887 0 18C0 27.9411 8.05887 36 18 36ZM9.26061 18.8192C9.56915 18.4078 9.82314 17.9645 10.0203 17.5L12 17.5C13.1046 17.5 14 16.6046 14 15.5V13.2747C15.7698 12.8792 18.9474 12.5337 22 13.2659V15.5C22 16.6046 22.8954 17.5 24 17.5L25.9797 17.5C26.1769 17.9645 26.4309 18.4078 26.7394 18.8192C27.5577 19.9102 28 21.2372 28 22.601V25C28 26.1046 27.1046 27 26 27H10C8.89543 27 8 26.1046 8 25V22.601C8 21.2372 8.44233 19.9102 9.26061 18.8192ZM18 8.5C12.5747 8.5 9.38874 10.1234 8.0933 11.3681C7.63765 11.8059 7.5 12.5433 7.5 13.6466V15.5L12 15.5V13.244C12 12.3739 12.5753 11.5481 13.4969 11.3379C15.4487 10.8928 19.0188 10.4816 22.5185 11.3336C23.4256 11.5545 24 12.3728 24 13.244V15.5L28.5 15.5V13.6466C28.5 12.5433 28.3624 11.8059 27.9067 11.3681C26.6113 10.1234 23.4253 8.5 18 8.5ZM18 22.5C19.1046 22.5 20 21.6046 20 20.5C20 19.3954 19.1046 18.5 18 18.5C16.8954 18.5 16 19.3954 16 20.5C16 21.6046 16.8954 22.5 18 22.5ZM18 24.5C20.2091 24.5 22 22.7091 22 20.5C22 18.2909 20.2091 16.5 18 16.5C15.7909 16.5 14 18.2909 14 20.5C14 22.7091 15.7909 24.5 18 24.5Z" fill="black"/>
</svg>
