<svg width="36" height="36" viewBox="0 0 36 36" fill="none" xmlns="http://www.w3.org/2000/svg">
<path fill-rule="evenodd" clip-rule="evenodd" d="M18 36C27.9411 36 36 27.9411 36 18C36 8.05887 27.9411 0 18 0C8.05887 0 0 8.05887 0 18C0 27.9411 8.05887 36 18 36ZM11 14.5L14.7005 9.41183C14.8887 9.15308 15.1893 9 15.5092 9H17.5C17.7761 9 18 9.22386 18 9.5V26.5C18 26.7761 17.7761 27 17.5 27H15.5092C15.1893 27 14.8887 26.8469 14.7005 26.5882L11 21.5H8C6.89543 21.5 6 20.6046 6 19.5V16.5C6 15.3954 6.89543 14.5 8 14.5H11ZM23.7912 10.2946C24.1808 9.90313 24.8139 9.90161 25.2054 10.2912C26.7109 11.7895 28.263 14.0772 28.655 16.8079C29.0557 19.5993 28.2213 22.7073 25.2054 25.7088C24.8139 26.0984 24.1808 26.0969 23.7912 25.7054C23.4016 25.3139 23.4031 24.6808 23.7946 24.2912C26.4056 21.6927 26.978 19.2007 26.6753 17.0921C26.3639 14.9228 25.1026 13.0105 23.7946 11.7088C23.4031 11.3192 23.4016 10.6861 23.7912 10.2946ZM21.2912 14.7946C21.6808 14.4031 22.3139 14.4016 22.7054 14.7912C23.4036 15.4861 23.8094 16.653 23.8773 17.764C23.9467 18.8984 23.6796 20.2392 22.7054 21.2088C22.3139 21.5984 21.6808 21.5969 21.2912 21.2054C20.9016 20.8139 20.9031 20.1808 21.2946 19.7912C21.7271 19.3608 21.9289 18.6683 21.8811 17.886C21.8318 17.0804 21.5342 16.4473 21.2946 16.2088C20.9031 15.8192 20.9016 15.1861 21.2912 14.7946Z" fill="black"/>
</svg>
