<svg width="36" height="36" viewBox="0 0 36 36" fill="none" xmlns="http://www.w3.org/2000/svg">
<path fill-rule="evenodd" clip-rule="evenodd" d="M18 36C27.9411 36 36 27.9411 36 18C36 8.05887 27.9411 0 18 0C8.05887 0 0 8.05887 0 18C0 27.9411 8.05887 36 18 36ZM16.5 26.8756V26.0001C16.5 22.4102 13.5899 19.5001 10 19.5001H9.12445C9.75676 23.2688 12.7313 26.2433 16.5 26.8756ZM9.12442 16.5001C9.83851 12.2435 13.5405 9 18 9C22.4595 9 26.1615 12.2435 26.8756 16.5001H24.6149C23.7135 16.5001 22.849 16.142 22.2116 15.5046L21.4992 14.7922C21.0253 14.3183 20.4601 13.9456 19.8379 13.6967C18.6581 13.2248 17.3419 13.2248 16.1621 13.6967C15.5399 13.9456 14.9747 14.3183 14.5008 14.7922L13.7884 15.5046C13.151 16.142 12.2865 16.5001 11.3851 16.5001H9.12442ZM26.8755 19.5001H26C22.4101 19.5001 19.5 22.4102 19.5 26.0001V26.8756C23.2687 26.2433 26.2432 23.2688 26.8755 19.5001ZM30 18C30 24.6274 24.6274 30 18 30C11.3726 30 6 24.6274 6 18C6 11.3726 11.3726 6 18 6C24.6274 6 30 11.3726 30 18ZM20 18C20 19.1046 19.1046 20 18 20C16.8954 20 16 19.1046 16 18C16 16.8954 16.8954 16 18 16C19.1046 16 20 16.8954 20 18Z" fill="black"/>
</svg>
