<svg width="36" height="36" viewBox="0 0 36 36" fill="none" xmlns="http://www.w3.org/2000/svg">
<path fill-rule="evenodd" clip-rule="evenodd" d="M18 36C27.9411 36 36 27.9411 36 18C36 8.05887 27.9411 0 18 0C8.05887 0 0 8.05887 0 18C0 27.9411 8.05887 36 18 36ZM13 8C13 7.44772 13.4477 7 14 7H22C22.5523 7 23 7.44772 23 8C23 8.55228 22.5523 9 22 9H14C13.4477 9 13 8.55228 13 8ZM10.8889 11C10.398 11 10 11.4006 10 11.8947V27.1053C10 27.5994 10.398 28 10.8889 28H25.1111C25.602 28 26 27.5994 26 27.1053V11.8947C26 11.4006 25.602 11 25.1111 11H10.8889ZM13.9998 13.9806C13.9891 13.4284 13.5328 12.9895 12.9806 13.0002C12.4284 13.0109 11.9895 13.4672 12.0002 14.0194C12.0686 17.5433 14.7961 20 18 20C21.2039 20 23.9314 17.5433 23.9998 14.0194C24.0105 13.4672 23.5716 13.0109 23.0194 13.0002C22.4672 12.9895 22.0109 13.4284 22.0002 13.9806C21.9534 16.3898 20.1402 18 18 18C15.8599 18 14.0466 16.3898 13.9998 13.9806Z" fill="black"/>
</svg>
