<svg width="36" height="36" viewBox="0 0 36 36" fill="none" xmlns="http://www.w3.org/2000/svg">
<path fill-rule="evenodd" clip-rule="evenodd" d="M36 18C36 8.05887 27.9411 0 18 0C8.05887 0 0 8.05887 0 18C0 27.9411 8.05887 36 18 36C27.9411 36 36 27.9411 36 18ZM7 25C7 27.2091 8.79086 29 11 29C13.2091 29 15 27.2091 15 25C15 22.7909 13.2091 21 11 21C8.79086 21 7 22.7909 7 25ZM11 19C9.46329 19 8.06151 19.5777 7 20.5278V14.5V10C7 7.79086 8.79086 6 11 6C13.2091 6 15 7.79086 15 10V11V13V20.5278C13.9385 19.5777 12.5367 19 11 19ZM26.5 29H15.4722C16.4223 27.9385 17 26.5367 17 25V13H26.5C27.3284 13 28 13.6716 28 14.5V27.5C28 28.3284 27.3284 29 26.5 29ZM9 25C9 26.1046 9.89543 27 11 27C12.1046 27 13 26.1046 13 25C13 23.8954 12.1046 23 11 23C9.89543 23 9 23.8954 9 25Z" fill="black"/>
</svg>
