<svg width="36" height="36" viewBox="0 0 36 36" fill="none" xmlns="http://www.w3.org/2000/svg">
<path fill-rule="evenodd" clip-rule="evenodd" d="M18 36C27.9411 36 36 27.9411 36 18C36 8.05887 27.9411 0 18 0C8.05887 0 0 8.05887 0 18C0 27.9411 8.05887 36 18 36ZM28.2071 9.20704C28.5976 8.81652 28.5976 8.18335 28.2071 7.79283C27.8166 7.40231 27.1834 7.40231 26.7929 7.79284L19.7929 14.7928C19.4024 15.1834 19.4024 15.8165 19.793 16.207C20.1835 16.5976 20.8166 16.5976 21.2072 16.207L28.2071 9.20704ZM14 28C17.3137 28 20 25.3137 20 22C20 18.6863 17.3137 16 14 16C10.6863 16 8 18.6863 8 22C8 25.3137 10.6863 28 14 28ZM22.2071 8.79296C22.5976 9.18348 22.5976 9.81665 22.2071 10.2072L18.2072 14.2072C17.8167 14.5977 17.1835 14.5977 16.793 14.2072C16.4025 13.8167 16.4025 13.1835 16.793 12.793L20.7929 8.79298C21.1834 8.40245 21.8166 8.40244 22.2071 8.79296ZM27.2071 13.793C27.5976 14.1835 27.5976 14.8166 27.2071 15.2072L23.2072 19.2072C22.8167 19.5977 22.1835 19.5977 21.793 19.2072C21.4025 18.8167 21.4025 18.1835 21.793 17.793L25.7929 13.793C26.1834 13.4024 26.8166 13.4024 27.2071 13.793Z" fill="black"/>
</svg>
