<svg width="36" height="36" viewBox="0 0 36 36" fill="none" xmlns="http://www.w3.org/2000/svg">
<path fill-rule="evenodd" clip-rule="evenodd" d="M18 36C27.9411 36 36 27.9411 36 18C36 8.05887 27.9411 0 18 0C8.05887 0 0 8.05887 0 18C0 27.9411 8.05887 36 18 36ZM18.2579 14.2574C17.8674 13.8668 17.8674 13.2337 18.2579 12.8432L21.7934 9.30766C22.1839 8.91714 22.8171 8.91714 23.2076 9.30766L26.7431 12.8432C27.1336 13.2337 27.1336 13.8668 26.7431 14.2574L23.2076 17.7929C22.8171 18.1834 22.1839 18.1834 21.7934 17.7929L18.2579 14.2574ZM10 11C10 10.4477 10.4477 9.99997 11 9.99997H16C16.5523 9.99997 17 10.4477 17 11V16C17 16.5523 16.5523 17 16 17H11C10.4477 17 10 16.5523 10 16V11ZM11 19C10.4477 19 10 19.4477 10 20V25C10 25.5523 10.4477 26 11 26H16C16.5523 26 17 25.5523 17 25V20C17 19.4477 16.5523 19 16 19H11ZM19 20C19 19.4477 19.4477 19 20 19H25C25.5523 19 26 19.4477 26 20V25C26 25.5523 25.5523 26 25 26H20C19.4477 26 19 25.5523 19 25V20Z" fill="black"/>
</svg>
