<svg width="36" height="36" viewBox="0 0 36 36" fill="none" xmlns="http://www.w3.org/2000/svg">
<path fill-rule="evenodd" clip-rule="evenodd" d="M18 36C27.9411 36 36 27.9411 36 18C36 8.05887 27.9411 0 18 0C8.05887 0 0 8.05887 0 18C0 27.9411 8.05887 36 18 36ZM9 8C9 7.44772 9.44772 7 10 7H26C26.5523 7 27 7.44772 27 8V28C27 28.5523 26.5523 29 26 29H10C9.44772 29 9 28.5523 9 28V8ZM24 11V13H12V11H24ZM12 15V17H24V15H12ZM19.2773 22.3304L18.0133 26.1222C17.7239 26.9906 16.5623 27.1462 16.0545 26.3846L14.4648 24H13C12.4477 24 12 23.5523 12 23C12 22.4477 12.4477 22 13 22H14.9465C15.3143 22 15.6577 22.1838 15.8617 22.4898L16.6979 23.744L17.9842 19.8852C18.2784 19.0025 19.4674 18.861 19.9605 19.65L22.0542 23H23C23.5523 23 24 23.4477 24 24C24 24.5523 23.5523 25 23 25H21.5554C21.1762 25 20.8236 24.8046 20.6226 24.483L19.2773 22.3304Z" fill="black"/>
</svg>
