<svg width="36" height="36" viewBox="0 0 36 36" fill="none" xmlns="http://www.w3.org/2000/svg">
<path fill-rule="evenodd" clip-rule="evenodd" d="M18 36C27.9411 36 36 27.9411 36 18C36 8.05887 27.9411 0 18 0C8.05887 0 0 8.05887 0 18C0 27.9411 8.05887 36 18 36ZM8 10C7.44772 10 7 10.4477 7 11V21C7 21.5523 7.44772 22 8 22H28C28.5523 22 29 21.5523 29 21V11C29 10.4477 28.5523 10 28 10H8ZM12 15C12 14.4477 11.5523 14 11 14C10.4477 14 10 14.4477 10 15V17C10 17.5523 10.4477 18 11 18C11.5523 18 12 17.5523 12 17V15ZM25 14C25.5523 14 26 14.4477 26 15V17C26 17.5523 25.5523 18 25 18C24.4477 18 24 17.5523 24 17V15C24 14.4477 24.4477 14 25 14ZM16.9546 12.3409C15.737 12.3409 14.75 13.3279 14.75 14.5455C14.75 15.763 15.737 16.75 16.9546 16.75L19 16.75C19.4142 16.75 19.75 17.0858 19.75 17.5C19.75 17.9142 19.4142 18.25 19 18.25H15.5C15.0858 18.25 14.75 18.5857 14.75 19C14.75 19.4142 15.0858 19.75 15.5 19.75H17.25V20C17.25 20.4142 17.5858 20.75 18 20.75C18.4142 20.75 18.75 20.4142 18.75 20V19.75H19C20.2427 19.75 21.25 18.7426 21.25 17.5C21.25 16.2574 20.2427 15.25 19 15.25L16.9546 15.25C16.5654 15.25 16.25 14.9346 16.25 14.5455C16.25 14.1564 16.5654 13.8409 16.9546 13.8409L20.5 13.8409C20.9142 13.8409 21.25 13.5051 21.25 13.0909C21.25 12.6767 20.9142 12.3409 20.5 12.3409L18.75 12.3409V12C18.75 11.5858 18.4142 11.25 18 11.25C17.5858 11.25 17.25 11.5858 17.25 12V12.3409L16.9546 12.3409ZM7 25C7 24.4477 7.44772 24 8 24H28C28.5523 24 29 24.4477 29 25C29 25.5523 28.5523 26 28 26H8C7.44772 26 7 25.5523 7 25Z" fill="black"/>
</svg>
