<svg width="36" height="36" viewBox="0 0 36 36" fill="none" xmlns="http://www.w3.org/2000/svg">
<path fill-rule="evenodd" clip-rule="evenodd" d="M18 36C27.9411 36 36 27.9411 36 18C36 8.05887 27.9411 0 18 0C8.05887 0 0 8.05887 0 18C0 27.9411 8.05887 36 18 36ZM10 20.1832V10C10 9.44772 10.4477 9 11 9H25C25.5523 9 26 9.44771 26 10V20.1832C26 20.7258 25.9349 21.2664 25.8061 21.7934C25.3587 23.6237 24.2498 25.2236 22.693 26.2851L22.4444 26.4545L18.523 28.8609C18.2021 29.0578 17.7979 29.0578 17.477 28.8609L13.5556 26.4545L13.307 26.2851C11.7502 25.2236 10.6413 23.6237 10.1939 21.7934C10.0651 21.2664 10 20.7258 10 20.1832ZM16.5 14.5C16.5 15.3284 15.8284 16 15 16C14.1716 16 13.5 15.3284 13.5 14.5C13.5 13.6716 14.1716 13 15 13C15.8284 13 16.5 13.6716 16.5 14.5ZM21 22C21.8284 22 22.5 21.3284 22.5 20.5C22.5 19.6716 21.8284 19 21 19C20.1716 19 19.5 19.6716 19.5 20.5C19.5 21.3284 20.1716 22 21 22ZM21.6508 13.2408C22.0701 13.6002 22.1187 14.2315 21.7593 14.6508L15.7593 21.6508C15.3999 22.0701 14.7686 22.1187 14.3492 21.7593C13.9299 21.3999 13.8813 20.7686 14.2408 20.3492L20.2408 13.3492C20.6002 12.9299 21.2315 12.8813 21.6508 13.2408Z" fill="black"/>
</svg>
