<svg width="36" height="36" viewBox="0 0 36 36" fill="none" xmlns="http://www.w3.org/2000/svg">
<path fill-rule="evenodd" clip-rule="evenodd" d="M18 36C27.9411 36 36 27.9411 36 18C36 8.05887 27.9411 0 18 0C8.05887 0 0 8.05887 0 18C0 27.9411 8.05887 36 18 36ZM18.8745 7.79511L23 11.5455V10.0002C23 9.44796 23.4477 9.00024 24 9.00024C24.5523 9.00024 25 9.44796 25 10.0002V13.3637L27.756 15.8692C28.1956 16.2688 27.9129 17.0001 27.3187 17.0001H25V26.0001C25 26.5524 24.5523 27.0001 24 27.0001H12C11.4478 27.0001 11 26.5524 11 26.0001V17.0001H8.68134C8.08722 17.0001 7.80449 16.2688 8.2441 15.8692L17.1256 7.79511C17.6214 7.34434 18.3787 7.34434 18.8745 7.79511ZM15.5 19.0002C16.3284 19.0002 17 18.3287 17 17.5002C17 16.6718 16.3284 16.0002 15.5 16.0002C14.6716 16.0002 14 16.6718 14 17.5002C14 18.3287 14.6716 19.0002 15.5 19.0002ZM21.6187 17.619C21.9604 17.2773 21.9604 16.7232 21.6187 16.3815C21.277 16.0398 20.723 16.0398 20.3813 16.3815L14.3813 22.3815C14.0396 22.7232 14.0396 23.2773 14.3813 23.619C14.723 23.9607 15.277 23.9607 15.6187 23.619L21.6187 17.619ZM22 22.5002C22 23.3287 21.3284 24.0002 20.5 24.0002C19.6716 24.0002 19 23.3287 19 22.5002C19 21.6718 19.6716 21.0002 20.5 21.0002C21.3284 21.0002 22 21.6718 22 22.5002Z" fill="black"/>
</svg>
