<svg width="36" height="36" viewBox="0 0 36 36" fill="none" xmlns="http://www.w3.org/2000/svg">
<path fill-rule="evenodd" clip-rule="evenodd" d="M18 36C27.9411 36 36 27.9411 36 18C36 8.05887 27.9411 0 18 0C8.05887 0 0 8.05887 0 18C0 27.9411 8.05887 36 18 36ZM9 11C9 10.4477 9.44772 10 10 10H26C26.5523 10 27 10.4477 27 11V20.5279C27 23.2687 25.6063 25.7743 23.4 27L21.3995 28.1114C19.2853 29.2859 16.7147 29.2859 14.6005 28.1114L12.6 27C10.3937 25.7743 9 23.2687 9 20.5279V11ZM16.3944 15.0528C16.1474 14.5588 15.5467 14.3586 15.0528 14.6055C14.5588 14.8525 14.3586 15.4532 14.6055 15.9472L15.0723 16.8807C15.1424 17.0209 15.2346 17.1488 15.3455 17.2597C15.8195 17.7337 16.4624 18 17.1327 18H18.8672C19.5376 18 20.1805 17.7337 20.6545 17.2597C20.7653 17.1488 20.8576 17.0209 20.9277 16.8807L21.3944 15.9472C21.6414 15.4532 21.4412 14.8525 20.9472 14.6055C20.4532 14.3586 19.8525 14.5588 19.6055 15.0528L19.1853 15.8934C19.0942 15.9621 18.9827 16 18.8672 16H17.1327C17.0173 16 16.9058 15.9621 16.8147 15.8934L16.3944 15.0528ZM14.5 22C14.5 21.4477 14.9477 21 15.5 21H20.5C21.0523 21 21.5 21.4477 21.5 22C21.5 22.5523 21.0523 23 20.5 23H15.5C14.9477 23 14.5 22.5523 14.5 22Z" fill="black"/>
</svg>
