<svg width="36" height="36" viewBox="0 0 36 36" fill="none" xmlns="http://www.w3.org/2000/svg">
<path fill-rule="evenodd" clip-rule="evenodd" d="M18 36C27.9411 36 36 27.9411 36 18C36 8.05887 27.9411 0 18 0C8.05887 0 0 8.05887 0 18C0 27.9411 8.05887 36 18 36ZM9.5 21C9.5 20.4477 9.94771 20 10.5 20H13C13.5523 20 14 20.4477 14 21C14 21.5523 13.5523 22 13 22H10.5C9.94771 22 9.5 21.5523 9.5 21ZM22 21C22 20.4477 22.4477 20 23 20H25.5C26.0523 20 26.5 20.4477 26.5 21C26.5 21.5523 26.0523 22 25.5 22H23C22.4477 22 22 21.5523 22 21ZM12.7345 11C12.2368 11 11.8149 11.3659 11.7445 11.8586L11.1529 16H24.8469L24.2552 11.8586C24.1849 11.3659 23.7629 11 23.2653 11H12.7345ZM9.76463 11.5757L9.13259 16H9C7.89543 16 7 16.8954 7 18V23C7 24.1046 7.89543 25 9 25V26C9 26.8284 9.67157 27.5 10.5 27.5C11.3284 27.5 12 26.8284 12 26V25H24V26C24 26.8284 24.6716 27.5 25.5 27.5C26.3284 27.5 27 26.8284 27 26V25C28.1046 25 29 24.1046 29 23V18C29 16.8954 28.1046 16 27 16H26.8672L26.2351 11.5757C26.024 10.0978 24.7582 9 23.2653 9H12.7345C11.2415 9 9.97576 10.0978 9.76463 11.5757ZM4 14C4 13.4477 4.44772 13 5 13H7C7.55228 13 8 13.4477 8 14C8 14.5523 7.55228 15 7 15H5C4.44772 15 4 14.5523 4 14ZM29 13C28.4477 13 28 13.4477 28 14C28 14.5523 28.4477 15 29 15H31C31.5523 15 32 14.5523 32 14C32 13.4477 31.5523 13 31 13H29Z" fill="black"/>
</svg>
