<svg width="36" height="36" viewBox="0 0 36 36" fill="none" xmlns="http://www.w3.org/2000/svg">
<path fill-rule="evenodd" clip-rule="evenodd" d="M18 36C27.9411 36 36 27.9411 36 18C36 8.05887 27.9411 0 18 0C8.05887 0 0 8.05887 0 18C0 27.9411 8.05887 36 18 36ZM10 20.1832V10C10 9.44772 10.4477 9 11 9H25C25.5523 9 26 9.44771 26 10V20.1832C26 20.7258 25.9349 21.2664 25.8061 21.7934C25.3587 23.6237 24.2498 25.2236 22.693 26.2851L22.4444 26.4545L18.523 28.8609C18.2021 29.0578 17.7979 29.0578 17.477 28.8609L13.5556 26.4545L13.307 26.2851C11.7502 25.2236 10.6413 23.6237 10.1939 21.7934C10.0651 21.2664 10 20.7258 10 20.1832ZM17 17.5V14H19.25C20.2165 14 21 14.7835 21 15.75C21 16.7165 20.2165 17.5 19.25 17.5H17ZM19.25 19.5C21.3211 19.5 23 17.8211 23 15.75C23 13.6789 21.3211 12 19.25 12H16.1C15.4925 12 15 12.4925 15 13.1V17.5H14.5C13.9477 17.5 13.5 17.9477 13.5 18.5C13.5 19.0523 13.9477 19.5 14.5 19.5H15V20.5H14.5C13.9477 20.5 13.5 20.9477 13.5 21.5C13.5 22.0523 13.9477 22.5 14.5 22.5H15V23C15 23.5523 15.4477 24 16 24C16.5523 24 17 23.5523 17 23V22.5H19C19.5523 22.5 20 22.0523 20 21.5C20 20.9477 19.5523 20.5 19 20.5H17V19.5H19.25Z" fill="black"/>
</svg>
