<svg width="36" height="36" viewBox="0 0 36 36" fill="none" xmlns="http://www.w3.org/2000/svg">
<path fill-rule="evenodd" clip-rule="evenodd" d="M18 36C27.9411 36 36 27.9411 36 18C36 8.05887 27.9411 0 18 0C8.05887 0 0 8.05887 0 18C0 27.9411 8.05887 36 18 36ZM9.1 8C8.49249 8 8 8.49249 8 9.1V14C8 14.5523 8.44771 15 9 15C9.55228 15 10 14.5523 10 14V10H14C14.5523 10 15 9.55228 15 9C15 8.44771 14.5523 8 14 8H9.1ZM26.9 8C27.5075 8 28 8.49249 28 9.1V14C28 14.5523 27.5523 15 27 15C26.4477 15 26 14.5523 26 14V10H22C21.4477 10 21 9.55228 21 9C21 8.44771 21.4477 8 22 8H26.9ZM27 21C27.5523 21 28 21.4477 28 22V26.9C28 27.5075 27.5075 28 26.9 28H22C21.4477 28 21 27.5523 21 27C21 26.4477 21.4477 26 22 26H26V22C26 21.4477 26.4477 21 27 21ZM8 22C8 21.4477 8.44772 21 9 21C9.55228 21 10 21.4477 10 22V26H14C14.5523 26 15 26.4477 15 27C15 27.5523 14.5523 28 14 28H9.1C8.49249 28 8 27.5075 8 26.9V22ZM13 14C13 13.4477 13.4477 13 14 13H15.7C15.8657 13 16 13.1343 16 13.3V16H13.3C13.1343 16 13 15.8657 13 15.7V14ZM20 16H16V20H13.3C13.1343 20 13 20.1343 13 20.3V22C13 22.5523 13.4477 23 14 23H15.7C15.8657 23 16 22.8657 16 22.7V20H20V22.7C20 22.8657 20.1343 23 20.3 23H22C22.5523 23 23 22.5523 23 22V20.3C23 20.1343 22.8657 20 22.7 20H20V16ZM20 16V13.3C20 13.1343 20.1343 13 20.3 13H22C22.5523 13 23 13.4477 23 14V15.7C23 15.8657 22.8657 16 22.7 16H20Z" fill="black"/>
</svg>
