<svg width="36" height="36" viewBox="0 0 36 36" fill="none" xmlns="http://www.w3.org/2000/svg">
<path d="M21.7334 21.7328C22.4895 20.9768 22.4895 19.751 21.7334 18.995C20.9775 18.239 19.7517 18.239 18.9956 18.995C18.2395 19.751 18.2395 20.9768 18.9956 21.7328C19.7517 22.4888 20.9775 22.4888 21.7334 21.7328Z" fill="black"/>
<path d="M21.7334 24.4709C21.3552 24.8489 21.3552 25.4619 21.7334 25.8398C22.1113 26.2179 22.7241 26.2179 23.1023 25.8398L25.8401 23.102C26.218 22.724 26.218 22.1111 25.8401 21.7331C25.4619 21.3551 24.8491 21.3551 24.4712 21.7331L21.7334 24.4709Z" fill="black"/>
<path fill-rule="evenodd" clip-rule="evenodd" d="M36 18C36 8.0589 27.9412 0 18 0C8.05884 0 0 8.0589 0 18C0 27.9411 8.05884 36 18 36C27.9412 36 36 27.9411 36 18ZM6.99512 9.09283C6.81348 9.27448 6.79883 9.56421 6.96167 9.763L9.05542 12.3221C9.40063 12.744 10.012 12.8063 10.4331 12.4862L15.325 17.3781C14.1982 19.0281 13.9692 20.8136 14.8887 21.7331C15.2764 22.121 15.9387 22.4246 16.7178 22.5806C17.2183 22.6808 17.5688 23.1907 17.4705 23.6915C17.1323 25.4105 17.5068 27.0892 18.6531 28.2354C20.7322 30.3145 24.5627 29.8549 27.209 27.2087C29.855 24.5626 30.3147 20.7321 28.2356 18.653C27.0894 17.5067 25.4106 17.1321 23.6917 17.4702C23.1909 17.5687 22.6809 17.218 22.5808 16.7175C22.4248 15.9385 22.1211 15.2764 21.7332 14.8885C20.8137 13.9691 19.0286 14.1979 17.3784 15.3246L12.4866 10.4327C12.8064 10.0115 12.7439 9.40039 12.3223 9.0553L9.76318 6.96149C9.56421 6.79883 9.27466 6.81329 9.09302 6.99493L6.99512 9.09283Z" fill="black"/>
</svg>
