<svg width="36" height="36" viewBox="0 0 36 36" fill="none" xmlns="http://www.w3.org/2000/svg">
<path fill-rule="evenodd" clip-rule="evenodd" d="M18 36C27.9411 36 36 27.9411 36 18C36 8.05887 27.9411 0 18 0C8.05887 0 0 8.05887 0 18C0 27.9411 8.05887 36 18 36ZM15 6C14.4477 6 14 6.44771 14 7V17C14 17.5523 14.4477 18 15 18H16C16.5523 18 17 17.5523 17 17V7C17 6.44772 16.5523 6 16 6H15ZM6 11C6 10.4477 6.44772 10 7 10H8C8.55228 10 9 10.4477 9 11V17C9 17.5523 8.55228 18 8 18H7C6.44772 18 6 17.5523 6 17V11ZM29 24C29 24.5523 28.5523 25 28 25H27C26.4477 25 26 24.5523 26 24V19C26 18.4477 26.4477 18 27 18H28C28.5523 18 29 18.4477 29 19V24ZM25 27C25 27.5523 24.5523 28 24 28H23C22.4477 28 22 27.5523 22 27V19C22 18.4477 22.4477 18 23 18H24C24.5523 18 25 18.4477 25 19V27ZM11 13C10.4477 13 10 13.4477 10 14V17C10 17.5523 10.4477 18 11 18H12C12.5523 18 13 17.5523 13 17V14C13 13.4477 12.5523 13 12 13H11ZM21 22C21 22.5523 20.5523 23 20 23H19C18.4477 23 18 22.5523 18 22V19C18 18.4477 18.4477 18 19 18H20C20.5523 18 21 18.4477 21 19V22Z" fill="black"/>
</svg>
