<svg width="36" height="36" viewBox="0 0 36 36" fill="none" xmlns="http://www.w3.org/2000/svg">
<path fill-rule="evenodd" clip-rule="evenodd" d="M18 36C27.9411 36 36 27.9411 36 18C36 8.05887 27.9411 0 18 0C8.05887 0 0 8.05887 0 18C0 27.9411 8.05887 36 18 36ZM7 9C7 8.44771 7.44772 8 8 8H9C10.6569 8 12 9.34315 12 11V19H14V12.1C14 11.4925 14.4925 11 15.1 11H25.9C26.5075 11 27 11.4925 27 12.1V17C27 19.2091 25.2091 21 23 21H12V23C12 23.5523 12.4477 24 13 24H14H24H26C26.5523 24 27 24.4477 27 25C27 25.5523 26.5523 26 26 26H25V27C25 27.5523 24.5523 28 24 28C23.4477 28 23 27.5523 23 27V26H15V27C15 27.5523 14.5523 28 14 28C13.4477 28 13 27.5523 13 27V26C11.3431 26 10 24.6569 10 23V20V11C10 10.4477 9.55228 10 9 10H8C7.44772 10 7 9.55228 7 9Z" fill="black"/>
</svg>
