<svg width="36" height="36" viewBox="0 0 36 36" fill="none" xmlns="http://www.w3.org/2000/svg">
<path fill-rule="evenodd" clip-rule="evenodd" d="M18 36C27.9411 36 36 27.9411 36 18C36 8.05887 27.9411 0 18 0C8.05887 0 0 8.05887 0 18C0 27.9411 8.05887 36 18 36ZM10.513 24.5737L6.13066 16.2366C6.04944 16.0821 6.05469 15.8964 6.1445 15.7467L8.11814 12.4573L16.4698 20.4112L11.766 24.7872C11.38 25.1463 10.7583 25.0404 10.513 24.5737ZM18.0002 19.1069L9.3196 10.8396C16.5492 7.56518 23.689 9.37124 26.6901 10.8307L18.0002 19.1069ZM19.5303 20.4115L27.8818 12.4577L29.8552 15.7467C29.945 15.8964 29.9503 16.0821 29.8691 16.2366L25.4867 24.5737C25.2415 25.0404 24.6197 25.1463 24.2337 24.7872L19.5303 20.4115ZM19 25.9878V23.9878H17V25.9878H19ZM17 29.9878V27.9878H19V29.9878H17Z" fill="black"/>
</svg>
