<svg width="36" height="36" viewBox="0 0 36 36" fill="none" xmlns="http://www.w3.org/2000/svg">
<path fill-rule="evenodd" clip-rule="evenodd" d="M18 36C27.9412 36 36 27.9412 36 18C36 8.05884 27.9412 0 18 0C8.05884 0 0 8.05884 0 18C0 27.9412 8.05884 36 18 36ZM10.0002 11C10.0002 12.7062 10.9316 13.9465 12 14.5623V10.1C12 9.51709 12.4663 9.00037 13.0977 9C13.8884 8.99951 15.2822 8.98767 16.5859 8.75244C17.2378 8.63489 17.8215 8.46899 18.2778 8.24744C18.7383 8.0238 18.9866 7.78406 19.1011 7.56201C19.4724 6.84082 20.5271 6.81775 20.9045 7.57275L21.0823 7.92822C21.4106 8.58508 22.082 9 22.8164 9C23.4702 9 24 9.52991 24 10.1837V14.5624C25.0686 13.9468 26.0002 12.7063 26.0002 11C26.0002 7 23.5002 3 18.0002 3C12.5002 3 10.0002 7 10.0002 11ZM18.0002 18C19.2229 18 20.3315 17.5125 21.1426 16.7211L21.3428 16.4709C21.7683 15.939 22 15.2781 22 14.5969V10.9146C21.1599 10.7367 20.4011 10.2883 19.8403 9.6416C19.6196 9.79871 19.3862 9.9325 19.1514 10.0465C18.469 10.3779 17.6892 10.5857 16.9409 10.7207C15.8953 10.9093 14.8223 10.9705 14 10.9904V14.5969C14 15.2781 14.2319 15.939 14.6575 16.4709L14.8569 16.7201C15.668 17.512 16.7771 18 18.0002 18ZM8.55566 26.1665C7.54443 23.1328 9.80249 20 13.0002 20H16.9016L14.5898 25.0862C14.3613 25.589 14.5835 26.1819 15.0864 26.4104C15.5891 26.6389 16.1819 26.4166 16.4104 25.9138L18 22.4166L19.5898 25.9138C19.8184 26.4166 20.4111 26.6389 20.9138 26.4104C21.4167 26.1819 21.6389 25.589 21.4104 25.0862L19.0986 20H23.0002C26.198 20 28.4561 23.1328 27.4448 26.1664L26.342 29.4744C26.1379 30.0869 25.5647 30.5 24.9192 30.5H11.0813C10.4358 30.5 9.86255 30.0869 9.65845 29.4744L8.55566 26.1665Z" fill="black"/>
</svg>
