<svg width="36" height="36" viewBox="0 0 36 36" fill="none" xmlns="http://www.w3.org/2000/svg">
<path fill-rule="evenodd" clip-rule="evenodd" d="M18 36C27.9411 36 36 27.9411 36 18C36 8.05887 27.9411 0 18 0C8.05887 0 0 8.05887 0 18C0 27.9411 8.05887 36 18 36ZM24 7.5C24 6.94772 23.5523 6.5 23 6.5C22.4477 6.5 22 6.94772 22 7.5V7.54059C22 8.49395 21.3271 9.31478 20.3922 9.50175L19.765 9.62719C18.1573 9.94874 17 11.3604 17 13H11.76C8.57884 13 6 15.5788 6 18.76V18.9964C6 22.3121 8.68789 25 12.0036 25C14.1026 25 16.0215 23.8141 16.9603 21.9366L17.1429 21.5714H18.8571L19.0397 21.9366C19.9785 23.8141 21.8974 25 23.9964 25C27.3121 25 30 22.3121 30 18.9964V18.76C30 15.5788 27.4212 13 24.24 13H19C19 12.3138 19.4844 11.7229 20.1573 11.5883L20.7845 11.4629C22.6542 11.089 24 9.44731 24 7.54059V7.5ZM24 17.5C24.5523 17.5 25 17.0523 25 16.5C25 15.9477 24.5523 15.5 24 15.5C23.4477 15.5 23 15.9477 23 16.5C23 17.0523 23.4477 17.5 24 17.5ZM12 16C12.5523 16 13 16.4477 13 17V18H14C14.5523 18 15 18.4477 15 19C15 19.5523 14.5523 20 14 20H13V21C13 21.5523 12.5523 22 12 22C11.4477 22 11 21.5523 11 21V20H10C9.44772 20 9 19.5523 9 19C9 18.4477 9.44772 18 10 18H11V17C11 16.4477 11.4477 16 12 16ZM22.5 19C22.5 19.5523 22.0523 20 21.5 20C20.9477 20 20.5 19.5523 20.5 19C20.5 18.4477 20.9477 18 21.5 18C22.0523 18 22.5 18.4477 22.5 19ZM25 21.5C25 22.0523 24.5523 22.5 24 22.5C23.4477 22.5 23 22.0523 23 21.5C23 20.9477 23.4477 20.5 24 20.5C24.5523 20.5 25 20.9477 25 21.5ZM26.5 20C27.0523 20 27.5 19.5523 27.5 19C27.5 18.4477 27.0523 18 26.5 18C25.9477 18 25.5 18.4477 25.5 19C25.5 19.5523 25.9477 20 26.5 20Z" fill="black"/>
</svg>
