<svg width="36" height="36" viewBox="0 0 36 36" fill="none" xmlns="http://www.w3.org/2000/svg">
<path fill-rule="evenodd" clip-rule="evenodd" d="M36 18C36 27.9411 27.9411 36 18 36C8.05887 36 0 27.9411 0 18C0 8.05887 8.05887 0 18 0C27.9411 0 36 8.05887 36 18ZM16.5 16H11.5V23.5H11C10.4477 23.5 10 23.9477 10 24.5V27.5C10 28.0523 10.4477 28.5 11 28.5H17C17.5523 28.5 18 28.0523 18 27.5V24.5C18 23.9477 17.5523 23.5 17 23.5H16.5V16ZM25 15H21V26.5C21 27.6046 21.8954 28.5 23 28.5C24.1046 28.5 25 27.6046 25 26.5V15ZM12 14V10.618C12 10.2392 12.214 9.89298 12.5528 9.72359L15.2764 8.36178C15.6088 8.19556 16 8.4373 16 8.809V14H12ZM19.3669 9.32586L20.9998 12.9999L24.9998 12.9999L26.6573 9.2704C26.8552 8.8253 26.7066 8.29603 26.2696 8.08089C24.7822 7.34861 22.4692 6.87644 19.805 8.08717C19.3377 8.29952 19.1584 8.85683 19.3669 9.32586Z" fill="black"/>
</svg>
