<svg width="36" height="36" viewBox="0 0 36 36" fill="none" xmlns="http://www.w3.org/2000/svg">
<path fill-rule="evenodd" clip-rule="evenodd" d="M18 36C27.9411 36 36 27.9411 36 18C36 8.05887 27.9411 0 18 0C8.05887 0 0 8.05887 0 18C0 27.9411 8.05887 36 18 36ZM10 7C9.44772 7 9 7.44772 9 8V28C9 28.5523 9.44772 29 10 29H26C26.5523 29 27 28.5523 27 28V8C27 7.44772 26.5523 7 26 7H10ZM19.2191 21.6247L16 17.6008L12.7809 21.6247C12.4359 22.056 11.8066 22.1259 11.3753 21.7809C10.944 21.4359 10.8741 20.8066 11.2191 20.3753L15.1411 15.4729C15.5814 14.9225 16.4186 14.9225 16.859 15.4729L20.7809 20.3753C21.1259 20.8066 21.056 21.4359 20.6247 21.7809C20.1934 22.1259 19.5641 22.056 19.2191 21.6247ZM21.2894 15.8861C20.9503 15.4501 20.322 15.3716 19.8861 15.7107C19.4501 16.0497 19.3716 16.678 19.7107 17.114L23.2107 21.614C23.5497 22.0499 24.178 22.1284 24.6139 21.7894C25.0499 21.4503 25.1284 20.822 24.7894 20.3861L21.2894 15.8861ZM25 14C25 14.5523 24.5523 15 24 15C23.4477 15 23 14.5523 23 14C23 13.4477 23.4477 13 24 13C24.5523 13 25 13.4477 25 14Z" fill="black"/>
</svg>
