<svg width="36" height="36" viewBox="0 0 36 36" fill="none" xmlns="http://www.w3.org/2000/svg">
<path fill-rule="evenodd" clip-rule="evenodd" d="M18 36C27.9411 36 36 27.9411 36 18C36 8.05887 27.9411 0 18 0C8.05887 0 0 8.05887 0 18C0 27.9411 8.05887 36 18 36ZM20.1703 8.24375C20.5797 7.83432 21.2523 7.86483 21.623 8.30965C21.9382 8.68783 21.9256 9.24066 21.5936 9.60413L19.4051 12H16.546L14.3971 9.61275C14.0674 9.2465 14.0568 8.69367 14.3723 8.3151C14.7454 7.86736 15.4225 7.83665 15.8346 8.24877L17.239 9.65319C17.6593 10.0734 18.3406 10.0734 18.7609 9.6532L20.1703 8.24375ZM13.8551 12L12.9106 10.9508C11.9157 9.84553 11.8838 8.17718 12.8359 7.03473C13.9619 5.68351 16.0051 5.59083 17.2488 6.83456L17.9999 7.58568L18.7561 6.82954C19.9971 5.58851 22.0359 5.68099 23.1595 7.02928C24.1147 8.1756 24.0766 9.85128 23.0703 10.953L22.1139 12H26.5C27.3284 12 28 12.6716 28 13.5V14.5C28 15.3284 27.3284 16 26.5 16H26H19V14.5C19 13.9477 18.5523 13.5 18 13.5C17.4477 13.5 17 13.9477 17 14.5V28H12C10.8954 28 10 27.1046 10 26V18H14C14.5523 18 15 17.5523 15 17C15 16.4477 14.5523 16 14 16H10H9.5C8.67157 16 8 15.3284 8 14.5V13.5C8 12.6716 8.67157 12 9.5 12H13.8551ZM19 18H26V26C26 27.1046 25.1046 28 24 28H19V18Z" fill="black"/>
</svg>
