<svg width="36" height="36" viewBox="0 0 36 36" fill="none" xmlns="http://www.w3.org/2000/svg">
<path fill-rule="evenodd" clip-rule="evenodd" d="M18 36C27.9411 36 36 27.9411 36 18C36 8.05887 27.9411 0 18 0C8.05887 0 0 8.05887 0 18C0 27.9411 8.05887 36 18 36ZM18.2007 16.5313C18.1897 16.5203 18.1793 16.5089 18.1696 16.4972C18.1598 16.509 18.1493 16.5204 18.1383 16.5314L12.523 22.1467C12.3278 22.342 12.0112 22.342 11.8159 22.1467L8.37603 18.7068C6.63015 16.961 6.63015 14.1303 8.37603 12.3845C10.1219 10.6386 12.9525 10.6386 14.6984 12.3845L18.1383 15.8243C18.1493 15.8353 18.1597 15.8467 18.1694 15.8584C18.1792 15.8467 18.1897 15.8352 18.2007 15.8242L21.6406 12.3843C23.3865 10.6384 26.2171 10.6384 27.963 12.3843C29.7089 14.1302 29.7089 16.9608 27.963 18.7067L24.5231 22.1466C24.3278 22.3418 24.0113 22.3418 23.816 22.1466L18.2007 16.5313ZM18.1694 24.0002C18.7217 24.0002 19.1694 23.5525 19.1694 23.0002C19.1694 22.448 18.7217 22.0002 18.1694 22.0002C17.6171 22.0002 17.1694 22.448 17.1694 23.0002C17.1694 23.5525 17.6171 24.0002 18.1694 24.0002ZM16.6694 25.0002C16.6694 25.5525 16.2217 26.0002 15.6694 26.0002C15.1171 26.0002 14.6694 25.5525 14.6694 25.0002C14.6694 24.448 15.1171 24.0002 15.6694 24.0002C16.2217 24.0002 16.6694 24.448 16.6694 25.0002ZM18.1694 28.0002C18.7217 28.0002 19.1694 27.5525 19.1694 27.0002C19.1694 26.448 18.7217 26.0002 18.1694 26.0002C17.6171 26.0002 17.1694 26.448 17.1694 27.0002C17.1694 27.5525 17.6171 28.0002 18.1694 28.0002ZM21.6694 25.0002C21.6694 25.5525 21.2217 26.0002 20.6694 26.0002C20.1171 26.0002 19.6694 25.5525 19.6694 25.0002C19.6694 24.448 20.1171 24.0002 20.6694 24.0002C21.2217 24.0002 21.6694 24.448 21.6694 25.0002Z" fill="black"/>
</svg>
