<svg width="36" height="36" viewBox="0 0 36 36" fill="none" xmlns="http://www.w3.org/2000/svg">
<path fill-rule="evenodd" clip-rule="evenodd" d="M18 36C27.9411 36 36 27.9411 36 18C36 8.05887 27.9411 0 18 0C8.05887 0 0 8.05887 0 18C0 27.9411 8.05887 36 18 36ZM9 8C9 7.44772 9.44772 7 10 7H26C26.5523 7 27 7.44772 27 8V28C27 28.5523 26.5523 29 26 29H10C9.44772 29 9 28.5523 9 28V8ZM12 21V19H24V21H12ZM12 25H19V23H12V25ZM18 12C15.7909 12 14 13.7909 14 16H12C12 12.6863 14.6863 10 18 10C18.8515 10 19.664 10.178 20.4004 10.4997L19.5996 12.3324C19.111 12.1189 18.5707 12 18 12ZM22 16C22 14.8808 21.5417 13.8705 20.8 13.1434L22.2 11.7152C23.3097 12.803 24 14.3218 24 16H22Z" fill="black"/>
</svg>
