<svg width="36" height="36" viewBox="0 0 36 36" fill="none" xmlns="http://www.w3.org/2000/svg">
<path fill-rule="evenodd" clip-rule="evenodd" d="M18 36C27.9411 36 36 27.9411 36 18C36 8.05887 27.9411 0 18 0C8.05887 0 0 8.05887 0 18C0 27.9411 8.05887 36 18 36ZM21 8.21622V14.9999H27.7519C26.7648 11.7705 24.2229 9.21804 21 8.21622ZM19 7.06193C19 6.37435 19.6269 5.84974 20.3094 5.98272C25.2003 6.93556 29.0481 10.7969 29.981 15.695C30.1107 16.3761 29.5867 16.9999 28.9009 16.9999H20.1C19.4925 16.9999 19 16.5074 19 15.8998V7.06193ZM15.9167 7.15218C16.4939 7.04153 17 7.50645 17 8.09417V16.9552C17 18.0597 17.8954 18.9552 19 18.9552H27.861C28.4487 18.9552 28.9136 19.4613 28.803 20.0385C27.8293 25.1174 23.3628 28.9552 18 28.9552C11.9249 28.9552 7 24.0303 7 17.9552C7 12.5923 10.8377 8.12581 15.9167 7.15218Z" fill="black"/>
</svg>
