<svg width="36" height="36" viewBox="0 0 36 36" fill="none" xmlns="http://www.w3.org/2000/svg">
<path fill-rule="evenodd" clip-rule="evenodd" d="M18 36C27.9411 36 36 27.9411 36 18C36 8.05887 27.9411 0 18 0C8.05887 0 0 8.05887 0 18C0 27.9411 8.05887 36 18 36ZM9 8C9 7.44772 9.44772 7 10 7H26C26.5523 7 27 7.44772 27 8V28C27 28.5523 26.5523 29 26 29H17.4722C18.4223 27.9385 19 26.5367 19 25C19 21.6863 16.3137 19 13 19C11.4633 19 10.0615 19.5777 9 20.5278V8ZM24 11V13H12V11H24ZM12 15V17H24V15H12ZM24 21H20V19H24V21ZM15 25C15 26.1046 14.1046 27 13 27C11.8954 27 11 26.1046 11 25C11 23.8954 11.8954 23 13 23C14.1046 23 15 23.8954 15 25ZM17 25C17 27.2091 15.2091 29 13 29C12.2582 29 11.5635 28.7981 10.968 28.4462L9.70711 29.7071C9.31658 30.0976 8.68342 30.0976 8.29289 29.7071C7.90237 29.3166 7.90237 28.6834 8.29289 28.2929L9.55382 27.032C9.20193 26.4365 9 25.7418 9 25C9 22.7909 10.7909 21 13 21C15.2091 21 17 22.7909 17 25Z" fill="black"/>
</svg>
