<svg width="36" height="36" viewBox="0 0 36 36" fill="none" xmlns="http://www.w3.org/2000/svg">
<path fill-rule="evenodd" clip-rule="evenodd" d="M18 36C27.9411 36 36 27.9411 36 18C36 8.05887 27.9411 0 18 0C8.05887 0 0 8.05887 0 18C0 27.9411 8.05887 36 18 36ZM8 10C7.44772 10 7 10.4477 7 11V21C7 21.5523 7.44772 22 8 22H28C28.5523 22 29 21.5523 29 21V11C29 10.4477 28.5523 10 28 10H8ZM22 16C22 18.2091 20.2091 20 18 20C15.7909 20 14 18.2091 14 16C14 13.7909 15.7909 12 18 12C20.2091 12 22 13.7909 22 16ZM12 15C12 14.4477 11.5523 14 11 14C10.4477 14 10 14.4477 10 15V17C10 17.5523 10.4477 18 11 18C11.5523 18 12 17.5523 12 17V15ZM26 15C26 14.4477 25.5523 14 25 14C24.4477 14 24 14.4477 24 15V17C24 17.5523 24.4477 18 25 18C25.5523 18 26 17.5523 26 17V15ZM7 25C7 24.4477 7.44772 24 8 24H28C28.5523 24 29 24.4477 29 25C29 25.5523 28.5523 26 28 26H8C7.44772 26 7 25.5523 7 25Z" fill="black"/>
</svg>
