<svg width="36" height="36" viewBox="0 0 36 36" fill="none" xmlns="http://www.w3.org/2000/svg">
<path fill-rule="evenodd" clip-rule="evenodd" d="M18 36C27.9411 36 36 27.9411 36 18C36 8.05887 27.9411 0 18 0C8.05887 0 0 8.05887 0 18C0 27.9411 8.05887 36 18 36ZM26.0349 14.3964C25.5199 14.9135 24.8703 15.2143 24.1986 15.2987L26.3143 18.7075C26.7612 19.4275 26.9987 20.258 27 21.1056C27.0019 22.3145 26.5239 23.4746 25.6712 24.3308L21.2847 28.7352C20.9338 29.0875 20.364 29.0884 20.012 28.7372C19.66 28.386 19.6591 27.8156 20.01 27.4633L23.8221 23.6356L22.5474 22.3637L18.7352 26.1914C18.3843 26.5437 17.8145 26.5446 17.4625 26.1934C17.1105 25.8422 17.1096 25.2719 17.4605 24.9195L21.2727 21.0918L19.9979 19.82L16.1858 23.6476C15.8349 24 15.265 24.0009 14.913 23.6497C14.561 23.2984 14.5601 22.7281 14.911 22.3758L18.7232 18.5481L17.4485 17.2762L13.6363 21.1039C13.2854 21.4562 12.7156 21.4571 12.3635 21.1059C12.0115 20.7547 12.0106 20.1843 12.3615 19.832L16.1737 16.0043L14.899 14.7325L11.0868 18.5601C10.7359 18.9125 10.1661 18.9134 9.81407 18.5621C9.46206 18.2109 9.46116 17.6406 9.81207 17.2883L13.6242 13.4606L12.3495 12.1887L8.53733 16.0164C8.18643 16.3687 7.6166 16.3696 7.2646 16.0184C6.91259 15.6672 6.91169 15.0968 7.26259 14.7445L11.6491 10.3401C12.5018 9.48397 13.6594 9.00191 14.8672 9.00001C15.7141 8.99867 16.5445 9.23371 17.2653 9.67874L20.6777 11.7856C20.7599 11.1131 21.0583 10.4619 21.5733 9.94484C22.8015 8.71169 24.7958 8.70855 26.0279 9.93782C27.2599 11.1671 27.263 13.1633 26.0349 14.3964Z" fill="black"/>
</svg>
