<svg width="36" height="36" viewBox="0 0 36 36" fill="none" xmlns="http://www.w3.org/2000/svg">
<path fill-rule="evenodd" clip-rule="evenodd" d="M18 36C27.9411 36 36 27.9411 36 18C36 8.05887 27.9411 0 18 0C8.05887 0 0 8.05887 0 18C0 27.9411 8.05887 36 18 36ZM10.5 12.5V8.5H12.5C13.6046 8.5 14.5 9.39543 14.5 10.5C14.5 11.6046 13.6046 12.5 12.5 12.5H10.5ZM12.5 14.5C14.7091 14.5 16.5 12.7091 16.5 10.5C16.5 8.29086 14.7091 6.5 12.5 6.5H9.6C8.99248 6.5 8.5 6.9925 8.5 7.6V12.5H8C7.44772 12.5 7 12.9477 7 13.5C7 14.0523 7.44772 14.5 8 14.5H8.5V15.5H8C7.44772 15.5 7 15.9477 7 16.5C7 17.0523 7.44772 17.5 8 17.5H8.5V18C8.5 18.5523 8.94772 19 9.5 19C10.0523 19 10.5 18.5523 10.5 18V17.5H12C12.5523 17.5 13 17.0523 13 16.5C13 15.9477 12.5523 15.5 12 15.5H10.5V14.5H12.5ZM23.5914 10.1936C24.0367 10.5202 24.133 11.146 23.8064 11.5914L12.8064 26.5914C12.4798 27.0367 11.854 27.133 11.4086 26.8064C10.9633 26.4798 10.867 25.854 11.1936 25.4086L22.1936 10.4086C22.5202 9.96327 23.146 9.86699 23.5914 10.1936ZM24.9999 16.5C25.5522 16.5 25.9999 16.9477 25.9999 17.5V17.9999H28.0002C28.5525 17.9999 29.0002 18.4477 29.0002 18.9999C29.0002 19.5522 28.5525 19.9999 28.0002 19.9999H23.75C23.3358 19.9999 23 20.3357 23 20.7499C23 21.1642 23.3358 21.4999 23.75 21.4999H26.2502C27.769 21.4999 29.0002 22.7312 29.0002 24.2499C29.0002 25.7687 27.769 26.9999 26.2502 26.9999H25.9999V27.5001C25.9999 28.0523 25.5522 28.5001 24.9999 28.5001C24.4476 28.5001 23.9999 28.0523 23.9999 27.5001V26.9999H22C21.4477 26.9999 21 26.5522 21 25.9999C21 25.4477 21.4477 24.9999 22 24.9999H26.2502C26.6644 24.9999 27.0002 24.6642 27.0002 24.2499C27.0002 23.8357 26.6644 23.4999 26.2502 23.4999H23.75C22.2312 23.4999 21 22.2687 21 20.7499C21 19.2312 22.2312 17.9999 23.75 17.9999H23.9999V17.5C23.9999 16.9477 24.4476 16.5 24.9999 16.5Z" fill="black"/>
</svg>
