<svg width="36" height="36" viewBox="0 0 36 36" fill="none" xmlns="http://www.w3.org/2000/svg">
<path fill-rule="evenodd" clip-rule="evenodd" d="M18 36C27.9411 36 36 27.9411 36 18C36 8.05887 27.9411 0 18 0C8.05887 0 0 8.05887 0 18C0 27.9411 8.05887 36 18 36ZM11 11C9.89543 11 9 11.8954 9 13V23C9 24.1046 9.89543 25 11 25H21C22.1046 25 23 24.1046 23 23V13C23 11.8954 22.1046 11 21 11H11ZM12 13C11.4477 13 11 13.4477 11 14C11 14.5523 11.4477 15 12 15H15C15.5523 15 16 14.5523 16 14C16 13.4477 15.5523 13 15 13H12ZM25 14.9167C25 14.513 25.2427 14.1489 25.6154 13.9936L27.3077 13.2885C27.637 13.1513 28 13.3932 28 13.75V22.25C28 22.6068 27.637 22.8488 27.3077 22.7116L25.6154 22.0064C25.2427 21.8512 25 21.4871 25 21.0834V14.9167Z" fill="black"/>
</svg>
