<svg width="36" height="36" viewBox="0 0 36 36" fill="none" xmlns="http://www.w3.org/2000/svg">
<path fill-rule="evenodd" clip-rule="evenodd" d="M18 36C27.9411 36 36 27.9411 36 18C36 8.05887 27.9411 0 18 0C8.05887 0 0 8.05887 0 18C0 27.9411 8.05887 36 18 36ZM7 10C7 9.44771 7.44772 9 8 9H10.9246C11.4157 9 11.8473 9.32557 11.9822 9.79781L12.7543 12.5H26.8889C27.542 12.5 28.0512 13.0657 27.9829 13.7152L27.9829 13.7152L27.0416 22.657C26.9613 23.4204 26.3175 24 25.5499 24H13.4501C12.6825 24 12.0387 23.4205 11.9584 22.657L11.0146 13.6911L10.2457 11H8C7.44772 11 7 10.5523 7 10ZM14.5 28C15.3284 28 16 27.3284 16 26.5C16 25.6716 15.3284 25 14.5 25C13.6716 25 13 25.6716 13 26.5C13 27.3284 13.6716 28 14.5 28ZM25 26.5C25 27.3284 24.3284 28 23.5 28C22.6716 28 22 27.3284 22 26.5C22 25.6716 22.6716 25 23.5 25C24.3284 25 25 25.6716 25 26.5Z" fill="black"/>
</svg>
