<svg width="36" height="36" viewBox="0 0 36 36" fill="none" xmlns="http://www.w3.org/2000/svg">
<path fill-rule="evenodd" clip-rule="evenodd" d="M18 36C27.9411 36 36 27.9411 36 18C36 8.05887 27.9411 0 18 0C8.05887 0 0 8.05887 0 18C0 27.9411 8.05887 36 18 36ZM13.9473 5.5132C12.8028 5.7993 12 6.82756 12 8.0072V9.99927C13.6713 8.74389 15.7488 8 18 8C20.2512 8 22.3287 8.74389 24 9.99927V8.0072C24 6.82756 23.1972 5.7993 22.0527 5.5132C19.3919 4.84798 16.6081 4.84798 13.9473 5.5132ZM24 26.0007C22.3287 27.2561 20.2512 28 18 28C15.7488 28 13.6713 27.2561 12 26.0007V27.9928C12 29.1724 12.8028 30.2007 13.9473 30.4868C16.6081 31.152 19.3919 31.152 22.0527 30.4868C23.1972 30.2007 24 29.1724 24 27.9928V26.0007ZM18 10C13.5817 10 10 13.5817 10 18C10 22.4183 13.5817 26 18 26C22.4183 26 26 22.4183 26 18C26 13.5817 22.4183 10 18 10ZM19 13.5C19.5523 13.5 20 13.9477 20 14.5V18.9C20 19.5075 19.5075 20 18.9 20H16C15.4477 20 15 19.5523 15 19C15 18.4477 15.4477 18 16 18H18V14.5C18 13.9477 18.4477 13.5 19 13.5ZM28 16C28.5523 16 29 16.4477 29 17V19C29 19.5523 28.5523 20 28 20C27.4477 20 27 19.5523 27 19V17C27 16.4477 27.4477 16 28 16Z" fill="black"/>
</svg>
