<svg width="36" height="36" viewBox="0 0 36 36" fill="none" xmlns="http://www.w3.org/2000/svg">
<path fill-rule="evenodd" clip-rule="evenodd" d="M18 36C27.9411 36 36 27.9411 36 18C36 8.05887 27.9411 0 18 0C8.05887 0 0 8.05887 0 18C0 27.9411 8.05887 36 18 36ZM12.8292 10.5598L12.8372 10.5469C13.1376 10.0869 13.0106 9.46979 12.5518 9.16618C12.0913 8.86139 11.4708 8.98767 11.166 9.44824C11.1436 9.48375 11.1539 9.46636 11.159 9.45767L11.1612 9.45373L11.1213 9.51925C11.0986 9.55646 11.0687 9.60714 11.0333 9.67087C10.9626 9.79827 10.8697 9.97823 10.7686 10.2074C10.5666 10.6654 10.3304 11.3229 10.1736 12.1518C9.85819 13.8201 9.87129 16.1526 11.085 18.9038C12.1213 21.2526 12.1082 23.1701 11.8611 24.4768C11.7366 25.1354 11.551 25.6467 11.4015 25.9855C11.3268 26.1548 11.2614 26.2803 11.2179 26.3588C11.1961 26.398 11.1799 26.4253 11.1707 26.4404L11.1625 26.4536C10.8622 26.9136 10.9893 27.5304 11.4481 27.834C11.9087 28.1388 12.5291 28.0125 12.8339 27.552C12.8339 27.552 12.7884 27.6291 12.8787 27.481C12.9013 27.4438 12.9312 27.3931 12.9666 27.3293C13.0373 27.202 13.1302 27.022 13.2313 26.7928C13.4334 26.3348 13.6696 25.6773 13.8263 24.8484C14.1417 23.1801 14.1286 20.8477 12.9149 18.0965C11.8786 15.7477 11.8917 13.8301 12.1388 12.5234C12.2633 11.8648 12.449 11.3535 12.5985 11.0147C12.6732 10.8454 12.7385 10.7199 12.782 10.6415C12.8038 10.6023 12.82 10.5749 12.8292 10.5598ZM23.4481 27.834C22.9893 27.5304 22.8622 26.9136 23.1625 26.4536L23.1707 26.4404C23.1799 26.4253 23.1961 26.398 23.2179 26.3588C23.2614 26.2803 23.3268 26.1548 23.4015 25.9855C23.551 25.6467 23.7366 25.1354 23.8611 24.4768C24.1082 23.1701 24.1213 21.2526 23.085 18.9038C21.8713 16.1526 21.8582 13.8201 22.1736 12.1518C22.3304 11.3229 22.5666 10.6654 22.7686 10.2074C22.8697 9.97823 22.9626 9.79827 23.0333 9.67087C23.0687 9.60714 23.0986 9.55646 23.1213 9.51925L23.1612 9.45373L23.159 9.45768C23.1539 9.46637 23.1437 9.48373 23.166 9.44824C23.4708 8.98767 24.0913 8.86139 24.5518 9.16618C25.0106 9.46979 25.1376 10.0869 24.8372 10.5469L24.8292 10.5598C24.82 10.5749 24.8038 10.6023 24.782 10.6415C24.7385 10.7199 24.6732 10.8454 24.5985 11.0147C24.449 11.3535 24.2633 11.8648 24.1388 12.5234C23.8917 13.8301 23.8786 15.7477 24.9149 18.0965C26.1286 20.8477 26.1417 23.1801 25.8263 24.8484C25.6696 25.6773 25.4334 26.3348 25.2313 26.7928C25.1302 27.022 25.0373 27.202 24.9666 27.3293C24.9312 27.3931 24.9013 27.4438 24.8787 27.481C24.7884 27.6291 24.8339 27.552 24.8339 27.552C24.5291 28.0125 23.9087 28.1388 23.4481 27.834ZM17.1625 26.4536C16.8622 26.9136 16.9893 27.5304 17.4481 27.834C17.9087 28.1388 18.5291 28.0125 18.8339 27.552C18.8339 27.552 18.7884 27.6291 18.8787 27.481C18.9013 27.4438 18.9312 27.3931 18.9666 27.3293C19.0373 27.202 19.1302 27.022 19.2313 26.7928C19.4334 26.3348 19.6696 25.6773 19.8263 24.8484C20.1417 23.1801 20.1286 20.8477 18.9149 18.0965C17.8786 15.7477 17.8917 13.8301 18.1388 12.5234C18.2633 11.8648 18.449 11.3535 18.5985 11.0147C18.6732 10.8454 18.7385 10.7199 18.782 10.6415C18.8038 10.6023 18.82 10.5749 18.8292 10.5598L18.8372 10.5469C19.1376 10.0869 19.0106 9.46979 18.5518 9.16618C18.0913 8.86139 17.4708 8.98767 17.166 9.44824C17.1436 9.48375 17.1539 9.46636 17.159 9.45767C17.1603 9.45541 17.1613 9.45374 17.1612 9.45373L17.1213 9.51925C17.0986 9.55646 17.0687 9.60714 17.0333 9.67087C16.9626 9.79827 16.8697 9.97823 16.7686 10.2074C16.5666 10.6654 16.3304 11.3229 16.1736 12.1518C15.8582 13.8201 15.8713 16.1526 17.085 18.9038C18.1213 21.2526 18.1082 23.1701 17.8611 24.4768C17.7366 25.1354 17.551 25.6467 17.4015 25.9855C17.3268 26.1548 17.2614 26.2803 17.2179 26.3588C17.1961 26.398 17.1799 26.4253 17.1707 26.4404L17.1625 26.4536Z" fill="black"/>
</svg>
