<svg width="36" height="36" viewBox="0 0 36 36" fill="none" xmlns="http://www.w3.org/2000/svg">
<path d="M20.2069 16.207C20.5975 15.8165 20.5975 15.1833 20.2069 14.7928C19.8164 14.4023 19.1832 14.4023 18.7927 14.7928L14.2927 19.2928C13.9022 19.6833 13.9022 20.3165 14.2927 20.707C14.6832 21.0975 15.3164 21.0975 15.7069 20.707L20.2069 16.207Z" fill="black"/>
<path fill-rule="evenodd" clip-rule="evenodd" d="M18 36C27.9411 36 36 27.9411 36 18C36 8.0589 27.9411 0 18 0C8.0589 0 0 8.0589 0 18C0 27.9411 8.0589 36 18 36ZM23.3295 6.93903L22.6924 10.4424C22.9913 10.6337 23.2744 10.86 23.5356 11.1213L24.8787 12.4644C25.1688 12.7545 25.4157 13.0712 25.6196 13.4069L29.4258 13.0897C29.85 13.0543 30.0388 12.5388 29.7379 12.2379L24.1749 6.67493C23.8897 6.38971 23.4016 6.54224 23.3295 6.93903ZM6.93896 23.3292L10.4424 22.6923C10.6338 22.9912 10.8601 23.2742 11.1214 23.5355L12.4645 24.8787C12.7646 25.1787 13.0933 25.4327 13.4418 25.6405L13.0967 29.4368C13.0583 29.859 12.545 30.0449 12.2452 29.7451L6.67487 24.1747C6.38965 23.8895 6.54218 23.4014 6.93896 23.3292ZM17.8787 12.5355C19.0503 11.364 20.9498 11.364 22.1214 12.5355L23.4645 13.8787C24.6361 15.0502 24.6361 16.9497 23.4645 18.1213L18.1214 23.4644C16.9498 24.636 15.0503 24.636 13.8787 23.4644L12.5356 22.1213C11.364 20.9497 11.364 19.0502 12.5356 17.8787L17.8787 12.5355Z" fill="black"/>
</svg>
