<svg width="36" height="36" viewBox="0 0 36 36" fill="none" xmlns="http://www.w3.org/2000/svg">
<path fill-rule="evenodd" clip-rule="evenodd" d="M18 36C27.9411 36 36 27.9411 36 18C36 8.05887 27.9411 0 18 0C8.05887 0 0 8.05887 0 18C0 27.9411 8.05887 36 18 36ZM9 8C9 7.44772 9.44772 7 10 7H26C26.5523 7 27 7.44772 27 8V28C27 28.5523 26.5523 29 26 29H10C9.44772 29 9 28.5523 9 28V8ZM15 21.1957V14.8042C15 14.0188 15.864 13.54 16.53 13.9562L21.6432 17.152C22.2699 17.5437 22.2699 18.4563 21.6432 18.848L16.53 22.0437C15.864 22.46 15 21.9812 15 21.1957Z" fill="black"/>
</svg>
