<svg width="36" height="36" viewBox="0 0 36 36" fill="none" xmlns="http://www.w3.org/2000/svg">
<path fill-rule="evenodd" clip-rule="evenodd" d="M18 36C27.9411 36 36 27.9411 36 18C36 8.05887 27.9411 0 18 0C8.05887 0 0 8.05887 0 18C0 27.9411 8.05887 36 18 36ZM21 13L18.9363 7.49688C18.6119 6.63171 17.3881 6.63171 17.0637 7.49688L15 13L8.30046 13.7444C7.42942 13.8412 7.09539 14.932 7.76288 15.4999L12.5 19.5304L11.0447 25.6932C10.8414 26.5541 11.7739 27.2357 12.5324 26.7805L18 23.5L23.4676 26.7805C24.2261 27.2357 25.1586 26.5541 24.9553 25.6932L23.5 19.5304L28.2371 15.4999C28.9046 14.932 28.5706 13.8412 27.6995 13.7444L21 13Z" fill="black"/>
</svg>
