<svg width="36" height="36" viewBox="0 0 36 36" fill="none" xmlns="http://www.w3.org/2000/svg">
<path fill-rule="evenodd" clip-rule="evenodd" d="M18 36C27.9411 36 36 27.9411 36 18C36 8.05887 27.9411 0 18 0C8.05887 0 0 8.05887 0 18C0 27.9411 8.05887 36 18 36ZM22.9716 8.1877C23.4569 7.92413 24.064 8.10391 24.3276 8.58924L24.6624 9.20581C24.9218 9.68347 25.6029 9.69612 25.8799 9.22844L26.1916 8.70204C26.4761 8.2216 27.099 8.06722 27.5749 8.35918L28.3463 8.83237C28.8217 9.12396 28.9667 9.74802 28.6686 10.2193L28.3768 10.6808C28.084 11.1437 28.4124 11.7484 28.9601 11.7549L29.506 11.7613C30.0636 11.7679 30.5081 12.2294 30.4939 12.7868L30.4707 13.6915C30.4564 14.2497 29.9878 14.6881 29.4299 14.6651L28.8187 14.64C28.2756 14.6176 27.9153 15.1958 28.1747 15.6734L28.5096 16.29C28.7731 16.7753 28.5934 17.3824 28.108 17.646L27.2891 18.0907C26.8038 18.3543 26.1967 18.1745 25.9331 17.6892L25.5999 17.0755C25.3401 16.5972 24.6578 16.5854 24.3816 17.0543L24.0796 17.567C23.7957 18.0489 23.1718 18.2043 22.6951 17.9119L21.9237 17.4387C21.4491 17.1476 21.3037 16.5249 21.6003 16.0537L21.8898 15.5936C22.1808 15.1312 21.8535 14.5285 21.3072 14.5208L20.7637 14.5132C20.207 14.5053 19.7639 14.0443 19.7781 13.4877L19.8012 12.5831C19.8155 12.024 20.2856 11.5853 20.8444 11.6096L21.4388 11.6354C21.9826 11.6591 22.3441 11.0803 22.0844 10.602L21.7511 9.98841C21.4876 9.50308 21.6673 8.89597 22.1527 8.63241L22.9716 8.1877ZM11 11.0001V20.7579C11.715 20.2792 12.5749 20.0001 13.5 20.0001C15.4262 20.0001 17.0698 21.2104 17.7118 22.912L20.2942 18.6767C20.4649 18.8522 20.6601 19.0095 20.8784 19.1435L21.6498 19.6166C21.7517 19.6791 21.8558 19.7348 21.9617 19.7838L18.59 25.3132C18.0596 26.1831 17.4275 26.9868 16.7071 27.7072C16.6335 27.7808 16.5513 27.8405 16.4637 27.8864C15.6721 28.5798 14.6351 29.0001 13.5 29.0001C11.0147 29.0001 9 26.9854 9 24.5001V11.0001C9 10.4478 9.44771 10.0001 10 10.0001C10.5523 10.0001 11 10.4478 11 11.0001ZM16 24.5001C16 25.8808 14.8807 27.0001 13.5 27.0001C12.1193 27.0001 11 25.8808 11 24.5001C11 23.1194 12.1193 22.0001 13.5 22.0001C14.8807 22.0001 16 23.1194 16 24.5001Z" fill="black"/>
</svg>
