<svg width="36" height="36" viewBox="0 0 36 36" fill="none" xmlns="http://www.w3.org/2000/svg">
<path fill-rule="evenodd" clip-rule="evenodd" d="M18 36C27.9411 36 36 27.9411 36 18C36 8.05887 27.9411 0 18 0C8.05887 0 0 8.05887 0 18C0 27.9411 8.05887 36 18 36ZM20.9703 7.24293C21.1043 6.70715 20.7786 6.16418 20.2428 6.03018C19.707 5.89618 19.1641 6.22188 19.0301 6.75766L18.8811 7.35311C14.41 7.04552 10.5114 10.1504 9.23559 14.5286C9.08109 15.0588 9.43967 15.5857 9.98177 15.6911L16.9646 17.0489L15.1979 25.0004H9C8.44771 25.0004 8 25.4481 8 26.0004C8 26.5527 8.44771 27.0004 9 27.0004H15.9849C15.9957 27.0005 16.0064 27.0005 16.0171 27.0004H25.5C26.0523 27.0004 26.5 26.5527 26.5 26.0004C26.5 25.4481 26.0523 25.0004 25.5 25.0004H17.2466L18.9286 17.4308L26.0185 18.8095C26.5606 18.9149 27.0904 18.5608 27.1482 18.0115C27.6339 13.3963 25.2389 9.01164 20.8536 7.70941L20.9703 7.24293ZM19.5299 10.2578C19.6638 9.72202 20.2067 9.39626 20.7425 9.5302C23.2174 10.1489 24.9141 12.5335 25.4701 14.7578C25.6041 15.2936 25.2783 15.8365 24.7425 15.9705C24.2067 16.1044 23.6638 15.7787 23.5299 15.2429C23.0859 13.4672 21.7826 11.8518 20.2575 11.4705C19.7217 11.3365 19.3959 10.7936 19.5299 10.2578Z" fill="black"/>
</svg>
