<svg width="36" height="36" viewBox="0 0 36 36" fill="none" xmlns="http://www.w3.org/2000/svg">
<path fill-rule="evenodd" clip-rule="evenodd" d="M18 36C27.9411 36 36 27.9411 36 18C36 8.05887 27.9411 0 18 0C8.05887 0 0 8.05887 0 18C0 27.9411 8.05887 36 18 36ZM29 17.5C29 14.9615 25.5926 12 22.1852 12C20.4872 12 19.7563 12.4116 19.1269 12.7661C18.6511 13.034 18.2334 13.2692 17.5 13.2692C16.7666 13.2692 16.3489 13.034 15.8731 12.7661C15.2437 12.4116 14.5128 12 12.8148 12C9.83333 12 6 14.9615 6 17.5C6 20.0385 9.83333 23 12.8148 23C14.5128 23 15.2437 22.5884 15.8731 22.2339C16.3489 21.966 16.7666 21.7308 17.5 21.7308C18.2334 21.7308 18.6511 21.966 19.1269 22.2339C19.7563 22.5884 20.4872 23 22.1852 23C23.9472 23 25.7092 22.2081 27 21.0923V26C27 26.5523 27.4477 27 28 27C28.5523 27 29 26.5523 29 26V17.5ZM12.8151 15.3846C10.868 15.3846 9.40771 17.0769 9.40771 17.5C9.40771 17.9231 10.868 19.6154 12.8151 19.6154C14.7622 19.6154 16.2225 17.9231 16.2225 17.5C16.2225 17.0769 14.7622 15.3846 12.8151 15.3846ZM18.7773 17.5C18.7773 17.0769 20.2376 15.3846 22.1847 15.3846C24.1318 15.3846 25.5921 17.0769 25.5921 17.5C25.5921 17.9231 24.1318 19.6154 22.1847 19.6154C20.2376 19.6154 18.7773 17.9231 18.7773 17.5Z" fill="black"/>
</svg>
