<svg width="36" height="36" viewBox="0 0 36 36" fill="none" xmlns="http://www.w3.org/2000/svg">
<path fill-rule="evenodd" clip-rule="evenodd" d="M18 36C27.9411 36 36 27.9411 36 18C36 8.05887 27.9411 0 18 0C8.05887 0 0 8.05887 0 18C0 27.9411 8.05887 36 18 36ZM13 10C11.8954 10 11 10.8954 11 12V14H4C3.44775 14 3 14.4477 3 15C3 15.5523 3.44775 16 4 16H15.5002C16.0525 16 16.5002 16.4477 16.5002 17C16.5002 17.5523 16.0525 18 15.5002 18H11V19H6C5.44775 19 5 19.4477 5 20C5 20.5523 5.44775 21 6 21H13C13.5522 21 14 21.4477 14 22C14 22.5523 13.5522 23 13 23H11C11 24.1046 11.8954 25 13 25H28C29.1046 25 30 24.1046 30 23V12C30 10.8954 29.1046 10 28 10H13ZM28 12H23V15H28V12Z" fill="black"/>
</svg>
