<svg width="36" height="36" viewBox="0 0 36 36" fill="none" xmlns="http://www.w3.org/2000/svg">
<path fill-rule="evenodd" clip-rule="evenodd" d="M18 36C27.9412 36 36 27.9412 36 18C36 8.05884 27.9412 0 18 0C8.05884 0 0 8.05884 0 18C0 27.9412 8.05884 36 18 36ZM23 8C22.4478 8 22 8.44775 22 9V22C22 22.5522 22.4478 23 23 23H24C24.5522 23 25 22.5522 25 22V9C25 8.44775 24.5522 8 24 8H23ZM15 11C14.4478 11 14 11.4478 14 12V22C14 22.5522 14.4478 23 15 23H16C16.5522 23 17 22.5522 17 22V12C17 11.4478 16.5522 11 16 11H15ZM7 15C6.44775 15 6 15.4478 6 16V22C6 22.5522 6.44775 23 7 23H8C8.55225 23 9 22.5522 9 22V16C9 15.4478 8.55225 15 8 15H7ZM10 19C10 18.4478 10.4478 18 11 18H12C12.5522 18 13 18.4478 13 19V22C13 22.5522 12.5522 23 12 23H11C10.4478 23 10 22.5522 10 22V19ZM19 16C18.4478 16 18 16.4478 18 17V22C18 22.5522 18.4478 23 19 23H20C20.5522 23 21 22.5522 21 22V17C21 16.4478 20.5522 16 20 16H19ZM26 15C26 14.4478 26.4478 14 27 14H28C28.5522 14 29 14.4478 29 15V22C29 22.5522 28.5522 23 28 23H27C26.4478 23 26 22.5522 26 22V15ZM5 25C5 24.4478 5.44775 24 6 24H29C29.5522 24 30 24.4478 30 25C30 25.5522 29.5522 26 29 26H6C5.44775 26 5 25.5522 5 25Z" fill="black"/>
</svg>
