<svg width="36" height="36" viewBox="0 0 36 36" fill="none" xmlns="http://www.w3.org/2000/svg">
<path fill-rule="evenodd" clip-rule="evenodd" d="M18 36C27.9411 36 36 27.9411 36 18C36 8.05887 27.9411 0 18 0C8.05887 0 0 8.05887 0 18C0 27.9411 8.05887 36 18 36ZM12.6402 8.2318C13.0645 8.58537 13.1218 9.21593 12.7682 9.64021L10.3383 12.5561C9.92423 13.053 9.17284 13.0871 8.71546 12.6297L7.29289 11.2071C6.90237 10.8166 6.90237 10.1834 7.29289 9.79292C7.68342 9.40239 8.31658 9.40239 8.70711 9.79292L9.4328 10.5186L11.2318 8.35984C11.5853 7.93556 12.2159 7.87824 12.6402 8.2318ZM16.5 11C15.9477 11 15.5 11.4477 15.5 12C15.5 12.5523 15.9477 13 16.5 13H27.5C28.0523 13 28.5 12.5523 28.5 12C28.5 11.4477 28.0523 11 27.5 11H16.5ZM8 18C8 17.1716 8.67157 16.5 9.5 16.5C10.3284 16.5 11 17.1716 11 18C11 18.8284 10.3284 19.5 9.5 19.5C8.67157 19.5 8 18.8284 8 18ZM8 24C8 23.1716 8.67157 22.5 9.5 22.5C10.3284 22.5 11 23.1716 11 24C11 24.8284 10.3284 25.5 9.5 25.5C8.67157 25.5 8 24.8284 8 24ZM13.5 18C13.5 17.4477 13.9477 17 14.5 17H27.5C28.0523 17 28.5 17.4477 28.5 18C28.5 18.5523 28.0523 19 27.5 19H14.5C13.9477 19 13.5 18.5523 13.5 18ZM14.5 23C13.9477 23 13.5 23.4477 13.5 24C13.5 24.5523 13.9477 25 14.5 25H27.5C28.0523 25 28.5 24.5523 28.5 24C28.5 23.4477 28.0523 23 27.5 23H14.5Z" fill="black"/>
</svg>
