<svg width="36" height="36" viewBox="0 0 36 36" fill="none" xmlns="http://www.w3.org/2000/svg">
<path d="M18 28C18 28.5522 17.5522 29 17 29C16.4478 29 16 28.5522 16 28C16 27.4478 16.4478 27 17 27C17.5522 27 18 27.4478 18 28Z" fill="black"/>
<path fill-rule="evenodd" clip-rule="evenodd" d="M36 18C36 8.05884 27.9412 0 18 0C8.05884 0 0 8.05884 0 18C0 27.9412 8.05884 36 18 36C27.9412 36 36 27.9412 36 18ZM10 11C10 9.34314 11.3433 8 13 8H25C25.5522 8 26 8.44775 26 9C26 9.55225 25.5522 10 25 10C24.4478 10 24 10.4478 24 11V16H18V14C18 13.4478 17.5522 13 17 13C16.4478 13 16 13.4478 16 14V16H14V12C14 11.4478 13.5522 11 13 11C12.4478 11 12 11.4478 12 12V16H10V11ZM10 21V18H24V21C24 21.5522 23.5522 22 23 22H20C19.4478 22 19 22.4478 19 23V28C19 29.1046 18.1045 30 17 30C15.8955 30 15 29.1046 15 28V23C15 22.4478 14.5522 22 14 22H11C10.4478 22 10 21.5522 10 21Z" fill="black"/>
</svg>
