<svg width="36" height="36" viewBox="0 0 36 36" fill="none" xmlns="http://www.w3.org/2000/svg">
<path fill-rule="evenodd" clip-rule="evenodd" d="M36 18C36 8.05887 27.9409 0 18 0C8.05908 0 0 8.05887 0 18C0 27.9411 8.05908 36 18 36C27.9409 36 36 27.9411 36 18ZM29 14H27.542C26.2681 9.9429 22.4775 7 18 7C13.5225 7 9.73193 9.9429 8.45801 14H7C6.78613 14 6.57471 14.0135 6.36816 14.0396C7.68604 8.84383 12.394 5 18 5C23.606 5 28.314 8.84383 29.6318 14.0396C29.4253 14.0135 29.2139 14 29 14ZM32 19C32 17.683 31.1514 16.5642 29.9712 16.1607C29.8848 16.1311 29.7964 16.1055 29.707 16.0838C29.6685 16.0745 29.6299 16.066 29.5908 16.0582C29.5098 16.042 29.4277 16.0291 29.3447 16.0196C29.2319 16.0067 29.1167 16 29 16H27V25H29C30.6567 25 32 23.6569 32 22V19ZM7 16C6.66016 16 6.3335 16.0565 6.02881 16.1607C4.84863 16.5642 4 17.683 4 19V22C4 23.6569 5.34326 25 7 25H9V16H7ZM15 13.1176C15 11.9481 16.3433 11 18 11C19.6567 11 21 11.9481 21 13.1176V19H15V13.1176ZM18 24C16.3433 24 15 22.6569 15 21H21C21 22.6569 19.6567 24 18 24ZM18 26C15.2388 26 13 23.7614 13 21V19C13 18.4477 12.5522 18 12 18C11.4478 18 11 18.4477 11 19V21C11 24.5265 13.6079 27.4439 17 27.9291V31H14C13.4478 31 13 31.4477 13 32C13 32.5523 13.4478 33 14 33H22C22.5522 33 23 32.5523 23 32C23 31.4477 22.5522 31 22 31H19V27.9291C22.3921 27.4439 25 24.5265 25 21V19C25 18.4477 24.5522 18 24 18C23.4478 18 23 18.4477 23 19V21C23 23.7614 20.7612 26 18 26Z" fill="black"/>
</svg>
