<svg width="36" height="36" viewBox="0 0 36 36" fill="none" xmlns="http://www.w3.org/2000/svg">
<path fill-rule="evenodd" clip-rule="evenodd" d="M18 36C27.9411 36 36 27.9411 36 18C36 8.05887 27.9411 0 18 0C8.05887 0 0 8.05887 0 18C0 27.9411 8.05887 36 18 36ZM11 11C11 9.89543 11.8954 9 13 9H24.1134C24.3622 9 24.602 9.09272 24.7861 9.26006L29.6727 13.7024C29.8811 13.892 30 14.1606 30 14.4424V20C30 21.1046 29.1046 22 28 22H13C11.8954 22 11 21.1046 11 20V11ZM21 14H14V12H21V14ZM14 18H21V16H14V18ZM9 21V13C7.89543 13 7 13.8954 7 15V24C7 25.1046 7.89543 26 9 26H24C25.1046 26 26 25.1046 26 24H12C10.3431 24 9 22.6569 9 21Z" fill="black"/>
</svg>
