<svg width="36" height="36" viewBox="0 0 36 36" fill="none" xmlns="http://www.w3.org/2000/svg">
<path fill-rule="evenodd" clip-rule="evenodd" d="M18 36C27.9411 36 36 27.9411 36 18C36 8.05887 27.9411 0 18 0C8.05887 0 0 8.05887 0 18C0 27.9411 8.05887 36 18 36ZM23.2539 8.87297C26.9528 11.8727 27.5222 16.778 22.5 22L23.7182 25.6545C23.8788 26.1364 23.6527 26.6621 23.1924 26.8769L17.4895 29.5382C16.9577 29.7864 16.3274 29.5254 16.1269 28.9738L14.5 24.5H11.5C10.9477 24.5 10.5 24.0523 10.5 23.5V20.5H8.72152C8.37242 20.5 8.13078 20.1513 8.25336 19.8245L9.50002 16.5C9.10031 11.5128 13.5348 5.60403 20.5528 7.50838C21.5351 7.77493 22.4634 8.23186 23.2539 8.87297ZM16 14.5C16 13.6716 16.6716 13 17.5 13H17.7265C18.4298 13 19 13.5702 19 14.2735C19 14.7023 18.7842 15.1024 18.4259 15.3378L17.4016 16.0109C16.8389 16.3807 16.5 17.0089 16.5 17.6823V18C16.5 18.5523 16.9477 19 17.5 19C18.0523 19 18.5 18.5523 18.5 18V17.6823L19.5242 17.0093C20.4453 16.4039 21 15.3757 21 14.2735C21 12.4656 19.5344 11 17.7265 11H17.5C15.567 11 14 12.567 14 14.5V14.5714C14 15.1237 14.4477 15.5714 15 15.5714C15.5523 15.5714 16 15.1237 16 14.5714V14.5ZM17.5 20C18.0523 20 18.5 20.4477 18.5 21V21.5C18.5 22.0523 18.0523 22.5 17.5 22.5C16.9477 22.5 16.5 22.0523 16.5 21.5V21C16.5 20.4477 16.9477 20 17.5 20Z" fill="black"/>
</svg>
