<svg width="36" height="36" viewBox="0 0 36 36" fill="none" xmlns="http://www.w3.org/2000/svg">
<path fill-rule="evenodd" clip-rule="evenodd" d="M18 36C27.9411 36 36 27.9411 36 18C36 8.05887 27.9411 0 18 0C8.05887 0 0 8.05887 0 18C0 27.9411 8.05887 36 18 36ZM22.2929 8.79289C22.6834 8.40237 23.3166 8.40237 23.7071 8.79289L25.5 10.5858L27.2929 8.79289C27.6834 8.40237 28.3166 8.40237 28.7071 8.79289C29.0976 9.18342 29.0976 9.81658 28.7071 10.2071L26.9142 12L28.7071 13.7929C29.0976 14.1834 29.0976 14.8166 28.7071 15.2071C28.3166 15.5976 27.6834 15.5976 27.2929 15.2071L25.5 13.4142L23.7071 15.2071C23.3166 15.5976 22.6834 15.5976 22.2929 15.2071C21.9024 14.8166 21.9024 14.1834 22.2929 13.7929L24.0858 12L22.2929 10.2071C21.9024 9.81658 21.9024 9.18342 22.2929 8.79289ZM12 19C9.23858 19 7 21.2386 7 24V25C7 26.1046 7.89543 27 9 27H22C23.1046 27 24 26.1046 24 25V24C24 21.2386 21.7614 19 19 19H12ZM12 12.5C12 10.567 13.567 9 15.5 9C17.433 9 19 10.567 19 12.5V13.5C19 15.433 17.433 17 15.5 17C13.567 17 12 15.433 12 13.5V12.5Z" fill="black"/>
</svg>
