<svg width="36" height="36" viewBox="0 0 36 36" fill="none" xmlns="http://www.w3.org/2000/svg">
<path fill-rule="evenodd" clip-rule="evenodd" d="M18 36C27.9411 36 36 27.9411 36 18C36 8.05887 27.9411 0 18 0C8.05887 0 0 8.05887 0 18C0 27.9411 8.05887 36 18 36ZM8 17H9H17H17.9722H19H27C27 20.866 23.866 24 20 24H15C12.027 24 9.55904 21.8377 9.08296 19H8C7.44772 19 7 18.5523 7 18C7 17.4477 7.44772 17 8 17ZM17.9722 15H26.748C25.8599 11.5495 22.7277 9 19 9H18.4722C18.1961 9 17.9722 9.22386 17.9722 9.5V15ZM15 27C15 28.1046 14.1046 29 13 29C11.8954 29 11 28.1046 11 27C11 25.8954 11.8954 25 13 25C14.1046 25 15 25.8954 15 27ZM25 27C25 28.1046 24.1046 29 23 29C21.8954 29 21 28.1046 21 27C21 25.8954 21.8954 25 23 25C24.1046 25 25 25.8954 25 27Z" fill="black"/>
</svg>
