<svg width="36" height="36" viewBox="0 0 36 36" fill="none" xmlns="http://www.w3.org/2000/svg">
<path fill-rule="evenodd" clip-rule="evenodd" d="M18 36C27.9411 36 36 27.9411 36 18C36 8.05887 27.9411 0 18 0C8.05887 0 0 8.05887 0 18C0 27.9411 8.05887 36 18 36ZM21.6191 6.67707C21.3075 6.57918 20.9988 6.81822 20.9988 7.14491V8.84C20.9988 8.88973 20.9991 8.94081 20.9994 8.99323V8.99329V8.99333C21.0046 9.91064 21.0122 11.2395 19.499 12.98C18.9322 13.6318 18.3697 14.2836 17.8425 14.8946C16.8814 16.0082 16.0376 16.9859 15.4995 17.58C15.3745 17.718 15.2396 17.8652 15.0978 18.0198C13.8222 19.4108 12 21.398 12 22.64C12 24.02 12.9999 24.48 14.9996 24.94C16.9993 25.4 17.9992 25.86 17.9992 27.24V29.5C17.9992 29.7761 18.2237 30.0011 18.4996 29.9897C24.895 29.7274 30 24.4598 30 18C30 12.6339 26.4778 8.20299 21.6191 6.67707ZM25 20.5C25.5523 20.5 26 20.9477 26 21.5C26 23.4335 25.1211 24.7399 23.8352 25.2823C22.6464 25.7837 21.2274 25.5591 20.3269 24.7396C19.9493 24.3959 19.6516 24.0913 19.4073 23.8342C19.3324 23.7553 19.2658 23.6846 19.2053 23.6202L19.2052 23.6202C19.0578 23.4634 18.9459 23.3445 18.8363 23.239C18.6906 23.099 18.6149 23.0497 18.572 23.0285C18.5459 23.0156 18.5083 23 18.4118 23H17C16.4477 23 16 22.5523 16 22C16 21.4477 16.4477 21 17 21H18.4118C18.7858 21 19.1306 21.0738 19.4574 21.2352C19.7674 21.3882 20.0152 21.5981 20.2226 21.7974C20.3712 21.9404 20.5339 22.1134 20.696 22.2857L20.6963 22.286C20.7503 22.3434 20.8041 22.4007 20.8574 22.4568C21.0837 22.6951 21.3448 22.9617 21.6731 23.2604C21.9635 23.5247 22.5445 23.656 23.058 23.4395C23.4744 23.2638 24 22.7784 24 21.5C24 20.9477 24.4477 20.5 25 20.5Z" fill="black"/>
</svg>
