<svg width="36" height="36" viewBox="0 0 36 36" fill="none" xmlns="http://www.w3.org/2000/svg">
<path fill-rule="evenodd" clip-rule="evenodd" d="M18 36C27.9411 36 36 27.9411 36 18C36 8.05887 27.9411 0 18 0C8.05887 0 0 8.05887 0 18C0 27.9411 8.05887 36 18 36ZM20 7H10C9.44772 7 9 7.44772 9 8V28C9 28.5523 9.44772 29 10 29H26C26.5523 29 27 28.5523 27 28V14H21.1C20.4925 14 20 13.5075 20 12.9V7ZM26.5091 12L22 7.40741V12H26.5091ZM16.0261 23.8C16.0261 22.8256 16.2209 22.1154 16.6107 21.6692C17.0004 21.2231 17.5979 21 18.403 21C18.8286 21 19.1902 21.0564 19.4876 21.1692C19.785 21.2769 20.0261 21.4462 20.2107 21.6769C20.4004 21.9026 20.5363 22.1923 20.6184 22.5462C20.7056 22.8949 20.7491 23.3128 20.7491 23.8C20.7491 24.3077 20.6979 24.741 20.5953 25.1C20.4979 25.4538 20.3491 25.7436 20.1491 25.9692C19.9543 26.1897 19.7107 26.3513 19.4184 26.4538C19.1261 26.5513 18.7876 26.6 18.403 26.6C17.6338 26.6 17.044 26.3795 16.6338 25.9385C16.2286 25.4974 16.0261 24.7846 16.0261 23.8ZM17.3799 23.8077C17.3799 24.141 17.403 24.4179 17.4491 24.6385C17.5004 24.859 17.5697 25.0333 17.6568 25.1615C17.7491 25.2897 17.8594 25.3795 17.9876 25.4308C18.1158 25.482 18.262 25.5077 18.4261 25.5077C18.585 25.5077 18.7261 25.482 18.8491 25.4308C18.9722 25.3744 19.0748 25.2821 19.1568 25.1538C19.2389 25.0205 19.3004 24.8462 19.3414 24.6308C19.3825 24.4103 19.403 24.1359 19.403 23.8077C19.403 23.4795 19.3799 23.2051 19.3338 22.9846C19.2927 22.7641 19.2286 22.5872 19.1414 22.4538C19.0594 22.3205 18.9517 22.2282 18.8184 22.1769C18.6902 22.1205 18.5414 22.0923 18.3722 22.0923C18.203 22.0923 18.0543 22.1231 17.9261 22.1846C17.803 22.2462 17.7004 22.3462 17.6184 22.4846C17.5414 22.6179 17.4825 22.7949 17.4414 23.0154C17.4004 23.2308 17.3799 23.4949 17.3799 23.8077ZM11 21.1154C11.1641 21.1051 11.3179 21.0974 11.4615 21.0923C11.6051 21.082 11.7487 21.0769 11.8923 21.0769C12.0359 21.0718 12.1846 21.0692 12.3385 21.0692C12.4923 21.0641 12.6641 21.0615 12.8538 21.0615C13.3667 21.0615 13.7949 21.1205 14.1385 21.2384C14.4821 21.3513 14.7564 21.5179 14.9615 21.7384C15.1667 21.959 15.3103 22.2308 15.3923 22.5538C15.4795 22.8769 15.5231 23.2487 15.5231 23.6692C15.5231 24.6487 15.3 25.3718 14.8538 25.8384C14.4128 26.3051 13.7051 26.5384 12.7308 26.5384C12.3974 26.5384 12.1 26.5333 11.8385 26.5231C11.5821 26.5128 11.3026 26.4974 11 26.4769V21.1154ZM12.2615 25.4154C12.359 25.4256 12.4462 25.4333 12.5231 25.4384C12.6 25.4436 12.6897 25.4461 12.7923 25.4461C13.2949 25.4461 13.659 25.3128 13.8846 25.0461C14.1103 24.7795 14.2231 24.3436 14.2231 23.7384C14.2231 23.1795 14.1205 22.7769 13.9154 22.5308C13.7103 22.2795 13.3641 22.1538 12.8769 22.1538C12.759 22.1538 12.6538 22.1564 12.5615 22.1615C12.4692 22.1667 12.3692 22.1743 12.2615 22.1846V25.4154ZM24.9308 22.2692C25.1667 22.3513 25.3667 22.4385 25.5308 22.5308V21.2385C25.3974 21.1974 25.2051 21.1487 24.9538 21.0923C24.7026 21.0308 24.3872 21 24.0077 21C23.5308 21 23.1205 21.0564 22.7769 21.1692C22.4333 21.2821 22.1513 21.4564 21.9308 21.6923C21.7154 21.9282 21.5564 22.2256 21.4538 22.5846C21.3513 22.9385 21.3 23.359 21.3 23.8462C21.3 24.3179 21.3513 24.7256 21.4538 25.0692C21.5564 25.4128 21.7154 25.6974 21.9308 25.9231C22.1513 26.1487 22.4308 26.3179 22.7692 26.4308C23.1128 26.5385 23.5231 26.5923 24 26.5923C24.3795 26.5923 24.7026 26.559 24.9692 26.4923C25.2359 26.4308 25.441 26.3641 25.5846 26.2923V25.0385C25.441 25.141 25.2461 25.2385 25 25.3308C24.7538 25.4179 24.4538 25.4615 24.1 25.4615C23.8436 25.4615 23.6205 25.4359 23.4308 25.3846C23.241 25.3282 23.0846 25.2359 22.9615 25.1077C22.8384 24.9744 22.7461 24.8 22.6846 24.5846C22.6231 24.3692 22.5923 24.1 22.5923 23.7769C22.5923 23.4692 22.6205 23.2128 22.6769 23.0077C22.7384 22.7974 22.8282 22.6282 22.9461 22.5C23.0641 22.3718 23.2128 22.2795 23.3923 22.2231C23.5769 22.1667 23.7923 22.1385 24.0384 22.1385C24.4025 22.1385 24.7 22.1821 24.9308 22.2692Z" fill="black"/>
</svg>
