<svg width="36" height="36" viewBox="0 0 36 36" fill="none" xmlns="http://www.w3.org/2000/svg">
<path fill-rule="evenodd" clip-rule="evenodd" d="M18 36C27.9411 36 36 27.9411 36 18C36 8.05887 27.9411 0 18 0C8.05887 0 0 8.05887 0 18C0 27.9411 8.05887 36 18 36ZM29 18C29 24.0751 24.0751 29 18 29C11.9249 29 7 24.0751 7 18C7 11.9249 11.9249 7 18 7C24.0751 7 29 11.9249 29 18ZM15 15.5C15 16.3284 14.3284 17 13.5 17C12.6716 17 12 16.3284 12 15.5C12 14.6716 12.6716 14 13.5 14C14.3284 14 15 14.6716 15 15.5ZM22.5 17C23.3284 17 24 16.3284 24 15.5C24 14.6716 23.3284 14 22.5 14C21.6716 14 21 14.6716 21 15.5C21 16.3284 21.6716 17 22.5 17ZM22.7801 20H13.2197C12.5887 20 12.1211 20.5792 12.3679 21.16C13.0932 22.8667 14.7999 25 17.9999 25C21.1999 25 22.9066 22.8667 23.6319 21.16C23.8787 20.5792 23.4112 20 22.7801 20Z" fill="black"/>
</svg>
