<svg width="36" height="36" viewBox="0 0 36 36" fill="none" xmlns="http://www.w3.org/2000/svg">
<path fill-rule="evenodd" clip-rule="evenodd" d="M18 36C27.9411 36 36 27.9411 36 18C36 8.05887 27.9411 0 18 0C8.05887 0 0 8.05887 0 18C0 27.9411 8.05887 36 18 36ZM25 11.2633C24.9584 11.3006 24.918 11.3389 24.8783 11.3785C24.2925 11.9643 23.9996 12.7321 23.9996 13.4998C23.2318 13.4998 22.4641 13.7927 21.8783 14.3785C20.8967 15.36 20.7375 16.8525 21.4006 17.9998C20.7375 19.1471 20.8967 20.6396 21.8783 21.6212C22.4641 22.2069 23.2318 22.4998 23.9996 22.4998C23.9996 23.2676 24.2925 24.0354 24.8783 24.6212C24.918 24.6608 24.9584 24.6991 25 24.7363V26C25 27.1046 24.1046 28 23 28H13C11.8954 28 11 27.1046 11 26V10C11 8.89542 11.8954 8 13 8H23C24.1046 8 25 8.89542 25 10V11.2633ZM15 10C15 9.44772 15.4478 9 16 9H20C20.5522 9 21 9.44772 21 10C21 10.5523 20.5522 11 20 11H16C15.4478 11 15 10.5523 15 10ZM18 26C18.5522 26 19 25.5523 19 25C19 24.4477 18.5522 24 18 24C17.4478 24 17 24.4477 17 25C17 25.5523 17.4478 26 18 26ZM27.7071 12.7929C27.3166 12.4024 26.6834 12.4024 26.2929 12.7929C25.9024 13.1834 25.9024 13.8166 26.2929 14.2071C26.9297 14.844 27.7039 16.0118 27.9255 17.3732C28.137 18.6725 27.8624 20.2234 26.2929 21.7929C25.9024 22.1834 25.9024 22.8166 26.2929 23.2071C26.6834 23.5976 27.3166 23.5976 27.7071 23.2071C29.7376 21.1766 30.213 18.9775 29.8995 17.0518C29.5961 15.1882 28.5703 13.656 27.7071 12.7929ZM24.7071 15.7929C24.3166 15.4024 23.6834 15.4024 23.2929 15.7929C22.9024 16.1834 22.9024 16.8166 23.2929 17.2071C23.3568 17.271 23.5269 17.5473 23.5686 17.9229C23.6059 18.2582 23.53 18.5558 23.2929 18.7929C22.9024 19.1834 22.9024 19.8166 23.2929 20.2071C23.6834 20.5976 24.3166 20.5976 24.7071 20.2071C25.47 19.4442 25.6441 18.4918 25.5564 17.7021C25.4731 16.9527 25.1432 16.229 24.7071 15.7929Z" fill="black"/>
</svg>
