<svg width="36" height="36" viewBox="0 0 36 36" fill="none" xmlns="http://www.w3.org/2000/svg">
<path fill-rule="evenodd" clip-rule="evenodd" d="M18 36C27.9411 36 36 27.9411 36 18C36 8.05887 27.9411 0 18 0C8.05887 0 0 8.05887 0 18C0 27.9411 8.05887 36 18 36ZM29 8C29 6.98748 26.3137 6 23 6C19.6863 6 17 6.98748 17 8V8.37204C17.0966 8.61288 17.3078 8.84091 17.6663 9.06298C18.2014 9.39449 18.9369 9.62251 19.6467 9.76449C20.0529 9.84574 20.3163 10.2409 20.235 10.647C20.1538 11.0532 19.7586 11.3166 19.3525 11.2353C18.6129 11.0874 17.7336 10.836 17 10.4121V12.0001C17 12.009 17.0002 12.018 17.0006 12.0269C17.3289 12.0092 17.6626 12 18 12C19.8336 12 21.5596 12.2704 22.8931 12.729C23.5494 12.9547 24.2121 13.2604 24.7525 13.6787C24.8266 13.7359 24.9069 13.8023 24.99 13.8777C27.3256 13.5832 29 12.7994 29 12V10.2274C28.6125 10.457 28.1768 10.6447 27.7305 10.7982C26.7341 11.1409 25.6138 11.3412 24.2708 11.4252C24.2341 11.4307 24.1965 11.4336 24.1582 11.4336C24.1504 11.4336 24.1428 11.4335 24.1353 11.4332L24.1289 11.4336C23.7283 11.4182 23.4082 11.088 23.4082 10.6836C23.4082 10.558 23.439 10.4396 23.4937 10.3356C23.615 10.1049 23.8528 9.94482 24.1289 9.9342V9.92603C26.9666 9.75293 29 8.90833 29 8ZM29 20C29 20.6786 27.7934 21.3459 26 21.7123V19.2399C26.6302 19.1253 27.2133 18.976 27.7305 18.7982C28.1768 18.6447 28.6125 18.4569 29 18.2273V20ZM26 17.7123C27.7934 17.346 29 16.6787 29 16.0001V14.2273C28.6125 14.4569 28.1768 14.6447 27.7305 14.7982C27.1843 14.986 26.5647 15.142 25.8937 15.2588C25.9605 15.4847 26 15.7317 26 16V17.7123ZM24 16C24 14.9875 21.3137 14 18 14C14.6863 14 12 14.9875 12 16V16.3732C12.0968 16.6137 12.3079 16.8413 12.6658 17.0631C13.2009 17.3946 13.9365 17.6226 14.6463 17.7646C15.0524 17.8458 15.3158 18.241 15.2346 18.6471C15.1533 19.0533 14.7582 19.3167 14.352 19.2355C13.6126 19.0875 12.7336 18.8362 12 18.4125V20.0001C12 20.009 12.0002 20.018 12.0006 20.0269C12.3289 20.0092 12.6626 20 13 20C14.8336 20 16.5596 20.2704 17.8931 20.729C18.5494 20.9547 19.2121 21.2604 19.7525 21.6787C19.8266 21.7359 19.9069 21.8023 19.99 21.8777C22.3256 21.5832 24 20.7994 24 20V18.2273C23.6124 18.4569 23.1765 18.6448 22.73 18.7983C21.7337 19.141 20.6133 19.3413 19.2703 19.4253C19.2337 19.4308 19.1961 19.4337 19.1578 19.4337C19.15 19.4337 19.1424 19.4336 19.1348 19.4333L19.1285 19.4337C18.7278 19.4183 18.4078 19.0881 18.4078 18.6837C18.4078 18.5581 18.4385 18.4397 18.4932 18.3357C18.6146 18.105 18.8524 17.9449 19.1285 17.9343V17.9261C21.9661 17.753 24 16.9083 24 16ZM21 25.7123C22.7934 25.3459 24 24.6786 24 24V22.2273C23.6125 22.4569 23.1768 22.6447 22.7305 22.7982C22.1843 22.986 21.5647 23.142 20.8937 23.2588C20.9605 23.4847 21 23.7317 21 24V25.7123ZM13 22C16.3137 22 19 22.9875 19 24C19 24.9083 16.9661 25.753 14.1285 25.9261V25.9343C13.8523 25.9449 13.6146 26.105 13.4932 26.3357C13.4385 26.4397 13.4078 26.5581 13.4078 26.6837C13.4078 27.0881 13.7278 27.4183 14.1285 27.4337L14.1348 27.4333C14.1424 27.4336 14.15 27.4337 14.1578 27.4337C14.1961 27.4337 14.2337 27.4308 14.2703 27.4253C15.6133 27.3413 16.7337 27.141 17.73 26.7983C18.1765 26.6448 18.6124 26.4569 19 26.2273V28C19 29.0125 16.3137 30 13 30C9.68629 30 7 29.0125 7 28V26.4125C7.73355 26.8362 8.61262 27.0876 9.35204 27.2355C9.75821 27.3167 10.1533 27.0533 10.2346 26.6471C10.3158 26.241 10.0524 25.8458 9.64627 25.7646C8.9365 25.6226 8.20093 25.3946 7.66582 25.0631C7.3079 24.8414 7.09678 24.6137 7 24.3732V24C7 22.9875 9.68629 22 13 22Z" fill="black"/>
</svg>
