<svg width="36" height="36" viewBox="0 0 36 36" fill="none" xmlns="http://www.w3.org/2000/svg">
<path fill-rule="evenodd" clip-rule="evenodd" d="M18 36C27.9411 36 36 27.9411 36 18C36 8.05887 27.9411 0 18 0C8.05887 0 0 8.05887 0 18C0 27.9411 8.05887 36 18 36ZM7 18C7 15.7805 8.72227 14 11 14C12.3335 14 13.5639 14.6275 14.7082 16.1108C15.0456 16.5481 15.6735 16.6291 16.1108 16.2918C16.5481 15.9544 16.6291 15.3265 16.2918 14.8892C14.8646 13.0392 13.0951 12 11 12C7.59709 12 5 14.6967 5 18C5 21.3033 7.59709 24 11 24C12.7829 24 14.568 23.253 15.7152 22.007C16.1944 21.5474 17.4026 20.2998 18.7722 18.6354C20.1203 16.9971 21.2929 15.7946 21.6895 15.417L21.7159 15.3919L21.7404 15.3649C22.4789 14.5514 23.7239 14 25 14C27.2777 14 29 15.7805 29 18C29 20.2195 27.2777 22 25 22C24.0523 22 22.8158 21.6651 21.2593 19.8492C20.8998 19.4299 20.2685 19.3813 19.8492 19.7407C19.4299 20.1002 19.3813 20.7315 19.7407 21.1508C21.6128 23.3349 23.3763 24 25 24C28.4029 24 31 21.3033 31 18C31 14.6967 28.4029 12 25 12C23.2171 12 21.432 12.747 20.2848 13.993C19.8056 14.4526 18.5974 15.7002 17.2278 17.3646C15.8797 19.0029 14.7071 20.2054 14.3105 20.583L14.2841 20.6081L14.2596 20.6351C13.5211 21.4486 12.2761 22 11 22C8.72227 22 7 20.2195 7 18Z" fill="black"/>
</svg>
