<svg width="36" height="36" viewBox="0 0 36 36" fill="none" xmlns="http://www.w3.org/2000/svg">
<path fill-rule="evenodd" clip-rule="evenodd" d="M18 36C27.9411 36 36 27.9411 36 18C36 8.05887 27.9411 0 18 0C8.05887 0 0 8.05887 0 18C0 27.9411 8.05887 36 18 36ZM13 8C11.8954 8 11 8.89543 11 10V26C11 27.1046 11.8954 28 13 28H23C24.1046 28 25 27.1046 25 26V10C25 8.89543 24.1046 8 23 8H13ZM16 9C15.4477 9 15 9.44772 15 10C15 10.5523 15.4477 11 16 11H20C20.5523 11 21 10.5523 21 10C21 9.44772 20.5523 9 20 9H16ZM19 25C19 25.5523 18.5523 26 18 26C17.4477 26 17 25.5523 17 25C17 24.4477 17.4477 24 18 24C18.5523 24 19 24.4477 19 25Z" fill="black"/>
</svg>
