<svg width="36" height="36" viewBox="0 0 36 36" fill="none" xmlns="http://www.w3.org/2000/svg">
<path fill-rule="evenodd" clip-rule="evenodd" d="M18 36C27.9411 36 36 27.9411 36 18C36 8.05887 27.9411 0 18 0C8.05887 0 0 8.05887 0 18C0 27.9411 8.05887 36 18 36ZM18.0001 5C16.7461 5 15.8398 6.19881 16.1816 7.40531L16.994 10.2726C17.1159 10.703 17.5088 11 17.9561 11H18.0441C18.4914 11 18.8843 10.703 19.0062 10.2726L19.8186 7.40532C20.1604 6.19881 19.2541 5 18.0001 5ZM15.2025 13.9411C13.4178 15.6831 11.312 17.0621 9.00182 18.0017L8.18532 18.3337C7.46867 18.6252 7 19.3217 7 20.0954V20.2532C7 20.9943 7.48336 21.6487 8.19171 21.8667C11.6304 22.9247 14.6134 25.1083 16.6613 28.0664L16.9134 28.4305C17.439 29.1896 18.561 29.1896 19.0866 28.4305L19.3387 28.0664C21.3866 25.1083 24.3696 22.9247 27.8083 21.8667C28.5166 21.6487 29 20.9943 29 20.2532V20.0954C29 19.3217 28.5313 18.6252 27.8147 18.3337L26.9982 18.0017C24.688 17.0621 22.5822 15.6831 20.7975 13.9411L20.3745 13.5282C20.0275 13.1896 19.562 13 19.0771 13H16.9229C16.438 13 15.9725 13.1896 15.6255 13.5282L15.2025 13.9411ZM18 21C18 20.4477 18.4477 20 19 20H23.5C24.0523 20 24.5 20.4477 24.5 21C24.5 21.5523 24.0523 22 23.5 22H19C18.4477 22 18 21.5523 18 21Z" fill="black"/>
</svg>
