<svg width="36" height="36" viewBox="0 0 36 36" fill="none" xmlns="http://www.w3.org/2000/svg">
<path fill-rule="evenodd" clip-rule="evenodd" d="M36 18C36 8.05887 27.9411 0 18 0C8.05887 0 0 8.05887 0 18C0 27.9411 8.05887 36 18 36C27.9411 36 36 27.9411 36 18ZM6.84479 24.465C5.68233 22.6292 5 20.3863 5 17.9998C5 15.6134 5.68231 13.3708 6.84479 11.535C7.14025 11.0684 7.0015 10.4506 6.53489 10.1551C6.06829 9.85967 5.45051 9.99841 5.15505 10.465C3.79024 12.6204 3 15.2339 3 17.9998C3 20.7657 3.79023 23.3795 5.15505 25.535C5.45051 26.0016 6.06829 26.1403 6.53489 25.8449C7.0015 25.5494 7.14025 24.9316 6.84479 24.465ZM9 18C9 19.0811 9.30787 20.0956 9.85075 20.9745C10.141 21.4444 9.99535 22.0605 9.52548 22.3508C9.0556 22.641 8.43941 22.4954 8.14918 22.0255C7.42011 20.8452 7 19.4689 7 18C7 16.5311 7.42011 15.1548 8.14918 13.9745C8.43941 13.5046 9.0556 13.359 9.52548 13.6492C9.99535 13.9394 10.141 14.5556 9.85075 15.0255C9.30787 15.9044 9 16.9189 9 18ZM29.1552 11.535C30.3177 13.3708 31 15.6137 31 18.0002C31 20.3866 30.3177 22.6292 29.1552 24.465C28.8598 24.9316 28.9985 25.5494 29.4651 25.8449C29.9317 26.1403 30.5495 26.0016 30.8449 25.535C32.2098 23.3796 33 20.7661 33 18.0002C33 15.2343 32.2098 12.6205 30.8449 10.465C30.5495 9.99842 29.9317 9.85968 29.4651 10.1551C28.9985 10.4506 28.8598 11.0684 29.1552 11.535ZM27 18C27 16.9189 26.6921 15.9044 26.1492 15.0255C25.859 14.5556 26.0046 13.9395 26.4745 13.6492C26.9444 13.359 27.5605 13.5046 27.8508 13.9745C28.5798 15.1548 29 16.5311 29 18C29 19.4689 28.5799 20.8452 27.8508 22.0255C27.5606 22.4954 26.9444 22.641 26.4745 22.3508C26.0046 22.0606 25.859 21.4444 26.1493 20.9745C26.6921 20.0956 27 19.0811 27 18ZM18 11C21.866 11 25 14.134 25 18C25 21.866 21.866 25 18 25C14.134 25 11 21.866 11 18C11 14.134 14.134 11 18 11ZM21.3079 17.5742C21.6252 17.7694 21.6252 18.2306 21.3079 18.4258L16.262 21.531C15.9288 21.736 15.4999 21.4964 15.4999 21.1052V14.8948C15.4999 14.5036 15.9288 14.2639 16.262 14.4689L21.3079 17.5742Z" fill="black"/>
</svg>
