<svg width="36" height="36" viewBox="0 0 36 36" fill="none" xmlns="http://www.w3.org/2000/svg">
<path fill-rule="evenodd" clip-rule="evenodd" d="M36 18C36 8.05887 27.9411 0 18 0C8.05887 0 0 8.05887 0 18C0 27.9411 8.05887 36 18 36C27.9411 36 36 27.9411 36 18ZM12 9C12 8.44771 11.5523 8 11 8C10.4477 8 10 8.44771 10 9V16H12.5C13.0523 16 13.5 16.4477 13.5 17C13.5 17.5523 13.0523 18 12.5 18H7C6.44772 18 6 18.4477 6 19C6 19.5523 6.44772 20 7 20L10 20.0009H13.5419C13.8488 20.0009 14.1386 19.86 14.3282 19.6187L15.4834 18.1485C16.0523 17.4245 16.9221 17.0018 17.8429 17.002L25.5958 17.0033L22.8643 15L15 15C14.4477 15 14 14.5523 14 14C14 13.4477 14.4477 13 15 13L20.1373 13L18.2023 11.5809C17.6877 11.2035 17.0662 11 16.4281 11H12V9ZM6 23.0009C6 22.4486 6.44772 22.0009 7 22.0009H13.5419C14.4625 22.0009 15.3321 21.5782 15.9008 20.8544L17.0561 19.3841C17.2457 19.1428 17.5356 19.0019 17.8425 19.002L31.324 19.0043C31.8874 19.0044 32.14 19.7106 31.7046 20.068L25.0325 25.5457C24.9878 25.5824 24.9416 25.617 24.8942 25.6495C24.5624 25.877 24.1684 25.9999 23.7634 25.9999L7 25.9999C6.44772 25.9999 6 25.5522 6 24.9999V23.0009Z" fill="black"/>
</svg>
