<svg width="36" height="36" viewBox="0 0 36 36" fill="none" xmlns="http://www.w3.org/2000/svg">
<path fill-rule="evenodd" clip-rule="evenodd" d="M18 36C27.9411 36 36 27.9411 36 18C36 8.05887 27.9411 0 18 0C8.05887 0 0 8.05887 0 18C0 27.9411 8.05887 36 18 36ZM7 9C7 8.44771 7.44772 8 8 8H28C28.5523 8 29 8.44771 29 9C29 9.55228 28.5523 10 28 10H8C7.44772 10 7 9.55228 7 9ZM11 28V12H25V28C25 28.5523 24.5523 29 24 29H12C11.4477 29 11 28.5523 11 28ZM18 16C16.8954 16 16 16.8954 16 18C16 19.1046 16.8954 20 18 20C19.1046 20 20 19.1046 20 18C20 16.8954 19.1046 16 18 16ZM14 18C14 15.7909 15.7909 14 18 14C20.2091 14 22 15.7909 22 18C22 20.2091 20.2091 22 18 22C15.7909 22 14 20.2091 14 18ZM17 24C16.4477 24 16 24.4477 16 25C16 25.5523 16.4477 26 17 26H19C19.5523 26 20 25.5523 20 25C20 24.4477 19.5523 24 19 24H17Z" fill="black"/>
</svg>
