<svg width="36" height="36" viewBox="0 0 36 36" fill="none" xmlns="http://www.w3.org/2000/svg">
<path fill-rule="evenodd" clip-rule="evenodd" d="M18 36C27.9411 36 36 27.9411 36 18C36 8.05887 27.9411 0 18 0C8.05887 0 0 8.05887 0 18C0 27.9411 8.05887 36 18 36ZM14.1181 8C13.3605 8 12.668 8.428 12.3292 9.10557L10.882 12H10C9.44771 12 9 12.4477 9 13C9 13.5523 9.44771 14 10 14H26C26.5523 14 27 13.5523 27 13C27 12.4477 26.5523 12 26 12H25.1181L23.6709 9.10557C23.3321 8.428 22.6395 8 21.882 8H14.1181ZM25.1456 16H10.8544L12.3912 27.2702C12.5264 28.2612 13.3727 29 14.3729 29H21.6271C22.6272 29 23.4736 28.2612 23.6088 27.2702L25.1456 16Z" fill="black"/>
</svg>
