<svg width="36" height="36" viewBox="0 0 36 36" fill="none" xmlns="http://www.w3.org/2000/svg">
<path fill-rule="evenodd" clip-rule="evenodd" d="M18 36C8.05887 36 0 27.9411 0 18C0 8.05887 8.05887 0 18 0C27.9411 0 36 8.05887 36 18C36 27.9411 27.9411 36 18 36ZM11 10C10.4477 10 10 10.4477 10 11V16.2223V16.9999C10 17.0283 10.0012 17.0564 10.0035 17.0841C10.0443 21.9311 10.4432 23.5181 11.2 24.7247C11.84 25.7449 12.8 26 14 26V25.9998H19V26C20.2 26 21.16 25.7449 21.8 24.7247C22.0911 24.2606 22.3292 23.7404 22.5143 23H23C26.3137 23 29 20.3137 29 17V15.5C29 13.567 27.433 12 25.5 12H23V11C23 10.4477 22.5523 10 22 10H11ZM23 21H22.8317C22.9277 19.9943 22.9827 18.7263 22.9965 17.0841C22.9988 17.0564 23 17.0283 23 16.9999V16.2223V14H25.5C26.3284 14 27 14.6716 27 15.5V17C27 19.2091 25.2091 21 23 21Z" fill="black"/>
</svg>
