<svg width="36" height="36" viewBox="0 0 36 36" fill="none" xmlns="http://www.w3.org/2000/svg">
<path fill-rule="evenodd" clip-rule="evenodd" d="M18 36C27.9412 36 36 27.9412 36 18C36 8.05884 27.9412 0 18 0C8.05884 0 0 8.05884 0 18C0 27.9412 8.05884 36 18 36ZM21.6499 7C21.7786 7 21.9136 7.00806 22.0508 7.02637C22.2034 7.04688 22.3584 7.07983 22.5103 7.12842C22.6187 7.16309 22.7253 7.20557 22.8284 7.25696L30.1389 10.9124C30.4824 11.084 30.9946 11.4821 30.9946 12.1724C30.9946 12.8613 30.4841 13.2593 30.1409 13.4314L30.1389 13.4323L26.6899 15.173C26.4077 15.3153 26.0747 15.316 25.7922 15.1747L17.0032 10.7802C16.6643 10.6107 16.4504 10.2645 16.4504 9.88574C16.4504 9.50696 16.6643 9.16064 17.0032 8.99133L20.4717 7.25696C20.8489 7.06848 21.2766 7 21.6499 7ZM9.6897 12.6481C9.97461 12.5055 10.3103 12.5074 10.5938 12.653L17.509 16.2061L19.2197 17.0684C19.5562 17.2379 19.7688 17.5822 19.7695 17.9589C19.7705 18.3357 19.5596 18.6809 19.2241 18.8521L15.5176 20.743C15.1406 20.9315 14.7126 21 14.3394 21C13.9658 21 13.5381 20.9315 13.1609 20.743L5.85034 17.0876C5.50684 16.916 4.99463 16.5179 4.99463 15.8276C4.99463 15.1375 5.50684 14.7394 5.85034 14.5677L9.6897 12.6481ZM30.8972 15.9146C31.1409 16.4103 30.9365 17.0095 30.4407 17.2531L26.4746 19.2018C25.979 19.4453 25.3796 19.2408 25.1362 18.7452C24.8926 18.2495 25.0972 17.6503 25.5928 17.4067L29.5588 15.458C30.0544 15.2145 30.6538 15.4189 30.8972 15.9146ZM6.45239 19.1077C5.95972 18.8584 5.35815 19.0557 5.10864 19.5485C4.85938 20.0413 5.05664 20.6428 5.54932 20.8922L13.1567 24.7418L13.1609 24.744C13.5381 24.9325 13.9658 25.001 14.3394 25.001C14.7126 25.001 15.1404 24.9325 15.5176 24.744L20.4829 22.2095C20.9746 21.9584 21.1699 21.3561 20.9187 20.8641C20.6677 20.3722 20.0654 20.177 19.5735 20.4281L14.6213 22.9559C14.5923 22.9697 14.4919 23.001 14.3394 23.001C14.2698 23.001 14.2112 22.9945 14.165 22.9861C14.1394 22.9814 14.1177 22.9762 14.1001 22.9712L14.0815 22.9653L14.0686 22.9608L14.0554 22.9551L6.45239 19.1077ZM30.439 21.0811C30.9351 20.8385 31.1409 20.2396 30.8982 19.7435C30.6555 19.2473 30.0566 19.0417 29.5605 19.2843L25.5791 21.2308C25.083 21.4735 24.8774 22.0723 25.1199 22.5685C25.3625 23.0647 25.9614 23.2703 26.4575 23.0276L30.439 21.0811ZM5.10132 23.337C5.35229 22.8451 5.95459 22.6497 6.44653 22.9006L14.0569 26.7831C14.0859 26.7969 14.1865 26.8281 14.3394 26.8281C14.4246 26.8281 14.4937 26.8184 14.543 26.8074C14.5815 26.7987 14.6082 26.7893 14.6211 26.7832L19.5566 24.2539C20.0481 24.002 20.6509 24.1963 20.9026 24.6877C21.1545 25.1792 20.9604 25.7819 20.4688 26.0338L15.5176 28.5712C15.4124 28.6239 15.303 28.6672 15.1919 28.7023C15.0859 28.7357 14.9783 28.7617 14.8708 28.7811C14.7952 28.7948 14.7197 28.8052 14.6453 28.8127C14.5408 28.8234 14.4382 28.8281 14.3394 28.8281C14.1833 28.8281 14.0181 28.8162 13.8508 28.7886C13.6177 28.7501 13.3806 28.681 13.1609 28.5712L13.1538 28.5675L5.53784 24.6823C5.04565 24.4313 4.85034 23.829 5.10132 23.337ZM12.969 11.2734C13.2192 10.7811 13.821 10.5848 14.3135 10.835L22.356 14.9207C22.3962 14.9413 22.4358 14.9626 22.4749 14.9849L23.4456 15.4784C23.7808 15.6488 23.9919 15.9927 23.9924 16.3687L24.0007 23.4988C24.0012 24.0511 23.5542 24.4993 23.0017 24.5C22.4495 24.5006 22.0012 24.0535 22.0007 23.5011L21.999 22.1179C21.9944 22.0791 21.9922 22.0397 21.9922 21.9996V17.5928C21.9922 17.2435 21.8101 16.9216 21.5156 16.7408L13.4075 12.618C12.9153 12.3678 12.7188 11.7657 12.969 11.2734Z" fill="black"/>
</svg>
