<svg width="36" height="36" viewBox="0 0 36 36" fill="none" xmlns="http://www.w3.org/2000/svg">
<path fill-rule="evenodd" clip-rule="evenodd" d="M36 18C36 8.05884 27.9412 0 18 0C8.05884 0 0 8.05884 0 18C0 27.9412 8.05884 36 18 36C27.9412 36 36 27.9412 36 18ZM7.5 11C6.67163 11 6 11.6716 6 12.5V16H5C4.44775 16 4 16.4478 4 17V19C4 19.5522 4.44775 20 5 20H6V23.5C6 24.3284 6.67163 25 7.5 25C8.32837 25 9 24.3284 9 23.5V12.5C9 11.6716 8.32837 11 7.5 11ZM31 16C31.5522 16 32 16.4478 32 17V19C32 19.5522 31.5522 20 31 20H30V16H31ZM22 23.5V20H14V16H22V12.5C22 11.6716 22.6716 11 23.5 11C24.3284 11 25 11.6716 25 12.5V23.5C25 24.3284 24.3284 25 23.5 25C22.6716 25 22 24.3284 22 23.5ZM27.5 11C26.6716 11 26 11.6716 26 12.5V23.5C26 24.3284 26.6716 25 27.5 25C28.3284 25 29 24.3284 29 23.5V12.5C29 11.6716 28.3284 11 27.5 11ZM10 12.5C10 11.6716 10.6716 11 11.5 11C12.3284 11 13 11.6716 13 12.5V23.5C13 24.3284 12.3284 25 11.5 25C10.6716 25 10 24.3284 10 23.5V12.5Z" fill="black"/>
</svg>
