<svg width="36" height="36" viewBox="0 0 36 36" fill="none" xmlns="http://www.w3.org/2000/svg">
<path fill-rule="evenodd" clip-rule="evenodd" d="M18 36C27.9411 36 36 27.9411 36 18C36 8.05887 27.9411 0 18 0C8.05887 0 0 8.05887 0 18C0 27.9411 8.05887 36 18 36ZM6.37746 19.8039C5.89936 19.9426 5.44025 20 5 20C4.44772 20 4 19.5523 4 19C4 18.4477 4.44772 18 5 18C5.69394 18 6.67898 17.7671 8.00928 16.4446L10.3307 14.137C10.6816 13.7881 11.2693 13.2803 11.9327 12.8521C12.5564 12.4495 13.4225 12 14.2857 12C15.1696 12 15.8068 12.3097 16.2797 12.5396C16.3212 12.5598 16.3615 12.5793 16.4005 12.598C16.8663 12.8209 17.2884 13 18 13C18.6766 13 18.9679 12.8431 19.3686 12.6273L19.383 12.6195C19.9035 12.3393 20.5419 12 21.7143 12C23.5258 12 24.7338 13.2037 25.9808 14.4463L26.1336 14.5985L27.9907 16.4446C28.1965 16.6493 28.7735 17.0562 29.468 17.424C29.8023 17.601 30.1332 17.7525 30.424 17.8573C30.7335 17.9689 30.9229 18 31 18C31.5523 18 32 18.4477 32 19C32 19.5523 31.5523 20 31 20C30.5771 20 30.1296 19.8772 29.7457 19.7388C29.7176 19.7287 29.6895 19.7184 29.6614 19.7078C29.1296 21.0549 27.9432 22.7544 25.68 23.4968C23.76 24.1266 22.1583 24.0807 20.832 23.8166L20.8319 23.8165C20.0694 23.6647 19.2266 23.4968 18 23.4968C16.7734 23.4968 15.9306 23.6647 15.1681 23.8165L15.168 23.8166C13.8417 24.0807 12.24 24.1266 10.32 23.4968C8.11031 22.772 6.92713 21.1347 6.37746 19.8039ZM13.6698 19.9081C13.1648 20.1608 12.4869 20.5 11.5 20.5C10.9477 20.5 10.5 20.0523 10.5 19.5C10.5 18.9477 10.9477 18.5 11.5 18.5C11.9952 18.5 12.3106 18.3517 12.8028 18.1056L12.8302 18.0919C13.3352 17.8392 14.0131 17.5 15 17.5C16.0506 17.5 16.6299 17.8847 17.0547 18.1679L17.0594 18.1711C17.3816 18.3859 17.5528 18.5 18 18.5C18.4472 18.5 18.6184 18.3859 18.9406 18.1711L18.9453 18.1679C19.3701 17.8847 19.9494 17.5 21 17.5C21.9687 17.5 22.5419 17.8323 22.9632 18.0767C22.9959 18.0956 23.0277 18.1141 23.0586 18.1318C23.3951 18.324 23.7238 18.5 24.5 18.5C25.0523 18.5 25.5 18.9477 25.5 19.5C25.5 20.0523 25.0523 20.5 24.5 20.5C23.2762 20.5 22.6049 20.176 22.0664 19.8682L21.9797 19.8186C21.5979 19.5992 21.4253 19.5 21 19.5C20.5528 19.5 20.3816 19.6141 20.0594 19.8289L20.0547 19.8321C19.6299 20.1153 19.0506 20.5 18 20.5C16.9494 20.5 16.3701 20.1153 15.9453 19.8321L15.9406 19.8289C15.6184 19.6141 15.4472 19.5 15 19.5C14.5048 19.5 14.1894 19.6483 13.6972 19.8944L13.6698 19.9081Z" fill="black"/>
</svg>
