<svg width="36" height="36" viewBox="0 0 36 36" fill="none" xmlns="http://www.w3.org/2000/svg">
<path fill-rule="evenodd" clip-rule="evenodd" d="M36 18C36 27.9411 27.9411 36 18 36C8.05887 36 0 27.9411 0 18C0 8.05887 8.05887 0 18 0C27.9411 0 36 8.05887 36 18ZM20.0032 10.7713C20.3982 9.92487 21.6018 9.92487 21.9968 10.7713L28.9062 25.5771C29.1397 26.0776 28.9234 26.6726 28.4229 26.9062C27.9224 27.1397 27.3274 26.9234 27.0938 26.4229L25.9631 24H16.0369L14.9062 26.4229C14.6726 26.9234 14.0776 27.1397 13.5771 26.9062C13.0766 26.6726 12.8603 26.0776 13.0938 25.5771L20.0032 10.7713ZM25.0298 22L21 13.3647L16.9702 22H25.0298ZM11.6483 16.75L12.3106 18.2955C12.4738 18.6762 12.9147 18.8525 13.2954 18.6894C13.6762 18.5262 13.8525 18.0853 13.6894 17.7046L10.7813 10.919C10.4869 10.2321 9.5131 10.2321 9.21872 10.919L6.31064 17.7046C6.14747 18.0853 6.32383 18.5262 6.70455 18.6894C7.08528 18.8525 7.52619 18.6762 7.68935 18.2955L8.35169 16.75H11.6483ZM11.0054 15.25L9.99999 12.904L8.99455 15.25H11.0054Z" fill="black"/>
</svg>
