<svg width="36" height="36" viewBox="0 0 36 36" fill="none" xmlns="http://www.w3.org/2000/svg">
<path fill-rule="evenodd" clip-rule="evenodd" d="M18 36C27.9411 36 36 27.9411 36 18C36 8.05887 27.9411 0 18 0C8.05887 0 0 8.05887 0 18C0 27.9411 8.05887 36 18 36ZM9 8C9.55228 8 10 8.44771 10 9V25H28C28.5523 25 29 25.4477 29 26C29 26.5523 28.5523 27 28 27H9.1C8.49248 27 8 26.5075 8 25.9V9C8 8.44771 8.44771 8 9 8ZM14.1582 18.4882L11.5507 22.2133C11.3187 22.5447 11.5558 23 11.9603 23H26.5C26.7761 23 27 22.7761 27 22.5V9.69312C27 9.19486 26.3509 9.00317 26.0802 9.42149L21.836 15.9807C21.6631 16.248 21.2877 16.2878 21.0627 16.0627L19.9214 14.9214C19.7016 14.7016 19.3365 14.7335 19.1582 14.9882L16.3418 19.0118C16.1635 19.2665 15.7984 19.2984 15.5786 19.0786L14.9214 18.4214C14.7016 18.2016 14.3365 18.2335 14.1582 18.4882Z" fill="black"/>
</svg>
