<svg width="36" height="36" viewBox="0 0 36 36" fill="none" xmlns="http://www.w3.org/2000/svg">
<path fill-rule="evenodd" clip-rule="evenodd" d="M18 36C27.9411 36 36 27.9411 36 18C36 8.05887 27.9411 0 18 0C8.05887 0 0 8.05887 0 18C0 27.9411 8.05887 36 18 36ZM8.83333 19.9091C7.69925 18.7613 7 17.0975 7 15.3636C7 11.8491 9.87284 9 13.4167 9C15.2121 9 16.8354 9.73133 18 10.91C19.1646 9.73133 20.7879 9 22.5833 9C26.1272 9 29 11.8491 29 15.3636C29 17.1443 28.3552 18.7541 27.1667 19.9091L18.845 28.162C18.3772 28.6259 17.6228 28.6259 17.155 28.162L8.91742 19.9925C8.88914 19.965 8.8611 19.9372 8.83333 19.9091ZM24.2929 17.2929C24.6834 16.9024 25.3166 16.9024 25.7071 17.2929C26.0976 17.6834 26.0976 18.3166 25.7071 18.7071L21.7071 22.7071C21.3166 23.0976 20.6834 23.0976 20.2929 22.7071C19.9024 22.3166 19.9024 21.6834 20.2929 21.2929L24.2929 17.2929Z" fill="black"/>
</svg>
