<svg width="36" height="36" viewBox="0 0 36 36" fill="none" xmlns="http://www.w3.org/2000/svg">
<path fill-rule="evenodd" clip-rule="evenodd" d="M18 36C27.9411 36 36 27.9411 36 18C36 8.05887 27.9411 0 18 0C8.05887 0 0 8.05887 0 18C0 27.9411 8.05887 36 18 36ZM13 7C13 6.44772 13.4477 6 14 6H22C22.5523 6 23 6.44772 23 7C23 7.55228 22.5523 8 22 8H14C13.4477 8 13 7.55228 13 7ZM11 13C11 11.3431 12.3431 10 14 10H22C23.6569 10 25 11.3431 25 13V23C25 24.6569 23.6569 26 22 26H14C12.3431 26 11 24.6569 11 23V13ZM14 28C13.4477 28 13 28.4477 13 29C13 29.5523 13.4477 30 14 30H22C22.5523 30 23 29.5523 23 29C23 28.4477 22.5523 28 22 28H14ZM18.5 14C19.0523 14 19.5 14.4477 19.5 15V19.4C19.5 20.0075 19.0075 20.5 18.4 20.5H15.5C14.9477 20.5 14.5 20.0523 14.5 19.5C14.5 18.9477 14.9477 18.5 15.5 18.5H17.5V15C17.5 14.4477 17.9477 14 18.5 14Z" fill="black"/>
</svg>
