<svg width="36" height="36" viewBox="0 0 36 36" fill="none" xmlns="http://www.w3.org/2000/svg">
<path fill-rule="evenodd" clip-rule="evenodd" d="M18 36C27.9411 36 36 27.9411 36 18C36 8.05887 27.9411 0 18 0C8.05887 0 0 8.05887 0 18C0 27.9411 8.05887 36 18 36ZM23.6197 10.2151C23.1862 9.87288 22.5573 9.94686 22.2151 10.3803C21.8729 10.8138 21.9469 11.4426 22.3804 11.7849C22.9438 12.2297 23 12.6342 23 12.7647V24.2353C23 24.4147 22.9337 24.5934 22.8054 24.7768C22.6748 24.9637 22.5073 25.1149 22.3804 25.2151C21.9469 25.5573 21.8729 26.1861 22.2151 26.6196C22.5573 27.0531 23.1862 27.1271 23.6197 26.7849C23.979 26.5012 25 25.6196 25 24.2353V12.7647C25 12.0128 24.6562 11.0334 23.6197 10.2151ZM8.75 11.619C7.00006 11.9428 7.00002 13.238 7 14.0475V22.9525C7.00002 23.762 7.00006 25.0572 8.75 25.381C10.5 25.7048 15.8958 26.5952 18.375 27C19.25 27 21 26.3524 21 23.7619V13.2381C21 10.6476 19.25 10 18.375 10C15.8958 10.4048 10.5 11.2952 8.75 11.619ZM26.2056 11.3925C26.5411 10.9538 27.1687 10.8701 27.6074 11.2056C28.6536 12.0056 29 12.9869 29 13.7333V23.2667C29 24.6422 27.9711 25.5162 27.6074 25.7943C27.1687 26.1298 26.5411 26.0462 26.2056 25.6074C25.8701 25.1687 25.9538 24.5411 26.3925 24.2056C26.5145 24.1124 26.6805 23.9655 26.8099 23.7834C26.937 23.6045 27 23.4338 27 23.2667V13.7333C27 13.6131 26.9464 13.2179 26.3925 12.7943C25.9538 12.4589 25.8701 11.8313 26.2056 11.3925Z" fill="black"/>
</svg>
