<svg width="36" height="36" viewBox="0 0 36 36" fill="none" xmlns="http://www.w3.org/2000/svg">
<path fill-rule="evenodd" clip-rule="evenodd" d="M18 36C27.9411 36 36 27.9411 36 18C36 8.05887 27.9411 0 18 0C8.05887 0 0 8.05887 0 18C0 27.9411 8.05887 36 18 36ZM9 9C8.44772 9 8 9.44772 8 10V12C8 12.5523 8.44771 13 9 13H11V19C11 22.3137 13.6863 25 17 25H23V27C23 27.5523 23.4477 28 24 28H26C26.5523 28 27 27.5523 27 27V17C27 16.4477 26.5523 16 26 16H24C23.4477 16 23 16.4477 23 17V19H17.5C17.2239 19 17 18.7761 17 18.5V13H19C19.5523 13 20 12.5523 20 12V10C20 9.44772 19.5523 9 19 9H9ZM13.5 19C14.3284 19 15 18.3284 15 17.5C15 16.6716 14.3284 16 13.5 16C12.6716 16 12 16.6716 12 17.5C12 18.3284 12.6716 19 13.5 19ZM17 21.5C17 22.3284 16.3284 23 15.5 23C14.6716 23 14 22.3284 14 21.5C14 20.6716 14.6716 20 15.5 20C16.3284 20 17 20.6716 17 21.5Z" fill="black"/>
</svg>
