<svg width="36" height="36" viewBox="0 0 36 36" fill="none" xmlns="http://www.w3.org/2000/svg">
<path fill-rule="evenodd" clip-rule="evenodd" d="M18 36C27.9411 36 36 27.9411 36 18C36 8.05887 27.9411 0 18 0C8.05887 0 0 8.05887 0 18C0 27.9411 8.05887 36 18 36ZM9.1 8C8.49249 8 8 8.49249 8 9.1V14C8 14.5523 8.44771 15 9 15C9.55228 15 10 14.5523 10 14V10H14C14.5523 10 15 9.55228 15 9C15 8.44771 14.5523 8 14 8H9.1ZM12 15C12 14.4477 12.4477 14 13 14H23C23.5523 14 24 14.4477 24 15V16H12V15ZM12 21V18H24V21C24 21.5523 23.5523 22 23 22H13C12.4477 22 12 21.5523 12 21ZM28 9.1C28 8.49249 27.5075 8 26.9 8H22C21.4477 8 21 8.44771 21 9C21 9.55228 21.4477 10 22 10H26V14C26 14.5523 26.4477 15 27 15C27.5523 15 28 14.5523 28 14V9.1ZM28 22C28 21.4477 27.5523 21 27 21C26.4477 21 26 21.4477 26 22V26H22C21.4477 26 21 26.4477 21 27C21 27.5523 21.4477 28 22 28H26.9C27.5075 28 28 27.5075 28 26.9V22ZM9 21C8.44772 21 8 21.4477 8 22V26.9C8 27.5075 8.49249 28 9.1 28H14C14.5523 28 15 27.5523 15 27C15 26.4477 14.5523 26 14 26H10V22C10 21.4477 9.55228 21 9 21Z" fill="black"/>
</svg>
