<svg width="36" height="36" viewBox="0 0 36 36" fill="none" xmlns="http://www.w3.org/2000/svg">
<path d="M11 19C10.4478 19 10 18.5523 10 18C10 17.024 10.351 16.0556 10.937 15.3187C11.5245 14.5798 12.4154 14 13.5 14C14.0522 14 14.5 14.4477 14.5 15C14.5 15.5523 14.0522 16 13.5 16C13.1704 16 12.8113 16.175 12.5024 16.5634C12.1919 16.9539 12 17.4855 12 18C12 18.5523 11.5522 19 11 19Z" fill="black"/>
<path fill-rule="evenodd" clip-rule="evenodd" d="M18 36C27.9412 36 36 27.9411 36 18C36 8.0589 27.9412 0 18 0C8.05884 0 0 8.0589 0 18C0 27.9411 8.05884 36 18 36ZM19.5145 5.14252C19.988 5.4267 20.1416 6.04095 19.8575 6.51453C19.8137 6.5874 19.7717 6.65424 19.7312 6.71875L19.7286 6.72278C19.579 6.96045 19.448 7.16846 19.3192 7.53772C19.1564 8.00439 19 8.74927 19 10C19 10.5523 18.5522 11 18 11C17.4478 11 17 10.5523 17 10C17 8.58411 17.1769 7.60681 17.4308 6.87897C17.6421 6.27338 17.9094 5.85358 18.0656 5.6084C18.0958 5.56085 18.1218 5.51996 18.1425 5.48553C18.4266 5.01196 19.0409 4.8584 19.5145 5.14252ZM16.0028 9.92749C15.9856 10.3809 15.5791 10.7054 15.1302 10.6389C14.3459 10.5228 13.5575 10.2061 12.8516 9.68164C11.5049 8.6814 10.7947 7.17572 10.8488 5.75415C10.866 5.30078 11.2725 4.97626 11.7213 5.04266C12.5056 5.15881 13.2941 5.47559 14 6C15.3467 7.00024 16.0569 8.50592 16.0028 9.92749ZM25.3246 25.8165C26.3472 24.4899 27.1327 22.8128 27.5797 21.1103C28.025 19.4146 28.1552 17.613 27.7809 16.0486C27.4009 14.4606 26.476 13.0538 24.8022 12.3907C23.1772 11.7468 21.0571 11.8913 18.4493 12.878C18.1642 12.9859 17.8358 12.9859 17.5508 12.878C14.9429 11.8913 12.8228 11.7468 11.1978 12.3907C9.52405 13.0538 8.59912 14.4607 8.21912 16.0486C7.84485 17.613 7.97498 19.4146 8.42029 21.1104C8.86731 22.8129 9.65283 24.4899 10.6754 25.8165C11.6486 27.079 12.8053 27.7298 13.9957 27.9309C15.1593 28.1275 16.2642 27.88 17.1506 27.5131C17.6865 27.2912 18.3136 27.2912 18.8495 27.5131C19.7358 27.88 20.8407 28.1275 22.0043 27.9309C23.1947 27.7298 24.3516 27.0789 25.3246 25.8165Z" fill="black"/>
</svg>
