<svg width="36" height="36" viewBox="0 0 36 36" fill="none" xmlns="http://www.w3.org/2000/svg">
<path fill-rule="evenodd" clip-rule="evenodd" d="M18 36C27.9411 36 36 27.9411 36 18C36 8.05887 27.9411 0 18 0C8.05887 0 0 8.05887 0 18C0 27.9411 8.05887 36 18 36ZM23.9477 12H20V17.5713H26.6765L23.9477 12ZM18 11.5V17.5713H16V15.9647C16 15.1933 15.5563 14.4907 14.8599 14.159L8.42992 11.0971C7.93129 10.8597 7.33457 11.0714 7.09713 11.5701C6.85968 12.0687 7.07142 12.6654 7.57006 12.9029L14 15.9647V17.5713H7.99999C7.4477 17.5713 6.99999 18.019 6.99999 18.5713V22.5713C6.99999 23.1236 7.4477 23.5713 7.99999 23.5713H9.0007C9.03868 25.4714 10.5908 27 12.5 27C14.4092 27 15.9613 25.4714 15.9993 23.5713H21.0007C21.0387 25.4714 22.5908 27 24.5 27C26.4092 27 27.9613 25.4714 27.9993 23.5713H29.5001C30.3285 23.5713 31.0001 22.8997 31.0001 22.0713V19.0713C31.0001 18.2429 30.3285 17.5713 29.5001 17.5713H28.9034L28.8981 17.5601L25.7438 11.1203C25.408 10.4346 24.7112 10 23.9477 10H19.5C18.6716 10 18 10.6716 18 11.5ZM26 23.5C26 24.3284 25.3284 25 24.5 25C23.6716 25 23 24.3284 23 23.5C23 22.6716 23.6716 22 24.5 22C25.3284 22 26 22.6716 26 23.5ZM12.5 25C13.3284 25 14 24.3284 14 23.5C14 22.6716 13.3284 22 12.5 22C11.6716 22 11 22.6716 11 23.5C11 24.3284 11.6716 25 12.5 25Z" fill="black"/>
</svg>
