<svg width="36" height="36" viewBox="0 0 36 36" fill="none" xmlns="http://www.w3.org/2000/svg">
<path fill-rule="evenodd" clip-rule="evenodd" d="M18 36C27.9411 36 36 27.9411 36 18C36 8.05887 27.9411 0 18 0C8.05887 0 0 8.05887 0 18C0 27.9411 8.05887 36 18 36ZM23.5002 6.5C22.948 6.5 22.5002 6.94772 22.5002 7.5C22.5002 8.05228 22.948 8.5 23.5002 8.5C25.4558 8.5 27.5002 10.2404 27.5002 12.5C27.5002 13.0523 27.948 13.5 28.5002 13.5C29.0525 13.5 29.5002 13.0523 29.5002 12.5C29.5002 9.03229 26.4538 6.5 23.5002 6.5ZM20.9999 11.0001C20.9999 12.1604 21.7173 13.1413 22.7028 13.4613C23.0015 14.5172 23.9169 15.2858 24.9999 15.2858L25 21.2857C25 22.2325 24.2837 23 23.4 23H10.6C9.71634 23 9 22.2325 9 21.2857V12.7143C9 11.7675 9.71634 11 10.6 11L20.9999 11.0001ZM7 26C7 25.4477 7.44772 25 8 25H26C26.5523 25 27 25.4477 27 26C27 26.5523 26.5523 27 26 27H8C7.44772 27 7 26.5523 7 26ZM22.5 11C22.5 10.4477 22.9477 10 23.5 10C24.1159 10 24.7478 10.1963 25.2359 10.6477C25.7364 11.1107 26 11.7636 26 12.5C26 13.0523 25.5523 13.5 25 13.5C24.4477 13.5 24 13.0523 24 12.5C24 12.2546 23.9227 12.1575 23.8778 12.1159C23.8204 12.0628 23.7023 12 23.5 12C22.9477 12 22.5 11.5523 22.5 11Z" fill="black"/>
</svg>
