<svg width="36" height="36" viewBox="0 0 36 36" fill="none" xmlns="http://www.w3.org/2000/svg">
<path d="M16.4702 24.7462L17.563 26.7133C17.7534 27.0562 18.2466 27.0562 18.437 26.7133L19.5298 24.7462L18.2561 20.5H17.7441L16.4702 24.7462Z" fill="black"/>
<path fill-rule="evenodd" clip-rule="evenodd" d="M18 36C27.9412 36 36 27.9412 36 18C36 8.05884 27.9412 0 18 0C8.05884 0 0 8.05884 0 18C0 27.9412 8.05884 36 18 36ZM12.3755 9.96106C12.8992 8.43738 13.8638 7.39392 14.5632 6.89331C15.3384 6.33838 16.1606 6.77063 16.5117 7.1908C16.7327 7.45532 16.9893 7.62793 17.5093 7.78149C17.8003 7.86743 18.1462 7.93994 18.5818 8.01453C19.0068 8.0874 19.5171 8.16235 20.144 8.25366C21.5603 8.46008 22.5654 9.25415 23.1833 10.1021C23.2917 10.2506 23.3892 10.4021 23.4761 10.5546C25.1667 7.10925 22.8174 3.4126 19.5 2.99976C17.3589 2.7334 16.45 3.88989 16.0378 4.44836C16.0146 4.47974 15.9753 4.49463 15.937 4.48767C13.99 4.13171 12 5.66748 12 7.99976C12 8.44434 12.0525 8.85388 12.1411 9.22778C12.2034 9.48987 12.2832 9.73438 12.3755 9.96106ZM22 12.2217V12.9999C22 15.209 20.2092 16.9999 18 16.9999C15.7908 16.9999 14 15.209 14 12.9999V12.2433C14 10.6134 14.7437 9.45911 15.3425 8.85339C15.7952 9.25964 16.3181 9.51501 16.9426 9.69958C17.6707 9.91467 18.6045 10.0505 19.7729 10.2207L19.856 10.2328C20.6426 10.3474 21.2031 10.7805 21.5671 11.28C21.7507 11.532 21.8748 11.7893 21.9451 12.006C21.9744 12.0959 21.9907 12.168 22 12.2217ZM12.5 18.5C9.73853 18.5 7.5 20.7385 7.5 23.5V28C7.5 28.8284 8.17163 29.5 9 29.5H27C27.8284 29.5 28.5 28.8284 28.5 28V23.5C28.5 20.7385 26.2615 18.5 23.5 18.5H23.2942C23.1125 18.5 22.9453 18.5984 22.8572 18.7571L20.8857 22.3055L19.9792 19.2838C19.8396 18.8186 19.4114 18.5 18.9255 18.5H17.0745C16.5886 18.5 16.1604 18.8186 16.0208 19.2838L15.1143 22.3057L13.1428 18.7571C13.0547 18.5984 12.8875 18.5 12.7058 18.5H12.5Z" fill="black"/>
</svg>
