<svg width="36" height="36" viewBox="0 0 36 36" fill="none" xmlns="http://www.w3.org/2000/svg">
<path fill-rule="evenodd" clip-rule="evenodd" d="M18 36C27.9411 36 36 27.9411 36 18C36 8.05887 27.9411 0 18 0C8.05887 0 0 8.05887 0 18C0 27.9411 8.05887 36 18 36ZM9 8C9 7.44772 9.44772 7 10 7H26C26.5523 7 27 7.44772 27 8V28C27 28.5523 26.5523 29 26 29H10C9.44772 29 9 28.5523 9 28V8ZM16 14.5V20.75C16 21.8545 15.1046 22.75 14 22.75C12.8954 22.75 12 21.8545 12 20.75C12 19.6455 12.8954 18.75 14 18.75C14.1726 18.75 14.3402 18.772 14.5 18.813V13.8501C14.5 13.3804 14.8806 13 15.35 13H22.15C22.6194 13 23 13.3804 23 13.8501V20.75C23 21.8545 22.1046 22.75 21 22.75C19.8954 22.75 19 21.8545 19 20.75C19 19.6455 19.8954 18.75 21 18.75C21.1726 18.75 21.3402 18.772 21.5 18.813V14.5H16Z" fill="black"/>
</svg>
