<svg width="36" height="36" viewBox="0 0 36 36" fill="none" xmlns="http://www.w3.org/2000/svg">
<path fill-rule="evenodd" clip-rule="evenodd" d="M18 36C27.9411 36 36 27.9411 36 18C36 8.05887 27.9411 0 18 0C8.05887 0 0 8.05887 0 18C0 27.9411 8.05887 36 18 36ZM23.5 11.4286C23.5 11.7553 23.4708 12.0752 23.4147 12.386C26.5658 12.7884 29 15.4469 29 18.6667C29 22.1645 26.1272 25 22.5833 25C21.2563 25 20.0233 24.6024 19 23.9212V21.501V21.499V20.5L22.6001 17.8C23.0419 17.4686 23.1314 16.8418 22.8001 16.4C22.4687 15.9582 21.8419 15.8686 21.4001 16.2L19 18V15C19 14.4477 18.5523 14 18 14C17.4477 14 17 14.4477 17 15V19.0858L15.7071 17.7929C15.3166 17.4024 14.6834 17.4024 14.2929 17.7929C13.9024 18.1834 13.9024 18.8166 14.2929 19.2071L17 21.9142V23.9212C15.9767 24.6024 14.7437 25 13.4167 25C9.87284 25 7 22.1645 7 18.6667C7 15.4469 9.4342 12.7884 12.5853 12.386C12.5292 12.0752 12.5 11.7553 12.5 11.4286C12.5 8.43045 14.9624 6 18 6C21.0376 6 23.5 8.43045 23.5 11.4286ZM18 25.5C18.5523 25.5 19 25.9477 19 26.5V29C19 29.5523 18.5523 30 18 30C17.4477 30 17 29.5523 17 29V26.5C17 25.9477 17.4477 25.5 18 25.5Z" fill="black"/>
</svg>
