<svg width="36" height="36" viewBox="0 0 36 36" fill="none" xmlns="http://www.w3.org/2000/svg">
<path fill-rule="evenodd" clip-rule="evenodd" d="M18 36C27.9411 36 36 27.9411 36 18C36 8.05887 27.9411 0 18 0C8.05887 0 0 8.05887 0 18C0 27.9411 8.05887 36 18 36ZM13 13C13 10.2386 15.2386 8 18 8C20.7614 8 23 10.2386 23 13V17C23 19.7614 20.7614 22 18 22C15.2386 22 13 19.7614 13 17V13ZM10.9538 19.6995C10.7878 19.1728 10.2263 18.8803 9.69952 19.0462C9.17276 19.2122 8.88028 19.7738 9.04624 20.3005C10.1385 23.7672 13.179 26.5309 17 26.9461V29.5C17 30.0523 17.4477 30.5 18 30.5C18.5523 30.5 19 30.0523 19 29.5V26.9461C22.8211 26.5311 25.8616 23.7673 26.9538 20.3005C27.1198 19.7738 26.8273 19.2122 26.3005 19.0462C25.7738 18.8803 25.2122 19.1728 25.0462 19.6995C24.0971 22.7121 21.3316 24.9972 18.0064 25L18 25L17.9936 25C14.6686 24.997 11.9029 22.712 10.9538 19.6995Z" fill="black"/>
</svg>
