<svg width="36" height="36" viewBox="0 0 36 36" fill="none" xmlns="http://www.w3.org/2000/svg">
<path fill-rule="evenodd" clip-rule="evenodd" d="M36 18C36 8.05887 27.9411 0 18 0C8.05887 0 0 8.05887 0 18C0 27.9411 8.05887 36 18 36C27.9411 36 36 27.9411 36 18ZM26 12C26 9.23858 23.7614 7 21 7H15C12.2386 7 10 9.23858 10 12V14.1C11.9591 14.4977 13.5023 16.0409 13.9 18H22.1C22.4977 16.0409 24.0409 14.4977 26 14.1V12ZM9 16C10.6569 16 12 17.3431 12 19V27C12 27.5523 11.5523 28 11 28H9C8.44772 28 8 27.5523 8 27V22.5365C8 22.1127 7.72256 21.7481 7.36721 21.5172C6.54425 20.9822 6 20.0547 6 19C6 17.3431 7.34315 16 9 16ZM27 16C25.3431 16 24 17.3431 24 19V27C24 27.5523 24.4477 28 25 28H27C27.5523 28 28 27.5523 28 27V22.5365C28 22.1127 28.2774 21.7481 28.6328 21.5172C29.4558 20.9822 30 20.0547 30 19C30 17.3431 28.6569 16 27 16ZM22 21C22 20.4477 21.5523 20 21 20H15C14.4477 20 14 20.4477 14 21V22C14 22.5523 14.4477 23 15 23H21C21.5523 23 22 22.5523 22 22V21ZM21 25C21.5523 25 22 25.4477 22 26V27C22 27.5523 21.5523 28 21 28H15C14.4477 28 14 27.5523 14 27V26C14 25.4477 14.4477 25 15 25H21Z" fill="black"/>
</svg>
