<svg width="36" height="36" viewBox="0 0 36 36" fill="none" xmlns="http://www.w3.org/2000/svg">
<path fill-rule="evenodd" clip-rule="evenodd" d="M18 36C27.9411 36 36 27.9411 36 18C36 8.05887 27.9411 0 18 0C8.05887 0 0 8.05887 0 18C0 27.9411 8.05887 36 18 36ZM11.5 14C13.433 14 15 12.433 15 10.5C15 8.567 13.433 7 11.5 7C9.567 7 8 8.567 8 10.5C8 12.433 9.567 14 11.5 14ZM18 9C17.4477 9 17 9.44772 17 10C17 10.5523 17.4477 11 18 11H22.75C24.5449 11 26 12.4551 26 14.25C26 16.0449 24.5449 17.5 22.75 17.5H13.25C10.3505 17.5 8 19.8505 8 22.75C8 25.6495 10.3505 28 13.25 28H18C18.5523 28 19 27.5523 19 27C19 26.4477 18.5523 26 18 26H13.25C11.4551 26 10 24.5449 10 22.75C10 20.9551 11.4551 19.5 13.25 19.5H22.75C25.6495 19.5 28 17.1495 28 14.25C28 11.3505 25.6495 9 22.75 9H18ZM28.7071 23.2929C29.0976 23.6834 29.0976 24.3166 28.7071 24.7071L24.7778 28.6364C24.3482 29.066 23.6518 29.066 23.2222 28.6364L21.2929 26.7071C20.9024 26.3166 20.9024 25.6834 21.2929 25.2929C21.6834 24.9024 22.3166 24.9024 22.7071 25.2929L24 26.5858L27.2929 23.2929C27.6834 22.9024 28.3166 22.9024 28.7071 23.2929Z" fill="black"/>
</svg>
