<svg width="36" height="36" viewBox="0 0 36 36" fill="none" xmlns="http://www.w3.org/2000/svg">
<path fill-rule="evenodd" clip-rule="evenodd" d="M18 36C27.9411 36 36 27.9411 36 18C36 8.05887 27.9411 0 18 0C8.05887 0 0 8.05887 0 18C0 27.9411 8.05887 36 18 36ZM20.9648 8.4985C21.0043 8.22519 21.2239 8 21.5 8H25C26.1046 8 27 8.89543 27 10V20H26C25.4477 20 25 20.4477 25 21C25 21.5523 25.4477 22 26 22H27V26C27 27.1046 26.1046 28 25 28H21.5C21.2239 28 21.0043 27.7748 20.9648 27.5015C20.7498 26.0123 19.5701 25 18 25C16.4299 25 15.2502 26.0123 15.0352 27.5015C14.9957 27.7748 14.7761 28 14.5 28H11C9.89543 28 9 27.1046 9 26V22H10C10.5523 22 11 21.5523 11 21C11 20.4477 10.5523 20 10 20H9V10C9 8.89543 9.89543 8 11 8H14.5C14.7761 8 14.9957 8.22519 15.0352 8.4985C15.2502 9.98772 16.4299 11 18 11C19.5701 11 20.7498 9.98772 20.9648 8.4985ZM13 21C13 20.4477 13.4477 20 14 20H16C16.5523 20 17 20.4477 17 21C17 21.5523 16.5523 22 16 22H14C13.4477 22 13 21.5523 13 21ZM20 20C19.4477 20 19 20.4477 19 21C19 21.5523 19.4477 22 20 22H22C22.5523 22 23 21.5523 23 21C23 20.4477 22.5523 20 22 20H20Z" fill="black"/>
</svg>
