<svg width="36" height="36" viewBox="0 0 36 36" fill="none" xmlns="http://www.w3.org/2000/svg">
<path fill-rule="evenodd" clip-rule="evenodd" d="M18 36C27.9411 36 36 27.9411 36 18C36 8.05887 27.9411 0 18 0C8.05887 0 0 8.05887 0 18C0 27.9411 8.05887 36 18 36ZM9 10C7.89543 10 7 10.8954 7 12V23C7 24.1046 7.89543 25 9 25H27C28.1046 25 29 24.1046 29 23V15.4424C29 15.1606 28.8811 14.892 28.6727 14.7024L23.7861 10.2601C23.602 10.0927 23.3622 10 23.1134 10H9ZM11 15H19V13H11V15ZM19 19H11V17H19V19Z" fill="black"/>
</svg>
