<svg width="36" height="36" viewBox="0 0 36 36" fill="none" xmlns="http://www.w3.org/2000/svg">
<path fill-rule="evenodd" clip-rule="evenodd" d="M18 36C27.9411 36 36 27.9411 36 18C36 8.05887 27.9411 0 18 0C8.05887 0 0 8.05887 0 18C0 27.9411 8.05887 36 18 36ZM10 9C10 8.44771 10.4477 8 11 8H25C25.5523 8 26 8.44772 26 9V28C26 28.5523 25.5523 29 25 29H11C10.4477 29 10 28.5523 10 28V9ZM21.5 14.4648C21.5 16.3978 19.933 17.9648 18 17.9648C16.067 17.9648 14.5 16.3978 14.5 14.4648C14.5 12.5318 16.067 10.9648 18 10.9648C19.933 10.9648 21.5 12.5318 21.5 14.4648ZM13.5 21V23H22.5V21H13.5ZM15.5 26V24H20.5V26H15.5Z" fill="black"/>
</svg>
