<svg width="36" height="36" viewBox="0 0 36 36" fill="none" xmlns="http://www.w3.org/2000/svg">
<path fill-rule="evenodd" clip-rule="evenodd" d="M18 36C27.9411 36 36 27.9411 36 18C36 8.05887 27.9411 0 18 0C8.05887 0 0 8.05887 0 18C0 27.9411 8.05887 36 18 36ZM12.5949 18.3138C12.4215 18.51 12.4289 18.8069 12.6119 18.9942L17.1905 23.6829C17.3672 23.8638 17.6511 23.8844 17.8519 23.7308L26 17.4999L26.0248 17.4761C27.1795 16.3687 28.4159 15.1829 28.5001 12.4999V8.99989C28.5001 8.72375 28.2762 8.4999 28.0001 8.49989L24.5001 8.4999C21.7967 8.47206 20.6617 9.38556 19.5 10.4999L12.5949 18.3138ZM21.4357 15.0927C22.2719 15.9645 23.6566 15.9934 24.5284 15.1571C25.4002 14.3209 25.429 12.9362 24.5928 12.0644C23.7565 11.1926 22.3719 11.1638 21.5001 12C20.6283 12.8362 20.5994 14.2209 21.4357 15.0927ZM10.4901 18.428C10.2574 18.6995 9.82323 18.6461 9.66329 18.3263L9.20079 17.4015C9.07301 17.146 9.06061 16.848 9.1667 16.5828L10.7485 12.6284C10.9003 12.2487 11.268 11.9998 11.6769 11.9998L16 11.9998L10.4901 18.428ZM17.7266 25.9673C17.4101 26.1994 17.4722 26.689 17.8366 26.8347L19.1758 27.3704C19.3858 27.4544 19.618 27.4647 19.8345 27.3997L23.7874 26.2139C24.2104 26.087 24.5001 25.6977 24.5001 25.2561L24.5002 21L17.7266 25.9673ZM12.1505 23.2593C12.5699 22.8999 12.6184 22.2686 12.259 21.8493C11.8996 21.4299 11.2683 21.3814 10.849 21.7408L7.34881 24.7408C6.92948 25.1003 6.88091 25.7316 7.24032 26.1509C7.59974 26.5702 8.23104 26.6188 8.65037 26.2594L12.1505 23.2593ZM14.207 26.2072C14.5976 25.8168 14.5976 25.1836 14.2072 24.793C13.8167 24.4025 13.1835 24.4024 12.7929 24.7929L11.2926 26.2929C10.902 26.6834 10.9019 27.3166 11.2924 27.7071C11.6829 28.0977 12.3161 28.0978 12.7066 27.7073L14.207 26.2072Z" fill="black"/>
</svg>
