<svg width="36" height="36" viewBox="0 0 36 36" fill="none" xmlns="http://www.w3.org/2000/svg">
<path fill-rule="evenodd" clip-rule="evenodd" d="M18 36C27.9411 36 36 27.9411 36 18C36 8.05887 27.9411 0 18 0C8.05887 0 0 8.05887 0 18C0 27.9411 8.05887 36 18 36ZM10 7C9.44772 7 9 7.44772 9 8V28C9 28.5523 9.44772 29 10 29H26C26.5523 29 27 28.5523 27 28V8C27 7.44772 26.5523 7 26 7H10ZM12 11V13H24V11H12ZM24 16V18H12V16H24ZM12 23H16V21H12V23ZM21 24C21.5523 24 22 23.5523 22 23C22 22.4477 21.5523 22 21 22C20.4477 22 20 22.4477 20 23C20 23.5523 20.4477 24 21 24ZM21 26C22.6569 26 24 24.6569 24 23C24 21.3431 22.6569 20 21 20C19.3431 20 18 21.3431 18 23C18 24.6569 19.3431 26 21 26Z" fill="black"/>
</svg>
