<svg width="36" height="36" viewBox="0 0 36 36" fill="none" xmlns="http://www.w3.org/2000/svg">
<path fill-rule="evenodd" clip-rule="evenodd" d="M18 36C27.9411 36 36 27.9411 36 18C36 8.05887 27.9411 0 18 0C8.05887 0 0 8.05887 0 18C0 27.9411 8.05887 36 18 36ZM19.5 9C19.5 8.17157 18.8284 7.5 18 7.5C17.1716 7.5 16.5 8.17157 16.5 9V9.10141C11.4591 9.78871 7.50484 13.891 7.04473 19.0007C6.9952 19.5508 7.44767 20 7.99996 20H28C28.5522 20 29.0047 19.5508 28.9552 19.0007C28.4951 13.8911 24.5408 9.78876 19.5 9.10143V9ZM29 24H26.7879L25.4721 25.0855C24.7556 25.6767 23.8556 26 22.9266 26H13.0734C12.1444 26 11.2444 25.6767 10.5279 25.0855L9.21212 24H7C6.44772 24 6 23.5523 6 23C6 22.4477 6.44772 22 7 22H29C29.5523 22 30 22.4477 30 23C30 23.5523 29.5523 24 29 24ZM14.8662 12.0004C15.1421 12.4788 14.9779 13.0903 14.4995 13.3662C13.15 14.1443 12.0826 15.2186 11.3728 16.488C11.1032 16.97 10.4939 17.1423 10.0119 16.8727C9.52985 16.6032 9.35758 15.9939 9.62712 15.5119C10.5216 13.9123 11.854 12.583 13.5004 11.6336C13.9788 11.3577 14.5904 11.522 14.8662 12.0004Z" fill="black"/>
</svg>
