<svg width="36" height="36" viewBox="0 0 36 36" fill="none" xmlns="http://www.w3.org/2000/svg">
<path fill-rule="evenodd" clip-rule="evenodd" d="M18 36C27.9411 36 36 27.9411 36 18C36 8.05887 27.9411 0 18 0C8.05887 0 0 8.05887 0 18C0 27.9411 8.05887 36 18 36ZM8 12C8 11.1716 8.67157 10.5 9.5 10.5C10.3284 10.5 11 11.1716 11 12C11 12.8284 10.3284 13.5 9.5 13.5C8.67157 13.5 8 12.8284 8 12ZM8 18C8 17.1716 8.67157 16.5 9.5 16.5C10.3284 16.5 11 17.1716 11 18C11 18.8284 10.3284 19.5 9.5 19.5C8.67157 19.5 8 18.8284 8 18ZM9.5 22.5C8.67157 22.5 8 23.1716 8 24C8 24.8284 8.67157 25.5 9.5 25.5C10.3284 25.5 11 24.8284 11 24C11 23.1716 10.3284 22.5 9.5 22.5ZM13.5 12C13.5 11.4477 13.9477 11 14.5 11H27.5C28.0523 11 28.5 11.4477 28.5 12C28.5 12.5523 28.0523 13 27.5 13H14.5C13.9477 13 13.5 12.5523 13.5 12ZM14.5 17C13.9477 17 13.5 17.4477 13.5 18C13.5 18.5523 13.9477 19 14.5 19H27.5C28.0523 19 28.5 18.5523 28.5 18C28.5 17.4477 28.0523 17 27.5 17H14.5ZM13.5 24C13.5 23.4477 13.9477 23 14.5 23H27.5C28.0523 23 28.5 23.4477 28.5 24C28.5 24.5523 28.0523 25 27.5 25H14.5C13.9477 25 13.5 24.5523 13.5 24Z" fill="black"/>
</svg>
