<svg width="36" height="36" viewBox="0 0 36 36" fill="none" xmlns="http://www.w3.org/2000/svg">
<path fill-rule="evenodd" clip-rule="evenodd" d="M18 36C27.9411 36 36 27.9411 36 18C36 8.05887 27.9411 0 18 0C8.05887 0 0 8.05887 0 18C0 27.9411 8.05887 36 18 36ZM11.311 22.4237C13.8268 24.2255 18.9345 25.5412 21.8667 20.185C25.212 14.074 28.5818 13 29 13C29.4182 13 24.3757 10 18.9394 10C13.9214 10 11.3738 12.8518 10.1576 14.4814C9.46997 15.4027 8.8353 17.0473 9.03849 18.7459C10.5458 16.7586 12.6799 14.8 15.6154 13.5769C16.1252 13.3645 16.7107 13.6056 16.9231 14.1154C17.1355 14.6252 16.8944 15.2107 16.3846 15.4231C12.3907 17.0872 10.066 20.3569 8.87959 22.8256C8.26904 24.2865 8 25.7541 8 27C8 27.5523 8.44771 28 9 28C9.55228 28 10 27.5523 10 27C10 25.6707 10.3911 23.9906 11.311 22.4237Z" fill="black"/>
</svg>
