<svg width="36" height="36" viewBox="0 0 36 36" fill="none" xmlns="http://www.w3.org/2000/svg">
<path d="M17 13V15H15V13H17Z" fill="black"/>
<path fill-rule="evenodd" clip-rule="evenodd" d="M18 36C27.9412 36 36 27.9411 36 18C36 8.0589 27.9412 0 18 0C8.05884 0 0 8.0589 0 18C0 27.9411 8.05884 36 18 36ZM11 7.5C11 5.01471 13.0148 3 15.5 3H16.5C18.9852 3 21 5.01471 21 7.5V9.73755C18.0255 7.5827 13.9745 7.5827 11 9.73755V7.5ZM12 12V13C12 15.2092 13.7909 17 16 17C18.2091 17 20 15.2092 20 13V12H17V11H15V12H12ZM23 15.117C23.3704 14.8213 24 15 24 16.0001V18C24 18.5411 24.4561 19 25 19H26C26.5522 19 27 18.5523 27 18V16.0001C27 15.0001 27.6622 14.8467 28 15.117C29.0415 15.9485 30 17.5561 30 19C30 20.6978 29.1394 22.0874 27.7793 22.8546C27.6117 22.9492 27.5 23.1225 27.5 23.3149V28.9999C27.5 29.5523 27.0522 30 26.4999 29.9999L24.4999 29.9998C23.9476 29.9997 23.5 29.552 23.5 28.9998V23.3134C23.4995 23.1214 23.3879 22.9485 23.2207 22.8542L23.2197 22.8536C21.8602 22.0863 21 20.6973 21 19C21 18.6841 21.0459 18.3604 21.1284 18.0388L21.1385 18C21.4404 16.8647 22.1954 15.7593 23 15.117ZM16 20C14.5194 20 13.2268 19.1956 12.5352 18H11C10.7673 18 10.5382 18.0159 10.314 18.0467L11.9016 24H19V26H12V28H21.5V24.1116C19.9498 22.9363 19 21.1107 19 19C19 18.8765 19.0044 18.7535 19.0127 18.6314C18.2794 19.4702 17.2015 20 16 20ZM10 24.631V28H8C6.89539 28 6 27.1046 6 26V23C6 21.1815 6.97083 19.5897 8.42236 18.7147L10 24.631Z" fill="black"/>
</svg>
