<svg width="36" height="36" viewBox="0 0 36 36" fill="none" xmlns="http://www.w3.org/2000/svg">
<path fill-rule="evenodd" clip-rule="evenodd" d="M18 36C27.9411 36 36 27.9411 36 18C36 8.05887 27.9411 0 18 0C8.05887 0 0 8.05887 0 18C0 27.9411 8.05887 36 18 36ZM8 13.0002C8.36872 17.661 11.0587 21.0051 13.0165 22.9841C14.9743 24.9631 17.8435 27.5813 22.5 28.0002C23.6504 28.1037 25 28.0002 26.1362 26.8997L27.2458 25.802C28.1582 24.8994 28.2401 23.5028 27.4288 22.6827L25.2253 20.4553C24.4139 19.6352 23.0166 19.7021 22.1042 20.6047L20.7943 21.9006C20.5752 22.1173 20.2853 22.2437 20.0134 22.1636C19.2225 21.9307 17.7436 21.1539 16.3206 19.7154C14.8975 18.277 14.1365 16.7899 13.9121 15.9965C13.835 15.7239 13.9645 15.4353 14.1835 15.2186L15.4935 13.9227C16.4058 13.0201 16.4878 11.6235 15.6765 10.8034L13.4729 8.57601C12.6616 7.7559 11.2643 7.82279 10.3519 8.72541L9.24225 9.82314C8.36596 10.69 7.90891 11.8488 8 13.0002Z" fill="black"/>
</svg>
