<svg width="36" height="36" viewBox="0 0 36 36" fill="none" xmlns="http://www.w3.org/2000/svg">
<path fill-rule="evenodd" clip-rule="evenodd" d="M18 36C27.9411 36 36 27.9411 36 18C36 8.05887 27.9411 0 18 0C8.05887 0 0 8.05887 0 18C0 27.9411 8.05887 36 18 36ZM17.9081 7.00503C17.5427 7.04012 17.1268 7.26424 16.7262 7.68739C16.3465 8.08846 15.7136 8.10579 15.3125 7.7261C14.9114 7.34641 14.8941 6.71348 15.2738 6.31242C15.8732 5.67925 16.7073 5.11114 17.7169 5.01419C18.7746 4.91262 19.8124 5.34718 20.7262 6.31241C21.1059 6.71348 21.0886 7.34641 20.6875 7.7261C20.2864 8.10579 19.6535 8.08846 19.2738 7.68739C18.6876 7.06816 18.2254 6.97456 17.9081 7.00503ZM8.51601 23.418L9.28082 18.2173C9.94052 18.7068 10.7598 19 11.6593 19H14C14 20.1046 14.8954 21 16 21H20C21.1046 21 22 20.1046 22 19H24.3404C25.2399 19 26.0593 18.7067 26.719 18.2172L27.4838 23.418C27.839 25.8329 25.9672 28 23.5264 28H12.4734C10.0326 28 8.16089 25.8329 8.51601 23.418ZM25.9919 13.2725C25.631 10.8185 23.5255 9 21.0451 9H14.9547C12.4743 9 10.3689 10.8185 10.008 13.2725L9.69658 15.3901C9.87589 16.2917 10.6708 17 11.6593 17H14C14 15.8954 14.8954 15 16 15H20C21.1046 15 22 15.8954 22 17H24.3404C25.329 17 26.1241 16.2915 26.3032 15.3896L25.9919 13.2725ZM14.5 23C13.9477 23 13.5 23.4477 13.5 24C13.5 24.5523 13.9477 25 14.5 25H21.5C22.0523 25 22.5 24.5523 22.5 24C22.5 23.4477 22.0523 23 21.5 23H14.5ZM16 17H20V19H16V17Z" fill="black"/>
</svg>
