<svg width="36" height="36" viewBox="0 0 36 36" fill="none" xmlns="http://www.w3.org/2000/svg">
<path fill-rule="evenodd" clip-rule="evenodd" d="M36 18C36 8.05887 27.9411 0 18 0C8.05887 0 0 8.05887 0 18C0 27.9411 8.05887 36 18 36C27.9411 36 36 27.9411 36 18ZM10.5785 7H25.4212C25.589 7 25.7455 7.08412 25.8381 7.224L28.4862 11.224C28.7062 11.5564 28.4679 12 28.0692 12H25V9.5C25 9.22386 24.7761 9 24.5 9H23.5C23.2238 9 23 9.22386 23 9.5V12H21V9.5C21 9.22386 20.7761 9 20.5 9H19.5C19.2238 9 19 9.22386 19 9.5V12H17V9.5C17 9.22386 16.7761 9 16.5 9H15.5C15.2238 9 15 9.22386 15 9.5V12H13V9.5C13 9.22386 12.7761 9 12.5 9H11.5C11.2238 9 11 9.22386 11 9.5V12H7.93052C7.53191 12 7.29357 11.5564 7.5136 11.224L10.1616 7.224C10.2542 7.08412 10.4108 7 10.5785 7ZM9.5 14C9.22386 14 9 14.2239 9 14.5V29.5C9 29.7761 9.22386 30 9.5 30H10.5C10.7761 30 11 29.7761 11 29.5V28.5C11 27.6716 11.6715 27 12.5 27C13.3284 27 14 27.6716 14 28.5V29.5C14 29.7761 14.2238 30 14.5 30H15.5C15.7761 30 16 29.7761 16 29.5V29C16 27.8954 16.8954 27 18 27C19.1045 27 20 27.8954 20 29V29.5C20 29.7761 20.2238 30 20.5 30H21.5C21.7761 30 22 29.7761 22 29.5V28.5C22 27.6716 22.6715 27 23.5 27C24.3284 27 25 27.6716 25 28.5V29.5C25 29.7761 25.2238 30 25.5 30H26.5C26.7761 30 27 29.7761 27 29.5V14.5C27 14.2239 26.7761 14 26.5 14H9.5ZM11 21.5C11 21.2239 11.2238 21 11.5 21H12.5C12.7761 21 13 21.2239 13 21.5V24.5C13 24.7761 12.7761 25 12.5 25H11.5C11.2238 25 11 24.7761 11 24.5V21.5ZM15.5 21C15.2238 21 15 21.2239 15 21.5V24.5C15 24.7761 15.2238 25 15.5 25H16.5C16.7761 25 17 24.7761 17 24.5V21.5C17 21.2239 16.7761 21 16.5 21H15.5ZM19 21.5C19 21.2239 19.2238 21 19.5 21H20.5C20.7761 21 21 21.2239 21 21.5V24.5C21 24.7761 20.7761 25 20.5 25H19.5C19.2238 25 19 24.7761 19 24.5V21.5ZM23.5 21C23.2238 21 23 21.2239 23 21.5V24.5C23 24.7761 23.2238 25 23.5 25H24.5C24.7761 25 25 24.7761 25 24.5V21.5C25 21.2239 24.7761 21 24.5 21H23.5ZM11 15.5C11 15.2239 11.2238 15 11.5 15H12.5C12.7761 15 13 15.2239 13 15.5V18.5C13 18.7761 12.7761 19 12.5 19H11.5C11.2238 19 11 18.7761 11 18.5V15.5ZM15.5 15C15.2238 15 15 15.2239 15 15.5V18.5C15 18.7761 15.2238 19 15.5 19H16.5C16.7761 19 17 18.7761 17 18.5V15.5C17 15.2239 16.7761 15 16.5 15H15.5ZM19 15.5C19 15.2239 19.2238 15 19.5 15H20.5C20.7761 15 21 15.2239 21 15.5V18.5C21 18.7761 20.7761 19 20.5 19H19.5C19.2238 19 19 18.7761 19 18.5V15.5ZM23.5 15C23.2238 15 23 15.2239 23 15.5V18.5C23 18.7761 23.2238 19 23.5 19H24.5C24.7761 19 25 18.7761 25 18.5V15.5C25 15.2239 24.7761 15 24.5 15H23.5Z" fill="black"/>
</svg>
