<svg width="36" height="36" viewBox="0 0 36 36" fill="none" xmlns="http://www.w3.org/2000/svg">
<path fill-rule="evenodd" clip-rule="evenodd" d="M18 36C27.9411 36 36 27.9411 36 18C36 8.05887 27.9411 0 18 0C8.05887 0 0 8.05887 0 18C0 27.9411 8.05887 36 18 36ZM24.8526 22.4228C26.1917 20.8953 27 18.9144 27 16.75C27 11.9175 22.9706 8 18 8C13.0294 8 9 11.9175 9 16.75C9 18.9144 9.80831 20.8953 11.1475 22.4228C11.4861 22.809 11.9878 23 12.5015 23H23.4985C24.0122 23 24.5139 22.809 24.8526 22.4228ZM18 12C18.5523 12 19 12.4477 19 13V17.0858L20.2929 15.7929C20.6834 15.4024 21.3166 15.4024 21.7071 15.7929C22.0976 16.1834 22.0976 16.8166 21.7071 17.2071L18.7778 20.1364C18.3482 20.566 17.6518 20.566 17.2222 20.1364L14.2929 17.2071C13.9024 16.8166 13.9024 16.1834 14.2929 15.7929C14.6834 15.4024 15.3166 15.4024 15.7071 15.7929L17 17.0858V13C17 12.4477 17.4477 12 18 12ZM8 26C8 25.4477 8.44771 25 9 25H27C27.5523 25 28 25.4477 28 26C28 26.5523 27.5523 27 27 27H9C8.44771 27 8 26.5523 8 26Z" fill="black"/>
</svg>
