<svg width="36" height="36" viewBox="0 0 36 36" fill="none" xmlns="http://www.w3.org/2000/svg">
<path fill-rule="evenodd" clip-rule="evenodd" d="M18 36C27.9411 36 36 27.9411 36 18C36 8.05887 27.9411 0 18 0C8.05887 0 0 8.05887 0 18C0 27.9411 8.05887 36 18 36ZM26 18C25.4477 18 25 17.5523 25 17V11H19C18.4477 11 18 10.5523 18 10C18 9.44772 18.4477 9 19 9H25.9C26.5075 9 27 9.49248 27 10.1V17C27 17.5523 26.5523 18 26 18ZM10 18C10.5523 18 11 18.4477 11 19V25H17C17.5523 25 18 25.4477 18 26C18 26.5523 17.5523 27 17 27H10.1C9.49249 27 9 26.5075 9 25.9V19C9 18.4477 9.44771 18 10 18Z" fill="black"/>
</svg>
