<svg width="36" height="36" viewBox="0 0 36 36" fill="none" xmlns="http://www.w3.org/2000/svg">
<path fill-rule="evenodd" clip-rule="evenodd" d="M18 36C27.9411 36 36 27.9411 36 18C36 8.05887 27.9411 0 18 0C8.05887 0 0 8.05887 0 18C0 27.9411 8.05887 36 18 36ZM11 9H24.6293L10.9079 23.6362C10.5934 23.0598 10.3523 22.4411 10.1939 21.7934C10.0651 21.2664 10 20.7258 10 20.1832V10C10 9.44772 10.4477 9 11 9ZM13.307 26.2851C12.8721 25.9885 12.4722 25.65 12.1118 25.2762L26 10.4621V20.1832C26 20.7258 25.9349 21.2664 25.8061 21.7934C25.3587 23.6237 24.2498 25.2236 22.693 26.2851L22.4444 26.4545L18.523 28.8609C18.2021 29.0578 17.7979 29.0578 17.477 28.8609L13.5556 26.4545L13.307 26.2851Z" fill="black"/>
</svg>
