<svg width="36" height="36" viewBox="0 0 36 36" fill="none" xmlns="http://www.w3.org/2000/svg">
<path fill-rule="evenodd" clip-rule="evenodd" d="M18 36C27.9411 36 36 27.9411 36 18C36 8.05887 27.9411 0 18 0C8.05887 0 0 8.05887 0 18C0 27.9411 8.05887 36 18 36ZM29 18C29 18.1711 28.9961 18.3412 28.9884 18.5104C26.5849 18.6502 24.1072 19.4793 21.7934 21.7931C19.6628 23.9237 18.6967 26.7104 18.4196 28.9921C18.2804 28.9974 18.1405 29 18 29C11.9249 29 7 24.0751 7 18C7 11.9249 11.9249 7 18 7C24.0751 7 29 11.9249 29 18ZM21.7071 12.2929C21.3166 11.9024 20.6834 11.9024 20.2929 12.2929C19.9024 12.6834 19.9024 13.3166 20.2929 13.7071C20.3943 13.8085 20.7084 14.2774 21.0042 15.0465C21.2863 15.7802 21.5 16.656 21.5 17.5V17.691C21.5 18.0627 21.8912 18.3044 22.2236 18.1382L23.2236 17.6382C23.393 17.5535 23.5014 17.3803 23.4933 17.1911C23.4484 16.145 23.183 15.1402 22.8708 14.3286C22.5416 13.4726 22.1057 12.6915 21.7071 12.2929ZM16.3753 14.2191C16.8066 13.8741 17.4359 13.944 17.7809 14.3753C18.2068 14.9078 18.7913 15.942 18.9884 17.223C19.1912 18.5411 18.9804 20.1253 17.7809 21.6247C17.4359 22.056 16.8066 22.1259 16.3753 21.7809C15.9441 21.4359 15.8741 20.8066 16.2191 20.3753C17.0196 19.3747 17.1422 18.3755 17.0116 17.527C16.8754 16.6414 16.4598 15.9255 16.2191 15.6247C15.8741 15.1934 15.9441 14.5641 16.3753 14.2191ZM13.5 16.25C13.1143 16.25 12.7957 16.4846 12.5849 16.8007C12.373 17.1186 12.25 17.5433 12.25 18C12.25 18.4567 12.373 18.8815 12.5849 19.1993C12.7957 19.5155 13.1143 19.75 13.5 19.75C13.8857 19.75 14.2043 19.5155 14.4151 19.1993C14.627 18.8815 14.75 18.4567 14.75 18C14.75 17.5433 14.627 17.1186 14.4151 16.8007C14.2043 16.4846 13.8857 16.25 13.5 16.25ZM23.2076 23.2073C24.8474 21.5676 26.5477 20.8375 28.2587 20.5911C26.2862 23.8596 23.5951 26.4036 20.5372 28.4059C20.8855 26.6549 21.7049 24.71 23.2076 23.2073Z" fill="black"/>
</svg>
