<svg width="36" height="36" viewBox="0 0 36 36" fill="none" xmlns="http://www.w3.org/2000/svg">
<path fill-rule="evenodd" clip-rule="evenodd" d="M18 36C27.9411 36 36 27.9411 36 18C36 8.05887 27.9411 0 18 0C8.05887 0 0 8.05887 0 18C0 27.9411 8.05887 36 18 36ZM26 8C26.5523 8 27 8.44771 27 9V11H29C29.5523 11 30 11.4477 30 12C30 12.5523 29.5523 13 29 13H27V15C27 15.5523 26.5523 16 26 16C25.4477 16 25 15.5523 25 15V13H23C22.4477 13 22 12.5523 22 12C22 11.4477 22.4477 11 23 11H25V9C25 8.44771 25.4477 8 26 8ZM12 19C9.23858 19 7 21.2386 7 24V25C7 26.1046 7.89543 27 9 27H22C23.1046 27 24 26.1046 24 25V24C24 21.2386 21.7614 19 19 19H12ZM12 12.5C12 10.567 13.567 9 15.5 9C17.433 9 19 10.567 19 12.5V13.5C19 15.433 17.433 17 15.5 17C13.567 17 12 15.433 12 13.5V12.5Z" fill="black"/>
</svg>
