<svg width="36" height="36" viewBox="0 0 36 36" fill="none" xmlns="http://www.w3.org/2000/svg">
<path d="M17.0005 13V15H15.0005V13H17.0005Z" fill="black"/>
<path d="M25 21C25.5522 21 26 21.4477 26 22C26 22.5523 25.5522 23 25 23H22C21.4478 23 21 22.5523 21 22C21 21.4477 21.4478 21 22 21H25Z" fill="black"/>
<path fill-rule="evenodd" clip-rule="evenodd" d="M18 36C27.9412 36 36 27.9411 36 18C36 8.0589 27.9412 0 18 0C8.05884 0 0 8.0589 0 18C0 27.9411 8.05884 36 18 36ZM11.0005 7.5C11.0005 5.01471 13.0153 3 15.5005 3H16.5005C18.9857 3 21.0005 5.01471 21.0005 7.5V9.73755C18.026 7.5827 13.975 7.5827 11.0005 9.73755V7.5ZM12.0005 12V13C12.0005 15.2092 13.7914 17 16.0005 17C18.2096 17 20.0005 15.2092 20.0005 13V12H17.0005V11H15.0005V12H12.0005ZM8.42236 18.7148C6.97083 19.5898 6 21.1815 6 23V26C6 27.1046 6.89539 28 8 28H10V24.631L8.42236 18.7148ZM12 28H16V26H12V28ZM18.3829 19.2131L18.4174 19.1872C18.5048 19.1244 18.6028 19.0754 18.7081 19.0433C18.8004 19.0151 18.8984 19 19 19H28C28.5522 19 29 19.4477 29 20V29C29 29.5523 28.5522 30 28 30H19C18.4478 30 18 29.5523 18 29V20C18 19.6805 18.1498 19.3961 18.3829 19.2131ZM16 20C14.5194 20 13.2268 19.1956 12.5352 18H11C10.7673 18 10.5383 18.0159 10.314 18.0467L11.9016 24H16V20Z" fill="black"/>
</svg>
