<svg width="36" height="36" viewBox="0 0 36 36" fill="none" xmlns="http://www.w3.org/2000/svg">
<path fill-rule="evenodd" clip-rule="evenodd" d="M18 36C27.9411 36 36 27.9411 36 18C36 8.05887 27.9411 0 18 0C8.05887 0 0 8.05887 0 18C0 27.9411 8.05887 36 18 36ZM15 8C15 6.34315 16.3431 5 18 5C19.6569 5 21 6.34315 21 8V9H23C23.5523 9 24 9.44772 24 10C24 10.5523 23.5523 11 23 11H21V12H23C23.5523 12 24 12.4477 24 13C24 13.5523 23.5523 14 23 14H21V15H23C23.5523 15 24 15.4477 24 16C24 16.5523 23.5523 17 23 17H21V17.6736C23.3649 18.7971 25 21.2076 25 24C25 27.866 21.866 31 18 31C14.134 31 11 27.866 11 24C11 21.2076 12.6351 18.7971 15 17.6736V8ZM15 23C15.5523 23 16 23.4477 16 24C16 24.4248 16.2225 24.9332 16.6446 25.3554C17.0668 25.7775 17.5752 26 18 26C18.5523 26 19 26.4477 19 27C19 27.5523 18.5523 28 18 28C16.9248 28 15.9332 27.4725 15.2304 26.7696C14.5275 26.0668 14 25.0752 14 24C14 23.4477 14.4477 23 15 23Z" fill="black"/>
</svg>
