<svg width="36" height="36" viewBox="0 0 36 36" fill="none" xmlns="http://www.w3.org/2000/svg">
<path fill-rule="evenodd" clip-rule="evenodd" d="M18 36C27.9411 36 36 27.9411 36 18C36 8.05887 27.9411 0 18 0C8.05887 0 0 8.05887 0 18C0 27.9411 8.05887 36 18 36ZM14 23V14H23V20.1707C22.6873 20.0602 22.3506 20 22 20C20.3431 20 19 21.3431 19 23C19 24.6569 20.3431 26 22 26C23.6569 26 25 24.6569 25 23V11.1C25 10.4925 24.5074 10 23.9 10H13.1C12.4924 10 12 10.4925 12 11.1V20.1707C11.6873 20.0602 11.3506 20 11 20C9.34314 20 8 21.3431 8 23C8 24.6569 9.34314 26 11 26C12.6569 26 14 24.6569 14 23Z" fill="black"/>
</svg>
