<svg width="36" height="36" viewBox="0 0 36 36" fill="none" xmlns="http://www.w3.org/2000/svg">
<path fill-rule="evenodd" clip-rule="evenodd" d="M18 36C27.9411 36 36 27.9411 36 18C36 8.05887 27.9411 0 18 0C8.05887 0 0 8.05887 0 18C0 27.9411 8.05887 36 18 36ZM13.8262 9.56079C11.6446 11.1606 9.90549 13.2889 8.77231 15.7455C8.44115 16.4634 8.2139 17.2225 8.09559 18H24.5C25.0523 18 25.5 18.4477 25.5 19C25.5 19.5523 25.0523 20 24.5 20H8V25C8 25.5523 8.44772 26 9 26H27C27.5523 26 28 25.5523 28 25V19.2636C28 18.0488 27.7365 16.8485 27.2277 15.7455C26.0945 13.2889 24.3554 11.1606 22.1738 9.56079L18.5914 6.93367C18.2394 6.67554 17.7606 6.67554 17.4086 6.93367L13.8262 9.56079ZM10.5 23C10.5 22.4477 10.9477 22 11.5 22H12.5C13.0523 22 13.5 22.4477 13.5 23C13.5 23.5523 13.0523 24 12.5 24H11.5C10.9477 24 10.5 23.5523 10.5 23ZM17.5 22C16.9477 22 16.5 22.4477 16.5 23C16.5 23.5523 16.9477 24 17.5 24H18.5C19.0523 24 19.5 23.5523 19.5 23C19.5 22.4477 19.0523 22 18.5 22H17.5ZM22.5 23C22.5 22.4477 22.9477 22 23.5 22H24.5C25.0523 22 25.5 22.4477 25.5 23C25.5 23.5523 25.0523 24 24.5 24H23.5C22.9477 24 22.5 23.5523 22.5 23Z" fill="black"/>
</svg>
