<svg width="36" height="36" viewBox="0 0 36 36" fill="none" xmlns="http://www.w3.org/2000/svg">
<path fill-rule="evenodd" clip-rule="evenodd" d="M18 24C20.7612 24 23 21.7614 23 19C23 16.2386 20.7612 14 18 14C15.2388 14 13 16.2386 13 19C13 21.7614 15.2388 24 18 24ZM18 22C19.6567 22 21 20.6569 21 19C21 17.3431 19.6567 16 18 16C16.3433 16 15 17.3431 15 19C15 20.6569 16.3433 22 18 22Z" fill="black"/>
<path d="M24 16V18H26V16H24Z" fill="black"/>
<path fill-rule="evenodd" clip-rule="evenodd" d="M36 18C36 8.05887 27.9409 0 18 0C8.05908 0 0 8.05887 0 18C0 27.9411 8.05908 36 18 36C27.9409 36 36 27.9411 36 18ZM18.0005 5C15.9678 5 14.0625 5.54266 12.5088 6.46089C12.0337 6.74188 11.4204 6.58424 11.1392 6.1088C10.8584 5.63335 11.0161 5.02011 11.4912 4.73911C13.3589 3.63542 15.6167 3 18.0005 3C20.3843 3 22.6416 3.63544 24.5088 4.73911C24.9844 5.02011 25.1421 5.63335 24.8608 6.1088C24.5801 6.58424 23.9668 6.74188 23.4912 6.46089C21.9375 5.54265 20.0327 5 18.0005 5ZM11 14C11 12.8954 11.8955 12 13 12H23C24.1045 12 25 12.8954 25 14H26C27.1045 14 28 14.8954 28 16V24C28 25.1046 27.1045 26 26 26H10C8.89551 26 8 25.1046 8 24V16C8 14.8954 8.89551 14 10 14H11ZM15.4995 9.66634C16.2344 9.24283 17.0869 9 18 9C18.9131 9 19.7661 9.24283 20.5005 9.66634C20.979 9.94218 21.5908 9.77792 21.8667 9.29947C22.1426 8.821 21.978 8.20952 21.4995 7.93367C20.4692 7.33957 19.2729 7 18 7C16.7275 7 15.5312 7.33957 14.5005 7.93367C14.0225 8.20952 13.8579 8.821 14.1338 9.29947C14.4097 9.77792 15.021 9.94218 15.4995 9.66634ZM22.7812 32.3753L19.2812 28H16.7192L13.2192 32.3753C12.874 32.8065 12.9443 33.4359 13.3755 33.7809C13.8066 34.1259 14.436 34.0559 14.7808 33.6247L17.0005 30.8504V33C17.0005 33.5523 17.4482 34 18.0005 34C18.5527 34 19.0005 33.5523 19.0005 33V30.8507L21.2197 33.6247C21.5645 34.0559 22.1938 34.1259 22.625 33.7809C23.0562 33.4359 23.1265 32.8065 22.7812 32.3753Z" fill="black"/>
</svg>
