<svg width="36" height="36" viewBox="0 0 36 36" fill="none" xmlns="http://www.w3.org/2000/svg">
<path fill-rule="evenodd" clip-rule="evenodd" d="M18 36C27.9411 36 36 27.9411 36 18C36 8.05887 27.9411 0 18 0C8.05887 0 0 8.05887 0 18C0 27.9411 8.05887 36 18 36ZM26 8C24.3431 8 23 9.34315 23 11C23 12.6569 24.3431 14 26 14C27.6569 14 29 12.6569 29 11C29 9.34315 27.6569 8 26 8ZM21 11C21 10.2889 21.1484 9.61246 21.416 9H14C11.2386 9 9 11.2386 9 14V22C9 24.7614 11.2386 27 14 27H22C24.7614 27 27 24.7614 27 22V15.9C26.6769 15.9656 26.3425 16 26 16C23.2386 16 21 13.7614 21 11Z" fill="black"/>
</svg>
