<svg width="36" height="36" viewBox="0 0 36 36" fill="none" xmlns="http://www.w3.org/2000/svg">
<path d="M12.1079 19.629C12.1609 19.5311 12.2346 19.4296 12.332 19.3322C12.5667 19.0974 12.8252 19 13 19C13.5522 19 14 18.5522 14 18C14 17.4478 13.5522 17 13 17C12.1748 17 11.4333 17.4026 10.918 17.9178C10.4026 18.4332 10 19.1748 10 20C10 20.5522 10.4478 21 11 21C11.5522 21 12 20.5522 12 20C12 19.8978 12.0332 19.767 12.1079 19.629Z" fill="black"/>
<path fill-rule="evenodd" clip-rule="evenodd" d="M36 18C36 8.05884 27.9412 0 18 0C8.05884 0 0 8.05884 0 18C0 27.9412 8.05884 36 18 36C27.9412 36 36 27.9412 36 18ZM25 6C25.5522 6 26 6.44775 26 7V13.968C25.3767 13.7046 24.7041 13.535 24 13.4771V7C24 6.44775 24.4478 6 25 6ZM21 30C23.3906 30 25.3892 28.3224 25.8831 26.0802C25.1665 26.3666 24.3877 26.53 23.5725 26.5444C23.0476 27.4166 22.092 28 21 28H20.7324C20.3867 27.4022 19.7402 27 19 27H17C15.8955 27 15 27.8954 15 29C15 30.1046 15.8955 31 17 31H19C19.7402 31 20.3867 30.5978 20.7324 30H21ZM16.0378 22.9095C16.5388 22.3091 17.218 21.8182 18 21.8182C18.782 21.8182 19.4612 22.3091 19.9622 22.9095C20.7959 23.9093 22.051 24.5455 23.4546 24.5455C25.9648 24.5455 28 22.5104 28 20C28 17.4896 25.9099 15.5 23.3994 15.5L23.3376 15.5004L23.3086 15.5H12.5813L12.5522 15.5004L12.4902 15.5C9.97998 15.5 8 17.4896 8 20C8 22.5104 10.0352 24.5455 12.5454 24.5455C13.949 24.5455 15.2041 23.9093 16.0378 22.9095Z" fill="black"/>
</svg>
