<svg width="36" height="36" viewBox="0 0 36 36" fill="none" xmlns="http://www.w3.org/2000/svg">
<path fill-rule="evenodd" clip-rule="evenodd" d="M18 36C27.9411 36 36 27.9411 36 18C36 8.05887 27.9411 0 18 0C8.05887 0 0 8.05887 0 18C0 27.9411 8.05887 36 18 36ZM23.0348 7.71019C23.4236 7.31795 24.0567 7.31517 24.449 7.70398L28.3103 11.5316C28.7026 11.9204 28.7054 12.5536 28.3165 12.9458L26.1119 15.1699L20.8301 9.93431L23.0348 7.71019ZM17.2018 10.073C17.5906 9.68073 18.2238 9.67795 18.616 10.0668L25.9986 17.3848C26.3908 17.7736 26.3936 18.4067 26.0048 18.799L18.2736 26.5983C15.864 29.0292 11.94 29.0464 9.50916 26.6368C7.07829 24.2272 7.06107 20.3032 9.47069 17.8723L17.2018 10.073ZM17.2929 13.2928C17.6835 12.9023 18.3166 12.9023 18.7072 13.2928L22.7072 17.2928C23.0977 17.6834 23.0977 18.3165 22.7072 18.7071C22.3166 19.0976 21.6835 19.0976 21.2929 18.7071L17.2929 14.7071C16.9024 14.3165 16.9024 13.6834 17.2929 13.2928ZM15.0928 23.445C14.4246 24.1191 13.3365 24.1239 12.6625 23.4557C11.9884 22.7875 11.9836 21.6995 12.6518 21.0254C13.32 20.3514 14.408 20.3466 15.0821 21.0147C15.7561 21.6829 15.7609 22.771 15.0928 23.445ZM16.5132 24.853C15.0674 26.3115 12.713 26.3219 11.2545 24.8761C9.79595 23.4303 9.78562 21.0759 11.2314 19.6174C12.6772 18.1589 15.0316 18.1486 16.4901 19.5943C17.9486 21.0401 17.9589 23.3945 16.5132 24.853Z" fill="black"/>
</svg>
