<svg width="36" height="36" viewBox="0 0 36 36" fill="none" xmlns="http://www.w3.org/2000/svg">
<path fill-rule="evenodd" clip-rule="evenodd" d="M36 18C36 27.9411 27.9411 36 18 36C8.05887 36 0 27.9411 0 18C0 8.05887 8.05887 0 18 0C27.9411 0 36 8.05887 36 18ZM16.2071 6.29289C15.8166 5.90237 15.1834 5.90237 14.7929 6.29289C14.4024 6.68342 14.4024 7.31658 14.7929 7.70711L16.5858 9.5L14.7929 11.2929C14.4024 11.6834 14.4024 12.3166 14.7929 12.7071C15.1834 13.0976 15.8166 13.0976 16.2071 12.7071L18 10.9142L19.7929 12.7071C20.1834 13.0976 20.8166 13.0976 21.2071 12.7071C21.5976 12.3166 21.5976 11.6834 21.2071 11.2929L19.4142 9.5L21.2071 7.70711C21.5976 7.31658 21.5976 6.68342 21.2071 6.29289C20.8166 5.90237 20.1834 5.90237 19.7929 6.29289L18 8.08579L16.2071 6.29289ZM6.2318 21.3598C5.87824 21.7841 5.93556 22.4146 6.35984 22.7682C6.78412 23.1218 7.41468 23.0644 7.76825 22.6402C10.0894 19.8547 13.3139 18 18 18C22.6862 18 25.9106 19.8547 28.2318 22.6402C28.5854 23.0644 29.2159 23.1218 29.6402 22.7682C30.0645 22.4146 30.1218 21.7841 29.7682 21.3598C27.0894 18.1452 23.3139 16 18 16C12.6862 16 8.9106 18.1452 6.2318 21.3598ZM10.168 25.4453C9.86164 25.9048 9.98582 26.5257 10.4453 26.8321C10.9049 27.1384 11.5257 27.0142 11.8321 26.5547C12.6755 25.2896 14.8833 23.5 18 23.5C21.1168 23.5 23.3246 25.2896 24.168 26.5547C24.4743 27.0142 25.0952 27.1384 25.5547 26.8321C26.0143 26.5257 26.1384 25.9048 25.8321 25.4453C24.6755 23.7104 21.8833 21.5 18 21.5C14.1168 21.5 11.3246 23.7104 10.168 25.4453ZM14.2929 29.7071C13.9024 29.3166 13.9024 28.6834 14.2929 28.2929L14.3225 28.2632C14.8283 27.7566 16.0829 26.5 18 26.5C19.9171 26.5 21.1717 27.7566 21.6775 28.2632L21.7071 28.2929C22.0976 28.6834 22.0976 29.3166 21.7071 29.7071C21.3166 30.0976 20.6834 30.0976 20.2929 29.7071C19.7781 29.1923 19.0443 28.5 18 28.5C16.9557 28.5 16.2219 29.1923 15.7071 29.7071C15.3166 30.0976 14.6834 30.0976 14.2929 29.7071Z" fill="black"/>
</svg>
