<svg width="36" height="36" viewBox="0 0 36 36" fill="none" xmlns="http://www.w3.org/2000/svg">
<path fill-rule="evenodd" clip-rule="evenodd" d="M18 36C27.9411 36 36 27.9411 36 18C36 8.05887 27.9411 0 18 0C8.05887 0 0 8.05887 0 18C0 27.9411 8.05887 36 18 36ZM10 7H20V12.9C20 13.5075 20.4925 14 21.1 14H27V21.5858L25.2778 19.8636C24.8482 19.434 24.1518 19.434 23.7222 19.8636L22 21.5858L18.274 17.8598C17.8612 17.447 17.1978 17.4286 16.7627 17.8178L9 24.7634V8C9 7.44772 9.44772 7 10 7ZM24.5 21.9142L27 24.4142V28C27 28.5523 26.5523 29 26 29H10C9.44772 29 9 28.5523 9 28V27.4471L17.4618 19.876L21.2222 23.6364C21.6518 24.066 22.3482 24.066 22.7778 23.6364L24.5 21.9142ZM22 7.40741L26.5091 12H22V7.40741ZM15 13C15 13.5523 14.5523 14 14 14C13.4477 14 13 13.5523 13 13C13 12.4477 13.4477 12 14 12C14.5523 12 15 12.4477 15 13ZM17 13C17 14.6569 15.6569 16 14 16C12.3431 16 11 14.6569 11 13C11 11.3431 12.3431 10 14 10C15.6569 10 17 11.3431 17 13Z" fill="black"/>
</svg>
