<svg width="36" height="36" viewBox="0 0 36 36" fill="none" xmlns="http://www.w3.org/2000/svg">
<path fill-rule="evenodd" clip-rule="evenodd" d="M18 36C27.9411 36 36 27.9411 36 18C36 8.05887 27.9411 0 18 0C8.05887 0 0 8.05887 0 18C0 27.9411 8.05887 36 18 36ZM7.05503 17.1407C7.83069 20.3539 10.9564 26 17.9999 26C25.0434 26 28.1691 20.3539 28.9448 17.1407C28.2659 15.9004 26.9749 14.1469 25.1598 12.6872C23.2672 11.1651 20.8544 10 17.9999 10C15.1454 10 12.7326 11.1651 10.8399 12.6872C9.02487 14.1469 7.73386 15.9004 7.05503 17.1407ZM9.58656 11.1287C11.7313 9.40388 14.5727 8 17.9999 8C21.4271 8 24.2685 9.40388 26.4132 11.1287C28.5502 12.8473 30.045 14.9217 30.8095 16.3869C30.9691 16.6926 31.0163 17.0407 30.942 17.3794C30.1547 20.9708 26.5554 28 17.9999 28C9.44438 28 5.84509 20.9708 5.05775 17.3794C4.9835 17.0407 5.03069 16.6926 5.19024 16.3869C5.95479 14.9217 7.44956 12.8473 9.58656 11.1287ZM10.8001 16.9001C10.4687 16.4582 9.84189 16.3687 9.40006 16.7001C8.95823 17.0314 8.86869 17.6582 9.20006 18.1001C9.91909 19.0588 11.0485 19.6883 12.2266 20.1075L11.6681 20.9453C11.3617 21.4048 11.4859 22.0257 11.9454 22.332C12.4049 22.6384 13.0258 22.5142 13.3322 22.0547L14.2686 20.65C15.219 20.8319 16.1673 20.9306 17.0001 20.9735V22.5C17.0001 23.0523 17.4478 23.5 18.0001 23.5C18.5524 23.5 19.0001 23.0523 19.0001 22.5V20.9735C19.8334 20.9306 20.7823 20.8318 21.7332 20.6496L22.6761 22.0211C22.989 22.4762 23.6115 22.5915 24.0666 22.2786C24.5217 21.9657 24.637 21.3431 24.3241 20.888L23.7848 20.1035C24.9588 19.6843 26.0833 19.0557 26.8001 18.1001C27.1314 17.6582 27.0419 17.0314 26.6001 16.7001C26.1582 16.3687 25.5314 16.4582 25.2001 16.9001C24.6671 17.6107 23.5432 18.1667 22.0732 18.5291C20.6553 18.8787 19.1201 18.9992 18.0121 19.0001L18.0001 19L17.9881 19.0001C16.8801 18.9992 15.3449 18.8788 13.927 18.5291C12.4569 18.1667 11.333 17.6107 10.8001 16.9001Z" fill="black"/>
</svg>
