<svg width="36" height="36" viewBox="0 0 36 36" fill="none" xmlns="http://www.w3.org/2000/svg">
<path fill-rule="evenodd" clip-rule="evenodd" d="M18 36C27.9411 36 36 27.9411 36 18C36 8.05887 27.9411 0 18 0C8.05887 0 0 8.05887 0 18C0 27.9411 8.05887 36 18 36ZM27 8C27 7.44772 26.5523 7 26 7H13C12.4477 7 12 7.44772 12 8V9H23C24.1046 9 25 9.89543 25 11V25H26C26.5523 25 27 24.5523 27 24V8ZM10 11C9.44772 11 9 11.4477 9 12V28C9 28.5523 9.44772 29 10 29H22C22.5523 29 23 28.5523 23 28V12C23 11.4477 22.5523 11 22 11H10ZM11 16H21V14H11V16ZM21 20.5H11V18.5H21V20.5ZM11 25H21V23H11V25Z" fill="black"/>
</svg>
