<svg width="36" height="36" viewBox="0 0 36 36" fill="none" xmlns="http://www.w3.org/2000/svg">
<path fill-rule="evenodd" clip-rule="evenodd" d="M18 36C27.9411 36 36 27.9411 36 18C36 8.05887 27.9411 0 18 0C8.05887 0 0 8.05887 0 18C0 27.9411 8.05887 36 18 36ZM19.6584 10.1182C19.8741 9.79904 20 9.41423 20 9C20 8.93096 19.9965 8.86274 19.9897 8.7955C19.8872 7.78696 19.0355 7 18 7C17.3097 7 16.701 7.34976 16.3416 7.88176C16.1259 8.20096 16 8.58577 16 9C16 9.46168 16.1564 9.88681 16.4192 10.2253C16.6279 10.4942 16.9037 10.7084 17.2215 10.8428C17.4608 10.944 17.7239 11 18 11C18.2804 11 18.5474 10.9423 18.7896 10.8381C19.1437 10.6858 19.445 10.4341 19.6584 10.1182ZM10 20C8.89551 20 8 20.8954 8 22V23C8 24.1046 8.89551 25 10 25H26C27.1045 25 28 24.1046 28 23V22C28 20.8954 27.1045 20 26 20H10ZM11 18C11 15.2007 12.6431 12.7853 15.0176 11.6654C15.75 12.4845 16.8149 13 18 13C19.1851 13 20.25 12.4845 20.9824 11.6654C23.3569 12.7853 25 15.2007 25 18H11Z" fill="black"/>
</svg>
