<svg width="36" height="36" viewBox="0 0 36 36" fill="none" xmlns="http://www.w3.org/2000/svg">
<path fill-rule="evenodd" clip-rule="evenodd" d="M18 36C27.9411 36 36 27.9411 36 18C36 8.05887 27.9411 0 18 0C8.05887 0 0 8.05887 0 18C0 27.9411 8.05887 36 18 36ZM19 10C19 9.44771 18.5523 9 18 9C17.4477 9 17 9.44771 17 10V28C17 28.5523 17.4477 29 18 29C18.5523 29 19 28.5523 19 28V10ZM9.23988 11C8.76246 11 8.30078 11.1708 7.9383 11.4815L5.88583 13.2407C5.42022 13.6398 5.42022 14.3602 5.88583 14.7593L7.9383 16.5185C8.30078 16.8292 8.76246 17 9.23988 17H14C14.5523 17 15 16.5523 15 16V12C15 11.4477 14.5523 11 14 11H9.23988ZM28.0617 15.4815C27.6992 15.1708 27.2375 15 26.7601 15H22C21.4477 15 21 15.4477 21 16V20C21 20.5523 21.4477 21 22 21H26.7601C27.2375 21 27.6992 20.8292 28.0617 20.5185L30.1142 18.7593C30.5798 18.3602 30.5798 17.6398 30.1142 17.2407L28.0617 15.4815Z" fill="black"/>
</svg>
