<svg width="36" height="36" viewBox="0 0 36 36" fill="none" xmlns="http://www.w3.org/2000/svg">
<path fill-rule="evenodd" clip-rule="evenodd" d="M18 36C27.9411 36 36 27.9411 36 18C36 8.05887 27.9411 0 18 0C8.05887 0 0 8.05887 0 18C0 27.9411 8.05887 36 18 36ZM9 11C9 9.89543 9.89543 9 11 9H25C26.1046 9 27 9.89543 27 11V25C27 26.1046 26.1046 27 25 27H11C9.89543 27 9 26.1046 9 25V11ZM16.5 17.5V14H18.75C19.7165 14 20.5 14.7835 20.5 15.75C20.5 16.7165 19.7165 17.5 18.75 17.5H16.5ZM18.75 19.5C20.8211 19.5 22.5 17.8211 22.5 15.75C22.5 13.6789 20.8211 12 18.75 12H15.6C14.9925 12 14.5 12.4925 14.5 13.1V17.5H14C13.4477 17.5 13 17.9477 13 18.5C13 19.0523 13.4477 19.5 14 19.5H14.5V20.5H14C13.4477 20.5 13 20.9477 13 21.5C13 22.0523 13.4477 22.5 14 22.5H14.5V23C14.5 23.5523 14.9477 24 15.5 24C16.0523 24 16.5 23.5523 16.5 23V22.5H18.5C19.0523 22.5 19.5 22.0523 19.5 21.5C19.5 20.9477 19.0523 20.5 18.5 20.5H16.5V19.5H18.75Z" fill="black"/>
</svg>
