<svg width="36" height="36" viewBox="0 0 36 36" fill="none" xmlns="http://www.w3.org/2000/svg">
<path fill-rule="evenodd" clip-rule="evenodd" d="M18 36C27.9411 36 36 27.9411 36 18C36 8.05887 27.9411 0 18 0C8.05887 0 0 8.05887 0 18C0 27.9411 8.05887 36 18 36ZM11 8C10.4477 8 10 8.44771 10 9C10 9.55228 10.4477 10 11 10H12V15H24V10H25C25.5523 10 26 9.55228 26 9C26 8.44771 25.5523 8 25 8H11ZM24 26V17H12V26H11C10.4477 26 10 26.4477 10 27C10 27.5523 10.4477 28 11 28H25C25.5523 28 26 27.5523 26 27C26 26.4477 25.5523 26 25 26H24ZM20.5 22.5C20.5 23.9287 19.5 25 18 25C16.5 25 15.5 23.9287 15.5 22.5C15.5 21.4182 16.3599 20.2548 17.2116 19.1024L17.2122 19.1017C17.3324 18.9389 17.4526 18.7764 17.5701 18.6143C17.7795 18.3255 18.2205 18.3255 18.4299 18.6143C18.5476 18.7766 18.6679 18.9394 18.7884 19.1024C19.6401 20.2548 20.5 21.4182 20.5 22.5Z" fill="black"/>
</svg>
