<svg width="36" height="36" viewBox="0 0 36 36" fill="none" xmlns="http://www.w3.org/2000/svg">
<path fill-rule="evenodd" clip-rule="evenodd" d="M18 36C27.9411 36 36 27.9411 36 18C36 8.05887 27.9411 0 18 0C8.05887 0 0 8.05887 0 18C0 27.9411 8.05887 36 18 36ZM16.5 10.25C16.5 9.00736 17.5074 8 18.75 8C19.9896 8 21 9.01187 21 10.2575C21 10.8121 20.7962 11.349 20.429 11.7621L18.7796 13.6178C17.5693 14.9793 17.842 17.0965 19.3577 18.107L28.1972 24H8.54292L15.5932 18.8051C16.0378 18.4774 16.1327 17.8514 15.8051 17.4068C15.4774 16.9622 14.8514 16.8673 14.4068 17.1949L7.35652 22.3899C5.80226 23.5351 6.61229 26 8.54292 26H28.1972C30.176 26 30.9531 23.4335 29.3066 22.3359L20.4671 16.4429C19.9619 16.1061 19.871 15.4003 20.2744 14.9465L21.9239 13.0909C22.6177 12.3103 23 11.3 23 10.2575C23 7.91333 21.1002 6 18.75 6C16.4028 6 14.5 7.90279 14.5 10.25V10.6562C14.5 11.2085 14.9477 11.6562 15.5 11.6562C16.0523 11.6562 16.5 11.2085 16.5 10.6562V10.25Z" fill="black"/>
</svg>
