<svg width="36" height="36" viewBox="0 0 36 36" fill="none" xmlns="http://www.w3.org/2000/svg">
<path fill-rule="evenodd" clip-rule="evenodd" d="M18 36C27.9411 36 36 27.9411 36 18C36 8.05887 27.9411 0 18 0C8.05887 0 0 8.05887 0 18C0 27.9411 8.05887 36 18 36ZM9.21124 12.5813C8.81876 12.0689 8 12.3465 8 12.9919V19.7693C8 22.5385 10.5485 25.5609 13 26.6924L13.8094 27.0659C16.4684 28.2931 19.5316 28.2931 22.1906 27.0659L23 26.6924C25.4515 25.5609 28 22.5385 28 19.7693V12.9919C28 12.3465 27.1812 12.0689 26.7888 12.5813C25.6876 14.0188 23.6485 14.3316 22.1671 13.2903L20.9382 12.4264C19.9044 11.6997 18.4632 12.1321 18 13.3077C17.5368 12.1321 16.0956 11.6997 15.0618 12.4264L13.8329 13.2903C12.3515 14.3316 10.3124 14.0188 9.21124 12.5813ZM15.1055 16.0528C15.3525 15.5588 15.9532 15.3586 16.4472 15.6055C16.7517 15.7578 17.3262 15.875 18 15.875C18.6737 15.875 19.2483 15.7578 19.5528 15.6055C20.0467 15.3586 20.6474 15.5588 20.8944 16.0528C21.1414 16.5467 20.9412 17.1474 20.4472 17.3944C19.7517 17.7422 18.8262 17.875 18 17.875C17.1737 17.875 16.2483 17.7422 15.5528 17.3944C15.0588 17.1474 14.8586 16.5467 15.1055 16.0528Z" fill="black"/>
</svg>
