<svg width="36" height="36" viewBox="0 0 36 36" fill="none" xmlns="http://www.w3.org/2000/svg">
<path fill-rule="evenodd" clip-rule="evenodd" d="M18 36C27.9411 36 36 27.9411 36 18C36 8.05887 27.9411 0 18 0C8.05887 0 0 8.05887 0 18C0 27.9411 8.05887 36 18 36ZM14 13C13.4477 13 13 13.4477 13 14C13 14.5523 13.4477 15 14 15H17C17.5523 15 18 14.5523 18 14C18 13.4477 17.5523 13 17 13H14ZM11 12C11 11.4477 11.4477 11 12 11H25C25.5523 11 26 11.4477 26 12V19C26 19.5523 25.5523 20 25 20H20V23C20 24.6569 18.6569 26 17 26H10V28H8V25V22H10V24H17C17.5523 24 18 23.5523 18 23V20H12C11.4477 20 11 19.5523 11 19V12ZM28 12C28.5523 12 29 12.4477 29 13V18C29 18.5523 28.5523 19 28 19C27.4477 19 27 18.5523 27 18V13C27 12.4477 27.4477 12 28 12Z" fill="black"/>
</svg>
