<svg width="36" height="36" viewBox="0 0 36 36" fill="none" xmlns="http://www.w3.org/2000/svg">
<path fill-rule="evenodd" clip-rule="evenodd" d="M18 36C27.9411 36 36 27.9411 36 18C36 8.05887 27.9411 0 18 0C8.05887 0 0 8.05887 0 18C0 27.9411 8.05887 36 18 36ZM10 20.1832V10C10 9.44772 10.4477 9 11 9H25C25.5523 9 26 9.44771 26 10V20.1832C26 20.7258 25.9349 21.2664 25.8061 21.7934C25.3587 23.6237 24.2498 25.2236 22.693 26.2851L22.4444 26.4545L18.523 28.8609C18.2021 29.0578 17.7979 29.0578 17.477 28.8609L13.5556 26.4545L13.307 26.2851C11.7502 25.2236 10.6413 23.6237 10.1939 21.7934C10.0651 21.2664 10 20.7258 10 20.1832ZM14 13H18C18.5523 13 19 12.5523 19 12C19 11.4477 18.5523 11 18 11H13.3C12.582 11 12 11.582 12 12.3V17C12 17.5523 12.4477 18 13 18C13.5523 18 14 17.5523 14 17V13Z" fill="black"/>
</svg>
