<svg width="36" height="36" viewBox="0 0 36 36" fill="none" xmlns="http://www.w3.org/2000/svg">
<path fill-rule="evenodd" clip-rule="evenodd" d="M18 36C27.9411 36 36 27.9411 36 18C36 8.05887 27.9411 0 18 0C8.05887 0 0 8.05887 0 18C0 27.9411 8.05887 36 18 36ZM8 11C7.44772 11 7 11.4477 7 12V25C7 25.5523 7.44772 26 8 26H28C28.5523 26 29 25.5523 29 25V12C29 11.4477 28.5523 11 28 11H8ZM19 19H26.5V17H19V19ZM24.5 23H19V21H24.5V23ZM13 13.5C11.6193 13.5 10.5 14.6193 10.5 16V16.5C10.5 17.8807 11.6193 19 13 19C14.3807 19 15.5 17.8807 15.5 16.5V16C15.5 14.6193 14.3807 13.5 13 13.5ZM9.5 22C9.5 20.8954 10.3954 20 11.5 20H14.5C15.6046 20 16.5 20.8954 16.5 22V23H9.5V22Z" fill="black"/>
</svg>
