<svg width="36" height="36" viewBox="0 0 36 36" fill="none" xmlns="http://www.w3.org/2000/svg">
<path fill-rule="evenodd" clip-rule="evenodd" d="M18 36C27.9412 36 36 27.9411 36 18C36 8.0589 27.9412 0 18 0C8.05884 0 0 8.0589 0 18C0 27.9411 8.05884 36 18 36ZM13 9C13 8.44769 13.4478 8 14 8H26C26.5522 8 27 8.44769 27 9V11C27 11.5523 26.5522 12 26 12H14C13.4478 12 13 11.5523 13 11V9ZM26 13.5H14V17.5002C14.674 17.5055 15.338 17.6401 15.9572 17.8945L16.0084 17.9155L16.0581 17.9403L16.5675 18.196L16.6171 18.2209L16.6646 18.2495C16.8992 18.3902 17.1433 18.5119 17.3949 18.6139L17.4493 18.636L17.991 18.9068C18.4423 19.1324 18.9399 19.2499 19.4445 19.2499H21.5001C22.1121 19.2499 22.667 19.4942 23.0726 19.8906C23.5581 19.7945 24.0316 19.6411 24.4829 19.4328L26 18.7325V13.5ZM8.5 18H7V27H8.5C9.05225 27 9.5 26.5523 9.5 26V19C9.5 18.4477 9.05225 18 8.5 18ZM15.3872 19.282C14.9357 19.0965 14.4506 19 13.9587 19H13.4736C12.8287 19 12.1881 19.1039 11.5763 19.3079L11 19.5V25.5C11.9916 25.5 12.9746 25.6826 13.9 26.0385L15.389 26.6112C17.67 27.4885 20.2268 27.2751 22.3307 26.0319L28.9597 22.1147C29.5583 21.761 29.8094 21.0236 29.5513 20.3781C29.2516 19.6288 28.385 19.2838 27.6523 19.622L23.7489 21.4236C23.7498 21.4489 23.7501 21.4744 23.7501 21.4999C23.7501 22.7426 22.7428 23.7499 21.5001 23.7499L18.2501 23.75C17.8359 23.75 17.5001 23.4142 17.5001 23C17.5001 22.5858 17.8359 22.25 18.2501 22.25L21.5001 22.2499C21.9144 22.2499 22.2501 21.9141 22.2501 21.4999C22.2501 21.0857 21.9144 20.7499 21.5001 20.7499H19.4445C18.707 20.7499 17.9797 20.5782 17.3202 20.2485L16.8311 20.0039C16.6533 19.9318 16.4784 19.8521 16.3068 19.7647C16.1665 19.6934 16.0284 19.617 15.8928 19.5357L15.8834 19.5301L15.3872 19.282Z" fill="black"/>
</svg>
