<svg width="36" height="36" viewBox="0 0 36 36" fill="none" xmlns="http://www.w3.org/2000/svg">
<path fill-rule="evenodd" clip-rule="evenodd" d="M18 36C27.9411 36 36 27.9411 36 18C36 8.05887 27.9411 0 18 0C8.05887 0 0 8.05887 0 18C0 27.9411 8.05887 36 18 36ZM27.2071 7.79289C27.5976 8.18342 27.5976 8.81658 27.2071 9.20711L9.20711 27.2071C8.81658 27.5976 8.18342 27.5976 7.79289 27.2071C7.40237 26.8166 7.40237 26.1834 7.79289 25.7929L10.471 23.1148C9.84954 22.2638 9.36495 21.3121 9.04624 20.3005C8.88028 19.7738 9.17276 19.2122 9.69952 19.0462C10.2263 18.8803 10.7878 19.1728 10.9538 19.6995C11.1765 20.4064 11.4993 21.0733 11.9058 21.68L13.8284 19.7574C13.3049 18.9669 13 18.0191 13 17V13C13 10.2386 15.2386 8 18 8C20.0508 8 21.8132 9.23469 22.5845 11.0013L25.7929 7.79289C26.1834 7.40237 26.8166 7.40237 27.2071 7.79289ZM13.2447 25.6696L14.7138 24.2004C15.6985 24.7091 16.8107 24.999 17.9936 25L18 25L18.0064 25C21.3315 24.9971 24.0971 22.7121 25.0462 19.6995C25.2122 19.1728 25.7738 18.8803 26.3005 19.0462C26.8273 19.2122 27.1198 19.7738 26.9538 20.3005C25.8616 23.7673 22.8211 26.531 19 26.9461V29.5C19 30.0523 18.5523 30.5 18 30.5C17.4477 30.5 17 30.0523 17 29.5V26.9461C15.6299 26.7972 14.3602 26.3464 13.2447 25.6696ZM23 17V16L17.084 21.9162C17.381 21.9712 17.6872 22 18.0002 22C20.7615 22 23 19.7614 23 17Z" fill="black"/>
</svg>
