<svg width="36" height="36" viewBox="0 0 36 36" fill="none" xmlns="http://www.w3.org/2000/svg">
<path fill-rule="evenodd" clip-rule="evenodd" d="M18 36C8.05887 36 0 27.9411 0 18C0 8.05887 8.05887 0 18 0C27.9411 0 36 8.05887 36 18C36 27.9411 27.9411 36 18 36ZM17.0151 6.03734C20.3862 7.88959 23.2975 10.681 25.3144 14.2853C27.0334 17.3574 27.9096 20.675 28.0161 23.9677C28.034 24.5197 27.601 24.9817 27.049 24.9995C26.497 25.0174 26.035 24.5844 26.0171 24.0324C25.9207 21.0522 25.1282 18.0483 23.569 15.2619C21.7402 11.9937 19.1042 9.46719 16.052 7.79018C15.5679 7.52424 15.3911 6.91625 15.6571 6.43222C15.923 5.94818 16.531 5.77139 17.0151 6.03734ZM20.2365 25H23.9878C24.1059 21.8233 23.3671 18.6063 21.6318 15.6638C19.8966 12.7213 17.417 10.4688 14.5594 9.00002L9.8942 17.0743C10.9462 16.811 12.0878 17.2586 12.6606 18.243C13.3548 19.4363 12.9502 20.9664 11.757 21.6606C10.5637 22.3548 9.03365 21.9502 8.33945 20.757C8.23265 20.5734 8.15186 20.3819 8.09594 20.1866L6.15814 23.5405C5.77227 24.2083 6.12042 25.0009 6.89963 25H15.7638C15.6311 24.8514 15.5114 24.6873 15.4073 24.5084C14.5743 23.0765 15.0598 21.2404 16.4916 20.4074C17.9235 19.5743 19.7596 20.0598 20.5927 21.4917C21.2629 22.6438 21.0796 24.0576 20.2365 25ZM14.272 16.0056C14.8274 16.9602 16.0515 17.2838 17.0061 16.7285C17.9607 16.1731 18.2843 14.949 17.7289 13.9944C17.1736 13.0399 15.9495 12.7162 14.9949 13.2716C14.0403 13.8269 13.7167 15.051 14.272 16.0056Z" fill="black"/>
</svg>
