<svg width="36" height="36" viewBox="0 0 36 36" fill="none" xmlns="http://www.w3.org/2000/svg">
<path fill-rule="evenodd" clip-rule="evenodd" d="M18 36C27.9411 36 36 27.9411 36 18C36 8.05887 27.9411 0 18 0C8.05887 0 0 8.05887 0 18C0 27.9411 8.05887 36 18 36ZM14.5 9C14.5 8.17157 13.8284 7.5 13 7.5C12.1716 7.5 11.5 8.17157 11.5 9V10H9C8.44772 10 8 10.4477 8 11V14H28V11C28 10.4477 27.5523 10 27 10H24.5V9C24.5 8.17157 23.8284 7.5 23 7.5C22.1716 7.5 21.5 8.17157 21.5 9V10H14.5V9ZM28 27V16H8V27C8 27.5523 8.44772 28 9 28H27C27.5523 28 28 27.5523 28 27ZM23.7071 18.2929C24.0976 18.6834 24.0976 19.3166 23.7071 19.7071L19.2717 24.1425C18.8694 24.5448 18.2267 24.574 17.7897 24.2098L15.5614 22.3528L13.7071 24.2071C13.3166 24.5976 12.6834 24.5976 12.2929 24.2071C11.9024 23.8166 11.9024 23.1834 12.2929 22.7929L14.7283 20.3575C15.1306 19.9552 15.7733 19.926 16.2103 20.2902L18.4386 22.1472L22.2929 18.2929C22.6834 17.9024 23.3166 17.9024 23.7071 18.2929Z" fill="black"/>
</svg>
