<svg width="36" height="36" viewBox="0 0 36 36" fill="none" xmlns="http://www.w3.org/2000/svg">
<path fill-rule="evenodd" clip-rule="evenodd" d="M18 36C27.9411 36 36 27.9411 36 18C36 8.05887 27.9411 0 18 0C8.05887 0 0 8.05887 0 18C0 27.9411 8.05887 36 18 36ZM17.2071 25.7071C17.5976 25.3166 17.5976 24.6834 17.2071 24.2929C16.8166 23.9024 16.1834 23.9024 15.7929 24.2929L15.2929 24.7929C14.9024 25.1834 14.9024 25.8166 15.2929 26.2071C15.6834 26.5976 16.3166 26.5976 16.7071 26.2071L17.2071 25.7071ZM8 9C8.55228 9 9 9.44771 9 10C9 10.3185 9.01651 10.6329 9.04865 10.9422C9.10573 11.4916 8.70668 11.9832 8.15735 12.0402C7.60802 12.0973 7.11644 11.6983 7.05936 11.1489C7.02009 10.771 7 10.3877 7 10C7 9.44771 7.44772 9 8 9ZM28 9C28.5523 9 29 9.44771 29 10C29 10.3877 28.9799 10.771 28.9406 11.1489C28.8836 11.6983 28.392 12.0973 27.8427 12.0402C27.2933 11.9832 26.8943 11.4916 26.9513 10.9422C26.9835 10.6329 27 10.3185 27 10C27 9.44771 27.4477 9 28 9ZM8.45506 13.1552C8.95946 12.9302 9.5507 13.1568 9.77563 13.6612C10.033 14.2385 10.3496 14.7839 10.7177 15.2897C11.0427 15.7363 10.9442 16.3617 10.4976 16.6867C10.0511 17.0117 9.42564 16.9132 9.10066 16.4666C8.65101 15.8488 8.26396 15.1821 7.949 14.4757C7.72408 13.9713 7.95065 13.3801 8.45506 13.1552ZM27.5449 13.1552C28.0494 13.3801 28.2759 13.9713 28.051 14.4757C27.736 15.1821 27.349 15.8488 26.8993 16.4666C26.5744 16.9132 25.9489 17.0117 25.5024 16.6867C25.0558 16.3617 24.9573 15.7363 25.2823 15.2897C25.6504 14.7839 25.967 14.2385 26.2244 13.6612C26.4493 13.1568 27.0405 12.9302 27.5449 13.1552ZM11.3133 17.5024C11.6383 17.0558 12.2637 16.9573 12.7103 17.2823C13.2161 17.6504 13.7615 17.967 14.3388 18.2244C14.8432 18.4493 15.0698 19.0405 14.8448 19.5449C14.6199 20.0494 14.0287 20.2759 13.5243 20.051C12.8179 19.736 12.1512 19.349 11.5334 18.8993C11.0868 18.5744 10.9883 17.9489 11.3133 17.5024ZM24.6867 17.5024C25.0117 17.9489 24.9132 18.5744 24.4666 18.8993C23.8488 19.349 23.1821 19.736 22.4757 20.051C21.9713 20.2759 21.3801 20.0494 21.1552 19.5449C20.9302 19.0405 21.1568 18.4493 21.6612 18.2244C22.2385 17.967 22.7839 17.6504 23.2897 17.2823C23.7363 16.9573 24.3617 17.0558 24.6867 17.5024ZM15.9598 19.8427C16.0168 19.2933 16.5084 18.8943 17.0578 18.9513C17.3671 18.9835 17.6815 19 18 19C18.3185 19 18.6329 18.9835 18.9422 18.9513C19.4916 18.8943 19.9832 19.2933 20.0402 19.8427C20.0973 20.392 19.6983 20.8836 19.1489 20.9406C18.771 20.9799 18.3877 21 18 21C17.6123 21 17.229 20.9799 16.8511 20.9406C16.3017 20.8836 15.9027 20.392 15.9598 19.8427ZM13.5523 25.5139L15.1996 23.3876C15.389 23.1431 15.6809 23 15.9902 23H20.0096C20.3189 23 20.6107 23.1431 20.8001 23.3876L22.4475 25.5139C22.7614 25.919 22.7182 26.4958 22.3475 26.8497L18.6904 30.3408C18.304 30.7097 17.6958 30.7097 17.3094 30.3408L13.6523 26.8497C13.2816 26.4958 13.2384 25.919 13.5523 25.5139Z" fill="black"/>
</svg>
