<svg width="36" height="36" viewBox="0 0 36 36" fill="none" xmlns="http://www.w3.org/2000/svg">
<path fill-rule="evenodd" clip-rule="evenodd" d="M18 36C27.9411 36 36 27.9411 36 18C36 8.05887 27.9411 0 18 0C8.05887 0 0 8.05887 0 18C0 27.9411 8.05887 36 18 36ZM20 7H10C9.44772 7 9 7.44772 9 8V28C9 28.5523 9.44772 29 10 29H26C26.5523 29 27 28.5523 27 28V14H21.1C20.4925 14 20 13.5075 20 12.9V7ZM26.5091 12L22 7.40741V12H26.5091ZM23.6511 25.0055C23.6511 24.836 23.5836 24.7077 23.4488 24.6204C23.3139 24.5331 23.144 24.456 22.9392 24.3893C22.7393 24.3225 22.522 24.2558 22.2872 24.189C22.0524 24.1222 21.8326 24.0272 21.6277 23.904C21.4279 23.7756 21.2605 23.6087 21.1256 23.4033C20.9907 23.1928 20.9233 22.9129 20.9233 22.5637C20.9233 22.3223 20.9608 22.1066 21.0357 21.9166C21.1107 21.7215 21.2331 21.5572 21.4029 21.4237C21.5728 21.285 21.7926 21.1797 22.0624 21.1078C22.3322 21.0359 22.6619 21 23.0516 21C23.4013 21 23.721 21.0231 24.0108 21.0693C24.3006 21.1155 24.5404 21.1823 24.7302 21.2696V22.5098C24.5304 22.3711 24.2906 22.2581 24.0108 22.1708C23.731 22.0835 23.4413 22.0399 23.1415 22.0399C22.9517 22.0399 22.7943 22.0527 22.6694 22.0784C22.5445 22.1041 22.4446 22.14 22.3696 22.1862C22.2997 22.2325 22.2497 22.2864 22.2198 22.348C22.1898 22.4096 22.1748 22.4764 22.1748 22.5483C22.1748 22.6972 22.2447 22.8127 22.3846 22.8949C22.5245 22.9719 22.6994 23.0438 22.9092 23.1106C23.119 23.1722 23.3438 23.239 23.5836 23.3109C23.8284 23.3828 24.0558 23.4829 24.2656 23.6113C24.4754 23.7397 24.6503 23.9117 24.7902 24.1274C24.9301 24.3379 25 24.6152 25 24.9593C25 25.2212 24.9575 25.4548 24.8726 25.6602C24.7877 25.8605 24.6553 26.03 24.4754 26.1686C24.2956 26.3073 24.0633 26.4151 23.7785 26.4922C23.4987 26.5641 23.1615 26.6 22.7668 26.6C22.4071 26.6 22.0624 26.5666 21.7326 26.4999C21.4079 26.4331 21.1456 26.3432 20.9458 26.2303V24.9439C21.0157 25.0055 21.1032 25.0723 21.2081 25.1442C21.318 25.216 21.4454 25.2828 21.5903 25.3444C21.7401 25.4061 21.905 25.4574 22.0849 25.4985C22.2697 25.5396 22.472 25.5601 22.6919 25.5601C23.0316 25.5601 23.2764 25.5088 23.4263 25.4061C23.5762 25.3033 23.6511 25.1698 23.6511 25.0055ZM11.1199 21.1079L12.5363 23.7346L11 26.4999H12.4238L13.443 24.5126L14.5147 26.4999H15.976L14.3873 23.7115L15.886 21.1079H14.4847L13.4955 22.9874L12.5512 21.1079H11.1199ZM16.5032 21.1079H17.7322V25.3368H20.4151V26.4999H16.5032V21.1079Z" fill="black"/>
</svg>
