<svg width="36" height="36" viewBox="0 0 36 36" fill="none" xmlns="http://www.w3.org/2000/svg">
<path fill-rule="evenodd" clip-rule="evenodd" d="M18 36C27.9411 36 36 27.9411 36 18C36 8.05887 27.9411 0 18 0C8.05887 0 0 8.05887 0 18C0 27.9411 8.05887 36 18 36ZM13 10C11.3431 10 10 11.3431 10 13V23C10 24.6569 11.3431 26 13 26H23C24.6569 26 26 24.6569 26 23V13C26 11.3431 24.6569 10 23 10H13ZM7.97634 13.8373C8.46194 13.5742 8.64234 12.9673 8.37926 12.4817C8.11619 11.9961 7.50926 11.8157 7.02366 12.0788L6.54732 12.3368C5.902 12.6864 5.5 13.3614 5.5 14.0953V21.8817C5.5 22.6393 5.928 23.3318 6.60557 23.6706L7.05279 23.8942C7.54676 24.1412 8.14744 23.941 8.39443 23.447C8.64142 22.953 8.44119 22.3523 7.94721 22.1053L7.5 21.8817V14.0953L7.97634 13.8373ZM27.5909 12.6254C27.3608 13.1275 27.5813 13.721 28.0834 13.9511L28.5 14.142V21.8822L28.0528 22.1058C27.5588 22.3528 27.3586 22.9535 27.6056 23.4475C27.8526 23.9414 28.4532 24.1417 28.9472 23.8947L29.3944 23.6711C30.072 23.3323 30.5 22.6398 30.5 21.8822V14.142C30.5 13.3599 30.0442 12.6496 29.3332 12.3238L28.9166 12.1329C28.4145 11.9028 27.821 12.1233 27.5909 12.6254Z" fill="black"/>
</svg>
