<svg width="36" height="36" viewBox="0 0 36 36" fill="none" xmlns="http://www.w3.org/2000/svg">
<path fill-rule="evenodd" clip-rule="evenodd" d="M0 18C0 8.05887 8.05887 0 18 0C27.9411 0 36 8.05887 36 18C36 27.9411 27.9411 36 18 36C8.05887 36 0 27.9411 0 18ZM26 23C25.4477 23 25 22.5523 25 22V10C25 9.44772 25.4477 9 26 9C26.5523 9 27 9.44772 27 10V22C27 22.5523 26.5523 23 26 23ZM23 20.7868V11.0002C23 10.4479 22.5523 10.0002 22 10.0002H13.0965C12.1627 10.0002 11.3531 10.6464 11.1462 11.557L9.55528 18.557C9.27084 19.8085 10.2221 21.0002 11.5055 21.0002H15L14.6189 21.8577C13.5456 24.2726 11.7961 28.2219 14.327 28.9823C14.7362 29.1052 15.1281 28.7952 15.3546 28.4329L16.4901 26.616C17.1615 25.5418 17.9028 24.4952 18.8713 23.6788C19.6853 22.9927 20.6845 22.3678 22.3279 21.7431C22.7269 21.5915 23 21.2137 23 20.7868Z" fill="black"/>
</svg>
