<svg width="36" height="36" viewBox="0 0 36 36" fill="none" xmlns="http://www.w3.org/2000/svg">
<path fill-rule="evenodd" clip-rule="evenodd" d="M18 36C27.9411 36 36 27.9411 36 18C36 8.05887 27.9411 0 18 0C8.05887 0 0 8.05887 0 18C0 27.9411 8.05887 36 18 36ZM5.76389 14C6.31321 13.3863 7.1115 13 8 13H14C14.8885 13 15.6868 13.3863 16.2361 14H19.7639C20.3132 13.3863 21.1115 13 22 13H28C28.8885 13 29.6868 13.3863 30.2361 14H32C32.5523 14 33 14.4477 33 15C33 15.5523 32.5523 16 32 16H31V20C31 22.2091 29.2091 24 27 24H23C20.7909 24 19 22.2091 19 20V16H17V20C17 22.2091 15.2091 24 13 24H9C6.79086 24 5 22.2091 5 20V16H4C3.44772 16 3 15.5523 3 15C3 14.4477 3.44772 14 4 14H5.76389ZM12 17H9V19C9 19.5523 8.55228 20 8 20C7.44772 20 7 19.5523 7 19V16.1C7 15.4925 7.49249 15 8.1 15H12C12.5523 15 13 15.4477 13 16C13 16.5523 12.5523 17 12 17ZM26 17H23V19C23 19.5523 22.5523 20 22 20C21.4477 20 21 19.5523 21 19V16.1C21 15.4925 21.4925 15 22.1 15H26C26.5523 15 27 15.4477 27 16C27 16.5523 26.5523 17 26 17Z" fill="black"/>
</svg>
