<svg width="36" height="36" viewBox="0 0 36 36" fill="none" xmlns="http://www.w3.org/2000/svg">
<path fill-rule="evenodd" clip-rule="evenodd" d="M18 36C27.9411 36 36 27.9411 36 18C36 8.05887 27.9411 0 18 0C8.05887 0 0 8.05887 0 18C0 27.9411 8.05887 36 18 36ZM9.70713 10.2933L6.41435 13.5858C5.63323 14.3668 5.6332 15.6332 6.41428 16.4143L17.2929 27.2929C17.6834 27.6834 18.3166 27.6834 18.7071 27.2929L29.5857 16.4143C30.3668 15.6332 30.3668 14.3668 29.5856 13.5858L26.2929 10.2933C26.1053 10.1058 25.851 10.0005 25.5858 10.0005L18 10L10.4141 10.0005C10.149 10.0005 9.89465 10.1058 9.70713 10.2933ZM9 14C8.44772 14 8 14.4477 8 15C8 15.5523 8.44771 16 9 16H11C11.5523 16 12 15.5523 12 15C12 14.4477 11.5514 14 10.9991 14H9ZM15 14C14.4477 14 14 14.4477 14 15C14 15.5523 14.4477 16 15 16H26.9999C27.5522 16 28 15.5523 28 15C28 14.4477 27.552 14 26.9997 14H15Z" fill="black"/>
</svg>
