<svg width="36" height="36" viewBox="0 0 36 36" fill="none" xmlns="http://www.w3.org/2000/svg">
<path fill-rule="evenodd" clip-rule="evenodd" d="M36 18C36 27.9411 27.9411 36 18 36C8.05887 36 0 27.9411 0 18C0 8.05887 8.05887 0 18 0C27.9411 0 36 8.05887 36 18ZM7.53857 10C6.98629 10 6.53857 10.4477 6.53857 11V24.9998C6.53857 25.5521 6.98629 25.9998 7.53857 25.9998H14.6756C15.8182 25.9998 16.8881 26.5603 17.5386 27.4998V11.9999V11C17.5386 10.4477 17.0909 10 16.5386 10H7.53857ZM9.5 15H15V13H9.5V15ZM15 19H9.5V17H15V19ZM9.5 23H15V21H9.5V23ZM29.5 11C29.5 10.4477 29.0523 10 28.5 10H19.5C18.9477 10 18.5 10.4477 18.5 11V12V27.5C19.1247 26.5629 20.1765 26 21.3028 26H28.5C29.0523 26 29.5 25.5523 29.5 25V11ZM26.5 15H21V13H26.5V15ZM21 19H26.5V17H21V19ZM26.5 23H21V21H26.5V23Z" fill="black"/>
</svg>
