<svg width="36" height="36" viewBox="0 0 36 36" fill="none" xmlns="http://www.w3.org/2000/svg">
<path fill-rule="evenodd" clip-rule="evenodd" d="M18 36C27.9411 36 36 27.9411 36 18C36 8.05887 27.9411 0 18 0C8.05887 0 0 8.05887 0 18C0 27.9411 8.05887 36 18 36ZM12.5154 16.4519L12.5701 16.3023L8.31969 9.17438C8.17208 8.92685 7.81515 8.94675 7.69462 9.20923L7.41383 9.82071C5.64246 13.6783 5.53077 18.1205 7.10594 22.0665C7.80593 23.82 9.79686 24.6145 11.4696 23.8078L13.42 22.8672C14.4833 22.3544 15.7362 22.9844 15.9911 24.16C16.1861 25.0592 15.7165 25.9707 14.882 26.3128L12.7927 27.1692C12.5014 27.2886 12.4378 27.6824 12.676 27.8916L12.8563 28.05C14.2888 29.3083 16.1133 30 18 30C19.8867 30 21.7112 29.3083 23.1437 28.05L23.324 27.8916C23.5622 27.6824 23.4986 27.2886 23.2073 27.1692L21.118 26.3128C20.2835 25.9707 19.8139 25.0592 20.0089 24.16C20.2638 22.9844 21.5167 22.3544 22.58 22.8672L24.5304 23.8078C26.2031 24.6145 28.1941 23.82 28.8941 22.0665C30.4692 18.1205 30.3575 13.6783 28.5862 9.82071L28.3054 9.20923C28.1849 8.94675 27.8279 8.92685 27.6803 9.17438L23.4299 16.3023L23.4846 16.4519C24.0171 17.9071 22.8125 19.4072 21.3166 19.1517C20.3668 18.9895 19.6707 18.1474 19.6707 17.1606V15.8742C19.6707 14.9286 20.4187 14.162 21.3415 14.162H22.2244C22.4017 14.162 22.5229 13.9785 22.457 13.8098L22.0162 12.6803C21.8516 12.2586 21.5303 11.9213 21.1231 11.7424L19.1974 10.8966C18.9941 10.8073 18.7581 10.8959 18.6592 11.0986L18.0882 12.2691C18.0302 12.3879 18 12.519 18 12.6519C18 12.519 17.9698 12.3879 17.9118 12.2691L17.3408 11.0986C17.2419 10.8959 17.0059 10.8073 16.8026 10.8966L14.8769 11.7424C14.4697 11.9213 14.1484 12.2586 13.9838 12.6803L13.543 13.8098C13.4771 13.9785 13.5983 14.162 13.7756 14.162H14.6585C15.5813 14.162 16.3293 14.9286 16.3293 15.8742V17.1606C16.3293 18.1474 15.6332 18.9895 14.6834 19.1517C13.1875 19.4072 11.9829 17.9071 12.5154 16.4519Z" fill="black"/>
</svg>
