<svg width="36" height="36" viewBox="0 0 36 36" fill="none" xmlns="http://www.w3.org/2000/svg">
<path fill-rule="evenodd" clip-rule="evenodd" d="M18 36C27.9411 36 36 27.9411 36 18C36 8.05887 27.9411 0 18 0C8.05887 0 0 8.05887 0 18C0 27.9411 8.05887 36 18 36ZM21.7066 9.29314C21.3161 8.90261 20.6829 8.90261 20.2924 9.29314C19.9019 9.68366 19.9019 10.3168 20.2924 10.7074L22.0853 12.5002L20.2924 14.2931C19.9019 14.6837 19.9019 15.3168 20.2924 15.7074C20.6829 16.0979 21.3161 16.0979 21.7066 15.7074L23.4995 13.9145L25.2924 15.7074C25.6829 16.0979 26.3161 16.0979 26.7066 15.7074C27.0972 15.3168 27.0972 14.6837 26.7066 14.2931L24.9137 12.5002L26.7066 10.7074C27.0972 10.3168 27.0972 9.68366 26.7066 9.29314C26.3161 8.90261 25.6829 8.90261 25.2924 9.29314L23.4995 11.086L21.7066 9.29314ZM12.016 23.9843C10.0582 22.0053 7.36825 18.6612 6.99953 14.0005C6.90843 12.849 7.36549 11.6903 8.24178 10.8234L9.35139 9.72565C10.2638 8.82304 11.6611 8.75615 12.4725 9.57625L14.676 11.8037C15.4873 12.6238 15.4054 14.0203 14.493 14.9229L13.1831 16.2188C12.964 16.4355 12.8345 16.7241 12.9116 16.9968C13.1361 17.7901 13.8971 19.2772 15.3201 20.7157C16.7431 22.1541 18.2221 22.9309 19.013 23.1639C19.2848 23.244 19.5748 23.1176 19.7938 22.9009L21.1037 21.605C22.0161 20.7024 23.4135 20.6355 24.2248 21.4556L26.4283 23.683C27.2396 24.5031 27.1577 25.8996 26.2453 26.8022L25.1357 27.9C23.9995 29.0005 22.65 29.104 21.4995 29.0005C16.843 28.5816 13.9739 25.9634 12.016 23.9843Z" fill="black"/>
</svg>
