<svg width="36" height="36" viewBox="0 0 36 36" fill="none" xmlns="http://www.w3.org/2000/svg">
<path fill-rule="evenodd" clip-rule="evenodd" d="M18 36C27.9411 36 36 27.9411 36 18C36 8.05887 27.9411 0 18 0C8.05887 0 0 8.05887 0 18C0 27.9411 8.05887 36 18 36ZM8 10C7.44772 10 7 10.4477 7 11V15H8.76756C9.11337 14.4022 9.75972 14 10.5 14C11.6046 14 12.5 14.8954 12.5 16C12.5 17.1046 11.6046 18 10.5 18C9.75972 18 9.11337 17.5978 8.76756 17H7V21C7 21.5523 7.44772 22 8 22H28C28.5523 22 29 21.5523 29 21V17H27.2324C26.8866 17.5978 26.2403 18 25.5 18C24.3954 18 23.5 17.1046 23.5 16C23.5 14.8954 24.3954 14 25.5 14C26.2403 14 26.8866 14.4022 27.2324 15H29V11C29 10.4477 28.5523 10 28 10H8ZM18 20C20.2091 20 22 18.2091 22 16C22 13.7909 20.2091 12 18 12C15.7909 12 14 13.7909 14 16C14 18.2091 15.7909 20 18 20ZM7 25C7 24.4477 7.44772 24 8 24H28C28.5523 24 29 24.4477 29 25C29 25.5523 28.5523 26 28 26H8C7.44772 26 7 25.5523 7 25Z" fill="black"/>
</svg>
