<svg width="36" height="36" viewBox="0 0 36 36" fill="none" xmlns="http://www.w3.org/2000/svg">
<path fill-rule="evenodd" clip-rule="evenodd" d="M18 36C27.9411 36 36 27.9411 36 18C36 8.05887 27.9411 0 18 0C8.05887 0 0 8.05887 0 18C0 27.9411 8.05887 36 18 36ZM9 11C7.89543 11 7 11.8954 7 13V24C7 25.1046 7.89543 26 9 26H27C28.1046 26 29 25.1046 29 24V13C29 11.8954 28.1046 11 27 11H9ZM10 13C9.44772 13 9 13.4477 9 14C9 14.5523 9.44772 15 10 15H26C26.5523 15 27 14.5523 27 14C27 13.4477 26.5523 13 26 13H10ZM9 18C9 17.4477 9.44772 17 10 17H15.443C15.8567 17 16.2349 17.2337 16.4199 17.6038C17.0709 18.9058 18.9291 18.9058 19.5801 17.6038C19.7651 17.2337 20.1433 17 20.557 17H26C26.5523 17 27 17.4477 27 18C27 18.5523 26.5523 19 26 19H21.0701C19.5906 21.1071 16.4094 21.1071 14.9299 19H10C9.44772 19 9 18.5523 9 18Z" fill="black"/>
</svg>
