<svg width="36" height="36" viewBox="0 0 36 36" fill="none" xmlns="http://www.w3.org/2000/svg">
<path fill-rule="evenodd" clip-rule="evenodd" d="M18 36C27.9411 36 36 27.9411 36 18C36 8.05887 27.9411 0 18 0C8.05887 0 0 8.05887 0 18C0 27.9411 8.05887 36 18 36ZM20 7H10C9.44772 7 9 7.44772 9 8V28C9 28.5523 9.44772 29 10 29H26C26.5523 29 27 28.5523 27 28V14H21.1C20.4925 14 20 13.5075 20 12.9V7ZM26.5091 12L22 7.40741V12H26.5091ZM11.4687 21.0397C11.331 21.045 11.1748 21.0503 11 21.0556V26.6H12.3027V25.1782C12.4086 25.1887 12.5039 25.1967 12.5887 25.202H12.8746C13.7696 25.202 14.4235 25.0272 14.8366 24.6777C15.2496 24.3229 15.4562 23.7722 15.4562 23.0255C15.4562 22.6601 15.4112 22.3504 15.3211 22.0962C15.2311 21.8367 15.0828 21.6275 14.8763 21.4687C14.6751 21.3045 14.4103 21.1853 14.082 21.1112C13.759 21.0371 13.3618 21 12.8905 21C12.684 21 12.5013 21.0026 12.3424 21.0079C12.1888 21.0079 12.0406 21.0106 11.8976 21.0159C11.7546 21.0212 11.6116 21.0291 11.4687 21.0397ZM12.5887 24.1217C12.5092 24.1164 12.4139 24.1085 12.3027 24.0979V22.1041C12.4086 22.0935 12.5039 22.0882 12.5887 22.0882C12.6734 22.0829 12.7687 22.0803 12.8746 22.0803C13.1182 22.0803 13.3194 22.1015 13.4783 22.1438C13.6372 22.1862 13.7643 22.2497 13.8596 22.3345C13.9549 22.4139 14.0211 22.5172 14.0582 22.6443C14.0952 22.7713 14.1138 22.9196 14.1138 23.0891C14.1138 23.2638 14.0926 23.4148 14.0502 23.5418C14.0078 23.6689 13.939 23.7775 13.8437 23.8675C13.7484 23.9522 13.6213 24.0158 13.4624 24.0582C13.3035 24.1005 13.1076 24.1217 12.8746 24.1217H12.5887ZM21.0241 22.1677H22.7001V26.6001H24.0028V22.1677H25.6788V21.0398H21.0241V22.1677ZM16.1835 21.0556C16.3583 21.0503 16.5145 21.045 16.6522 21.0397C16.7952 21.0291 16.9381 21.0212 17.0811 21.0159C17.2241 21.0106 17.3724 21.0079 17.5259 21.0079C17.6848 21.0026 17.8675 21 18.074 21C18.5453 21 18.9425 21.0371 19.2655 21.1112C19.5938 21.1853 19.8586 21.3045 20.0598 21.4687C20.2664 21.6275 20.4146 21.8367 20.5047 22.0962C20.5947 22.3504 20.6397 22.6601 20.6397 23.0255C20.6397 23.7722 20.4332 24.3229 20.0201 24.6777C19.6071 25.0272 18.9531 25.202 18.0581 25.202H17.7722C17.6875 25.1967 17.5921 25.1887 17.4862 25.1782V26.6H16.1835V21.0556ZM17.4862 24.0979C17.5974 24.1085 17.6928 24.1164 17.7722 24.1217H18.0581C18.2911 24.1217 18.4871 24.1005 18.6459 24.0582C18.8048 24.0158 18.9319 23.9522 19.0272 23.8675C19.1225 23.7775 19.1914 23.6689 19.2337 23.5418C19.2761 23.4148 19.2973 23.2638 19.2973 23.0891C19.2973 22.9196 19.2788 22.7713 19.2417 22.6443C19.2046 22.5172 19.1384 22.4139 19.0431 22.3345C18.9478 22.2497 18.8207 22.1862 18.6618 22.1438C18.503 22.1015 18.3017 22.0803 18.0581 22.0803C17.9522 22.0803 17.8569 22.0829 17.7722 22.0882C17.6875 22.0882 17.5921 22.0935 17.4862 22.1041V24.0979Z" fill="black"/>
</svg>
