<svg width="36" height="36" viewBox="0 0 36 36" fill="none" xmlns="http://www.w3.org/2000/svg">
<path fill-rule="evenodd" clip-rule="evenodd" d="M18 36C27.9411 36 36 27.9411 36 18C36 8.05887 27.9411 0 18 0C8.05887 0 0 8.05887 0 18C0 27.9411 8.05887 36 18 36ZM6.1171 15.7605C5.68752 15.331 5.68753 14.6345 6.1171 14.2049L12.1857 8.13636C13.3572 6.96478 15.2567 6.96478 16.4283 8.13635L23.5976 15.3056C23.9881 15.6962 23.9881 16.3293 23.5976 16.7199C23.2071 17.1104 22.5739 17.1104 22.1834 16.7199L17.0537 11.5902L10.278 18.3658C9.84847 18.7954 9.15198 18.7954 8.7224 18.3658L6.1171 15.7605ZM19.1685 8.87825C18.9371 8.64687 18.9371 8.27172 19.1685 8.04034C20.0861 7.12271 21.5739 7.12271 22.4915 8.04034L26.6063 12.1551C26.8406 12.3894 26.8406 12.7693 26.6063 13.0036L25.3744 14.2356C25.1401 14.4699 24.7602 14.4699 24.5259 14.2356L19.1685 8.87825ZM16.9982 28.1051C17.2296 27.8737 17.2296 27.4985 16.9982 27.2672L11.6409 21.9098C11.4066 21.6755 11.0267 21.6755 10.7924 21.9098L9.56041 23.1418C9.3261 23.3761 9.3261 23.756 9.56041 23.9903L13.6752 28.1051C14.5928 29.0227 16.0806 29.0227 16.9982 28.1051ZM30.05 20.3851C30.4796 20.8147 30.4796 21.5112 30.05 21.9407L23.9814 28.0093C22.8099 29.1809 20.9104 29.1809 19.7388 28.0093L12.5695 20.84C12.179 20.4495 12.179 19.8163 12.5695 19.4258C12.96 19.0353 13.5932 19.0353 13.9837 19.4258L19.1134 24.5555L25.8891 17.7798C26.3186 17.3502 27.0151 17.3502 27.4447 17.7798L30.05 20.3851Z" fill="black"/>
</svg>
