<svg width="36" height="36" viewBox="0 0 36 36" fill="none" xmlns="http://www.w3.org/2000/svg">
<path fill-rule="evenodd" clip-rule="evenodd" d="M18 36C27.9411 36 36 27.9411 36 18C36 8.05887 27.9411 0 18 0C8.05887 0 0 8.05887 0 18C0 27.9411 8.05887 36 18 36ZM18 4C18.5523 4 19 4.44772 19 5V7C19 7.55228 18.5523 8 18 8C17.4477 8 17 7.55228 17 7V5C17 4.44772 17.4477 4 18 4ZM14 6C14 5.44772 13.5523 5 13 5C12.4477 5 12 5.44772 12 6V8C12 8.55228 12.4477 9 13 9C13.5523 9 14 8.55228 14 8V6ZM18 30C23.5228 30 28 25.5228 28 20C28 14.4772 23.5228 10 18 10C12.4772 10 8 14.4772 8 20C8 25.5228 12.4772 30 18 30ZM24 6C24 5.44772 23.5523 5 23 5C22.4477 5 22 5.44772 22 6V8C22 8.55228 22.4477 9 23 9C23.5523 9 24 8.55228 24 8V6ZM17 20V16.5H19.25C20.2165 16.5 21 17.2835 21 18.25C21 19.2165 20.2165 20 19.25 20H17ZM19.25 22C21.3211 22 23 20.3211 23 18.25C23 16.1789 21.3211 14.5 19.25 14.5H16.1C15.4925 14.5 15 14.9925 15 15.6V20H14.5C13.9477 20 13.5 20.4477 13.5 21C13.5 21.5523 13.9477 22 14.5 22H15V23H14.5C13.9477 23 13.5 23.4477 13.5 24C13.5 24.5523 13.9477 25 14.5 25H15V25.5C15 26.0523 15.4477 26.5 16 26.5C16.5523 26.5 17 26.0523 17 25.5V25H19C19.5523 25 20 24.5523 20 24C20 23.4477 19.5523 23 19 23H17V22H19.25Z" fill="black"/>
</svg>
