<svg width="36" height="36" viewBox="0 0 36 36" fill="none" xmlns="http://www.w3.org/2000/svg">
<path d="M12 13H10.8699C10.7222 13 10.5774 13.0327 10.4456 13.0945C10.3645 13.1324 10.2883 13.1815 10.2192 13.2407L7 16H12V13Z" fill="black"/>
<path d="M14 16H21.5L18.2808 13.2407C18.0996 13.0854 17.8689 13 17.6301 13H14V16Z" fill="black"/>
<path fill-rule="evenodd" clip-rule="evenodd" d="M36 18C36 8.05884 27.9412 0 18 0C8.05884 0 0 8.05884 0 18C0 27.9412 8.05884 36 18 36C27.9412 36 36 27.9412 36 18ZM6 12C6 11.4478 5.55225 11 5 11C4.44775 11 4 11.4478 4 12V21.5C4 21.9304 4.27539 22.3126 4.68384 22.4487L6.12451 22.929C6.04321 22.6331 6 22.3217 6 22C6 20.067 7.56689 18.5 9.5 18.5C11.4331 18.5 13 20.067 13 22C13 22.7437 12.7683 23.4331 12.3728 24H24.6272C24.2317 23.4331 24 22.7437 24 22C24 20.067 25.5669 18.5 27.5 18.5C29.4331 18.5 31 20.067 31 22V23.5H31.5C31.5405 23.5 31.5806 23.4976 31.6204 23.4928L31.6372 23.4906L31.6677 23.4858C31.7151 23.4778 31.7617 23.4663 31.8071 23.4517C31.9565 23.4033 32.094 23.3202 32.207 23.2072L33.207 22.2072C33.3281 22.0859 33.415 21.937 33.4614 21.7753C33.4678 21.7531 33.4734 21.7305 33.4783 21.7078L33.4841 21.6779L33.4875 21.658C33.4956 21.6061 33.5 21.5532 33.5 21.5V19.5C33.5 19.1411 33.3076 18.8098 32.9961 18.6317L30.4185 17.1588C29.749 16.7762 29.0015 16.5543 28.2344 16.5088L28.2222 16.5H25.9387C25.6594 16.5 25.3845 16.4414 25.1313 16.3297L19.7053 12.0679C18.8245 11.3761 17.7371 11 16.6169 11H11.5344C10.2996 11 9.1084 11.4569 8.19043 12.2828L6 14.2534V12ZM27.5 23.5C28.3284 23.5 29 22.8284 29 22C29 21.1716 28.3284 20.5 27.5 20.5C26.6716 20.5 26 21.1716 26 22C26 22.8284 26.6716 23.5 27.5 23.5ZM11 22C11 22.8284 10.3284 23.5 9.5 23.5C8.67163 23.5 8 22.8284 8 22C8 21.1716 8.67163 20.5 9.5 20.5C10.3284 20.5 11 21.1716 11 22Z" fill="black"/>
</svg>
