<svg width="36" height="36" viewBox="0 0 36 36" fill="none" xmlns="http://www.w3.org/2000/svg">
<path fill-rule="evenodd" clip-rule="evenodd" d="M18 36C27.9411 36 36 27.9411 36 18C36 8.05887 27.9411 0 18 0C8.05887 0 0 8.05887 0 18C0 27.9411 8.05887 36 18 36ZM14.9701 8.24253C15.1041 7.70673 14.7783 7.1638 14.2425 7.02985C13.7067 6.8959 13.1638 7.22166 13.0299 7.75746L11.7192 13H9.72953C8.81671 13 8.11551 13.8085 8.24461 14.7121L9.75471 25.2828C9.89546 26.2681 10.7393 27 11.7346 27H24.2654C25.2607 27 26.1046 26.2681 26.2453 25.2828L27.7554 14.7121C27.8845 13.8085 27.1833 13 26.2705 13H24.2808L22.9701 7.75746C22.8362 7.22166 22.2933 6.8959 21.7575 7.02985C21.2217 7.1638 20.8959 7.70673 21.0299 8.24253L22.2192 13H13.7808L14.9701 8.24253ZM12.5 17C11.9477 17 11.5 17.4477 11.5 18C11.5 18.5523 11.9477 19 12.5 19H23.5C24.0523 19 24.5 18.5523 24.5 18C24.5 17.4477 24.0523 17 23.5 17H12.5ZM12.5 21C11.9477 21 11.5 21.4477 11.5 22C11.5 22.5523 11.9477 23 12.5 23H23.5C24.0523 23 24.5 22.5523 24.5 22C24.5 21.4477 24.0523 21 23.5 21H12.5Z" fill="black"/>
</svg>
