<svg width="36" height="36" viewBox="0 0 36 36" fill="none" xmlns="http://www.w3.org/2000/svg">
<path fill-rule="evenodd" clip-rule="evenodd" d="M18 36C27.9411 36 36 27.9411 36 18C36 8.05887 27.9411 0 18 0C8.05887 0 0 8.05887 0 18C0 27.9411 8.05887 36 18 36ZM20.5 8C21.0523 8 21.5 8.44772 21.5 9V14.5H27C27.5523 14.5 28 14.9477 28 15.5V20.5C28 21.0523 27.5523 21.5 27 21.5H21.5V27C21.5 27.5523 21.0523 28 20.5 28H15.5C14.9477 28 14.5 27.5523 14.5 27V21.5H9C8.44771 21.5 8 21.0523 8 20.5V15.5C8 14.9477 8.44772 14.5 9 14.5H14.5V9C14.5 8.44771 14.9477 8 15.5 8H20.5Z" fill="black"/>
</svg>
