<svg width="36" height="36" viewBox="0 0 36 36" fill="none" xmlns="http://www.w3.org/2000/svg">
<path fill-rule="evenodd" clip-rule="evenodd" d="M18 36C27.9411 36 36 27.9411 36 18C36 8.05887 27.9411 0 18 0C8.05887 0 0 8.05887 0 18C0 27.9411 8.05887 36 18 36ZM7.6046 24.5449C7.75398 24.8398 8.06946 25 8.40009 25H27.5999C27.9306 25 28.246 24.8398 28.3954 24.5449C29.124 23.1061 29.3679 20.7655 28.1284 19.15C28.7423 17.65 29.2539 14.2 26.7474 11.05C23.9851 7.57866 19.8418 7 18.0003 7C16.1587 7 12.0149 7.57866 9.25266 11.05C6.74613 14.2 7.25767 17.65 7.87156 19.15C6.63204 20.7655 6.87598 23.1061 7.6046 24.5449ZM12.2115 19.7025C12.4803 19.4303 12.9483 19.244 13.4979 19.2451C14.0478 19.2463 14.521 19.435 14.7929 19.7069C15.1834 20.0974 15.8166 20.0974 16.2071 19.7069C16.5976 19.3164 16.5976 18.6832 16.2071 18.2927C15.479 17.5646 14.4522 17.2471 13.5021 17.2451C12.5517 17.2431 11.5197 17.5568 10.7885 18.2971C10.4004 18.6901 10.4044 19.3232 10.7973 19.7113C11.1902 20.0994 11.8234 20.0955 12.2115 19.7025ZM22.4979 19.2451C21.9483 19.244 21.4803 19.4303 21.2115 19.7025C20.8234 20.0955 20.1902 20.0994 19.7973 19.7113C19.4044 19.3232 19.4004 18.6901 19.7885 18.2971C20.5197 17.5568 21.5517 17.2431 22.5021 17.2451C23.4522 17.2471 24.479 17.5646 25.2071 18.2927C25.5976 18.6832 25.5976 19.3164 25.2071 19.7069C24.8166 20.0974 24.1834 20.0974 23.7929 19.7069C23.521 19.435 23.0478 19.2463 22.4979 19.2451Z" fill="black"/>
</svg>
