<svg width="36" height="36" viewBox="0 0 36 36" fill="none" xmlns="http://www.w3.org/2000/svg">
<path fill-rule="evenodd" clip-rule="evenodd" d="M36 18C36 27.9411 27.9411 36 18 36C8.05887 36 0 27.9411 0 18C0 8.05887 8.05887 0 18 0C27.9411 0 36 8.05887 36 18ZM10 13C10.5523 13 11 13.4477 11 14V26C11 26.5523 10.5523 27 10 27C9.44771 27 9 26.5523 9 26V14C9 13.4477 9.44771 13 10 13ZM13 15.2137V25.0003C13 25.5526 13.4477 26.0003 14 26.0003H22.9035C23.8373 26.0003 24.6469 25.3541 24.8538 24.4435L26.4447 17.4435C26.7292 16.192 25.7779 15.0002 24.4945 15.0002H21L21.3811 14.1428C22.4544 11.7279 24.2039 7.77862 21.673 7.01823C21.2638 6.89529 20.8719 7.20524 20.6454 7.56755L19.5099 9.38448C18.8385 10.4587 18.0972 11.5053 17.1287 12.3217C16.3147 13.0078 15.3155 13.6327 13.6721 14.2574C13.2731 14.409 13 14.7868 13 15.2137Z" fill="black"/>
</svg>
