<svg width="36" height="36" viewBox="0 0 36 36" fill="none" xmlns="http://www.w3.org/2000/svg">
<path fill-rule="evenodd" clip-rule="evenodd" d="M18 36C27.9411 36 36 27.9411 36 18C36 8.05887 27.9411 0 18 0C8.05887 0 0 8.05887 0 18C0 27.9411 8.05887 36 18 36ZM8 14.5C8 13.3954 8.89543 12.5 10 12.5H11.6667C12.1269 12.5 12.5 12.1269 12.5 11.6667C12.5 10.7462 13.2462 10 14.1667 10H21.8333C22.7538 10 23.5 10.7462 23.5 11.6667C23.5 12.1269 23.8731 12.5 24.3333 12.5H26C27.1046 12.5 28 13.3954 28 14.5V24C28 25.1046 27.1046 26 26 26H10C8.89543 26 8 25.1046 8 24V14.5ZM18 16C16.3431 16 15 17.3431 15 19C15 20.6569 16.3431 22 18 22C19.6569 22 21 20.6569 21 19C21 17.3431 19.6569 16 18 16ZM13 19C13 16.2386 15.2386 14 18 14C20.7614 14 23 16.2386 23 19C23 21.7614 20.7614 24 18 24C15.2386 24 13 21.7614 13 19Z" fill="black"/>
</svg>
