<svg width="36" height="36" viewBox="0 0 36 36" fill="none" xmlns="http://www.w3.org/2000/svg">
<path fill-rule="evenodd" clip-rule="evenodd" d="M18 36C27.9411 36 36 27.9411 36 18C36 8.05887 27.9411 0 18 0C8.05887 0 0 8.05887 0 18C0 27.9411 8.05887 36 18 36ZM9.93179 13.2724C10.2657 11.9369 11.4656 11 12.8422 11H23.1576C24.5342 11 25.7341 11.9369 26.068 13.2724L28.4407 22.7634C28.7248 23.8995 27.8655 25 26.6945 25H9.30528C8.13425 25 7.27501 23.8995 7.55902 22.7634L9.93179 13.2724ZM13.5934 15H16C16.5523 15 17 14.5523 17 14C17 13.4477 16.5523 13 16 13H12.9094C12.4152 13 11.9817 13.3295 11.8495 13.8056L11.0365 16.7324C10.8887 17.2645 11.2002 17.8157 11.7324 17.9635C12.2645 18.1113 12.8157 17.7998 12.9635 17.2676L13.5934 15Z" fill="black"/>
</svg>
