<svg width="36" height="36" viewBox="0 0 36 36" fill="none" xmlns="http://www.w3.org/2000/svg">
<path d="M27 15H24V23C26.2091 23 28 21.2092 28 19V16C28 15.4477 27.5522 15 27 15Z" fill="black"/>
<path d="M13 26C13 26.5523 13.4478 27 14 27C14.5522 27 15 26.5523 15 26V15.0001C15 14.4478 14.5522 14 14 14C13.4478 14 13 14.4484 13 15.0007V26Z" fill="black"/>
<path d="M19 26C19 26.5523 19.4478 27 20 27C20.5522 27 21 26.5523 21 26V15.0001C21 14.4478 20.5522 14 20 14C19.4478 14 19 14.4484 19 15.0007V26Z" fill="black"/>
<path fill-rule="evenodd" clip-rule="evenodd" d="M18 36C8.05884 36 0 27.9411 0 18C0 8.0589 8.05884 0 18 0C27.9412 0 36 8.0589 36 18C36 27.9411 27.9412 36 18 36ZM15.9231 10H23.8918C23.556 8.83014 22.478 7.97406 21.2002 7.97406C20.8784 7.97406 20.5692 8.02838 20.2815 8.1283C19.6608 6.92792 18.4077 6.10742 16.9631 6.10742C15.527 6.10742 14.2803 6.91833 13.6558 8.1073C13.3861 8.02081 13.0985 7.97406 12.7999 7.97406C11.5221 7.97406 10.4442 8.83014 10.1084 10H12.1538C12.7062 10 13.1538 10.4477 13.1538 11C13.1538 11.5523 12.7062 12 12.1538 12H10V26C10 27.6569 11.3431 29 13 29H21C22.6569 29 24 27.6569 24 26V25C27.3137 25 30 22.3137 30 19V16C30 14.3431 28.6569 13 27 13H24V12H15.9231C15.3708 12 14.9231 11.5523 14.9231 11C14.9231 10.4477 15.3708 10 15.9231 10Z" fill="black"/>
</svg>
