<svg width="36" height="36" viewBox="0 0 36 36" fill="none" xmlns="http://www.w3.org/2000/svg">
<path fill-rule="evenodd" clip-rule="evenodd" d="M18 36C27.9411 36 36 27.9411 36 18C36 8.05887 27.9411 0 18 0C8.05887 0 0 8.05887 0 18C0 27.9411 8.05887 36 18 36ZM11 8C11 7.44772 10.5523 7 10 7C9.44771 7 9 7.44772 9 8V15.8406C9 16.6407 9.47679 17.3637 10.2122 17.6789L12.5 18.6594V20H11.9756C11.7092 20 11.4895 20.2089 11.4762 20.475L11.105 27.9001C11.0478 29.0425 11.9587 30 13.1025 30H13.8975C15.0413 30 15.9521 29.0425 15.895 27.9001L15.5237 20.475C15.5104 20.2089 15.2908 20 15.0243 20H14.5V18.6594L16.7878 17.6789C17.5232 17.3637 18 16.6407 18 15.8406V8C18 7.44772 17.5523 7 17 7C16.4477 7 16 7.44772 16 8V15.8406L14.5 16.4835V8C14.5 7.44772 14.0523 7 13.5 7C12.9477 7 12.5 7.44772 12.5 8V16.4835L11 15.8406V8ZM25 7V23H20C20 13.5263 23.3333 8.2406 25 7ZM21 25V28C21 29.1046 21.8954 30 23 30C24.1046 30 25 29.1046 25 28V25H21Z" fill="black"/>
</svg>
