<svg width="36" height="36" viewBox="0 0 36 36" fill="none" xmlns="http://www.w3.org/2000/svg">
<path fill-rule="evenodd" clip-rule="evenodd" d="M18 36C27.9411 36 36 27.9411 36 18C36 8.05887 27.9411 0 18 0C8.05887 0 0 8.05887 0 18C0 27.9411 8.05887 36 18 36ZM13 8C11.8954 8 11 8.89542 11 10V26C11 27.1046 11.8954 28 13 28H23C24.1046 28 25 27.1046 25 26V24C23.3431 24 22 22.6569 22 21C20.3431 21 19 19.6569 19 18C19 16.3431 20.3431 15 22 15C22 13.3431 23.3431 12 25 12V10C25 8.89542 24.1046 8 23 8H13ZM15 10C15 9.44772 15.4478 9 16 9H20C20.5522 9 21 9.44772 21 10C21 10.5523 20.5522 11 20 11H16C15.4478 11 15 10.5523 15 10ZM18 26C18.5522 26 19 25.5523 19 25C19 24.4477 18.5522 24 18 24C17.4478 24 17 24.4477 17 25C17 25.5523 17.4478 26 18 26ZM26 15C26 14.4477 25.5523 14 25 14C24.4477 14 24 14.4477 24 15V17H22C21.4477 17 21 17.4477 21 18C21 18.5523 21.4477 19 22 19H24V21C24 21.5523 24.4477 22 25 22C25.5523 22 26 21.5523 26 21V19H28C28.5523 19 29 18.5523 29 18C29 17.4477 28.5523 17 28 17H26V15Z" fill="black"/>
</svg>
