<svg width="36" height="36" viewBox="0 0 36 36" fill="none" xmlns="http://www.w3.org/2000/svg">
<path fill-rule="evenodd" clip-rule="evenodd" d="M18 36C27.9411 36 36 27.9411 36 18C36 8.05887 27.9411 0 18 0C8.05887 0 0 8.05887 0 18C0 27.9411 8.05887 36 18 36ZM8.36801 6.85666C7.27288 7.53259 6.75 8.36774 6.75 9.16C6.75 9.97335 7.30243 10.8333 8.45606 11.5166C8.81244 11.7277 8.93023 12.1877 8.71914 12.5441C8.50805 12.9005 8.04801 13.0183 7.69162 12.8072C7.44904 12.6635 7.21733 12.5067 7 12.3375V13.32C7 13.9934 7.44571 14.7603 8.49932 15.4106C9.53717 16.0512 11.0339 16.48 12.74 16.48C14.446 16.48 15.9428 16.0512 16.9806 15.4106C18.0343 14.7603 18.48 13.9934 18.48 13.32V12.3377C18.2961 12.4808 18.102 12.615 17.8998 12.7398C16.5437 13.5768 14.7175 14.07 12.74 14.07C12.3637 14.07 11.9936 14.0522 11.6319 14.0177C11.2196 13.9784 10.9171 13.6123 10.9564 13.1999C10.9957 12.7876 11.3619 12.4852 11.7742 12.5245C12.0885 12.5544 12.411 12.57 12.74 12.57C14.4848 12.57 16.0286 12.132 17.1119 11.4633C18.2071 10.7874 18.73 9.95226 18.73 9.16C18.73 8.36774 18.2071 7.53259 17.1119 6.85666C16.0286 6.18803 14.4848 5.75 12.74 5.75C10.9951 5.75 9.45132 6.18803 8.36801 6.85666ZM22.373 13.8572C21.2738 14.5336 20.75 15.3688 20.75 16.16C20.75 16.9722 21.3035 17.8323 22.4614 18.5161C22.818 18.7267 22.9364 19.1866 22.7258 19.5433C22.5152 19.8999 22.0553 20.0183 21.6986 19.8077C21.4535 19.6629 21.2194 19.5048 21 19.3342V20.32C21 20.992 21.4462 21.7589 22.5041 22.4099C23.5457 23.0509 25.0479 23.48 26.76 23.48C28.4721 23.48 29.9743 23.0509 31.0159 22.4099C32.0738 21.7589 32.52 20.992 32.52 20.32V19.3343C32.3341 19.4789 32.1377 19.6144 31.9331 19.7403C30.5735 20.577 28.7427 21.07 26.76 21.07C26.3827 21.07 26.0117 21.0522 25.6491 21.0177C25.2367 20.9785 24.9342 20.6125 24.9734 20.2001C25.0125 19.7878 25.3786 19.4853 25.7909 19.5244C26.1063 19.5544 26.4299 19.57 26.76 19.57C28.5108 19.57 30.0599 19.1318 31.147 18.4628C32.2462 17.7864 32.77 16.9512 32.77 16.16C32.77 15.3688 32.2462 14.5336 31.147 13.8572C30.0599 13.1882 28.5108 12.75 26.76 12.75C25.0092 12.75 23.4601 13.1882 22.373 13.8572ZM6.75 22.68C6.75 21.8878 7.27288 21.0526 8.36801 20.3767C9.45132 19.708 10.9951 19.27 12.74 19.27C14.4848 19.27 16.0286 19.708 17.1119 20.3767C18.2071 21.0526 18.73 21.8878 18.73 22.68C18.73 23.4723 18.2071 24.3074 17.1119 24.9834C16.0286 25.652 14.4848 26.09 12.74 26.09C12.411 26.09 12.0885 26.0744 11.7742 26.0445C11.3619 26.0052 10.9957 26.3076 10.9564 26.7199C10.9171 27.1323 11.2196 27.4984 11.6319 27.5377C11.9936 27.5722 12.3637 27.59 12.74 27.59C14.7175 27.59 16.5437 27.0968 17.8998 26.2598C18.102 26.135 18.2961 26.0008 18.48 25.8577V26.84C18.48 27.5134 18.0343 28.2803 16.9806 28.9306C15.9428 29.5712 14.446 30 12.74 30C11.0339 30 9.53717 29.5712 8.49932 28.9306C7.44571 28.2803 7 27.5134 7 26.84V25.8576C7.21733 26.0267 7.44904 26.1835 7.69162 26.3272C8.04801 26.5383 8.50805 26.4205 8.71914 26.0641C8.93023 25.7077 8.81244 25.2477 8.45606 25.0366C7.30243 24.3533 6.75 23.4934 6.75 22.68Z" fill="black"/>
</svg>
