<svg width="36" height="36" viewBox="0 0 36 36" fill="none" xmlns="http://www.w3.org/2000/svg">
<path fill-rule="evenodd" clip-rule="evenodd" d="M18 36C27.9411 36 36 27.9411 36 18C36 8.05887 27.9411 0 18 0C8.05887 0 0 8.05887 0 18C0 27.9411 8.05887 36 18 36ZM20 7H10C9.44772 7 9 7.44772 9 8V28C9 28.5523 9.44772 29 10 29H26C26.5523 29 27 28.5523 27 28V14H21.1C20.4925 14 20 13.5075 20 12.9V7ZM26.5 12L22 7.5V12H26.5ZM15.9405 17.0003C15.9603 17.0001 15.9801 17 16 17C16.0127 17 16.0255 17 16.0382 17.0001C16.0453 17.0002 16.0524 17.0003 16.0595 17.0003C16.6118 17.0068 17.0542 17.4597 17.0477 18.012C17.0413 18.5642 16.5883 19.0067 16.0361 19.0002L16 19L15.9639 19.0002C15.4117 19.0067 14.9587 18.5642 14.9523 18.012C14.9458 17.4597 15.3882 17.0068 15.9405 17.0003ZM18.0791 18.4394C18.465 18.0443 19.0981 18.0368 19.4933 18.4227C19.5216 18.4504 19.5496 18.4784 19.5773 18.5067C19.9632 18.9019 19.9557 19.535 19.5606 19.9209C19.1655 20.3067 18.5323 20.2992 18.1465 19.9041C18.1298 19.8871 18.1129 19.8702 18.0959 19.8535C17.7008 19.4677 17.6933 18.8345 18.0791 18.4394ZM13.9209 18.4394C14.3067 18.8345 14.2992 19.4677 13.9041 19.8535C13.8871 19.8702 13.8702 19.8871 13.8535 19.9041C13.4677 20.2992 12.8345 20.3067 12.4394 19.9209C12.0443 19.535 12.0368 18.9019 12.4227 18.5067C12.4504 18.4784 12.4784 18.4504 12.5067 18.4227C12.9019 18.0368 13.535 18.0443 13.9209 18.4394ZM19.988 20.9523C20.5403 20.9458 20.9932 21.3882 20.9997 21.9405C20.9999 21.9603 21 21.9801 21 22C21 22.0133 20.9999 22.0266 20.9998 22.0399C20.9998 22.0465 20.9997 22.053 20.9997 22.0595C20.9932 22.6118 20.5403 23.0542 19.988 23.0477C19.4358 23.0413 18.9933 22.5883 18.9998 22.0361L19 22L18.9998 21.9639C18.9933 21.4117 19.4358 20.9587 19.988 20.9523ZM12.012 20.9523C12.5642 20.9587 13.0067 21.4117 13.0002 21.9639L13 22L13.0002 22.0361C13.0067 22.5883 12.5642 23.0413 12.012 23.0477C11.4597 23.0542 11.0068 22.6118 11.0003 22.0595C11.0001 22.0397 11 22.0199 11 22C11 21.9801 11.0001 21.9603 11.0003 21.9405C11.0068 21.3882 11.4597 20.9458 12.012 20.9523ZM19.5606 24.0791C19.9557 24.465 19.9632 25.0981 19.5773 25.4933C19.5496 25.5216 19.5216 25.5496 19.4933 25.5773C19.0981 25.9632 18.465 25.9557 18.0791 25.5606C17.6933 25.1655 17.7008 24.5323 18.0959 24.1465C18.1129 24.1298 18.1298 24.1129 18.1465 24.0959C18.5323 23.7008 19.1655 23.6933 19.5606 24.0791ZM12.4394 24.0791C12.8345 23.6933 13.4677 23.7008 13.8535 24.0959C13.8702 24.1129 13.8871 24.1298 13.9041 24.1465C14.2992 24.5323 14.3067 25.1655 13.9209 25.5606C13.535 25.9557 12.9019 25.9632 12.5067 25.5773C12.4784 25.5496 12.4504 25.5216 12.4227 25.4933C12.0368 25.0981 12.0443 24.465 12.4394 24.0791ZM14.9523 25.988C14.9587 25.4358 15.4117 24.9933 15.9639 24.9998L16 25L16.0361 24.9998C16.5883 24.9933 17.0413 25.4358 17.0477 25.988C17.0542 26.5403 16.6118 26.9932 16.0595 26.9997C16.0397 26.9999 16.0199 27 16 27C15.9801 27 15.9603 26.9999 15.9405 26.9997C15.3882 26.9932 14.9458 26.5403 14.9523 25.988Z" fill="black"/>
</svg>
