<svg width="36" height="36" viewBox="0 0 36 36" fill="none" xmlns="http://www.w3.org/2000/svg">
<path fill-rule="evenodd" clip-rule="evenodd" d="M18 36C27.9411 36 36 27.9411 36 18C36 8.05887 27.9411 0 18 0C8.05887 0 0 8.05887 0 18C0 27.9411 8.05887 36 18 36ZM20 7H10C9.44772 7 9 7.44772 9 8V28C9 28.5523 9.44772 29 10 29H26C26.5523 29 27 28.5523 27 28V14H21.1C20.4925 14 20 13.5075 20 12.9V7ZM26.5091 12L22 7.40741V12H26.5091ZM16.4332 21.0315C16.2897 21.0367 16.136 21.0446 15.972 21.0551V26.5371C16.2744 26.5581 16.5537 26.5738 16.8099 26.5843C17.0712 26.5948 17.3685 26.6 17.7016 26.6C18.6752 26.6 19.3824 26.3614 19.8231 25.8843C20.269 25.4071 20.4919 24.6678 20.4919 23.6663C20.4919 23.2363 20.4483 22.8562 20.3612 22.5258C20.2792 22.1955 20.1357 21.9176 19.9308 21.6921C19.7258 21.4667 19.4516 21.2963 19.1083 21.1809C18.7649 21.0603 18.337 21 17.8246 21C17.635 21 17.4633 21.0026 17.3095 21.0079C17.1558 21.0079 17.0072 21.0105 16.8637 21.0157C16.7202 21.0157 16.5767 21.021 16.4332 21.0315ZM17.494 25.4753C17.4172 25.47 17.33 25.4622 17.2327 25.4517V22.1483C17.3403 22.1378 17.4402 22.13 17.5325 22.1247C17.6247 22.1195 17.7298 22.1169 17.8476 22.1169C18.3345 22.1169 18.6804 22.2453 18.8853 22.5022C19.0903 22.7539 19.1928 23.1655 19.1928 23.7371C19.1928 24.3558 19.0801 24.8015 18.8546 25.0742C18.6291 25.3468 18.2653 25.4831 17.7631 25.4831C17.6606 25.4831 17.5709 25.4805 17.494 25.4753ZM11.4535 21.0471C11.3203 21.0524 11.1691 21.0576 11 21.0629V26.5528H12.2606V25.1449C12.3631 25.1554 12.4554 25.1632 12.5374 25.1685H12.8141C13.6802 25.1685 14.313 24.9955 14.7128 24.6494C15.1125 24.2981 15.3123 23.7528 15.3123 23.0134C15.3123 22.6516 15.2688 22.3449 15.1817 22.0932C15.0945 21.8363 14.9511 21.6292 14.7512 21.4719C14.5565 21.3093 14.3002 21.1913 13.9825 21.1179C13.6699 21.0445 13.2856 21.0078 12.8295 21.0078C12.6296 21.0078 12.4528 21.0104 12.2991 21.0157C12.1505 21.0157 12.007 21.0183 11.8686 21.0235C11.7303 21.0288 11.5919 21.0367 11.4535 21.0471ZM12.5374 24.0988C12.4605 24.0936 12.3683 24.0857 12.2606 24.0752V22.1011C12.3631 22.0906 12.4554 22.0853 12.5374 22.0853C12.6194 22.0801 12.7116 22.0775 12.8141 22.0775C13.0498 22.0775 13.2446 22.0984 13.3983 22.1404C13.552 22.1823 13.675 22.2453 13.7673 22.3292C13.8595 22.4078 13.9236 22.5101 13.9594 22.6359C13.9953 22.7617 14.0133 22.9086 14.0133 23.0764C14.0133 23.2494 13.9928 23.3988 13.9518 23.5247C13.9108 23.6505 13.8441 23.758 13.7519 23.8471C13.6597 23.931 13.5367 23.994 13.3829 24.0359C13.2292 24.0779 13.0396 24.0988 12.8141 24.0988H12.5374ZM25 21.0471H21.1642V26.5527H22.4249V24.5078H24.8924V23.3831H22.4249V22.1718H25V21.0471Z" fill="black"/>
</svg>
