<svg width="36" height="36" viewBox="0 0 36 36" fill="none" xmlns="http://www.w3.org/2000/svg">
<path fill-rule="evenodd" clip-rule="evenodd" d="M18 36C27.9411 36 36 27.9411 36 18C36 8.05887 27.9411 0 18 0C8.05887 0 0 8.05887 0 18C0 27.9411 8.05887 36 18 36ZM8.11212 11C7.69632 11 7.31659 11.2556 7.21164 11.658C7.08598 12.1397 7.01374 12.6433 7.00171 13.1621C7.05842 15.7187 8.45361 17.9382 10.5044 19.1366C10.9813 19.4152 11.142 20.0277 10.8633 20.5045C10.5847 20.9814 9.97224 21.142 9.4954 20.8634C9.32669 20.7648 9.16145 20.6609 8.99991 20.5518V21.2209C8.99991 23.7612 10.2527 26.0835 12.4999 27.2195L14.8417 28.4034C16.8275 29.4073 19.1723 29.4073 21.1581 28.4034L23.4999 27.2195C25.7471 26.0835 26.9999 23.7612 26.9999 21.2209V20.5518C26.8384 20.6609 26.6731 20.7648 26.5044 20.8634C26.0276 21.142 25.4151 20.9814 25.1365 20.5045C24.8579 20.0277 25.0186 19.4152 25.4954 19.1366C27.5462 17.9382 28.9414 15.7187 28.9981 13.1621C28.9861 12.6433 28.9138 12.1397 28.7882 11.658C28.6832 11.2556 28.3035 11 27.8877 11H8.11212ZM16.8573 15.4855C16.5732 15.012 15.9589 14.8584 15.4853 15.1425C15.0117 15.4267 14.8582 16.0409 15.1423 16.5145L15.5094 17.1262C15.5889 17.2588 15.6901 17.377 15.8089 17.4759C16.2152 17.8146 16.7275 18 17.2564 18H18.7432C19.2722 18 19.7844 17.8146 20.1908 17.476C20.3095 17.377 20.4108 17.2588 20.4903 17.1262L20.8573 16.5145C21.1415 16.0409 20.9879 15.4267 20.5143 15.1425C20.0407 14.8584 19.4265 15.012 19.1423 15.4855L18.8464 15.9788C18.814 15.9927 18.779 16 18.7432 16H17.2564C17.2207 16 17.1856 15.9927 17.1533 15.9788L16.8573 15.4855ZM15.9999 21C15.4476 21 14.9999 21.4477 14.9999 22C14.9999 22.5523 15.4476 23 15.9999 23H19.9999C20.5522 23 20.9999 22.5523 20.9999 22C20.9999 21.4477 20.5522 21 19.9999 21H15.9999Z" fill="black"/>
</svg>
