<svg width="36" height="36" viewBox="0 0 36 36" fill="none" xmlns="http://www.w3.org/2000/svg">
<path fill-rule="evenodd" clip-rule="evenodd" d="M18 36C27.9411 36 36 27.9411 36 18C36 8.05887 27.9411 0 18 0C8.05887 0 0 8.05887 0 18C0 27.9411 8.05887 36 18 36ZM11 10C11 8.89543 11.8954 8 13 8H23C24.1046 8 25 8.89543 25 10V26C25 27.1046 24.1046 28 23 28H13C11.8954 28 11 27.1046 11 26V10ZM15 10C15 9.44772 15.4477 9 16 9H20C20.5523 9 21 9.44772 21 10C21 10.5523 20.5523 11 20 11H16C15.4477 11 15 10.5523 15 10ZM15 26V24H13V26H15ZM17 26V24H23V26H17ZM19 15C19 14.4477 18.5523 14 18 14C17.4477 14 17 14.4477 17 15V17H15C14.4477 17 14 17.4477 14 18C14 18.5523 14.4477 19 15 19H17V21C17 21.5523 17.4477 22 18 22C18.5523 22 19 21.5523 19 21V19H21C21.5523 19 22 18.5523 22 18C22 17.4477 21.5523 17 21 17H19V15Z" fill="black"/>
</svg>
