<svg width="36" height="36" viewBox="0 0 36 36" fill="none" xmlns="http://www.w3.org/2000/svg">
<path fill-rule="evenodd" clip-rule="evenodd" d="M36 18C36 27.9411 27.9411 36 18 36C8.05887 36 0 27.9411 0 18C0 8.05887 8.05887 0 18 0C27.9411 0 36 8.05887 36 18ZM10 11C10 10.4477 10.4477 10 11 10H16C16.5523 10 17 10.4477 17 11V16C17 16.5523 16.5523 17 16 17H11C10.4477 17 10 16.5523 10 16V11ZM20 10C19.4477 10 19 10.4477 19 11V16C19 16.5523 19.4477 17 20 17H25C25.5523 17 26 16.5523 26 16V11C26 10.4477 25.5523 10 25 10H20ZM10 20C10 19.4477 10.4477 19 11 19H16C16.5523 19 17 19.4477 17 20V25C17 25.5523 16.5523 26 16 26H11C10.4477 26 10 25.5523 10 25V20ZM20 19C19.4477 19 19 19.4477 19 20V25C19 25.5523 19.4477 26 20 26H25C25.5523 26 26 25.5523 26 25V20C26 19.4477 25.5523 19 25 19H20Z" fill="black"/>
</svg>
