<svg width="36" height="36" viewBox="0 0 36 36" fill="none" xmlns="http://www.w3.org/2000/svg">
<path fill-rule="evenodd" clip-rule="evenodd" d="M18 36C27.9411 36 36 27.9411 36 18C36 8.05887 27.9411 0 18 0C8.05887 0 0 8.05887 0 18C0 27.9411 8.05887 36 18 36ZM12 9C11.4477 9 11 9.44771 11 10V27C11 27.5523 11.4477 28 12 28C12.5523 28 13 27.5523 13 27V22H16.623C16.9637 22 17.2941 22.1159 17.5601 22.3287L18.6905 23.233C19.3111 23.7295 20.0822 24 20.877 24H25.9C26.5075 24 27 23.5075 27 22.9V12.1C27 11.4925 26.5075 11 25.9 11H20.877C20.5363 11 20.2059 10.8841 19.9399 10.6713L18.8095 9.76696C18.1889 9.27048 17.4178 9 16.623 9H12.1C12.0828 9 12.0658 9.00039 12.0488 9.00117C12.0326 9.00039 12.0164 9 12 9Z" fill="black"/>
</svg>
