<svg width="16" height="16" viewBox="0 0 16 16" fill="none" xmlns="http://www.w3.org/2000/svg">
<path fill-rule="evenodd" clip-rule="evenodd" d="M12.5 7.66667C12.5 8.81929 12.0971 9.87432 11.4293 10.6885C11.2593 10.8957 10.9984 11 10.7304 11H5.26959C5.00158 11 4.74069 10.8957 4.57073 10.6885C3.90295 9.87432 3.5 8.81929 3.5 7.66667C3.5 5.08934 5.51472 3 8 3C10.4853 3 12.5 5.08934 12.5 7.66667ZM3 12.5C3 12.2239 3.22386 12 3.5 12H12.5C12.7761 12 13 12.2239 13 12.5C13 12.7761 12.7761 13 12.5 13H3.5C3.22386 13 3 12.7761 3 12.5ZM8.5 4.5C8.22386 4.5 8 4.72386 8 5C8 5.27614 8.22386 5.5 8.5 5.5C8.83738 5.5 9.21662 5.67373 9.52145 5.97855C9.82627 6.28338 10 6.66262 10 7C10 7.27614 10.2239 7.5 10.5 7.5C10.7761 7.5 11 7.27614 11 7C11 6.33738 10.6737 5.71662 10.2286 5.27145C9.78338 4.82627 9.16262 4.5 8.5 4.5Z" fill="black"/>
</svg>
