<svg width="16" height="16" viewBox="0 0 16 16" fill="none" xmlns="http://www.w3.org/2000/svg">
<path fill-rule="evenodd" clip-rule="evenodd" d="M15 7.80556C15 9.42581 14.4176 10.9138 13.4452 12.0825C13.1167 12.4774 12.6125 12.6667 12.0988 12.6667H3.90121C3.38754 12.6667 2.88329 12.4774 2.55475 12.0825C1.58239 10.9138 1 9.42581 1 7.80556C1 4.04695 4.13401 1 8 1C11.866 1 15 4.04695 15 7.80556ZM1 14C1 13.7239 1.22386 13.5 1.5 13.5H14.5C14.7761 13.5 15 13.7239 15 14C15 14.2761 14.7761 14.5 14.5 14.5H1.5C1.22386 14.5 1 14.2761 1 14ZM4.88892 6.73232C4.88892 7.20433 5.08668 7.65725 5.40743 7.9697C5.41529 7.97735 5.42322 7.98492 5.43122 7.9924L7.17146 9.65354C7.63517 10.0962 8.36489 10.0962 8.8286 9.65354L10.5926 7.9697C10.9288 7.65528 11.1111 7.21705 11.1111 6.73232C11.1111 5.77559 10.2986 5 9.29632 5C8.78852 5 8.32942 5.28407 8.00003 5.60494C7.67063 5.28407 7.21154 5 6.70373 5C5.70144 5 4.88892 5.77559 4.88892 6.73232Z" fill="black"/>
</svg>
