<svg width="16" height="16" viewBox="0 0 16 16" fill="none" xmlns="http://www.w3.org/2000/svg">
<path d="M12.954 7.45776C12.9787 7.74963 12.7484 8.00012 12.4557 8.00012H11.4618V10.5001C11.4618 10.7762 11.2379 11.0001 10.9618 11.0001C10.6857 11.0001 10.4618 10.7762 10.4618 10.5001V8.00012H9.46865C9.17592 8.00012 8.9457 7.74963 8.9706 7.45776L9.39516 2.45825C9.40273 2.36975 9.433 2.28821 9.47988 2.21924C9.53188 2.14282 9.60439 2.08179 9.68935 2.04382C9.75161 2.01599 9.8207 2.00049 9.89321 2.00049H12.0311C12.2909 2.00049 12.5075 2.19946 12.5294 2.45825L12.954 7.45776Z" fill="black"/>
<path d="M2.04946 9.04541C2.02285 8.75256 2.25331 8.50012 2.54726 8.50012H3.45595V5.00012C3.45595 4.82874 3.54213 4.67749 3.67372 4.5874C3.75405 4.53235 3.85121 4.50012 3.95595 4.50012H5.9999C6.27602 4.50012 6.4999 4.724 6.4999 5.00012V8.50012H7.45229C7.74623 8.50012 7.97695 8.75256 7.95034 9.04541L7.54116 13.5454C7.51772 13.803 7.3019 14.0001 7.04311 14.0001H2.95644C2.80483 14.0001 2.66787 13.9324 2.57582 13.8243C2.53139 13.7722 2.49721 13.7108 2.47719 13.6431C2.46791 13.6117 2.46157 13.5791 2.45839 13.5454L2.04946 9.04541Z" fill="black"/>
<path d="M10.9799 14.0001C11.6696 14.0001 12.1112 13.2662 11.7885 12.657L11.6571 12.4089C11.5236 12.1569 11.2616 11.9991 10.9762 11.9991C10.8234 11.9991 10.6771 12.0444 10.5541 12.1251C10.4423 12.1985 10.3493 12.3009 10.287 12.4252L10.1615 12.6763C9.85756 13.2845 10.2999 14.0001 10.9799 14.0001Z" fill="black"/>
</svg>
