<svg width="16" height="16" viewBox="0 0 16 16" fill="none" xmlns="http://www.w3.org/2000/svg">
<path fill-rule="evenodd" clip-rule="evenodd" d="M12.1248 1.52883C12.1774 1.51007 12.2339 1.49994 12.2924 1.5C12.3509 1.49994 12.4074 1.51007 12.46 1.52883C12.5997 1.57862 12.7123 1.68917 12.7631 1.83114C12.7785 1.87381 12.7881 1.91901 12.7913 1.96577C12.8185 2.27589 12.9475 2.74991 13.2333 3.13438C13.5065 3.50191 13.9222 3.79225 14.5846 3.79225C14.8607 3.79225 15.0846 4.01611 15.0846 4.29225C15.0846 4.5684 14.8607 4.79225 14.5846 4.79225C13.9222 4.79226 13.5065 5.0826 13.2333 5.45013C12.9475 5.83461 12.8185 6.30862 12.7913 6.61874C12.7881 6.6655 12.7785 6.71071 12.7631 6.75337C12.7131 6.89248 12.6028 7.00455 12.4613 7.05523C12.4083 7.07428 12.3513 7.08458 12.2924 7.08451C12.2334 7.08458 12.1765 7.07428 12.1235 7.05523C11.9844 7.00523 11.8723 6.89492 11.8216 6.75337C11.8063 6.7107 11.7966 6.66549 11.7935 6.61873C11.7663 6.30861 11.6373 5.8346 11.3515 5.45013C11.0783 5.0826 10.6626 4.79226 10.0001 4.79226C9.98646 4.79226 9.9729 4.79171 9.95948 4.79063C9.87144 4.78354 9.78984 4.75365 9.72059 4.70687C9.58759 4.61701 9.50015 4.46485 9.50015 4.29226V4.29225C9.50015 4.01611 9.72401 3.79225 10.0001 3.79226C10.6626 3.79225 11.0783 3.50191 11.3515 3.13438C11.6373 2.74991 11.7663 2.2759 11.7935 1.96578C11.7966 1.91902 11.8063 1.87381 11.8216 1.83114C11.8718 1.69162 11.9826 1.5793 12.1248 1.52883ZM1.96602 5.43849C2.17732 8.10936 3.71881 10.0257 4.84076 11.1598C5.96271 12.2939 7.6069 13.7943 10.2753 14.0343C10.9346 14.0936 11.708 14.0343 12.3591 13.4037L12.9949 12.7746C13.5178 12.2574 13.5648 11.4571 13.0998 10.9871L11.8371 9.71068C11.3721 9.24071 10.5714 9.27904 10.0485 9.79629L9.29786 10.5389C9.17234 10.6631 9.00617 10.7355 8.85039 10.6896C8.39718 10.5561 7.54965 10.111 6.73417 9.28666C5.91869 8.46235 5.4826 7.61017 5.354 7.15554C5.30979 6.99927 5.384 6.8339 5.50953 6.70971L6.26019 5.96709C6.78305 5.44984 6.83 4.64954 6.36507 4.17958L5.10232 2.90315C4.63739 2.43318 3.83663 2.47151 3.31377 2.98877L2.6779 3.61782C2.17574 4.11461 1.91382 4.77863 1.96602 5.43849Z" fill="black"/>
</svg>
