<svg width="16" height="16" viewBox="0 0 16 16" fill="none" xmlns="http://www.w3.org/2000/svg">
<path fill-rule="evenodd" clip-rule="evenodd" d="M2.5 2C2.5 1.72386 2.72386 1.5 3 1.5H13C13.2761 1.5 13.5 1.72386 13.5 2C13.5 2.27614 13.2761 2.5 13 2.5H12.2858V6.50002H3.71436V2.5H3C2.72386 2.5 2.5 2.27614 2.5 2ZM3.71436 7.50002H12.2858V14.3571H13C13.2761 14.3571 13.5 14.581 13.5 14.8571C13.5 15.1333 13.2761 15.3571 13 15.3571H3C2.72386 15.3571 2.5 15.1333 2.5 14.8571C2.5 14.581 2.72386 14.3571 3 14.3571H3.71436V7.50002ZM8.01562 13C8.91563 13 9.51562 12.3572 9.51562 11.5C9.51562 10.8274 8.95196 9.91737 8.41934 9.12184C8.22084 8.82537 7.77981 8.82566 7.58346 9.12357C7.05941 9.91868 6.51562 10.8279 6.51562 11.5C6.51562 12.3572 7.11562 13 8.01562 13Z" fill="black"/>
</svg>
