<svg width="16" height="16" viewBox="0 0 16 16" fill="none" xmlns="http://www.w3.org/2000/svg">
<path fill-rule="evenodd" clip-rule="evenodd" d="M10 2.5H3C2.72386 2.5 2.5 2.72386 2.5 3V13C2.5 13.2761 2.72386 13.5 3 13.5H13C13.2761 13.5 13.5 13.2761 13.5 13V6H10.6C10.2686 6 10 5.73137 10 5.4V2.5ZM13 5L11 3V5H13ZM11.3536 7.64645C11.5488 7.84171 11.5488 8.15829 11.3536 8.35355L8.91488 10.7922C8.70375 11.0034 8.36949 11.0271 8.13062 10.848L6.54692 9.66019L5.35355 10.8536C5.15829 11.0488 4.84171 11.0488 4.64645 10.8536C4.45118 10.6583 4.45118 10.3417 4.64645 10.1464L6.08512 8.70777C6.29626 8.49664 6.63051 8.47288 6.86938 8.65204L8.45308 9.83981L10.6464 7.64645C10.8417 7.45118 11.1583 7.45118 11.3536 7.64645Z" fill="black"/>
</svg>
