<svg width="16" height="16" viewBox="0 0 16 16" fill="none" xmlns="http://www.w3.org/2000/svg">
<path fill-rule="evenodd" clip-rule="evenodd" d="M2 3.5V10.5C2 10.7761 2.22386 11 2.5 11H13.5C13.7761 11 14 10.7761 14 10.5V3.5C14 3.22386 13.7761 3 13.5 3H2.5C2.22386 3 2 3.22386 2 3.5ZM8.5 6.5H7.5V5.5H8.5C8.77615 5.5 9 5.72386 9 6C9 6.27614 8.77615 6.5 8.5 6.5ZM8.5 4.5C9.32843 4.5 10 5.17158 10 6.00001C10 6.82843 9.32843 7.5 8.5 7.5H7.5V8.00012H8C8.27614 8.00012 8.5 8.22398 8.5 8.50012C8.5 8.77626 8.27614 9.00012 8 9.00012H7.5V9.5C7.5 9.77614 7.27614 10 7 10C6.72386 10 6.5 9.77614 6.5 9.5V9.00012H6C5.72386 9.00012 5.5 8.77626 5.5 8.50012C5.5 8.22398 5.72386 8.00012 6 8.00012H6.5V7.5H6C5.72386 7.5 5.5 7.27614 5.5 7C5.5 6.72386 5.72386 6.5 6 6.5H6.5V5.08065C6.5 4.75996 6.75996 4.5 7.08065 4.5H8.5ZM4.5 6.5C4.5 6.22386 4.27614 6 4 6C3.72386 6 3.5 6.22386 3.5 6.5V7.5C3.5 7.77614 3.72386 8 4 8C4.27614 8 4.5 7.77614 4.5 7.5V6.5ZM12 6C12.2761 6 12.5 6.22386 12.5 6.5V7.5C12.5 7.77614 12.2761 8 12 8C11.7239 8 11.5 7.77614 11.5 7.5V6.5C11.5 6.22386 11.7239 6 12 6ZM2.5 12C2.22386 12 2 12.2239 2 12.5C2 12.7761 2.22386 13 2.5 13H13.5C13.7761 13 14 12.7761 14 12.5C14 12.2239 13.7761 12 13.5 12H2.5Z" fill="black"/>
</svg>
