<svg width="16" height="16" viewBox="0 0 16 16" fill="none" xmlns="http://www.w3.org/2000/svg">
<path fill-rule="evenodd" clip-rule="evenodd" d="M10 2.5H3C2.72386 2.5 2.5 2.72386 2.5 3V11.4051L7.09156 7.19613C7.32836 6.97907 7.69411 6.98701 7.92126 7.21416L9.5 8.7929L10.5757 7.71717C10.8101 7.48285 11.19 7.48285 11.4243 7.71717L13.5 9.7929V6H10.6C10.2686 6 10 5.73137 10 5.4V2.5ZM13.5 11.2071L11 8.70712L9.92427 9.78285C9.68995 10.0172 9.31005 10.0172 9.07574 9.78285L7.48496 8.19208L2.5 12.7616V13C2.5 13.2761 2.72386 13.5 3 13.5H13C13.2761 13.5 13.5 13.2761 13.5 13V11.2071ZM13 5L11 3V5H13ZM6.5 5.5C6.5 6.05228 6.05228 6.5 5.5 6.5C4.94772 6.5 4.5 6.05228 4.5 5.5C4.5 4.94772 4.94772 4.5 5.5 4.5C6.05228 4.5 6.5 4.94772 6.5 5.5Z" fill="black"/>
</svg>
