<svg width="16" height="16" viewBox="0 0 16 16" fill="none" xmlns="http://www.w3.org/2000/svg">
<path fill-rule="evenodd" clip-rule="evenodd" d="M2 3.5V10.5C2 10.7761 2.22386 11 2.5 11H13.5C13.7761 11 14 10.7761 14 10.5V3.5C14 3.22386 13.7761 3 13.5 3H2.5C2.22386 3 2 3.22386 2 3.5ZM6 6.5C5.72386 6.5 5.5 6.72386 5.5 7C5.5 7.27614 5.72386 7.5 6 7.5H6.19328C6.25776 8.00592 6.4402 8.4796 6.75072 8.8579C7.15604 9.35168 7.75289 9.64815 8.48144 9.64815C9.06631 9.64815 9.60795 9.4577 10.0441 9.13548C10.2662 8.9714 10.3132 8.65833 10.1491 8.43622C9.98504 8.21412 9.67197 8.16709 9.44987 8.33118C9.1809 8.52989 8.84642 8.64815 8.48144 8.64815C8.04509 8.64815 7.73454 8.48032 7.52367 8.22343C7.37246 8.03922 7.26029 7.79302 7.20503 7.5H8C8.27614 7.5 8.5 7.27614 8.5 7C8.5 6.72386 8.27614 6.5 8 6.5H7.23883C7.30037 6.2716 7.39869 6.07698 7.52367 5.92472C7.73454 5.66783 8.04509 5.5 8.48144 5.5C8.84642 5.5 9.1809 5.61825 9.44987 5.81697C9.67197 5.98106 9.98504 5.93403 10.1491 5.71192C10.3132 5.48982 10.2662 5.17675 10.0441 5.01266C9.60795 4.69044 9.06631 4.5 8.48144 4.5C7.75289 4.5 7.15604 4.79647 6.75072 5.29025C6.47071 5.63138 6.29485 6.05006 6.21571 6.5H6ZM4.5 6.5C4.5 6.22386 4.27614 6 4 6C3.72386 6 3.5 6.22386 3.5 6.5V7.5C3.5 7.77614 3.72386 8 4 8C4.27614 8 4.5 7.77614 4.5 7.5V6.5ZM12 6C12.2761 6 12.5 6.22386 12.5 6.5V7.5C12.5 7.77614 12.2761 8 12 8C11.7239 8 11.5 7.77614 11.5 7.5V6.5C11.5 6.22386 11.7239 6 12 6ZM2.5 12C2.22386 12 2 12.2239 2 12.5C2 12.7761 2.22386 13 2.5 13H13.5C13.7761 13 14 12.7761 14 12.5C14 12.2239 13.7761 12 13.5 12H2.5Z" fill="black"/>
</svg>
