<svg width="16" height="16" viewBox="0 0 16 16" fill="none" xmlns="http://www.w3.org/2000/svg">
<path fill-rule="evenodd" clip-rule="evenodd" d="M4 3C4 2.44772 4.44775 2 5 2H11C11.5522 2 12 2.44772 12 3V5C11.1716 5 10.5 5.67157 10.5 6.5C9.67163 6.5 9 7.17157 9 8C9 8.82843 9.67163 9.5 10.5 9.5C10.5 10.3284 11.1716 11 12 11V13C12 13.5523 11.5522 14 11 14H5C4.44775 14 4 13.5523 4 13V3ZM6.5 3.5C6.5 3.22385 6.72388 3 7 3H9C9.27612 3 9.5 3.22385 9.5 3.5C9.5 3.77615 9.27612 4 9 4H7C6.72388 4 6.5 3.77615 6.5 3.5ZM8 11.25C7.58582 11.25 7.25 11.5858 7.25 12C7.25 12.4142 7.58582 12.75 8 12.75C8.41418 12.75 8.75 12.4142 8.75 12C8.75 11.5858 8.41418 11.25 8 11.25Z" fill="black"/>
<path d="M11.5 6.5C11.5 6.22385 11.7239 6 12 6C12.2761 6 12.5 6.22385 12.5 6.5V7.5H13.5C13.7761 7.5 14 7.72385 14 8C14 8.27615 13.7761 8.5 13.5 8.5H12.5V9.5C12.5 9.77615 12.2761 10 12 10C11.7239 10 11.5 9.77615 11.5 9.5V8.5H10.5C10.2239 8.5 10 8.27615 10 8C10 7.72385 10.2239 7.5 10.5 7.5H11.5V6.5Z" fill="black"/>
</svg>
