<svg width="16" height="16" viewBox="0 0 16 16" fill="none" xmlns="http://www.w3.org/2000/svg">
<path fill-rule="evenodd" clip-rule="evenodd" d="M3.01768 3C3.01768 2.72386 3.24153 2.5 3.51768 2.5H5.19161C6.02822 2.5 6.83716 2.79967 7.47186 3.34473L8.4123 4.15234H9.93225C10.3029 4.15234 10.6431 4.35735 10.8163 4.68504L13.1706 9.13909C13.4241 9.61864 13.249 10.2128 12.776 10.4784L12.4354 10.6696L12.4497 10.6944C12.6906 11.1137 12.9993 11.754 12.9993 12.4354C12.9993 12.5448 13.0007 12.6538 13.0023 12.7858L13.0034 12.8718C13.0055 13.0431 13.0076 13.2495 13.0076 13.5245C13.0076 13.8007 12.7837 14.0245 12.5076 14.0245C12.2314 14.0245 12.0076 13.8007 12.0076 13.5245C12.0076 13.255 12.0055 13.053 12.0035 12.884L12.0024 12.8004C12.0008 12.6683 11.9993 12.5516 11.9993 12.4354C11.9993 12.0278 11.8046 11.579 11.5826 11.1926L11.5493 11.1345C9.91544 11.7956 8.00602 11.1333 7.15336 9.53684L5.89185 7.17489C5.68816 6.79351 5.75264 6.32442 6.05167 6.01215L7.40156 4.60249L6.82036 4.10338C6.367 3.71405 5.78919 3.5 5.19161 3.5H3.51768C3.24153 3.5 3.01768 3.27614 3.01768 3ZM10.0001 8.5C9.05737 6.84678 8.35246 6.53316 7.01114 7.14793L8.03543 9.06573C8.6216 10.1632 9.90693 10.6427 11.043 10.2562C10.9415 10.0804 10.8443 9.91246 10.7526 9.7541L10.0001 8.5Z" fill="black"/>
<path d="M2.13476 6.00506L2.67651 5.06515C2.86896 4.73182 3.35009 4.73182 3.54254 5.06515L4.08469 6.00419C4.08491 6.00458 4.08464 6.00506 4.08419 6.00506C4.08375 6.00506 4.08398 6.00467 4.08419 6.00506C4.17037 6.16281 4.21885 6.34464 4.21885 6.53706C4.21885 7.14978 3.72214 7.64648 3.10942 7.64648C2.49671 7.64648 2 7.14978 2 6.53706C2 6.34461 2.04855 6.16283 2.13476 6.00506Z" fill="black"/>
</svg>
