<svg width="16" height="16" viewBox="0 0 16 16" fill="none" xmlns="http://www.w3.org/2000/svg">
<path d="M6.29986 13.9967C6.41026 14.0004 6.50006 13.9105 6.50006 13.8V11.67C6.50006 11.572 6.42906 11.4894 6.33349 11.4675C5.8222 11.3507 5.00006 10.9972 5.00006 9.84223V6.66667C5.55046 6.82044 7.05652 6.8036 8.00006 5.69647C8.9436 6.8036 10.4497 6.82044 11.0001 6.66667V9.84223C11.0001 10.9972 10.1779 11.3507 9.66664 11.4675C9.57106 11.4894 9.50006 11.572 9.50006 11.67V13.8C9.50006 13.9105 9.58997 14.0004 9.70037 13.9967C11.0238 13.9521 11.9141 13.4694 12.7525 13C13.3178 12.6835 13.5584 11.9265 13.3117 11.337C12.9732 10.5284 12.8607 10.0002 12.7525 9.4921C12.7127 9.30487 12.6734 9.12038 12.6236 8.92562C12.4349 8.18753 12.5001 6.46531 12.5001 5.69647C12.3114 2.55957 9.41537 2 8.00006 2C6.58475 2 3.68877 2.55957 3.50006 5.69647C3.50006 6.46531 3.37688 8.18152 3.18817 8.91961C3.13838 9.11438 3.09909 9.29887 3.05923 9.4861C2.95104 9.99416 2.83856 10.5224 2.50006 11.331C2.2533 11.9205 2.52198 12.6835 3.08725 13C3.9259 13.4696 4.96214 13.9523 6.29986 13.9967Z" fill="black"/>
</svg>
