<svg width="16" height="16" viewBox="0 0 16 16" fill="none" xmlns="http://www.w3.org/2000/svg">
<path fill-rule="evenodd" clip-rule="evenodd" d="M10.4243 8.5C8.50351 12.0088 5.34275 11.2362 3.62227 9.86565C3.15334 10.7477 3 11.6673 3 12.5C3 12.7761 2.77614 13 2.5 13C2.22386 13 2 12.7761 2 12.5C2 11.452 2.21486 10.2577 2.88948 9.12929C2.88629 9.12503 2.88312 9.12077 2.87996 9.1165C3.67489 7.76553 4.88293 6.36755 6.7236 5.44722C6.97059 5.32372 7.0707 5.02339 6.94721 4.7764C6.82372 4.52941 6.52338 4.42929 6.27639 4.55279C4.48218 5.4499 3.23489 6.74864 2.36704 8.05204C2.03702 6.80645 2.50641 5.51951 3.00708 4.84865C3.78017 3.81278 5.3996 2 8.58938 2C12.045 2 15.2657 4 14.9999 4C14.7341 4 12.5508 4.61547 10.4243 8.5Z" fill="black"/>
</svg>
