<svg width="16" height="16" viewBox="0 0 16 16" fill="none" xmlns="http://www.w3.org/2000/svg">
<path fill-rule="evenodd" clip-rule="evenodd" d="M2.51172 5.00004L10.4999 5.00001V5.00006V6.00006C10.4999 6.27621 10.7238 6.50006 10.9999 6.50006C11.276 6.50006 11.4999 6.27621 11.4999 6.00006V5.00006V5.00001L13.4999 5C13.7761 5 13.9999 5.22386 13.9999 5.5L13.9999 11.0001C13.9999 11.2762 13.7761 11.5001 13.4999 11.5001L11.4999 11.5001V11.0001C11.4999 10.7239 11.276 10.5001 10.9999 10.5001C10.7238 10.5001 10.4999 10.7239 10.4999 11.0001V11.5001L2.51172 11.5001C2.23558 11.5001 2.01172 11.2763 2.01172 11.0001L2.01172 5.50004C2.01172 5.2239 2.23558 5.00005 2.51172 5.00004ZM10.9999 7.50006C11.276 7.50006 11.4999 7.72392 11.4999 8.00006V9.00006C11.4999 9.27621 11.276 9.50006 10.9999 9.50006C10.7238 9.50006 10.4999 9.27621 10.4999 9.00006V8.00006C10.4999 7.72392 10.7238 7.50006 10.9999 7.50006ZM3.4999 7.50006H7.4999V6.50006H3.4999V7.50006ZM3.4999 9.50006H6.4999V8.50006H3.4999V9.50006Z" fill="black"/>
</svg>
