<svg width="16" height="16" viewBox="0 0 16 16" fill="none" xmlns="http://www.w3.org/2000/svg">
<path fill-rule="evenodd" clip-rule="evenodd" d="M5.27204 1.95996C5.01013 1.95996 4.7926 2.16208 4.77339 2.42329L4.52685 5.77547C4.52534 5.79608 4.52329 5.82012 4.52103 5.84668C4.51325 5.93809 4.50293 6.05938 4.50293 6.17332C4.50293 7.88948 5.82919 9.28186 7.51338 9.47668V13.0001H5.50024C5.2241 13.0001 5.00024 13.2239 5.00024 13.5001C5.00024 13.7762 5.2241 14.0001 5.50024 14.0001H10.5235C10.7996 14.0001 11.0235 13.7762 11.0235 13.5001C11.0235 13.2239 10.7996 13.0001 10.5235 13.0001H8.51338V9.47387C10.1863 9.26883 11.5002 7.88145 11.5002 6.17332C11.5002 6.05348 11.4886 5.92501 11.48 5.82858C11.4774 5.7998 11.475 5.77387 11.4734 5.75188L11.2172 2.42162C11.1972 2.16112 10.98 1.95996 10.7187 1.95996H5.27204ZM6.50024 3C6.2241 3 6.00024 3.22386 6.00024 3.5C6.00024 3.77614 6.2241 4 6.50024 4H7.50024C7.77639 4 8.00024 3.77614 8.00024 3.5C8.00024 3.22386 7.77639 3 7.50024 3H6.50024Z" fill="black"/>
</svg>
