<svg width="16" height="16" viewBox="0 0 16 16" fill="none" xmlns="http://www.w3.org/2000/svg">
<path d="M8 2C6.56861 2 5.5 3.1789 5.5 4.83333V6.66675C5.5 7.66906 5.8858 8.50284 6.53883 9.00698C6.60529 9.05829 6.67145 9.10526 6.73534 9.14783L5.96647 9.99358C5.95835 9.99137 5.94893 9.98846 5.9382 9.98467C5.89729 9.9702 5.84528 9.94569 5.78389 9.90845C5.66011 9.83336 5.52314 9.72168 5.39435 9.58911C5.26573 9.4567 5.15793 9.31649 5.08559 9.19283C5.01804 9.07736 5.0036 9.01439 5.00069 9.00173C5.00013 8.99929 5 9 5 9C5 8.72386 4.77614 8.5 4.5 8.5C4.22386 8.5 4 8.72386 4 9C4 9.25795 4.11107 9.50741 4.22245 9.6978C4.34207 9.90226 4.50213 10.1058 4.67707 10.2859C4.85186 10.4658 5.05418 10.6354 5.26521 10.7634L5.26612 10.764L2.63003 13.6637C2.44428 13.868 2.45934 14.1842 2.66367 14.37C2.868 14.5557 3.18422 14.5407 3.36997 14.3363L13.37 3.33634C13.5557 3.13201 13.5407 2.81579 13.3363 2.63003C13.132 2.44428 12.8158 2.45934 12.63 2.66367L10.5 5.0067V4.83333C10.5 3.1789 9.43139 2 8 2Z" fill="black"/>
<path d="M11.5 8.5C11.7761 8.5 12 8.72386 12 9C12 9.28387 11.8491 9.57757 11.6824 9.81263C11.4999 10.0701 11.2385 10.3415 10.9052 10.589C10.3267 11.0184 9.51857 11.3853 8.5 11.4776V13.5C8.5 13.7761 8.27614 14 8 14C7.72386 14 7.5 13.7761 7.5 13.5V11C7.5 10.7239 7.72386 10.5 8 10.5C9.02904 10.5 9.80066 10.1635 10.3091 9.78605C10.5651 9.59599 10.7501 9.39866 10.8667 9.23425C10.9593 9.10356 10.9876 9.02451 10.9962 9.0004C10.9999 8.99005 11 8.98983 11 9C11 8.72386 11.2239 8.5 11.5 8.5Z" fill="black"/>
</svg>
