<svg width="16" height="16" viewBox="0 0 16 16" fill="none" xmlns="http://www.w3.org/2000/svg">
<path d="M6 2.5C6 2.22386 5.77614 2 5.5 2C5.22386 2 5 2.22386 5 2.5V4C4.44775 4 4 4.44775 4 5V7H5C5.27614 7 5.5 7.22386 5.5 7.5C5.5 7.77614 5.27614 8 5 8H4V9.5H4.84033C5.33789 9.5 5.81738 9.31458 6.18555 8.97998L7.17432 8.0813C7.2627 8.0011 7.41113 7.86816 7.61255 7.75C7.81177 7.63306 8.0625 7.53064 8.35791 7.50793L8.42334 7.50293C8.44873 7.50098 8.47437 7.5 8.5 7.5H10.8877L10.1177 6L6.5 6C6.22386 6 6 5.77615 6 5.5C6 5.22386 6.22386 5 6.5 5L9.49495 5C8.93358 4.37249 8.12415 4 7.25879 4H6V2.5Z" fill="black"/>
<path d="M8.5 8.5L8.43457 8.505C8.38406 8.50889 8.33524 8.51915 8.28801 8.53444C8.12319 8.58775 7.97775 8.70234 7.84689 8.82129L6.85815 9.71997C6.30596 10.2219 5.58654 10.5 4.84034 10.5H3C2.44772 10.5 2 10.9477 2 11.5V12C2 12.5523 2.44772 13 3 13L10.6381 13C11.2692 13 11.8633 12.7021 12.2408 12.1964L14.4035 9.29909C14.6497 8.96933 14.4143 8.5 14.0028 8.5H8.5Z" fill="black"/>
</svg>
