<svg width="16" height="16" viewBox="0 0 16 16" fill="none" xmlns="http://www.w3.org/2000/svg">
<path fill-rule="evenodd" clip-rule="evenodd" d="M2.35735 4.48768C2.51329 4.25978 2.82445 4.20143 3.05235 4.35737L7.01179 7.06646C7.31817 7.27609 7.72184 7.27609 8.02822 7.06646L11.9877 4.35737C12.2156 4.20143 12.5267 4.25978 12.6827 4.48768C12.8386 4.71558 12.7803 5.02674 12.5523 5.18267L8.59291 7.89177C7.94609 8.33432 7.09392 8.33432 6.44711 7.89177L2.48766 5.18267C2.25976 5.02674 2.20142 4.71558 2.35735 4.48768ZM7.10986 12.75H2C1.44772 12.75 1 12.3023 1 11.75V4C1 3.44772 1.44772 3 2 3H13C13.5523 3 14 3.44772 14 4V9.17468C13.6575 9.17411 13.3104 9.2638 12.9953 9.45286L12.428 9.79325C11.213 9.01163 9.65743 8.9856 8.41552 9.73075L7.79533 10.1029C6.88124 10.6513 6.57855 11.8305 7.10986 12.75ZM14.224 10.8604C14.3702 11.0946 14.2988 11.4031 14.0645 11.5492L13.4698 11.9203C12.7131 12.3925 11.748 12.3692 11.0149 11.861C10.6101 11.5803 10.0771 11.5674 9.65918 11.8282L9.06451 12.1992C8.83023 12.3454 8.52181 12.274 8.37562 12.0397C8.22943 11.8055 8.30084 11.497 8.53512 11.3509L9.12979 10.9798C9.88653 10.5076 10.8517 10.5309 11.5847 11.0392C11.9895 11.3198 12.5225 11.3327 12.9404 11.0719L13.5351 10.7009C13.7694 10.5547 14.0778 10.6261 14.224 10.8604ZM14.0645 14.1492C14.2988 14.0031 14.3702 13.6946 14.224 13.4604C14.0778 13.2261 13.7694 13.1547 13.5351 13.3009L12.9404 13.6719C12.5225 13.9327 11.9895 13.9198 11.5847 13.6392C10.8517 13.1309 9.88653 13.1076 9.12979 13.5798L8.53512 13.9509C8.30084 14.0971 8.22943 14.4055 8.37562 14.6398C8.52181 14.874 8.83023 14.9454 9.06451 14.7992L9.65918 14.4282C10.0771 14.1674 10.6101 14.1803 11.0149 14.461C11.748 14.9692 12.7131 14.9925 13.4698 14.5203L14.0645 14.1492Z" fill="black"/>
</svg>
