<svg width="16" height="16" viewBox="0 0 16 16" fill="none" xmlns="http://www.w3.org/2000/svg">
<path fill-rule="evenodd" clip-rule="evenodd" d="M5 3.03567C5 2.70723 5.18557 2.40697 5.47934 2.26009C7.06613 1.46669 8.93387 1.46669 10.5207 2.26009C10.8144 2.40697 11 2.70723 11 3.03567V4.6456C10.2039 3.93304 9.15253 3.49976 8 3.49976C6.84747 3.49976 5.79613 3.93304 5 4.6456V3.03567ZM8 12.4998C9.15253 12.4998 10.2039 12.0665 11 11.3539V12.9638C11 13.2923 10.8144 13.5925 10.5207 13.7394C8.93387 14.5328 7.06613 14.5328 5.47934 13.7394C5.18557 13.5925 5 13.2923 5 12.9638V11.3539C5.79613 12.0665 6.84747 12.4998 8 12.4998ZM4.5 7.99976C4.5 6.06676 6.067 4.49976 8 4.49976C9.933 4.49976 11.5 6.06676 11.5 7.99976C11.5 9.93275 9.933 11.4998 8 11.4998C6.067 11.4998 4.5 9.93275 4.5 7.99976ZM9 6.49976C9 6.22361 8.77614 5.99976 8.5 5.99976C8.22386 5.99976 8 6.22361 8 6.49976V7.99976H7.5C7.22386 7.99976 7 8.22361 7 8.49976C7 8.7759 7.22386 8.99976 7.5 8.99976H8.4C8.73137 8.99976 9 8.73113 9 8.39976V6.49976ZM13.5 7.49976C13.5 7.22361 13.2761 6.99976 13 6.99976C12.7239 6.99976 12.5 7.22361 12.5 7.49976V8.49976C12.5 8.7759 12.7239 8.99976 13 8.99976C13.2761 8.99976 13.5 8.7759 13.5 8.49976V7.49976Z" fill="black"/>
</svg>
