<svg width="16" height="16" viewBox="0 0 16 16" fill="none" xmlns="http://www.w3.org/2000/svg">
<path d="M8 2C6.66992 2 5.42139 2.3551 4.40112 2.95795C4.16357 3.09845 3.85693 3.01965 3.71631 2.78192C3.57593 2.54419 3.65479 2.23755 3.89233 2.09711C5.06934 1.40149 6.49414 1 8 1C9.5061 1 10.9307 1.40149 12.1077 2.09711C12.3455 2.23755 12.4241 2.54419 12.2837 2.78192C12.1431 3.01965 11.8364 3.09845 11.5989 2.95795C10.5789 2.3551 9.33032 2 8 2Z" fill="black"/>
<path d="M9.5 10C9.5 10.8284 8.82837 11.5 8 11.5C7.17163 11.5 6.5 10.8284 6.5 10C6.5 9.17157 7.17163 8.5 8 8.5C8.82837 8.5 9.5 9.17157 9.5 10Z" fill="black"/>
<path fill-rule="evenodd" clip-rule="evenodd" d="M3.46289 8V6.99994C3.46289 6.44769 3.91064 5.99994 4.46289 5.99994H11.6555C12.2078 5.99994 12.6555 6.44769 12.6555 6.99994V8H13C13.5522 8 14 8.44769 14 9V13C14 13.5523 13.5522 14 13 14H3C2.44775 14 2 13.5523 2 13V9C2 8.44769 2.44775 8 3 8H3.46289ZM10.5 10C10.5 11.3807 9.38062 12.5 8 12.5C6.61938 12.5 5.5 11.3807 5.5 10C5.5 8.61926 6.61938 7.5 8 7.5C9.38062 7.5 10.5 8.61926 10.5 10Z" fill="black"/>
<path d="M6.32275 4.9469C6.81567 4.66284 7.3877 4.5 7.99976 4.5C8.61157 4.5 9.18384 4.66284 9.67651 4.9469C9.91577 5.08484 10.2214 5.00275 10.3594 4.76349C10.4973 4.52429 10.4153 4.21851 10.176 4.08057C9.5354 3.71118 8.7915 3.5 7.99976 3.5C7.20801 3.5 6.46411 3.71118 5.82324 4.08057C5.58423 4.21851 5.50195 4.52429 5.63989 4.76349C5.77783 5.00275 6.0835 5.08484 6.32275 4.9469Z" fill="black"/>
</svg>
