<svg width="16" height="16" viewBox="0 0 16 16" fill="none" xmlns="http://www.w3.org/2000/svg">
<path fill-rule="evenodd" clip-rule="evenodd" d="M3 2.5V9.13587C3 9.4674 3.04174 9.7976 3.12425 10.1187C3.40161 11.1981 4.07455 12.1339 5.00959 12.7405L5.22222 12.8784L7.74792 14.3528C7.90367 14.4438 8.09633 14.4438 8.25208 14.3528L10.7778 12.8784L10.9904 12.7405C11.9255 12.1339 12.5984 11.1981 12.8758 10.1187C12.9583 9.79759 13 9.4674 13 9.13588L13 2.5C13 2.22386 12.7762 2 12.5 2H3.5C3.22386 2 3 2.22386 3 2.5ZM10.8536 6.35355C11.0488 6.15829 11.0488 5.84171 10.8536 5.64645C10.6583 5.45118 10.3417 5.45118 10.1464 5.64645L7.5 8.29289L6.35355 7.14645C6.15829 6.95118 5.84171 6.95118 5.64645 7.14645C5.45118 7.34171 5.45118 7.65829 5.64645 7.85355L7.07574 9.28284C7.31005 9.51716 7.68995 9.51716 7.92426 9.28284L10.8536 6.35355Z" fill="black"/>
</svg>
