<svg width="16" height="16" viewBox="0 0 16 16" fill="none" xmlns="http://www.w3.org/2000/svg">
<path fill-rule="evenodd" clip-rule="evenodd" d="M9.89656 3.60367C9.67761 3.38472 9.32262 3.38472 9.10367 3.60367L8.38308 4.32425C8.17157 4.53576 7.82865 4.53576 7.61715 4.32425L6.89656 3.60367C6.67761 3.38472 6.32262 3.38472 6.10367 3.60367C5.88472 3.82262 5.88472 4.17761 6.10367 4.39656L6.70711 5H9.29312L9.89656 4.39656C10.1155 4.17761 10.1155 3.82262 9.89656 3.60367ZM5.39656 2.89656C4.82054 3.47258 4.78892 4.38685 5.3017 5H3.5C3.22386 5 3 5.22386 3 5.5V6.5C3 6.77614 3.22386 7 3.5 7H4V7.00006H6C6.27614 7.00006 6.5 7.22392 6.5 7.50006C6.5 7.77621 6.27614 8.00006 6 8.00006H4V12.5C4 12.7761 4.22386 13 4.5 13H7.50005V7.50721L7.5 7.50006L7.50005 7.49291V6.5C7.50005 6.22386 7.72391 6 8.00005 6C8.27619 6 8.50005 6.22386 8.50005 6.5V7.00006H12V7H12.5C12.7761 7 13 6.77614 13 6.5V5.5C13 5.22386 12.7761 5 12.5 5H10.6985C11.2113 4.38685 11.1797 3.47258 10.6037 2.89656C9.99419 2.28708 9.00604 2.28708 8.39656 2.89656L8.00011 3.29301L7.60367 2.89656C6.99419 2.28708 6.00604 2.28708 5.39656 2.89656ZM12 8.00006H8.50005V13H11.5C11.7761 13 12 12.7761 12 12.5V8.00006Z" fill="black"/>
</svg>
