<svg width="16" height="16" viewBox="0 0 16 16" fill="none" xmlns="http://www.w3.org/2000/svg">
<path fill-rule="evenodd" clip-rule="evenodd" d="M6.97428 3.42303C6.74092 2.72295 7.262 2 7.99994 2C8.73788 2 9.25895 2.72295 9.02559 3.42303L8.65805 4.52566C8.56363 4.80893 8.29853 5 7.99994 5C7.70134 5 7.43625 4.80893 7.34182 4.52566L6.97428 3.42303ZM3.40188 7.95842C4.61045 7.72403 5.7308 7.16041 6.63938 6.32971L6.78028 6.20089C6.92162 6.07166 7.1062 6 7.29772 6H8.70228C8.8938 6 9.07838 6.07166 9.21972 6.20089L9.36062 6.32971C10.2692 7.16041 11.3896 7.72403 12.5981 7.95842L12.6656 7.9715C13.1501 8.06547 13.5 8.48975 13.5 8.98331V9.09599C13.5 9.47591 13.2551 9.81251 12.8935 9.92936C11.147 10.4939 9.63616 11.6201 8.59629 13.1327L8.54121 13.2128C8.28024 13.5924 7.71976 13.5924 7.45879 13.2128L7.40371 13.1327C6.36384 11.6201 4.85299 10.4939 3.10645 9.92936C2.74494 9.81251 2.5 9.47591 2.5 9.09599V8.98331C2.5 8.48975 2.8499 8.06547 3.33443 7.9715L3.40188 7.95842ZM8 9C7.72386 9 7.5 9.22386 7.5 9.5C7.5 9.77614 7.72386 10 8 10H10C10.2761 10 10.5 9.77614 10.5 9.5C10.5 9.22386 10.2761 9 10 9H8Z" fill="black"/>
</svg>
