<svg width="16" height="16" viewBox="0 0 16 16" fill="none" xmlns="http://www.w3.org/2000/svg">
<path fill-rule="evenodd" clip-rule="evenodd" d="M2 4.32961C2 4.03773 2.35028 3.88869 2.56059 4.09107C3.46871 4.96496 4.90262 4.97304 5.82053 4.10945L6.0642 3.8802C6.55375 3.41961 7.33986 3.50957 7.71271 4.06884L7.94036 4.41031C7.96873 4.45287 8.03127 4.45287 8.05964 4.41031L8.28729 4.06884C8.66014 3.50957 9.44624 3.41961 9.9358 3.8802L10.1795 4.10945C11.0974 4.97304 12.5313 4.96496 13.4394 4.09107C13.6497 3.88869 14 4.03773 14 4.32961V7.7508C14 9.15053 13.4545 10.3753 11.2727 11.4251C9.20439 12.4203 6.79561 12.4203 4.72727 11.4251C2.54545 10.4022 2 9.15051 2 7.75078V4.32961ZM7.35355 5.6462C7.15829 5.45094 6.84171 5.45094 6.64645 5.6462C6.45118 5.84146 6.45118 6.15805 6.64645 6.35331C7.01143 6.7183 7.52576 6.87476 8 6.87476C8.47424 6.87476 8.98857 6.7183 9.35355 6.35331C9.54882 6.15805 9.54882 5.84146 9.35355 5.6462C9.15829 5.45094 8.84171 5.45094 8.64645 5.6462C8.51143 5.78122 8.27576 5.87476 8 5.87476C7.72424 5.87476 7.48857 5.78122 7.35355 5.6462Z" fill="black"/>
</svg>
