<svg width="16" height="16" viewBox="0 0 16 16" fill="none" xmlns="http://www.w3.org/2000/svg">
<path fill-rule="evenodd" clip-rule="evenodd" d="M6 2C5.72386 2 5.5 2.22386 5.5 2.5C5.5 2.77614 5.72386 3 6 3H12V13H6C5.72386 13 5.5 13.2239 5.5 13.5C5.5 13.7761 5.72386 14 6 14H12C12.5523 14 13 13.5523 13 13V3C13 2.44772 12.5523 2 12 2H6ZM6.14643 4.85355C5.95116 4.65829 5.95116 4.34171 6.14643 4.14645C6.34169 3.95118 6.65827 3.95118 6.85353 4.14645L10.2828 7.57574C10.5171 7.81005 10.5171 8.18995 10.2828 8.42426L6.85353 11.8536C6.65827 12.0488 6.34169 12.0488 6.14643 11.8536C5.95116 11.6583 5.95116 11.3417 6.14643 11.1464L9.29287 8L6.14643 4.85355ZM4.64643 6.35355C4.45116 6.15829 4.45116 5.84171 4.64643 5.64645C4.84169 5.45118 5.15827 5.45118 5.35353 5.64645L7.28282 7.57574C7.51714 7.81005 7.51713 8.18995 7.28282 8.42426L5.35353 10.3536C5.15827 10.5488 4.84169 10.5488 4.64643 10.3536C4.45116 10.1583 4.45116 9.84171 4.64643 9.64645L5.79287 8.5H3C2.72386 8.5 2.5 8.27614 2.5 8C2.5 7.72386 2.72386 7.5 3 7.5H5.79287L4.64643 6.35355Z" fill="black"/>
</svg>
