<svg width="16" height="16" viewBox="0 0 16 16" fill="none" xmlns="http://www.w3.org/2000/svg">
<path fill-rule="evenodd" clip-rule="evenodd" d="M7.4794 2.40388C7.70973 2.00079 8.29095 2.00079 8.52129 2.40388L14.349 12.6023C14.5775 13.0023 14.2887 13.5 13.828 13.5H2.17266C1.71196 13.5 1.42315 13.0023 1.65172 12.6023L7.4794 2.40388ZM7.19863 12C6.97763 12 6.74363 11.961 6.56813 11.8895V10.856C6.65913 10.934 6.83463 11.0055 7.00363 11.0055C7.16613 11.0055 7.33513 10.973 7.43263 10.752L5.65813 7.39148H6.91263L8.01763 9.68598L8.88863 7.39148H10.0001L8.53113 10.908C8.18013 11.753 7.86163 12 7.19863 12Z" fill="black"/>
</svg>
