<svg width="16" height="16" viewBox="0 0 16 16" fill="none" xmlns="http://www.w3.org/2000/svg">
<path fill-rule="evenodd" clip-rule="evenodd" d="M2 5C2 4.72388 1.77612 4.5 1.5 4.5C1.36914 4.5 1.24976 4.55042 1.16064 4.63281C1.06177 4.72412 1 4.85486 1 5V9.5033C1.00171 10.0538 1.44873 10.5 2 10.5H2.16841C2.06042 10.2727 2 10.0184 2 9.75C2 8.7835 2.7835 8 3.75 8C4.7165 8 5.5 8.7835 5.5 9.75C5.5 10.0184 5.43958 10.2727 5.33159 10.5H10.6684C10.5604 10.2727 10.5 10.0184 10.5 9.75C10.5 8.7835 11.2835 8 12.25 8C13.2165 8 14 8.7835 14 9.75C14 10.0184 13.9396 10.2727 13.8316 10.5H14C14.5522 10.5 15 10.0522 15 9.50024V9L14.9902 8.99927C14.9421 8.49023 14.7183 8.01123 14.3538 7.64661C13.9397 7.23267 13.3782 7 12.7927 7H11.874C11.6819 7 11.491 6.97742 11.3059 6.93311L9.41724 5.17163C8.95435 4.73999 8.34497 4.5 7.71216 4.5H4.53833C3.72461 4.5 2.96191 4.896 2.49365 5.56165L2 6.26355V5ZM4.50005 5.5H4.26763C4.10046 5.5 3.94434 5.58355 3.85161 5.72265L3.10369 6.84453C3.05938 6.91099 3.10702 7 3.18689 7L4.50005 7V5.5ZM5.50005 7L9.25862 7C9.34771 7 9.39233 6.89229 9.32933 6.82929L8.14649 5.64645C8.05272 5.55268 7.92554 5.5 7.79293 5.5H5.50005V7Z" fill="black"/>
<path d="M12.25 10.5C12.6642 10.5 13 10.1642 13 9.75C13 9.33579 12.6642 9 12.25 9C11.8358 9 11.5 9.33579 11.5 9.75C11.5 10.1642 11.8358 10.5 12.25 10.5Z" fill="black"/>
<path d="M3.75 10.5C4.16421 10.5 4.5 10.1642 4.5 9.75C4.5 9.33579 4.16421 9 3.75 9C3.33579 9 3 9.33579 3 9.75C3 10.1642 3.33579 10.5 3.75 10.5Z" fill="black"/>
</svg>
