<svg width="16" height="16" viewBox="0 0 16 16" fill="none" xmlns="http://www.w3.org/2000/svg">
<path fill-rule="evenodd" clip-rule="evenodd" d="M1 6.76316V6.90627C1 7.38571 1.08826 7.86106 1.26037 8.30854L2.25357 10.8909C2.38224 11.2254 2.4674 11.5751 2.50698 11.9313L2.52547 12.0976C2.6458 13.1806 3.56124 14 4.65093 14H4.75649C5.87928 14 6.78947 13.0898 6.78947 11.967C6.78947 11.4051 6.9558 10.8558 7.26749 10.3882L7.49812 10.0423C7.79681 9.59425 8.04817 9.11642 8.24815 8.61646C8.43191 8.15708 8.52632 7.66685 8.52632 7.17208V6.62468C8.52632 4.62282 6.9035 3 4.90164 3H4.76316C2.68482 3 1 4.68482 1 6.76316ZM4.76316 5.81578C4.25457 5.81578 3.8158 6.29165 3.8158 6.76315C3.8158 7.07157 3.8857 7.29035 3.98142 7.45439C4.06134 7.59135 4.14918 7.72716 4.24458 7.87464L4.27498 7.92165C4.37931 8.08311 4.49137 8.25824 4.59218 8.44023C4.7936 8.80387 4.97369 9.23523 4.97369 9.73606V10.2368C4.97369 10.513 4.74983 10.7368 4.47369 10.7368C4.19755 10.7368 3.97369 10.513 3.97369 10.2368V9.73606C3.97369 9.47934 3.88261 9.22301 3.71741 8.92477C3.63491 8.77583 3.53981 8.62647 3.43507 8.46439L3.40402 8.41638L3.40402 8.41637L3.40401 8.41636C3.31059 8.27198 3.20995 8.11645 3.11771 7.95837C2.92527 7.62858 2.8158 7.23324 2.8158 6.76315C2.8158 5.76908 3.67304 4.81578 4.76316 4.81578C5.85329 4.81578 6.71053 5.76908 6.71053 6.76315C6.71053 7.03929 6.48668 7.26315 6.21053 7.26315C5.93439 7.26315 5.71053 7.03929 5.71053 6.76315C5.71053 6.29165 5.27176 5.81578 4.76316 5.81578ZM10.3536 3.64645C10.1583 3.45118 9.84171 3.45118 9.64645 3.64645C9.45118 3.84171 9.45118 4.15829 9.64645 4.35355L11.0297 5.73684L9.64645 7.12013C9.45118 7.31539 9.45118 7.63198 9.64645 7.82724C9.84171 8.0225 10.1583 8.0225 10.3536 7.82724L11.7368 6.44395L13.1201 7.82724C13.3154 8.0225 13.632 8.0225 13.8272 7.82724C14.0225 7.63198 14.0225 7.31539 13.8272 7.12013L12.4439 5.73684L13.8272 4.35355C14.0225 4.15829 14.0225 3.84171 13.8272 3.64645C13.632 3.45118 13.3154 3.45118 13.1201 3.64645L11.7368 5.02974L10.3536 3.64645Z" fill="black"/>
</svg>
