<svg width="16" height="16" viewBox="0 0 16 16" fill="none" xmlns="http://www.w3.org/2000/svg">
<path d="M6.5 5.5H12.5C12.7761 5.5 13 5.27614 13 5V4C13 3.72386 12.7761 3.5 12.5 3.5H6.5C6.22386 3.5 6 3.72386 6 4V5C6 5.27614 6.22386 5.5 6.5 5.5Z" fill="black"/>
<path d="M7.89687 8.3754C7.50931 8.21066 7.1156 8.06872 6.5 8.01896V6.5H12.5V8.46076C12.3859 8.48372 12.2723 8.51639 12.1603 8.55915C11.7838 8.68459 11.4016 8.79216 11.0146 8.88002C10.9635 8.83313 10.9067 8.78805 10.8438 8.74607C10.5915 8.57787 10.3 8.5 10 8.5H8.53491C8.30522 8.5 8.08946 8.45727 7.89687 8.3754Z" fill="black"/>
<path d="M2 8.5H2.5C2.77614 8.5 3 8.72386 3 9V13.5C3 13.7761 2.77614 14 2.5 14H2V8.5Z" fill="black"/>
<path d="M10 9.5C10.5 9.5 10.5 10 10.5 10C10.5 10.2761 10.2761 10.5 10 10.5H9C8.72386 10.5 8.5 10.7239 8.5 11C8.5 11.2761 8.72386 11.5 9 11.5H10C10.8284 11.5 11.5 10.8284 11.5 10V9.83322L12.5 9.5C13.0422 9.28312 13.6601 9.51806 13.9213 10.0404C14.2122 10.6222 13.9493 11.3288 13.3489 11.579L9.59165 13.0451C8.88775 13.3384 8.1015 13.3672 7.37807 13.126L6.86687 12.9556C5.96155 12.6538 5.01349 12.5 4.05919 12.5C4.0265 12.5 4 12.4735 4 12.4408V10.0414C4 10.0149 4.01041 9.98951 4.02935 9.97094C4.52908 9.48081 5.26476 9 6 9C6.75634 9 7.11516 9.12972 7.50568 9.29571C7.83121 9.43409 8.18119 9.5 8.53491 9.5H10Z" fill="black"/>
</svg>
