<svg width="16" height="16" viewBox="0 0 16 16" fill="none" xmlns="http://www.w3.org/2000/svg">
<path fill-rule="evenodd" clip-rule="evenodd" d="M5.21259 4.5C4.50528 4.5 3.89409 4.9941 3.74589 5.68571L2.75915 10.2905C2.62576 10.913 3.10031 11.5 3.73695 11.5H12.263C12.8996 11.5 13.3742 10.913 13.2408 10.2905L12.254 5.68571C12.1058 4.9941 11.4946 4.5 10.7873 4.5H5.21259ZM5.89051 6C5.43164 6 5.03166 6.3123 4.92036 6.75746L4.51505 8.37873C4.44807 8.64663 4.61095 8.9181 4.87885 8.98507C5.14675 9.05205 5.41822 8.88916 5.48519 8.62127L5.89051 7L7.50012 7C7.77626 7 8.00012 6.77614 8.00012 6.5C8.00012 6.22386 7.77626 6 7.50012 6H5.89051Z" fill="black"/>
</svg>
