<svg width="16" height="16" viewBox="0 0 16 16" fill="none" xmlns="http://www.w3.org/2000/svg">
<path fill-rule="evenodd" clip-rule="evenodd" d="M10.5481 3.85147L10.8701 2.08046C10.9423 1.68363 11.4304 1.53115 11.7156 1.81635L14.2384 4.33908C14.5394 4.64008 14.3505 5.15555 13.9263 5.1909L12.0267 5.34921C11.8706 5.02979 11.6598 4.73036 11.3944 4.4649C11.1395 4.21001 10.8533 4.00554 10.5481 3.85147ZM3.85123 10.5482L2.08021 10.8702C1.68339 10.9424 1.5309 11.4305 1.8161 11.7157L4.34628 14.2459C4.64604 14.5456 5.1594 14.3598 5.19778 13.9376L5.37053 12.0373C5.04305 11.8802 4.73613 11.666 4.46472 11.3946C4.2098 11.1396 4.0053 10.8534 3.85123 10.5482ZM10.6873 5.17201C9.78907 4.2738 8.33279 4.2738 7.43458 5.17201L5.17183 7.43476C4.27362 8.33297 4.27362 9.78925 5.17183 10.6875C6.07004 11.5857 7.52632 11.5857 8.42453 10.6875L10.6873 8.42471C11.5855 7.5265 11.5855 6.07022 10.6873 5.17201ZM9.13152 6.16182C9.32678 6.35708 9.32678 6.67366 9.13152 6.86892L6.58593 9.41452C6.39067 9.60978 6.07408 9.60978 5.87882 9.41452C5.68356 9.21925 5.68356 8.90267 5.87882 8.70741L8.42442 6.16182C8.61968 5.96655 8.93626 5.96655 9.13152 6.16182Z" fill="black"/>
</svg>
