<svg width="16" height="16" viewBox="0 0 16 16" fill="none" xmlns="http://www.w3.org/2000/svg">
<path fill-rule="evenodd" clip-rule="evenodd" d="M9.30761 1.34367C9.5755 1.41067 9.73835 1.68216 9.67135 1.95005L9.59626 2.25028C12.4434 3.01522 14.0545 5.73961 13.8842 8.67661C13.8523 9.228 13.3198 9.58281 12.7777 9.47739L8.3357 8.61364L7.19635 13.7413H12.7793C13.0554 13.7413 13.2793 13.9652 13.2793 14.2413C13.2793 14.5175 13.0554 14.7413 12.7793 14.7413H6.58216C6.57803 14.7414 6.5739 14.7414 6.56976 14.7414C6.56814 14.7414 6.56652 14.7413 6.56491 14.7413H2C1.72386 14.7413 1.5 14.5175 1.5 14.2413C1.5 13.9652 1.72386 13.7413 2 13.7413H6.17196L7.35374 8.42269L2.9817 7.57254C2.43959 7.46712 2.07873 6.9385 2.25905 6.41651C3.20343 3.68278 5.7389 1.79795 8.61006 2.07195L8.70123 1.70741C8.76823 1.43952 9.03972 1.27667 9.30761 1.34367ZM9.63412 3.63028C9.36622 3.5633 9.09475 3.72618 9.02778 3.99408C8.9608 4.26198 9.12369 4.53344 9.39158 4.60042C10.4607 4.8677 11.3423 5.982 11.6409 7.17642C11.7079 7.44432 11.9794 7.6072 12.2473 7.54022C12.5152 7.47325 12.6781 7.20178 12.6111 6.93388C12.2564 5.51514 11.1781 4.01628 9.63412 3.63028Z" fill="black"/>
</svg>
