<svg width="16" height="16" viewBox="0 0 16 16" fill="none" xmlns="http://www.w3.org/2000/svg">
<path fill-rule="evenodd" clip-rule="evenodd" d="M4.47571 2C3.92342 2 3.47571 2.44772 3.47571 3V9.04604C3.47571 9.59832 3.92342 10.046 4.47571 10.046H14.2353C14.7876 10.046 15.2353 9.59832 15.2353 9.04603V5.537C15.2353 5.25525 15.1164 4.98658 14.908 4.79706L12.1173 2.26006C11.9332 2.09272 11.6934 2 11.4446 2H4.47571ZM5.33246 5.22571H9.66494V3.72571H5.33246V5.22571ZM9.66494 7.70142H5.33246V6.20142H9.66494V7.70142ZM2.23785 4.47571V9.28389C2.23785 10.3885 3.13328 11.2839 4.23785 11.2839H12.7596V11.5217C12.7596 12.074 12.3119 12.5217 11.7596 12.5217H2C1.44772 12.5217 1 12.074 1 11.5217V5.47571C1 4.92342 1.44772 4.47571 2 4.47571H2.23785Z" fill="black"/>
</svg>
