<svg width="16" height="16" viewBox="0 0 16 16" fill="none" xmlns="http://www.w3.org/2000/svg">
<path d="M9.94995 2.5V4.54999H6.55005C5.44543 4.54999 4.55005 5.44542 4.55005 6.54999V9.95H2.5C1.94775 9.95 1.5 9.50229 1.5 8.95V2.5C1.5 1.94771 1.94775 1.5 2.5 1.5H8.94995C9.50232 1.5 9.94995 1.94771 9.94995 2.5Z" fill="black"/>
<path d="M5.55005 6.54999V9.95H8.94995C9.50232 9.95 9.94995 9.50229 9.94995 8.95V5.54999H6.55005C5.9978 5.54999 5.55005 5.9977 5.55005 6.54999Z" fill="black"/>
<path d="M8.94995 10.95H5.55005V13C5.55005 13.5523 5.9978 14 6.55005 14H13C13.5524 14 14 13.5523 14 13V6.54999C14 5.9977 13.5524 5.54999 13 5.54999H10.95V8.95C10.95 10.0546 10.0546 10.95 8.94995 10.95Z" fill="black"/>
</svg>
