<svg width="16" height="16" viewBox="0 0 16 16" fill="none" xmlns="http://www.w3.org/2000/svg">
<path fill-rule="evenodd" clip-rule="evenodd" d="M10 3C10.5523 3 11 3.44771 11 4V5H12C13.1046 5 14 5.89543 14 7C14 8.96097 12.5889 10.5924 10.7267 10.9341C10.6203 11.4498 10.4828 11.8098 10.3143 12.1304C9.94857 12.8261 9.4 13 8.71429 13H5.28571C4.6 13 4.05143 12.8261 3.68571 12.1304C3.22857 11.2609 3 10.1014 3 6.33333V4C3 3.44772 3.44772 3 4 3H10ZM10.8794 9.86906C12.1071 9.4932 13 8.35087 13 7C13 6.44772 12.5523 6 12 6H11V6.33333C11 7.91381 10.9598 9.03535 10.8794 9.86906Z" fill="black"/>
</svg>
