<svg width="16" height="16" viewBox="0 0 16 16" fill="none" xmlns="http://www.w3.org/2000/svg">
<path fill-rule="evenodd" clip-rule="evenodd" d="M15 7.80556C15 9.42581 14.4176 10.9138 13.4452 12.0825C13.1167 12.4774 12.6125 12.6667 12.0988 12.6667H3.90121C3.38754 12.6667 2.88329 12.4774 2.55475 12.0825C1.58239 10.9138 1 9.42581 1 7.80556C1 4.04695 4.13401 1 8 1C11.866 1 15 4.04695 15 7.80556ZM1 14C1 13.7239 1.22386 13.5 1.5 13.5H14.5C14.7761 13.5 15 13.7239 15 14C15 14.2761 14.7761 14.5 14.5 14.5H1.5C1.22386 14.5 1 14.2761 1 14ZM8.00002 4C8.27616 4 8.50002 4.22386 8.50002 4.5L8.5 8.45193L10.0187 7.22249C10.2333 7.04875 10.5482 7.08189 10.7219 7.29652C10.8957 7.51115 10.8625 7.82599 10.6479 7.99974L8.37751 9.83769C8.15737 10.0159 7.8426 10.0159 7.62247 9.83769L5.35204 7.99974C5.13741 7.82599 5.10427 7.51115 5.27802 7.29652C5.45177 7.08189 5.76661 7.04875 5.98124 7.22249L7.5 8.45196L7.50002 4.5C7.50002 4.22386 7.72387 4 8.00002 4Z" fill="black"/>
</svg>
