<svg width="16" height="16" viewBox="0 0 16 16" fill="none" xmlns="http://www.w3.org/2000/svg">
<path fill-rule="evenodd" clip-rule="evenodd" d="M3 5C2.44772 5 2 5.44772 2 6V12C2 12.5523 2.44772 13 3 13H13C13.5523 13 14 12.5523 14 12V6C14 5.44772 13.5523 5 13 5H12.5C12.2239 5 12 4.77614 12 4.5V4C12 3.44772 11.5523 3 11 3H5C4.44772 3 4 3.44772 4 4V4.5C4 4.77614 3.77614 5 3.5 5H3ZM9.5 8.5C9.5 9.32843 8.82843 10 8 10C7.17157 10 6.5 9.32843 6.5 8.5C6.5 7.67157 7.17157 7 8 7C8.82843 7 9.5 7.67157 9.5 8.5ZM10.5 8.5C10.5 9.88071 9.38071 11 8 11C6.61929 11 5.5 9.88071 5.5 8.5C5.5 7.11929 6.61929 6 8 6C9.38071 6 10.5 7.11929 10.5 8.5Z" fill="black"/>
</svg>
