<svg width="16" height="16" viewBox="0 0 16 16" fill="none" xmlns="http://www.w3.org/2000/svg">
<path fill-rule="evenodd" clip-rule="evenodd" d="M3 7H2.5C2.22386 7 2 7.22386 2 7.5C2 7.77614 2.22386 8 2.5 8H3.12602C3.57006 9.72523 5.13616 11 7 11H8.75771C11.0206 11 12.871 9.23131 13.0005 7H8.5H7.98457H7H3ZM12.9418 6H7.988L7.99899 2.79357C7.99955 2.63127 8.13127 2.5 8.29357 2.5H8.75771C10.8494 2.5 12.5876 4.01084 12.9418 6ZM5 11.25C4.30964 11.25 3.75 11.8096 3.75 12.5C3.75 13.1904 4.30964 13.75 5 13.75C5.69036 13.75 6.25 13.1904 6.25 12.5C6.25 11.8096 5.69036 11.25 5 11.25ZM11 11.25C10.3096 11.25 9.75 11.8096 9.75 12.5C9.75 13.1904 10.3096 13.75 11 13.75C11.6904 13.75 12.25 13.1904 12.25 12.5C12.25 11.8096 11.6904 11.25 11 11.25Z" fill="black"/>
</svg>
