<svg width="16" height="16" viewBox="0 0 16 16" fill="none" xmlns="http://www.w3.org/2000/svg">
<path fill-rule="evenodd" clip-rule="evenodd" d="M3.5 2C3.22386 2 3 2.22386 3 2.5V13.5C3 13.7761 3.22386 14 3.5 14H12.5C12.7761 14 13 13.7761 13 13.5V2.5C13 2.22386 12.7761 2 12.5 2H3.5ZM5 8V9H11V8H5ZM9 11.5H5V10.5H9V11.5ZM6.5 7C6.5 6.17157 7.17157 5.5 8 5.5C8.21425 5.5 8.41677 5.54462 8.59981 5.62459L9.00019 4.70824C8.69326 4.57414 8.35463 4.5 8 4.5C6.61929 4.5 5.5 5.61929 5.5 7H6.5ZM9.04998 5.92876C9.32828 6.20158 9.5 6.58029 9.5 7H10.5C10.5 6.30076 10.2123 5.66781 9.75002 5.21466L9.04998 5.92876Z" fill="black"/>
</svg>
