<svg width="16" height="16" viewBox="0 0 16 16" fill="none" xmlns="http://www.w3.org/2000/svg">
<path fill-rule="evenodd" clip-rule="evenodd" d="M3 3V8.85714C3 10.343 3.83473 11.3996 4.85304 12.2369C5.16527 12.4937 5.51328 12.7023 5.87166 12.8893C7.20522 13.5852 8.79478 13.5852 10.1283 12.8893C10.4867 12.7023 10.8347 12.4937 11.147 12.2369C12.1653 11.3996 13 10.343 13 8.85714V3C13 2.72386 12.7761 2.5 12.5 2.5H3.5C3.22386 2.5 3 2.72386 3 3ZM6.31482 5.53552C6.57135 5.43331 6.86217 5.55841 6.96438 5.81494L7.20495 6.41872C7.25209 6.47016 7.319 6.50001 7.38975 6.50001H8.59329C8.68901 6.50001 8.78098 6.46627 8.85356 6.4058L9.0216 5.85428C9.10208 5.59013 9.38147 5.44124 9.64562 5.52172C9.90977 5.6022 10.0587 5.88159 9.97818 6.14574L9.78665 6.77436C9.75795 6.86855 9.70918 6.9554 9.64369 7.02892C9.37679 7.3286 8.9946 7.50001 8.59329 7.50001H7.38975C6.98255 7.50001 6.60085 7.30178 6.36663 6.96868C6.33748 6.92721 6.31327 6.88247 6.2945 6.83538L6.0354 6.18508C5.93319 5.92855 6.05829 5.63773 6.31482 5.53552ZM6.5 9C6.22386 9 6 9.22386 6 9.5C6 9.77614 6.22386 10 6.5 10H9.5C9.77614 10 10 9.77614 10 9.5C10 9.22386 9.77614 9 9.5 9H6.5Z" fill="black"/>
</svg>
