<svg width="16" height="16" viewBox="0 0 16 16" fill="none" xmlns="http://www.w3.org/2000/svg">
<path fill-rule="evenodd" clip-rule="evenodd" d="M6.39014 7.50029H2C1.72386 7.50029 1.5 7.27643 1.5 7.00029C1.5 6.72415 1.72386 6.50029 2 6.50029H6.35153L7.50543 1.91674C7.63481 1.40281 8.36516 1.40269 8.49457 1.91674L9.64847 6.50029H14C14.2761 6.50029 14.5 6.72415 14.5 7.00029C14.5 7.27643 14.2761 7.50029 14 7.50029H9.60994L9.60994 7.5003H6.39014L6.39014 7.50029ZM4 8.50029C3.72386 8.50029 3.5 8.72415 3.5 9.00029C3.5 9.27643 3.72386 9.50029 4 9.50029H5.46556L4.44904 12.235C4.24597 12.7813 4.86244 13.2672 5.34615 12.9421L8.0019 11.157L10.6827 12.9344C11.1775 13.2625 11.7973 12.7495 11.5674 12.202L10.5 9.66V9.50029H12C12.2761 9.50029 12.5 9.27643 12.5 9.00029C12.5 8.72415 12.2761 8.50029 12 8.50029H10.5H9.83109H6.04099H5.79064H4Z" fill="black"/>
</svg>
