<svg width="16" height="16" viewBox="0 0 16 16" fill="none" xmlns="http://www.w3.org/2000/svg">
<path fill-rule="evenodd" clip-rule="evenodd" d="M3.00935 13C2.6757 13 2.35417 12.8366 2.23181 12.5262C1.91525 11.7231 1.85851 10.5689 2.47539 9.75C2.14055 8.91667 1.86152 7 3.22873 5.25C4.7354 3.32148 6.99567 3 8.00014 3C9.00459 3 11.2646 3.32148 12.7713 5.25C14.1385 7 13.8594 8.91667 13.5246 9.75C14.1415 10.5689 14.0848 11.7231 13.7682 12.5262C13.6458 12.8366 13.3243 13 12.9907 13H3.00935ZM5.16862 9.19952C4.99453 9.24926 4.89612 9.31102 4.85357 9.35357C4.65831 9.54884 4.34173 9.54886 4.14646 9.3536C3.95119 9.15835 3.95118 8.84177 4.14643 8.6465C4.35388 8.43903 4.63047 8.31327 4.89388 8.238C5.16404 8.16081 5.46111 8.125 5.75 8.125C6.03889 8.125 6.33596 8.1608 6.60612 8.238C6.86953 8.31327 7.14612 8.43903 7.35357 8.6465C7.54882 8.84177 7.54881 9.15836 7.35353 9.35361C7.15826 9.54886 6.84168 9.54884 6.64643 9.35357C6.60388 9.31101 6.50547 9.24926 6.33138 9.19952C6.16404 9.1517 5.96111 9.125 5.75 9.125C5.53889 9.125 5.33596 9.1517 5.16862 9.19952ZM9.35357 9.3536C9.39613 9.31104 9.49454 9.24928 9.66863 9.19953C9.83597 9.15171 10.0389 9.12501 10.25 9.125C10.4611 9.12499 10.6641 9.15169 10.8314 9.1995C11.0055 9.24924 11.1039 9.311 11.1464 9.35355C11.3417 9.54882 11.6583 9.54883 11.8535 9.35358C12.0488 9.15832 12.0488 8.84174 11.8536 8.64647C11.6461 8.439 11.3695 8.31324 11.1061 8.23798C10.8359 8.16079 10.5389 8.12499 10.25 8.125C9.9611 8.12501 9.66403 8.16082 9.39387 8.23802C9.13046 8.31329 8.85387 8.43906 8.64643 8.64653C8.45118 8.8418 8.45119 9.15838 8.64647 9.35364C8.84174 9.54889 9.15832 9.54887 9.35357 9.3536Z" fill="black"/>
</svg>
