<svg width="16" height="16" viewBox="0 0 16 16" fill="none" xmlns="http://www.w3.org/2000/svg">
<path fill-rule="evenodd" clip-rule="evenodd" d="M3 2C2.44772 2 2 2.44772 2 3V6.25C2 6.80228 2.44772 7.25 3 7.25H6.25C6.80228 7.25 7.25 6.80228 7.25 6.25V3C7.25 2.44772 6.80228 2 6.25 2H3ZM9.75 2C9.19772 2 8.75 2.44772 8.75 3V6.25C8.75 6.80228 9.19772 7.25 9.75 7.25H13C13.5523 7.25 14 6.80228 14 6.25V3C14 2.44772 13.5523 2 13 2H9.75ZM2 9.75C2 9.19772 2.44772 8.75 3 8.75H6.25C6.80228 8.75 7.25 9.19772 7.25 9.75V13C7.25 13.5523 6.80228 14 6.25 14H3C2.44772 14 2 13.5523 2 13V9.75ZM9.75 8.75C9.19772 8.75 8.75 9.19772 8.75 9.75V13C8.75 13.5523 9.19772 14 9.75 14H13C13.5523 14 14 13.5523 14 13V9.75C14 9.19772 13.5523 8.75 13 8.75H9.75Z" fill="black"/>
</svg>
