<svg width="16" height="16" viewBox="0 0 16 16" fill="none" xmlns="http://www.w3.org/2000/svg">
<path fill-rule="evenodd" clip-rule="evenodd" d="M11.2831 2.2827C11.1269 2.12647 10.8736 2.12647 10.7174 2.28269L2.28293 10.7173C2.12672 10.8735 2.12672 11.1268 2.28294 11.283L4.21732 13.2174C4.37354 13.3736 4.62681 13.3736 4.78302 13.2174L13.2175 4.78287C13.3737 4.62666 13.3737 4.3734 13.2175 4.21718L11.2831 2.2827ZM4.93251 10.5681L4.38922 10.025L5.09633 9.31787L5.63952 9.8609C5.83481 10.0561 5.83486 10.3727 5.63962 10.568C5.44438 10.7633 5.1278 10.7633 4.93251 10.5681ZM6.57485 8.92407L6.03242 8.38179L6.73954 7.67469L7.28187 8.21687C7.47716 8.4121 7.4772 8.72868 7.28197 8.92397C7.08673 9.11926 6.77014 9.1193 6.57485 8.92407ZM8.21757 7.2815L7.67508 6.73916L8.38219 6.03206L8.92458 6.5743C9.11987 6.76953 9.11992 7.08611 8.92468 7.2814C8.72944 7.47669 8.41286 7.47673 8.21757 7.2815ZM9.86066 5.63991L9.31743 5.09683L10.0245 4.38973L10.5677 4.93271C10.763 5.12794 10.763 5.44452 10.5678 5.63981C10.3725 5.8351 10.056 5.83514 9.86066 5.63991Z" fill="black"/>
</svg>
