<svg width="16" height="16" viewBox="0 0 16 16" fill="none" xmlns="http://www.w3.org/2000/svg">
<path fill-rule="evenodd" clip-rule="evenodd" d="M3.24816 4.56596C3.0084 4.42896 2.70297 4.51226 2.56596 4.75202C2.42896 4.99177 2.51226 5.2972 2.75202 5.43421L6.00009 7.29025V8H2.6C2.26863 8 2 8.26863 2 8.6V10.4C2 10.7314 2.26863 11 2.6 11H3.44648C3.46446 11 3.48232 10.9992 3.5 10.9976L3.5 11C3.5 11.8284 4.17157 12.5 5 12.5C5.82843 12.5 6.5 11.8284 6.5 11L6.5 10.9979C6.51647 10.9993 6.53315 11 6.55 11H9.44648C9.46446 11 9.48232 10.9992 9.5 10.9976L9.5 11C9.5 11.8284 10.1716 12.5 11 12.5C11.8284 12.5 12.5 11.8284 12.5 11L12.5 10.9979C12.5165 10.9993 12.5331 11 12.55 11H13C13.5523 11 14 10.5523 14 10V9C14 8.44772 13.5523 8 13 8H12.865L11.4841 4.85856C11.3883 4.64068 11.1728 4.5 10.9348 4.5H8.63858C8.30721 4.5 8.03858 4.76863 8.03858 5.1L8.03858 8H7.00009V7.29025C7.00009 6.93139 6.8078 6.60005 6.49622 6.422L3.24816 4.56596ZM9.03858 8H11.7726L10.6737 5.5H9.03858L9.03858 8ZM4.5 11C4.5 10.7239 4.72386 10.5 5 10.5C5.27614 10.5 5.5 10.7239 5.5 11C5.5 11.2761 5.27614 11.5 5 11.5C4.72386 11.5 4.5 11.2761 4.5 11ZM11 10.5C10.7239 10.5 10.5 10.7239 10.5 11C10.5 11.2761 10.7239 11.5 11 11.5C11.2761 11.5 11.5 11.2761 11.5 11C11.5 10.7239 11.2761 10.5 11 10.5Z" fill="black"/>
</svg>
