<svg width="16" height="16" viewBox="0 0 16 16" fill="none" xmlns="http://www.w3.org/2000/svg">
<path fill-rule="evenodd" clip-rule="evenodd" d="M3 9.13587V2.5C3 2.22386 3.22386 2 3.5 2H12.5C12.7762 2 13 2.22386 13 2.5L13 9.13588C13 9.4674 12.9583 9.79759 12.8758 10.1187C12.5984 11.1981 11.9255 12.1339 10.9904 12.7405L10.7778 12.8784L8.25208 14.3528C8.09633 14.4438 7.90367 14.4438 7.74792 14.3528L5.22222 12.8784L5.00959 12.7405C4.07455 12.1339 3.40161 11.1981 3.12425 10.1187C3.04174 9.7976 3 9.4674 3 9.13587ZM5.25872 9.20583C5.39895 8.50469 6.01457 8 6.72959 8H9.27018C9.9852 8 10.6008 8.50469 10.7411 9.20583L10.8803 9.90194C10.9422 10.2113 10.7055 10.5 10.39 10.5H5.60979C5.29427 10.5 5.05762 10.2113 5.1195 9.90194L5.25872 9.20583ZM8 4C7.17157 4 6.5 4.67157 6.5 5.5C6.5 6.32843 7.17157 7 8 7C8.82843 7 9.5 6.32843 9.5 5.5C9.5 4.67157 8.82843 4 8 4Z" fill="black"/>
</svg>
