<svg width="16" height="16" viewBox="0 0 16 16" fill="none" xmlns="http://www.w3.org/2000/svg">
<path fill-rule="evenodd" clip-rule="evenodd" d="M4.99139 6.46302V12C4.99139 12.5523 5.43911 13 5.99139 13H10.6453C11.5791 13 12.3886 12.3538 12.5956 11.4432L13.2627 8.50804C13.5471 7.25652 12.5958 6.0648 11.3124 6.0648H10.0351L10.2754 5.52421C10.9521 4.00172 12.0551 1.5118 10.4594 1.03241C10.2015 0.954898 9.95436 1.15031 9.81159 1.37874L9.46882 1.92717C8.79746 3.00135 8.08853 4.10002 7.03112 4.79748C6.66645 5.03801 6.22877 5.26973 5.66011 5.50031C5.26452 5.66071 4.99139 6.03614 4.99139 6.46302ZM4 5.43433C4 4.88204 3.55228 4.43433 3 4.43433C2.44772 4.43433 2 4.88204 2 5.43433V12.9999C2 13.5522 2.44772 13.9999 3 13.9999C3.55228 13.9999 4 13.5522 4 12.9999V5.43433Z" fill="black"/>
</svg>
