<svg width="16" height="16" viewBox="0 0 16 16" fill="none" xmlns="http://www.w3.org/2000/svg">
<path fill-rule="evenodd" clip-rule="evenodd" d="M10.9535 4.48328C10.9841 4.31375 11 4.13923 11 3.96104C11 2.3257 9.65686 1 8 1C6.34315 1 5 2.3257 5 3.96104C5 4.13923 5.01595 4.31375 5.04651 4.48328C3.32775 4.70275 2 6.15288 2 7.90909C2 9.81698 3.567 11.3636 5.5 11.3636C6.24362 11.3636 6.93308 11.1347 7.5 10.7444V9.20711L6.14645 7.85355C5.95118 7.65829 5.95118 7.34171 6.14645 7.14645C6.34171 6.95118 6.65829 6.95118 6.85355 7.14645L7.5 7.79289V6C7.5 5.72386 7.72386 5.5 8 5.5C8.27614 5.5 8.5 5.72386 8.5 6V7.50002L9.70003 6.6C9.92094 6.43431 10.2343 6.47908 10.4 6.7C10.5657 6.92091 10.5209 7.23431 10.3 7.4L8.5 8.75002V8.99957V9.00037V10.7444C9.06692 11.1347 9.75638 11.3636 10.5 11.3636C12.433 11.3636 14 9.81698 14 7.90909C14 6.15288 12.6723 4.70275 10.9535 4.48328ZM8.5 12C8.5 11.7238 8.27614 11.5 8 11.5C7.72386 11.5 7.5 11.7238 7.5 12V13.5C7.5 13.7761 7.72386 14 8 14C8.27614 14 8.5 13.7761 8.5 13.5V12Z" fill="black"/>
</svg>
