<svg width="16" height="16" viewBox="0 0 16 16" fill="none" xmlns="http://www.w3.org/2000/svg">
<path d="M11 3C12.1046 3 13 3.89543 13 5V7.00587C12.9454 7.00198 12.8902 7 12.8346 7C11.5974 7 10.4997 8.00139 10.4997 9.3056V10H5.49991V9.5C5.49991 8.79053 5.27351 8.14944 4.81697 7.68057C4.36375 7.21512 3.76099 7 3.1639 7C3.10877 7 3.05412 7.00194 3 7.00576V5C3 3.89543 3.89543 3 5 3H11Z" fill="black"/>
<path d="M10.4997 12.9731C10.4997 13.165 10.5396 13.3422 10.6018 13.5H5.40109C5.46142 13.3444 5.49991 13.17 5.49991 12.9816V11H10.4997V12.9731Z" fill="black"/>
<path d="M3.1639 8C3.88018 8 4.49991 8.50854 4.49991 9.5V12.9816C4.49991 13.2219 4.25238 13.5085 4.01362 13.5085L2.99991 13.5C2.56759 13.5 2.49991 13 2.49991 12.9816V10.4274C2.12082 10.1995 1.86694 9.78238 1.86694 9.3056C1.86694 8.58454 2.44761 8 3.1639 8Z" fill="black"/>
<path d="M12.8346 8C12.1183 8 11.4997 8.58454 11.4997 9.3056V12.9731C11.4997 13.2134 11.7472 13.5 11.986 13.5H12.7836C13.3106 13.5 13.4997 13.2134 13.4997 12.9731V10.4267C13.8782 10.1987 14.1316 9.78192 14.1316 9.3056C14.1316 8.58454 13.5509 8 12.8346 8Z" fill="black"/>
</svg>
