<svg width="16" height="16" viewBox="0 0 16 16" fill="none" xmlns="http://www.w3.org/2000/svg">
<path fill-rule="evenodd" clip-rule="evenodd" d="M7.44732 3.72361C7.64057 3.33711 7.86981 3.25 8.00011 3.25C8.13041 3.25 8.35965 3.33711 8.5529 3.72361C8.67639 3.9706 8.97673 4.07071 9.22372 3.94721C9.47071 3.82372 9.57082 3.52338 9.44732 3.27639C9.14057 2.66289 8.61981 2.25 8.00011 2.25C7.38041 2.25 6.85965 2.66289 6.5529 3.27639C6.4294 3.52338 6.52951 3.82372 6.7765 3.94721C7.02349 4.07071 7.32383 3.9706 7.44732 3.72361ZM3.14462 11.8139L3.42468 9.57346C3.76337 9.83991 4.19121 10 4.65961 10H6.0049C6.05542 10.5606 6.52661 11 7.10041 11H8.90039C9.4742 11 9.94538 10.5606 9.9959 10H11.3413C11.8095 10 12.2372 9.84002 12.5759 9.57373L12.8559 11.8139C12.9678 12.7092 12.2697 13.5 11.3675 13.5H4.63303C3.73079 13.5 3.03271 12.7092 3.14462 11.8139ZM12.1606 6.25193C12.0355 5.25107 11.1847 4.5 10.1761 4.5H5.82442C4.81578 4.5 3.96498 5.25107 3.83987 6.25193L3.79417 6.61749L3.66468 7.8995C3.60518 8.48853 4.06759 9 4.65961 9H6.0049C6.05542 8.43935 6.5266 8 7.10041 8H8.90039C9.4742 8 9.94538 8.43935 9.9959 9H11.3413C11.9333 9 12.3957 8.48852 12.3362 7.8995L12.2083 6.6333L12.1606 6.25193ZM7.10046 10H8.90039C8.95562 10 9.00039 9.95523 9.00039 9.9V9.1C9.00039 9.04477 8.95562 9 8.90039 9H7.10046C7.04523 9 7.00046 9.04477 7.00046 9.1V9.9C7.00046 9.95523 7.04523 10 7.10046 10Z" fill="black"/>
</svg>
