<svg width="16" height="16" viewBox="0 0 16 16" fill="none" xmlns="http://www.w3.org/2000/svg">
<path d="M7.5 3.00488C7.77614 3.00488 8 2.78103 8 2.50488C8 2.22874 7.77614 2.00488 7.5 2.00488H2.5C2.22386 2.00488 2 2.22874 2 2.50488C2 2.78103 2.22386 3.00488 2.5 3.00488L4.00017 3.00488V8.01902C3.92365 8.02374 3.846 8.03065 3.77141 8.04136C3.68095 8.05434 3.49249 8.08543 3.30269 8.18845C3.06345 8.31829 2.75995 8.60778 2.73713 9.07847C2.72056 9.4201 2.87304 9.66974 2.91565 9.73912C2.99667 9.87104 3.13076 10.0271 3.20375 10.1121L3.2354 10.1491C3.44715 10.4005 3.83274 10.6875 4.2507 10.9516C4.70293 11.2372 5.29336 11.5581 5.99183 11.8596C6.10518 11.9085 6.22166 11.957 6.34113 12.0049H2.5C2.22386 12.0049 2 11.781 2 11.5049V10.5C2 10.2239 1.77614 10 1.5 10C1.22386 10 1 10.2239 1 10.5V11.5049C1 12.3333 1.67157 13.0049 2.5 13.0049H12C12.0148 13.0049 12.0294 13.0042 12.0438 13.003H12.1382C12.5276 13.003 12.8757 12.9754 13.1716 12.9067C13.4404 12.8443 13.8169 12.7146 14.0892 12.3916C14.4292 11.9883 14.433 11.5062 14.3039 11.1467C14.1951 10.8437 13.9956 10.6154 13.8461 10.4692C13.6712 10.2981 13.4621 10.1414 13.2469 10.0049H10.5C10.2239 10.0049 10 9.78102 10 9.50488C10 9.22874 10.2239 9.00488 10.5 9.00488H11.9979C11.8787 8.85868 11.7393 8.72523 11.5815 8.60735C11.0293 8.19497 10.3033 8.00484 9.50017 8.00484H6.85809L6.08887 3.00488L7.5 3.00488Z" fill="black"/>
</svg>
