<svg width="16" height="16" viewBox="0 0 16 16" fill="none" xmlns="http://www.w3.org/2000/svg">
<path fill-rule="evenodd" clip-rule="evenodd" d="M6.50157 7.97419C6.77676 7.99712 7.00028 7.77614 7.00028 7.5V6.88462C7.00028 6.60847 6.76745 6.39629 6.5123 6.29066C6.24674 6.18072 6.00028 5.95267 6.00028 5.5V4.12787C6.00028 4.06288 6.06211 4.01292 6.12708 4.0113C6.54799 4.00076 7.40812 3.62316 7.92212 3.08609C7.96446 3.04185 8.0361 3.04186 8.07843 3.08611C8.59226 3.62317 9.45254 4.00076 9.87348 4.0113C9.93845 4.01292 10.0003 4.06288 10.0003 4.12787V5.5C10.0003 5.95267 9.75382 6.18072 9.48826 6.29066C9.23312 6.39629 9.00028 6.60847 9.00028 6.88462V7.5C9.00028 7.77614 9.22375 7.99706 9.49899 7.97471C10.2923 7.91031 11.5402 7.72889 12 7.5C12.5 7.25114 12.3807 6.72847 12.2188 6.38462C11.7315 5.34987 11.5003 4.68302 11.5003 3.56667C11.5003 1.66042 9.50028 1 8.00028 1C6.50028 1 4.50028 1.59375 4.50028 3.5C4.50028 4.6221 4.25502 5.3383 3.78687 6.38462C3.62494 6.72847 3.48179 7.21257 4.05911 7.5C4.51775 7.72827 5.72314 7.90933 6.50157 7.97419ZM7.0028 9.41026C7.08447 9.16526 7.31375 9 7.57201 9H8.42786C8.68612 9 8.9154 9.16526 8.99707 9.41026L9.47521 10.8447L10.4068 9.16775C10.4644 9.06421 10.5735 9 10.6919 9C11.7795 9 12.753 9.67464 13.1349 10.693L13.2102 10.8936C13.6912 12.1764 13.3781 13.622 12.4093 14.5907C12.1473 14.8528 11.7918 15 11.4212 15H4.57888C4.20826 15 3.85281 14.8528 3.59074 14.5907C2.622 13.622 2.30889 12.1764 2.78992 10.8936L2.86518 10.693C3.24705 9.67464 4.22056 9 5.30814 9C5.42658 9 5.53572 9.06421 5.59324 9.16775L6.52474 10.8445L7.0028 9.41026ZM7.18355 12.0303L7.56296 12.7133C7.75347 13.0562 8.24662 13.0562 8.43712 12.7133L8.8164 12.0305L8.13955 10H7.86031L7.18355 12.0303Z" fill="black"/>
</svg>
