<svg width="16" height="16" viewBox="0 0 16 16" fill="none" xmlns="http://www.w3.org/2000/svg">
<path d="M7.9961 3.58024C7.7106 4.10943 7.71618 4.5221 7.86969 4.78077C8.02321 5.03943 8.38278 5.24202 8.98406 5.24491C9.57374 5.24774 10.3063 5.05006 11.0235 4.62442C11.7406 4.19877 12.2651 3.65047 12.5451 3.1315C12.8306 2.60231 12.825 2.18963 12.6715 1.93097C12.518 1.67231 12.1584 1.46972 11.5571 1.46683C10.9674 1.46399 10.2349 1.66168 9.51773 2.08732C8.80053 2.51297 8.2761 3.06127 7.9961 3.58024Z" fill="black"/>
<path d="M13.6795 3.6295L13.5344 3.38499C13.5009 3.45988 13.4643 3.53375 13.4252 3.60632C13.0454 4.31016 12.3801 4.98213 11.5338 5.48437C10.6876 5.98661 9.779 6.24874 8.97926 6.2449C8.8968 6.2445 8.81446 6.24119 8.73264 6.23479L8.87774 6.47929C9.03125 6.73795 9.39082 6.94054 9.99211 6.94343C10.5818 6.94626 11.3143 6.74858 12.0315 6.32294C12.7487 5.8973 13.2731 5.34899 13.5531 4.83002C13.8386 4.30083 13.833 3.88815 13.6795 3.6295Z" fill="black"/>
<path d="M7.88229 7.13421L7.9042 7.1531C8.2434 7.4511 8.5411 7.76707 8.79491 8.08951C9.17629 8.58183 9.4484 9.09027 9.60243 9.56867C9.86281 10.3774 9.76667 11.0154 9.43106 11.4063C9.09544 11.7972 8.47937 11.9888 7.64053 11.8539C6.81138 11.7205 5.84939 11.2738 4.97374 10.5221C4.09809 9.77032 3.51097 8.88702 3.2536 8.08762C2.99322 7.27888 3.08936 6.6409 3.42497 6.24998C3.76058 5.85906 4.37666 5.66745 5.21549 5.80241C6.04464 5.93581 7.00664 6.38245 7.88229 7.13421Z" fill="black"/>
<path d="M7.48169 12.8412C7.79992 12.8924 8.11829 12.9091 8.42543 12.8856L7.66663 13.7694C7.31508 14.1789 6.66392 14.3755 5.77458 14.2249C4.89642 14.0763 3.87651 13.5965 2.94575 12.7974C2.01498 11.9983 1.38627 11.0628 1.10643 10.2173C0.823016 9.36094 0.918748 8.68754 1.27031 8.27804L2.10659 7.30394C2.11616 7.66347 2.1853 8.0325 2.30172 8.39409C2.62431 9.39607 3.32994 10.4288 4.32235 11.2808C5.31475 12.1328 6.44242 12.674 7.48169 12.8412Z" fill="black"/>
</svg>
