<svg width="16" height="16" viewBox="0 0 16 16" fill="none" xmlns="http://www.w3.org/2000/svg">
<path fill-rule="evenodd" clip-rule="evenodd" d="M2 1C1.72386 1 1.5 1.22386 1.5 1.5C1.5 1.77614 1.72386 2 2 2H14C14.2761 2 14.5 1.77614 14.5 1.5C14.5 1.22386 14.2761 1 14 1H2ZM13 3H3V14C3 14.5523 3.44772 15 4 15H12C12.5523 15 13 14.5523 13 14V3ZM6.5 7.5C6.5 6.67157 7.17157 6 8 6C8.82843 6 9.5 6.67157 9.5 7.5C9.5 8.32843 8.82843 9 8 9C7.17157 9 6.5 8.32843 6.5 7.5ZM8 5C6.61929 5 5.5 6.11929 5.5 7.5C5.5 8.88071 6.61929 10 8 10C9.38071 10 10.5 8.88071 10.5 7.5C10.5 6.11929 9.38071 5 8 5ZM6.5 12.5C6.5 12.2238 6.72386 12 7 12H9C9.27614 12 9.5 12.2238 9.5 12.5C9.5 12.7761 9.27614 13 9 13H7C6.72386 13 6.5 12.7761 6.5 12.5Z" fill="black"/>
</svg>
