<svg width="16" height="16" viewBox="0 0 16 16" fill="none" xmlns="http://www.w3.org/2000/svg">
<path d="M6.50391 1.50391C5.39781 1.50175 4.5 2.39781 4.5 3.50391V4.50781C4.5 5.61238 5.39543 6.50781 6.5 6.50781C7.60457 6.50781 8.5 5.61238 8.5 4.50781V3.50391C8.5 2.40086 7.60695 1.50606 6.50391 1.50391Z" fill="black"/>
<path fill-rule="evenodd" clip-rule="evenodd" d="M8.53125 7C7.97897 7 7.53125 7.44772 7.53125 8V13C7.53125 13.5523 7.97897 14 8.53125 14H13.5C14.0523 14 14.5 13.5523 14.5 13V8C14.5 7.44772 14.0523 7 13.5 7H8.53125ZM12.5 9C12.5 8.72386 12.2761 8.5 12 8.5H10C9.72386 8.5 9.5 8.72386 9.5 9C9.5 9.27614 9.72386 9.5 10 9.5H12C12.2761 9.5 12.5 9.27614 12.5 9Z" fill="black"/>
<path d="M1.5 11.5C1.5 9.567 3.067 8 5 8C5.68135 8 6.5 8.11248 6.5 9V13C6.5 13.5523 6.05228 14 5.5 14H2.5C1.94772 14 1.5 13.5523 1.5 13V11.5Z" fill="black"/>
</svg>
