<svg width="16" height="16" viewBox="0 0 16 16" fill="none" xmlns="http://www.w3.org/2000/svg">
<path fill-rule="evenodd" clip-rule="evenodd" d="M8.31748 5.84537C8.12221 6.04064 8.12221 6.35722 8.31748 6.55248L11.5962 9.83121C11.7915 10.0265 12.108 10.0265 12.3033 9.83121L14.3413 7.79326C15.4419 6.6926 15.4419 4.90808 14.3413 3.80743C13.2406 2.70677 11.4561 2.70677 10.3554 3.80743L8.31748 5.84537ZM1.99297 3.80757C0.892316 4.90823 0.892316 6.69275 1.99297 7.79341L4.03092 9.83135C4.22618 10.0266 4.54276 10.0266 4.73803 9.83135L8.01676 6.55263C8.21202 6.35736 8.21202 6.04078 8.01676 5.84552L5.97881 3.80757C4.87815 2.70691 3.09363 2.70691 1.99297 3.80757ZM8.74139 10.5716C8.74139 10.8872 8.48556 11.1431 8.16997 11.1431C7.85437 11.1431 7.59854 10.8872 7.59854 10.5716C7.59854 10.256 7.85437 10.0002 8.16997 10.0002C8.48556 10.0002 8.74139 10.256 8.74139 10.5716ZM6.74141 12.2859C7.057 12.2859 7.31284 12.0301 7.31284 11.7145C7.31284 11.3989 7.057 11.1431 6.74141 11.1431C6.42582 11.1431 6.16998 11.3989 6.16998 11.7145C6.16998 12.0301 6.42582 12.2859 6.74141 12.2859ZM8.74139 12.8573C8.74139 13.1729 8.48556 13.4288 8.16997 13.4288C7.85437 13.4288 7.59854 13.1729 7.59854 12.8573C7.59854 12.5418 7.85437 12.2859 8.16997 12.2859C8.48556 12.2859 8.74139 12.5418 8.74139 12.8573ZM9.59852 12.2859C9.91411 12.2859 10.17 12.0301 10.17 11.7145C10.17 11.3989 9.91411 11.1431 9.59852 11.1431C9.28293 11.1431 9.02709 11.3989 9.02709 11.7145C9.02709 12.0301 9.28293 12.2859 9.59852 12.2859Z" fill="black"/>
</svg>
