<svg width="16" height="16" viewBox="0 0 16 16" fill="none" xmlns="http://www.w3.org/2000/svg">
<path fill-rule="evenodd" clip-rule="evenodd" d="M10.4444 5C12.2222 5 14 6.61538 14 8V12.5C14 12.7761 13.7761 13 13.5 13C13.2239 13 13 12.7761 13 12.5V9.91957C12.3229 10.5491 11.3837 11 10.4444 11C9.55856 11 9.17718 10.7755 8.84882 10.5821C8.6006 10.436 8.38267 10.3077 8 10.3077C7.61733 10.3077 7.3994 10.436 7.15118 10.5821C6.82282 10.7755 6.44144 11 5.55556 11C4 11 2 9.38462 2 8C2 6.61538 4 5 5.55556 5C6.44144 5 6.82282 5.22454 7.15118 5.41786C7.3994 5.564 7.61733 5.69231 8 5.69231C8.38267 5.69231 8.6006 5.564 8.84882 5.41786C9.17718 5.22454 9.55856 5 10.4444 5ZM3.77794 7.99976C3.77794 7.76899 4.53984 6.84592 5.55572 6.84592C6.57159 6.84592 7.33349 7.76899 7.33349 7.99976C7.33349 8.23053 6.57159 9.15361 5.55572 9.15361C4.53984 9.15361 3.77794 8.23053 3.77794 7.99976ZM10.4442 6.84592C9.42834 6.84592 8.66644 7.76899 8.66644 7.99976C8.66644 8.23053 9.42834 9.15361 10.4442 9.15361C11.4601 9.15361 12.222 8.23053 12.222 7.99976C12.222 7.76899 11.4601 6.84592 10.4442 6.84592Z" fill="black"/>
</svg>
