<svg width="16" height="16" viewBox="0 0 16 16" fill="none" xmlns="http://www.w3.org/2000/svg">
<path fill-rule="evenodd" clip-rule="evenodd" d="M13.3536 3.35355C13.5488 3.15829 13.5488 2.84171 13.3536 2.64645C13.1583 2.45118 12.8417 2.45118 12.6464 2.64645L8.99998 6.29292L7.70707 5.00001L4.99992 7.70707L6.29287 9.00002L2.64645 12.6464C2.45118 12.8417 2.45118 13.1583 2.64645 13.3536C2.84171 13.5488 3.15829 13.5488 3.35355 13.3536L13.3536 3.35355ZM5.0757 3.21716C5.31001 2.98285 5.68991 2.98285 5.92422 3.21716L6.99996 4.2929L4.29281 6.99996L3.21712 5.92427C2.9828 5.68996 2.9828 5.31006 3.21712 5.07574L5.0757 3.21716ZM13 10.5414C13 10.3823 12.9368 10.2297 12.8243 10.1172L10.5 7.79289L7.79291 10.5L10.1172 12.8243C10.2297 12.9368 10.3823 13 10.5414 13H12.4C12.7314 13 13 12.7314 13 12.4V10.5414Z" fill="black"/>
</svg>
