<svg width="16" height="16" viewBox="0 0 16 16" fill="none" xmlns="http://www.w3.org/2000/svg">
<path fill-rule="evenodd" clip-rule="evenodd" d="M2 10.5V3.5C2 3.22386 2.22386 3 2.5 3H13.5C13.7761 3 14 3.22386 14 3.5V10.5C14 10.7761 13.7761 11 13.5 11H2.5C2.22386 11 2 10.7761 2 10.5ZM6 5.99973C6 5.1713 6.67157 4.49973 7.5 4.49973C7.50015 4.22371 7.72395 4 8 4C8.27605 4 8.49985 4.22371 8.5 4.49973H9.5C9.77614 4.49973 10 4.72358 10 4.99973C10 5.27587 9.77614 5.49973 9.5 5.49973H8.01673L8 5.5L7.98327 5.49973H7.5C7.22386 5.49973 7 5.72358 7 5.99973C7 6.27587 7.22386 6.49973 7.5 6.49973H8.49992C9.32839 6.49973 10 7.17133 10 7.99981C10 8.82818 9.32854 9.49975 8.50016 9.49989H8.5V9.50021C8.5 9.77636 8.27614 10.0002 8 10.0002C7.72386 10.0002 7.5 9.77636 7.5 9.50021V9.50005L6.50008 9.50021C6.22394 9.50026 6.00004 9.27644 6 9.0003C5.99996 8.72415 6.22378 8.50026 6.49992 8.50021L8.5 8.49989C8.77616 8.49984 9 8.27596 9 7.99981C9 7.72362 8.77611 7.49973 8.49992 7.49973H7.5C6.67157 7.49973 6 6.82815 6 5.99973ZM4.5 6.5C4.5 6.22386 4.27614 6 4 6C3.72386 6 3.5 6.22386 3.5 6.5V7.5C3.5 7.77614 3.72386 8 4 8C4.27614 8 4.5 7.77614 4.5 7.5V6.5ZM12 6C12.2761 6 12.5 6.22386 12.5 6.5V7.5C12.5 7.77614 12.2761 8 12 8C11.7239 8 11.5 7.77614 11.5 7.5V6.5C11.5 6.22386 11.7239 6 12 6ZM2.5 12C2.22386 12 2 12.2239 2 12.5C2 12.7761 2.22386 13 2.5 13H13.5C13.7761 13 14 12.7761 14 12.5C14 12.2239 13.7761 12 13.5 12H2.5Z" fill="black"/>
</svg>
