<svg width="16" height="16" viewBox="0 0 16 16" fill="none" xmlns="http://www.w3.org/2000/svg">
<path fill-rule="evenodd" clip-rule="evenodd" d="M5.5 6.5C4.75001 6.49998 4.00004 5.99997 4.00004 4.5C4.00004 2.83333 5.50004 1 8.00004 1C10.5 1 12 2.83333 12 4.5C12 6 11.25 6.5 10.5 6.5V4.09184C10.5 4.09094 10.5 4.09004 10.5 4.08915V4.04597C10.5 3.74447 10.2556 3.50005 9.95408 3.50005C9.86518 3.50005 9.7839 3.44982 9.74414 3.3703L9.45222 2.78646C9.26103 2.40409 8.73319 2.42517 8.55013 2.7817C8.42074 3.03368 8.05822 3.23984 7.49185 3.36579C6.95996 3.48408 6.40003 3.49839 6.09697 3.49987C5.76477 3.5015 5.5 3.77143 5.5 4.10005V6.5ZM9.5 6.51088C9.49415 7.3343 8.82484 8 8.00004 8C7.17161 8 6.50004 7.32843 6.50004 6.5V4.49067C6.83619 4.47608 7.27427 4.43861 7.70893 4.34194C8.08021 4.25938 8.51465 4.11965 8.876 3.86723C9.0167 4.11935 9.23895 4.31027 9.5 4.41355V6.51088ZM5.39134 9C3.66873 9 2.40475 10.6189 2.82255 12.29L3.26813 14.0724C3.40442 14.6175 3.89427 15 4.45624 15H11.5438C12.1058 15 12.5957 14.6175 12.732 14.0724L13.1775 12.29C13.5953 10.6189 12.3313 9 10.6087 9H8.54365C8.54634 9.00578 8.54895 9.01163 8.55149 9.01756L9.95957 12.3031C10.0684 12.5569 9.95077 12.8508 9.69696 12.9596C9.44314 13.0684 9.14921 12.9508 9.04043 12.697L8 10.2693L6.95957 12.697C6.85079 12.9508 6.55686 13.0684 6.30304 12.9596C6.04923 12.8508 5.93165 12.5569 6.04043 12.3031L7.44851 9.01756C7.45105 9.01163 7.45366 9.00578 7.45635 9H5.39134Z" fill="black"/>
</svg>
