<svg width="16" height="16" viewBox="0 0 16 16" fill="none" xmlns="http://www.w3.org/2000/svg">
<path fill-rule="evenodd" clip-rule="evenodd" d="M11.5237 2.35193C11.3276 2.15753 11.011 2.15892 10.8166 2.35503L9.60658 3.5757L12.443 6.38729L13.653 5.16663C13.8474 4.97051 13.846 4.65393 13.6499 4.45953L11.5237 2.35193ZM8.39087 3.62096C8.19476 3.42656 7.87818 3.42795 7.68377 3.62407L3.50598 7.8387C2.21198 9.14411 2.22124 11.2513 3.52665 12.5453C4.83206 13.8393 6.93929 13.8301 8.23329 12.5247L12.4111 8.31006C12.6055 8.11394 12.6041 7.79736 12.408 7.60296L8.39087 3.62096ZM8.35373 5.64638C8.15847 5.45112 7.84189 5.45112 7.64663 5.64638C7.45136 5.84164 7.45136 6.15822 7.64663 6.35349L9.64663 8.35348C9.84189 8.54875 10.1585 8.54875 10.3537 8.35349C10.549 8.15822 10.549 7.84164 10.3537 7.64638L8.35373 5.64638ZM5.29604 10.6916C5.68322 11.0754 6.30825 11.0727 6.69205 10.6855C7.07585 10.2983 7.07311 9.67329 6.68592 9.28948C6.29873 8.90568 5.67371 8.90843 5.28991 9.29561C4.90611 9.6828 4.90885 10.3078 5.29604 10.6916ZM4.59204 11.4018C5.37146 12.1744 6.62964 12.1689 7.40225 11.3895C8.17486 10.6101 8.16934 9.35189 7.38992 8.57928C6.6105 7.80667 5.35231 7.8122 4.57971 8.59162C3.8071 9.37104 3.81262 10.6292 4.59204 11.4018Z" fill="black"/>
</svg>
