<svg width="16" height="16" viewBox="0 0 16 16" fill="none" xmlns="http://www.w3.org/2000/svg">
<path d="M7.85828 2.56188C9.73632 3.59375 11.3582 5.14881 12.4818 7.15682C13.3468 8.70266 13.8731 10.3128 13.999 11.9928L14.0004 12.0115V12.5156C14.0004 12.7917 13.7765 13.0156 13.5004 13.0156C13.2243 13.0156 13.0004 12.7917 13.0004 12.5156V12.0491C12.8844 10.54 12.4097 9.07587 11.6091 7.64514C10.5795 5.80515 9.0953 4.38255 7.37674 3.4383C7.13472 3.30533 7.04633 3.00134 7.1793 2.75932C7.31228 2.5173 7.61627 2.42891 7.85828 2.56188Z" fill="black"/>
<path fill-rule="evenodd" clip-rule="evenodd" d="M12.0049 12.5166C12.0082 12.7855 11.786 12.9983 11.5171 12.9983H9.51687C9.80264 12.5414 9.83196 11.9455 9.54217 11.4474C9.12565 10.7315 8.2076 10.4887 7.49166 10.9053C6.77572 11.3218 6.53299 12.2398 6.94951 12.9558C6.95786 12.9701 6.96641 12.9843 6.97515 12.9983H2.50006C2.06692 12.9987 1.87342 12.5582 2.08791 12.1869L3.10045 10.4345C3.11131 10.4568 3.12308 10.4789 3.13577 10.5007C3.41345 10.978 4.02548 11.1398 4.50278 10.8621C4.98007 10.5845 5.14189 9.97243 4.86421 9.49513C4.66599 9.15442 4.29739 8.97446 3.92905 9.00038L6.51973 4.51654C6.65311 4.28571 6.94487 4.19894 7.17583 4.3321C8.58781 5.14617 9.81028 6.31813 10.6892 7.80855C11.5662 9.29559 11.9853 10.9088 12.0049 12.5166ZM7.99997 8.86214C7.52267 9.13982 6.91064 8.978 6.63296 8.5007C6.35528 8.02341 6.5171 7.41138 6.9944 7.1337C7.47169 6.85602 8.08372 7.01784 8.3614 7.49513C8.63909 7.97243 8.47727 8.58446 7.99997 8.86214Z" fill="black"/>
</svg>
