<svg width="16" height="16" viewBox="0 0 16 16" fill="none" xmlns="http://www.w3.org/2000/svg">
<path fill-rule="evenodd" clip-rule="evenodd" d="M2 6.5V3.5C2 3.22386 2.22386 3 2.5 3H13.5C13.7761 3 14 3.22386 14 3.5V6.5H12.8662C12.6933 6.2011 12.3701 6 12 6C11.4477 6 11 6.44772 11 7C11 7.55228 11.4477 8 12 8C12.3701 8 12.6933 7.7989 12.8662 7.5H14V10.5C14 10.7761 13.7761 11 13.5 11H2.5C2.22386 11 2 10.7761 2 10.5V7.5H3.13378C3.30669 7.7989 3.62986 8 4 8C4.55228 8 5 7.55228 5 7C5 6.44772 4.55228 6 4 6C3.62986 6 3.30669 6.2011 3.13378 6.5H2ZM10 7C10 8.10457 9.10457 9 8 9C6.89543 9 6 8.10457 6 7C6 5.89543 6.89543 5 8 5C9.10457 5 10 5.89543 10 7ZM2.5 12C2.22386 12 2 12.2239 2 12.5C2 12.7761 2.22386 13 2.5 13H13.5C13.7761 13 14 12.7761 14 12.5C14 12.2239 13.7761 12 13.5 12H2.5Z" fill="black"/>
</svg>
