<svg width="16" height="16" viewBox="0 0 16 16" fill="none" xmlns="http://www.w3.org/2000/svg">
<path fill-rule="evenodd" clip-rule="evenodd" d="M2.0906 4.21294C2.24913 3.98684 2.56094 3.93207 2.78704 4.09061L7.00007 7.04477C7.31123 7.26296 7.72591 7.26218 8.03626 7.04282L12.2114 4.0917C12.4369 3.93231 12.7489 3.9859 12.9083 4.2114C13.0677 4.43689 13.0141 4.74891 12.7886 4.9083L8.61346 7.85942C7.95829 8.32251 7.08285 8.32416 6.42595 7.86354L2.21292 4.90938C1.98682 4.75084 1.93206 4.43903 2.0906 4.21294ZM8.04218 9.82741C8.93298 9.23354 10.1347 9.46934 10.7357 10.3525C10.7359 10.3525 10.737 10.3536 10.7391 10.3556C10.751 10.3672 10.7948 10.41 10.8837 10.4633C11.0092 10.5386 11.16 10.5951 11.309 10.6164C11.4506 10.6366 11.5761 10.6239 11.6908 10.5813C11.7997 10.541 11.9707 10.4476 12.1758 10.2015C12.6364 9.64878 13.3382 9.41544 14 9.52706V4C14 3.44772 13.5523 3 13 3H2C1.44772 3 1 3.44772 1 4V11.75C1 12.3023 1.44772 12.75 2 12.75H6.87594C6.92563 12.4544 7.04362 12.1681 7.22993 11.9164C7.03901 11.1412 7.33958 10.2958 8.04218 9.82741ZM8.84247 11.029C9.07495 10.88 9.38422 10.9476 9.53325 11.1801C9.76151 11.5362 10.3323 11.9498 11.0217 12.0522C11.6706 12.1486 12.4299 11.97 13.0971 11.1373C13.2698 10.9218 13.5845 10.8871 13.8 11.0597C14.0155 11.2324 14.0502 11.5471 13.8775 11.7626C13.8138 11.8421 13.7489 11.9176 13.683 11.9891L14.2979 12.6285C14.4893 12.8276 14.4831 13.1441 14.2841 13.3355C14.085 13.5269 13.7685 13.5207 13.5771 13.3216L12.9116 12.6295C12.6139 12.8111 12.3071 12.9322 12 13.0018V14C12 14.2761 11.7761 14.5 11.5 14.5C11.2239 14.5 11 14.2761 11 14V13.0575C10.9581 13.0529 10.9163 13.0476 10.8748 13.0414C10.5076 12.9868 10.1577 12.8697 9.84358 12.7108L9.16022 13.4215C8.96883 13.6206 8.6523 13.6268 8.45325 13.4354C8.2542 13.244 8.24799 12.9274 8.43939 12.7284L9.02098 12.1235C8.89146 11.9946 8.78037 11.8586 8.69137 11.7198C8.54234 11.4873 8.60999 11.178 8.84247 11.029Z" fill="black"/>
</svg>
