<svg width="16" height="16" viewBox="0 0 16 16" fill="none" xmlns="http://www.w3.org/2000/svg">
<path fill-rule="evenodd" clip-rule="evenodd" d="M2.89856 7.38487C3.53735 5.97599 4.54912 4.76853 5.82448 3.89305L7.74887 2.57204C7.90018 2.46817 8.09982 2.46817 8.25113 2.57204L10.1755 3.89305C11.4509 4.76853 12.4626 5.97599 13.1014 7.38487C13.3641 7.96422 13.5 8.59299 13.5 9.22909V12.9997C13.5 13.2758 13.2761 13.4997 13 13.4997H3C2.72386 13.4997 2.5 13.2758 2.5 12.9997V9.49976H11.3612C11.6374 9.49976 11.8612 9.2759 11.8612 8.99976C11.8612 8.72361 11.6374 8.49976 11.3612 8.49976H2.55996C2.62348 8.11597 2.73706 7.74108 2.89856 7.38487ZM4.5 10.9998C4.22386 10.9998 4 11.2236 4 11.4998C4 11.7759 4.22386 11.9998 4.5 11.9998H5.02381C5.29995 11.9998 5.52381 11.7759 5.52381 11.4998C5.52381 11.2236 5.29995 10.9998 5.02381 10.9998H4.5ZM7.19434 11.4998C7.19434 11.2236 7.41819 10.9998 7.69434 10.9998H8.21815C8.49429 10.9998 8.71815 11.2236 8.71815 11.4998C8.71815 11.7759 8.49429 11.9998 8.21815 11.9998H7.69434C7.41819 11.9998 7.19434 11.7759 7.19434 11.4998ZM10.8374 10.9998C10.5613 10.9998 10.3374 11.2236 10.3374 11.4998C10.3374 11.7759 10.5613 11.9998 10.8374 11.9998H11.3612C11.6374 11.9998 11.8612 11.7759 11.8612 11.4998C11.8612 11.2236 11.6374 10.9998 11.3612 10.9998H10.8374Z" fill="black"/>
</svg>
