<svg width="16" height="16" viewBox="0 0 16 16" fill="none" xmlns="http://www.w3.org/2000/svg">
<path fill-rule="evenodd" clip-rule="evenodd" d="M3 2.5C3 2.22363 3.22388 2 3.5 2H12.5C12.644 2 12.7737 2.06104 12.865 2.1582C12.9487 2.24756 13 2.36768 13 2.5V13.5C13 13.7764 12.7761 14 12.5 14H7.23608C7.71118 13.4692 8 12.7686 8 12C8 10.3433 6.65674 9 5 9C4.23169 9 3.53076 9.28906 3 9.76416V2.5ZM5 5.5H11V4.5H5V5.5ZM11 8H5V7H11V8ZM9 10.5H11V9.5H9V10.5ZM3.98402 13.7231L3.35355 14.3536C3.15829 14.5488 2.84171 14.5488 2.64645 14.3536C2.45118 14.1583 2.45118 13.8417 2.64645 13.6465L3.27691 13.016C3.10097 12.7182 3 12.3709 3 12C3 10.8954 3.89543 10 5 10C6.10457 10 7 10.8954 7 12C7 13.1046 6.10457 14 5 14C4.6291 14 4.28178 13.899 3.98402 13.7231ZM4 12C4 11.4477 4.44772 11 5 11C5.55228 11 6 11.4477 6 12C6 12.5523 5.55228 13 5 13C4.44772 13 4 12.5523 4 12Z" fill="black"/>
</svg>
