<svg width="16" height="16" viewBox="0 0 16 16" fill="none" xmlns="http://www.w3.org/2000/svg">
<path d="M2 3C2 2.44772 2.44772 2 3 2H4.09524C4.64752 2 5.09524 2.44772 5.09524 3V4.09524C5.09524 4.64752 4.64752 5.09524 4.09524 5.09524H3C2.44772 5.09524 2 4.64752 2 4.09524V3Z" fill="black"/>
<path d="M2 7.33331C2 6.78103 2.44772 6.33331 3 6.33331H4.09524C4.64752 6.33331 5.09524 6.78103 5.09524 7.33331V8.42855C5.09524 8.98084 4.64752 9.42855 4.09524 9.42855H3C2.44772 9.42855 2 8.98084 2 8.42855V7.33331Z" fill="black"/>
<path d="M7.64285 6.33331C7.09057 6.33331 6.64285 6.78103 6.64285 7.33331V8.42855C6.64285 8.98084 7.09057 9.42855 7.64285 9.42855H8.73809C9.29038 9.42855 9.73809 8.98084 9.73809 8.42855V7.33331C9.73809 6.78103 9.29038 6.33331 8.73809 6.33331H7.64285Z" fill="black"/>
<path d="M6.64285 3C6.64285 2.44772 7.09057 2 7.64285 2H8.73809C9.29038 2 9.73809 2.44772 9.73809 3V4.09524C9.73809 4.64752 9.29038 5.09524 8.73809 5.09524H7.64285C7.09057 5.09524 6.64285 4.64752 6.64285 4.09524V3Z" fill="black"/>
<path d="M12.2857 2C11.7334 2 11.2857 2.44772 11.2857 3V4.09524C11.2857 4.64752 11.7334 5.09524 12.2857 5.09524H13.381C13.9332 5.09524 14.381 4.64752 14.381 4.09524V3C14.381 2.44772 13.9332 2 13.381 2H12.2857Z" fill="black"/>
<path d="M11.2857 7.33331C11.2857 6.78103 11.7334 6.33331 12.2857 6.33331H13.381C13.9332 6.33331 14.381 6.78103 14.381 7.33331V8.42855C14.381 8.98084 13.9332 9.42855 13.381 9.42855H12.2857C11.7334 9.42855 11.2857 8.98084 11.2857 8.42855V7.33331Z" fill="black"/>
<path d="M6.36415 12.7171L7.80003 14.512C8.0002 14.7622 8.38074 14.7622 8.5809 14.512L10.0168 12.7171C10.2787 12.3898 10.0456 11.9048 9.62635 11.9048H6.75459C6.33534 11.9048 6.10225 12.3898 6.36415 12.7171Z" fill="black"/>
</svg>
