<svg width="16" height="16" viewBox="0 0 16 16" fill="none" xmlns="http://www.w3.org/2000/svg">
<path fill-rule="evenodd" clip-rule="evenodd" d="M9.49958 2.38886C9.49963 2.19223 9.68598 2.04877 9.87228 2.11164C12.2693 2.92062 14 5.28277 14 7.99994C14 11.2821 11.4743 13.8405 8.29996 13.9928C8.13447 14.0007 8 13.8656 8 13.6999V12.4999C8 11.7951 7.49966 11.6529 6.49979 11.418C5.49993 11.1831 5 10.9481 5 10.2433C5 9.60895 5.91112 8.59401 6.54891 7.88355C6.61978 7.80461 6.68727 7.72942 6.74976 7.65894C7.01879 7.35552 7.44069 6.85615 7.92123 6.28738C8.18485 5.97536 8.46612 5.64245 8.74949 5.30954C9.50611 4.42061 9.5023 3.74189 9.49968 3.27338L9.49938 3.19507L9.49958 2.38886ZM11.5 9.99988C11.5 9.72374 11.2761 9.49988 11 9.49988C10.7239 9.49988 10.5 9.72374 10.5 9.99988C10.5 10.3474 10.3408 10.5204 10.189 10.5983C9.99857 10.6961 9.85337 10.644 9.824 10.6191C9.25578 10.1356 8.82071 10.0202 8.58357 10.0022C8.5487 9.99952 8.51807 9.99934 8.49738 9.99944C8.47766 9.99954 8.47309 9.99966 8.46967 9.99975L8.45401 9.99988H8C7.72386 9.99988 7.5 10.2237 7.5 10.4999C7.5 10.776 7.72386 10.9999 8 10.9999H8.45401L8.48359 10.9996L8.50239 10.9994L8.50949 10.9994C8.51991 11.0005 8.57784 11.0081 8.6793 11.0524C8.7909 11.1012 8.95906 11.1961 9.176 11.3807C9.59323 11.7357 10.198 11.7179 10.6459 11.4879C11.1325 11.238 11.5 10.7209 11.5 9.99988Z" fill="black"/>
</svg>
