<svg width="16" height="16" viewBox="0 0 16 16" fill="none" xmlns="http://www.w3.org/2000/svg">
<path d="M4.24994 8.31021V10.5C4.33327 11.1667 5.24994 12.5 7.99994 12.5C10.7499 12.5 11.6666 11.1667 11.7499 10.5V8.31019L8.42103 9.85575C8.15398 9.97974 7.84586 9.97974 7.57881 9.85575L4.24994 8.31021Z" fill="black"/>
<path d="M7.99992 3.55127L13.8126 6.25001L7.99992 8.94875L2.18726 6.25001L7.99992 3.55127Z" fill="black"/>
<path d="M13.7499 7.50006C14.0261 7.50006 14.2499 7.72392 14.2499 8.00006V10.0001C14.2499 10.2762 14.0261 10.5001 13.7499 10.5001C13.4738 10.5001 13.2499 10.2762 13.2499 10.0001V8.00006C13.2499 7.72392 13.4738 7.50006 13.7499 7.50006Z" fill="black"/>
</svg>
