<svg width="16" height="16" viewBox="0 0 16 16" fill="none" xmlns="http://www.w3.org/2000/svg">
<path d="M3.5 2C3.22386 2 3 2.22386 3 2.5C3 2.77614 3.22386 3 3.5 3L9.5 3.00002C9.77614 3.00002 10 3.22387 10 3.50002C10 3.77616 9.77614 4.00002 9.5 4.00002H8.5V6.70845H5.28038C2.91639 6.70845 1 8.62484 1 10.9888C1 11.2252 1.19164 11.4169 1.42804 11.4169H3.52684C3.80298 11.4169 4.02684 11.193 4.02684 10.9169V9.89898C4.02684 9.62283 4.2507 9.39898 4.52684 9.39898H8.5V13.5H8C7.72386 13.5 7.5 13.7239 7.5 14C7.5 14.2762 7.72386 14.5 8 14.5H13.5C13.7761 14.5 14 14.2762 14 14C14 13.7239 13.7761 13.5 13.5 13.5H13.1073V6.00002C13.1073 3.79088 11.3165 2.00002 9.10735 2.00002H9.00395L9 2H3.5Z" fill="black"/>
</svg>
