<svg width="16" height="16" viewBox="0 0 16 16" fill="none" xmlns="http://www.w3.org/2000/svg">
<path fill-rule="evenodd" clip-rule="evenodd" d="M13.9737 7.12019L12.5 5.85696V3.74982C12.5 3.3356 12.1642 2.99982 11.75 2.99982C11.3357 2.99982 11 3.3356 11 3.74982V4.57124L8.65075 2.55764C8.27626 2.23665 7.72366 2.23665 7.34917 2.55764L2.02619 7.12019C1.67374 7.42229 1.88738 7.99982 2.35159 7.99982H3.54541V13.4998C3.54541 13.776 3.76927 13.9998 4.04541 13.9998H11.9545C12.2306 13.9998 12.4545 13.776 12.4545 13.4998V7.99982H13.6483C14.1125 7.99982 14.3262 7.42229 13.9737 7.12019ZM5.39959 8.72551C5.49629 9.94788 6.20178 10.8249 6.71526 11.344C7.22874 11.863 7.98123 12.5497 9.20249 12.6595C9.50421 12.6867 9.85816 12.6595 10.1561 12.3709L10.4472 12.083C10.6865 11.8463 10.7079 11.48 10.4952 11.2649L9.91724 10.6807C9.70446 10.4657 9.33798 10.4832 9.09869 10.7199L8.75513 11.0598C8.69768 11.1166 8.62163 11.1498 8.55034 11.1288C8.34292 11.0677 7.95503 10.864 7.58182 10.4867C7.2086 10.1094 7.00901 9.71941 6.95015 9.51134C6.92992 9.43983 6.96389 9.36414 7.02134 9.30731L7.36489 8.96743C7.60418 8.73071 7.62567 8.36443 7.41289 8.14935L6.83497 7.56517C6.62219 7.35008 6.2557 7.36762 6.01641 7.60435L5.72539 7.89225C5.49557 8.11961 5.3757 8.42351 5.39959 8.72551Z" fill="black"/>
</svg>
