<svg width="16" height="16" viewBox="0 0 16 16" fill="none" xmlns="http://www.w3.org/2000/svg">
<path d="M2.6 2C2.26863 2 2 2.26863 2 2.6V4.5C2 4.77614 2.22386 5 2.5 5C2.77614 5 3 4.77614 3 4.5V3H4.5C4.77614 3 5 2.77614 5 2.5C5 2.22386 4.77614 2 4.5 2H2.6Z" fill="black"/>
<path d="M2.6 14C2.26863 14 2 13.7314 2 13.4V11.5C2 11.2239 2.22386 11 2.5 11C2.77614 11 3 11.2239 3 11.5V13H4.5C4.77614 13 5 13.2239 5 13.5C5 13.7761 4.77614 14 4.5 14H2.6Z" fill="black"/>
<path d="M14 2.6C14 2.26863 13.7314 2 13.4 2H11.5C11.2239 2 11 2.22386 11 2.5C11 2.77614 11.2239 3 11.5 3H13V4.5C13 4.77614 13.2239 5 13.5 5C13.7761 5 14 4.77614 14 4.5V2.6Z" fill="black"/>
<path d="M13.4 14C13.7314 14 14 13.7314 14 13.4V11.5C14 11.2239 13.7761 11 13.5 11C13.2239 11 13 11.2239 13 11.5V13H11.5C11.2239 13 11 13.2239 11 13.5C11 13.7761 11.2239 14 11.5 14H13.4Z" fill="black"/>
<path d="M5 5C5.27614 5 5.5 5.22386 5.5 5.5V6.5C5.5 6.77614 5.27614 7 5 7C4.72386 7 4.5 6.77614 4.5 6.5V5.5C4.5 5.22386 4.72386 5 5 5Z" fill="black"/>
<path d="M11.5 5.5C11.5 5.22386 11.2761 5 11 5C10.7239 5 10.5 5.22386 10.5 5.5V6.5C10.5 6.77614 10.7239 7 11 7C11.2761 7 11.5 6.77614 11.5 6.5V5.5Z" fill="black"/>
<path d="M8.5 6C8.77614 6 9 6.22386 9 6.5V8.4C9 8.73137 8.73137 9 8.4 9H7.5C7.22386 9 7 8.77614 7 8.5C7 8.22386 7.22386 8 7.5 8H8V6.5C8 6.22386 8.22386 6 8.5 6Z" fill="black"/>
<path d="M6.94722 10.2764C6.82372 10.0294 6.52339 9.92929 6.2764 10.0528C6.02941 10.1763 5.92929 10.4766 6.05279 10.7236C6.4236 11.4652 7.28275 11.75 8 11.75C8.71726 11.75 9.57641 11.4652 9.94722 10.7236C10.0707 10.4766 9.9706 10.1763 9.72361 10.0528C9.47662 9.92929 9.17628 10.0294 9.05279 10.2764C8.9236 10.5348 8.53275 10.75 8 10.75C7.46726 10.75 7.07641 10.5348 6.94722 10.2764Z" fill="black"/>
</svg>
