<svg width="16" height="16" viewBox="0 0 16 16" fill="none" xmlns="http://www.w3.org/2000/svg">
<path fill-rule="evenodd" clip-rule="evenodd" d="M6 2C5.72386 2 5.5 2.22386 5.5 2.5C5.5 2.77614 5.72386 3 6 3H10C10.2761 3 10.5 2.77614 10.5 2.5C10.5 2.22386 10.2761 2 10 2H6ZM5.5 4C4.94772 4 4.5 4.44772 4.5 5V11C4.5 11.5523 4.94772 12 5.5 12H10.5C11.0523 12 11.5 11.5523 11.5 11V5C11.5 4.44772 11.0523 4 10.5 4H5.5ZM5.5 13.5C5.5 13.2239 5.72386 13 6 13H10C10.2761 13 10.5 13.2239 10.5 13.5C10.5 13.7761 10.2761 14 10 14H6C5.72386 14 5.5 13.7761 5.5 13.5ZM9 6.5C9 6.22386 8.77614 6 8.5 6C8.22386 6 8 6.22386 8 6.5V8H7.5C7.22386 8 7 8.22386 7 8.5C7 8.77614 7.22386 9 7.5 9H8.4C8.73137 9 9 8.73137 9 8.4V6.5Z" fill="black"/>
</svg>
