<svg width="16" height="16" viewBox="0 0 16 16" fill="none" xmlns="http://www.w3.org/2000/svg">
<path fill-rule="evenodd" clip-rule="evenodd" d="M3.5 2C3.22386 2 3 2.22386 3 2.5V13.5C3 13.7761 3.22386 14 3.5 14H12.5C12.7761 14 13 13.7761 13 13.5V2.5C13 2.22386 12.7761 2 12.5 2H3.5ZM5 5H11V4H5V5ZM11 7H5V6H11V7ZM8.039 11.4642L8.59262 9.80329L9.02515 10.6683C9.12678 10.8716 9.33454 11 9.5618 11H10.5C10.7761 11 11 10.7762 11 10.5C11 10.2239 10.7761 10 10.5 10H9.80902L9.05518 8.49234C8.81612 8.01423 8.11835 8.06382 7.94931 8.57093L7.34894 10.372L6.94571 9.76719C6.83443 9.60027 6.64709 9.50001 6.44648 9.50001H5.5C5.22386 9.50001 5 9.72387 5 10C5 10.2762 5.22386 10.5 5.5 10.5H6.23241L6.97056 11.6072C7.24751 12.0227 7.88111 11.9378 8.039 11.4642Z" fill="black"/>
</svg>
