<svg width="16" height="16" viewBox="0 0 16 16" fill="none" xmlns="http://www.w3.org/2000/svg">
<path fill-rule="evenodd" clip-rule="evenodd" d="M11.5002 4.99956L8.32576 2.27857C8.13852 2.11808 7.86221 2.11808 7.67497 2.27857L1.61611 7.47189C1.40464 7.65315 1.53282 7.99966 1.81134 7.99966H2.40037H3.50037V13.4997C3.50037 13.7758 3.72422 13.9997 4.00037 13.9997H12.0004C12.2765 13.9997 12.5004 13.7758 12.5004 13.4997V7.99966H14.1894C14.4679 7.99966 14.5961 7.65315 14.3846 7.47189L12.5002 5.8567V3.49976C12.5002 3.22361 12.2764 2.99976 12.0002 2.99976C11.7241 2.99976 11.5002 3.22361 11.5002 3.49976V4.99956ZM8.86936 9.40784C8.35993 9.33483 7.99878 8.88262 7.99878 8.38396V7.13825C7.99878 7.01794 7.85192 6.95544 7.75963 7.03592C7.23762 7.49227 6.03988 8.67989 6.00103 9.99834C5.97017 11.0535 6.85733 11.972 7.94763 11.9991C9.07623 12.0273 10.0002 11.15 10.0002 10.0639C10.0002 9.79643 9.95024 9.53452 9.86767 9.282C9.83681 9.18796 9.72224 9.15339 9.64138 9.21369C9.43309 9.3694 9.16251 9.44988 8.86936 9.40784Z" fill="black"/>
</svg>
