<svg width="16" height="16" viewBox="0 0 16 16" fill="none" xmlns="http://www.w3.org/2000/svg">
<path fill-rule="evenodd" clip-rule="evenodd" d="M12.3664 2H3.5C3.22386 2 3 2.22386 3 2.5V9.13587C3 9.4674 3.04174 9.7976 3.12425 10.1187C3.24851 10.6023 3.45217 11.0571 3.72324 11.4663L12.3664 2ZM4.37215 12.2387C4.56763 12.4239 4.78076 12.592 5.00959 12.7405L5.22222 12.8784L7.74792 14.3528C7.90367 14.4438 8.09633 14.4438 8.25208 14.3528L10.7778 12.8784L10.9904 12.7405C11.9255 12.1339 12.5984 11.1981 12.8758 10.1187C12.9583 9.79759 13 9.4674 13 9.13588L13 2.78913L4.37215 12.2387Z" fill="black"/>
</svg>
