<svg width="16" height="16" viewBox="0 0 16 16" fill="none" xmlns="http://www.w3.org/2000/svg">
<path fill-rule="evenodd" clip-rule="evenodd" d="M3.18992 8.03846C3.06434 8.36575 2.89401 8.67773 2.68095 8.96493C2.1823 9.6371 1.91309 10.4518 1.91309 11.2888V12.2771C1.91309 13.2286 2.68444 14 3.63596 14H12.3641C13.3156 14 14.087 13.2286 14.087 12.2771V11.2888C14.087 10.4518 13.8178 9.6371 13.3191 8.96493C13.1061 8.67773 12.9357 8.36575 12.8102 8.03846L12.0435 8.03845C11.215 8.03845 10.5435 7.36688 10.5435 6.53846V5.81861C10.5435 5.58837 10.3968 5.41903 10.2212 5.38172C8.54665 5.02582 6.84507 5.17878 5.7741 5.39171C5.60152 5.42603 5.45652 5.5897 5.45652 5.81861V6.53845C5.45652 7.36688 4.78495 8.03845 3.95652 8.03845L3.18992 8.03846ZM2.31586 3.9473C3.30437 3.23458 5.16176 2.5 8 2.5C10.8382 2.5 12.6956 3.23458 13.6841 3.9473C14.3393 4.41968 14.5 5.30974 14.5 6.39834V6.53846C14.5 6.8146 14.2761 7.03846 14 7.03846L12.0435 7.03845C11.7673 7.03845 11.5435 6.8146 11.5435 6.53846V5.81861C11.5435 5.16786 11.1153 4.54939 10.4291 4.40356C8.58132 4.01086 6.73546 4.181 5.57909 4.41091C4.88761 4.5484 4.45652 5.16653 4.45652 5.81861V6.53845C4.45652 6.8146 4.23266 7.03845 3.95652 7.03845L2 7.03846C1.72386 7.03846 1.5 6.8146 1.5 6.53846V6.39834C1.5 5.30975 1.66068 4.41968 2.31586 3.9473ZM9 10.0879C9 10.6627 8.54201 11.1099 8 11.1099C7.45799 11.1099 7 10.6627 7 10.0879C7 9.51314 7.45799 9.06592 8 9.06592C8.54201 9.06592 9 9.51314 9 10.0879ZM10 10.0879C10 11.2046 9.10457 12.1099 8 12.1099C6.89543 12.1099 6 11.2046 6 10.0879C6 8.97119 6.89543 8.06592 8 8.06592C9.10457 8.06592 10 8.97119 10 10.0879Z" fill="black"/>
</svg>
