<svg width="16" height="16" viewBox="0 0 16 16" fill="none" xmlns="http://www.w3.org/2000/svg">
<path d="M3.5 3.5C3.5 3.01275 3.96519 2.5 4.5 2.5C5.03481 2.5 5.5 3.01275 5.5 3.5C5.5 3.77614 5.72386 4 6 4C6.27614 4 6.5 3.77614 6.5 3.5C6.5 2.49608 5.62205 1.5 4.5 1.5C3.37795 1.5 2.5 2.49608 2.5 3.5C2.5 4.35265 3.12973 5.19196 4 5.43205V6.08535C3.4174 6.29127 3 6.84689 3 7.5C3 8.22918 3.52029 8.83683 4.20988 8.97197C3.93299 9.35181 3.57396 9.8932 3.28188 10.4806C2.98935 11.069 2.75 11.7308 2.75 12.3334C2.75 12.9623 2.95806 13.447 3.29436 13.7744C3.62781 14.0991 4.06799 14.2501 4.5 14.2501C4.93201 14.2501 5.37219 14.0991 5.70564 13.7744C6.04194 13.447 6.25 12.9623 6.25 12.3334C6.25 11.7308 6.01065 11.069 5.71812 10.4806C5.42604 9.8932 5.06701 9.35181 4.79012 8.97197C5.47971 8.83683 6 8.22918 6 7.5C6 6.84689 5.5826 6.29127 5 6.08535V5.1C5 4.75956 4.72908 4.51918 4.43669 4.49767C3.92585 4.4601 3.5 3.96333 3.5 3.5Z" fill="black"/>
<path d="M12.5 3.5C12.5 3.01275 12.0348 2.5 11.5 2.5C10.9652 2.5 10.5 3.01275 10.5 3.5C10.5 3.77614 10.2761 4 10 4C9.72386 4 9.5 3.77614 9.5 3.5C9.5 2.49608 10.378 1.5 11.5 1.5C12.622 1.5 13.5 2.49608 13.5 3.5C13.5 4.35265 12.8703 5.19196 12 5.43205V6.08535C12.5826 6.29127 13 6.84689 13 7.5C13 8.22918 12.4797 8.83682 11.7901 8.97196C12.067 9.35181 12.426 9.8932 12.7181 10.4806C13.0107 11.069 13.25 11.7308 13.25 12.3334C13.25 12.9623 13.0419 13.447 12.7056 13.7744C12.3722 14.0991 11.932 14.2501 11.5 14.2501C11.068 14.2501 10.6278 14.0991 10.2944 13.7744C9.95806 13.447 9.75 12.9623 9.75 12.3334C9.75 11.7308 9.98935 11.069 10.2819 10.4806C10.574 9.8932 10.933 9.35181 11.2099 8.97196C10.5203 8.83682 10 8.22918 10 7.5C10 6.84689 10.4174 6.29127 11 6.08535V5.1C11 4.75956 11.2709 4.51918 11.5633 4.49767C12.0742 4.4601 12.5 3.96333 12.5 3.5Z" fill="black"/>
</svg>
