<svg width="16" height="16" viewBox="0 0 16 16" fill="none" xmlns="http://www.w3.org/2000/svg">
<path fill-rule="evenodd" clip-rule="evenodd" d="M3 2C2.44772 2 2 2.44772 2 3V13C2 13.5523 2.44772 14 3 14H13C13.5523 14 14 13.5523 14 13V3C14 2.44772 13.5523 2 13 2H3ZM7 5.5V8H8.75C9.44036 8 10 7.44036 10 6.75C10 6.05964 9.44036 5.5 8.75 5.5H7ZM11 6.75C11 7.99264 9.99264 9 8.75 9H7V9.99982H8C8.27614 9.99982 8.5 10.2237 8.5 10.4998C8.5 10.776 8.27614 10.9998 8 10.9998H7V11.5C7 11.7761 6.77614 12 6.5 12C6.22386 12 6 11.7761 6 11.5V10.9998H5.5C5.22386 10.9998 5 10.776 5 10.4998C5 10.2237 5.22386 9.99982 5.5 9.99982H6V9H5.5C5.22386 9 5 8.77614 5 8.5C5 8.22386 5.22386 8 5.5 8H6V5.1C6 4.76863 6.26863 4.5 6.6 4.5H8.75C9.99264 4.5 11 5.50736 11 6.75Z" fill="black"/>
</svg>
