<svg width="16" height="16" viewBox="0 0 16 16" fill="none" xmlns="http://www.w3.org/2000/svg">
<path fill-rule="evenodd" clip-rule="evenodd" d="M1.7758 6.14899C1.38786 6.53695 1.38493 7.16505 1.76921 7.5566L6.13053 11.9999H12.1L14.3116 9.80653C14.7049 9.41648 14.7061 8.78107 14.3145 8.38941L7.632 1.70696C7.2415 1.31643 6.60832 1.31643 6.21781 1.70696L1.7758 6.14899ZM1.0752 13.4998C1.0752 13.2237 1.29905 12.9998 1.5752 12.9998H14.5752C14.8513 12.9998 15.0752 13.2237 15.0752 13.4998C15.0752 13.776 14.8513 13.9998 14.5752 13.9998H1.5752C1.29905 13.9998 1.0752 13.776 1.0752 13.4998ZM10.0752 7.49985C10.0752 7.2237 9.85134 6.99985 9.5752 6.99985C9.29905 6.99985 9.0752 7.2237 9.0752 7.49985V9.60243H8.0752C7.79905 9.60243 7.5752 9.82629 7.5752 10.1024C7.5752 10.3786 7.79905 10.6024 8.0752 10.6024H9.47519C9.80657 10.6024 10.0752 10.3338 10.0752 10.0024V7.49985Z" fill="black"/>
</svg>
