<svg width="16" height="16" viewBox="0 0 16 16" fill="none" xmlns="http://www.w3.org/2000/svg">
<path fill-rule="evenodd" clip-rule="evenodd" d="M10.5 4H5.5C5.22386 4 5 4.22386 5 4.5V7.40489L3.07106 6.20041C2.88115 6.08183 2.63557 6.10394 2.4699 6.25455L1.73687 6.92094C1.60861 7.03754 1.60557 7.23827 1.73025 7.3587L5 10.517V12C5 12.5523 5.44772 13 6 13H10.5C11.0523 13 11.5 12.5523 11.5 12V9.95852C12.9189 9.72048 14 8.4865 14 7C14 5.34315 12.6569 4 11 4H10.5ZM11.5 5.06301V8.93699C12.3626 8.71497 13 7.93192 13 7C13 6.06808 12.3626 5.28503 11.5 5.06301ZM7 6H8C8.27614 6 8.5 5.77614 8.5 5.5C8.5 5.22386 8.27614 5 8 5H6.6C6.26863 5 6 5.26863 6 5.6V7C6 7.27614 6.22386 7.5 6.5 7.5C6.77614 7.5 7 7.27614 7 7V6Z" fill="black"/>
</svg>
