<svg width="16" height="16" viewBox="0 0 16 16" fill="none" xmlns="http://www.w3.org/2000/svg">
<path d="M5.5 4.4V11C5.5 11.0272 5.49783 11.0538 5.49366 11.0798C5.49786 11.136 5.5 11.1928 5.5 11.25C5.5 12.4926 4.49264 13.5 3.25 13.5C2.00736 13.5 1 12.4926 1 11.25C1 10.0074 2.00736 9 3.25 9C3.71254 9 4.14248 9.13957 4.5 9.37889V2.1C4.5 1.76863 4.76863 1.5 5.1 1.5H13.9C14.2314 1.5 14.5 1.76863 14.5 2.1V11C14.5 11.0272 14.4978 11.0538 14.4937 11.0798C14.4979 11.136 14.5 11.1928 14.5 11.25C14.5 12.4926 13.4926 13.5 12.25 13.5C11.0074 13.5 10 12.4926 10 11.25C10 10.0074 11.0074 9 12.25 9C12.7125 9 13.1425 9.13957 13.5 9.37889V4.4H5.5Z" fill="black"/>
</svg>
