<svg width="16" height="16" viewBox="0 0 16 16" fill="none" xmlns="http://www.w3.org/2000/svg">
<path fill-rule="evenodd" clip-rule="evenodd" d="M13.8762 2.1235C14.0715 2.31876 14.0715 2.63534 13.8762 2.8306L9.73988 6.96696C9.54462 7.16222 9.22804 7.16222 9.03277 6.96696C8.83751 6.7717 8.83751 6.45512 9.03277 6.25985L13.1691 2.1235C13.3644 1.92824 13.6809 1.92823 13.8762 2.1235ZM9.09089 10.4544C9.09089 12.4124 7.50354 13.9998 5.54545 13.9998C3.58735 13.9998 2 12.4124 2 10.4544C2 8.49626 3.58735 6.9089 5.54545 6.9089C7.50354 6.9089 9.09089 8.49626 9.09089 10.4544ZM10.3307 3.42159C10.526 3.22633 10.526 2.90975 10.3307 2.71449C10.1355 2.51923 9.81888 2.51923 9.62362 2.71449L7.26005 5.07813C7.06479 5.27339 7.06479 5.58997 7.26005 5.78523C7.45532 5.98049 7.7719 5.98049 7.96716 5.78523L10.3307 3.42159ZM13.2853 6.37613C13.4805 6.18087 13.4805 5.86429 13.2853 5.66903C13.09 5.47377 12.7734 5.47377 12.5782 5.66903L10.2146 8.03267C10.0193 8.22793 10.0193 8.54451 10.2146 8.73977C10.4099 8.93503 10.7264 8.93503 10.9217 8.73976L13.2853 6.37613Z" fill="black"/>
</svg>
