<svg width="16" height="16" viewBox="0 0 16 16" fill="none" xmlns="http://www.w3.org/2000/svg">
<path fill-rule="evenodd" clip-rule="evenodd" d="M2.5 6.68182C2.5 7.54877 2.84962 8.38066 3.41667 8.95455C3.43055 8.9686 3.44457 8.9825 3.45871 8.99624L7.64792 13.1508C7.84284 13.3441 8.15716 13.3441 8.35208 13.1508L12.5833 8.95455C13.1776 8.37704 13.5 7.57213 13.5 6.68182C13.5 4.92455 12.1782 3.5 10.4062 3.5C9.50852 3.5 8.58232 4.02177 8 4.61111C7.41768 4.02177 6.49148 3.5 5.59375 3.5C3.82184 3.5 2.5 4.92455 2.5 6.68182ZM11.8536 8.35355C12.0488 8.15829 12.0488 7.84171 11.8536 7.64645C11.6583 7.45118 11.3417 7.45118 11.1464 7.64645L8.64645 10.1464C8.45118 10.3417 8.45118 10.6583 8.64645 10.8536C8.84171 11.0488 9.15829 11.0488 9.35355 10.8536L11.8536 8.35355Z" fill="black"/>
</svg>
