<svg width="16" height="16" viewBox="0 0 16 16" fill="none" xmlns="http://www.w3.org/2000/svg">
<path fill-rule="evenodd" clip-rule="evenodd" d="M8 16C12.4183 16 16 12.4183 16 8C16 3.58172 12.4183 0 8 0C3.58172 0 0 3.58172 0 8C0 12.4183 3.58172 16 8 16ZM4.21686 5.05227C3.27946 5.93109 2.69884 6.9843 2.47423 7.65811C2.38691 7.92009 2.10375 8.06167 1.84178 7.97434C1.57981 7.88702 1.43823 7.60386 1.52555 7.34189C1.80094 6.5157 2.47033 5.31891 3.53292 4.32273C4.60328 3.31927 6.09526 2.5 7.99989 2.5C9.90452 2.5 11.3965 3.31927 12.4669 4.32273C13.5295 5.31891 14.1988 6.5157 14.4742 7.34189C14.5616 7.60386 14.42 7.88702 14.158 7.97434C13.896 8.06167 13.6129 7.92009 13.5255 7.65811C13.3009 6.9843 12.7203 5.93109 11.7829 5.05227C10.8533 4.18073 9.59526 3.5 7.99989 3.5C6.40452 3.5 5.1465 4.18073 4.21686 5.05227ZM11 8C11 9.65685 9.65685 11 8 11C6.34315 11 5 9.65685 5 8C5 6.34315 6.34315 5 8 5C9.65685 5 11 6.34315 11 8ZM4.37686 10.6714C4.19538 10.4633 3.87953 10.4417 3.6714 10.6232C3.46327 10.8046 3.44167 11.1205 3.62315 11.3286C4.13475 11.9153 5.57345 13.5 8.00001 13.5C10.4266 13.5 11.8653 11.9153 12.3769 11.3286C12.5583 11.1205 12.5367 10.8046 12.3286 10.6232C12.1205 10.4417 11.8046 10.4633 11.6232 10.6714C11.1382 11.2275 9.95823 12.5 8.00001 12.5C6.04178 12.5 4.86181 11.2275 4.37686 10.6714ZM8 9.5C8.82843 9.5 9.5 8.82843 9.5 8C9.5 7.93857 9.49631 7.87801 9.48913 7.81851C9.35781 7.93162 9.18686 8 8.99994 8C8.58573 8 8.24994 7.66421 8.24994 7.25C8.24994 6.98654 8.38579 6.75481 8.59126 6.62103C8.40983 6.54313 8.20995 6.5 8 6.5C7.17157 6.5 6.5 7.17157 6.5 8C6.5 8.82843 7.17157 9.5 8 9.5Z" fill="black"/>
</svg>
