<svg width="16" height="16" viewBox="0 0 16 16" fill="none" xmlns="http://www.w3.org/2000/svg">
<path fill-rule="evenodd" clip-rule="evenodd" d="M13.5248 12.5253H12.1296C10.5353 12.5253 9.00656 11.8908 7.88084 10.7618L2.84509 5.7114C2.45523 5.3204 2.45604 4.68743 2.8469 4.29743L5.43215 1.71788C5.56477 1.58555 5.74448 1.51123 5.93183 1.51123C6.32253 1.51123 6.63926 1.82796 6.63926 2.21866V2.38301C6.63926 2.46961 6.64731 2.55601 6.66331 2.64111C6.83894 3.5751 8.02633 3.87732 8.62711 3.14094L8.85076 2.8668C9.03333 2.64302 9.30683 2.51318 9.59563 2.51318L10.6393 2.51318C11.1915 2.51318 11.6393 2.9609 11.6393 3.51318V6.77519C11.6393 7.25149 11.8092 7.71215 12.1186 8.07429L14.3646 10.7033C14.5355 10.9033 14.6294 11.1577 14.6294 11.4208C14.6294 12.0308 14.1348 12.5253 13.5248 12.5253ZM2.65039 10.0747C2.65039 9.79856 2.87425 9.57471 3.15039 9.57471H5.18778C5.46393 9.57471 5.68778 9.79856 5.68778 10.0747C5.68778 10.3508 5.46393 10.5747 5.18778 10.5747H3.15039C2.87425 10.5747 2.65039 10.3508 2.65039 10.0747ZM3.15039 11.5249C2.87425 11.5249 2.65039 11.7488 2.65039 12.0249C2.65039 12.301 2.87425 12.5249 3.15039 12.5249H7.1167C7.39284 12.5249 7.6167 12.301 7.6167 12.0249C7.6167 11.7488 7.39284 11.5249 7.1167 11.5249H3.15039Z" fill="black"/>
</svg>
