<svg width="16" height="16" viewBox="0 0 16 16" fill="none" xmlns="http://www.w3.org/2000/svg">
<path fill-rule="evenodd" clip-rule="evenodd" d="M3 2.5V9.13587C3 9.4674 3.04174 9.7976 3.12425 10.1187C3.40161 11.1981 4.07455 12.1339 5.00959 12.7405L5.22222 12.8784L7.74792 14.3528C7.90367 14.4438 8.09633 14.4438 8.25208 14.3528L10.7778 12.8784L10.9904 12.7405C11.9255 12.1339 12.5984 11.1981 12.8758 10.1187C12.9583 9.79759 13 9.4674 13 9.13588L13 2.5C13 2.22386 12.7762 2 12.5 2H3.5C3.22386 2 3 2.22386 3 2.5ZM7.5 5.5V6.975H8.7625C9.16981 6.975 9.5 6.64481 9.5 6.2375C9.5 5.83019 9.16981 5.5 8.7625 5.5H7.5ZM10.5 6.2375C10.5 7.19709 9.7221 7.975 8.7625 7.975H7.5V8.47498H8.5C8.77614 8.47498 9 8.69883 9 8.97498C9 9.25112 8.77614 9.47498 8.5 9.47498H7.5V10C7.5 10.2761 7.27614 10.5 7 10.5C6.72386 10.5 6.5 10.2761 6.5 10V9.47498H6C5.72386 9.47498 5.5 9.25112 5.5 8.97498C5.5 8.69883 5.72386 8.47498 6 8.47498H6.5V7.975H6C5.72386 7.975 5.5 7.75114 5.5 7.475C5.5 7.19886 5.72386 6.975 6 6.975H6.5V5.05882C6.5 4.75019 6.75019 4.5 7.05882 4.5H8.7625C9.7221 4.5 10.5 5.27791 10.5 6.2375Z" fill="black"/>
</svg>
