<svg width="16" height="16" viewBox="0 0 16 16" fill="none" xmlns="http://www.w3.org/2000/svg">
<path fill-rule="evenodd" clip-rule="evenodd" d="M2.25759 3.34591C2.13001 3.71931 2 4.15065 2 4.8C2 5.53564 2.24823 6.06964 2.58503 6.5167C2.91776 6.9338 3.40771 7.33647 4.12137 7.51489C4.38926 7.58186 4.55214 7.85333 4.48517 8.12122C4.4182 8.38912 4.14673 8.552 3.87883 8.48503C3.63328 8.42364 3.40745 8.34256 3.2 8.24686V9.6C3.2 11.2435 3.2 11.6667 5 13C6.81665 14.2111 9.18335 14.2111 11 13C12.8 11.6667 12.8 11.2435 12.8 9.6V8.24686C12.5926 8.34256 12.3667 8.42364 12.1212 8.48503C11.8533 8.552 11.5818 8.38912 11.5148 8.12122C11.4479 7.85333 11.6107 7.58186 11.8786 7.51489C12.5923 7.33647 13.0822 6.93379 13.415 6.5167C13.7518 6.06963 14 5.53564 14 4.8C14 4.15065 13.87 3.71931 13.7424 3.34591C13.672 3.13999 13.4773 3 13.2596 3H2.74035C2.52274 3 2.32796 3.13999 2.25759 3.34591ZM6.3753 6.51583C6.64269 6.44689 6.91535 6.60778 6.98429 6.87517L7.12099 7.4054C7.19775 7.46633 7.29329 7.5 7.39234 7.5H8.60671C8.71026 7.5 8.81037 7.46589 8.89194 7.40377L9.01331 6.8859C9.07633 6.61705 9.34536 6.45018 9.61422 6.51319C9.88307 6.5762 10.0499 6.84524 9.98693 7.11409L9.85017 7.6976C9.8156 7.84511 9.73939 7.9796 9.63062 8.08508C9.3562 8.35118 8.98897 8.5 8.60671 8.5H7.39234C7.00745 8.5 6.63866 8.34554 6.36865 8.07124C6.27218 7.97325 6.2033 7.85152 6.16897 7.71836L6.01595 7.12482C5.94701 6.85742 6.1079 6.58477 6.3753 6.51583ZM7 9.5C6.72386 9.5 6.5 9.72386 6.5 10C6.5 10.2761 6.72386 10.5 7 10.5H9C9.27614 10.5 9.5 10.2761 9.5 10C9.5 9.72386 9.27614 9.5 9 9.5H7Z" fill="black"/>
</svg>
