<svg width="16" height="16" viewBox="0 0 16 16" fill="none" xmlns="http://www.w3.org/2000/svg">
<path fill-rule="evenodd" clip-rule="evenodd" d="M12.1 13.9932H3.90001C3.6791 13.9932 3.50001 13.8141 3.50001 13.5932L3.5 3.84116C3.5 3.35196 3.85393 2.93457 4.33656 2.85461L9.03465 2.07628C9.27835 2.0359 9.50003 2.22388 9.50003 2.4709L9.50003 3.99992H6.00009C5.72395 3.99992 5.50009 4.22378 5.50009 4.49992C5.50009 4.77606 5.72395 4.99992 6.00009 4.99992H11.0001C11.028 4.99992 11.0554 4.99763 11.0821 4.99324H12.1C12.3209 4.99324 12.5 5.17232 12.5 5.39323V13.5932C12.5 13.8141 12.3209 13.9932 12.1 13.9932ZM5.75897 9.75881L7.50511 11.505C7.77847 11.7783 8.22169 11.7783 8.49506 11.505L10.2412 9.75881C10.6766 9.32337 10.7256 8.634 10.3561 8.14135C9.90432 7.53891 9.02368 7.47633 8.4912 8.00881L8.00008 8.49993L7.50896 8.00881C6.97648 7.47633 6.09584 7.53891 5.64402 8.14135C5.27453 8.634 5.32352 9.32337 5.75897 9.75881Z" fill="black"/>
</svg>
