<svg width="16" height="16" viewBox="0 0 16 16" fill="none" xmlns="http://www.w3.org/2000/svg">
<path d="M11.8371 2.37204C12.3268 1.87981 13.1216 1.874 13.6184 2.35901C14.1219 2.85053 14.1278 3.65833 13.6315 4.15715L11.7157 6.08304L12.8813 10.7151C13.0525 11.3957 12.8546 12.1162 12.3596 12.6137L12.1555 12.8189C11.9343 13.0413 11.5653 13.0074 11.3882 12.7485L8.82079 8.99315L8.82161 8.99221L6.71544 11.1093L6.94836 12.7384C6.99294 13.0502 6.88803 13.3647 6.66523 13.5873L6.38906 13.8633C6.24814 14.0041 6.01164 13.9709 5.91483 13.7968L4.58921 11.4128L2.20374 10.0885C2.02941 9.99176 1.99625 9.755 2.13728 9.61405L2.41326 9.33821C2.63579 9.1158 2.95002 9.01109 3.26148 9.05554L4.89296 9.28841L7.00945 7.22492L3.18908 4.74162C2.92299 4.56866 2.88328 4.19477 3.1071 3.96977L3.30869 3.76713C3.80071 3.27254 4.51491 3.07008 5.19329 3.23287L9.86538 4.35407L11.8371 2.37204Z" fill="black"/>
</svg>
