<svg width="16" height="16" viewBox="0 0 16 16" fill="none" xmlns="http://www.w3.org/2000/svg">
<path d="M9.99998 5.00009L9.20146 2.60454C9.09448 2.28358 9.293 1.94149 9.62475 1.87514C10.8626 1.62756 12.1373 1.62756 13.3752 1.87514C13.707 1.94149 13.9055 2.28358 13.7985 2.60454L13 5.00009H9.99998Z" fill="black"/>
<path d="M4 5.00016V3.43278C4 3.16764 4.1498 2.92526 4.38695 2.80668L5.56584 2.21724C5.76531 2.1175 6 2.26255 6 2.48557V5.00016H4Z" fill="black"/>
<path d="M3 10.5001V6.00012H7V10.5001H7.5C7.77614 10.5001 8 10.724 8 11.0001V13.5001C8 13.7763 7.77614 14.0001 7.5 14.0001H2.5C2.22386 14.0001 2 13.7763 2 13.5001V11.0001C2 10.724 2.22386 10.5001 2.5 10.5001H3Z" fill="black"/>
<path d="M10 6.00012H13V12.5001C13 13.3285 12.3284 14.0001 11.5 14.0001C10.6716 14.0001 10 13.3285 10 12.5001V6.00012Z" fill="black"/>
</svg>
