<svg width="16" height="16" viewBox="0 0 16 16" fill="none" xmlns="http://www.w3.org/2000/svg">
<path d="M6 11.5C6 12.3284 5.32843 13 4.5 13C3.67157 13 3 12.3284 3 11.5L3 10H2.5C1.94772 10 1.5 9.55228 1.5 9V8C1.5 7.44772 1.94772 7 2.5 7H3L3 5.5C3 4.67157 3.67157 4 4.5 4C5.32843 4 6 4.67157 6 5.5V7L10 7V5.5C10 4.67157 10.6716 4 11.5 4C12.3284 4 13 4.67157 13 5.5L13 7H13.5C14.0523 7 14.5 7.44772 14.5 8V9C14.5 9.55229 14.0523 10 13.5 10H13V11.5C13 12.3284 12.3284 13 11.5 13C10.6716 13 10 12.3284 10 11.5L10 10L6 10V11.5Z" fill="black"/>
</svg>
