<svg width="16" height="16" viewBox="0 0 16 16" fill="none" xmlns="http://www.w3.org/2000/svg">
<path d="M2.12787 7.23058L4.30609 11.1512C4.40277 11.3258 4.64008 11.3588 4.7807 11.2171L7.39398 8.58873C7.35883 8.56188 7.32513 8.53234 7.29291 8.49999L3.2641 4.47118L2.11761 6.76415C2.04388 6.91173 2.04779 7.08629 2.12787 7.23058Z" fill="black"/>
<path d="M4.00092 3.79381L7.99994 7.79296L12.0073 3.78563C10.4101 3.16503 7.24945 2.55419 4.00092 3.79381Z" fill="black"/>
<path d="M12.7353 4.47154L8.70697 8.49999C8.67474 8.53234 8.64056 8.562 8.60541 8.58898L11.2182 11.2171C11.2631 11.2623 11.3178 11.2898 11.3749 11.3004C11.4965 11.3232 11.6274 11.27 11.6933 11.1512L13.8715 7.23058C13.9516 7.08629 13.9555 6.91173 13.8818 6.76415L12.7353 4.47154Z" fill="black"/>
<path d="M8.49994 10.5V11.5H7.49994V10.5H8.49994Z" fill="black"/>
<path d="M8.49994 13.5V12.5H7.49994V13.5H8.49994Z" fill="black"/>
</svg>
