<svg width="16" height="16" viewBox="0 0 16 16" fill="none" xmlns="http://www.w3.org/2000/svg">
<path d="M4.48694 2.32918C4.74103 1.821 5.26043 1.5 5.82859 1.5H10.2767C10.8449 1.5 11.3643 1.821 11.6184 2.32918L12.4669 4.02631H13.1053C13.3814 4.02631 13.6053 4.25016 13.6053 4.52631C13.6053 4.80245 13.3814 5.02631 13.1053 5.02631H11.9996L11.9961 5.02632H4.1092L4.10572 5.02631H3C2.72386 5.02631 2.5 4.80245 2.5 4.52631C2.5 4.25016 2.72386 4.02631 3 4.02631H3.63838L4.48694 2.32918Z" fill="black"/>
<path d="M3.69031 6.55267H12.4149L11.508 13.2027C11.4067 13.9459 10.7719 14.5 10.0218 14.5H6.08338C5.33327 14.5 4.69848 13.9459 4.59713 13.2027L3.69031 6.55267Z" fill="black"/>
</svg>
