<svg width="16" height="16" viewBox="0 0 16 16" fill="none" xmlns="http://www.w3.org/2000/svg">
<path fill-rule="evenodd" clip-rule="evenodd" d="M10 2.5H3C2.72386 2.5 2.5 2.72386 2.5 3V13C2.5 13.2761 2.72386 13.5 3 13.5H13C13.2761 13.5 13.5 13.2761 13.5 13V6H10.6C10.2686 6 10 5.73137 10 5.4V2.5ZM13 5L11 3V5H13ZM5.92652 8.84525L4.61134 6.5H5.94044L6.81723 8.17813L7.73577 6.5H9.03704L7.64531 8.82462L9.12054 11.3143H7.7636L6.76852 9.53989L5.82214 11.3143H4.5L5.92652 8.84525Z" fill="black"/>
</svg>
