<svg width="16" height="16" viewBox="0 0 16 16" fill="none" xmlns="http://www.w3.org/2000/svg">
<path fill-rule="evenodd" clip-rule="evenodd" d="M10.6467 1.64645C10.842 1.45118 11.1586 1.45118 11.3538 1.64645L12.5003 2.79289L13.6467 1.64645C13.842 1.45118 14.1586 1.45118 14.3538 1.64645C14.5491 1.84171 14.5491 2.15829 14.3538 2.35355L13.2074 3.5L14.3538 4.64645C14.5491 4.84171 14.5491 5.15829 14.3538 5.35355C14.1586 5.54882 13.842 5.54882 13.6467 5.35355L12.5003 4.20711L11.3538 5.35355C11.1586 5.54882 10.842 5.54882 10.6467 5.35355C10.4515 5.15829 10.4515 4.84171 10.6467 4.64645L11.7932 3.5L10.6467 2.35355C10.4515 2.15829 10.4515 1.84171 10.6467 1.64645ZM1.97435 5.40062C2.18653 8.08271 3.7345 10.0071 4.86116 11.146C5.98782 12.2848 7.63892 13.7915 10.3186 14.0326C10.9806 14.0921 11.7572 14.0326 12.4111 13.3993L13.0496 12.7676C13.5746 12.2481 13.6218 11.4445 13.1549 10.9725L11.8869 9.69075C11.42 9.21881 10.6159 9.2573 10.0908 9.77673L9.33699 10.5225C9.21093 10.6472 9.04407 10.7199 8.88764 10.6738C8.43251 10.5398 7.58143 10.0927 6.76253 9.26496C5.94362 8.43719 5.5057 7.58142 5.37655 7.12488C5.33216 6.96796 5.40669 6.80189 5.53274 6.67719L6.28656 5.93145C6.81161 5.41202 6.85876 4.60836 6.39187 4.13642L5.12382 2.85464C4.65693 2.38269 3.85281 2.42119 3.32776 2.94061L2.68922 3.57231C2.18495 4.07118 1.92193 4.73799 1.97435 5.40062Z" fill="black"/>
</svg>
