<svg width="16" height="16" viewBox="0 0 16 16" fill="none" xmlns="http://www.w3.org/2000/svg">
<path fill-rule="evenodd" clip-rule="evenodd" d="M10.5476 3.47619C10.5476 2.38477 11.4324 1.5 12.5238 1.5C13.6152 1.5 14.5 2.38477 14.5 3.47619C14.5 4.56761 13.6152 5.45238 12.5238 5.45238C11.4324 5.45238 10.5476 4.56761 10.5476 3.47619ZM9.93892 2C9.68993 2.43506 9.54761 2.939 9.54761 3.47619C9.54761 5.1199 10.8801 6.45238 12.5238 6.45238C12.6859 6.45238 12.8449 6.43942 13 6.41449V10C13 11.6569 11.6569 13 10 13H5C3.34315 13 2 11.6569 2 10V5C2 3.34315 3.34315 2 5 2H9.93892Z" fill="black"/>
</svg>
