<svg width="16" height="16" viewBox="0 0 16 16" fill="none" xmlns="http://www.w3.org/2000/svg">
<path d="M7.5 3C7.22388 3 7 3.22388 7 3.5V7.5C7 7.77612 7.22388 8 7.5 8C7.77612 8 8 7.77612 8 7.5V3.5C8 3.22388 7.77612 3 7.5 3Z" fill="black"/>
<path d="M11 13C11.2761 13 11.5 12.7761 11.5 12.5V9.5C11.5 9.22388 11.2761 9 11 9C10.7239 9 10.5 9.22388 10.5 9.5V12.5C10.5 12.7761 10.7239 13 11 13Z" fill="black"/>
<path d="M5 5.5C5 5.22388 5.22388 5 5.5 5C5.77612 5 6 5.22388 6 5.5V7.5C6 7.77612 5.77612 8 5.5 8C5.22388 8 5 7.77612 5 7.5V5.5Z" fill="black"/>
<path d="M3.5 4C3.22388 4 3 4.22388 3 4.5V7.5C3 7.77612 3.22388 8 3.5 8C3.77612 8 4 7.77612 4 7.5V4.5C4 4.22388 3.77612 4 3.5 4Z" fill="black"/>
<path d="M9.5 10.5C9.5 10.7761 9.27612 11 9 11C8.72388 11 8.5 10.7761 8.5 10.5V9.5C8.5 9.22388 8.72388 9 9 9C9.27612 9 9.5 9.22388 9.5 9.5V10.5Z" fill="black"/>
<path d="M13.3284 11.877C13.4336 11.7853 13.5 11.6504 13.5 11.5V9.5C13.5 9.22388 13.2761 9 13 9C12.7239 9 12.5 9.22388 12.5 9.5V11.5C12.5 11.7761 12.7239 12 13 12C13.1257 12 13.2405 11.9536 13.3284 11.877Z" fill="black"/>
</svg>
