<svg width="16" height="16" viewBox="0 0 16 16" fill="none" xmlns="http://www.w3.org/2000/svg">
<path d="M1.5 3.10005C1.5 2.76477 1.72912 2.37581 2.2824 2.04384C2.82573 1.71784 3.6086 1.5 4.50009 1.5C5.39157 1.5 6.17444 1.71784 6.71777 2.04384C7.27105 2.37581 7.50017 2.76477 7.50017 3.10005C7.50017 3.43533 7.27105 3.8243 6.71777 4.15627C6.17444 4.48226 5.39157 4.7001 4.50009 4.7001C3.6086 4.7001 2.82573 4.48226 2.2824 4.15627C1.72912 3.8243 1.5 3.43533 1.5 3.10005Z" fill="black"/>
<path d="M7.23227 5.01376C7.32451 4.95841 7.4141 4.89917 7.50017 4.83618V5.2001C7.50017 5.53538 7.27105 5.92434 6.71777 6.25631C6.17444 6.58231 5.39156 6.80015 4.50009 6.80015C3.60861 6.80015 2.82573 6.58231 2.2824 6.25631C1.72912 5.92434 1.5 5.53538 1.5 5.2001V4.83619C1.58607 4.89917 1.67566 4.95841 1.7679 5.01376C2.49136 5.44783 3.45852 5.7001 4.50009 5.7001C5.54165 5.7001 6.50881 5.44783 7.23227 5.01376Z" fill="black"/>
<path d="M12.5473 5.60375C12.2328 5.53847 11.8916 5.50147 11.5326 5.50004C10.7071 5.50346 9.98386 5.71082 9.48176 6.0186C8.96708 6.33408 8.75415 6.7032 8.75415 7.02228C8.75415 7.34137 8.96708 7.71048 9.48176 8.02596C9.98806 8.33631 10.7192 8.54456 11.5533 8.54456C12.3874 8.54456 13.1186 8.33631 13.6249 8.02596C14.1396 7.71048 14.3525 7.34137 14.3525 7.02228C14.3525 6.7032 14.1396 6.33408 13.6249 6.0186C13.3327 5.83952 12.9657 5.69444 12.5473 5.60375Z" fill="black"/>
<path d="M14.5005 9.2001V8.62953C14.3894 8.7197 14.271 8.80285 14.1475 8.87854C13.4597 9.30011 12.5413 9.54456 11.5533 9.54456C10.5653 9.54456 9.64691 9.30011 8.95915 8.87854C8.80373 8.78327 8.65636 8.6762 8.52148 8.55815V9.2001C8.52148 9.53613 8.75032 9.92503 9.30136 10.2567C9.84267 10.5824 10.6227 10.8002 11.511 10.8002C12.3993 10.8002 13.1793 10.5824 13.7206 10.2567C14.2716 9.92503 14.5005 9.53613 14.5005 9.2001Z" fill="black"/>
<path d="M2.48127 9.0186C2.98338 8.71082 3.70661 8.50346 4.53209 8.50004C4.89115 8.50147 5.23227 8.53847 5.5468 8.60375C5.96524 8.69444 6.33225 8.83953 6.62439 9.0186C7.13907 9.33408 7.352 9.7032 7.352 10.0223C7.352 10.3414 7.13907 10.7105 6.62439 11.026C6.11809 11.3363 5.38693 11.5446 4.55283 11.5446C3.71873 11.5446 2.98758 11.3363 2.48127 11.026C1.96659 10.7105 1.75366 10.3414 1.75366 10.0223C1.75366 9.7032 1.96659 9.33408 2.48127 9.0186Z" fill="black"/>
<path d="M7.147 11.8785C7.27048 11.8028 7.38888 11.7197 7.49998 11.6295V12.2001C7.49998 12.5361 7.27114 12.925 6.7201 13.2567C6.17879 13.5824 5.39877 13.8002 4.51049 13.8002C3.6222 13.8002 2.84218 13.5824 2.30087 13.2567C1.74983 12.925 1.521 12.5361 1.521 12.2001V11.5582C1.65587 11.6762 1.80324 11.7833 1.95867 11.8785C2.64642 12.3001 3.56485 12.5446 4.55283 12.5446C5.54081 12.5446 6.45924 12.3001 7.147 11.8785Z" fill="black"/>
</svg>
