<svg width="16" height="16" viewBox="0 0 16 16" fill="none" xmlns="http://www.w3.org/2000/svg">
<path d="M2 2.6C2 2.26863 2.26863 2 2.6 2H4.5C4.77614 2 5 2.22386 5 2.5C5 2.77614 4.77614 3 4.5 3H3V4.5C3 4.77614 2.77614 5 2.5 5C2.22386 5 2 4.77614 2 4.5V2.6Z" fill="black"/>
<path d="M2 13.4C2 13.7314 2.26863 14 2.6 14H4.5C4.77614 14 5 13.7761 5 13.5C5 13.2239 4.77614 13 4.5 13H3V11.5C3 11.2239 2.77614 11 2.5 11C2.22386 11 2 11.2239 2 11.5V13.4Z" fill="black"/>
<path d="M13.4 2C13.7314 2 14 2.26863 14 2.6V4.5C14 4.77614 13.7761 5 13.5 5C13.2239 5 13 4.77614 13 4.5V3H11.5C11.2239 3 11 2.77614 11 2.5C11 2.22386 11.2239 2 11.5 2H13.4Z" fill="black"/>
<path d="M14 13.4C14 13.7314 13.7314 14 13.4 14H11.5C11.2239 14 11 13.7761 11 13.5C11 13.2239 11.2239 13 11.5 13H13V11.5C13 11.2239 13.2239 11 13.5 11C13.7761 11 14 11.2239 14 11.5V13.4Z" fill="black"/>
<path d="M5.25553 7.44347C5.23061 7.49764 5.20808 7.55312 5.1877 7.6096C5.07676 7.38598 5 7.13273 5 6.85844C5 6.10481 5.5341 5.19239 6.86672 5.17455C6.92843 5.17372 6.96769 5.11385 7.01577 5.06271C7.28283 4.77861 7.6963 4.33876 8.88521 4.56022C10.0459 4.77641 11.555 6.19591 10.7942 7.7099C10.4887 7.24581 9.89539 7.00001 9 7.00001C8.06882 7.00001 7.75233 6.96675 7.59353 6.91794C7.51148 6.89271 7.44289 6.84222 7.37397 6.79284C7.30155 6.74096 7.19545 6.66496 7.07104 6.58861C6.97645 6.53056 6.86442 6.49851 6.7492 6.50029C6.39022 6.50583 6.07386 6.59502 5.81038 6.77231C5.5482 6.94872 5.37238 7.18943 5.25553 7.44347Z" fill="black"/>
<path d="M10 8.34849C9.99561 8.33431 9.99067 8.32101 9.98518 8.30853C9.95691 8.24429 9.83354 8.00001 9 8.00001C8.10769 8.00001 7.62982 7.97528 7.29969 7.87379C7.05363 7.79815 6.86087 7.64842 6.65138 7.50731C6.51785 7.52279 6.42968 7.56091 6.36864 7.60198C6.29047 7.65458 6.22184 7.73566 6.16403 7.86135C6.03875 8.13372 6 8.53216 6 9.00001V9.5C6 10.6046 6.89543 11.5 8 11.5C9.10457 11.5 10 10.6046 10 9.5V8.34849Z" fill="black"/>
</svg>
