<svg width="16" height="16" viewBox="0 0 16 16" fill="none" xmlns="http://www.w3.org/2000/svg">
<path fill-rule="evenodd" clip-rule="evenodd" d="M2 1C1.44775 1 1 1.44772 1 2V2.73685C1 3.28912 1.44775 3.73685 2 3.73685H3.05273V5.94737C3.05273 9.26108 5.73926 11.9474 9.05273 11.9474H11.2632V13C11.2632 13.5523 11.7109 14 12.2632 14H13C13.5522 14 14 13.5523 14 13V7.00002C14 6.44772 13.5522 6.00002 13 6.00002H12.2632C11.7109 6.00002 11.2632 6.44772 11.2632 7.00002V8H7.5C7.22412 8 7 7.77614 7 7.5V3.73685H8C8.55225 3.73685 9 3.28912 9 2.73685V2C9 1.44771 8.55225 1 8 1H2ZM4.75 7.5C5.16406 7.5 5.5 7.16422 5.5 6.75C5.5 6.33578 5.16406 6 4.75 6C4.33594 6 4 6.33578 4 6.75C4 7.16422 4.33594 7.5 4.75 7.5ZM6.5 8.75C6.5 9.16422 6.16406 9.5 5.75 9.5C5.33594 9.5 5 9.16422 5 8.75C5 8.33578 5.33594 8 5.75 8C6.16406 8 6.5 8.33578 6.5 8.75Z" fill="black"/>
</svg>
