<svg width="16" height="16" viewBox="0 0 16 16" fill="none" xmlns="http://www.w3.org/2000/svg">
<path d="M2 2C1.72388 2 1.5 2.22385 1.5 2.5C1.5 2.77615 1.72388 3 2 3H3.10962L3.50513 4.58194L3.97876 10.2664C4.01343 10.6811 4.35986 11 4.77612 11H12.2239C12.6401 11 12.9866 10.6811 13.0212 10.2664L13.4893 4.64984C13.5183 4.30002 13.2424 4 12.8914 4H4.39038L4.00391 2.45447C3.93726 2.18738 3.69727 2 3.42188 2H2Z" fill="black"/>
<path d="M7 13C7 13.5523 6.55225 14 6 14C5.44775 14 5 13.5523 5 13C5 12.4477 5.44775 12 6 12C6.55225 12 7 12.4477 7 13Z" fill="black"/>
<path d="M11 14C11.5522 14 12 13.5523 12 13C12 12.4477 11.5522 12 11 12C10.4478 12 10 12.4477 10 13C10 13.5523 10.4478 14 11 14Z" fill="black"/>
</svg>
