<svg width="16" height="16" viewBox="0 0 16 16" fill="none" xmlns="http://www.w3.org/2000/svg">
<path fill-rule="evenodd" clip-rule="evenodd" d="M4 3C4 2.44772 4.44772 2 5 2H11C11.5523 2 12 2.44772 12 3V13C12 13.5523 11.5523 14 11 14H5C4.44772 14 4 13.5523 4 13V3ZM6.5 3.5C6.5 3.22386 6.72386 3 7 3H9C9.27614 3 9.5 3.22386 9.5 3.5C9.5 3.77614 9.27614 4 9 4H7C6.72386 4 6.5 3.77614 6.5 3.5ZM8 11.25C7.58579 11.25 7.25 11.5858 7.25 12C7.25 12.4142 7.58579 12.75 8 12.75C8.41421 12.75 8.75 12.4142 8.75 12C8.75 11.5858 8.41421 11.25 8 11.25Z" fill="black"/>
</svg>
