<svg width="16" height="16" viewBox="0 0 16 16" fill="none" xmlns="http://www.w3.org/2000/svg">
<path fill-rule="evenodd" clip-rule="evenodd" d="M2 5.31287C2.00001 4.85029 2.00004 4.1102 3 3.92517C4 3.74014 7.08333 3.23129 8.5 3C9 3 10 3.37007 10 4.85034V10.8639C10 12.3442 9 12.7143 8.5 12.7143C7.08333 12.483 4 11.9741 3 11.7891C2.00004 11.6041 2.00001 10.864 2 10.4014V5.31287ZM10.7504 3.26161C10.9215 3.04487 11.2359 3.00788 11.4527 3.17899C12.0281 3.63327 12.2143 4.1724 12.2143 4.57983V11.1345C12.2143 11.8896 11.6561 12.3747 11.4527 12.5353C11.2359 12.7064 10.9215 12.6694 10.7504 12.4527C10.5793 12.2359 10.6163 11.9215 10.833 11.7504C10.9084 11.6909 11.01 11.5996 11.0902 11.4848C11.1692 11.3719 11.2143 11.2557 11.2143 11.1345V4.57983C11.2143 4.48307 11.1719 4.2314 10.833 3.96387C10.6163 3.79276 10.5793 3.47835 10.7504 3.26161ZM13.7323 3.74573C13.513 3.57799 13.1991 3.61983 13.0314 3.83918C12.8637 4.05854 12.9055 4.37235 13.1249 4.54009C13.4589 4.79557 13.5 5.04232 13.5 5.13339V10.581C13.5 10.6955 13.4566 10.8073 13.3782 10.9177C13.2986 11.0296 13.1977 11.1186 13.1249 11.1743C12.9055 11.342 12.8637 11.6558 13.0314 11.8752C13.1991 12.0946 13.513 12.1364 13.7323 11.9687C13.938 11.8114 14.5 11.3307 14.5 10.581V5.13339C14.5 4.72921 14.3125 4.18941 13.7323 3.74573Z" fill="black"/>
</svg>
