<svg width="16" height="16" viewBox="0 0 16 16" fill="none" xmlns="http://www.w3.org/2000/svg">
<path fill-rule="evenodd" clip-rule="evenodd" d="M3 3C2.44772 3 2 3.44772 2 4V8.5H5.5307C5.7759 8.5 6.00644 8.65073 6.09421 8.89589L6.1019 8.91736C6.19651 9.18196 6.33503 9.56938 6.61645 9.9012C6.8877 10.221 7.30135 10.5 8 10.5C8.69865 10.5 9.1123 10.221 9.38355 9.9012C9.66496 9.56938 9.80348 9.18198 9.8981 8.91738L9.8981 8.91737L9.8981 8.91737L9.90579 8.89589C9.99356 8.65073 10.2241 8.5 10.4693 8.5H14V4C14 3.44772 13.5523 3 13 3H3ZM14 9.5H10.7493C10.6376 9.78636 10.4536 10.1856 10.1462 10.548C9.70544 11.0677 9.02267 11.5 8 11.5C6.97733 11.5 6.29456 11.0677 5.8538 10.548C5.54641 10.1856 5.36243 9.78636 5.25074 9.5H2V12C2 12.5523 2.44772 13 3 13H13C13.5523 13 14 12.5523 14 12V9.5ZM12.5 5.5H3.5V4.5H12.5V5.5ZM3.5 7.5H12.5V6.5H3.5V7.5Z" fill="black"/>
</svg>
