<svg width="16" height="16" viewBox="0 0 16 16" fill="none" xmlns="http://www.w3.org/2000/svg">
<path fill-rule="evenodd" clip-rule="evenodd" d="M2 10V5C2 3.34315 3.34315 2 5 2H5.85C5.94443 2 6.03334 2.04446 6.09 2.12L7.7002 4.26693V14H5.5C5.22386 14 5 13.7761 5 13.5V10.5V6C5 5.72386 4.77614 5.5 4.5 5.5C4.22386 5.5 4 5.72386 4 6V10.5H2.5C2.22386 10.5 2 10.2761 2 10ZM8.3002 14V4.26641L9.91 2.12C9.96666 2.04446 10.0556 2 10.15 2H11C12.6569 2 14 3.34315 14 5V10C14 10.2761 13.7761 10.5 13.5 10.5H12V6C12 5.72386 11.7761 5.5 11.5 5.5C11.2239 5.5 11 5.72386 11 6V10.5V13.5C11 13.7761 10.7761 14 10.5 14H8.3002Z" fill="black"/>
</svg>
