<svg width="16" height="16" viewBox="0 0 16 16" fill="none" xmlns="http://www.w3.org/2000/svg">
<path fill-rule="evenodd" clip-rule="evenodd" d="M3.33333 2.2C3.33333 1.8134 3.03486 1.5 2.66667 1.5C2.29848 1.5 2 1.8134 2 2.2C2 2.33824 2.00425 2.47554 2.01263 2.61175C2.03638 2.99754 2.35348 3.29008 2.7209 3.26515C3.08833 3.24022 3.36694 2.90726 3.34319 2.52147C3.33666 2.41529 3.33333 2.3081 3.33333 2.2ZM14 2.2C14 1.8134 13.7015 1.5 13.3333 1.5C12.9651 1.5 12.6667 1.8134 12.6667 2.2C12.6667 2.3081 12.6633 2.41529 12.6568 2.52147C12.6331 2.90726 12.9117 3.24022 13.2791 3.26515C13.6465 3.29008 13.9636 2.99754 13.9874 2.61175C13.9957 2.47554 14 2.33824 14 2.2ZM13.3821 4.98743C13.5452 4.64083 13.4098 4.22103 13.0797 4.04978C12.7496 3.87853 12.3498 4.02068 12.1867 4.36728C12.0962 4.55959 11.994 4.74485 11.881 4.92202C11.6762 5.24328 11.7582 5.67805 12.0641 5.89313C12.3701 6.1082 12.7842 6.02212 12.989 5.70087C13.1342 5.47319 13.2656 5.23494 13.3821 4.98743ZM3.8133 4.36728C3.6502 4.02068 3.25039 3.87853 2.9203 4.04978C2.5902 4.22103 2.45482 4.64083 2.61791 4.98743C2.73438 5.23494 2.86584 5.47319 3.01101 5.70087C3.21584 6.02212 3.62991 6.1082 3.93586 5.89313C4.24182 5.67805 4.32379 5.24328 4.11896 4.92202C4.006 4.74485 3.90379 4.5596 3.8133 4.36728ZM11.3342 7.43844C11.6401 7.22337 11.7221 6.78859 11.5173 6.46734C11.3124 6.14609 10.8984 6.06002 10.5924 6.27509C10.4237 6.3937 10.2472 6.50102 10.0641 6.59604C9.73398 6.76729 9.5986 7.18709 9.76169 7.53369C9.92479 7.88029 10.3246 8.02244 10.6547 7.85119C10.8904 7.7289 11.1173 7.59087 11.3342 7.43844ZM5.4076 6.27509C5.10164 6.06002 4.68757 6.14609 4.48274 6.46734C4.27791 6.7886 4.35988 7.22337 4.66584 7.43844C4.88268 7.59087 5.10958 7.7289 5.34531 7.85119C5.6754 8.02244 6.07521 7.88029 6.23831 7.53369C6.4014 7.18709 6.26602 6.76729 5.93593 6.59604C5.75277 6.50102 5.57633 6.3937 5.4076 6.27509ZM7.69384 7.08965C7.32642 7.06472 7.00932 7.35726 6.98557 7.74305C6.96183 8.12884 7.24043 8.4618 7.60786 8.48673C7.73758 8.49554 7.86834 8.5 8 8.5C8.13166 8.5 8.26242 8.49554 8.39214 8.48673C8.75957 8.4618 9.03817 8.12884 9.01443 7.74305C8.99068 7.35725 8.67358 7.06472 8.30616 7.08965C8.20504 7.09651 8.10295 7.1 8 7.1C7.89705 7.1 7.79496 7.09651 7.69384 7.08965ZM5.31239 11.0837L6.32016 9.74C6.43348 9.58892 6.61131 9.5 6.80016 9.5H9.20016C9.38902 9.5 9.56685 9.58892 9.68016 9.74L10.6879 11.0837C10.8671 11.3226 10.8433 11.6568 10.6322 11.868L8.42443 14.0757C8.19011 14.3101 7.81021 14.3101 7.5759 14.0757L5.36812 11.868C5.15699 11.6568 5.13323 11.3226 5.31239 11.0837ZM7.85355 10.1464C8.04882 10.3417 8.04882 10.6583 7.85355 10.8536L7.35355 11.3536C7.15829 11.5488 6.84171 11.5488 6.64645 11.3536C6.45118 11.1583 6.45118 10.8417 6.64645 10.6464L7.14645 10.1464C7.34171 9.95118 7.65829 9.95118 7.85355 10.1464Z" fill="black"/>
</svg>
