<svg width="16" height="16" viewBox="0 0 16 16" fill="none" xmlns="http://www.w3.org/2000/svg">
<path fill-rule="evenodd" clip-rule="evenodd" d="M5 5.5C5 5.22386 5.22386 5 5.5 5H7C7.27614 5 7.5 5.22386 7.5 5.5C7.5 5.77614 7.27614 6 7 6H5.5C5.22386 6 5 5.77614 5 5.5ZM4.5 4C4.22386 4 4 4.22386 4 4.5V8.5C4 8.77614 4.22386 9 4.5 9H7.5V10C7.5 10.2761 7.27614 10.5 7 10.5H3V9.5H2V12.5H3V11.5H7C7.82843 11.5 8.5 10.8284 8.5 10V9H11.5C11.7761 9 12 8.77614 12 8.5V4.5C12 4.22386 11.7761 4 11.5 4H4.5ZM13.5 5.25C13.5 4.97386 13.2761 4.75 13 4.75C12.7239 4.75 12.5 4.97386 12.5 5.25V7.75C12.5 8.02614 12.7239 8.25 13 8.25C13.2761 8.25 13.5 8.02614 13.5 7.75V5.25Z" fill="black"/>
</svg>
