<svg width="16" height="16" viewBox="0 0 16 16" fill="none" xmlns="http://www.w3.org/2000/svg">
<path fill-rule="evenodd" clip-rule="evenodd" d="M11 2.5C11.2761 2.5 11.5 2.72386 11.5 3V3.207C11.5 4.15584 10.8256 4.97077 9.89356 5.14831L9.07589 5.30406C8.74175 5.3677 8.5 5.65985 8.5 6H11C12.6569 6 14 7.34315 14 9V9.28817C14 10.7859 12.7859 12 11.2882 12C10.2034 12 9.22293 11.3535 8.79561 10.3564L8.69328 10.1176C8.66269 10.0463 8.59251 10 8.51486 10H7.48514C7.40749 10 7.33731 10.0463 7.30672 10.1176L7.20439 10.3564C6.77707 11.3535 5.79664 12 4.71183 12C3.21413 12 2 10.7859 2 9.28817V9C2 7.34315 3.34315 6 5 6H7.5C7.5 5.17971 8.08298 4.4752 8.88878 4.32172L9.70644 4.16597C10.1669 4.07827 10.5 3.67571 10.5 3.207V3C10.5 2.72386 10.7239 2.5 11 2.5ZM4.71875 7.5C4.99489 7.5 5.21875 7.72386 5.21875 8V8.5H5.71875C5.99489 8.5 6.21875 8.72386 6.21875 9C6.21875 9.27614 5.99489 9.5 5.71875 9.5H5.21875V10C5.21875 10.2761 4.99489 10.5 4.71875 10.5C4.44261 10.5 4.21875 10.2761 4.21875 10V9.5H3.71875C3.44261 9.5 3.21875 9.27614 3.21875 9C3.21875 8.72386 3.44261 8.5 3.71875 8.5H4.21875V8C4.21875 7.72386 4.44261 7.5 4.71875 7.5ZM12.3281 9C12.3281 9.55228 11.8804 10 11.3281 10C10.7758 10 10.3281 9.55228 10.3281 9C10.3281 8.44772 10.7758 8 11.3281 8C11.8804 8 12.3281 8.44772 12.3281 9Z" fill="black"/>
</svg>
