<svg width="16" height="16" viewBox="0 0 16 16" fill="none" xmlns="http://www.w3.org/2000/svg">
<path fill-rule="evenodd" clip-rule="evenodd" d="M12 9.56561C12 10.1179 12.4477 10.5656 13 10.5656C13.5522 10.5656 14 10.1179 14 9.56561V2C14 1.44772 13.5522 1 13 1C12.4477 1 12 1.44772 12 2V9.56561ZM11.0586 8.53091V2.99994C11.0586 2.44765 10.6108 1.99994 10.0586 1.99994H5.20456C4.27501 1.99994 3.46799 2.64038 3.25684 3.54563L2.57221 6.4808C2.27961 7.73524 3.23182 8.93511 4.51992 8.93511H5.88208L5.6443 9.45641C4.94417 10.9913 3.83145 13.5187 5.45689 13.9704C5.7118 14.0413 5.96274 13.8531 6.10559 13.6304L6.46486 13.0703C7.15283 11.9978 7.88085 10.9035 8.95088 10.2116C9.33004 9.96649 9.78611 9.73057 10.3819 9.4958C10.7818 9.33823 11.0586 8.9607 11.0586 8.53091Z" fill="black"/>
</svg>
