<svg width="16" height="16" viewBox="0 0 16 16" fill="none" xmlns="http://www.w3.org/2000/svg">
<path fill-rule="evenodd" clip-rule="evenodd" d="M3 2.5C2.72386 2.5 2.5 2.72386 2.5 3V13C2.5 13.2761 2.72386 13.5 3 13.5H13C13.2761 13.5 13.5 13.2761 13.5 13V3C13.5 2.72386 13.2761 2.5 13 2.5H3ZM7.5 9.5V6H10.5V8.08535C10.3436 8.03008 10.1753 8 10 8C9.17157 8 8.5 8.67157 8.5 9.5C8.5 10.3284 9.17157 11 10 11C10.8284 11 11.5 10.3284 11.5 9.5V5.6C11.5 5.26863 11.2314 5 10.9 5H7.1C6.76863 5 6.5 5.26863 6.5 5.6V8.08535C6.34361 8.03008 6.17532 8 6 8C5.17157 8 4.5 8.67157 4.5 9.5C4.5 10.3284 5.17157 11 6 11C6.82843 11 7.5 10.3284 7.5 9.5Z" fill="black"/>
</svg>
