<svg width="16" height="16" viewBox="0 0 16 16" fill="none" xmlns="http://www.w3.org/2000/svg">
<path fill-rule="evenodd" clip-rule="evenodd" d="M12.5 2C12.5 1.72386 12.2761 1.5 12 1.5C11.7239 1.5 11.5 1.72386 11.5 2V3.5H10C9.72386 3.5 9.5 3.72386 9.5 4C9.5 4.27614 9.72386 4.5 10 4.5H11.5V6C11.5 6.27614 11.7239 6.5 12 6.5C12.2761 6.5 12.5 6.27614 12.5 6V4.5H14C14.2761 4.5 14.5 4.27614 14.5 4C14.5 3.72386 14.2761 3.5 14 3.5H12.5V2ZM1 12.8571C1 11.2792 2.27919 10 3.85714 10H8.14286C9.72081 10 11 11.2792 11 12.8571C11 13.4883 10.4883 14 9.85714 14H2.14286C1.51168 14 1 13.4883 1 12.8571ZM6 4C4.89543 4 4 4.89543 4 6V7C4 8.10457 4.89543 9 6 9C7.10457 9 8 8.10457 8 7V6C8 4.89543 7.10457 4 6 4Z" fill="black"/>
</svg>
