<svg width="16" height="16" viewBox="0 0 16 16" fill="none" xmlns="http://www.w3.org/2000/svg">
<path fill-rule="evenodd" clip-rule="evenodd" d="M9.5 3.5C9.5 4.32843 8.82843 5 8 5C7.17157 5 6.5 4.32843 6.5 3.5C6.5 2.67157 7.17157 2 8 2C8.82843 2 9.5 2.67157 9.5 3.5ZM2 11.5C2 10.6716 2.67157 10 3.5 10H12.5C13.3284 10 14 10.6716 14 11.5V12.5C14 13.3284 13.3284 14 12.5 14H3.5C2.67157 14 2 13.3284 2 12.5V11.5ZM4 9.0001C4 7.38598 4.95606 5.99516 6.3328 5.36304C6.77516 5.75919 7.35945 6.0001 8 6.0001C8.64055 6.0001 9.22484 5.75919 9.6672 5.36304C11.0439 5.99516 12 7.38598 12 9.0001H4Z" fill="black"/>
</svg>
