<svg width="16" height="16" viewBox="0 0 16 16" fill="none" xmlns="http://www.w3.org/2000/svg">
<path d="M12.9948 2.98607C12.9979 3.00273 12.9995 3.01941 12.9995 3.03611V3.04847C12.9776 3.56909 11.4192 4.07345 9.49999 4.07345C7.56712 4.07345 6.00023 3.56188 6.00023 3.03733C6.00023 2.51279 7.56712 2.00122 9.49999 2.00122C11.3698 2.00122 12.8972 2.47996 12.9948 2.98607Z" fill="black"/>
<path d="M5.99976 4.41763V7.01016C6.85836 7.04576 7.65038 7.17313 8.27926 7.36479C8.64672 7.47679 9.01048 7.62625 9.30501 7.82822C9.55104 7.99694 10.0151 8.38819 10.0151 9.03611V10.4878C11.7036 10.4072 12.9995 9.94091 12.9995 9.46389V4.41799C12.7713 4.53598 12.5199 4.63116 12.2668 4.70847C11.5206 4.93643 10.5443 5.07345 9.49999 5.07345C8.45566 5.07345 7.47942 4.93643 6.73315 4.70847C6.47978 4.63108 6.22812 4.53578 5.99976 4.41763Z" fill="black"/>
<path d="M8.97492 8.88908C8.74979 8.47922 7.6112 8.10684 6.1564 8.01934C5.94371 8.00678 5.7242 8.00012 5.49976 8.00012C5.45589 8.00012 5.41222 8.00038 5.36875 8.00088C3.51613 8.02434 2.03235 8.51344 2.00052 9.01953C2.03989 9.51893 3.59147 10.0001 5.49976 10.0001C7.43275 10.0001 8.99976 9.50638 8.99976 9.00012C8.99976 8.96298 8.99132 8.9259 8.97492 8.88908Z" fill="black"/>
<path d="M2 12.4639V10.3637C2.23068 10.4801 2.48557 10.5735 2.74212 10.6492C3.48524 10.8682 4.45823 11.0001 5.49976 11.0001C6.54128 11.0001 7.51427 10.8682 8.2574 10.6492C8.51988 10.5718 8.78062 10.4758 9.01548 10.3556V12.4639C9.01548 12.9885 7.44501 13.5001 5.50774 13.5001C3.57047 13.5001 2 12.9885 2 12.4639Z" fill="black"/>
</svg>
