<svg width="16" height="16" viewBox="0 0 16 16" fill="none" xmlns="http://www.w3.org/2000/svg">
<path fill-rule="evenodd" clip-rule="evenodd" d="M10.9833 2.47309C11.2567 2.19972 11.6999 2.19972 11.9732 2.47309L13.5051 4.00494C13.7785 4.27831 13.7785 4.72152 13.5051 4.99489L12.2808 6.21915L9.75902 3.69735L10.9833 2.47309ZM9.05192 4.40446L11.5737 6.92626L5.20509 13.2949C5.07381 13.4262 4.89577 13.4999 4.71011 13.4999L2.77827 13.4999C2.61259 13.4999 2.47827 13.3656 2.47827 13.1999V11.2681C2.47827 11.0824 2.55202 10.9044 2.6833 10.7731L9.05192 4.40446ZM9 12.5C8.72386 12.5 8.5 12.7239 8.5 13C8.5 13.2761 8.72386 13.5 9 13.5H13C13.2761 13.5 13.5 13.2761 13.5 13C13.5 12.7239 13.2761 12.5 13 12.5H9Z" fill="black"/>
</svg>
