<svg width="16" height="16" viewBox="0 0 16 16" fill="none" xmlns="http://www.w3.org/2000/svg">
<path fill-rule="evenodd" clip-rule="evenodd" d="M6.38432 2.5C6.15779 2.5 5.95957 2.65229 5.9012 2.87117L4.13433 9.49693C4.06661 9.75087 4.25801 10 4.52082 10H11.4795C11.7423 10 11.9337 9.75087 11.866 9.49693L10.0992 2.87117C10.0408 2.65229 9.84257 2.5 9.61604 2.5H6.38432ZM8.50012 11C8.50012 10.7239 8.27626 10.5 8.00012 10.5C7.72398 10.5 7.50012 10.7239 7.50012 11V12.5H6.00012C5.72398 12.5 5.50012 12.7239 5.50012 13C5.50012 13.2761 5.72398 13.5 6.00012 13.5H10.0001C10.2763 13.5 10.5001 13.2761 10.5001 13C10.5001 12.7239 10.2763 12.5 10.0001 12.5H8.50012V11Z" fill="black"/>
</svg>
