<svg width="16" height="16" viewBox="0 0 16 16" fill="none" xmlns="http://www.w3.org/2000/svg">
<path fill-rule="evenodd" clip-rule="evenodd" d="M11.5 1.5C11.7761 1.5 12 1.72386 12 2V5.17071C13.1652 5.58254 14 6.69378 14 8C14 9.32039 13.147 10.4416 11.962 10.8425C11.831 11.4323 11.3817 11.9325 10.925 12.275C10.4774 12.6107 9.91925 12.8751 9.38502 12.966C9.21747 13.2835 8.88401 13.5 8.5 13.5H7.5C6.94772 13.5 6.5 13.0523 6.5 12.5C6.5 11.9477 6.94772 11.5 7.5 11.5H8.5C8.85125 11.5 9.1602 11.6811 9.33858 11.955C9.64867 11.8799 10.0071 11.7134 10.325 11.475C10.537 11.316 10.6974 11.1512 10.8086 10.994C9.75285 10.9275 8.84656 10.3146 8.3673 9.43915C8.27195 9.26496 8.16839 9.13365 8.07889 9.05689C8.03952 9.02312 8.0136 9.00848 8 9.00247C7.9864 9.00848 7.96048 9.02312 7.92111 9.05689C7.83161 9.13365 7.72805 9.26496 7.6327 9.43915C7.12472 10.3671 6.13699 11 5 11C3.34315 11 2 9.65685 2 8C2 6.34315 3.34315 5 5 5H11V2C11 1.72386 11.2239 1.5 11.5 1.5ZM8.00981 8.99918C8.01089 8.99895 8.01144 8.99874 8.01145 8.99865C8.01147 8.99851 8.01013 8.99868 8.00737 8.99958L8.00981 8.99918Z" fill="black"/>
</svg>
