<svg width="16" height="16" viewBox="0 0 16 16" fill="none" xmlns="http://www.w3.org/2000/svg">
<path fill-rule="evenodd" clip-rule="evenodd" d="M14.4248 8.57141C14.4314 8.45422 14.4347 8.33618 14.4347 8.21735C14.4347 4.78363 11.6511 2 8.21738 2C4.7836 2 2 4.78363 2 8.21735C2 11.6511 4.7836 14.4348 8.21738 14.4348C8.24982 14.4348 8.2822 14.4345 8.31451 14.434C8.38339 14.4329 8.452 14.4308 8.52029 14.4275C8.67722 13.1509 9.2189 11.5958 10.4073 10.4074C11.6997 9.11499 13.0818 8.65076 14.4248 8.57141ZM8.04257 6.20941C7.87009 5.99377 7.55542 5.9588 7.33981 6.13129C7.12418 6.30383 7.0892 6.61847 7.26172 6.83411C7.40381 7.01172 7.64417 7.42664 7.72318 7.94019C7.79932 8.43506 7.72717 9.01886 7.26172 9.60071C7.0892 9.81635 7.12418 10.131 7.33981 10.3035C7.55542 10.476 7.87009 10.441 8.04257 10.2254C8.70755 9.39417 8.82382 8.51788 8.71155 7.78809C8.60214 7.07697 8.27731 6.50281 8.04257 6.20941ZM5.67389 7.22821C5.45587 7.22821 5.27579 7.36078 5.15665 7.53943C5.03687 7.71912 4.96738 7.95923 4.96738 8.21735C4.96738 8.47546 5.03687 8.71552 5.15665 8.8952C5.27579 9.07391 5.45587 9.20648 5.67389 9.20648C5.89191 9.20648 6.07202 9.07391 6.19113 8.8952C6.31091 8.71552 6.3804 8.47546 6.3804 8.21735C6.3804 7.95923 6.31091 7.71912 6.19113 7.53943C6.07202 7.36078 5.89191 7.22821 5.67389 7.22821ZM10.3127 4.99158C10.0919 4.77087 9.73407 4.77087 9.51334 4.99158C9.2926 5.21234 9.2926 5.57019 9.51334 5.79095C9.57065 5.84827 9.74814 6.11328 9.91534 6.54797C10.0748 6.96265 10.1956 7.4577 10.1956 7.93475C10.1956 8.1944 10.4689 8.36328 10.7011 8.24719L11.0497 8.07294C11.219 7.98822 11.3284 7.81488 11.3144 7.62598C11.274 7.08331 11.1335 6.5661 10.9704 6.14215C10.7844 5.65839 10.538 5.21692 10.3127 4.99158Z" fill="black"/>
<path d="M11.1144 11.1145C12.0956 10.1334 13.1163 9.72125 14.1407 9.59973C12.9869 11.5589 11.383 13.0648 9.55911 14.2366C9.7399 13.1989 10.2108 12.0181 11.1144 11.1145Z" fill="black"/>
</svg>
