<svg width="16" height="16" viewBox="0 0 16 16" fill="none" xmlns="http://www.w3.org/2000/svg">
<path fill-rule="evenodd" clip-rule="evenodd" d="M3 8.73167V9.13587C3 9.4674 3.04174 9.7976 3.12425 10.1187C3.40161 11.1981 4.07455 12.1339 5.00959 12.7405L5.22222 12.8784L7.74792 14.3528C7.90367 14.4438 8.09633 14.4438 8.25208 14.3528L10.7778 12.8784L10.9904 12.7405C11.9255 12.1339 12.5984 11.1981 12.8758 10.1187C12.9579 9.79912 12.9996 9.47054 13 9.14061V7.61061C13 7.29768 12.6569 7.10594 12.3904 7.26994L7.99961 9.97194C7.99987 9.98126 8 9.99062 8 10C8 10.5523 7.55228 11 7 11C6.44772 11 6 10.5523 6 10C6 9.44772 6.44772 9 7 9C7.1722 9 7.33423 9.04352 7.4757 9.12017L11.8663 6.41829C12.2325 6.19292 12.64 6.15948 13 6.26828L13 2.5C13 2.22386 12.7762 2 12.5 2H3.5C3.22386 2 3 2.22386 3 2.5V4.99995V7.38934C3 7.70227 3.34313 7.89401 3.60964 7.73L8.00038 5.02801C8.00013 5.0187 8 5.00937 8 5C8 4.44772 8.44772 4 9 4C9.55228 4 10 4.44772 10 5C10 5.55228 9.55228 6 9 6C8.82778 6 8.66573 5.95647 8.52426 5.8798L4.13374 8.58166C3.76753 8.80702 3.35998 8.84047 3 8.73167Z" fill="black"/>
</svg>
