<svg width="16" height="16" viewBox="0 0 16 16" fill="none" xmlns="http://www.w3.org/2000/svg">
<path d="M5.02705 3.96803C5.01022 3.94977 5.0001 3.92524 5.00069 3.89861C5.05415 1.48643 7.02008 1 8.49958 1L8.76074 1.02612C10.0317 1.15321 10.9996 2.2227 10.9996 3.5C10.9996 3.7761 10.7758 3.99994 10.4997 4L9.86004 4.00002L9.55035 3.07094C9.46115 2.80333 9.2279 2.68481 9.04607 2.66105C8.86758 2.63772 8.64568 2.689 8.48832 2.86759C8.36878 3.00327 8.13749 3.15752 7.78971 3.30959C7.45184 3.45733 7.04669 3.58485 6.62433 3.68912C6.04888 3.83119 5.47 3.92329 5.02705 3.96803Z" fill="black"/>
<path d="M10.4997 5.00002V5.5C10.4997 6.88071 9.3804 8 7.99969 8C6.61898 8 5.49969 6.88071 5.49969 5.5V4.91883C5.92185 4.86182 6.39746 4.77515 6.86401 4.65997C7.32055 4.54726 7.78388 4.40356 8.19035 4.22583C8.39348 4.137 8.59461 4.03452 8.77781 3.91559L9.00253 4.58976C9.0842 4.83476 9.31348 5.00002 9.57174 5.00002H10.4997Z" fill="black"/>
<path d="M2.84856 12.3955C2.41738 10.6708 3.72186 9 5.49969 9H7.424L5.65124 12.1023C5.42267 12.5023 5.7115 13 6.17219 13H9.82755C10.2882 13 10.5771 12.5023 10.3485 12.1023L8.57574 9H10.4997C12.2775 9 13.582 10.6708 13.1508 12.3955L12.7316 14.0724C12.5953 14.6175 12.1055 15 11.5435 15H4.45589C3.89392 15 3.40407 14.6175 3.26778 14.0724L2.84856 12.3955Z" fill="black"/>
<path d="M6.86146 12L7.99987 10.0078L9.13828 12H6.86146Z" fill="black"/>
</svg>
