<svg width="16" height="16" viewBox="0 0 16 16" fill="none" xmlns="http://www.w3.org/2000/svg">
<path d="M2.5 3C2.5 2.72386 2.72386 2.5 3 2.5C3.01609 2.5 3.03201 2.50076 3.04771 2.50225C3.06494 2.50076 3.08238 2.5 3.1 2.5H5.68187C6.36309 2.5 7.02402 2.73184 7.55596 3.15739L7.80403 3.35586C8.15866 3.63956 8.59928 3.79412 9.05342 3.79412H11.9588C12.2902 3.79412 12.5588 4.06275 12.5588 4.39412V11.3118C12.5588 11.6431 12.2902 11.9118 11.9588 11.9118H9.05342C8.37221 11.9118 7.71128 11.6799 7.17934 11.2544L6.93126 11.0559C6.57664 10.7722 6.13601 10.6176 5.68187 10.6176H3.5V14C3.5 14.2761 3.27614 14.5 3 14.5C2.72386 14.5 2.5 14.2761 2.5 14V3Z" fill="black"/>
</svg>
