<svg width="16" height="16" viewBox="0 0 16 16" fill="none" xmlns="http://www.w3.org/2000/svg">
<path fill-rule="evenodd" clip-rule="evenodd" d="M7.35382 3.14645C7.44759 3.05268 7.57476 3 7.70737 3L12.5003 3C12.7764 3 13.0003 3.22386 13.0003 3.50001L13.0002 8.29303C13.0002 8.42563 12.9475 8.5528 12.8537 8.64657L7.85382 13.6465C7.65856 13.8418 7.34197 13.8418 7.14671 13.6466L2.35373 8.85367C2.15846 8.65841 2.15846 8.34182 2.35372 8.14656L7.35382 3.14645ZM7.64649 11.3537L4.64649 8.35367L5.3536 7.64656L8.3536 10.6466L7.64649 11.3537ZM10.5001 6.50011C11.0524 6.50011 11.5001 6.05239 11.5001 5.50011C11.5001 4.94783 11.0524 4.50011 10.5001 4.50011C9.94778 4.50011 9.50007 4.94783 9.50007 5.50011C9.50007 6.05239 9.94778 6.50011 10.5001 6.50011Z" fill="black"/>
</svg>
