<svg width="16" height="16" viewBox="0 0 16 16" fill="none" xmlns="http://www.w3.org/2000/svg">
<path fill-rule="evenodd" clip-rule="evenodd" d="M10.5489 2C10.5489 1.72386 10.7727 1.5 11.0489 1.5C12.7313 1.5 14.4678 2.94514 14.4678 4.91892C14.4678 5.19506 14.2439 5.41892 13.9678 5.41892C13.6916 5.41892 13.4678 5.19506 13.4678 4.91892C13.4678 3.54921 12.2323 2.5 11.0489 2.5C10.7727 2.5 10.5489 2.27614 10.5489 2ZM10.636 5.43688C10.0509 5.25005 9.62496 4.67744 9.62496 4.00003L3.45 4C2.92533 4 2.5 4.44806 2.5 5.00077V10.0046C2.5 10.5573 2.92533 11.0054 3.45 11.0054H11.05C11.5747 11.0054 12 10.5573 12 10.0046L12 6.50197C11.3569 6.50197 10.8134 6.05327 10.636 5.43688ZM2 12.3C1.72386 12.3 1.5 12.5239 1.5 12.8C1.5 13.0762 1.72386 13.3 2 13.3H12.5081C12.7843 13.3 13.0081 13.0762 13.0081 12.8C13.0081 12.5239 12.7843 12.3 12.5081 12.3H2ZM11.0486 3.54331C10.7725 3.54331 10.5486 3.76717 10.5486 4.04331C10.5486 4.31946 10.7725 4.54331 11.0486 4.54331C11.184 4.54331 11.2745 4.58558 11.3261 4.63326C11.3714 4.67518 11.4243 4.75517 11.4243 4.91899C11.4243 5.19513 11.6482 5.41899 11.9243 5.41899C12.2005 5.41899 12.4243 5.19513 12.4243 4.91899C12.4243 4.50964 12.2782 4.15179 12.0051 3.89916C11.7382 3.6523 11.3909 3.54331 11.0486 3.54331Z" fill="black"/>
</svg>
