<svg width="16" height="16" viewBox="0 0 16 16" fill="none" xmlns="http://www.w3.org/2000/svg">
<path fill-rule="evenodd" clip-rule="evenodd" d="M3.5 3V8.58758C3.5 8.8884 3.53722 9.18806 3.6108 9.47974C3.86118 10.4723 4.4735 11.3353 5.32756 11.8996L5.5 12.0135L7.74446 13.3481C7.90195 13.4417 8.09805 13.4417 8.25554 13.3481L10.5 12.0135L10.6724 11.8996C11.5265 11.3353 12.1388 10.4723 12.3892 9.47974C12.4628 9.18806 12.5 8.8884 12.5 8.58758V3C12.5 2.72386 12.2761 2.5 12 2.5H4C3.72386 2.5 3.5 2.72386 3.5 3ZM8 5H6V7C6 7.27614 5.77614 7.5 5.5 7.5C5.22386 7.5 5 7.27614 5 7V4.6C5 4.26863 5.26863 4 5.6 4H8C8.27614 4 8.5 4.22386 8.5 4.5C8.5 4.77614 8.27614 5 8 5Z" fill="black"/>
</svg>
