<svg width="16" height="16" viewBox="0 0 16 16" fill="none" xmlns="http://www.w3.org/2000/svg">
<path fill-rule="evenodd" clip-rule="evenodd" d="M2 2.5C1.72386 2.5 1.5 2.72386 1.5 3C1.5 3.27614 1.72386 3.5 2 3.5H3C3.27614 3.5 3.5 3.72386 3.5 4V9V11C3.5 11.8284 4.17157 12.5 5 12.5V13C5 13.2761 5.22386 13.5 5.5 13.5C5.77614 13.5 6 13.2761 6 13V12.5H11.5V13C11.5 13.2761 11.7239 13.5 12 13.5C12.2761 13.5 12.5 13.2761 12.5 13V12.5H13C13.2761 12.5 13.5 12.2761 13.5 12C13.5 11.7239 13.2761 11.5 13 11.5H12H5.5H5C4.72386 11.5 4.5 11.2761 4.5 11V9.5H11.5C12.6046 9.5 13.5 8.60457 13.5 7.5V4.1C13.5 3.76863 13.2314 3.5 12.9 3.5H6.1C5.76863 3.5 5.5 3.76863 5.5 4.1V8.5H4.5V4C4.5 3.17157 3.82843 2.5 3 2.5H2Z" fill="black"/>
</svg>
