<svg width="16" height="16" viewBox="0 0 16 16" fill="none" xmlns="http://www.w3.org/2000/svg">
<path fill-rule="evenodd" clip-rule="evenodd" d="M2 9.26923C2.20835 9.26923 2.42523 9.24181 2.65066 9.176C2.91059 9.78351 3.4551 10.5166 4.45527 10.8447C5.34143 11.1354 6.08069 11.1142 6.69282 10.9923C7.04477 10.9222 7.43376 10.8447 7.99989 10.8447C8.56602 10.8447 8.955 10.9222 9.30695 10.9923C9.91908 11.1142 10.6583 11.1354 11.5445 10.8447C12.5692 10.5086 13.1156 9.74733 13.3677 9.13156L13.408 9.1464C13.5867 9.2108 13.7982 9.26923 14 9.26923C14.2761 9.26923 14.5 9.04537 14.5 8.76923C14.5 8.49309 14.2761 8.26923 14 8.26923C13.9711 8.26923 13.8886 8.25666 13.7472 8.20567C13.6151 8.15807 13.4641 8.08896 13.3109 8.00785C12.9916 7.83873 12.7292 7.65303 12.6382 7.56256L11.7811 6.71049L11.7071 6.6368C11.1351 6.06658 10.5667 5.5 9.71428 5.5C9.16381 5.5 8.86245 5.66004 8.62009 5.79053L8.61273 5.7945C8.43048 5.89266 8.30261 5.96154 8 5.96154C7.67991 5.96154 7.49116 5.88162 7.27836 5.77977L7.22254 5.75275C7.00432 5.64662 6.70287 5.5 6.28571 5.5C5.87555 5.5 5.46778 5.71293 5.17883 5.89944C4.87008 6.09875 4.59677 6.33488 4.43321 6.49747L3.36178 7.56256C2.75377 8.16697 2.30851 8.26923 2 8.26923C1.72386 8.26923 1.5 8.49309 1.5 8.76923C1.5 9.04537 1.72386 9.26923 2 9.26923ZM5 9.49999C5.46461 9.49999 5.78434 9.34001 6.01789 9.22314L6.0313 9.21643C6.25815 9.10301 6.39664 9.03845 6.61538 9.03845C6.81016 9.03845 6.88138 9.08593 7.02788 9.1836L7.03034 9.18525C7.22832 9.31723 7.50356 9.49999 8 9.49999C8.49644 9.49999 8.77168 9.31723 8.96966 9.18525L8.97212 9.1836C9.11862 9.08593 9.18984 9.03845 9.38462 9.03845C9.57051 9.03845 9.64243 9.07976 9.81823 9.18072L9.8577 9.20334C10.1102 9.3476 10.4266 9.49999 11 9.49999C11.2761 9.49999 11.5 9.27613 11.5 8.99999C11.5 8.72385 11.2761 8.49999 11 8.49999C10.6504 8.49999 10.5052 8.42161 10.3538 8.3351L10.3098 8.30966C10.1145 8.19636 9.84225 8.03845 9.38462 8.03845C8.88817 8.03845 8.61294 8.22121 8.41496 8.3532L8.41249 8.35484C8.26599 8.45251 8.19478 8.49999 8 8.49999C7.80522 8.49999 7.73401 8.45251 7.58751 8.35484L7.58504 8.3532C7.38706 8.22121 7.11183 8.03845 6.61538 8.03845C6.15077 8.03845 5.83105 8.19844 5.5975 8.3153L5.58409 8.32201C5.35724 8.43543 5.21874 8.49999 5 8.49999C4.72386 8.49999 4.5 8.72385 4.5 8.99999C4.5 9.27613 4.72386 9.49999 5 9.49999Z" fill="black"/>
</svg>
