<svg width="16" height="16" viewBox="0 0 16 16" fill="none" xmlns="http://www.w3.org/2000/svg">
<path fill-rule="evenodd" clip-rule="evenodd" d="M6 2C5.72386 2 5.5 2.22386 5.5 2.5C5.5 2.77614 5.72386 3 6 3H10C10.2761 3 10.5 2.77614 10.5 2.5C10.5 2.22386 10.2761 2 10 2H6ZM4 4.5625C4 4.30089 4.24864 4 4.55533 4L11.4447 4C11.7514 4 12 4.30089 12 4.5625V12.4375C12 12.6991 11.7514 13 11.4447 13L4.55532 13C4.24862 13 4 12.6991 4 12.4375V4.5625ZM5.5 5.5C5.77614 5.5 6 5.72386 6 6C6 6.63638 6.20994 7.12784 6.54105 7.45895C6.87216 7.79006 7.36362 8 8 8C8.63638 8 9.12784 7.79006 9.45895 7.45895C9.79006 7.12784 10 6.63638 10 6C10 5.72386 10.2239 5.5 10.5 5.5C10.7761 5.5 11 5.72386 11 6C11 6.86362 10.7099 7.62216 10.1661 8.16605C9.62216 8.70994 8.86362 9 8 9C7.13638 9 6.37784 8.70994 5.83395 8.16605C5.29006 7.62216 5 6.86362 5 6C5 5.72386 5.22386 5.5 5.5 5.5Z" fill="black"/>
</svg>
