<svg width="16" height="16" viewBox="0 0 16 16" fill="none" xmlns="http://www.w3.org/2000/svg">
<path d="M5.32757 10.6328C4.22173 9.51501 2.70237 7.62619 2.4941 4.99365C2.44265 4.34326 2.70081 3.68877 3.19576 3.19912L3.82251 2.57909C4.33786 2.06926 5.12712 2.03148 5.58538 2.4947L6.83001 3.75281C7.28826 4.21603 7.24198 5.00484 6.72664 5.51467L5.98675 6.24663C5.86302 6.36903 5.78987 6.53203 5.83344 6.68605C5.96021 7.13416 6.39004 7.97411 7.19381 8.78659C7.99759 9.59907 8.83294 10.0378 9.27965 10.1694C9.4332 10.2146 9.59698 10.1433 9.7207 10.0209L10.4606 9.2889C10.9759 8.77907 11.7652 8.74129 12.2235 9.20451L13.4681 10.4626C13.9263 10.9258 13.8801 11.7147 13.3647 12.2245L12.738 12.8445C12.0962 13.4661 11.3339 13.5246 10.6841 13.4661C8.05401 13.2295 6.43342 11.7507 5.32757 10.6328Z" fill="black"/>
</svg>
