<svg width="16" height="16" viewBox="0 0 16 16" fill="none" xmlns="http://www.w3.org/2000/svg">
<path fill-rule="evenodd" clip-rule="evenodd" d="M3 3.5C3 3.22386 2.77614 3 2.5 3C2.22386 3 2 3.22386 2 3.5V13.4C2 13.7314 2.26863 14 2.6 14H13.5C13.7761 14 14 13.7761 14 13.5C14 13.2239 13.7761 13 13.5 13H3V3.5ZM3.81094 11.5336L5.33359 9.24962C5.41275 9.13087 5.58724 9.13087 5.66641 9.24962L6.32049 10.2307C6.40296 10.3545 6.58679 10.3481 6.66055 10.219L8.33944 7.28097C8.41321 7.15189 8.59703 7.14555 8.6795 7.26926L9.33359 8.25039C9.41275 8.36913 9.58724 8.36913 9.66641 8.25039L12.1336 4.54962C12.2434 4.38497 12.5 4.46268 12.5 4.66056V11.8C12.5 11.9105 12.4105 12 12.3 12H4.06055C3.82094 12 3.67803 11.733 3.81094 11.5336Z" fill="black"/>
</svg>
