<svg width="16" height="16" viewBox="0 0 16 16" fill="none" xmlns="http://www.w3.org/2000/svg">
<path fill-rule="evenodd" clip-rule="evenodd" d="M2.5 3C2.5 2.72386 2.72386 2.5 3 2.5H10V3.5H11V4.5H10V5.5H11V6.5H10V7.5H11V6.5H12V5.5H11V4.5H12V3.5H11V2.5H13C13.2761 2.5 13.5 2.72386 13.5 3V13C13.5 13.2761 13.2761 13.5 13 13.5H3C2.72386 13.5 2.5 13.2761 2.5 13V3ZM4.5 11.5V6.55674C4.80137 6.54728 5.07991 6.53546 5.33562 6.52128C5.59132 6.50709 5.85616 6.5 6.13014 6.5C6.50913 6.5 6.82648 6.53546 7.08219 6.60638C7.3379 6.67258 7.5411 6.77423 7.69178 6.91135C7.84703 7.04846 7.95662 7.22104 8.02055 7.42908C8.08904 7.63239 8.12329 7.87116 8.12329 8.14539C8.12329 8.3487 8.10959 8.53073 8.08219 8.69149C8.05479 8.85225 8.00913 8.99645 7.94521 9.12411C7.88584 9.25177 7.80594 9.36288 7.70548 9.45745C7.60502 9.55201 7.48173 9.63239 7.33562 9.69858L8.5 11.5H7.26027L6.21918 9.82624H5.62329V11.5H4.5ZM6.13014 8.91135C6.44977 8.91135 6.66667 8.85697 6.78082 8.74823C6.89954 8.63475 6.9589 8.45508 6.9589 8.20922C6.9589 8.09102 6.94521 7.98936 6.91781 7.90426C6.89498 7.81915 6.8516 7.75059 6.78767 7.69858C6.72374 7.64184 6.63699 7.60165 6.5274 7.57801C6.41781 7.54965 6.27854 7.53546 6.10959 7.53546C6.00913 7.53546 5.92237 7.53783 5.84932 7.54255C5.77626 7.54728 5.69406 7.55437 5.60274 7.56383V8.91135H6.13014Z" fill="black"/>
</svg>
