<svg width="16" height="16" viewBox="0 0 16 16" fill="none" xmlns="http://www.w3.org/2000/svg">
<path fill-rule="evenodd" clip-rule="evenodd" d="M1.99243 5.81066L3.70093 3.41876C3.88864 3.15597 4.19172 3 4.51467 3H8.00005H11.4854C11.8084 3 12.1115 3.15597 12.2992 3.41876L14.0077 5.81066C14.2918 6.20845 14.2467 6.75335 13.901 7.09901L8.3536 12.6464C8.15834 12.8417 7.84176 12.8417 7.6465 12.6464L2.09906 7.09901C1.7534 6.75335 1.7083 6.20845 1.99243 5.81066ZM3 6.5C3 6.22386 3.22386 6 3.5 6H4.49956C4.7757 6 5 6.22386 5 6.5C5 6.77614 4.77614 7 4.49999 7H3.5C3.22386 7 3 6.77614 3 6.5ZM6.5 6.5C6.5 6.22386 6.72386 6 7 6H12.4994C12.7756 6 13 6.22386 13 6.5C13 6.77614 12.7761 7 12.5 7L7 7C6.72386 7 6.5 6.77614 6.5 6.5Z" fill="black"/>
</svg>
