<svg width="16" height="16" viewBox="0 0 16 16" fill="none" xmlns="http://www.w3.org/2000/svg">
<path fill-rule="evenodd" clip-rule="evenodd" d="M5 8.5C4.72386 8.5 4.5 8.72386 4.5 9C4.5 9.27614 4.72386 9.5 5 9.5H6C6.27614 9.5 6.5 9.27614 6.5 9C6.5 8.72386 6.27614 8.5 6 8.5H5ZM10 8.5C9.72386 8.5 9.5 8.72386 9.5 9C9.5 9.27614 9.72386 9.5 10 9.5H11C11.2761 9.5 11.5 9.27614 11.5 9C11.5 8.72386 11.2761 8.5 11 8.5H10ZM5.38186 4.75068C5.40597 4.60602 5.53113 4.5 5.67778 4.5H10.3224C10.469 4.5 10.5942 4.60602 10.6183 4.75068L10.9932 7H5.00697L5.38186 4.75068ZM4 7C4.00003 6.97289 4.00228 6.94542 4.00688 6.9178L4.39547 4.58628C4.49994 3.95944 5.04229 3.5 5.67778 3.5H10.3224C10.9579 3.5 11.5002 3.95944 11.6047 4.58628L11.9933 6.9178C11.9979 6.94542 12.0001 6.97289 12.0002 7H12.2C12.6418 7 13 7.35817 13 7.8V10.2C13 10.625 12.6685 10.9727 12.25 10.9985V11.5C12.25 11.9142 11.9142 12.25 11.5 12.25C11.0858 12.25 10.75 11.9142 10.75 11.5V11H5.25V11.5C5.25 11.9142 4.91421 12.25 4.5 12.25C4.08579 12.25 3.75 11.9142 3.75 11.5V10.9985C3.33146 10.9727 3 10.625 3 10.2V7.8C3 7.35817 3.35817 7 3.8 7H4ZM2 5.5C1.72386 5.5 1.5 5.72386 1.5 6C1.5 6.27614 1.72386 6.5 2 6.5H3C3.27614 6.5 3.5 6.27614 3.5 6C3.5 5.72386 3.27614 5.5 3 5.5H2ZM12.5 6C12.5 5.72386 12.7239 5.5 13 5.5H14C14.2761 5.5 14.5 5.72386 14.5 6C14.5 6.27614 14.2761 6.5 14 6.5H13C12.7239 6.5 12.5 6.27614 12.5 6Z" fill="black"/>
</svg>
