<svg width="16" height="16" viewBox="0 0 16 16" fill="none" xmlns="http://www.w3.org/2000/svg">
<path fill-rule="evenodd" clip-rule="evenodd" d="M6.08012 3.41183L3.98868 6.28755H2C1.44772 6.28755 1 6.73527 1 7.28755V9.47171C1 10.024 1.44771 10.4717 2 10.4717H3.98868L6.08012 13.3474C6.26829 13.6062 6.56892 13.7593 6.88885 13.7593H7.67284C7.94898 13.7593 8.17284 13.5354 8.17284 13.2593V3.5C8.17284 3.22386 7.94898 3 7.67284 3H6.88885C6.56892 3 6.2683 3.15308 6.08012 3.41183ZM12.4108 3.8411C12.2151 3.6463 11.8985 3.64706 11.7037 3.84279C11.5089 4.03852 11.5097 4.3551 11.7054 4.5499C12.4969 5.3376 13.2651 6.49895 13.4551 7.82307C13.6408 9.11682 13.2859 10.6365 11.7054 12.2094C11.5097 12.4042 11.5089 12.7208 11.7037 12.9165C11.8985 13.1122 12.2151 13.113 12.4108 12.9182C14.1938 11.1438 14.6797 9.31614 14.445 7.68098C14.2146 6.07619 13.3011 4.72706 12.4108 3.8411ZM10.9165 6.53091C10.7208 6.33612 10.4042 6.33688 10.2094 6.53261C10.0146 6.72834 10.0153 7.04492 10.2111 7.23971C10.3767 7.40455 10.5599 7.80906 10.5902 8.30557C10.6199 8.79037 10.4961 9.23596 10.2111 9.51959C10.0153 9.71439 10.0146 10.031 10.2094 10.2267C10.4042 10.4224 10.7208 10.4232 10.9165 10.2284C11.4723 9.67519 11.6288 8.90539 11.5884 8.24452C11.5487 7.59537 11.3114 6.92396 10.9165 6.53091Z" fill="black"/>
</svg>
