<svg width="16" height="16" viewBox="0 0 16 16" fill="none" xmlns="http://www.w3.org/2000/svg">
<path fill-rule="evenodd" clip-rule="evenodd" d="M11 3V4.00037C11 4.55265 10.5523 5.00037 10 5.00037H6C5.44772 5.00037 5 4.55265 5 4.00037V3H4C3.44775 3 3 3.44769 3 4V8C3 8.03662 3.00098 8.07306 3.00293 8.10925C3.03931 11.3206 3.41333 12.3685 4.125 13.1646C4.72498 13.8358 5.625 14.0035 6.75 14.0035L9.25 14.0045C10.375 14.0045 11.275 13.8358 11.875 13.1646C12.5867 12.3685 12.9607 11.3206 12.9971 8.10925C12.999 8.07306 13 8.03662 13 8V4C13 3.44769 12.5522 3 12 3H11ZM5.50781 9C5.23167 9 5.00781 9.22386 5.00781 9.5C5.00781 9.77614 5.23167 10 5.50781 10H6.00781C6.28395 10 6.50781 9.77614 6.50781 9.5C6.50781 9.22386 6.28395 9 6.00781 9H5.50781ZM7.76562 9C7.48948 9 7.26562 9.22386 7.26562 9.5C7.26562 9.77614 7.48948 10 7.76562 10H8.26562C8.54177 10 8.76562 9.77614 8.76562 9.5C8.76562 9.22386 8.54177 9 8.26562 9H7.76562ZM9.5 9.5C9.5 9.22386 9.72386 9 10 9H10.5C10.7761 9 11 9.22386 11 9.5C11 9.77614 10.7761 10 10.5 10H10C9.72386 10 9.5 9.77614 9.5 9.5ZM5.50781 11.0291C5.23167 11.0291 5.00781 11.253 5.00781 11.5291C5.00781 11.8052 5.23167 12.0291 5.50781 12.0291H6.00781C6.28395 12.0291 6.50781 11.8052 6.50781 11.5291C6.50781 11.253 6.28395 11.0291 6.00781 11.0291H5.50781ZM7.26562 11.5291C7.26562 11.253 7.48948 11.0291 7.76562 11.0291H8.26562C8.54177 11.0291 8.76562 11.253 8.76562 11.5291C8.76562 11.8052 8.54177 12.0291 8.26562 12.0291H7.76562C7.48948 12.0291 7.26562 11.8052 7.26562 11.5291ZM10 11.0291C9.72386 11.0291 9.5 11.253 9.5 11.5291C9.5 11.8052 9.72386 12.0291 10 12.0291H10.5C10.7761 12.0291 11 11.8052 11 11.5291C11 11.253 10.7761 11.0291 10.5 11.0291H10ZM5 7.25013C5 6.83585 5.33584 6.5 5.75013 6.5H10.2498C10.6641 6.5 11 6.83586 11 7.25017C11 7.66448 10.6641 8.00035 10.2498 8.00034L5.75012 8.00027C5.33584 8.00026 5 7.66442 5 7.25013Z" fill="black"/>
<path d="M6 2H10V4.00037H6V2Z" fill="black"/>
</svg>
