<svg width="16" height="16" viewBox="0 0 16 16" fill="none" xmlns="http://www.w3.org/2000/svg">
<path fill-rule="evenodd" clip-rule="evenodd" d="M2.47746 3.03054C2 3.6877 2 4.62513 2 6.5V9.5C2 11.3749 2 12.3123 2.47746 12.9695C2.63166 13.1817 2.8183 13.3683 3.03054 13.5225C3.6877 14 4.62513 14 6.5 14H9.5C11.3749 14 12.3123 14 12.9695 13.5225C13.1817 13.3683 13.3683 13.1817 13.5225 12.9695C14 12.3123 14 11.3749 14 9.5V6.5C14 4.62513 14 3.6877 13.5225 3.03054C13.3683 2.8183 13.1817 2.63166 12.9695 2.47746C12.3123 2 11.3749 2 9.5 2H6.5C4.62513 2 3.6877 2 3.03054 2.47746C2.8183 2.63166 2.63166 2.8183 2.47746 3.03054ZM7 5.5V8H8.75C9.44036 8 10 7.44036 10 6.75C10 6.05964 9.44036 5.5 8.75 5.5H7ZM11 6.75C11 7.99264 9.99264 9 8.75 9H7V9.99982H8.5C8.77614 9.99982 9 10.2237 9 10.4998C9 10.776 8.77614 10.9998 8.5 10.9998H7V11.5C7 11.7761 6.77614 12 6.5 12C6.22386 12 6 11.7761 6 11.5V10.9998H5.5C5.22386 10.9998 5 10.776 5 10.4998C5 10.2237 5.22386 9.99982 5.5 9.99982H6V9H5.5C5.22386 9 5 8.77614 5 8.5C5 8.22386 5.22386 8 5.5 8H6V5.1C6 4.76863 6.26863 4.5 6.6 4.5H8.75C9.99264 4.5 11 5.50736 11 6.75Z" fill="black"/>
</svg>
