<svg width="16" height="16" viewBox="0 0 16 16" fill="none" xmlns="http://www.w3.org/2000/svg">
<path d="M9.69342 3.68326C9.5562 3.44363 9.2507 3.36061 9.01107 3.49783L8.52757 3.77469C8.28794 3.91191 8.20492 4.21741 8.34214 4.45705L8.60493 4.91596C8.72084 5.11838 8.57153 5.36985 8.33832 5.36497L7.86386 5.35506C7.58429 5.34921 7.35426 5.5738 7.35342 5.85343L7.35177 6.39719C7.35093 6.67557 7.57762 6.90104 7.856 6.89868L8.30401 6.89489C8.53816 6.89291 8.68421 7.14797 8.56399 7.34891L8.33397 7.73338C8.19104 7.97227 8.27075 8.2819 8.51127 8.42208L8.98107 8.69587C9.22267 8.83667 9.53279 8.75196 9.66925 8.50788L9.90084 8.09367C10.0147 7.89007 10.3071 7.88857 10.423 8.09099L10.6858 8.54991C10.823 8.78954 11.1285 8.87256 11.3682 8.73534L11.8517 8.45848C12.0913 8.32126 12.1743 8.01576 12.0371 7.77612L11.7736 7.31596C11.6578 7.11381 11.8066 6.86261 12.0395 6.86694L12.5225 6.87591C12.8016 6.8811 13.0309 6.6567 13.0318 6.37752L13.0334 5.83372C13.0343 5.55489 12.8069 5.32925 12.5281 5.33223L12.078 5.33705C11.8433 5.33956 11.6967 5.08365 11.8177 4.88247L12.0497 4.49678C12.1933 4.25783 12.1138 3.94752 11.8729 3.80712L11.4031 3.53331C11.1619 3.39273 10.8523 3.47692 10.7155 3.72029L10.4788 4.14135C10.3646 4.34442 10.0727 4.34557 9.95692 4.14342L9.69342 3.68326Z" fill="black"/>
<path fill-rule="evenodd" clip-rule="evenodd" d="M3 9.49999V4.50017C3 4.22403 2.77614 4.00017 2.5 4.00017C2.22386 4.00017 2 4.22403 2 4.50017V11.5002L2 11.5019C2.00092 12.8818 3.11985 14.0002 4.5 14.0002C5.5791 14.0002 6.49851 13.3165 6.8487 12.3587C6.87346 12.3345 6.89608 12.3074 6.91603 12.2775L8.66584 9.6528C8.36883 9.53107 8.05273 9.35014 7.8036 9.14338L6.83285 10.5995C6.47137 9.66385 5.56319 9.00017 4.5 9.00017C3.9372 9.00017 3.41783 9.18614 3 9.49999ZM4.5 13.0002C5.32843 13.0002 6 12.3286 6 11.5002C6 10.6717 5.32843 10.0002 4.5 10.0002C3.67157 10.0002 3 10.6717 3 11.5002C3 12.3286 3.67157 13.0002 4.5 13.0002Z" fill="black"/>
</svg>
