<svg width="16" height="16" viewBox="0 0 16 16" fill="none" xmlns="http://www.w3.org/2000/svg">
<path d="M8.5 5C8.5 3.61929 9.61929 2.5 11 2.5C12.3807 2.5 13.5 3.61929 13.5 5V6C13.5 6.27614 13.2761 6.5 13 6.5C12.7239 6.5 12.5 6.27614 12.5 6V5C12.5 4.17157 11.8284 3.5 11 3.5C10.1716 3.5 9.5 4.17157 9.5 5V11C9.5 11.2761 9.27614 11.5 9 11.5C8.72386 11.5 8.5 11.2761 8.5 11V8.5H6C5.72386 8.5 5.5 8.27614 5.5 8C5.5 7.72386 5.72386 7.5 6 7.5H8.5V5Z" fill="black"/>
<path d="M2 8C2 7.72386 2.22386 7.5 2.5 7.5H4V5C4 3.61929 5.11929 2.5 6.5 2.5C7.13369 2.5 7.71337 2.73642 8.15378 3.12513C8.36081 3.30786 8.38051 3.62383 8.19778 3.83087C8.01505 4.0379 7.69908 4.0576 7.49205 3.87487C7.22732 3.64122 6.88076 3.5 6.5 3.5C5.67157 3.5 5 4.17157 5 5V11C5 11.2761 4.77614 11.5 4.5 11.5C4.22386 11.5 4 11.2761 4 11V8.5H2.5C2.22386 8.5 2 8.27614 2 8Z" fill="black"/>
<path d="M2.60684 14.5C2.27547 14.5 2.00684 14.2314 2.00684 13.9V12.6178C2.00684 12.1917 2.45552 11.9148 2.83634 12.1059L3.91762 12.6485C4.25559 12.8181 4.65855 12.7933 4.97318 12.5835C5.58595 12.1751 6.37058 12.1263 7.02926 12.4556L7.29792 12.5899C7.73989 12.8109 8.26011 12.8109 8.70208 12.5899L8.84954 12.5162C9.57377 12.1541 10.4262 12.1541 11.1505 12.5162C11.6541 12.768 12.254 12.7313 12.7232 12.42L13.1392 12.1439C13.5106 11.8974 14.0068 12.1637 14.0068 12.6094V13.9C14.0068 14.2314 13.7382 14.5 13.4068 14.5H2.60684Z" fill="black"/>
<path d="M10 8C10 7.72386 10.2239 7.5 10.5 7.5H13.5C13.7761 7.5 14 7.72386 14 8C14 8.27614 13.7761 8.5 13.5 8.5H10.5C10.2239 8.5 10 8.27614 10 8Z" fill="black"/>
</svg>
