<svg width="16" height="16" viewBox="0 0 16 16" fill="none" xmlns="http://www.w3.org/2000/svg">
<path d="M8.7415 2.06221C8.98333 2.19552 9.07131 2.49963 8.938 2.74147C8.90173 2.80727 8.84526 2.89272 8.80677 2.95098C8.79268 2.97229 8.781 2.98996 8.77359 3.00171C8.73159 3.0683 8.69191 3.13974 8.65504 3.2383C8.57967 3.4398 8.50012 3.79781 8.50012 4.50009C8.50012 4.77623 8.27626 5.00009 8.00012 5.00009C7.72398 5.00009 7.50012 4.77623 7.50012 4.50009C7.50012 4.40168 7.50153 4.30786 7.50425 4.21833C7.47995 4.23691 7.45316 4.2531 7.4241 4.26639C6.90186 4.50526 6.29114 4.61349 5.65261 4.54828C4.47672 4.4282 3.51376 3.75134 3.08008 2.8559C2.98092 2.65115 3.07242 2.40938 3.27958 2.31463C3.80181 2.07576 4.41254 1.96754 5.05106 2.03274C6.16652 2.14665 7.09038 2.76159 7.55258 3.58885C7.59077 3.30244 7.64803 3.07613 7.71843 2.88794C7.78543 2.70882 7.86018 2.57541 7.92778 2.46823C7.96546 2.40849 7.98953 2.37279 8.00794 2.3455C8.02955 2.31345 8.04336 2.29297 8.06224 2.25872C8.19555 2.01688 8.49966 1.92891 8.7415 2.06221Z" fill="black"/>
<path fill-rule="evenodd" clip-rule="evenodd" d="M4.01638 12.8736C4.84324 13.9384 5.84783 14.0801 6.70046 13.886L6.73472 13.878C7.55158 13.6826 8.44819 13.6826 9.26505 13.878C10.1249 14.0838 11.1454 13.9527 11.9834 12.8736C14.1681 10.0601 14.5502 4.16187 9.15674 5.75256C9.04104 5.78668 8.92269 5.82425 8.80163 5.86537C8.28567 6.04063 7.71407 6.04063 7.19811 5.86537C1.43401 3.90741 1.78476 9.99972 4.01638 12.8736ZM3.49988 8.50012C3.49988 8.77626 3.72374 9.00012 3.99988 9.00012C4.27602 9.00012 4.49988 8.77626 4.49988 8.50012C4.49988 8.07719 4.60527 7.85184 4.72843 7.72868C4.85159 7.60552 5.07695 7.50012 5.49988 7.50012C5.77602 7.50012 5.99988 7.27626 5.99988 7.00012C5.99988 6.72398 5.77602 6.50012 5.49988 6.50012C4.92281 6.50012 4.39816 6.64473 4.02132 7.02157C3.64448 7.39841 3.49988 7.92305 3.49988 8.50012Z" fill="black"/>
</svg>
