<svg width="16" height="16" viewBox="0 0 16 16" fill="none" xmlns="http://www.w3.org/2000/svg">
<path fill-rule="evenodd" clip-rule="evenodd" d="M8.00049 4C10.2096 4 12.0005 5.79086 12.0005 8C12.0005 10.2091 10.2096 12 8.00049 12C5.79135 12 4.00049 10.2091 4.00049 8C4.00049 5.79086 5.79135 4 8.00049 4ZM9.82188 7.57598C10.1352 7.77182 10.1352 8.22815 9.82188 8.42398L7.26528 10.0219C6.93226 10.23 6.50028 9.99058 6.50028 9.59786V6.40211C6.50028 6.00939 6.93226 5.76997 7.26528 5.97811L9.82188 7.57598Z" fill="black"/>
<path d="M2.90039 7.9999C2.90039 9.09577 3.17478 10.1221 3.63774 10.9577C3.77158 11.1992 3.68426 11.5035 3.44272 11.6373C3.20117 11.7712 2.89687 11.6839 2.76304 11.4423C2.21505 10.4533 1.90039 9.25936 1.90039 7.9999C1.90039 6.74042 2.21505 5.54667 2.76304 4.55766C2.89687 4.31611 3.20117 4.2288 3.44272 4.36263C3.68426 4.49646 3.77158 4.80076 3.63774 5.04231C3.17477 5.87789 2.90039 6.90404 2.90039 7.9999Z" fill="black"/>
<path d="M13.1003 8.0001C13.1003 6.90423 12.826 5.87791 12.363 5.04234C12.2292 4.8008 12.3165 4.4965 12.558 4.36266C12.7996 4.22883 13.1039 4.31615 13.2377 4.55769C13.7857 5.54671 14.1003 6.74064 14.1003 8.0001C14.1003 9.25958 13.7857 10.4533 13.2377 11.4423C13.1039 11.6839 12.7996 11.7712 12.558 11.6374C12.3165 11.5035 12.2292 11.1992 12.363 10.9577C12.826 10.1221 13.1003 9.09596 13.1003 8.0001Z" fill="black"/>
</svg>
