<svg width="16" height="16" viewBox="0 0 16 16" fill="none" xmlns="http://www.w3.org/2000/svg">
<path fill-rule="evenodd" clip-rule="evenodd" d="M3.13043 5C3.13043 3.89543 4.02586 3 5.13043 3H10.8696C11.9741 3 12.8696 3.89543 12.8696 5V10.7391C12.8696 11.8437 11.9741 12.7391 10.8696 12.7391H5.13043C4.02586 12.7391 3.13043 11.8437 3.13043 10.7391V5ZM2.04833 4.56246C2.17986 4.80527 2.08967 5.10873 1.84686 5.24026L1.76183 5.28633C1.6005 5.37373 1.5 5.54248 1.5 5.72596V9.99062C1.5 10.18 1.607 10.3531 1.77639 10.4378L1.8323 10.4658C2.07929 10.5893 2.1794 10.8896 2.05591 11.1366C1.93241 11.3836 1.63208 11.4837 1.38509 11.3602L1.32918 11.3323C0.821004 11.0782 0.5 10.5588 0.5 9.99062V5.72596C0.5 5.17551 0.801499 4.66927 1.28549 4.40707L1.37053 4.361C1.61333 4.22946 1.91679 4.31966 2.04833 4.56246ZM14.183 5.30629C13.932 5.19125 13.8217 4.89449 13.9368 4.64345C14.0518 4.39241 14.3486 4.28216 14.5996 4.3972L14.6249 4.40879C15.1581 4.65314 15.5 5.18588 15.5 5.77243V9.99091C15.5 10.5591 15.179 11.0785 14.6708 11.3325L14.6149 11.3605C14.3679 11.484 14.0676 11.3839 13.9441 11.1369C13.8206 10.8899 13.9207 10.5896 14.1677 10.4661L14.2236 10.4381C14.393 10.3534 14.5 10.1803 14.5 9.99091V5.77243C14.5 5.57691 14.386 5.39933 14.2083 5.31788L14.183 5.30629Z" fill="black"/>
</svg>
