<svg width="16" height="16" viewBox="0 0 16 16" fill="none" xmlns="http://www.w3.org/2000/svg">
<path fill-rule="evenodd" clip-rule="evenodd" d="M12 1.5C12.2761 1.5 12.5 1.72386 12.5 2V11.5C12.5 11.7761 12.2761 12 12 12H11L11 4C11 3.44772 10.5523 3 10 3H5V2C5 1.72386 5.22386 1.5 5.5 1.5H12ZM2.5 4.5C2.5 4.22386 2.72386 4 3 4H9.5C9.77614 4 10 4.22386 10 4.5V13.5C10 13.7761 9.77614 14 9.5 14H3C2.72386 14 2.5 13.7761 2.5 13.5V4.5ZM8.5 7H4V6H8.5V7ZM4 9.5H8.5V8.5H4V9.5ZM8.5 12H4V11H8.5V12Z" fill="black"/>
</svg>
