<svg width="16" height="16" viewBox="0 0 16 16" fill="none" xmlns="http://www.w3.org/2000/svg">
<path fill-rule="evenodd" clip-rule="evenodd" d="M9.5 6.49989V2.6942C11.3191 3.23778 12.7527 4.67725 13.288 6.49989H9.5ZM9.21803 1.59346C8.84128 1.51656 8.5 1.80746 8.5 2.18052V6.89989C8.5 7.23125 8.76863 7.49989 9.1 7.49989H13.7994C14.1714 7.49989 14.462 7.16034 14.3869 6.78435C13.8665 4.17833 11.8201 2.12464 9.21803 1.59346ZM7.46569 2.32813C7.46569 2.15181 7.31404 2.01288 7.13956 2.03825C4.23267 2.46094 2 4.96355 2 7.98763C2 11.3081 4.69178 13.9999 8.01225 13.9999C11.0363 13.9999 13.5389 11.7672 13.9616 8.86032C13.987 8.68584 13.8481 8.53419 13.6718 8.53419H8.46569C7.9134 8.53419 7.46569 8.08648 7.46569 7.53419V2.32813Z" fill="black"/>
</svg>
