<svg width="16" height="16" viewBox="0 0 16 16" fill="none" xmlns="http://www.w3.org/2000/svg">
<path d="M4 5C4 3.61929 5.11929 2.5 6.5 2.5C7.88071 2.5 9 3.61929 9 5V5.5C9 6.88071 7.88071 8 6.5 8C5.11929 8 4 6.88071 4 5.5V5Z" fill="black"/>
<path d="M10.1396 6.0814C10.3866 5.88307 10.875 6.08727 10.875 6.40663V7.62708C10.875 8.17936 11.3227 8.62708 11.875 8.62708H12.125C12.6773 8.62708 13.125 8.17936 13.125 7.62708V6.3778C13.125 5.875 13.6278 5.8942 13.8604 6.0814C14.5547 6.639 15 7.50153 15 8.4698C15 9.68439 14.1387 10.7628 13.125 11.2512V14.5C13.125 14.7762 12.9011 15 12.625 15H11.375C11.0989 15 10.875 14.7762 10.875 14.5V11.2512C9.86133 10.7628 9 9.68439 9 8.4698C9 7.50153 9.44531 6.639 10.1396 6.0814Z" fill="black"/>
<path d="M4.5 9H8.03883C8.21504 10.1972 8.97025 11.2025 9.875 11.8232V14.5C9.875 14.6753 9.90508 14.8436 9.96035 15H3C1.89543 15 1 14.1046 1 13V12.5C1 10.567 2.567 9 4.5 9Z" fill="black"/>
</svg>
