<svg width="16" height="16" viewBox="0 0 16 16" fill="none" xmlns="http://www.w3.org/2000/svg">
<path d="M6 2C4.89543 2 4 2.89543 4 4V6H5.5V4.5C5.5 4.22386 5.72386 4 6 4C6.27614 4 6.5 4.22386 6.5 4.5V6H7.5V5.5C7.5 5.22386 7.72386 5 8 5C8.27614 5 8.5 5.22386 8.5 5.5V6H12V4.24993C12 3.83576 12.3358 3.5 12.7499 3.5C13.1641 3.5 13.4999 3.16421 13.4999 2.75003C13.4999 2.33582 13.1641 2 12.7499 2H6Z" fill="black"/>
<path d="M12 8.5V7H4V8.5C4 8.77614 4.22386 9 4.5 9H7V13C7 13.5523 7.44772 14 8 14C8.55228 14 9 13.5523 9 13V9H11.5C11.7761 9 12 8.77614 12 8.5Z" fill="black"/>
</svg>
