<svg width="16" height="16" viewBox="0 0 16 16" fill="none" xmlns="http://www.w3.org/2000/svg">
<path fill-rule="evenodd" clip-rule="evenodd" d="M3 5.84848C3 3.17074 5.17074 1 7.84848 1C10.5262 1 12.697 3.17074 12.697 5.84848V6.43009C11.2147 6.01143 9.88801 6.3906 9.24256 6.57508L9.22629 6.57973C8.96078 6.65559 8.80703 6.93233 8.88289 7.19785C8.95875 7.46337 9.2355 7.61712 9.50101 7.54125C10.1863 7.34545 11.3978 7.0079 12.697 7.48006V9.48485C12.697 12.1626 10.5262 14.3333 7.84848 14.3333C5.17074 14.3333 3 12.1626 3 9.48485V7.56063C3.0454 7.56061 3.09155 7.55435 3.13737 7.54126C3.78794 7.35538 4.91249 7.04166 6.13637 7.41424V10.6187C6.13637 10.8896 6.32132 11.1408 6.60516 11.2029C7.09756 11.3108 8.16702 11.4356 9.18188 11.1819C9.44978 11.1149 9.61266 10.8435 9.54568 10.5756C9.47871 10.3077 9.20724 10.1448 8.93934 10.2118C8.29773 10.3722 7.60072 10.3436 7.13637 10.2808V7.1282C7.13637 6.88258 6.98568 6.6582 6.75157 6.56869C5.19326 5.97289 3.74876 6.32967 3 6.54065V5.84848Z" fill="black"/>
</svg>
