<svg width="16" height="16" viewBox="0 0 16 16" fill="none" xmlns="http://www.w3.org/2000/svg">
<path fill-rule="evenodd" clip-rule="evenodd" d="M2 13.1818C1.44772 13.1818 1 12.7341 1 12.1818V4C1 3.44771 1.44772 3 2 3H14C14.5523 3 15 3.44771 15 4V12.1818C15 12.7341 14.5523 13.1818 14 13.1818H2ZM6.72727 7.04203L9.50222 10.927C9.66272 11.1517 9.975 11.2037 10.1997 11.0432C10.4244 10.8827 10.4765 10.5704 10.316 10.3457L7.21551 6.0051C6.97622 5.67009 6.47832 5.67009 6.23903 6.0051L3.13858 10.3457C2.97808 10.5704 3.03012 10.8827 3.25483 11.0432C3.47954 11.2037 3.79181 11.1517 3.95232 10.927L6.72727 7.04203ZM9.615 6.73197C9.83833 6.56955 10.151 6.61893 10.3135 6.84225L12.8589 10.3423C13.0213 10.5656 12.972 10.8783 12.7486 11.0407C12.5253 11.2031 12.2126 11.1538 12.0502 10.9304L9.50472 7.43042C9.3423 7.2071 9.39167 6.89439 9.615 6.73197ZM11.5 5.54542C11.5 5.01824 11.9274 4.59088 12.4545 4.59088C12.9817 4.59088 13.4091 5.01824 13.4091 5.54542C13.4091 6.0726 12.9817 6.49997 12.4545 6.49997C11.9274 6.49997 11.5 6.0726 11.5 5.54542Z" fill="black"/>
</svg>
