<svg width="16" height="16" viewBox="0 0 16 16" fill="none" xmlns="http://www.w3.org/2000/svg">
<path d="M4.49979 10H10.4998C10.7759 10 10.9998 9.77612 10.9998 9.5C10.9998 9.22388 10.7759 9 10.4998 9H7.99979V2C7.99979 1.85437 7.93753 1.72327 7.83817 1.63196C7.74906 1.55005 7.63041 1.5 7.49979 1.5C7.22367 1.5 6.99979 1.72388 6.99979 2V9H4.49979C4.22367 9 3.99979 9.22388 3.99979 9.5C3.99979 9.77612 4.22367 10 4.49979 10Z" fill="black"/>
<path d="M3.8992 11.355C3.5806 12.6011 3.74857 13.3854 3.88407 13.7529C3.94486 13.9177 4.08622 14 4.23563 14H12.5188C12.7857 13.9904 12.9998 13.7256 12.9998 13.4003C12.9998 13.1625 12.8853 12.9569 12.7195 12.8599L12.709 12.8508L12.6975 12.8435C11.7554 12.3231 11.3689 11.8088 11.1231 11.3055C11.084 11.2255 11.0271 11.1566 10.9585 11.1047C10.8716 11.0388 10.7659 11.0002 10.6526 11.0002L4.3682 11C4.1492 11 3.95365 11.1427 3.8992 11.355Z" fill="black"/>
</svg>
