<svg width="16" height="16" viewBox="0 0 16 16" fill="none" xmlns="http://www.w3.org/2000/svg">
<path fill-rule="evenodd" clip-rule="evenodd" d="M2 4.5C2 3.94772 2.44772 3.5 3 3.5H13C13.5523 3.5 14 3.94772 14 4.5V11.5C14 12.0523 13.5523 12.5 13 12.5H3C2.44772 12.5 2 12.0523 2 11.5V4.5ZM3.5 5.5C3.5 5.22386 3.72386 5 4 5H12C12.2761 5 12.5 5.22386 12.5 5.5C12.5 5.77614 12.2761 6 12 6H4C3.72386 6 3.5 5.77614 3.5 5.5ZM4 7C3.72386 7 3.5 7.22386 3.5 7.5C3.5 7.77614 3.72386 8 4 8H6.19237C7.00203 9.35003 8.99797 9.35003 9.80763 8H12C12.2761 8 12.5 7.77614 12.5 7.5C12.5 7.22386 12.2761 7 12 7H9.53554C9.31396 7 9.11371 7.13205 9.02643 7.3357C8.63967 8.23813 7.36033 8.23813 6.97357 7.3357C6.88629 7.13205 6.68604 7 6.46446 7H4Z" fill="black"/>
</svg>
