<svg width="16" height="16" viewBox="0 0 16 16" fill="none" xmlns="http://www.w3.org/2000/svg">
<path d="M4.83257 6.25967L4.80064 6.34694C4.49002 7.19581 5.19273 8.07089 6.06533 7.92185C6.61935 7.82722 7.02541 7.33598 7.02541 6.76038V6.00998C7.02541 5.45836 6.58906 5.01119 6.05081 5.01119H5.53579C5.43237 5.01119 5.36165 4.90414 5.40006 4.80573L5.65723 4.14682C5.75323 3.90087 5.94063 3.70407 6.17821 3.59973L7.30154 3.10635C7.42012 3.05427 7.55775 3.10594 7.61544 3.22419L7.94855 3.90695C7.98239 3.97629 8 4.05276 8 4.13029C8 4.05276 8.01761 3.97629 8.05145 3.90695L8.38456 3.22419C8.44225 3.10594 8.57989 3.05427 8.69846 3.10635L9.82179 3.59973C10.0594 3.70407 10.2468 3.90087 10.3428 4.14682L10.5999 4.80573C10.6384 4.90414 10.5676 5.01119 10.4642 5.01119H9.94919C9.41094 5.01119 8.9746 5.45836 8.9746 6.00998V6.76038C8.9746 7.33598 9.38065 7.82722 9.93467 7.92185C10.8073 8.07089 11.51 7.19581 11.1994 6.34694L11.1674 6.25967L13.6469 2.10172C13.733 1.95733 13.9412 1.96894 14.0115 2.12205L14.1753 2.47875C15.2086 4.72903 15.2737 7.32027 14.3549 9.6221C13.9465 10.645 12.7852 11.1085 11.8094 10.6379L10.6717 10.0892C10.0514 9.79006 9.32055 10.1576 9.17185 10.8433C9.05811 11.3679 9.33206 11.8996 9.81885 12.0991L11.0376 12.5987C11.2075 12.6684 11.2446 12.898 11.1056 13.0201L11.0005 13.1125C10.1649 13.8465 9.10058 14.25 8 14.25C6.89942 14.25 5.83514 13.8465 4.99952 13.1125L4.89436 13.0201C4.75538 12.898 4.79248 12.6684 4.96244 12.5987L6.18115 12.0991C6.66794 11.8996 6.94189 11.3679 6.82815 10.8433C6.67945 10.1576 5.94858 9.79006 5.32833 10.0892L4.19062 10.6379C3.21484 11.1085 2.05346 10.645 1.64513 9.6221C0.726282 7.32027 0.791433 4.72903 1.82474 2.47875L1.98853 2.12205C2.05884 1.96894 2.26705 1.95733 2.35315 2.10172L4.83257 6.25967Z" fill="black"/>
</svg>
