<svg width="16" height="16" viewBox="0 0 16 16" fill="none" xmlns="http://www.w3.org/2000/svg">
<path fill-rule="evenodd" clip-rule="evenodd" d="M8.5 2C8.5 1.72386 8.72386 1.5 9 1.5H10C10.2761 1.5 10.5 1.72386 10.5 2C10.5 2.27614 10.2761 2.5 10 2.5H9C8.72386 2.5 8.5 2.27614 8.5 2ZM7.96427 3.31432C8.06682 3.57071 7.94211 3.86169 7.68572 3.96425L6.61282 4.39341C6.09117 4.60207 5.84375 5.1994 6.06507 5.71581L6.82972 7.5H7.69104L6.6086 9.66488C6.43694 10.0082 6.62735 10.4222 6.99974 10.5153L8.2741 10.8339L7.55285 12.2764C7.42936 12.5234 7.52947 12.8237 7.77646 12.9472C8.02345 13.0707 8.32378 12.9706 8.44728 12.7236L9.39153 10.8351C9.56319 10.4918 9.37278 10.0778 9.00039 9.98468L7.72603 9.66609L8.80908 7.5H9.19102L9.96061 5.96082C10.1861 5.50974 10.0405 4.96131 9.62088 4.68156L9.22266 4.41608C8.9929 4.2629 8.93081 3.95247 9.08399 3.7227C9.23716 3.49294 9.5476 3.43085 9.77736 3.58403L10.1756 3.84951C11.0148 4.40901 11.3061 5.50588 10.855 6.40804L10.3091 7.5H11.7C12.1418 7.5 12.5 7.85817 12.5 8.3V13.7C12.5 14.1418 12.1418 14.5 11.7 14.5H4.3C3.85817 14.5 3.5 14.1418 3.5 13.7V8.3C3.5 7.85817 3.85817 7.5 4.3 7.5H5.74175L5.14592 6.10973C4.70329 5.07692 5.19813 3.88225 6.24143 3.46493L7.31433 3.03577C7.57072 2.93322 7.86171 3.05792 7.96427 3.31432Z" fill="black"/>
</svg>
