<svg width="16" height="16" viewBox="0 0 16 16" fill="none" xmlns="http://www.w3.org/2000/svg">
<path fill-rule="evenodd" clip-rule="evenodd" d="M12.7 3H10.8955C9.6958 3 8.55942 3.53851 7.79971 4.46705L4.67194 8.28987C4.57434 8.40916 4.58301 8.58299 4.692 8.69198L7.30804 11.308C7.41703 11.417 7.59086 11.4257 7.71015 11.3281L11.533 8.20031C12.4615 7.4406 13 6.30422 13 5.10448V3.3C13 3.13431 12.8657 3 12.7 3ZM11 6C11 6.55228 10.5523 7 10 7C9.44772 7 9 6.55228 9 6C9 5.44772 9.44772 5 10 5C10.5523 5 11 5.44772 11 6ZM4.85355 10.8536C5.04882 10.6583 5.04882 10.3417 4.85355 10.1464C4.65829 9.95118 4.34171 9.95118 4.14645 10.1464L2.64645 11.6464C2.45118 11.8417 2.45118 12.1583 2.64645 12.3536C2.84171 12.5488 3.15829 12.5488 3.35355 12.3536L4.85355 10.8536ZM5.85355 12.3536C6.04882 12.1583 6.04882 11.8417 5.85355 11.6464C5.65829 11.4512 5.34171 11.4512 5.14645 11.6464L4.64645 12.1464C4.45118 12.3417 4.45118 12.6583 4.64645 12.8536C4.84171 13.0488 5.15829 13.0488 5.35355 12.8536L5.85355 12.3536ZM3.10557 6.78885L3.8618 5.27639C3.9465 5.107 4.11963 5 4.30902 5H6L3.36 8.52C3.24468 8.67376 3 8.5922 3 8.4V7.23607C3 7.08082 3.03615 6.92771 3.10557 6.78885ZM7.59999 13H8.76392C8.91916 13 9.07228 12.9639 9.21113 12.8944L10.7236 12.1382C10.893 12.0535 11 11.8804 11 11.691V10L7.47999 12.64C7.32622 12.7553 7.40778 13 7.59999 13Z" fill="black"/>
</svg>
