<svg width="16" height="16" viewBox="0 0 16 16" fill="none" xmlns="http://www.w3.org/2000/svg">
<path fill-rule="evenodd" clip-rule="evenodd" d="M4.5 3V4.975H5.5125C6.05788 4.975 6.5 4.53288 6.5 3.9875C6.5 3.44212 6.05788 3 5.5125 3H4.5ZM7.5 3.9875C7.5 5.08517 6.61017 5.975 5.5125 5.975H4.5V6.47499H5.5C5.77614 6.47499 6 6.69885 6 6.97499C6 7.25113 5.77614 7.47499 5.5 7.47499H4.5V8C4.5 8.27614 4.27614 8.5 4 8.5C3.72386 8.5 3.5 8.27614 3.5 8V7.47499H3C2.72386 7.47499 2.5 7.25113 2.5 6.97499C2.5 6.69885 2.72386 6.47499 3 6.47499H3.5V5.975H3C2.72386 5.975 2.5 5.75114 2.5 5.475C2.5 5.19886 2.72386 4.975 3 4.975H3.5V2.55882C3.5 2.2502 3.75019 2 4.05882 2H5.5125C6.61017 2 7.5 2.88983 7.5 3.9875ZM11.4032 4.29569C11.5665 4.073 11.5184 3.7601 11.2957 3.5968C11.073 3.4335 10.7601 3.48164 10.5968 3.70432L3.99689 12.7042C3.83359 12.9269 3.88172 13.2398 4.10441 13.4031C4.32709 13.5664 4.63999 13.5183 4.80329 13.2956L11.4032 4.29569ZM12.2999 8.09984C12.2999 7.8237 12.076 7.59984 11.7999 7.59984C11.5238 7.59984 11.2999 7.8237 11.2999 8.09984V8.49982H11.05C10.194 8.49982 9.5 9.19377 9.5 10.0498C9.5 10.9058 10.194 11.5998 11.05 11.5998H12.5501C12.8539 11.5998 13.1001 11.846 13.1001 12.1498C13.1001 12.4535 12.8539 12.6998 12.5501 12.6998H10.6C10.3239 12.6998 10.1 12.9236 10.1 13.1998C10.1 13.4759 10.3239 13.6998 10.6 13.6998H11.2999V14.0998C11.2999 14.376 11.5238 14.5998 11.7999 14.5998C12.076 14.5998 12.2999 14.376 12.2999 14.0998V13.6998H12.5501C13.4061 13.6998 14.1001 13.0058 14.1001 12.1498C14.1001 11.2937 13.4061 10.5998 12.5501 10.5998H11.05C10.7462 10.5998 10.5 10.3536 10.5 10.0498C10.5 9.74606 10.7462 9.49982 11.05 9.49982H13C13.2761 9.49982 13.5 9.27596 13.5 8.99982C13.5 8.72367 13.2761 8.49982 13 8.49982H12.2999V8.09984Z" fill="black"/>
</svg>
