<svg width="16" height="16" viewBox="0 0 16 16" fill="none" xmlns="http://www.w3.org/2000/svg">
<path fill-rule="evenodd" clip-rule="evenodd" d="M10.6074 2.30167C10.5279 2.11772 10.3463 1.999 10.1459 2.00001C9.94552 2.00101 9.7651 2.12155 9.68746 2.30628L5.695 11.8063C5.58802 12.0609 5.70766 12.354 5.96223 12.4609C6.21681 12.5679 6.50991 12.4483 6.6169 12.1937L7.61158 9.82688H12.7691L12.7698 9.82688L13.7945 12.1983C13.904 12.4518 14.1983 12.5685 14.4518 12.459C14.7053 12.3494 14.822 12.0552 14.7125 11.8017L10.6074 2.30167ZM12.3376 8.82688L10.1548 3.77532L8.03184 8.82688H12.3376ZM3.59892 2.00001C3.7993 1.999 3.98092 2.11772 4.06041 2.30167L6.22097 7.30167C6.3305 7.55516 6.2138 7.84945 5.96031 7.95898C5.70683 8.06852 5.41254 7.95182 5.303 7.69833L4.82541 6.59308H2.42363L1.96108 7.69372C1.85409 7.94829 1.56099 8.06794 1.30641 7.96095C1.05184 7.85396 0.932194 7.56086 1.03918 7.30628L3.14047 2.30628C3.21811 2.12155 3.39854 2.00101 3.59892 2.00001ZM3.60782 3.77532L2.84389 5.59308H4.3933L3.60782 3.77532Z" fill="black"/>
</svg>
