<svg width="16" height="16" viewBox="0 0 16 16" fill="none" xmlns="http://www.w3.org/2000/svg">
<path fill-rule="evenodd" clip-rule="evenodd" d="M12.0406 2.27854L5.7686 8.5617L5.3534 8.14651C5.15814 7.95125 4.84156 7.95125 4.6463 8.14651C4.45103 8.34177 4.45103 8.65836 4.6463 8.85362L8.1463 12.3536C8.34156 12.5489 8.65814 12.5489 8.8534 12.3536C9.04866 12.1584 9.04866 11.8418 8.8534 11.6465L8.36595 11.1591L14.6172 4.85149C14.6326 4.83597 14.6424 4.81584 14.6453 4.79417L14.9995 2.1082C15.0079 2.04464 14.9551 1.98972 14.8913 1.99554L12.1023 2.2496C12.079 2.25172 12.0571 2.26197 12.0406 2.27854ZM6.53891 12.5235L4.52329 10.5079L2.69133 12.3398C2.30081 12.7304 2.30081 13.3635 2.69133 13.754L3.29274 14.3555C3.68327 14.746 4.31643 14.746 4.70696 14.3555L6.53891 12.5235Z" fill="black"/>
</svg>
