<svg width="16" height="16" viewBox="0 0 16 16" fill="none" xmlns="http://www.w3.org/2000/svg">
<path fill-rule="evenodd" clip-rule="evenodd" d="M10.7891 10.0056C13.6178 7.06447 13.52 4.28908 11.6932 2.45206C10.9755 1.73035 10.022 1.26588 9.01955 1.0898C5.10878 0.402882 2.67846 3.79102 2.90935 6.67188L2.25348 8.42088C2.1309 8.74775 2.37254 9.09644 2.72164 9.09644H3.51549V10.521C3.51549 11.0733 3.9632 11.521 4.51549 11.521H5.94003L6.77914 13.8285C6.97971 14.3801 7.60996 14.6411 8.14182 14.393L10.8907 13.1101C11.351 12.8953 11.5771 12.3696 11.4165 11.8877L10.7891 10.0056ZM7.81895 4.53003C7.38749 4.53003 7.03772 4.8798 7.03772 5.31126V5.35941C7.03772 5.77362 6.70193 6.10941 6.28772 6.10941C5.87351 6.10941 5.53772 5.77362 5.53772 5.35941V5.31126C5.53772 4.05137 6.55906 3.03003 7.81895 3.03003C9.07884 3.03003 10.1002 4.05137 10.1002 5.31126V5.42014C10.1002 6.22489 9.6952 6.97562 9.02267 7.41757L8.61364 7.68636C8.58575 7.70469 8.56895 7.73583 8.56895 7.76921V8.26566C8.56895 8.67987 8.23316 9.01566 7.81895 9.01566C7.40474 9.01566 7.06895 8.67987 7.06895 8.26566V7.76921C7.06895 7.23078 7.33991 6.72849 7.78988 6.4328L8.1989 6.16401C8.44936 5.99942 8.60018 5.71984 8.60018 5.42014V5.31126C8.60018 4.8798 8.25041 4.53003 7.81895 4.53003ZM8.56897 10.7188C8.56897 10.3045 8.23318 9.96875 7.81897 9.96875C7.40476 9.96875 7.06897 10.3045 7.06897 10.7188V11.3062C7.06897 11.7205 7.40476 12.0562 7.81897 12.0562C8.23318 12.0562 8.56897 11.7205 8.56897 11.3062V10.7188Z" fill="black"/>
</svg>
