<svg width="16" height="16" viewBox="0 0 16 16" fill="none" xmlns="http://www.w3.org/2000/svg">
<path fill-rule="evenodd" clip-rule="evenodd" d="M8.5 2C8.5 1.72386 8.27614 1.5 8 1.5C7.72386 1.5 7.5 1.72386 7.5 2V3C7.5 3.27614 7.72386 3.5 8 3.5C8.27614 3.5 8.5 3.27614 8.5 3V2ZM4.5 2.5C4.77614 2.5 5 2.72386 5 3V4C5 4.27614 4.77614 4.5 4.5 4.5C4.22386 4.5 4 4.27614 4 4V3C4 2.72386 4.22386 2.5 4.5 2.5ZM13 9.5C13 12.2614 10.7614 14.5 8 14.5C5.23858 14.5 3 12.2614 3 9.5C3 6.73858 5.23858 4.5 8 4.5C10.7614 4.5 13 6.73858 13 9.5ZM11.5 2.5C11.7761 2.5 12 2.72386 12 3V4C12 4.27614 11.7761 4.5 11.5 4.5C11.2239 4.5 11 4.27614 11 4V3C11 2.72386 11.2239 2.5 11.5 2.5ZM7.5 7.5V9.5H9C9.55228 9.5 10 9.05228 10 8.5C10 7.94772 9.55228 7.5 9 7.5H7.5ZM11 8.5C11 9.60457 10.1046 10.5 9 10.5H7.5V11H8.5C8.77614 11 9 11.2239 9 11.5C9 11.7761 8.77614 12 8.5 12H7.5V12.5C7.5 12.7761 7.27614 13 7 13C6.72386 13 6.5 12.7761 6.5 12.5V12H6C5.72386 12 5.5 11.7761 5.5 11.5C5.5 11.2239 5.72386 11 6 11H6.5V10.5H6C5.72386 10.5 5.5 10.2761 5.5 10C5.5 9.72386 5.72386 9.5 6 9.5H6.5V7.1C6.5 6.76863 6.76863 6.5 7.1 6.5H9C10.1046 6.5 11 7.39543 11 8.5Z" fill="black"/>
</svg>
