<svg width="16" height="16" viewBox="0 0 16 16" fill="none" xmlns="http://www.w3.org/2000/svg">
<path d="M5.1384 3H10.8614C10.952 3 11.041 3.02463 11.1187 3.07125L14.2972 4.97838C14.7755 5.26538 14.5721 6 14.0142 6H1.80506C1.29795 6 1.11297 5.33216 1.54782 5.07125L4.88115 3.07125C4.95886 3.02463 5.04778 3 5.1384 3Z" fill="black"/>
<path fill-rule="evenodd" clip-rule="evenodd" d="M10 7H9.5V8C9.5 8.27614 9.27614 8.5 9 8.5C8.72386 8.5 8.5 8.27614 8.5 8V7H7.5V8C7.5 8.27614 7.27614 8.5 7 8.5C6.72386 8.5 6.5 8.27614 6.5 8V7H6V8C6 8.27614 5.77614 8.5 5.5 8.5C5.22386 8.5 5 8.27614 5 8V7H3.5C3.22386 7 3 7.22386 3 7.5V13.5C3 13.7761 3.22386 14 3.5 14H5V12.5C5 11.9477 5.44772 11.5 6 11.5C6.55229 11.5 7 11.9477 7 12.5V14H9V12.5C9 11.9477 9.44772 11.5 10 11.5C10.5523 11.5 11 11.9477 11 12.5V14H12.5C12.7761 14 13 13.7761 13 13.5V7.5C13 7.22386 12.7761 7 12.5 7H11V8C11 8.27614 10.7761 8.5 10.5 8.5C10.2239 8.5 10 8.27614 10 8V7ZM4 10C4 9.72386 4.22386 9.5 4.5 9.5H11.5C11.7761 9.5 12 9.72386 12 10C12 10.2761 11.7761 10.5 11.5 10.5H4.5C4.22386 10.5 4 10.2761 4 10Z" fill="black"/>
</svg>
