<svg width="16" height="16" viewBox="0 0 16 16" fill="none" xmlns="http://www.w3.org/2000/svg">
<path d="M4.5 3.5C4.5 4.29651 4.76861 4.8299 5.04513 5.14792C5.13755 4.32532 5.36474 3.71935 5.65939 3.25321C5.86862 2.92221 6.20897 2.82279 6.49013 2.8305C6.75873 2.83788 7.01726 2.93771 7.21597 3.06344C7.35906 3.15398 7.56131 3.22538 7.88125 3.29443C8.0971 3.34102 8.33564 3.38084 8.61884 3.42811C8.76222 3.45205 8.91708 3.4779 9.0862 3.5075C9.8288 3.63747 10.3268 4.14531 10.6176 4.63734C10.716 4.80384 10.7949 4.97513 10.8553 5.14138C12.254 3.47995 11.0511 1.19422 9 1C7.77984 0.884463 7.27952 1.226 7.0364 1.46338C7.01315 1.48609 6.98095 1.49686 6.9487 1.49277C5.8162 1.3493 4.5 2.23786 4.5 3.5Z" fill="black"/>
<path d="M10 6V5.8167C9.99417 5.76986 9.98339 5.71044 9.96459 5.63941C9.92424 5.48693 9.85517 5.31281 9.75664 5.14606C9.55604 4.80657 9.27133 4.5551 8.9138 4.49252C8.76725 4.46688 8.62393 4.44293 8.48538 4.41977C8.18645 4.36982 7.90927 4.32351 7.67028 4.27193C7.31521 4.1953 6.97483 4.09422 6.68128 3.90849C6.64315 3.88436 6.60077 3.86403 6.55922 3.84999C6.52599 3.83877 6.49834 3.83326 6.47774 3.83114C6.22216 4.25473 6 4.90938 6 6.00001C6 7.10457 6.89543 8 8 8C9.10457 8 10 7.10457 10 6Z" fill="black"/>
<path fill-rule="evenodd" clip-rule="evenodd" d="M7.00276 9.41026C7.08443 9.16526 7.31371 9 7.57197 9H8.42782C8.68607 9 8.91536 9.16526 8.99703 9.41026L9.47516 10.8447L10.2142 9.51432C10.3906 9.19686 10.7286 8.98654 11.0848 9.05694C12.4617 9.32901 13.5 10.5432 13.5 12V14C13.5 14.5523 13.0523 15 12.5 15H3.5C2.94771 15 2.5 14.5523 2.5 14V12C2.5 10.5432 3.53827 9.32901 4.91517 9.05694C5.27145 8.98654 5.60938 9.19686 5.78575 9.51432L6.5247 10.8444L7.00276 9.41026ZM7.18351 12.0303L7.91258 13.3426C7.95069 13.4112 8.04931 13.4112 8.08742 13.3426L8.81635 12.0305L8.13951 10H7.86027L7.18351 12.0303Z" fill="black"/>
</svg>
