<svg width="16" height="16" viewBox="0 0 16 16" fill="none" xmlns="http://www.w3.org/2000/svg">
<path fill-rule="evenodd" clip-rule="evenodd" d="M4 6.15212V6C4 3.79086 5.79086 2 8 2H8.1472C10.275 2 12 3.72496 12 5.8528V6.43465C12 6.96057 11.8996 7.48165 11.7043 7.96994C11.4918 8.50137 11.2246 9.00928 10.9071 9.48551L10.6619 9.85324C10.3306 10.3502 10.1538 10.9341 10.1538 11.5314C10.1538 12.7248 9.18636 13.6923 7.99291 13.6923H7.88071C6.72243 13.6923 5.74938 12.8214 5.62147 11.6702L5.60183 11.4934C5.55976 11.1147 5.46923 10.7431 5.33247 10.3875L4.27676 7.64265C4.09382 7.167 4 6.66174 4 6.15212ZM6.96155 6.00001C6.96155 5.48239 7.44111 4.96155 8.00001 4.96155C8.55891 4.96155 9.03847 5.48239 9.03847 6.00001C9.03847 6.27615 9.26233 6.50001 9.53847 6.50001C9.81461 6.50001 10.0385 6.27615 10.0385 6.00001C10.0385 4.95982 9.14045 3.96155 8.00001 3.96155C6.85957 3.96155 5.96155 4.95982 5.96155 6.00001C5.96155 6.5382 6.09789 6.98021 6.33095 7.34045C6.41678 7.47311 6.498 7.59194 6.5751 7.70475L6.57514 7.70481C6.7079 7.89904 6.82847 8.07545 6.93938 8.27391C7.1026 8.56596 7.19232 8.8234 7.19232 9.08223V9.5C7.19232 9.77614 7.41617 10 7.69232 10C7.96846 10 8.19232 9.77614 8.19232 9.5V9.08223C8.19232 8.58352 8.01699 8.15229 7.81231 7.78605C7.68144 7.55189 7.51421 7.30631 7.36465 7.08668L7.36463 7.08665C7.29413 6.98311 7.22755 6.88534 7.17056 6.79726C7.05004 6.61097 6.96155 6.36042 6.96155 6.00001Z" fill="black"/>
</svg>
