<svg width="16" height="16" viewBox="0 0 16 16" fill="none" xmlns="http://www.w3.org/2000/svg">
<path fill-rule="evenodd" clip-rule="evenodd" d="M2 3V4.96888C2 5.25632 2.12368 5.52986 2.3395 5.71971L6.32717 9.22766C6.54298 9.41751 6.66667 9.69105 6.66667 9.97848V14.0531C6.66667 14.7063 7.28256 15.1841 7.91519 15.0218L8.58186 14.8507C9.0241 14.7372 9.33333 14.3386 9.33333 13.8821V9.97848C9.33333 9.69105 9.45702 9.41751 9.67283 9.22766L13.4315 5.92114H8.8418C8.56565 5.92114 8.3418 5.69728 8.3418 5.42114C8.3418 5.145 8.56565 4.92114 8.8418 4.92114H14V3C14 2.44772 13.5523 2 13 2H3C2.44772 2 2 2.44772 2 3Z" fill="black"/>
</svg>
