<svg width="16" height="16" viewBox="0 0 16 16" fill="none" xmlns="http://www.w3.org/2000/svg">
<path fill-rule="evenodd" clip-rule="evenodd" d="M2 4C2 3.44772 2.44772 3 3 3H13C13.5523 3 14 3.44772 14 4V10C14 10.5523 13.5523 11 13 11H3C2.44772 11 2 10.5523 2 10V4ZM7.25 9.25C7.25 9.66421 7.58579 10 8 10C8.41421 10 8.75 9.66421 8.75 9.25C8.75 8.83579 8.41421 8.5 8 8.5C7.58579 8.5 7.25 8.83579 7.25 9.25ZM6 12C5.72386 12 5.5 12.2239 5.5 12.5C5.5 12.7761 5.72386 13 6 13H10C10.2761 13 10.5 12.7761 10.5 12.5C10.5 12.2239 10.2761 12 10 12H6Z" fill="black"/>
</svg>
