<svg width="16" height="16" viewBox="0 0 16 16" fill="none" xmlns="http://www.w3.org/2000/svg">
<path fill-rule="evenodd" clip-rule="evenodd" d="M2.12813 3.87186C1.96553 3.67307 1.97993 3.38334 2.16157 3.2017L3.2148 2.14841C3.39644 1.96677 3.68623 1.95231 3.88496 2.11497L5.00776 3.03361C5.32246 3.29111 5.43696 3.69675 5.34199 4.06107L6.97798 5.697C7.99849 4.99998 9.10274 4.85837 9.67134 5.42704C9.77559 5.53129 9.87007 5.66758 9.95137 5.82792C10.1452 6.20969 10.5476 6.47745 10.9753 6.45914C11.8256 6.42277 12.622 6.68357 13.1997 7.26121C14.4853 8.54703 14.2011 10.9161 12.5646 12.5525C10.9282 14.1891 8.55903 14.4733 7.27339 13.1875C6.69575 12.61 6.43501 11.8141 6.47114 10.9641C6.48945 10.5364 6.22163 10.1339 5.8398 9.94034C5.67915 9.85892 5.54268 9.76444 5.43843 9.66007C4.86982 9.09147 5.01143 7.9874 5.7082 6.96696L4.071 5.32987C3.70747 5.42338 3.30342 5.30851 3.04658 4.99467L2.12813 3.87186ZM9.67256 9.65836C10.1401 9.19077 10.1401 8.43272 9.67256 7.96513C9.20503 7.49753 8.44697 7.49753 7.97944 7.96513C7.51191 8.43272 7.51191 9.19077 7.97944 9.65836C8.44697 10.126 9.20503 10.126 9.67256 9.65836Z" fill="black"/>
</svg>
