<svg width="16" height="16" viewBox="0 0 16 16" fill="none" xmlns="http://www.w3.org/2000/svg">
<path d="M12.3191 5.7792C12.7222 5.72856 13.112 5.54808 13.4209 5.23785C14.1578 4.49796 14.1559 3.30025 13.4167 2.56269C12.6775 1.82513 11.4809 1.82702 10.744 2.56691C10.435 2.87713 10.2559 3.26785 10.2066 3.67139L8.15917 2.40724C7.72671 2.14023 7.22843 1.9992 6.72031 2C5.99563 2.00115 5.30109 2.29038 4.78947 2.80408L2.15755 5.4467C1.94701 5.6581 1.94755 6.0003 2.15876 6.21103C2.36996 6.42176 2.71186 6.42122 2.9224 6.20983L5.2097 3.91322L5.97455 4.67635L3.68724 6.97296C3.4767 7.18435 3.47724 7.52656 3.68844 7.73729C3.89965 7.94802 4.24154 7.94748 4.45208 7.73608L6.73939 5.43947L7.50423 6.2026L5.21692 8.49921C5.00638 8.71061 5.00692 9.05281 5.21813 9.26354C5.42933 9.47427 5.77123 9.47373 5.98177 9.26234L8.26907 6.96573L9.03392 7.72885L6.74661 10.0255C6.53607 10.2369 6.53661 10.5791 6.74781 10.7898C6.95902 11.0005 7.30091 11 7.51145 10.7886L9.79876 8.49198L10.5636 9.25511L8.27629 11.5517C8.06575 11.7631 8.06629 12.1053 8.2775 12.316C8.4887 12.5268 8.8306 12.5262 9.04114 12.3148L11.3284 10.0182L12.0933 10.7814L9.80598 13.078C9.59544 13.2894 9.59598 13.6316 9.80718 13.8423C10.0184 14.053 10.3603 14.0525 10.5708 13.8411L13.2027 11.1985C13.7144 10.6848 14.0011 9.9887 14 9.26336C13.9992 8.75478 13.8567 8.2565 13.5886 7.82449L12.3191 5.7792Z" fill="black"/>
</svg>
