<svg width="16" height="16" viewBox="0 0 16 16" fill="none" xmlns="http://www.w3.org/2000/svg">
<path fill-rule="evenodd" clip-rule="evenodd" d="M3.07004 5.44818C3.06868 5.43188 3.06799 5.41546 3.06799 5.39896V4.12462C3.06799 3.59618 3.3356 3.14651 3.69598 2.84162C4.05573 2.53726 4.53622 2.35001 5.03592 2.35001C5.10009 2.35001 5.16363 2.35311 5.22636 2.35916C5.65497 1.83122 6.32582 1.5 7.06799 1.5C7.81176 1.5 8.48396 1.83266 8.91245 2.36264C8.98591 2.35429 9.06053 2.35001 9.13602 2.35001C10.1023 2.35001 11.0674 3.08407 11.0674 4.12462V5.3993C11.0674 5.41699 11.0667 5.43457 11.0651 5.452C11.0666 5.4678 11.0674 5.48381 11.0674 5.5V6.01074H12.5336C13.362 6.01074 14.0336 6.68232 14.0336 7.51074V8.47852C14.0336 10.2436 12.7269 11.7036 11.0281 11.9438C10.8187 13.1128 9.79662 14 8.56738 14H5.56738C4.18667 14 3.06738 12.8807 3.06738 11.5V5.5C3.06738 5.4825 3.06828 5.46521 3.07004 5.44818ZM5.91793 3.10782C6.14068 2.75303 6.56522 2.5 7.06799 2.5C7.57319 2.5 7.99934 2.75546 8.22122 3.11288C8.36332 3.34177 8.63702 3.44773 8.89308 3.38087C8.96949 3.36091 9.0509 3.35001 9.13602 3.35001C9.67925 3.35001 10.0674 3.75728 10.0674 4.12462V5H4.06799V4.12462C4.06799 3.94912 4.15697 3.76148 4.34187 3.60505C4.52738 3.4481 4.78085 3.35001 5.03592 3.35001C5.11413 3.35001 5.18919 3.35921 5.26011 3.37618C5.51193 3.43641 5.77783 3.33095 5.91793 3.10782ZM13.0336 8.47852C13.0336 9.67601 12.1916 10.6769 11.0674 10.9214V7.01074H12.5336C12.8097 7.01074 13.0336 7.2346 13.0336 7.51074V8.47852ZM8.5 12C8.22386 12 8 11.7761 8 11.5V7.50025C8 7.22411 8.22386 7 8.5 7C8.77614 7 9 7.22389 9 7.50003V11.5C9 11.7761 8.77614 12 8.5 12ZM5 11.5C5 11.7761 5.22386 12 5.5 12C5.77614 12 6 11.7761 6 11.5V7.50003C6 7.22389 5.77614 7 5.5 7C5.22386 7 5 7.22411 5 7.50025V11.5Z" fill="black"/>
</svg>
