<svg width="16" height="16" viewBox="0 0 16 16" fill="none" xmlns="http://www.w3.org/2000/svg">
<path d="M10.277 3.0752C10.4422 3.0752 10.6347 3.10533 10.8068 3.1914L13.8689 4.72246C14.0242 4.80011 14.2722 4.9884 14.2722 5.32278C14.2722 5.65716 14.0242 5.84544 13.8689 5.9231L11.7642 6.97546C11.7431 6.96033 11.7204 6.94666 11.6964 6.93466L6.97856 4.57571L9.74718 3.1914C9.91933 3.10533 10.1118 3.0752 10.277 3.0752Z" fill="black"/>
<path d="M5.86052 5.13473L3.62296 6.25351C3.46765 6.33117 3.21973 6.51945 3.21973 6.85383C3.21973 7.18821 3.46765 7.3765 3.62296 7.45415L6.68507 8.98521C6.85721 9.07128 7.04967 9.10141 7.21489 9.10141C7.38011 9.10141 7.57257 9.07128 7.74471 8.98521L10.6531 7.53102L5.86052 5.13473Z" fill="black"/>
<path d="M10.7148 8.59055L7.23041 10.3327C7.23041 10.3327 7.23059 10.3327 7.23041 10.3327C7.22893 10.3333 7.221 10.3363 7.20614 10.3394C7.18733 10.3432 7.16358 10.3457 7.13737 10.3457C7.11117 10.3457 7.08742 10.3432 7.06861 10.3394C7.05377 10.3363 7.04611 10.3334 7.04461 10.3328L3.88583 8.75348C3.63884 8.62999 3.3385 8.7301 3.21501 8.97709C3.09151 9.22408 3.19162 9.52442 3.43861 9.64791L6.59784 11.2275C6.77267 11.3149 6.96864 11.3457 7.13737 11.3457C7.30611 11.3457 7.50208 11.3149 7.67691 11.2275L10.7148 9.70858V8.59055Z" fill="black"/>
<path d="M10.7148 10.8132L7.23041 12.5554C7.2304 12.5554 7.22278 12.5586 7.20614 12.562C7.18733 12.5658 7.16358 12.5684 7.13737 12.5684C7.11117 12.5684 7.08742 12.5658 7.06861 12.562C7.05375 12.559 7.04609 12.5561 7.0446 12.5555C7.04443 12.5554 7.04461 12.5555 7.0446 12.5555L3.88583 10.9761C3.63884 10.8526 3.3385 10.9528 3.21501 11.1997C3.09151 11.4467 3.19162 11.7471 3.43861 11.8706L6.59784 13.4502C6.77267 13.5376 6.96864 13.5684 7.13737 13.5684C7.30611 13.5684 7.50208 13.5376 7.67691 13.4502L10.7148 11.9312V10.8132Z" fill="black"/>
<path d="M11.7148 11.4312V10.3132L13.5482 9.39652C13.7951 9.27303 14.0955 9.37314 14.219 9.62013C14.3425 9.86712 14.2424 10.1675 13.9954 10.291L11.7148 11.4312Z" fill="black"/>
<path d="M11.7148 9.20858V8.09055L13.5482 7.17387C13.7951 7.05037 14.0955 7.15049 14.219 7.39747C14.3425 7.64446 14.2424 7.9448 13.9954 8.0683L11.7148 9.20858Z" fill="black"/>
</svg>
