<svg width="16" height="16" viewBox="0 0 16 16" fill="none" xmlns="http://www.w3.org/2000/svg">
<path fill-rule="evenodd" clip-rule="evenodd" d="M8.34832 3.99092C7.9578 4.38145 7.9578 5.01461 8.34832 5.40514L10.6323 7.68911C11.0228 8.07963 11.656 8.07963 12.0465 7.68911L14.3305 5.40514C14.721 5.01461 14.721 4.38145 14.3305 3.99092L12.0465 1.70696C11.656 1.31643 11.0228 1.31643 10.6323 1.70696L8.34832 3.99092ZM3 2.04544C2.44772 2.04544 2 2.49316 2 3.04544V6.2755C2 6.82779 2.44772 7.2755 3 7.2755H6.23006C6.78235 7.2755 7.23006 6.82779 7.23006 6.2755V3.04544C7.23006 2.49316 6.78234 2.04544 6.23006 2.04544H3ZM2 9.76981C2 9.21752 2.44772 8.76981 3 8.76981H6.23006C6.78234 8.76981 7.23006 9.21752 7.23006 9.76981V12.9999C7.23006 13.5522 6.78235 13.9999 6.23006 13.9999H3C2.44772 13.9999 2 13.5522 2 12.9999V9.76981ZM9.72437 8.76981C9.17208 8.76981 8.72437 9.21752 8.72437 9.76981V12.9999C8.72437 13.5522 9.17208 13.9999 9.72437 13.9999H12.9544C13.5067 13.9999 13.9544 13.5522 13.9544 12.9999V9.76981C13.9544 9.21752 13.5067 8.76981 12.9544 8.76981H9.72437Z" fill="black"/>
</svg>
