<svg width="16" height="16" viewBox="0 0 16 16" fill="none" xmlns="http://www.w3.org/2000/svg">
<path fill-rule="evenodd" clip-rule="evenodd" d="M8 2.5C8.27614 2.5 8.5 2.72386 8.5 3V12.6923C8.5 12.9684 8.27614 13.1923 8 13.1923C7.72386 13.1923 7.5 12.9684 7.5 12.6923V3C7.5 2.72386 7.72386 2.5 8 2.5ZM2.32291 4.01994C2.6854 3.70924 3.14707 3.53845 3.62449 3.53845H5.38465C5.93693 3.53845 6.38465 3.98617 6.38465 4.53845V5.76922C6.38465 6.32151 5.93693 6.76922 5.38465 6.76922H3.62449C3.14707 6.76922 2.6854 6.59844 2.32291 6.28773L1.88583 5.91309C1.42022 5.514 1.42022 4.79368 1.88583 4.39458L2.32291 4.01994ZM12.3756 5.6922C12.853 5.6922 13.3147 5.86298 13.6771 6.17369L14.1142 6.54833C14.5798 6.94742 14.5798 7.66775 14.1142 8.06684L13.6771 8.44148C13.3147 8.75218 12.853 8.92297 12.3756 8.92297H10.6154C10.0631 8.92297 9.61542 8.47525 9.61542 7.92297V6.6922C9.61542 6.13991 10.0631 5.6922 10.6154 5.6922H12.3756Z" fill="black"/>
</svg>
