<svg width="16" height="16" viewBox="0 0 16 16" fill="none" xmlns="http://www.w3.org/2000/svg">
<path fill-rule="evenodd" clip-rule="evenodd" d="M6 2C5.44772 2 5 2.44772 5 3V5H11V3C11 2.44772 10.5523 2 10 2H6ZM11 11H5V13C5 13.5523 5.44772 14 6 14H10C10.5523 14 11 13.5523 11 13V11ZM2 6.5C2 6.22386 2.22386 6 2.5 6H13.5C13.7761 6 14 6.22386 14 6.5V8V10V11C14 11.5523 13.5523 12 13 12C12.4477 12 12 11.5523 12 11V10H4V11C4 11.5523 3.55228 12 3 12C2.44772 12 2 11.5523 2 11V10V8V6.5ZM9.5 7C9.22386 7 9 7.22386 9 7.5C9 7.77614 9.22386 8 9.5 8H11C11.2761 8 11.5 7.77614 11.5 7.5C11.5 7.22386 11.2761 7 11 7H9.5Z" fill="black"/>
</svg>
