<svg width="16" height="16" viewBox="0 0 16 16" fill="none" xmlns="http://www.w3.org/2000/svg">
<path d="M2 2.60001C2 2.26863 2.26862 2 2.60001 2H4.5C4.77615 2 5 2.22386 5 2.5C5 2.77614 4.77615 3 4.5 3H3V4.5C3 4.77614 2.77615 5 2.5 5C2.22385 5 2 4.77614 2 4.5V2.60001Z" fill="black"/>
<path d="M2 13.4C2 13.7314 2.26862 14 2.60001 14H4.5C4.77615 14 5 13.7761 5 13.5C5 13.2239 4.77615 13 4.5 13H3V11.5C3 11.2239 2.77615 11 2.5 11C2.22385 11 2 11.2239 2 11.5V13.4Z" fill="black"/>
<path d="M13.4 2C13.7314 2 14 2.26863 14 2.60001V4.5C14 4.77614 13.7762 5 13.5 5C13.2238 5 13 4.77614 13 4.5V3H11.5C11.2238 3 11 2.77614 11 2.5C11 2.22386 11.2238 2 11.5 2H13.4Z" fill="black"/>
<path d="M14 13.4C14 13.7314 13.7314 14 13.4 14H11.5C11.2238 14 11 13.7761 11 13.5C11 13.2239 11.2238 13 11.5 13H13V11.5C13 11.2239 13.2238 11 13.5 11C13.7762 11 14 11.2239 14 11.5V13.4Z" fill="black"/>
<path d="M5.70001 5C5.31342 5 5 5.3134 5 5.7V6.7C5 6.86569 5.13431 7 5.29999 7H7V9H5.29999C5.13431 9 5 9.13432 5 9.3V10.3C5 10.6866 5.31342 11 5.70001 11H6.69998C6.86566 11 6.99997 10.8657 7 10.7V9H9V10.7C9 10.8657 9.13431 11 9.29999 11H10.3C10.6866 11 11 10.6866 11 10.3V9.3C11 9.13432 10.8657 9 10.7 9H9V7H10.7C10.8657 7 11 6.86569 11 6.7V5.7C11 5.3134 10.6866 5 10.3 5H9.29999C9.13431 5 9 5.13431 9 5.3V7H7V5.3C7 5.13431 6.86569 5 6.70001 5H5.70001Z" fill="black"/>
</svg>
