<svg width="16" height="16" viewBox="0 0 16 16" fill="none" xmlns="http://www.w3.org/2000/svg">
<path d="M3.26728 2C3.1001 2 2.94399 2.08355 2.85125 2.22265L1.51792 4.22265C1.2964 4.55493 1.5346 5 1.93395 5H5V3.5C5 3.22386 5.22386 3 5.5 3H6.5C6.77614 3 7 3.22386 7 3.5V5H9V3.5C9 3.22386 9.22386 3 9.5 3H10.5C10.7761 3 11 3.22386 11 3.5V5H14.0654C14.4648 5 14.703 4.55493 14.4815 4.22265L13.1481 2.22265C13.0554 2.08355 12.8993 2 12.7321 2H3.26728Z" fill="black"/>
<path fill-rule="evenodd" clip-rule="evenodd" d="M12.9997 6H2.99971V13.5C2.99971 13.7761 3.22356 14 3.49971 14H12.4997C12.7758 14 12.9997 13.7761 12.9997 13.5V6ZM9 7.5C9 7.22386 9.22386 7 9.5 7H10.5C10.7761 7 11 7.22386 11 7.5V8.5C11 8.77614 10.7761 9 10.5 9H9.5C9.22386 9 9 8.77614 9 8.5V7.5ZM5 7.5C5 7.22386 5.22386 7 5.5 7H6.5C6.77614 7 7 7.22386 7 7.5V8.5C7 8.77614 6.77614 9 6.5 9H5.5C5.22386 9 5 8.77614 5 8.5V7.5ZM5.5 11C5.22386 11 5 11.2239 5 11.5V12.5C5 12.7761 5.22386 13 5.5 13H6.5C6.77614 13 7 12.7761 7 12.5V11.5C7 11.2239 6.77614 11 6.5 11H5.5ZM9 11.5C9 11.2239 9.22386 11 9.5 11H10.5C10.7761 11 11 11.2239 11 11.5V12.5C11 12.7761 10.7761 13 10.5 13H9.5C9.22386 13 9 12.7761 9 12.5V11.5Z" fill="black"/>
</svg>
