<svg width="16" height="16" viewBox="0 0 16 16" fill="none" xmlns="http://www.w3.org/2000/svg">
<path fill-rule="evenodd" clip-rule="evenodd" d="M4.75133 5.51128L5.68813 5.42907L5.55176 5.58816C4.86707 6.38697 5.11537 7.61654 6.05639 8.08705C6.67899 8.39835 7.43093 8.27633 7.92313 7.78412L8.5002 7.20705L12.6394 11.3463C12.1965 11.9331 11.3601 12.0833 10.7359 11.66L10.5 11.5C9.94771 12.3284 8.82842 12.5522 7.99999 12C7.42449 12.5755 6.5154 12.6456 5.85843 12.1652L3.53087 10.4632C3.20867 10.2276 3.05744 9.8229 3.14614 9.43373L3.86375 6.28523C3.96023 5.86192 4.31883 5.54923 4.75133 5.51128ZM12.0842 6.12907L12.8869 10.1796L9.13547 6.4281C8.78462 6.07725 8.21579 6.07725 7.86494 6.4281L7.21602 7.07702C7.02818 7.26486 6.74121 7.31143 6.5036 7.19263C6.14448 7.01306 6.04972 6.54381 6.31102 6.23895L7.14455 5.2665C7.55709 4.78521 8.13765 4.50371 8.74576 4.46094C8.90182 4.48281 9.05732 4.52096 9.2099 4.57609L11.4431 5.38299C11.7728 5.50212 12.016 5.7852 12.0842 6.12907ZM3.12139 5.01492C3.38928 5.0819 3.55216 5.35337 3.48519 5.62126L2.48519 9.62126C2.41822 9.88916 2.14675 10.052 1.87885 9.98507C1.61095 9.91809 1.44807 9.64663 1.51505 9.37873L2.51505 5.37873C2.58202 5.11083 2.85349 4.94795 3.12139 5.01492ZM12.8914 5.01189C12.6219 5.0718 12.4519 5.33888 12.5118 5.60845L13.5118 10.1085C13.5717 10.378 13.8388 10.548 14.1084 10.4881C14.3779 10.4282 14.5479 10.1611 14.488 9.89152L13.488 5.39152C13.4281 5.12195 13.161 4.95199 12.8914 5.01189Z" fill="black"/>
</svg>
