<svg width="16" height="16" viewBox="0 0 16 16" fill="none" xmlns="http://www.w3.org/2000/svg">
<path fill-rule="evenodd" clip-rule="evenodd" d="M9.64645 1.64645C9.84171 1.45118 10.1583 1.45118 10.3536 1.64645L11.75 3.04289L13.1464 1.64645C13.3417 1.45118 13.6583 1.45118 13.8536 1.64645C14.0488 1.84171 14.0488 2.15829 13.8536 2.35355L12.4571 3.75L13.8536 5.14645C14.0488 5.34171 14.0488 5.65829 13.8536 5.85355C13.6583 6.04882 13.3417 6.04882 13.1464 5.85355L11.75 4.45711L10.3536 5.85355C10.1583 6.04882 9.84171 6.04882 9.64645 5.85355C9.45118 5.65829 9.45118 5.34171 9.64645 5.14645L11.0429 3.75L9.64645 2.35355C9.45118 2.15829 9.45118 1.84171 9.64645 1.64645ZM6 4C4.89543 4 4 4.89543 4 6V7C4 8.10457 4.89543 9 6 9C7.10457 9 8 8.10457 8 7V6C8 4.89543 7.10457 4 6 4ZM3.85714 10C2.27919 10 1 11.2792 1 12.8571C1 13.4883 1.51168 14 2.14286 14H9.85714C10.4883 14 11 13.4883 11 12.8571C11 11.2792 9.72081 10 8.14286 10H3.85714Z" fill="black"/>
</svg>
