<svg width="16" height="16" viewBox="0 0 16 16" fill="none" xmlns="http://www.w3.org/2000/svg">
<path fill-rule="evenodd" clip-rule="evenodd" d="M13.1305 10.7391V1C12.116 1.75515 10.087 4.97254 10.087 10.7391H13.1305ZM4.6847 13.4801L4.88931 9.38806C4.90261 9.12195 5.12225 8.91302 5.38868 8.91302H5.63043V8.02536L4.40912 7.50194C3.8576 7.26557 3.5 6.72326 3.5 6.12322V1.6087C3.5 1.33256 3.72386 1.1087 4 1.1087C4.27614 1.1087 4.5 1.33256 4.5 1.6087V6.12322C4.5 6.32324 4.6192 6.504 4.80304 6.58279L5.63043 6.93739V1.6087C5.63043 1.33256 5.85429 1.1087 6.13043 1.1087C6.40657 1.1087 6.63043 1.33256 6.63043 1.6087V6.93739L7.45783 6.58279C7.64167 6.504 7.76087 6.32323 7.76087 6.12322V1.6087C7.76087 1.33256 7.98473 1.1087 8.26087 1.1087C8.53701 1.1087 8.76087 1.33256 8.76087 1.6087V6.12322C8.76087 6.72326 8.40327 7.26557 7.85175 7.50194L6.63043 8.02536V8.91302H6.87222C7.13866 8.91302 7.35829 9.12195 7.37159 9.38806L7.5762 13.4801C7.61754 14.307 6.9583 15 6.13045 15C5.3026 15 4.64336 14.307 4.6847 13.4801ZM10.6957 13.7826V11.9565H13.1305V13.7826C13.1305 14.455 12.5854 15 11.9131 15C11.2407 15 10.6957 14.455 10.6957 13.7826Z" fill="black"/>
</svg>
