<svg width="16" height="16" viewBox="0 0 16 16" fill="none" xmlns="http://www.w3.org/2000/svg">
<path fill-rule="evenodd" clip-rule="evenodd" d="M8 2C6.56861 2 5.5 3.1789 5.5 4.83333V6.66675C5.5 8.32121 6.56864 9.5 8 9.5C9.43136 9.5 10.5 8.32121 10.5 6.66675V4.83333C10.5 3.1789 9.43139 2 8 2ZM4.44732 8.27638C4.32383 8.02939 4.02349 7.92928 3.7765 8.05277C3.52951 8.17627 3.4294 8.4766 3.5529 8.72359C4.06466 9.74713 5.36744 11.2664 7.5 11.4758V13.5C7.5 13.7761 7.72386 14 8 14C8.27614 14 8.5 13.7761 8.5 13.5V11.4758C10.6327 11.2665 11.9355 9.74716 12.4473 8.72359C12.5708 8.4766 12.4707 8.17627 12.2237 8.05277C11.9767 7.92928 11.6764 8.02939 11.5529 8.27638C11.1035 9.17513 9.92009 10.5 8.00011 10.5C6.08013 10.5 4.8967 9.17513 4.44732 8.27638Z" fill="black"/>
</svg>
