<svg width="16" height="16" viewBox="0 0 16 16" fill="none" xmlns="http://www.w3.org/2000/svg">
<path fill-rule="evenodd" clip-rule="evenodd" d="M3 2.5V9.13587C3 9.4674 3.04174 9.7976 3.12425 10.1187C3.40161 11.1981 4.07455 12.1339 5.00959 12.7405L5.22222 12.8784L7.74792 14.3528C7.90367 14.4438 8.09633 14.4438 8.25208 14.3528L10.7778 12.8784L10.9904 12.7405C11.9255 12.1339 12.5984 11.1981 12.8758 10.1187C12.9583 9.79759 13 9.4674 13 9.13588L13 2.5C13 2.22386 12.7762 2 12.5 2H3.5C3.22386 2 3 2.22386 3 2.5ZM6.5 6.5C7.05228 6.5 7.5 6.05228 7.5 5.5C7.5 4.94772 7.05228 4.5 6.5 4.5C5.94772 4.5 5.5 4.94772 5.5 5.5C5.5 6.05228 5.94772 6.5 6.5 6.5ZM10.3737 5.33219C10.5572 5.1258 10.5386 4.80976 10.3322 4.6263C10.1258 4.44284 9.80976 4.46143 9.6263 4.66782L5.6263 9.16782C5.44284 9.37421 5.46143 9.69025 5.66782 9.87371C5.87421 10.0572 6.19025 10.0386 6.37371 9.83219L10.3737 5.33219ZM10.5 9C10.5 9.55228 10.0523 10 9.5 10C8.94772 10 8.5 9.55228 8.5 9C8.5 8.44772 8.94772 8 9.5 8C10.0523 8 10.5 8.44772 10.5 9Z" fill="black"/>
</svg>
