<svg width="16" height="16" viewBox="0 0 16 16" fill="none" xmlns="http://www.w3.org/2000/svg">
<path fill-rule="evenodd" clip-rule="evenodd" d="M5.5 10.5C5.77614 10.5 6 10.7239 6 11C6 11.1378 6.08762 11.5374 6.34437 11.8969C6.58448 12.233 6.94518 12.5 7.5 12.5C7.77614 12.5 8 12.7239 8 13C8 13.2761 7.77614 13.5 7.5 13.5C6.55482 13.5 5.91552 13.017 5.53063 12.4781C5.16238 11.9626 5 11.3622 5 11C5 10.7239 5.22386 10.5 5.5 10.5ZM5.75 3C5.75 2.0335 6.5335 1.25 7.5 1.25C8.4665 1.25 9.25 2.0335 9.25 3V3.5H9.99993C10.2761 3.5 10.4999 3.72386 10.4999 4C10.4999 4.27614 10.2761 4.5 9.99993 4.5H9.25V5H9.99993C10.2761 5 10.4999 5.22386 10.4999 5.5C10.4999 5.77614 10.2761 6 9.99993 6H9.25V6.5H9.99993C10.2761 6.5 10.4999 6.72386 10.4999 7C10.4999 7.27614 10.2761 7.5 9.99993 7.5H9.25V7.96824C10.2962 8.5734 11 9.70451 11 11C11 12.933 9.433 14.5 7.5 14.5C5.567 14.5 4 12.933 4 11C4 9.70451 4.70385 8.5734 5.75 7.96824V3Z" fill="black"/>
</svg>
