<svg width="16" height="16" viewBox="0 0 16 16" fill="none" xmlns="http://www.w3.org/2000/svg">
<path d="M1.63358 3.20686C1.40975 2.98302 1.05693 3.0495 1.03796 3.34648C0.984586 4.1815 1.30424 5.07092 1.9829 5.74958C2.8342 6.60088 4.01703 6.88729 5.00783 6.5811L9.42761 11C9.12143 11.9908 9.40784 13.1736 10.2591 14.0249C10.9378 14.7036 11.8272 15.0233 12.6622 14.9699C12.7817 14.9624 12.8638 14.901 12.9047 14.8155C12.9656 14.6885 12.9358 14.5082 12.8019 14.3743L11.9119 13.4843C11.5214 13.0938 11.5214 12.4606 11.9119 12.0701L12.1428 11.8393C12.5333 11.4487 13.1664 11.4487 13.557 11.8393L14.4469 12.7292C14.6707 12.953 15.0236 12.8866 15.0425 12.5896C15.0959 11.7546 14.7763 10.8651 14.0976 10.1865C13.2463 9.33518 12.0635 9.04878 11.0727 9.35496L9.61765 7.89994L11.6867 5.83092L12.0583 5.90524C12.5257 5.99872 13.0055 5.81827 13.2955 5.43998L15.2036 2.9508L13.5351 1.28137L10.9836 2.99591C10.5345 3.29771 10.3306 3.8542 10.4783 4.37474L10.5984 4.79786L8.55699 6.83928L6.65288 4.93605C6.95906 3.94525 6.67266 2.76242 5.82136 1.91112C5.1427 1.23247 4.25327 0.912809 3.41825 0.966182C3.29884 0.973679 3.21666 1.03502 3.1758 1.12053C3.11486 1.24755 3.14469 1.42786 3.27864 1.56181L4.16858 2.45175C4.55911 2.84227 4.55911 3.47544 4.16858 3.86596L3.93774 4.0968C3.54722 4.48733 2.91405 4.48733 2.52353 4.0968L1.63358 3.20686Z" fill="black"/>
<path d="M4.84941 9.24071C5.24608 8.90074 5.8376 8.92341 6.20709 9.29273L7.20782 10.293C7.57749 10.6625 7.60026 11.2543 7.26006 11.6511L4.94975 14.3459C4.19834 15.2223 2.85993 15.2738 2.04334 14.4578C1.22629 13.6413 1.27756 12.3019 2.15463 11.5502L4.84941 9.24071Z" fill="black"/>
</svg>
