<svg width="16" height="16" viewBox="0 0 16 16" fill="none" xmlns="http://www.w3.org/2000/svg">
<path fill-rule="evenodd" clip-rule="evenodd" d="M3 2.5C3 2.22386 3.22386 2 3.5 2H12.5C12.7761 2 13 2.22386 13 2.5V13.5C13 13.7761 12.7761 14 12.5 14H3.5C3.22386 14 3 13.7761 3 13.5V2.5ZM11 5.5H5V4.5H11V5.5ZM5 8H6.5V7H5V8ZM6 10.5H5V9.5H6V10.5ZM10 9.5C10 10.0523 9.55228 10.5 9 10.5C8.44772 10.5 8 10.0523 8 9.5C8 8.94772 8.44772 8.5 9 8.5C9.55228 8.5 10 8.94772 10 9.5ZM11 9.5C11 10.6046 10.1046 11.5 9 11.5C7.89543 11.5 7 10.6046 7 9.5C7 8.39543 7.89543 7.5 9 7.5C10.1046 7.5 11 8.39543 11 9.5Z" fill="black"/>
</svg>
