<svg width="16" height="16" viewBox="0 0 16 16" fill="none" xmlns="http://www.w3.org/2000/svg">
<path fill-rule="evenodd" clip-rule="evenodd" d="M10 2.5H3C2.72386 2.5 2.5 2.72386 2.5 3V13C2.5 13.2761 2.72386 13.5 3 13.5H13C13.2761 13.5 13.5 13.2761 13.5 13V6H10.6C10.2686 6 10 5.73137 10 5.4V2.5ZM13 5L11 3V5H13ZM4.5 6.54965C4.65686 6.54492 4.79709 6.54019 4.92068 6.53546C5.04902 6.526 5.17736 6.51891 5.3057 6.51418C5.43405 6.50946 5.56714 6.50709 5.70499 6.50709C5.84759 6.50236 6.01159 6.5 6.19697 6.5C6.62002 6.5 6.97653 6.5331 7.26649 6.59929C7.5612 6.66548 7.79887 6.77187 7.9795 6.91844C8.16488 7.06028 8.29798 7.24704 8.37879 7.47872C8.4596 7.70567 8.5 7.98227 8.5 8.30851C8.5 8.97518 8.31462 9.4669 7.94385 9.78369C7.57308 10.0957 6.98604 10.2518 6.18271 10.2518H5.92603C5.84997 10.247 5.76441 10.24 5.66934 10.2305V11.5H4.5V6.54965ZM5.66934 9.26596C5.76916 9.27541 5.85472 9.28251 5.92603 9.28723H6.18271C6.39186 9.28723 6.56774 9.26832 6.71034 9.2305C6.85294 9.19267 6.96702 9.13593 7.05259 9.06028C7.13815 8.97991 7.19994 8.88298 7.23797 8.7695C7.276 8.65603 7.29501 8.52128 7.29501 8.36525C7.29501 8.21395 7.27837 8.08156 7.2451 7.96809C7.21182 7.85461 7.15241 7.76241 7.06685 7.69149C6.98128 7.61584 6.8672 7.5591 6.7246 7.52128C6.582 7.48345 6.40137 7.46454 6.18271 7.46454C6.08764 7.46454 6.00208 7.4669 5.92603 7.47163C5.84997 7.47163 5.76441 7.47636 5.66934 7.48582V9.26596Z" fill="black"/>
</svg>
