<svg width="16" height="16" viewBox="0 0 16 16" fill="none" xmlns="http://www.w3.org/2000/svg">
<path fill-rule="evenodd" clip-rule="evenodd" d="M3 3C1.89543 3 1 3.89543 1 5V11C1 12.1046 1.89543 13 3 13H13C14.1046 13 15 12.1046 15 11V5C15 3.89543 14.1046 3 13 3H3ZM8.00003 10.5L5.4979 7.99785C4.94781 7.44776 4.95061 6.55502 5.50416 6.0084C6.21596 5.3055 7.41373 5.55255 7.7893 6.47974L8.00003 6.99998L8.21075 6.47974C8.58632 5.55255 9.78409 5.3055 10.4959 6.0084C11.0494 6.55502 11.0522 7.44776 10.5022 7.99785L8.00003 10.5Z" fill="black"/>
</svg>
