<svg width="16" height="16" viewBox="0 0 16 16" fill="none" xmlns="http://www.w3.org/2000/svg">
<path d="M10 8H6V8.50023C6 9.6048 6.89543 10.5002 8 10.5002C9.10457 10.5002 10 9.6048 10 8.50023V8Z" fill="black"/>
<path d="M10 7H6.00261L6.01172 3.5C6.01172 2.91523 6.89543 2.44141 8 2.44141C9.10457 2.44141 10 2.91546 10 3.50023V7Z" fill="black"/>
<path d="M3.02148 6.92294C3.02148 7.78748 3.30953 8.60558 3.80876 9.28137C3.97284 9.50348 3.9258 9.81654 3.70369 9.98062C3.48158 10.1447 3.16852 10.0977 3.00444 9.87555C2.38515 9.03725 2.02148 8.01292 2.02148 6.92294C2.02148 5.83294 2.38516 4.80875 3.00444 3.97046C3.16852 3.74835 3.48158 3.70131 3.70369 3.86539C3.9258 4.02947 3.97284 4.34254 3.80876 4.56465C3.30952 5.24045 3.02148 6.05841 3.02148 6.92294Z" fill="black"/>
<path d="M5.01123 7C5.01123 7.36879 5.13323 7.7215 5.35943 8.0354C5.52088 8.25943 5.47014 8.57192 5.24611 8.73337C5.02208 8.89481 4.70959 8.84407 4.54814 8.62004C4.21142 8.15278 4.01123 7.59855 4.01123 7C4.01123 6.40144 4.21142 5.84721 4.54814 5.37995C4.70959 5.15592 5.02208 5.10518 5.24611 5.26662C5.47014 5.42807 5.52088 5.74056 5.35943 5.96459C5.13323 6.27849 5.01123 6.6312 5.01123 7Z" fill="black"/>
<path d="M12.2067 9.35641C12.7113 8.6806 13.002 7.86321 13.002 7.00003C13.002 6.13686 12.7113 5.3196 12.2067 4.64378C12.0415 4.42252 12.0869 4.10921 12.3082 3.944C12.5295 3.77879 12.8428 3.82423 13.008 4.0455C13.6339 4.88378 14.002 5.90867 14.002 7.00003C14.002 8.09137 13.6339 9.1164 13.008 9.95469C12.8428 10.176 12.5295 10.2214 12.3082 10.0562C12.0869 9.89098 12.0415 9.57768 12.2067 9.35641Z" fill="black"/>
<path d="M11.0117 7.12384C11.0117 7.49127 10.8889 7.84328 10.6603 8.15719C10.4977 8.3804 10.5468 8.69315 10.77 8.85572C10.9933 9.0183 11.306 8.96915 11.4686 8.74594C11.8089 8.27869 12.0117 7.72375 12.0117 7.12384C12.0117 6.52393 11.8089 5.96899 11.4686 5.50174C11.306 5.27853 10.9933 5.22937 10.77 5.39195C10.5468 5.55453 10.4977 5.86727 10.6603 6.09048C10.8889 6.4044 11.0117 6.7564 11.0117 7.12384Z" fill="black"/>
<path d="M8.51172 11.5C8.51172 11.2239 8.28786 11 8.01172 11C7.73558 11 7.51172 11.2239 7.51172 11.5V13.0312H6C5.72386 13.0312 5.5 13.2551 5.5 13.5312C5.5 13.8074 5.72386 14.0312 6 14.0312H10C10.2761 14.0312 10.5 13.8074 10.5 13.5312C10.5 13.2551 10.2761 13.0312 10 13.0312H8.51172V11.5Z" fill="black"/>
</svg>
