<svg width="16" height="16" viewBox="0 0 16 16" fill="none" xmlns="http://www.w3.org/2000/svg">
<path fill-rule="evenodd" clip-rule="evenodd" d="M4.81836 1.4502C5.23257 1.4502 5.56836 1.78598 5.56836 2.2002V3.00024H10.4316V2.2002C10.4316 1.78598 10.7674 1.4502 11.1816 1.4502C11.5959 1.4502 11.9316 1.78598 11.9316 2.2002V3.00024H13C13.5523 3.00024 14 3.44796 14 4.00024V5.31836H2V4.00024C2 3.44796 2.44772 3.00024 3 3.00024H4.06836V2.2002C4.06836 1.78598 4.40415 1.4502 4.81836 1.4502ZM2 6.31836H14V13.0002C14 13.5525 13.5523 14.0002 13 14.0002H3C2.44772 14.0002 2 13.5525 2 13.0002V6.31836ZM11.5355 8.71732C11.7308 8.52206 11.7308 8.20548 11.5355 8.01022C11.3403 7.81495 11.0237 7.81495 10.8284 8.01022L8.28768 10.551L6.79952 9.31085C6.56112 9.11219 6.21057 9.12809 5.99114 9.34752L4.46481 10.8739C4.26954 11.0691 4.26954 11.3857 4.46481 11.581C4.66007 11.7762 4.97665 11.7762 5.17191 11.581L6.43995 10.3129L7.92811 11.5531C8.16651 11.7517 8.51706 11.7358 8.73649 11.5164L11.5355 8.71732Z" fill="black"/>
</svg>
