<svg width="16" height="16" viewBox="0 0 16 16" fill="none" xmlns="http://www.w3.org/2000/svg">
<path fill-rule="evenodd" clip-rule="evenodd" d="M2 2.6C2 2.26863 2.26863 2 2.6 2H4.5C4.77614 2 5 2.22386 5 2.5C5 2.77614 4.77614 3 4.5 3H3V4.5C3 4.77614 2.77614 5 2.5 5C2.22386 5 2 4.77614 2 4.5V2.6ZM2 13.4C2 13.7314 2.26863 14 2.6 14H4.5C4.77614 14 5 13.7761 5 13.5C5 13.2239 4.77614 13 4.5 13H3V11.5C3 11.2239 2.77614 11 2.5 11C2.22386 11 2 11.2239 2 11.5V13.4ZM13.4 2C13.7314 2 14 2.26863 14 2.6V4.5C14 4.77614 13.7761 5 13.5 5C13.2239 5 13 4.77614 13 4.5V3H11.5C11.2239 3 11 2.77614 11 2.5C11 2.22386 11.2239 2 11.5 2H13.4ZM14 13.4C14 13.7314 13.7314 14 13.4 14H11.5C11.2239 14 11 13.7761 11 13.5C11 13.2239 11.2239 13 11.5 13H13V11.5C13 11.2239 13.2239 11 13.5 11C13.7761 11 14 11.2239 14 11.5V13.4ZM7 5.5C6.17157 5.5 5.5 6.17157 5.5 7V9C5.5 9.82843 6.17157 10.5 7 10.5H9C9.82843 10.5 10.5 9.82843 10.5 9V7C10.5 6.17157 9.82843 5.5 9 5.5H7ZM6.5 7C6.5 6.72386 6.72386 6.5 7 6.5H9C9.27614 6.5 9.5 6.72386 9.5 7V9C9.5 9.27614 9.27614 9.5 9 9.5H7C6.72386 9.5 6.5 9.27614 6.5 9V7Z" fill="black"/>
</svg>
