<svg width="16" height="16" viewBox="0 0 16 16" fill="none" xmlns="http://www.w3.org/2000/svg">
<path fill-rule="evenodd" clip-rule="evenodd" d="M9.8 2.5C9.63431 2.5 9.49928 2.63578 9.4554 2.79555C9.31271 3.31513 8.82757 4 8 4C7.17243 4 6.68729 3.31513 6.5446 2.79555C6.50072 2.63578 6.36569 2.5 6.2 2.5H4C3.44772 2.5 3 2.94771 3 3.5V8.5H4C4.27614 8.5 4.5 8.72386 4.5 9C4.5 9.27614 4.27614 9.5 4 9.5H3V12.5C3 13.0523 3.44772 13.5 4 13.5H6.2C6.36569 13.5 6.50072 13.3642 6.5446 13.2044C6.68729 12.6849 7.17243 12 8 12C8.82757 12 9.31271 12.6849 9.4554 13.2044C9.49928 13.3642 9.63431 13.5 9.8 13.5H12C12.5523 13.5 13 13.0523 13 12.5V9.5H12C11.7239 9.5 11.5 9.27614 11.5 9C11.5 8.72386 11.7239 8.5 12 8.5H13V3.5C13 2.94772 12.5523 2.5 12 2.5H9.8ZM6 8.5C5.72386 8.5 5.5 8.72386 5.5 9C5.5 9.27614 5.72386 9.5 6 9.5H7C7.27614 9.5 7.5 9.27614 7.5 9C7.5 8.72386 7.27614 8.5 7 8.5H6ZM8.5 9C8.5 8.72386 8.72386 8.5 9 8.5H10C10.2761 8.5 10.5 8.72386 10.5 9C10.5 9.27614 10.2761 9.5 10 9.5H9C8.72386 9.5 8.5 9.27614 8.5 9Z" fill="black"/>
</svg>
