<svg width="16" height="16" viewBox="0 0 16 16" fill="none" xmlns="http://www.w3.org/2000/svg">
<path d="M3 8.76393V4C3 2.89543 3.89543 2 5 2C6.10457 2 7 2.89543 7 4L7 8.76392C6.46924 8.28882 5.76831 8 5 8C4.23168 8 3.53077 8.28887 3 8.76393Z" fill="black"/>
<path d="M8 5H12C12.5523 5 13 5.44772 13 6V12C13 12.5523 12.5523 13 12 13H7.23607C7.71112 12.4692 8 11.7684 8 11V5Z" fill="black"/>
<path fill-rule="evenodd" clip-rule="evenodd" d="M3 11C3 10.8457 3.01747 10.6955 3.05054 10.5513C3.09555 10.3549 3.16947 10.1696 3.26757 10C3.5579 9.49811 4.06007 9.13411 4.65177 9.03021C4.76486 9.01036 4.88122 9 5 9C5.16585 9 5.32699 9.02019 5.48109 9.05824C6.09668 9.21026 6.59998 9.64737 6.84282 10.2215C6.94403 10.4608 7 10.7238 7 11C7 11.4586 6.84563 11.8812 6.58604 12.2185C6.37495 12.4929 6.09429 12.7109 5.77047 12.8462C5.66732 12.8893 5.55979 12.924 5.44873 12.9495C5.30448 12.9825 5.15428 13 5 13C3.89543 13 3 12.1046 3 11ZM4 11C4 10.4477 4.44772 10 5 10C5.55228 10 6 10.4477 6 11C6 11.5523 5.55228 12 5 12C4.44772 12 4 11.5523 4 11Z" fill="black"/>
</svg>
