<svg width="16" height="16" viewBox="0 0 16 16" fill="none" xmlns="http://www.w3.org/2000/svg">
<path fill-rule="evenodd" clip-rule="evenodd" d="M2.5 5C2.5 4.44772 2.94772 4 3.5 4H9.5C10.0523 4 10.5 4.44772 10.5 5V11C10.5 11.5523 10.0523 12 9.5 12H3.5C2.94772 12 2.5 11.5523 2.5 11V5ZM4 6C4 5.72386 4.22386 5.5 4.5 5.5H6C6.27614 5.5 6.5 5.72386 6.5 6C6.5 6.27614 6.27614 6.5 6 6.5H4.5C4.22386 6.5 4 6.27614 4 6ZM11.8317 5.33405C11.6284 5.43568 11.5 5.64344 11.5 5.87071V10.1291C11.5 10.3563 11.6284 10.5641 11.8317 10.6657L12.9211 11.2104C13.1871 11.3434 13.5 11.15 13.5 10.8527V5.1471C13.5 4.84975 13.1871 4.65635 12.9211 4.78933L11.8317 5.33405Z" fill="black"/>
</svg>
