<svg width="16" height="16" viewBox="0 0 16 16" fill="none" xmlns="http://www.w3.org/2000/svg">
<path d="M10.5 3C10.2239 3 10 3.22386 10 3.5V11.5C10 11.7761 10.2239 12 10.5 12C10.7761 12 11 11.7761 11 11.5V3.5C11 3.22386 10.7761 3 10.5 3Z" fill="black"/>
<path d="M6.5 5C6.22386 5 6 5.22386 6 5.5V11.5C6 11.7761 6.22386 12 6.5 12C6.77614 12 7 11.7761 7 11.5V5.5C7 5.22386 6.77614 5 6.5 5Z" fill="black"/>
<path d="M8.5 7.00004C8.22386 7.00004 8 7.2239 8 7.50004V11.5C8 11.7762 8.22386 12 8.5 12C8.77614 12 9 11.7762 9 11.5V7.50004C9 7.2239 8.77614 7.00004 8.5 7.00004Z" fill="black"/>
<path d="M12.5 7C12.7761 7 13 7.22386 13 7.5V11.5C13 11.7761 12.7761 12 12.5 12C12.2239 12 12 11.7761 12 11.5V7.5C12 7.22386 12.2239 7 12.5 7Z" fill="black"/>
<path d="M4.5 8C4.77614 8 5 8.22386 5 8.5V11.5C5 11.7761 4.77614 12 4.5 12C4.22386 12 4 11.7761 4 11.5V8.5C4 8.22386 4.22386 8 4.5 8Z" fill="black"/>
<path d="M3.5 13C3.22386 13 3 13.2239 3 13.5C3 13.7761 3.22386 14 3.5 14H13.5C13.7761 14 14 13.7761 14 13.5C14 13.2239 13.7761 13 13.5 13H3.5Z" fill="black"/>
</svg>
