<svg width="16" height="16" viewBox="0 0 16 16" fill="none" xmlns="http://www.w3.org/2000/svg">
<path d="M6.81827 4C6.26598 4 5.81827 4.44772 5.81827 5V5.72727C5.81827 6.27956 6.26598 6.72727 6.81827 6.72727H13.0001C13.5524 6.72727 14.0001 6.27956 14.0001 5.72727V5C14.0001 4.44772 13.5524 4 13.0001 4H6.81827Z" fill="black"/>
<path d="M6.81827 8.90912C6.26598 8.90912 5.81827 9.35683 5.81827 9.90912V10.6364C5.81827 11.1887 6.26598 11.6364 6.81827 11.6364H13.0001C13.5524 11.6364 14.0001 11.1887 14.0001 10.6364V9.90912C14.0001 9.35683 13.5524 8.90912 13.0001 8.90912H6.81827Z" fill="black"/>
<path d="M2.4359 6.07066C1.93535 6.89347 1.79249 7.69631 1.87848 8.42245C1.99786 9.43054 2.54975 10.2183 3.03147 10.6464C3.23786 10.8299 3.55389 10.8113 3.73735 10.6049C3.92081 10.3985 3.90222 10.0825 3.69583 9.89903C3.35936 9.59995 2.95671 9.02402 2.87154 8.30485C2.81275 7.8084 2.90052 7.20489 3.32465 6.53431L3.41597 7.08224C3.46137 7.35462 3.71898 7.53863 3.99137 7.49324C4.26375 7.44784 4.44776 7.19023 4.40237 6.91784L4.14608 5.38012C4.14315 5.36257 4.1395 5.34533 4.13514 5.32842C4.127 5.21244 4.0786 5.09876 3.98993 5.01009C3.8591 4.87926 3.67381 4.83609 3.50703 4.88058C3.48996 4.88195 3.47281 4.88405 3.4556 4.88692L1.91788 5.14321C1.64549 5.1886 1.46148 5.44622 1.50688 5.7186C1.55228 5.99099 1.80989 6.175 2.08228 6.1296L2.4359 6.07066Z" fill="black"/>
</svg>
