<svg width="16" height="16" viewBox="0 0 16 16" fill="none" xmlns="http://www.w3.org/2000/svg">
<path fill-rule="evenodd" clip-rule="evenodd" d="M11.5 4.99956L8.32552 2.27857C8.13827 2.11808 7.86197 2.11808 7.67473 2.27857L1.61586 7.47189C1.40439 7.65315 1.53258 7.99966 1.8111 7.99966H2.40012H3.50012V13.4997C3.50012 13.7758 3.72398 13.9997 4.00012 13.9997H12.0001C12.2763 13.9997 12.5001 13.7758 12.5001 13.4997V7.99966H14.1891C14.4677 7.99966 14.5959 7.65315 14.3844 7.47189L12.5 5.8567V3.49976C12.5 3.22361 12.2761 2.99976 12 2.99976C11.7239 2.99976 11.5 3.22361 11.5 3.49976V4.99956ZM9.85355 8.1462C10.0488 8.34146 10.0488 8.65805 9.85355 8.85331L6.85355 11.8533C6.65829 12.0486 6.34171 12.0486 6.14645 11.8533C5.95118 11.658 5.95118 11.3415 6.14645 11.1462L9.14645 8.1462C9.34171 7.95094 9.65829 7.95094 9.85355 8.1462ZM6 8.74976C6 8.33554 6.33579 7.99976 6.75 7.99976C7.16421 7.99976 7.5 8.33554 7.5 8.74976C7.5 9.16397 7.16421 9.49976 6.75 9.49976C6.33579 9.49976 6 9.16397 6 8.74976ZM9.25 10.4998C8.83579 10.4998 8.5 10.8355 8.5 11.2498C8.5 11.664 8.83579 11.9998 9.25 11.9998C9.66421 11.9998 10 11.664 10 11.2498C10 10.8355 9.66421 10.4998 9.25 10.4998Z" fill="black"/>
</svg>
