<svg width="16" height="16" viewBox="0 0 16 16" fill="none" xmlns="http://www.w3.org/2000/svg">
<path fill-rule="evenodd" clip-rule="evenodd" d="M2.5 7C2.5 6.44772 2.94772 6 3.5 6H6.5C7.05228 6 7.5 6.44772 7.5 7L8.5 7C8.5 6.44772 8.94772 6 9.5 6H12.5C13.0523 6 13.5 6.44772 13.5 7H13.75C14.1642 7 14.5 7.33579 14.5 7.75C14.5 8.16421 14.1642 8.5 13.75 8.5H13.5V8.9C13.5 9.78366 12.7837 10.5 11.9 10.5H10.1C9.21634 10.5 8.5 9.78366 8.5 8.9V8.5H7.5V8.9C7.5 9.78366 6.78366 10.5 5.9 10.5H4.1C3.21634 10.5 2.5 9.78366 2.5 8.9V8.5H2.25C1.83579 8.5 1.5 8.16421 1.5 7.75C1.5 7.33579 1.83579 7 2.25 7L2.5 7Z" fill="black"/>
</svg>
