<svg width="16" height="16" viewBox="0 0 16 16" fill="none" xmlns="http://www.w3.org/2000/svg">
<path fill-rule="evenodd" clip-rule="evenodd" d="M3 3.5C2.44772 3.5 2 3.94772 2 4.5V11.5C2 12.0523 2.44772 12.5 3 12.5H13C13.5523 12.5 14 12.0523 14 11.5V4.5C14 3.94772 13.5523 3.5 13 3.5H3ZM4.35355 5.14645C4.15829 4.95118 3.84171 4.95118 3.64645 5.14645C3.45118 5.34171 3.45118 5.65829 3.64645 5.85355L7.29289 9.5C7.68342 9.89052 8.31658 9.89052 8.70711 9.5L12.3536 5.85355C12.5488 5.65829 12.5488 5.34171 12.3536 5.14645C12.1583 4.95118 11.8417 4.95118 11.6464 5.14645L8 8.79289L4.35355 5.14645Z" fill="black"/>
</svg>
