<svg width="16" height="16" viewBox="0 0 16 16" fill="none" xmlns="http://www.w3.org/2000/svg">
<path fill-rule="evenodd" clip-rule="evenodd" d="M7.5 12.4725V12.0195C7.5 10.1053 5.808 8.54545 3.875 8.54545H3.53272C3.78216 10.6098 5.42937 12.2436 7.5 12.4725ZM3.53272 7.45455C3.80193 5.2265 5.69934 3.5 8 3.5C10.3007 3.5 12.1981 5.2265 12.4673 7.45455H11.375C10.858 7.45455 10.2946 7.35991 9.92904 6.99789L9.57284 6.64515C9.35983 6.43422 9.10578 6.26833 8.82609 6.15754C8.29579 5.94749 7.70421 5.94749 7.17391 6.15754C6.89422 6.26833 6.64017 6.43422 6.42716 6.64515L6.07096 6.99788C5.70538 7.35991 5.14201 7.45455 4.625 7.45455H3.53272ZM12.4673 8.54545H12.125C10.192 8.54545 8.5 10.1053 8.5 12.0195V12.4725C10.5706 12.2436 12.2178 10.6098 12.4673 8.54545ZM14 8C14 11.3137 11.3137 14 8 14C4.68629 14 2 11.3137 2 8C2 4.68629 4.68629 2 8 2C11.3137 2 14 4.68629 14 8ZM9 7.98815C9 8.53506 8.55228 8.97836 8 8.97836C7.44772 8.97836 7 8.53506 7 7.98815C7 7.44124 7.44772 6.99788 8 6.99788C8.55228 6.99788 9 7.44124 9 7.98815Z" fill="black"/>
</svg>
