<svg width="16" height="16" viewBox="0 0 16 16" fill="none" xmlns="http://www.w3.org/2000/svg">
<path fill-rule="evenodd" clip-rule="evenodd" d="M3.86842 4C3.38881 4 3 4.38881 3 4.86842C3 5.34804 3.38881 5.73684 3.86842 5.73684C4.34804 5.73684 4.73684 5.34804 4.73684 4.86842C4.73684 4.38881 4.34804 4 3.86842 4ZM3.86842 7.47369C3.38881 7.47369 3 7.8625 3 8.34211C3 8.82173 3.38881 9.21054 3.86842 9.21054C4.34804 9.21054 4.73684 8.82173 4.73684 8.34211C4.73684 7.8625 4.34804 7.47369 3.86842 7.47369ZM3 11.8158C3 11.3362 3.38881 10.9474 3.86842 10.9474C4.34804 10.9474 4.73684 11.3362 4.73684 11.8158C4.73684 12.2954 4.34804 12.6842 3.86842 12.6842C3.38881 12.6842 3 12.2954 3 11.8158ZM6.4737 4.36841C6.19756 4.36841 5.9737 4.59227 5.9737 4.86841C5.9737 5.14455 6.19756 5.36841 6.4737 5.36841H12C12.2762 5.36841 12.5 5.14455 12.5 4.86841C12.5 4.59227 12.2762 4.36841 12 4.36841H6.4737ZM5.9737 8.3421C5.9737 8.06596 6.19756 7.8421 6.4737 7.8421H12C12.2762 7.8421 12.5 8.06596 12.5 8.3421C12.5 8.61824 12.2762 8.8421 12 8.8421H6.4737C6.19756 8.8421 5.9737 8.61824 5.9737 8.3421ZM6.4737 11.3158C6.19756 11.3158 5.9737 11.5397 5.9737 11.8158C5.9737 12.0919 6.19756 12.3158 6.4737 12.3158H12C12.2762 12.3158 12.5 12.0919 12.5 11.8158C12.5 11.5397 12.2762 11.3158 12 11.3158H6.4737Z" fill="black"/>
</svg>
