<svg width="16" height="16" viewBox="0 0 16 16" fill="none" xmlns="http://www.w3.org/2000/svg">
<path fill-rule="evenodd" clip-rule="evenodd" d="M5.70599 2.27905C6.10427 2.39284 6.33489 2.80796 6.22109 3.20623L5.4228 6.00024H10.5771L9.77881 3.20623C9.66501 2.80796 9.89563 2.39284 10.2939 2.27905C10.6922 2.16526 11.1073 2.39588 11.2211 2.79415L12.1371 6.00024H13.3975C13.7106 6.00024 13.9467 6.28468 13.889 6.59239L12.5765 13.5924C12.5321 13.8289 12.3256 14.0002 12.085 14.0002H3.91495C3.67434 14.0002 3.46785 13.8289 3.42351 13.5924L2.11101 6.59239C2.05332 6.28468 2.28938 6.00024 2.60245 6.00024H3.86278L4.77881 2.79415C4.8926 2.39588 5.30771 2.16526 5.70599 2.27905ZM4.5 9.00024C4.5 8.7241 4.72386 8.50024 5 8.50024H11C11.2761 8.50024 11.5 8.7241 11.5 9.00024C11.5 9.27639 11.2761 9.50024 11 9.50024H5C4.72386 9.50024 4.5 9.27639 4.5 9.00024ZM4.5 11.0002C4.5 10.7241 4.72386 10.5002 5 10.5002H11C11.2761 10.5002 11.5 10.7241 11.5 11.0002C11.5 11.2764 11.2761 11.5002 11 11.5002H5C4.72386 11.5002 4.5 11.2764 4.5 11.0002Z" fill="black"/>
</svg>
