<svg width="16" height="16" viewBox="0 0 16 16" fill="none" xmlns="http://www.w3.org/2000/svg">
<path d="M7.32047 4.2265C7.42801 4.42139 7.53409 4.61353 7.64529 4.78027C7.84061 5.07324 8.15726 5.07324 8.35245 4.78027C8.46317 4.6142 8.569 4.42291 8.6763 4.22888C8.83084 3.94946 8.98856 3.66425 9.16885 3.44025C9.37589 3.18304 9.49991 2.85608 9.49991 2.50018C9.49991 1.67163 8.82816 1 7.99966 1C7.17117 1 6.49954 1.67163 6.49954 2.50018C6.49954 2.85535 6.62296 3.1817 6.82938 3.43866C6.91373 3.54382 6.99319 3.66241 7.06973 3.78754C7.15616 3.92883 7.2388 4.07843 7.32047 4.2265Z" fill="black"/>
<path d="M10.8776 12.8703C12.01 12.1544 13 11.5286 13 9.98236C13 7.86694 11.0673 6.58484 8.90176 7.12256C8.31131 7.26917 7.68509 7.26892 7.09439 7.12317C4.92972 6.58899 3.00003 7.88464 3.00003 10C3.00003 11.5449 3.9888 12.1663 5.1199 12.8771C5.88809 13.3599 6.72183 13.8839 7.35611 14.7664C7.62991 15.1473 8.36722 15.1477 8.6409 14.7667C9.27567 13.8829 10.1094 13.3559 10.8776 12.8703Z" fill="black"/>
<path d="M9.59048 4.58038C9.78323 4.31146 9.97537 4.04358 10.0993 3.80853C10.2293 3.56183 10.4322 3.34753 10.6988 3.19879C11.4325 2.78955 12.3706 3.03241 12.7942 3.74127C13.2178 4.4502 12.9665 5.35663 12.2328 5.76587C11.9462 5.92578 11.5 6.00385 11 6C10.6746 5.9975 10.4435 6.00159 10.2471 6.00513C9.95999 6.01025 9.74734 6.01404 9.423 5.99384C9.06375 5.97144 8.90189 5.70056 9.06143 5.38873C9.18765 5.14227 9.38943 4.86078 9.59048 4.58038Z" fill="black"/>
<path d="M6.24759 4.3504C6.49844 4.7005 6.77933 5.06726 6.93875 5.38232C7.09793 5.69708 6.93643 5.97058 6.57791 5.99323C6.03934 6.02716 5.00003 6 4.71231 5.98248C4.29861 5.95728 4.06351 5.96051 3.76566 5.79242C3.03348 5.37921 2.78262 4.46411 3.20535 3.74841C3.62808 3.03271 4.56424 2.78754 5.29642 3.20074C5.55264 3.34534 5.74991 3.55133 5.88004 3.78882C5.97525 3.96271 6.10672 4.15393 6.24759 4.3504Z" fill="black"/>
</svg>
