<svg width="16" height="16" viewBox="0 0 16 16" fill="none" xmlns="http://www.w3.org/2000/svg">
<path fill-rule="evenodd" clip-rule="evenodd" d="M5.37114 4.33506C5.55618 4.13008 5.54003 3.81391 5.33505 3.62887C5.13008 3.44383 4.81391 3.45998 4.62887 3.66495L3.71765 4.6743L3.33914 4.32491C3.13623 4.13761 2.8199 4.15026 2.6326 4.35317C2.4453 4.55608 2.45795 4.87241 2.66086 5.05971L3.33656 5.68344C3.58196 5.90996 3.9651 5.89251 4.18889 5.64462L5.37114 4.33506ZM6.5 5.38458C6.5 5.10844 6.72386 4.88458 7 4.88458H12C12.2761 4.88458 12.5 5.10844 12.5 5.38458C12.5 5.66072 12.2761 5.88458 12 5.88458H7C6.72386 5.88458 6.5 5.66072 6.5 5.38458ZM3.75 7.5C3.33579 7.5 3 7.83579 3 8.25C3 8.66421 3.33579 9 3.75 9C4.16421 9 4.5 8.66421 4.5 8.25C4.5 7.83579 4.16421 7.5 3.75 7.5ZM3.75 10.2308C3.33579 10.2308 3 10.5666 3 10.9808C3 11.395 3.33579 11.7308 3.75 11.7308C4.16421 11.7308 4.5 11.395 4.5 10.9808C4.5 10.5666 4.16421 10.2308 3.75 10.2308ZM6 7.75C5.72386 7.75 5.5 7.97386 5.5 8.25C5.5 8.52614 5.72386 8.75 6 8.75H12C12.2761 8.75 12.5 8.52614 12.5 8.25C12.5 7.97386 12.2761 7.75 12 7.75H6ZM5.5 11C5.5 10.7239 5.72386 10.5 6 10.5H12C12.2761 10.5 12.5 10.7239 12.5 11C12.5 11.2761 12.2761 11.5 12 11.5H6C5.72386 11.5 5.5 11.2761 5.5 11Z" fill="black"/>
</svg>
