<svg width="16" height="16" viewBox="0 0 16 16" fill="none" xmlns="http://www.w3.org/2000/svg">
<path fill-rule="evenodd" clip-rule="evenodd" d="M4 3C4 2.44772 4.44775 2 5 2H11C11.5522 2 12 2.44772 12 3V4.55576C11.89 4.61966 11.7865 4.6987 11.6923 4.79288C11.5278 4.95728 11.4097 5.1503 11.3375 5.35593C10.9259 5.33282 10.5067 5.47849 10.1923 5.79288C9.62988 6.35529 9.60742 7.25311 10.1249 7.84232C10.1266 7.84702 10.1283 7.85223 10.1299 7.85788L10.1301 7.85886C9.6073 8.44794 9.62805 9.34991 10.1923 9.91422C10.5067 10.2286 10.9259 10.3743 11.3375 10.3512C11.4097 10.5568 11.5278 10.7498 11.6923 10.9142C11.7865 11.0084 11.89 11.0874 12 11.1513V13C12 13.5523 11.5522 14 11 14H5C4.44775 14 4 13.5523 4 13V3ZM6.5 3.5C6.5 3.22385 6.72388 3 7 3H9C9.27612 3 9.5 3.22385 9.5 3.5C9.5 3.77615 9.27612 4 9 4H7C6.72388 4 6.5 3.77615 6.5 3.5ZM8 11.25C7.58582 11.25 7.25 11.5858 7.25 12C7.25 12.4142 7.58582 12.75 8 12.75C8.41418 12.75 8.75 12.4142 8.75 12C8.75 11.5858 8.41418 11.25 8 11.25Z" fill="black"/>
<path d="M11.8331 6.79596C11.8971 6.90262 11.9536 7.02103 12 7.147C12.061 7.31256 12.1046 7.49115 12.1249 7.67331C12.158 7.97055 12.1309 8.30176 12 8.62027C11.9563 8.72665 11.901 8.83157 11.8326 8.93323C11.8037 8.97623 11.7725 9.01865 11.7388 9.06033C11.7255 9.07675 11.7118 9.09305 11.6978 9.10922C11.6689 9.14233 11.6385 9.17499 11.6064 9.20709C11.5314 9.2822 11.4384 9.32843 11.3411 9.34576C11.1857 9.37347 11.0195 9.32724 10.8994 9.20709C10.875 9.18268 10.8536 9.15637 10.8353 9.12866C10.7072 8.9346 10.7285 8.67084 10.8994 8.5C10.9028 8.49661 10.9061 8.49323 10.9094 8.48981C10.9436 8.45444 10.9736 8.41754 10.9995 8.37933C11.0125 8.36035 11.0244 8.34106 11.0354 8.32144L11.0363 8.31985C11.0459 8.30261 11.0547 8.28516 11.0629 8.26746C11.0802 8.22971 11.0944 8.19101 11.1055 8.15149C11.1299 8.06482 11.1399 7.9743 11.1377 7.88181C11.1377 7.87723 11.1372 7.87262 11.1372 7.86801C11.1361 7.84009 11.1342 7.81198 11.131 7.78375C11.0996 7.5018 10.9728 7.28046 10.8994 7.20709C10.875 7.18268 10.8536 7.15637 10.8353 7.12866C10.7072 6.9346 10.7285 6.67084 10.8994 6.5C10.9144 6.48499 10.9302 6.4711 10.9465 6.4584C11.0609 6.36945 11.2051 6.3371 11.3411 6.36133C11.438 6.3786 11.5306 6.42453 11.6056 6.49911L11.6064 6.5C11.6849 6.57849 11.7587 6.67392 11.8246 6.78183C11.8274 6.78653 11.8303 6.79123 11.8331 6.79596Z" fill="black"/>
<path d="M13.1064 5.49997C12.9113 5.30469 12.5946 5.30469 12.3994 5.49997C12.2041 5.69522 12.2041 6.01181 12.3994 6.20706C12.6396 6.44733 12.933 7.0022 13.006 7.65872C13.0767 8.29514 12.9346 8.96472 12.3994 9.49997C12.2041 9.69522 12.2041 10.0118 12.3994 10.2071C12.5946 10.4023 12.9113 10.4023 13.1064 10.2071C13.9045 9.40897 14.0958 8.4119 13.9999 7.54831C13.9061 6.70483 13.5328 5.92636 13.1064 5.49997Z" fill="black"/>
</svg>
