<svg width="16" height="16" viewBox="0 0 16 16" fill="none" xmlns="http://www.w3.org/2000/svg">
<path fill-rule="evenodd" clip-rule="evenodd" d="M8 2.5C8.55228 2.5 9 2.94772 9 3.5V3.5771C11.7317 4.00281 13.8376 6.13995 13.9911 8.70006C14.001 8.86545 13.8658 9 13.7001 9H2.30008C2.13439 9 1.99914 8.86545 2.00906 8.70006C2.1626 6.14 4.26835 4.0029 7 3.57713V3.5C7 2.94772 7.44772 2.5 8 2.5ZM12.625 11H14C14.2761 11 14.5 10.7761 14.5 10.5C14.5 10.2239 14.2761 10 14 10H2C1.72386 10 1.5 10.2239 1.5 10.5C1.5 10.7761 1.72386 11 2 11H3.375L3.9 11.7C4.27771 12.2036 4.87049 12.5 5.5 12.5H10.5C11.1295 12.5 11.7223 12.2036 12.1 11.7L12.625 11ZM6.15801 5.97423C6.41998 5.88691 6.56156 5.60375 6.47423 5.34178C6.38691 5.07981 6.10375 4.93823 5.84178 5.02555C4.43977 5.49289 3.72131 6.7545 3.52555 7.34178C3.43823 7.60375 3.57981 7.88691 3.84178 7.97423C4.10375 8.06156 4.38691 7.91998 4.47423 7.65801C4.61181 7.24528 5.16001 6.3069 6.15801 5.97423Z" fill="black"/>
</svg>
