<svg width="16" height="16" viewBox="0 0 16 16" fill="none" xmlns="http://www.w3.org/2000/svg">
<path fill-rule="evenodd" clip-rule="evenodd" d="M8.5 2C8.5 1.72386 8.27614 1.5 8 1.5C7.72386 1.5 7.5 1.72386 7.5 2V2.52214C4.52728 2.78687 2.24109 5.39124 2.01781 8.50006C1.99803 8.7755 2.22376 9 2.4999 9H7.5V12.8C7.5 13.093 7.41058 13.2643 7.32273 13.358C7.23249 13.4543 7.11585 13.5 7 13.5C6.88415 13.5 6.76751 13.4543 6.67727 13.358C6.58942 13.2643 6.5 13.093 6.5 12.8C6.5 12.5239 6.27614 12.3 6 12.3C5.72386 12.3 5.5 12.5239 5.5 12.8C5.5 13.307 5.66058 13.7357 5.94773 14.042C6.23249 14.3457 6.61585 14.5 7 14.5C7.38415 14.5 7.76751 14.3457 8.05227 14.042C8.33942 13.7357 8.5 13.307 8.5 12.8V9H13.4999C13.776 9 14.0018 8.7755 13.982 8.50006C13.7587 5.39131 11.4726 2.78699 8.5 2.52216V2ZM9.5 4C9.22386 4 9 4.22386 9 4.5C9 4.77614 9.22386 5 9.5 5C9.61661 5 9.89519 5.07272 10.2226 5.29103C10.5364 5.50018 10.8473 5.81258 11.0528 6.22361C11.1763 6.47059 11.4766 6.57071 11.7236 6.44721C11.9706 6.32372 12.0707 6.02338 11.9472 5.77639C11.6527 5.18742 11.2136 4.74982 10.7774 4.45897C10.3548 4.17728 9.88339 4 9.5 4Z" fill="black"/>
</svg>
