<svg width="16" height="16" viewBox="0 0 16 16" fill="none" xmlns="http://www.w3.org/2000/svg">
<path fill-rule="evenodd" clip-rule="evenodd" d="M3 2.5C2.72386 2.5 2.5 2.72386 2.5 3V13C2.5 13.2761 2.72386 13.5 3 13.5H13C13.2761 13.5 13.5 13.2761 13.5 13V3C13.5 2.72386 13.2761 2.5 13 2.5H3ZM8.58397 10.2774L6.99999 7.9014L5.41602 10.2774C5.26284 10.5071 4.95241 10.5692 4.72264 10.416C4.49288 10.2629 4.43079 9.95243 4.58397 9.72266L6.50076 6.84747C6.73825 6.49123 7.26173 6.49123 7.49922 6.84747L9.41602 9.72266C9.56919 9.95243 9.50711 10.2629 9.27734 10.416C9.04758 10.5692 8.73714 10.5071 8.58397 10.2774ZM8.72264 6.58397C8.95241 6.43079 9.26284 6.49288 9.41602 6.72264L11.416 9.72264C11.5692 9.95241 11.5071 10.2628 11.2773 10.416C11.0476 10.5692 10.7371 10.5071 10.584 10.2773L8.58397 7.27734C8.43079 7.04758 8.49288 6.73714 8.72264 6.58397ZM10.5 6C10.7761 6 11 5.77614 11 5.5C11 5.22386 10.7761 5 10.5 5C10.2239 5 10 5.22386 10 5.5C10 5.77614 10.2239 6 10.5 6Z" fill="black"/>
</svg>
