<svg width="16" height="16" viewBox="0 0 16 16" fill="none" xmlns="http://www.w3.org/2000/svg">
<path d="M9.02534 1.91781C8.81085 2.13231 8.81085 2.48007 9.02534 2.69456L11.8447 5.5139C12.079 5.74822 12.4589 5.74822 12.6932 5.51391L13.283 4.92411C13.5173 4.68979 13.5173 4.3099 13.283 4.07558L11.1252 1.91781C10.5454 1.33794 9.60522 1.33794 9.02534 1.91781Z" fill="black"/>
<path d="M1.21724 5.61323C0.982924 5.84755 0.982927 6.22745 1.21724 6.46176L2.65503 7.89955C2.88935 8.13387 3.26925 8.13387 3.50356 7.89955L7.42214 3.98098L10.4244 6.98326C10.6197 7.17852 10.9363 7.17852 11.1315 6.98326C11.3268 6.78799 11.3268 6.47141 11.1315 6.27615L7.61069 2.75531C6.63438 1.779 5.05147 1.779 4.07516 2.75532L1.21724 5.61323Z" fill="black"/>
<path d="M14.8114 10.015C15.0457 9.78072 15.0457 9.40082 14.8114 9.16651L13.3736 7.72871C13.1393 7.4944 12.7594 7.4944 12.5251 7.72871L8.60653 11.6473L5.60425 8.64501C5.40899 8.44975 5.09241 8.44975 4.89715 8.64501C4.70188 8.84027 4.70188 9.15685 4.89715 9.35212L8.41798 12.873C9.39429 13.8493 10.9772 13.8493 11.9535 12.873L14.8114 10.015Z" fill="black"/>
<path d="M7.47492 14.0819C7.68941 13.8674 7.68941 13.5196 7.47492 13.3051L4.65557 10.4858C4.42126 10.2515 4.04136 10.2515 3.80704 10.4858L3.21725 11.0756C2.98293 11.3099 2.98293 11.6898 3.21725 11.9241L5.37501 14.0819C5.95488 14.6617 6.89504 14.6617 7.47492 14.0819Z" fill="black"/>
</svg>
