<svg width="16" height="16" viewBox="0 0 16 16" fill="none" xmlns="http://www.w3.org/2000/svg">
<path fill-rule="evenodd" clip-rule="evenodd" d="M2 2.6C2 2.26863 2.26863 2 2.6 2H4.5C4.77614 2 5 2.22386 5 2.5C5 2.77614 4.77614 3 4.5 3H3V4.5C3 4.77614 2.77614 5 2.5 5C2.22386 5 2 4.77614 2 4.5V2.6ZM2 13.4C2 13.7314 2.26863 14 2.6 14H4.5C4.77614 14 5 13.7761 5 13.5C5 13.2239 4.77614 13 4.5 13H3V11.5C3 11.2239 2.77614 11 2.5 11C2.22386 11 2 11.2239 2 11.5V13.4ZM13.4 2C13.7314 2 14 2.26863 14 2.6V4.5C14 4.77614 13.7761 5 13.5 5C13.2239 5 13 4.77614 13 4.5V3H11.5C11.2239 3 11 2.77614 11 2.5C11 2.22386 11.2239 2 11.5 2H13.4ZM14 13.4C14 13.7314 13.7314 14 13.4 14H11.5C11.2239 14 11 13.7761 11 13.5C11 13.2239 11.2239 13 11.5 13H13V11.5C13 11.2239 13.2239 11 13.5 11C13.7761 11 14 11.2239 14 11.5V13.4ZM4 5.3C4 5.13431 4.13431 5 4.3 5H11.7C11.8657 5 12 5.13431 12 5.3V6.5H4V5.3ZM4 7.5H12V10.2C12 10.3657 11.8657 10.5 11.7 10.5H4.3C4.13431 10.5 4 10.3657 4 10.2V7.5Z" fill="black"/>
</svg>
