<svg width="16" height="16" viewBox="0 0 16 16" fill="none" xmlns="http://www.w3.org/2000/svg">
<path fill-rule="evenodd" clip-rule="evenodd" d="M5.64632 8.35341L6.57299 9.28008C6.935 11.1029 4.79813 11.9479 2.24137 11.9975C2.1523 11.9993 2.10758 11.8922 2.17058 11.8292L5.64632 8.35341ZM11.0452 2.95451L6.35343 7.64631L7.33194 8.62482C7.85902 8.76268 8.42932 8.64199 8.85877 8.28412L12.8642 4.94629C13.474 4.43806 13.5159 3.51586 12.9545 2.95451C12.4273 2.42727 11.5725 2.42727 11.0452 2.95451ZM7.99988 11.4999C7.99988 11.2237 8.22374 10.9999 8.49988 10.9999H9.99988C10.276 10.9999 10.4999 11.2237 10.4999 11.4999C10.4999 11.776 10.276 11.9999 9.99988 11.9999H8.49988C8.22374 11.9999 7.99988 11.776 7.99988 11.4999ZM11.4999 11.4999C11.4999 11.2237 11.7237 10.9999 11.9999 10.9999H13.4999C13.776 10.9999 13.9999 11.2237 13.9999 11.4999C13.9999 11.776 13.776 11.9999 13.4999 11.9999H11.9999C11.7237 11.9999 11.4999 11.776 11.4999 11.4999Z" fill="black"/>
</svg>
