<svg width="16" height="16" viewBox="0 0 16 16" fill="none" xmlns="http://www.w3.org/2000/svg">
<path fill-rule="evenodd" clip-rule="evenodd" d="M8 16C12.4183 16 16 12.4183 16 8C16 3.58172 12.4183 0 8 0C3.58172 0 0 3.58172 0 8C0 12.4183 3.58172 16 8 16ZM2.52758 7.57029C2.91785 9.1823 4.4804 12 7.99998 12C11.5196 12 13.0821 9.1823 13.4724 7.57029C12.7534 6.2565 10.7974 4 7.99998 4C5.20258 4 3.24653 6.2565 2.52758 7.57029ZM1.63952 7.11009C2.41836 5.6746 4.64336 3 7.99998 3C11.3566 3 13.5816 5.6746 14.3604 7.11009C14.4721 7.31592 14.504 7.55496 14.4497 7.78309C14.0178 9.59857 12.2072 13 7.99998 13C3.79281 13 1.98212 9.59857 1.55026 7.78309C1.49599 7.55496 1.52785 7.31592 1.63952 7.11009ZM4.67411 7.4402C4.46174 7.26369 4.1465 7.29275 3.96999 7.50512C3.79348 7.71748 3.82254 8.03273 4.0349 8.20924C4.3077 8.43598 4.61555 8.64598 4.96501 8.82788L4.64645 9.14645C4.45118 9.34171 4.45118 9.65829 4.64645 9.85355C4.84171 10.0488 5.15829 10.0488 5.35355 9.85355L5.85355 9.35355C5.8928 9.31431 5.92416 9.27016 5.94763 9.22308C6.4071 9.3595 6.92178 9.45181 7.5 9.48564V10C7.5 10.2761 7.72386 10.5 8 10.5C8.27614 10.5 8.5 10.2761 8.5 10V9.48567C9.07824 9.45187 9.59294 9.35959 10.0524 9.22319C10.0759 9.27023 10.1072 9.31434 10.1464 9.35355L10.6464 9.85355C10.8417 10.0488 11.1583 10.0488 11.3536 9.85355C11.5488 9.65829 11.5488 9.34171 11.3536 9.14645L11.0351 8.82804C11.3847 8.6461 11.6927 8.43605 11.9655 8.20924C12.1779 8.03273 12.207 7.71748 12.0305 7.50512C11.8539 7.29275 11.5387 7.26369 11.3263 7.4402C10.6306 8.01848 9.61099 8.49999 8.00022 8.49999C6.38945 8.49999 5.36984 8.01848 4.67411 7.4402Z" fill="black"/>
</svg>
