<svg width="16" height="16" viewBox="0 0 16 16" fill="none" xmlns="http://www.w3.org/2000/svg">
<path fill-rule="evenodd" clip-rule="evenodd" d="M1.5 4.5C1.5 4.22386 1.72386 4 2 4H7C7.27614 4 7.5 4.22386 7.5 4.5V5.08V13.5C7.19357 12.8871 6.56717 12.5 5.88197 12.5H2C1.72386 12.5 1.5 12.2761 1.5 12V4.5ZM6 6.5H3V5.5H6V6.5ZM3 8.5H6V7.5H3V8.5ZM6 10.5H3V9.5H6V10.5ZM14.5 4.5C14.5 4.22386 14.2761 4 14 4H9C8.72386 4 8.5 4.22386 8.5 4.5V5.08V13.5C8.80643 12.8871 9.43283 12.5 10.118 12.5H14C14.2761 12.5 14.5 12.2761 14.5 12V4.5ZM13 6.5H10V5.5H13V6.5ZM10 8.5H13V7.5H10V8.5ZM13 10.5H10V9.5H13V10.5Z" fill="black"/>
</svg>
